<?xml version="1.0" encoding="UTF-8" standalone="no"?><!DOCTYPE svg PUBLIC "-//W3C//DTD SVG 1.1//EN" "http://www.w3.org/Graphics/SVG/1.1/DTD/svg11.dtd"><!-- Generated by graphviz version 2.40.1 (20161225.0304)
 --><!-- Title: G Pages: 1 --><svg xmlns="http://www.w3.org/2000/svg" xmlns:xlink="http://www.w3.org/1999/xlink" width="377pt" height="582pt" viewBox="0.00 0.00 376.90 581.86">
<g id="graph0" class="graph" transform="scale(1 1) rotate(0) translate(4 577.8584)">
<title>G</title>
<polygon fill="#ffffff" stroke="transparent" points="-4,4 -4,-577.8584 372.897,-577.8584 372.897,4 -4,4"/>
<!-- start -->
<g id="node1" class="node">
<title>start</title>
<polygon fill="none" stroke="#000000" points="146.4528,-573.8584 107.2155,-555.8584 146.4528,-537.8584 185.6901,-555.8584 146.4528,-573.8584"/>
<polyline fill="none" stroke="#000000" points="118.1226,-560.862 118.1226,-550.8548 "/>
<polyline fill="none" stroke="#000000" points="135.5458,-542.862 157.3599,-542.862 "/>
<polyline fill="none" stroke="#000000" points="174.7831,-550.8548 174.7831,-560.862 "/>
<polyline fill="none" stroke="#000000" points="157.3599,-568.8548 135.5458,-568.8548 "/>
<text text-anchor="middle" x="146.4528" y="-551.6584" font-family="Times,serif" font-size="14.00" fill="#000000">start</text>
</g>
<!-- BB_003084EF -->
<g id="node2" class="node">
<title>BB_003084EF</title>
<ellipse fill="none" stroke="#000000" cx="146.4528" cy="-483.8584" rx="68.9679" ry="18"/>
<text text-anchor="middle" x="146.4528" y="-479.6584" font-family="Times,serif" font-size="14.00" fill="#000000">BB_003084EF</text>
</g>
<!-- start&#45;&gt;BB_003084EF -->
<g id="edge1" class="edge">
<title>start-&gt;BB_003084EF</title>
<path fill="none" stroke="#000000" d="M146.4528,-537.6898C146.4528,-529.9894 146.4528,-520.8327 146.4528,-512.275"/>
<polygon fill="#000000" stroke="#000000" points="149.9529,-512.2716 146.4528,-502.2717 142.9529,-512.2717 149.9529,-512.2716"/>
</g>
<!-- BB_00308501 -->
<g id="node3" class="node">
<title>BB_00308501</title>
<ellipse fill="none" stroke="#000000" cx="146.4528" cy="-411.8584" rx="67.2466" ry="18"/>
<text text-anchor="middle" x="146.4528" y="-407.6584" font-family="Times,serif" font-size="14.00" fill="#000000">BB_00308501</text>
</g>
<!-- BB_003084EF&#45;&gt;BB_00308501 -->
<g id="edge2" class="edge">
<title>BB_003084EF-&gt;BB_00308501</title>
<path fill="none" stroke="#0000ff" d="M146.4528,-465.6898C146.4528,-457.9894 146.4528,-448.8327 146.4528,-440.275"/>
<polygon fill="#0000ff" stroke="#0000ff" points="149.9529,-440.2716 146.4528,-430.2717 142.9529,-440.2717 149.9529,-440.2716"/>
</g>
<!-- BB_003084F4 -->
<g id="node4" class="node">
<title>BB_003084F4</title>
<ellipse fill="none" stroke="#000000" cx="146.4528" cy="-339.8584" rx="67.8261" ry="18"/>
<text text-anchor="middle" x="146.4528" y="-335.6584" font-family="Times,serif" font-size="14.00" fill="#000000">BB_003084F4</text>
</g>
<!-- BB_00308501&#45;&gt;BB_003084F4 -->
<g id="edge6" class="edge">
<title>BB_00308501-&gt;BB_003084F4</title>
<path fill="none" stroke="#00ff00" d="M140.5004,-393.6898C139.75,-385.9894 139.5291,-376.8327 139.8377,-368.275"/>
<polygon fill="#00ff00" stroke="#00ff00" points="143.332,-368.4745 140.4768,-358.2717 136.3463,-368.0281 143.332,-368.4745"/>
</g>
<!-- BB_0030850E -->
<g id="node6" class="node">
<title>BB_0030850E</title>
<ellipse fill="none" stroke="#000000" cx="300.4528" cy="-339.8584" rx="68.3883" ry="18"/>
<text text-anchor="middle" x="300.4528" y="-335.6584" font-family="Times,serif" font-size="14.00" fill="#000000">BB_0030850E</text>
</g>
<!-- BB_00308501&#45;&gt;BB_0030850E -->
<g id="edge5" class="edge">
<title>BB_00308501-&gt;BB_0030850E</title>
<path fill="none" stroke="#ff0000" d="M180.2488,-396.0577C202.9164,-385.4599 232.9697,-371.409 257.3549,-360.0081"/>
<polygon fill="#ff0000" stroke="#ff0000" points="259.1593,-363.0282 266.7357,-355.6222 256.1945,-356.687 259.1593,-363.0282"/>
</g>
<!-- BB_003084F4&#45;&gt;BB_00308501 -->
<g id="edge3" class="edge">
<title>BB_003084F4-&gt;BB_00308501</title>
<path fill="none" stroke="#ff0000" d="M152.4288,-358.2717C153.16,-365.9177 153.3731,-374.9668 153.0683,-383.431"/>
<polygon fill="#ff0000" stroke="#ff0000" points="149.5576,-383.4848 152.4052,-393.6898 156.543,-383.9364 149.5576,-383.4848"/>
</g>
<!-- BB_00308510 -->
<g id="node5" class="node">
<title>BB_00308510</title>
<ellipse fill="none" stroke="#000000" cx="146.4528" cy="-267.7511" rx="67.2466" ry="18"/>
<text text-anchor="middle" x="146.4528" y="-263.5511" font-family="Times,serif" font-size="14.00" fill="#000000">BB_00308510</text>
</g>
<!-- BB_003084F4&#45;&gt;BB_00308510 -->
<g id="edge4" class="edge">
<title>BB_003084F4-&gt;BB_00308510</title>
<path fill="none" stroke="#00ff00" d="M146.4528,-321.6627C146.4528,-313.8915 146.4528,-304.6394 146.4528,-296.0124"/>
<polygon fill="#00ff00" stroke="#00ff00" points="149.9529,-295.941 146.4528,-285.941 142.9529,-295.941 149.9529,-295.941"/>
</g>
<!-- BB_0030851A -->
<g id="node8" class="node">
<title>BB_0030851A</title>
<ellipse fill="none" stroke="#000000" cx="97.4528" cy="-195.6438" rx="69.5321" ry="18"/>
<text text-anchor="middle" x="97.4528" y="-191.4438" font-family="Times,serif" font-size="14.00" fill="#000000">BB_0030851A</text>
</g>
<!-- BB_00308510&#45;&gt;BB_0030851A -->
<g id="edge8" class="edge">
<title>BB_00308510-&gt;BB_0030851A</title>
<path fill="none" stroke="#ff0000" d="M134.3405,-249.9268C128.6277,-241.52 121.6954,-231.3186 115.3895,-222.0389"/>
<polygon fill="#ff0000" stroke="#ff0000" points="118.1111,-219.8168 109.5957,-213.5129 112.3214,-223.7512 118.1111,-219.8168"/>
</g>
<!-- BB_002E29D0 -->
<g id="node9" class="node">
<title>BB_002E29D0</title>
<ellipse fill="none" stroke="#000000" cx="225.4528" cy="-123.6438" rx="70.6742" ry="18"/>
<text text-anchor="middle" x="225.4528" y="-119.4438" font-family="Times,serif" font-size="14.00" fill="#000000">BB_002E29D0</text>
</g>
<!-- BB_00308510&#45;&gt;BB_002E29D0 -->
<g id="edge9" class="edge">
<title>BB_00308510-&gt;BB_002E29D0</title>
<path fill="none" stroke="#00ff00" d="M156.4875,-249.7345C162.3324,-239.22 169.8324,-225.6932 176.4528,-213.6438 188.0182,-192.5944 201.0122,-168.7173 210.7119,-150.8485"/>
<polygon fill="#00ff00" stroke="#00ff00" points="214.0394,-152.0545 215.7316,-141.5956 207.8866,-148.7164 214.0394,-152.0545"/>
</g>
<!-- end -->
<g id="node7" class="node">
<title>end</title>
<polygon fill="none" stroke="#000000" points="318.6681,-285.9663 282.2376,-285.9663 282.2376,-249.5359 318.6681,-249.5359 318.6681,-285.9663"/>
<polyline fill="none" stroke="#000000" points="294.2376,-285.9663 282.2376,-273.9663 "/>
<polyline fill="none" stroke="#000000" points="282.2376,-261.5359 294.2376,-249.5359 "/>
<polyline fill="none" stroke="#000000" points="306.6681,-249.5359 318.6681,-261.5359 "/>
<polyline fill="none" stroke="#000000" points="318.6681,-273.9663 306.6681,-285.9663 "/>
<text text-anchor="middle" x="300.4528" y="-263.5511" font-family="Times,serif" font-size="14.00" fill="#000000">end</text>
</g>
<!-- BB_0030850E&#45;&gt;end -->
<g id="edge7" class="edge">
<title>BB_0030850E-&gt;end</title>
<path fill="none" stroke="#000000" d="M300.4528,-321.6627C300.4528,-313.8915 300.4528,-304.6394 300.4528,-296.0124"/>
<polygon fill="#000000" stroke="#000000" points="303.9529,-295.941 300.4528,-285.941 296.9529,-295.941 303.9529,-295.941"/>
</g>
<!-- BB_002F15F4 -->
<g id="node10" class="node">
<title>BB_002F15F4</title>
<ellipse fill="none" stroke="#000000" cx="68.4528" cy="-123.6438" rx="68.4057" ry="18"/>
<text text-anchor="middle" x="68.4528" y="-119.4438" font-family="Times,serif" font-size="14.00" fill="#000000">BB_002F15F4</text>
</g>
<!-- BB_0030851A&#45;&gt;BB_002F15F4 -->
<g id="edge10" class="edge">
<title>BB_0030851A-&gt;BB_002F15F4</title>
<path fill="none" stroke="#0000ff" d="M90.1349,-177.4752C86.9164,-169.4844 83.0664,-159.9257 79.5097,-151.0952"/>
<polygon fill="#0000ff" stroke="#0000ff" points="82.6507,-149.5254 75.668,-141.5572 76.1576,-152.1407 82.6507,-149.5254"/>
</g>
<!-- dead_end -->
<g id="node11" class="node">
<title>dead_end</title>
<polygon fill="none" stroke="#000000" points="181.0975,-69.4666 111.8081,-69.4666 111.8081,-.1772 181.0975,-.1772 181.0975,-69.4666"/>
<polyline fill="none" stroke="#000000" points="123.8081,-69.4666 111.8081,-57.4666 "/>
<polyline fill="none" stroke="#000000" points="111.8081,-12.1772 123.8081,-.1772 "/>
<polyline fill="none" stroke="#000000" points="169.0975,-.1772 181.0975,-12.1772 "/>
<polyline fill="none" stroke="#000000" points="181.0975,-57.4666 169.0975,-69.4666 "/>
<text text-anchor="middle" x="146.4528" y="-30.6219" font-family="Times,serif" font-size="14.00" fill="#000000">dead_end</text>
</g>
<!-- BB_002E29D0&#45;&gt;dead_end -->
<g id="edge11" class="edge">
<title>BB_002E29D0-&gt;dead_end</title>
<path fill="none" stroke="#000000" d="M209.466,-105.6694C202.1367,-97.4288 193.1093,-87.279 184.2009,-77.2631"/>
<polygon fill="#000000" stroke="#000000" points="186.703,-74.8099 177.4419,-69.6638 181.4725,-79.462 186.703,-74.8099"/>
</g>
<!-- BB_002F15F4&#45;&gt;dead_end -->
<g id="edge12" class="edge">
<title>BB_002F15F4-&gt;dead_end</title>
<path fill="none" stroke="#000000" d="M83.8631,-106.0955C91.1513,-97.7961 100.2,-87.492 109.1311,-77.3218"/>
<polygon fill="#000000" stroke="#000000" points="111.9381,-79.4295 115.9067,-69.6061 106.6783,-74.8106 111.9381,-79.4295"/>
</g>
</g>
</svg>