<?xml version="1.0" encoding="UTF-8" standalone="no"?><!DOCTYPE svg PUBLIC "-//W3C//DTD SVG 1.1//EN" "http://www.w3.org/Graphics/SVG/1.1/DTD/svg11.dtd"><!-- Generated by graphviz version 2.40.1 (20161225.0304)
 --><!-- Title: G Pages: 1 --><svg xmlns="http://www.w3.org/2000/svg" xmlns:xlink="http://www.w3.org/1999/xlink" width="492pt" height="764pt" viewBox="0.00 0.00 491.75 764.21">
<g id="graph0" class="graph" transform="scale(1 1) rotate(0) translate(4 760.2146)">
<title>G</title>
<polygon fill="#ffffff" stroke="transparent" points="-4,4 -4,-760.2146 487.7455,-760.2146 487.7455,4 -4,4"/>
<!-- start -->
<g id="node1" class="node">
<title>start</title>
<polygon fill="none" stroke="#000000" points="411.0157,-756.2146 371.7783,-738.2146 411.0157,-720.2146 450.253,-738.2146 411.0157,-756.2146"/>
<polyline fill="none" stroke="#000000" points="382.6854,-743.2182 382.6854,-733.211 "/>
<polyline fill="none" stroke="#000000" points="400.1086,-725.2182 421.9227,-725.2182 "/>
<polyline fill="none" stroke="#000000" points="439.3459,-733.211 439.3459,-743.2182 "/>
<polyline fill="none" stroke="#000000" points="421.9227,-751.211 400.1086,-751.211 "/>
<text text-anchor="middle" x="411.0157" y="-734.0146" font-family="Times,serif" font-size="14.00" fill="#000000">start</text>
</g>
<!-- BB_002EDA40 -->
<g id="node2" class="node">
<title>BB_002EDA40</title>
<ellipse fill="none" stroke="#000000" cx="411.0157" cy="-666.2146" rx="72.9605" ry="18"/>
<text text-anchor="middle" x="411.0157" y="-662.0146" font-family="Times,serif" font-size="14.00" fill="#000000">BB_002EDA40</text>
</g>
<!-- start&#45;&gt;BB_002EDA40 -->
<g id="edge1" class="edge">
<title>start-&gt;BB_002EDA40</title>
<path fill="none" stroke="#000000" d="M411.0157,-720.046C411.0157,-712.3456 411.0157,-703.1889 411.0157,-694.6312"/>
<polygon fill="#000000" stroke="#000000" points="414.5158,-694.6278 411.0157,-684.6279 407.5158,-694.6279 414.5158,-694.6278"/>
</g>
<!-- BB_002EDA90 -->
<g id="node3" class="node">
<title>BB_002EDA90</title>
<ellipse fill="none" stroke="#000000" cx="361.0157" cy="-594.2146" rx="72.9605" ry="18"/>
<text text-anchor="middle" x="361.0157" y="-590.0146" font-family="Times,serif" font-size="14.00" fill="#000000">BB_002EDA90</text>
</g>
<!-- BB_002EDA40&#45;&gt;BB_002EDA90 -->
<g id="edge2" class="edge">
<title>BB_002EDA40-&gt;BB_002EDA90</title>
<path fill="none" stroke="#ff0000" d="M398.6561,-648.4168C392.7666,-639.936 385.607,-629.6261 379.1195,-620.2842"/>
<polygon fill="#ff0000" stroke="#ff0000" points="381.9851,-618.2745 373.4063,-612.0571 376.2355,-622.2673 381.9851,-618.2745"/>
</g>
<!-- BB_002EDB10 -->
<g id="node4" class="node">
<title>BB_002EDB10</title>
<ellipse fill="none" stroke="#000000" cx="411.0157" cy="-234.2146" rx="72.3981" ry="18"/>
<text text-anchor="middle" x="411.0157" y="-230.0146" font-family="Times,serif" font-size="14.00" fill="#000000">BB_002EDB10</text>
</g>
<!-- BB_002EDA40&#45;&gt;BB_002EDB10 -->
<g id="edge3" class="edge">
<title>BB_002EDA40-&gt;BB_002EDB10</title>
<path fill="none" stroke="#00ff00" d="M423.5345,-648.4796C430.2013,-638.29 438.0311,-625.0087 443.0157,-612.2146 457.8565,-574.1218 462.0157,-563.0962 462.0157,-522.2146 462.0157,-522.2146 462.0157,-522.2146 462.0157,-378.2146 462.0157,-337.333 457.8565,-326.3074 443.0157,-288.2146 439.3551,-278.8189 434.1601,-269.1605 429.0181,-260.6567"/>
<polygon fill="#00ff00" stroke="#00ff00" points="431.8252,-258.5461 423.5345,-251.9496 425.902,-262.2765 431.8252,-258.5461"/>
</g>
<!-- BB_002EDAA2 -->
<g id="node5" class="node">
<title>BB_002EDAA2</title>
<ellipse fill="none" stroke="#000000" cx="248.0157" cy="-522.2146" rx="74.7458" ry="18"/>
<text text-anchor="middle" x="248.0157" y="-518.0146" font-family="Times,serif" font-size="14.00" fill="#000000">BB_002EDAA2</text>
</g>
<!-- BB_002EDA90&#45;&gt;BB_002EDAA2 -->
<g id="edge4" class="edge">
<title>BB_002EDA90-&gt;BB_002EDAA2</title>
<path fill="none" stroke="#ff0000" d="M334.5222,-577.3338C319.331,-567.6545 300.0628,-555.3774 283.569,-544.868"/>
<polygon fill="#ff0000" stroke="#ff0000" points="285.049,-541.661 274.7347,-539.2391 281.2875,-547.5645 285.049,-541.661"/>
</g>
<!-- BB_002EDB0B -->
<g id="node6" class="node">
<title>BB_002EDB0B</title>
<ellipse fill="none" stroke="#000000" cx="360.0157" cy="-306.2146" rx="73.6215" ry="18"/>
<text text-anchor="middle" x="360.0157" y="-302.0146" font-family="Times,serif" font-size="14.00" fill="#000000">BB_002EDB0B</text>
</g>
<!-- BB_002EDA90&#45;&gt;BB_002EDB0B -->
<g id="edge5" class="edge">
<title>BB_002EDA90-&gt;BB_002EDB0B</title>
<path fill="none" stroke="#00ff00" d="M357.4664,-576.1989C353.201,-527.5085 352.4942,-393.0107 355.9069,-334.2719"/>
<polygon fill="#00ff00" stroke="#00ff00" points="359.4035,-334.4385 356.5921,-324.2235 352.4198,-333.9622 359.4035,-334.4385"/>
</g>
<!-- BB_002EDB53 -->
<g id="node10" class="node">
<title>BB_002EDB53</title>
<ellipse fill="none" stroke="#000000" cx="361.0157" cy="-162.2146" rx="72.3981" ry="18"/>
<text text-anchor="middle" x="361.0157" y="-158.0146" font-family="Times,serif" font-size="14.00" fill="#000000">BB_002EDB53</text>
</g>
<!-- BB_002EDB10&#45;&gt;BB_002EDB53 -->
<g id="edge13" class="edge">
<title>BB_002EDB10-&gt;BB_002EDB53</title>
<path fill="none" stroke="#ff0000" d="M398.6561,-216.4168C392.7666,-207.936 385.607,-197.6261 379.1195,-188.2842"/>
<polygon fill="#ff0000" stroke="#ff0000" points="381.9851,-186.2745 373.4063,-180.0571 376.2355,-190.2673 381.9851,-186.2745"/>
</g>
<!-- BB_002EDB95 -->
<g id="node11" class="node">
<title>BB_002EDB95</title>
<ellipse fill="none" stroke="#000000" cx="411.0157" cy="-90.2146" rx="72.3981" ry="18"/>
<text text-anchor="middle" x="411.0157" y="-86.0146" font-family="Times,serif" font-size="14.00" fill="#000000">BB_002EDB95</text>
</g>
<!-- BB_002EDB10&#45;&gt;BB_002EDB95 -->
<g id="edge14" class="edge">
<title>BB_002EDB10-&gt;BB_002EDB95</title>
<path fill="none" stroke="#00ff00" d="M424.4875,-216.2799C431.1812,-206.2407 438.5623,-193.1665 442.0157,-180.2146 446.1377,-164.7547 446.1377,-159.6745 442.0157,-144.2146 439.4796,-134.703 434.8252,-125.1255 429.8805,-116.7325"/>
<polygon fill="#00ff00" stroke="#00ff00" points="432.7713,-114.7545 424.4875,-108.1493 426.8442,-118.4787 432.7713,-114.7545"/>
</g>
<!-- BB_002EDAAA -->
<g id="node7" class="node">
<title>BB_002EDAAA</title>
<ellipse fill="none" stroke="#000000" cx="77.0157" cy="-450.2146" rx="77.0313" ry="18"/>
<text text-anchor="middle" x="77.0157" y="-446.0146" font-family="Times,serif" font-size="14.00" fill="#000000">BB_002EDAAA</text>
</g>
<!-- BB_002EDAA2&#45;&gt;BB_002EDAAA -->
<g id="edge6" class="edge">
<title>BB_002EDAA2-&gt;BB_002EDAAA</title>
<path fill="none" stroke="#ff0000" d="M210.489,-506.4139C184.985,-495.6754 151.0608,-481.3915 123.7962,-469.9117"/>
<polygon fill="#ff0000" stroke="#ff0000" points="125.0294,-466.6334 114.4548,-465.9784 122.3129,-473.0848 125.0294,-466.6334"/>
</g>
<!-- BB_002EDADE -->
<g id="node8" class="node">
<title>BB_002EDADE</title>
<ellipse fill="none" stroke="#000000" cx="248.0157" cy="-450.2146" rx="75.8875" ry="18"/>
<text text-anchor="middle" x="248.0157" y="-446.0146" font-family="Times,serif" font-size="14.00" fill="#000000">BB_002EDADE</text>
</g>
<!-- BB_002EDAA2&#45;&gt;BB_002EDADE -->
<g id="edge7" class="edge">
<title>BB_002EDAA2-&gt;BB_002EDADE</title>
<path fill="none" stroke="#00ff00" d="M248.0157,-504.046C248.0157,-496.3456 248.0157,-487.1889 248.0157,-478.6312"/>
<polygon fill="#00ff00" stroke="#00ff00" points="251.5158,-478.6278 248.0157,-468.6279 244.5158,-478.6279 251.5158,-478.6278"/>
</g>
<!-- BB_002EDB0B&#45;&gt;BB_002EDA90 -->
<g id="edge12" class="edge">
<title>BB_002EDB0B-&gt;BB_002EDA90</title>
<path fill="none" stroke="#00ff00" d="M363.5643,-324.2235C367.83,-372.9058 368.5372,-507.4032 365.1249,-566.1491"/>
<polygon fill="#00ff00" stroke="#00ff00" points="361.6281,-565.984 364.4397,-576.1989 368.6119,-566.4602 361.6281,-565.984"/>
</g>
<!-- BB_002EDB0B&#45;&gt;BB_002EDB10 -->
<g id="edge11" class="edge">
<title>BB_002EDB0B-&gt;BB_002EDB10</title>
<path fill="none" stroke="#ff0000" d="M372.6224,-288.4168C378.6297,-279.936 385.9325,-269.6261 392.5497,-260.2842"/>
<polygon fill="#ff0000" stroke="#ff0000" points="395.4531,-262.2405 398.3772,-252.0571 389.7409,-258.1943 395.4531,-262.2405"/>
</g>
<!-- BB_002EDB08 -->
<g id="node9" class="node">
<title>BB_002EDB08</title>
<ellipse fill="none" stroke="#000000" cx="248.0157" cy="-378.2146" rx="72.3981" ry="18"/>
<text text-anchor="middle" x="248.0157" y="-374.0146" font-family="Times,serif" font-size="14.00" fill="#000000">BB_002EDB08</text>
</g>
<!-- BB_002EDAAA&#45;&gt;BB_002EDB08 -->
<g id="edge8" class="edge">
<title>BB_002EDAAA-&gt;BB_002EDB08</title>
<path fill="none" stroke="#0000ff" d="M114.5423,-434.4139C140.2222,-423.6013 174.4388,-409.1943 201.7983,-397.6746"/>
<polygon fill="#0000ff" stroke="#0000ff" points="203.3063,-400.8373 211.1644,-393.7309 200.5899,-394.3858 203.3063,-400.8373"/>
</g>
<!-- BB_002EDADE&#45;&gt;BB_002EDB08 -->
<g id="edge9" class="edge">
<title>BB_002EDADE-&gt;BB_002EDB08</title>
<path fill="none" stroke="#0000ff" d="M248.0157,-432.046C248.0157,-424.3456 248.0157,-415.1889 248.0157,-406.6312"/>
<polygon fill="#0000ff" stroke="#0000ff" points="251.5158,-406.6278 248.0157,-396.6279 244.5158,-406.6279 251.5158,-406.6278"/>
</g>
<!-- BB_002EDB08&#45;&gt;BB_002EDB0B -->
<g id="edge10" class="edge">
<title>BB_002EDB08-&gt;BB_002EDB0B</title>
<path fill="none" stroke="#0000ff" d="M274.2747,-361.3338C289.3314,-351.6545 308.4291,-339.3774 324.777,-328.868"/>
<polygon fill="#0000ff" stroke="#0000ff" points="327.0139,-331.5909 333.5331,-323.2391 323.2286,-325.7026 327.0139,-331.5909"/>
</g>
<!-- BB_002EDB53&#45;&gt;BB_002EDB95 -->
<g id="edge15" class="edge">
<title>BB_002EDB53-&gt;BB_002EDB95</title>
<path fill="none" stroke="#0000ff" d="M373.3752,-144.4168C379.2647,-135.936 386.4243,-125.6261 392.9118,-116.2842"/>
<polygon fill="#0000ff" stroke="#0000ff" points="395.7958,-118.2673 398.625,-108.0571 390.0462,-114.2745 395.7958,-118.2673"/>
</g>
<!-- end -->
<g id="node12" class="node">
<title>end</title>
<polygon fill="none" stroke="#000000" points="429.2309,-36.3225 392.8004,-36.3225 392.8004,.1079 429.2309,.1079 429.2309,-36.3225"/>
<polyline fill="none" stroke="#000000" points="404.8004,-36.3225 392.8004,-24.3225 "/>
<polyline fill="none" stroke="#000000" points="392.8004,-11.8921 404.8004,.1079 "/>
<polyline fill="none" stroke="#000000" points="417.2309,.1079 429.2309,-11.8921 "/>
<polyline fill="none" stroke="#000000" points="429.2309,-24.3225 417.2309,-36.3225 "/>
<text text-anchor="middle" x="411.0157" y="-13.9073" font-family="Times,serif" font-size="14.00" fill="#000000">end</text>
</g>
<!-- BB_002EDB95&#45;&gt;end -->
<g id="edge16" class="edge">
<title>BB_002EDB95-&gt;end</title>
<path fill="none" stroke="#000000" d="M411.0157,-72.0189C411.0157,-64.2477 411.0157,-54.9956 411.0157,-46.3686"/>
<polygon fill="#000000" stroke="#000000" points="414.5157,-46.2972 411.0157,-36.2972 407.5157,-46.2972 414.5157,-46.2972"/>
</g>
</g>
</svg>