<?xml version="1.0" encoding="UTF-8" standalone="no"?><!DOCTYPE svg PUBLIC "-//W3C//DTD SVG 1.1//EN" "http://www.w3.org/Graphics/SVG/1.1/DTD/svg11.dtd"><!-- Generated by graphviz version 2.40.1 (20161225.0304)
 --><!-- Title: G Pages: 1 --><svg xmlns="http://www.w3.org/2000/svg" xmlns:xlink="http://www.w3.org/1999/xlink" width="253pt" height="548pt" viewBox="0.00 0.00 253.05 548.21">
<g id="graph0" class="graph" transform="scale(1 1) rotate(0) translate(4 544.2146)">
<title>G</title>
<polygon fill="#ffffff" stroke="transparent" points="-4,4 -4,-544.2146 249.0472,-544.2146 249.0472,4 -4,4"/>
<!-- start -->
<g id="node1" class="node">
<title>start</title>
<polygon fill="none" stroke="#000000" points="173.9204,-540.2146 134.6831,-522.2146 173.9204,-504.2146 213.1577,-522.2146 173.9204,-540.2146"/>
<polyline fill="none" stroke="#000000" points="145.5901,-527.2182 145.5901,-517.211 "/>
<polyline fill="none" stroke="#000000" points="163.0133,-509.2182 184.8274,-509.2182 "/>
<polyline fill="none" stroke="#000000" points="202.2506,-517.211 202.2506,-527.2182 "/>
<polyline fill="none" stroke="#000000" points="184.8274,-535.211 163.0133,-535.211 "/>
<text text-anchor="middle" x="173.9204" y="-518.0146" font-family="Times,serif" font-size="14.00" fill="#000000">start</text>
</g>
<!-- BB_002DFE00 -->
<g id="node2" class="node">
<title>BB_002DFE00</title>
<ellipse fill="none" stroke="#000000" cx="173.9204" cy="-450.2146" rx="71.2539" ry="18"/>
<text text-anchor="middle" x="173.9204" y="-446.0146" font-family="Times,serif" font-size="14.00" fill="#000000">BB_002DFE00</text>
</g>
<!-- start&#45;&gt;BB_002DFE00 -->
<g id="edge1" class="edge">
<title>start-&gt;BB_002DFE00</title>
<path fill="none" stroke="#000000" d="M173.9204,-504.046C173.9204,-496.3456 173.9204,-487.1889 173.9204,-478.6312"/>
<polygon fill="#000000" stroke="#000000" points="177.4205,-478.6278 173.9204,-468.6279 170.4205,-478.6279 177.4205,-478.6278"/>
</g>
<!-- BB_002DFE09 -->
<g id="node3" class="node">
<title>BB_002DFE09</title>
<ellipse fill="none" stroke="#000000" cx="104.9204" cy="-378.2146" rx="71.2539" ry="18"/>
<text text-anchor="middle" x="104.9204" y="-374.0146" font-family="Times,serif" font-size="14.00" fill="#000000">BB_002DFE09</text>
</g>
<!-- BB_002DFE00&#45;&gt;BB_002DFE09 -->
<g id="edge2" class="edge">
<title>BB_002DFE00-&gt;BB_002DFE09</title>
<path fill="none" stroke="#ff0000" d="M156.8642,-432.4168C148.4249,-423.6106 138.0958,-412.8325 128.8776,-403.2135"/>
<polygon fill="#ff0000" stroke="#ff0000" points="131.2264,-400.6059 121.7803,-395.8076 126.1725,-405.4492 131.2264,-400.6059"/>
</g>
<!-- BB_002DFE66 -->
<g id="node4" class="node">
<title>BB_002DFE66</title>
<ellipse fill="none" stroke="#000000" cx="104.9204" cy="-90.2146" rx="71.2539" ry="18"/>
<text text-anchor="middle" x="104.9204" y="-86.0146" font-family="Times,serif" font-size="14.00" fill="#000000">BB_002DFE66</text>
</g>
<!-- BB_002DFE00&#45;&gt;BB_002DFE66 -->
<g id="edge3" class="edge">
<title>BB_002DFE00-&gt;BB_002DFE66</title>
<path fill="none" stroke="#00ff00" d="M184.5241,-432.2709C199.2011,-405.6896 223.9204,-353.8501 223.9204,-306.2146 223.9204,-306.2146 223.9204,-306.2146 223.9204,-234.2146 223.9204,-190.9663 214.4244,-177.5905 186.9204,-144.2146 176.058,-131.0332 161.136,-119.8975 146.9966,-111.2254"/>
<polygon fill="#00ff00" stroke="#00ff00" points="148.7341,-108.1869 138.3373,-106.148 145.1934,-114.2254 148.7341,-108.1869"/>
</g>
<!-- BB_002DFE09&#45;&gt;BB_002DFE66 -->
<g id="edge5" class="edge">
<title>BB_002DFE09-&gt;BB_002DFE66</title>
<path fill="none" stroke="#00ff00" d="M70.7188,-362.2755C54.6769,-353.2036 36.5714,-340.3974 24.9204,-324.2146 5.5154,-297.2617 9.4059,-285.1219 4.9204,-252.2146 -1.6519,-203.9984 -5.2236,-183.9124 22.9204,-144.2146 32.4631,-130.7544 46.5128,-119.7527 60.297,-111.2749"/>
<polygon fill="#00ff00" stroke="#00ff00" points="62.3756,-114.1153 69.2667,-106.0677 58.8611,-108.0614 62.3756,-114.1153"/>
</g>
<!-- BB_002DFE12 -->
<g id="node5" class="node">
<title>BB_002DFE12</title>
<ellipse fill="none" stroke="#000000" cx="104.9204" cy="-306.2146" rx="71.2539" ry="18"/>
<text text-anchor="middle" x="104.9204" y="-302.0146" font-family="Times,serif" font-size="14.00" fill="#000000">BB_002DFE12</text>
</g>
<!-- BB_002DFE09&#45;&gt;BB_002DFE12 -->
<g id="edge4" class="edge">
<title>BB_002DFE09-&gt;BB_002DFE12</title>
<path fill="none" stroke="#ff0000" d="M104.9204,-360.046C104.9204,-352.3456 104.9204,-343.1889 104.9204,-334.6312"/>
<polygon fill="#ff0000" stroke="#ff0000" points="108.4205,-334.6278 104.9204,-324.6279 101.4205,-334.6279 108.4205,-334.6278"/>
</g>
<!-- end -->
<g id="node8" class="node">
<title>end</title>
<polygon fill="none" stroke="#000000" points="123.1356,-36.3225 86.7051,-36.3225 86.7051,.1079 123.1356,.1079 123.1356,-36.3225"/>
<polyline fill="none" stroke="#000000" points="98.7051,-36.3225 86.7051,-24.3225 "/>
<polyline fill="none" stroke="#000000" points="86.7051,-11.8921 98.7051,.1079 "/>
<polyline fill="none" stroke="#000000" points="111.1356,.1079 123.1356,-11.8921 "/>
<polyline fill="none" stroke="#000000" points="123.1356,-24.3225 111.1356,-36.3225 "/>
<text text-anchor="middle" x="104.9204" y="-13.9073" font-family="Times,serif" font-size="14.00" fill="#000000">end</text>
</g>
<!-- BB_002DFE66&#45;&gt;end -->
<g id="edge10" class="edge">
<title>BB_002DFE66-&gt;end</title>
<path fill="none" stroke="#000000" d="M104.9204,-72.0189C104.9204,-64.2477 104.9204,-54.9956 104.9204,-46.3686"/>
<polygon fill="#000000" stroke="#000000" points="108.4205,-46.2972 104.9204,-36.2972 101.4205,-46.2972 108.4205,-46.2972"/>
</g>
<!-- BB_002DFE4F -->
<g id="node6" class="node">
<title>BB_002DFE4F</title>
<ellipse fill="none" stroke="#000000" cx="85.9204" cy="-234.2146" rx="71.8337" ry="18"/>
<text text-anchor="middle" x="85.9204" y="-230.0146" font-family="Times,serif" font-size="14.00" fill="#000000">BB_002DFE4F</text>
</g>
<!-- BB_002DFE12&#45;&gt;BB_002DFE4F -->
<g id="edge6" class="edge">
<title>BB_002DFE12-&gt;BB_002DFE4F</title>
<path fill="none" stroke="#ff0000" d="M100.1259,-288.046C98.0715,-280.2609 95.6243,-270.9875 93.3448,-262.3493"/>
<polygon fill="#ff0000" stroke="#ff0000" points="96.7152,-261.4038 90.7794,-252.6279 89.9469,-263.1899 96.7152,-261.4038"/>
</g>
<!-- BB_002DFE5A -->
<g id="node7" class="node">
<title>BB_002DFE5A</title>
<ellipse fill="none" stroke="#000000" cx="104.9204" cy="-162.2146" rx="73.0402" ry="18"/>
<text text-anchor="middle" x="104.9204" y="-158.0146" font-family="Times,serif" font-size="14.00" fill="#000000">BB_002DFE5A</text>
</g>
<!-- BB_002DFE12&#45;&gt;BB_002DFE5A -->
<g id="edge7" class="edge">
<title>BB_002DFE12-&gt;BB_002DFE5A</title>
<path fill="none" stroke="#00ff00" d="M133.1387,-289.6547C145.992,-280.4302 159.8837,-267.6748 166.9204,-252.2146 173.5485,-237.652 173.5485,-230.7772 166.9204,-216.2146 161.4146,-204.118 151.7123,-193.6774 141.5943,-185.2883"/>
<polygon fill="#00ff00" stroke="#00ff00" points="143.5167,-182.3507 133.463,-179.0078 139.2377,-187.8906 143.5167,-182.3507"/>
</g>
<!-- BB_002DFE4F&#45;&gt;BB_002DFE5A -->
<g id="edge8" class="edge">
<title>BB_002DFE4F-&gt;BB_002DFE5A</title>
<path fill="none" stroke="#0000ff" d="M90.7149,-216.046C92.7692,-208.2609 95.2164,-198.9875 97.4959,-190.3493"/>
<polygon fill="#0000ff" stroke="#0000ff" points="100.8938,-191.1899 100.0613,-180.6279 94.1255,-189.4038 100.8938,-191.1899"/>
</g>
<!-- BB_002DFE5A&#45;&gt;BB_002DFE66 -->
<g id="edge9" class="edge">
<title>BB_002DFE5A-&gt;BB_002DFE66</title>
<path fill="none" stroke="#0000ff" d="M104.9204,-144.046C104.9204,-136.3456 104.9204,-127.1889 104.9204,-118.6312"/>
<polygon fill="#0000ff" stroke="#0000ff" points="108.4205,-118.6278 104.9204,-108.6279 101.4205,-118.6279 108.4205,-118.6278"/>
</g>
</g>
</svg>