<?xml version="1.0" encoding="UTF-8" standalone="no"?><!DOCTYPE svg PUBLIC "-//W3C//DTD SVG 1.1//EN" "http://www.w3.org/Graphics/SVG/1.1/DTD/svg11.dtd"><!-- Generated by graphviz version 2.40.1 (20161225.0304)
 --><!-- Title: G Pages: 1 --><svg xmlns="http://www.w3.org/2000/svg" xmlns:xlink="http://www.w3.org/1999/xlink" width="282pt" height="548pt" viewBox="0.00 0.00 281.50 548.21">
<g id="graph0" class="graph" transform="scale(1 1) rotate(0) translate(4 544.2146)">
<title>G</title>
<polygon fill="#ffffff" stroke="transparent" points="-4,4 -4,-544.2146 277.5,-544.2146 277.5,4 -4,4"/>
<!-- start -->
<g id="node1" class="node">
<title>start</title>
<polygon fill="none" stroke="#000000" points="204.0559,-540.2146 164.8186,-522.2146 204.0559,-504.2146 243.2932,-522.2146 204.0559,-540.2146"/>
<polyline fill="none" stroke="#000000" points="175.7257,-527.2182 175.7257,-517.211 "/>
<polyline fill="none" stroke="#000000" points="193.1488,-509.2182 214.963,-509.2182 "/>
<polyline fill="none" stroke="#000000" points="232.3861,-517.211 232.3861,-527.2182 "/>
<polyline fill="none" stroke="#000000" points="214.963,-535.211 193.1488,-535.211 "/>
<text text-anchor="middle" x="204.0559" y="-518.0146" font-family="Times,serif" font-size="14.00" fill="#000000">start</text>
</g>
<!-- BB_002E0050 -->
<g id="node2" class="node">
<title>BB_002E0050</title>
<ellipse fill="none" stroke="#000000" cx="204.0559" cy="-450.2146" rx="68.3883" ry="18"/>
<text text-anchor="middle" x="204.0559" y="-446.0146" font-family="Times,serif" font-size="14.00" fill="#000000">BB_002E0050</text>
</g>
<!-- start&#45;&gt;BB_002E0050 -->
<g id="edge1" class="edge">
<title>start-&gt;BB_002E0050</title>
<path fill="none" stroke="#000000" d="M204.0559,-504.046C204.0559,-496.3456 204.0559,-487.1889 204.0559,-478.6312"/>
<polygon fill="#000000" stroke="#000000" points="207.556,-478.6278 204.0559,-468.6279 200.556,-478.6279 207.556,-478.6278"/>
</g>
<!-- BB_002E008E -->
<g id="node3" class="node">
<title>BB_002E008E</title>
<ellipse fill="none" stroke="#000000" cx="155.0559" cy="-378.2146" rx="69.5302" ry="18"/>
<text text-anchor="middle" x="155.0559" y="-374.0146" font-family="Times,serif" font-size="14.00" fill="#000000">BB_002E008E</text>
</g>
<!-- BB_002E0050&#45;&gt;BB_002E008E -->
<g id="edge2" class="edge">
<title>BB_002E0050-&gt;BB_002E008E</title>
<path fill="none" stroke="#ff0000" d="M191.9435,-432.4168C186.2307,-424.0225 179.2985,-413.8364 172.9925,-404.5704"/>
<polygon fill="#ff0000" stroke="#ff0000" points="175.7185,-402.3551 167.1987,-396.0571 169.9315,-406.2935 175.7185,-402.3551"/>
</g>
<!-- BB_002E0137 -->
<g id="node4" class="node">
<title>BB_002E0137</title>
<ellipse fill="none" stroke="#000000" cx="205.0559" cy="-90.2146" rx="68.3883" ry="18"/>
<text text-anchor="middle" x="205.0559" y="-86.0146" font-family="Times,serif" font-size="14.00" fill="#000000">BB_002E0137</text>
</g>
<!-- BB_002E0050&#45;&gt;BB_002E0137 -->
<g id="edge3" class="edge">
<title>BB_002E0050-&gt;BB_002E0137</title>
<path fill="none" stroke="#00ff00" d="M215.7485,-432.3745C221.9849,-422.1521 229.3263,-408.8729 234.0559,-396.2146 248.3647,-357.9188 253.0559,-347.0962 253.0559,-306.2146 253.0559,-306.2146 253.0559,-306.2146 253.0559,-234.2146 253.0559,-193.333 248.0913,-182.6114 234.0559,-144.2146 230.6754,-134.9665 225.9499,-125.3489 221.2934,-116.8372"/>
<polygon fill="#00ff00" stroke="#00ff00" points="224.3162,-115.0724 216.3345,-108.105 218.2292,-118.5291 224.3162,-115.0724"/>
</g>
<!-- BB_002E00C3 -->
<g id="node5" class="node">
<title>BB_002E00C3</title>
<ellipse fill="none" stroke="#000000" cx="79.0559" cy="-306.2146" rx="70.1118" ry="18"/>
<text text-anchor="middle" x="79.0559" y="-302.0146" font-family="Times,serif" font-size="14.00" fill="#000000">BB_002E00C3</text>
</g>
<!-- BB_002E008E&#45;&gt;BB_002E00C3 -->
<g id="edge4" class="edge">
<title>BB_002E008E-&gt;BB_002E00C3</title>
<path fill="none" stroke="#ff0000" d="M136.6584,-360.7854C127.1138,-351.7432 115.2972,-340.5484 104.8554,-330.6563"/>
<polygon fill="#ff0000" stroke="#ff0000" points="107.214,-328.0695 97.5474,-323.7328 102.3998,-333.1512 107.214,-328.0695"/>
</g>
<!-- BB_002E0107 -->
<g id="node6" class="node">
<title>BB_002E0107</title>
<ellipse fill="none" stroke="#000000" cx="157.0559" cy="-162.2146" rx="68.3883" ry="18"/>
<text text-anchor="middle" x="157.0559" y="-158.0146" font-family="Times,serif" font-size="14.00" fill="#000000">BB_002E0107</text>
</g>
<!-- BB_002E008E&#45;&gt;BB_002E0107 -->
<g id="edge5" class="edge">
<title>BB_002E008E-&gt;BB_002E0107</title>
<path fill="none" stroke="#00ff00" d="M158.3326,-360.2181C163.3439,-330.2999 171.8518,-268.4507 167.0559,-216.2146 166.2836,-207.8031 164.8482,-198.7463 163.3012,-190.4982"/>
<polygon fill="#00ff00" stroke="#00ff00" points="166.7137,-189.7136 161.3234,-180.5925 159.8492,-191.0843 166.7137,-189.7136"/>
</g>
<!-- end -->
<g id="node8" class="node">
<title>end</title>
<polygon fill="none" stroke="#000000" points="223.2711,-36.3225 186.8407,-36.3225 186.8407,.1079 223.2711,.1079 223.2711,-36.3225"/>
<polyline fill="none" stroke="#000000" points="198.8407,-36.3225 186.8407,-24.3225 "/>
<polyline fill="none" stroke="#000000" points="186.8407,-11.8921 198.8407,.1079 "/>
<polyline fill="none" stroke="#000000" points="211.2711,.1079 223.2711,-11.8921 "/>
<polyline fill="none" stroke="#000000" points="223.2711,-24.3225 211.2711,-36.3225 "/>
<text text-anchor="middle" x="205.0559" y="-13.9073" font-family="Times,serif" font-size="14.00" fill="#000000">end</text>
</g>
<!-- BB_002E0137&#45;&gt;end -->
<g id="edge10" class="edge">
<title>BB_002E0137-&gt;end</title>
<path fill="none" stroke="#000000" d="M205.0559,-72.0189C205.0559,-64.2477 205.0559,-54.9956 205.0559,-46.3686"/>
<polygon fill="#000000" stroke="#000000" points="208.556,-46.2972 205.0559,-36.2972 201.556,-46.2972 208.556,-46.2972"/>
</g>
<!-- BB_002E00C5 -->
<g id="node7" class="node">
<title>BB_002E00C5</title>
<ellipse fill="none" stroke="#000000" cx="70.0559" cy="-234.2146" rx="70.1118" ry="18"/>
<text text-anchor="middle" x="70.0559" y="-230.0146" font-family="Times,serif" font-size="14.00" fill="#000000">BB_002E00C5</text>
</g>
<!-- BB_002E00C3&#45;&gt;BB_002E00C5 -->
<g id="edge6" class="edge">
<title>BB_002E00C3-&gt;BB_002E00C5</title>
<path fill="none" stroke="#0000ff" d="M76.7848,-288.046C75.8223,-280.3456 74.6777,-271.1889 73.608,-262.6312"/>
<polygon fill="#0000ff" stroke="#0000ff" points="77.071,-262.1165 72.3575,-252.6279 70.125,-262.9848 77.071,-262.1165"/>
</g>
<!-- BB_002E0107&#45;&gt;BB_002E0137 -->
<g id="edge9" class="edge">
<title>BB_002E0107-&gt;BB_002E0137</title>
<path fill="none" stroke="#0000ff" d="M168.9211,-144.4168C174.5173,-136.0225 181.3081,-125.8364 187.4853,-116.5704"/>
<polygon fill="#0000ff" stroke="#0000ff" points="190.526,-118.3191 193.1609,-108.0571 184.7016,-114.4362 190.526,-118.3191"/>
</g>
<!-- BB_002E00C5&#45;&gt;BB_002E0107 -->
<g id="edge7" class="edge">
<title>BB_002E00C5-&gt;BB_002E0107</title>
<path fill="none" stroke="#ff0000" d="M91.1162,-216.7854C102.23,-207.5878 116.0349,-196.163 128.1371,-186.1474"/>
<polygon fill="#ff0000" stroke="#ff0000" points="130.7171,-188.5554 136.1896,-179.4833 126.2541,-183.1626 130.7171,-188.5554"/>
</g>
<!-- BB_002E00C5&#45;&gt;BB_002E00C5 -->
<g id="edge8" class="edge">
<title>BB_002E00C5-&gt;BB_002E00C5</title>
<path fill="none" stroke="#00ff00" d="M117.6131,-247.4765C139.2786,-248.8305 158.1118,-244.4099 158.1118,-234.2146 158.1118,-225.692 144.9513,-221.2046 127.9772,-220.7526"/>
<polygon fill="#00ff00" stroke="#00ff00" points="127.5437,-217.2602 117.6131,-220.9527 127.6789,-224.2589 127.5437,-217.2602"/>
</g>
</g>
</svg>