<?xml version="1.0" encoding="UTF-8" standalone="no"?><!DOCTYPE svg PUBLIC "-//W3C//DTD SVG 1.1//EN" "http://www.w3.org/Graphics/SVG/1.1/DTD/svg11.dtd"><!-- Generated by graphviz version 2.40.1 (20161225.0304)
 --><!-- Title: G Pages: 1 --><svg xmlns="http://www.w3.org/2000/svg" xmlns:xlink="http://www.w3.org/1999/xlink" width="145pt" height="188pt" viewBox="0.00 0.00 144.89 188.21">
<g id="graph0" class="graph" transform="scale(1 1) rotate(0) translate(4 184.2146)">
<title>G</title>
<polygon fill="#ffffff" stroke="transparent" points="-4,4 -4,-184.2146 140.8883,-184.2146 140.8883,4 -4,4"/>
<!-- start -->
<g id="node1" class="node">
<title>start</title>
<polygon fill="none" stroke="#000000" points="68.4441,-180.2146 29.2068,-162.2146 68.4441,-144.2146 107.6815,-162.2146 68.4441,-180.2146"/>
<polyline fill="none" stroke="#000000" points="40.1139,-167.2182 40.1139,-157.211 "/>
<polyline fill="none" stroke="#000000" points="57.5371,-149.2182 79.3512,-149.2182 "/>
<polyline fill="none" stroke="#000000" points="96.7744,-157.211 96.7744,-167.2182 "/>
<polyline fill="none" stroke="#000000" points="79.3512,-175.211 57.5371,-175.211 "/>
<text text-anchor="middle" x="68.4441" y="-158.0146" font-family="Times,serif" font-size="14.00" fill="#000000">start</text>
</g>
<!-- BB_002E0280 -->
<g id="node2" class="node">
<title>BB_002E0280</title>
<ellipse fill="none" stroke="#000000" cx="68.4441" cy="-90.2146" rx="68.3883" ry="18"/>
<text text-anchor="middle" x="68.4441" y="-86.0146" font-family="Times,serif" font-size="14.00" fill="#000000">BB_002E0280</text>
</g>
<!-- start&#45;&gt;BB_002E0280 -->
<g id="edge1" class="edge">
<title>start-&gt;BB_002E0280</title>
<path fill="none" stroke="#000000" d="M68.4441,-144.046C68.4441,-136.3456 68.4441,-127.1889 68.4441,-118.6312"/>
<polygon fill="#000000" stroke="#000000" points="71.9442,-118.6278 68.4441,-108.6279 64.9442,-118.6279 71.9442,-118.6278"/>
</g>
<!-- end -->
<g id="node3" class="node">
<title>end</title>
<polygon fill="none" stroke="#000000" points="86.6594,-36.3225 50.2289,-36.3225 50.2289,.1079 86.6594,.1079 86.6594,-36.3225"/>
<polyline fill="none" stroke="#000000" points="62.2289,-36.3225 50.2289,-24.3225 "/>
<polyline fill="none" stroke="#000000" points="50.2289,-11.8921 62.2289,.1079 "/>
<polyline fill="none" stroke="#000000" points="74.6594,.1079 86.6594,-11.8921 "/>
<polyline fill="none" stroke="#000000" points="86.6594,-24.3225 74.6594,-36.3225 "/>
<text text-anchor="middle" x="68.4441" y="-13.9073" font-family="Times,serif" font-size="14.00" fill="#000000">end</text>
</g>
<!-- BB_002E0280&#45;&gt;end -->
<g id="edge2" class="edge">
<title>BB_002E0280-&gt;end</title>
<path fill="none" stroke="#000000" d="M68.4441,-72.0189C68.4441,-64.2477 68.4441,-54.9956 68.4441,-46.3686"/>
<polygon fill="#000000" stroke="#000000" points="71.9442,-46.2972 68.4441,-36.2972 64.9442,-46.2972 71.9442,-46.2972"/>
</g>
</g>
</svg>