<?xml version="1.0" encoding="UTF-8" standalone="no"?><!DOCTYPE svg PUBLIC "-//W3C//DTD SVG 1.1//EN" "http://www.w3.org/Graphics/SVG/1.1/DTD/svg11.dtd"><!-- Generated by graphviz version 2.40.1 (20161225.0304)
 --><!-- Title: G Pages: 1 --><svg xmlns="http://www.w3.org/2000/svg" xmlns:xlink="http://www.w3.org/1999/xlink" width="502pt" height="870pt" viewBox="0.00 0.00 502.01 869.86">
<g id="graph0" class="graph" transform="scale(1 1) rotate(0) translate(4 865.8584)">
<title>G</title>
<polygon fill="#ffffff" stroke="transparent" points="-4,4 -4,-865.8584 498.0093,-865.8584 498.0093,4 -4,4"/>
<!-- start -->
<g id="node1" class="node">
<title>start</title>
<polygon fill="none" stroke="#000000" points="125.8105,-861.8584 86.5732,-843.8584 125.8105,-825.8584 165.0478,-843.8584 125.8105,-861.8584"/>
<polyline fill="none" stroke="#000000" points="97.4803,-848.862 97.4803,-838.8548 "/>
<polyline fill="none" stroke="#000000" points="114.9034,-830.862 136.7176,-830.862 "/>
<polyline fill="none" stroke="#000000" points="154.1408,-838.8548 154.1408,-848.862 "/>
<polyline fill="none" stroke="#000000" points="136.7176,-856.8548 114.9034,-856.8548 "/>
<text text-anchor="middle" x="125.8105" y="-839.6584" font-family="Times,serif" font-size="14.00" fill="#000000">start</text>
</g>
<!-- BB_002ECB40 -->
<g id="node2" class="node">
<title>BB_002ECB40</title>
<ellipse fill="none" stroke="#000000" cx="125.8105" cy="-771.8584" rx="71.8357" ry="18"/>
<text text-anchor="middle" x="125.8105" y="-767.6584" font-family="Times,serif" font-size="14.00" fill="#000000">BB_002ECB40</text>
</g>
<!-- start&#45;&gt;BB_002ECB40 -->
<g id="edge1" class="edge">
<title>start-&gt;BB_002ECB40</title>
<path fill="none" stroke="#000000" d="M125.8105,-825.6898C125.8105,-817.9894 125.8105,-808.8327 125.8105,-800.275"/>
<polygon fill="#000000" stroke="#000000" points="129.3106,-800.2716 125.8105,-790.2717 122.3106,-800.2717 129.3106,-800.2716"/>
</g>
<!-- BB_002ECBAA -->
<g id="node3" class="node">
<title>BB_002ECBAA</title>
<ellipse fill="none" stroke="#000000" cx="177.8105" cy="-699.8584" rx="75.9068" ry="18"/>
<text text-anchor="middle" x="177.8105" y="-695.6584" font-family="Times,serif" font-size="14.00" fill="#000000">BB_002ECBAA</text>
</g>
<!-- BB_002ECB40&#45;&gt;BB_002ECBAA -->
<g id="edge2" class="edge">
<title>BB_002ECB40-&gt;BB_002ECBAA</title>
<path fill="none" stroke="#ff0000" d="M138.6644,-754.0606C144.7895,-745.5798 152.2355,-735.2699 158.9825,-725.928"/>
<polygon fill="#ff0000" stroke="#ff0000" points="161.9067,-727.857 164.9242,-717.7009 156.2319,-723.7585 161.9067,-727.857"/>
</g>
<!-- BB_002ECCA6 -->
<g id="node4" class="node">
<title>BB_002ECCA6</title>
<ellipse fill="none" stroke="#000000" cx="73.8105" cy="-627.8584" rx="73.6215" ry="18"/>
<text text-anchor="middle" x="73.8105" y="-623.6584" font-family="Times,serif" font-size="14.00" fill="#000000">BB_002ECCA6</text>
</g>
<!-- BB_002ECB40&#45;&gt;BB_002ECCA6 -->
<g id="edge3" class="edge">
<title>BB_002ECB40-&gt;BB_002ECCA6</title>
<path fill="none" stroke="#00ff00" d="M112.5508,-753.6913C105.7421,-743.584 97.8424,-730.519 92.8105,-717.8584 84.8724,-697.8855 80.0294,-674.0382 77.2212,-655.9106"/>
<polygon fill="#00ff00" stroke="#00ff00" points="80.6799,-655.3722 75.7949,-645.9707 73.7509,-656.3665 80.6799,-655.3722"/>
</g>
<!-- BB_002ECBAA&#45;&gt;BB_002ECCA6 -->
<g id="edge5" class="edge">
<title>BB_002ECBAA-&gt;BB_002ECCA6</title>
<path fill="none" stroke="#00ff00" d="M153.164,-682.7954C139.4058,-673.2706 122.0764,-661.2733 107.1244,-650.9219"/>
<polygon fill="#00ff00" stroke="#00ff00" points="108.8547,-647.8629 98.6406,-645.0484 104.8702,-653.6183 108.8547,-647.8629"/>
</g>
<!-- BB_002ECBB5 -->
<g id="node5" class="node">
<title>BB_002ECBB5</title>
<ellipse fill="none" stroke="#000000" cx="238.8105" cy="-627.8584" rx="73.0594" ry="18"/>
<text text-anchor="middle" x="238.8105" y="-623.6584" font-family="Times,serif" font-size="14.00" fill="#000000">BB_002ECBB5</text>
</g>
<!-- BB_002ECBAA&#45;&gt;BB_002ECBB5 -->
<g id="edge4" class="edge">
<title>BB_002ECBAA-&gt;BB_002ECBB5</title>
<path fill="none" stroke="#ff0000" d="M192.8892,-682.0606C200.221,-673.4067 209.1662,-662.8484 217.2073,-653.3572"/>
<polygon fill="#ff0000" stroke="#ff0000" points="219.9002,-655.5933 223.6939,-645.7009 214.5592,-651.0683 219.9002,-655.5933"/>
</g>
<!-- BB_002ECCF3 -->
<g id="node13" class="node">
<title>BB_002ECCF3</title>
<ellipse fill="none" stroke="#000000" cx="123.8105" cy="-90.2146" rx="72.4155" ry="18"/>
<text text-anchor="middle" x="123.8105" y="-86.0146" font-family="Times,serif" font-size="14.00" fill="#000000">BB_002ECCF3</text>
</g>
<!-- BB_002ECCA6&#45;&gt;BB_002ECCF3 -->
<g id="edge17" class="edge">
<title>BB_002ECCA6-&gt;BB_002ECCF3</title>
<path fill="none" stroke="#0000ff" d="M73.8105,-609.673C73.8105,-582.3567 73.8105,-529.1084 73.8105,-483.8584 73.8105,-483.8584 73.8105,-483.8584 73.8105,-267.8584 73.8105,-212.2606 74.4368,-196.6887 92.8105,-144.2146 96.0637,-134.9238 100.9249,-125.41 105.8386,-117.0075"/>
<polygon fill="#0000ff" stroke="#0000ff" points="108.8789,-118.7447 111.1174,-108.3891 102.9096,-115.0885 108.8789,-118.7447"/>
</g>
<!-- BB_002ECC00 -->
<g id="node6" class="node">
<title>BB_002ECC00</title>
<ellipse fill="none" stroke="#000000" cx="238.8105" cy="-555.8584" rx="71.8357" ry="18"/>
<text text-anchor="middle" x="238.8105" y="-551.6584" font-family="Times,serif" font-size="14.00" fill="#000000">BB_002ECC00</text>
</g>
<!-- BB_002ECBB5&#45;&gt;BB_002ECC00 -->
<g id="edge6" class="edge">
<title>BB_002ECBB5-&gt;BB_002ECC00</title>
<path fill="none" stroke="#0000ff" d="M238.8105,-609.6898C238.8105,-601.9894 238.8105,-592.8327 238.8105,-584.275"/>
<polygon fill="#0000ff" stroke="#0000ff" points="242.3106,-584.2716 238.8105,-574.2717 235.3106,-584.2717 242.3106,-584.2716"/>
</g>
<!-- BB_002ECC00&#45;&gt;BB_002ECC00 -->
<g id="edge8" class="edge">
<title>BB_002ECC00-&gt;BB_002ECC00</title>
<path fill="none" stroke="#00ff00" d="M287.6943,-569.1475C309.5639,-570.4131 328.4781,-565.9834 328.4781,-555.8584 328.4781,-547.3945 315.261,-542.9105 298.1491,-542.4063"/>
<polygon fill="#00ff00" stroke="#00ff00" points="297.6384,-538.9137 287.6943,-542.5693 297.7476,-545.9129 297.6384,-538.9137"/>
</g>
<!-- BB_002ECC0B -->
<g id="node7" class="node">
<title>BB_002ECC0B</title>
<ellipse fill="none" stroke="#000000" cx="238.8105" cy="-483.8584" rx="73.0594" ry="18"/>
<text text-anchor="middle" x="238.8105" y="-479.6584" font-family="Times,serif" font-size="14.00" fill="#000000">BB_002ECC0B</text>
</g>
<!-- BB_002ECC00&#45;&gt;BB_002ECC0B -->
<g id="edge7" class="edge">
<title>BB_002ECC00-&gt;BB_002ECC0B</title>
<path fill="none" stroke="#ff0000" d="M238.8105,-537.6898C238.8105,-529.9894 238.8105,-520.8327 238.8105,-512.275"/>
<polygon fill="#ff0000" stroke="#ff0000" points="242.3106,-512.2716 238.8105,-502.2717 235.3106,-512.2717 242.3106,-512.2716"/>
</g>
<!-- BB_002ECC52 -->
<g id="node8" class="node">
<title>BB_002ECC52</title>
<ellipse fill="none" stroke="#000000" cx="256.8105" cy="-411.8584" rx="71.8357" ry="18"/>
<text text-anchor="middle" x="256.8105" y="-407.6584" font-family="Times,serif" font-size="14.00" fill="#000000">BB_002ECC52</text>
</g>
<!-- BB_002ECC0B&#45;&gt;BB_002ECC52 -->
<g id="edge9" class="edge">
<title>BB_002ECC0B-&gt;BB_002ECC52</title>
<path fill="none" stroke="#ff0000" d="M243.3527,-465.6898C245.2989,-457.9047 247.6173,-448.6313 249.7768,-439.9931"/>
<polygon fill="#ff0000" stroke="#ff0000" points="253.1773,-440.822 252.2072,-430.2717 246.3863,-439.1242 253.1773,-440.822"/>
</g>
<!-- BB_002ECC87 -->
<g id="node9" class="node">
<title>BB_002ECC87</title>
<ellipse fill="none" stroke="#000000" cx="173.8105" cy="-179.0365" rx="71.8357" ry="18"/>
<text text-anchor="middle" x="173.8105" y="-174.8365" font-family="Times,serif" font-size="14.00" fill="#000000">BB_002ECC87</text>
</g>
<!-- BB_002ECC0B&#45;&gt;BB_002ECC87 -->
<g id="edge10" class="edge">
<title>BB_002ECC0B-&gt;BB_002ECC87</title>
<path fill="none" stroke="#00ff00" d="M209.8723,-467.139C196.9199,-457.9507 182.975,-445.2733 175.8105,-429.8584 141.3424,-355.6974 156.3683,-255.3649 166.8212,-207.1679"/>
<polygon fill="#00ff00" stroke="#00ff00" points="170.2922,-207.6875 169.091,-197.161 163.4656,-206.139 170.2922,-207.6875"/>
</g>
<!-- BB_002ECC69 -->
<g id="node10" class="node">
<title>BB_002ECC69</title>
<ellipse fill="none" stroke="#000000" cx="356.8105" cy="-339.8584" rx="71.8357" ry="18"/>
<text text-anchor="middle" x="356.8105" y="-335.6584" font-family="Times,serif" font-size="14.00" fill="#000000">BB_002ECC69</text>
</g>
<!-- BB_002ECC52&#45;&gt;BB_002ECC69 -->
<g id="edge11" class="edge">
<title>BB_002ECC52-&gt;BB_002ECC69</title>
<path fill="none" stroke="#ff0000" d="M280.5091,-394.7954C293.7381,-385.2706 310.401,-373.2733 324.7779,-362.9219"/>
<polygon fill="#ff0000" stroke="#ff0000" points="326.8652,-365.7319 332.9355,-357.0484 322.775,-360.0511 326.8652,-365.7319"/>
</g>
<!-- BB_002ECC7D -->
<g id="node11" class="node">
<title>BB_002ECC7D</title>
<ellipse fill="none" stroke="#000000" cx="257.8105" cy="-267.8584" rx="73.6215" ry="18"/>
<text text-anchor="middle" x="257.8105" y="-263.6584" font-family="Times,serif" font-size="14.00" fill="#000000">BB_002ECC7D</text>
</g>
<!-- BB_002ECC52&#45;&gt;BB_002ECC7D -->
<g id="edge12" class="edge">
<title>BB_002ECC52-&gt;BB_002ECC7D</title>
<path fill="none" stroke="#00ff00" d="M256.9372,-393.6207C257.1077,-369.0594 257.413,-325.1058 257.6136,-296.2125"/>
<polygon fill="#00ff00" stroke="#00ff00" points="261.1153,-295.9721 257.6849,-285.948 254.1154,-295.9234 261.1153,-295.9721"/>
</g>
<!-- BB_002ECC87&#45;&gt;BB_002ECCF3 -->
<g id="edge16" class="edge">
<title>BB_002ECC87-&gt;BB_002ECCF3</title>
<path fill="none" stroke="#0000ff" d="M163.6923,-161.0621C156.5762,-148.4209 146.931,-131.2867 138.9085,-117.0352"/>
<polygon fill="#0000ff" stroke="#0000ff" points="141.8691,-115.1596 133.9137,-108.1623 135.7692,-118.5934 141.8691,-115.1596"/>
</g>
<!-- BB_002ECC69&#45;&gt;BB_002ECC7D -->
<g id="edge13" class="edge">
<title>BB_002ECC69-&gt;BB_002ECC7D</title>
<path fill="none" stroke="#ff0000" d="M333.3489,-322.7954C320.3746,-313.3596 304.064,-301.4973 289.9224,-291.2125"/>
<polygon fill="#ff0000" stroke="#ff0000" points="291.5928,-288.0996 281.4468,-285.0484 287.4756,-293.7608 291.5928,-288.0996"/>
</g>
<!-- BB_002ECD10 -->
<g id="node12" class="node">
<title>BB_002ECD10</title>
<ellipse fill="none" stroke="#000000" cx="421.8105" cy="-267.8584" rx="72.3981" ry="18"/>
<text text-anchor="middle" x="421.8105" y="-263.6584" font-family="Times,serif" font-size="14.00" fill="#000000">BB_002ECD10</text>
</g>
<!-- BB_002ECC69&#45;&gt;BB_002ECD10 -->
<g id="edge14" class="edge">
<title>BB_002ECC69-&gt;BB_002ECD10</title>
<path fill="none" stroke="#00ff00" d="M372.8779,-322.0606C380.7493,-313.3416 390.3658,-302.6895 398.9838,-293.1433"/>
<polygon fill="#00ff00" stroke="#00ff00" points="401.8248,-295.2195 405.9279,-285.4514 396.6289,-290.5288 401.8248,-295.2195"/>
</g>
<!-- BB_002ECC7D&#45;&gt;BB_002ECC87 -->
<g id="edge15" class="edge">
<title>BB_002ECC7D-&gt;BB_002ECC87</title>
<path fill="none" stroke="#0000ff" d="M241.2148,-250.3101C228.7558,-237.1359 211.5195,-218.9101 197.5957,-204.187"/>
<polygon fill="#0000ff" stroke="#0000ff" points="200.0733,-201.7131 190.6592,-196.8524 194.9874,-206.5229 200.0733,-201.7131"/>
</g>
<!-- dead_end -->
<g id="node15" class="node">
<title>dead_end</title>
<polygon fill="none" stroke="#000000" points="456.4552,-213.6812 387.1658,-213.6812 387.1658,-144.3918 456.4552,-144.3918 456.4552,-213.6812"/>
<polyline fill="none" stroke="#000000" points="399.1658,-213.6812 387.1658,-201.6812 "/>
<polyline fill="none" stroke="#000000" points="387.1658,-156.3918 399.1658,-144.3918 "/>
<polyline fill="none" stroke="#000000" points="444.4552,-144.3918 456.4552,-156.3918 "/>
<polyline fill="none" stroke="#000000" points="456.4552,-201.6812 444.4552,-213.6812 "/>
<text text-anchor="middle" x="421.8105" y="-174.8365" font-family="Times,serif" font-size="14.00" fill="#000000">dead_end</text>
</g>
<!-- BB_002ECD10&#45;&gt;dead_end -->
<g id="edge19" class="edge">
<title>BB_002ECD10-&gt;dead_end</title>
<path fill="none" stroke="#000000" d="M421.8105,-249.4544C421.8105,-241.9968 421.8105,-233.0284 421.8105,-224.0283"/>
<polygon fill="#000000" stroke="#000000" points="425.3106,-223.9321 421.8105,-213.9321 418.3106,-223.9322 425.3106,-223.9321"/>
</g>
<!-- end -->
<g id="node14" class="node">
<title>end</title>
<polygon fill="none" stroke="#000000" points="142.0258,-36.3225 105.5953,-36.3225 105.5953,.1079 142.0258,.1079 142.0258,-36.3225"/>
<polyline fill="none" stroke="#000000" points="117.5953,-36.3225 105.5953,-24.3225 "/>
<polyline fill="none" stroke="#000000" points="105.5953,-11.8921 117.5953,.1079 "/>
<polyline fill="none" stroke="#000000" points="130.0258,.1079 142.0258,-11.8921 "/>
<polyline fill="none" stroke="#000000" points="142.0258,-24.3225 130.0258,-36.3225 "/>
<text text-anchor="middle" x="123.8105" y="-13.9073" font-family="Times,serif" font-size="14.00" fill="#000000">end</text>
</g>
<!-- BB_002ECCF3&#45;&gt;end -->
<g id="edge18" class="edge">
<title>BB_002ECCF3-&gt;end</title>
<path fill="none" stroke="#000000" d="M123.8105,-72.0189C123.8105,-64.2477 123.8105,-54.9956 123.8105,-46.3686"/>
<polygon fill="#000000" stroke="#000000" points="127.3106,-46.2972 123.8105,-36.2972 120.3106,-46.2972 127.3106,-46.2972"/>
</g>
</g>
</svg>