<?xml version="1.0" encoding="UTF-8" standalone="no"?><!DOCTYPE svg PUBLIC "-//W3C//DTD SVG 1.1//EN" "http://www.w3.org/Graphics/SVG/1.1/DTD/svg11.dtd"><!-- Generated by graphviz version 2.40.1 (20161225.0304)
 --><!-- Title: G Pages: 1 --><svg xmlns="http://www.w3.org/2000/svg" xmlns:xlink="http://www.w3.org/1999/xlink" width="486pt" height="1302pt" viewBox="0.00 0.00 485.99 1301.86">
<g id="graph0" class="graph" transform="scale(1 1) rotate(0) translate(4 1297.8584)">
<title>G</title>
<polygon fill="#ffffff" stroke="transparent" points="-4,4 -4,-1297.8584 481.9905,-1297.8584 481.9905,4 -4,4"/>
<!-- start -->
<g id="node1" class="node">
<title>start</title>
<polygon fill="none" stroke="#000000" points="117.4441,-1293.8584 78.2068,-1275.8584 117.4441,-1257.8584 156.6815,-1275.8584 117.4441,-1293.8584"/>
<polyline fill="none" stroke="#000000" points="89.1139,-1280.862 89.1139,-1270.8548 "/>
<polyline fill="none" stroke="#000000" points="106.5371,-1262.862 128.3512,-1262.862 "/>
<polyline fill="none" stroke="#000000" points="145.7744,-1270.8548 145.7744,-1280.862 "/>
<polyline fill="none" stroke="#000000" points="128.3512,-1288.8548 106.5371,-1288.8548 "/>
<text text-anchor="middle" x="117.4441" y="-1271.6584" font-family="Times,serif" font-size="14.00" fill="#000000">start</text>
</g>
<!-- BB_002E3000 -->
<g id="node2" class="node">
<title>BB_002E3000</title>
<ellipse fill="none" stroke="#000000" cx="117.4441" cy="-1203.8584" rx="68.3883" ry="18"/>
<text text-anchor="middle" x="117.4441" y="-1199.6584" font-family="Times,serif" font-size="14.00" fill="#000000">BB_002E3000</text>
</g>
<!-- start&#45;&gt;BB_002E3000 -->
<g id="edge1" class="edge">
<title>start-&gt;BB_002E3000</title>
<path fill="none" stroke="#000000" d="M117.4441,-1257.6898C117.4441,-1249.9894 117.4441,-1240.8327 117.4441,-1232.275"/>
<polygon fill="#000000" stroke="#000000" points="120.9442,-1232.2716 117.4441,-1222.2717 113.9442,-1232.2717 120.9442,-1232.2716"/>
</g>
<!-- BB_002E3058 -->
<g id="node3" class="node">
<title>BB_002E3058</title>
<ellipse fill="none" stroke="#000000" cx="68.4441" cy="-1059.8584" rx="68.3883" ry="18"/>
<text text-anchor="middle" x="68.4441" y="-1055.6584" font-family="Times,serif" font-size="14.00" fill="#000000">BB_002E3058</text>
</g>
<!-- BB_002E3000&#45;&gt;BB_002E3058 -->
<g id="edge2" class="edge">
<title>BB_002E3000-&gt;BB_002E3058</title>
<path fill="none" stroke="#ff0000" d="M105.7516,-1186.0183C99.5151,-1175.7959 92.1738,-1162.5167 87.4441,-1149.8584 79.9216,-1129.7253 75.0573,-1105.8863 72.1353,-1087.8025"/>
<polygon fill="#ff0000" stroke="#ff0000" points="75.5924,-1087.2545 70.634,-1077.8916 68.6713,-1088.303 75.5924,-1087.2545"/>
</g>
<!-- BB_002E311C -->
<g id="node4" class="node">
<title>BB_002E311C</title>
<ellipse fill="none" stroke="#000000" cx="166.4441" cy="-1131.8584" rx="70.1118" ry="18"/>
<text text-anchor="middle" x="166.4441" y="-1127.6584" font-family="Times,serif" font-size="14.00" fill="#000000">BB_002E311C</text>
</g>
<!-- BB_002E3000&#45;&gt;BB_002E311C -->
<g id="edge3" class="edge">
<title>BB_002E3000-&gt;BB_002E311C</title>
<path fill="none" stroke="#00ff00" d="M129.5565,-1186.0606C135.2693,-1177.6663 142.2016,-1167.4802 148.5075,-1158.2142"/>
<polygon fill="#00ff00" stroke="#00ff00" points="151.5685,-1159.9373 154.3013,-1149.7009 145.7815,-1155.9989 151.5685,-1159.9373"/>
</g>
<!-- BB_002E332B -->
<g id="node5" class="node">
<title>BB_002E332B</title>
<ellipse fill="none" stroke="#000000" cx="125.4441" cy="-90.2146" rx="70.1118" ry="18"/>
<text text-anchor="middle" x="125.4441" y="-86.0146" font-family="Times,serif" font-size="14.00" fill="#000000">BB_002E332B</text>
</g>
<!-- BB_002E3058&#45;&gt;BB_002E332B -->
<g id="edge4" class="edge">
<title>BB_002E3058-&gt;BB_002E332B</title>
<path fill="none" stroke="#0000ff" d="M68.4441,-1041.673C68.4441,-1014.3567 68.4441,-961.1084 68.4441,-915.8584 68.4441,-915.8584 68.4441,-915.8584 68.4441,-234.2146 68.4441,-190.7328 91.1907,-144.7221 107.9452,-116.7296"/>
<polygon fill="#0000ff" stroke="#0000ff" points="111.0853,-118.3056 113.3559,-107.9569 105.1274,-114.6309 111.0853,-118.3056"/>
</g>
<!-- BB_002E3124 -->
<g id="node6" class="node">
<title>BB_002E3124</title>
<ellipse fill="none" stroke="#000000" cx="261.4441" cy="-1059.8584" rx="68.3883" ry="18"/>
<text text-anchor="middle" x="261.4441" y="-1055.6584" font-family="Times,serif" font-size="14.00" fill="#000000">BB_002E3124</text>
</g>
<!-- BB_002E311C&#45;&gt;BB_002E3124 -->
<g id="edge5" class="edge">
<title>BB_002E311C-&gt;BB_002E3124</title>
<path fill="none" stroke="#ff0000" d="M188.9578,-1114.7954C201.4079,-1105.3596 217.0595,-1093.4973 230.6297,-1083.2125"/>
<polygon fill="#ff0000" stroke="#ff0000" points="232.9072,-1085.8781 238.7629,-1077.0484 228.6791,-1080.2993 232.9072,-1085.8781"/>
</g>
<!-- BB_002E3126 -->
<g id="node7" class="node">
<title>BB_002E3126</title>
<ellipse fill="none" stroke="#000000" cx="199.4441" cy="-987.8584" rx="68.3883" ry="18"/>
<text text-anchor="middle" x="199.4441" y="-983.6584" font-family="Times,serif" font-size="14.00" fill="#000000">BB_002E3126</text>
</g>
<!-- BB_002E311C&#45;&gt;BB_002E3126 -->
<g id="edge6" class="edge">
<title>BB_002E311C-&gt;BB_002E3126</title>
<path fill="none" stroke="#00ff00" d="M169.6437,-1113.844C172.976,-1095.6141 178.5283,-1066.6577 184.4441,-1041.8584 186.4666,-1033.3804 188.9102,-1024.2237 191.2327,-1015.9015"/>
<polygon fill="#00ff00" stroke="#00ff00" points="194.6041,-1016.8414 193.9691,-1006.2656 187.8704,-1014.9291 194.6041,-1016.8414"/>
</g>
<!-- end -->
<g id="node22" class="node">
<title>end</title>
<polygon fill="none" stroke="#000000" points="143.6594,-36.3225 107.2289,-36.3225 107.2289,.1079 143.6594,.1079 143.6594,-36.3225"/>
<polyline fill="none" stroke="#000000" points="119.2289,-36.3225 107.2289,-24.3225 "/>
<polyline fill="none" stroke="#000000" points="107.2289,-11.8921 119.2289,.1079 "/>
<polyline fill="none" stroke="#000000" points="131.6594,.1079 143.6594,-11.8921 "/>
<polyline fill="none" stroke="#000000" points="143.6594,-24.3225 131.6594,-36.3225 "/>
<text text-anchor="middle" x="125.4441" y="-13.9073" font-family="Times,serif" font-size="14.00" fill="#000000">end</text>
</g>
<!-- BB_002E332B&#45;&gt;end -->
<g id="edge30" class="edge">
<title>BB_002E332B-&gt;end</title>
<path fill="none" stroke="#000000" d="M125.4441,-72.0189C125.4441,-64.2477 125.4441,-54.9956 125.4441,-46.3686"/>
<polygon fill="#000000" stroke="#000000" points="128.9442,-46.2972 125.4441,-36.2972 121.9442,-46.2972 128.9442,-46.2972"/>
</g>
<!-- BB_002E3124&#45;&gt;BB_002E3126 -->
<g id="edge7" class="edge">
<title>BB_002E3124-&gt;BB_002E3126</title>
<path fill="none" stroke="#0000ff" d="M246.1183,-1042.0606C238.6103,-1033.3416 229.4376,-1022.6895 221.2173,-1013.1433"/>
<polygon fill="#0000ff" stroke="#0000ff" points="223.7712,-1010.7453 214.5937,-1005.4514 218.4668,-1015.313 223.7712,-1010.7453"/>
</g>
<!-- BB_002E313E -->
<g id="node8" class="node">
<title>BB_002E313E</title>
<ellipse fill="none" stroke="#000000" cx="233.4441" cy="-915.8584" rx="69.5302" ry="18"/>
<text text-anchor="middle" x="233.4441" y="-911.6584" font-family="Times,serif" font-size="14.00" fill="#000000">BB_002E313E</text>
</g>
<!-- BB_002E3126&#45;&gt;BB_002E313E -->
<g id="edge8" class="edge">
<title>BB_002E3126-&gt;BB_002E313E</title>
<path fill="none" stroke="#ff0000" d="M208.0238,-969.6898C211.8378,-961.6131 216.4082,-951.9345 220.6154,-943.0252"/>
<polygon fill="#ff0000" stroke="#ff0000" points="223.8798,-944.3088 224.985,-933.7718 217.55,-941.3198 223.8798,-944.3088"/>
</g>
<!-- BB_002E32E1 -->
<g id="node9" class="node">
<title>BB_002E32E1</title>
<ellipse fill="none" stroke="#000000" cx="166.4441" cy="-555.8584" rx="69.5302" ry="18"/>
<text text-anchor="middle" x="166.4441" y="-551.6584" font-family="Times,serif" font-size="14.00" fill="#000000">BB_002E32E1</text>
</g>
<!-- BB_002E3126&#45;&gt;BB_002E32E1 -->
<g id="edge9" class="edge">
<title>BB_002E3126-&gt;BB_002E32E1</title>
<path fill="none" stroke="#00ff00" d="M181.1549,-970.454C171.8094,-960.57 161.0452,-947.4751 154.4441,-933.8584 136.6106,-897.0715 135.4441,-884.74 135.4441,-843.8584 135.4441,-843.8584 135.4441,-843.8584 135.4441,-699.8584 135.4441,-658.8621 147.6009,-612.7413 156.6887,-583.991"/>
<polygon fill="#00ff00" stroke="#00ff00" points="160.1001,-584.8187 159.8698,-574.2263 153.4444,-582.6503 160.1001,-584.8187"/>
</g>
<!-- BB_002E3165 -->
<g id="node10" class="node">
<title>BB_002E3165</title>
<ellipse fill="none" stroke="#000000" cx="232.4441" cy="-843.8584" rx="68.3883" ry="18"/>
<text text-anchor="middle" x="232.4441" y="-839.6584" font-family="Times,serif" font-size="14.00" fill="#000000">BB_002E3165</text>
</g>
<!-- BB_002E313E&#45;&gt;BB_002E3165 -->
<g id="edge10" class="edge">
<title>BB_002E313E-&gt;BB_002E3165</title>
<path fill="none" stroke="#ff0000" d="M233.1918,-897.6898C233.0849,-889.9894 232.9577,-880.8327 232.8388,-872.275"/>
<polygon fill="#ff0000" stroke="#ff0000" points="236.3385,-872.2221 232.6999,-862.2717 229.3392,-872.3193 236.3385,-872.2221"/>
</g>
<!-- BB_002E3167 -->
<g id="node11" class="node">
<title>BB_002E3167</title>
<ellipse fill="none" stroke="#000000" cx="281.4441" cy="-771.8584" rx="68.3883" ry="18"/>
<text text-anchor="middle" x="281.4441" y="-767.6584" font-family="Times,serif" font-size="14.00" fill="#000000">BB_002E3167</text>
</g>
<!-- BB_002E313E&#45;&gt;BB_002E3167 -->
<g id="edge11" class="edge">
<title>BB_002E313E-&gt;BB_002E3167</title>
<path fill="none" stroke="#00ff00" d="M268.6478,-900.2698C284.1365,-891.4117 300.7577,-878.6862 309.4441,-861.8584 319.8462,-841.707 310.7802,-816.998 300.2759,-798.5716"/>
<polygon fill="#00ff00" stroke="#00ff00" points="303.1241,-796.5209 294.9155,-789.8225 297.1553,-800.1779 303.1241,-796.5209"/>
</g>
<!-- BB_002E32E1&#45;&gt;BB_002E332B -->
<g id="edge29" class="edge">
<title>BB_002E32E1-&gt;BB_002E332B</title>
<path fill="none" stroke="#0000ff" d="M157.7491,-537.6908C145.7139,-510.8305 125.4441,-458.6469 125.4441,-411.8584 125.4441,-411.8584 125.4441,-411.8584 125.4441,-234.2146 125.4441,-194.0906 125.4441,-147.6777 125.4441,-118.6323"/>
<polygon fill="#0000ff" stroke="#0000ff" points="128.9442,-118.3999 125.4441,-108.4 121.9442,-118.4 128.9442,-118.3999"/>
</g>
<!-- BB_002E3165&#45;&gt;BB_002E3167 -->
<g id="edge12" class="edge">
<title>BB_002E3165-&gt;BB_002E3167</title>
<path fill="none" stroke="#0000ff" d="M244.5565,-826.0606C250.2693,-817.6663 257.2016,-807.4802 263.5075,-798.2142"/>
<polygon fill="#0000ff" stroke="#0000ff" points="266.5685,-799.9373 269.3013,-789.7009 260.7815,-795.9989 266.5685,-799.9373"/>
</g>
<!-- BB_002E317E -->
<g id="node12" class="node">
<title>BB_002E317E</title>
<ellipse fill="none" stroke="#000000" cx="332.4441" cy="-699.8584" rx="69.5302" ry="18"/>
<text text-anchor="middle" x="332.4441" y="-695.6584" font-family="Times,serif" font-size="14.00" fill="#000000">BB_002E317E</text>
</g>
<!-- BB_002E3167&#45;&gt;BB_002E317E -->
<g id="edge13" class="edge">
<title>BB_002E3167-&gt;BB_002E317E</title>
<path fill="none" stroke="#ff0000" d="M294.0509,-754.0606C300.0582,-745.5798 307.361,-735.2699 313.9782,-725.928"/>
<polygon fill="#ff0000" stroke="#ff0000" points="316.8816,-727.8843 319.8057,-717.7009 311.1694,-723.8381 316.8816,-727.8843"/>
</g>
<!-- BB_002E32D5 -->
<g id="node13" class="node">
<title>BB_002E32D5</title>
<ellipse fill="none" stroke="#000000" cx="234.4441" cy="-627.8584" rx="70.6742" ry="18"/>
<text text-anchor="middle" x="234.4441" y="-623.6584" font-family="Times,serif" font-size="14.00" fill="#000000">BB_002E32D5</text>
</g>
<!-- BB_002E3167&#45;&gt;BB_002E32D5 -->
<g id="edge14" class="edge">
<title>BB_002E3167-&gt;BB_002E32D5</title>
<path fill="none" stroke="#00ff00" d="M270.58,-753.9191C264.7746,-743.6657 257.9217,-730.3885 253.4441,-717.8584 246.2567,-697.745 241.3932,-674.0816 238.3873,-656.068"/>
<polygon fill="#00ff00" stroke="#00ff00" points="241.8437,-655.5169 236.8286,-646.1843 234.9292,-656.6074 241.8437,-655.5169"/>
</g>
<!-- BB_002E317E&#45;&gt;BB_002E32D5 -->
<g id="edge16" class="edge">
<title>BB_002E317E-&gt;BB_002E32D5</title>
<path fill="none" stroke="#00ff00" d="M309.2195,-682.7954C296.3763,-673.3596 280.2304,-661.4973 266.2317,-651.2125"/>
<polygon fill="#00ff00" stroke="#00ff00" points="267.9728,-648.1486 257.8417,-645.0484 263.8282,-653.7898 267.9728,-648.1486"/>
</g>
<!-- BB_002E3187 -->
<g id="node14" class="node">
<title>BB_002E3187</title>
<ellipse fill="none" stroke="#000000" cx="391.4441" cy="-627.8584" rx="68.3883" ry="18"/>
<text text-anchor="middle" x="391.4441" y="-623.6584" font-family="Times,serif" font-size="14.00" fill="#000000">BB_002E3187</text>
</g>
<!-- BB_002E317E&#45;&gt;BB_002E3187 -->
<g id="edge15" class="edge">
<title>BB_002E317E-&gt;BB_002E3187</title>
<path fill="none" stroke="#ff0000" d="M347.0284,-682.0606C354.0489,-673.4932 362.5989,-663.0593 370.3157,-653.6423"/>
<polygon fill="#ff0000" stroke="#ff0000" points="373.1921,-655.6541 376.8232,-645.7009 367.7777,-651.2174 373.1921,-655.6541"/>
</g>
<!-- BB_002E32D5&#45;&gt;BB_002E32E1 -->
<g id="edge28" class="edge">
<title>BB_002E32D5-&gt;BB_002E32E1</title>
<path fill="none" stroke="#0000ff" d="M217.6352,-610.0606C209.3182,-601.2544 199.1388,-590.4763 190.0542,-580.8573"/>
<polygon fill="#0000ff" stroke="#0000ff" points="192.4706,-578.3184 183.0598,-573.4514 187.3815,-583.1248 192.4706,-578.3184"/>
</g>
<!-- BB_002E31DA -->
<g id="node15" class="node">
<title>BB_002E31DA</title>
<ellipse fill="none" stroke="#000000" cx="371.4441" cy="-555.8584" rx="72.9605" ry="18"/>
<text text-anchor="middle" x="371.4441" y="-551.6584" font-family="Times,serif" font-size="14.00" fill="#000000">BB_002E31DA</text>
</g>
<!-- BB_002E3187&#45;&gt;BB_002E31DA -->
<g id="edge17" class="edge">
<title>BB_002E3187-&gt;BB_002E31DA</title>
<path fill="none" stroke="#ff0000" d="M386.3973,-609.6898C384.2348,-601.9047 381.6588,-592.6313 379.2593,-583.9931"/>
<polygon fill="#ff0000" stroke="#ff0000" points="382.6078,-582.9701 376.5589,-574.2717 375.8631,-584.8436 382.6078,-582.9701"/>
</g>
<!-- BB_002E320C -->
<g id="node16" class="node">
<title>BB_002E320C</title>
<ellipse fill="none" stroke="#000000" cx="376.4441" cy="-323.0365" rx="70.1118" ry="18"/>
<text text-anchor="middle" x="376.4441" y="-318.8365" font-family="Times,serif" font-size="14.00" fill="#000000">BB_002E320C</text>
</g>
<!-- BB_002E3187&#45;&gt;BB_002E320C -->
<g id="edge18" class="edge">
<title>BB_002E3187-&gt;BB_002E320C</title>
<path fill="none" stroke="#00ff00" d="M419.6625,-611.2985C432.5157,-602.074 446.4075,-589.3186 453.4441,-573.8584 486.5848,-501.0456 485.5956,-467.1133 453.4441,-393.8584 444.8661,-374.314 427.9379,-357.7893 412.1332,-345.6305"/>
<polygon fill="#00ff00" stroke="#00ff00" points="414.1538,-342.772 404.021,-339.6773 410.0123,-348.4154 414.1538,-342.772"/>
</g>
<!-- BB_002E31EE -->
<g id="node17" class="node">
<title>BB_002E31EE</title>
<ellipse fill="none" stroke="#000000" cx="277.4441" cy="-483.8584" rx="70.6722" ry="18"/>
<text text-anchor="middle" x="277.4441" y="-479.6584" font-family="Times,serif" font-size="14.00" fill="#000000">BB_002E31EE</text>
</g>
<!-- BB_002E31DA&#45;&gt;BB_002E31EE -->
<g id="edge19" class="edge">
<title>BB_002E31DA-&gt;BB_002E31EE</title>
<path fill="none" stroke="#ff0000" d="M348.6894,-538.4292C336.4504,-529.0547 321.1909,-517.3665 307.9374,-507.2149"/>
<polygon fill="#ff0000" stroke="#ff0000" points="310.0565,-504.4293 299.9894,-501.1271 305.7999,-509.9865 310.0565,-504.4293"/>
</g>
<!-- BB_002E3202 -->
<g id="node18" class="node">
<title>BB_002E3202</title>
<ellipse fill="none" stroke="#000000" cx="376.4441" cy="-411.8584" rx="68.3883" ry="18"/>
<text text-anchor="middle" x="376.4441" y="-407.6584" font-family="Times,serif" font-size="14.00" fill="#000000">BB_002E3202</text>
</g>
<!-- BB_002E31DA&#45;&gt;BB_002E3202 -->
<g id="edge20" class="edge">
<title>BB_002E31DA-&gt;BB_002E3202</title>
<path fill="none" stroke="#00ff00" d="M372.0774,-537.6207C372.9302,-513.0594 374.4564,-469.1058 375.4596,-440.2125"/>
<polygon fill="#00ff00" stroke="#00ff00" points="378.9668,-440.0635 375.816,-429.948 371.971,-439.8205 378.9668,-440.0635"/>
</g>
<!-- BB_002E326B -->
<g id="node20" class="node">
<title>BB_002E326B</title>
<ellipse fill="none" stroke="#000000" cx="278.4441" cy="-234.2146" rx="70.1118" ry="18"/>
<text text-anchor="middle" x="278.4441" y="-230.0146" font-family="Times,serif" font-size="14.00" fill="#000000">BB_002E326B</text>
</g>
<!-- BB_002E320C&#45;&gt;BB_002E326B -->
<g id="edge24" class="edge">
<title>BB_002E320C-&gt;BB_002E326B</title>
<path fill="none" stroke="#ff0000" d="M357.0825,-305.4882C342.3178,-292.1062 321.8023,-273.5121 305.4279,-258.6712"/>
<polygon fill="#ff0000" stroke="#ff0000" points="307.5256,-255.8488 297.7656,-251.7265 302.8246,-261.0354 307.5256,-255.8488"/>
</g>
<!-- BB_002E32A9 -->
<g id="node21" class="node">
<title>BB_002E32A9</title>
<ellipse fill="none" stroke="#000000" cx="278.4441" cy="-162.2146" rx="70.6742" ry="18"/>
<text text-anchor="middle" x="278.4441" y="-158.0146" font-family="Times,serif" font-size="14.00" fill="#000000">BB_002E32A9</text>
</g>
<!-- BB_002E320C&#45;&gt;BB_002E32A9 -->
<g id="edge25" class="edge">
<title>BB_002E320C-&gt;BB_002E32A9</title>
<path fill="none" stroke="#00ff00" d="M377.3286,-304.8707C377.5592,-282.2944 375.026,-243.4279 357.4441,-216.2146 348.7174,-202.7074 335.2955,-191.6943 321.9767,-183.2204"/>
<polygon fill="#00ff00" stroke="#00ff00" points="323.667,-180.153 313.2895,-178.0178 320.0704,-186.1585 323.667,-180.153"/>
</g>
<!-- BB_002E31EE&#45;&gt;BB_002E3202 -->
<g id="edge21" class="edge">
<title>BB_002E31EE-&gt;BB_002E3202</title>
<path fill="none" stroke="#ff0000" d="M300.9058,-466.7954C314.098,-457.201 330.7397,-445.098 345.0432,-434.6955"/>
<polygon fill="#ff0000" stroke="#ff0000" points="347.1222,-437.5113 353.1509,-428.7989 343.0049,-431.8501 347.1222,-437.5113"/>
</g>
<!-- BB_002E3349 -->
<g id="node19" class="node">
<title>BB_002E3349</title>
<ellipse fill="none" stroke="#000000" cx="221.4441" cy="-411.8584" rx="68.3883" ry="18"/>
<text text-anchor="middle" x="221.4441" y="-407.6584" font-family="Times,serif" font-size="14.00" fill="#000000">BB_002E3349</text>
</g>
<!-- BB_002E31EE&#45;&gt;BB_002E3349 -->
<g id="edge22" class="edge">
<title>BB_002E31EE-&gt;BB_002E3349</title>
<path fill="none" stroke="#00ff00" d="M263.6014,-466.0606C256.9379,-457.4932 248.8227,-447.0593 241.4983,-437.6423"/>
<polygon fill="#00ff00" stroke="#00ff00" points="244.2239,-435.4457 235.3217,-429.7009 238.6984,-439.7433 244.2239,-435.4457"/>
</g>
<!-- BB_002E3202&#45;&gt;BB_002E320C -->
<g id="edge23" class="edge">
<title>BB_002E3202-&gt;BB_002E320C</title>
<path fill="none" stroke="#0000ff" d="M376.4441,-393.4544C376.4441,-381.3458 376.4441,-365.2545 376.4441,-351.5109"/>
<polygon fill="#0000ff" stroke="#0000ff" points="379.9442,-351.1129 376.4441,-341.113 372.9442,-351.113 379.9442,-351.1129"/>
</g>
<!-- dead_end -->
<g id="node23" class="node">
<title>dead_end</title>
<polygon fill="none" stroke="#000000" points="256.0889,-357.6812 186.7994,-357.6812 186.7994,-288.3918 256.0889,-288.3918 256.0889,-357.6812"/>
<polyline fill="none" stroke="#000000" points="198.7994,-357.6812 186.7994,-345.6812 "/>
<polyline fill="none" stroke="#000000" points="186.7994,-300.3918 198.7994,-288.3918 "/>
<polyline fill="none" stroke="#000000" points="244.0889,-288.3918 256.0889,-300.3918 "/>
<polyline fill="none" stroke="#000000" points="256.0889,-345.6812 244.0889,-357.6812 "/>
<text text-anchor="middle" x="221.4441" y="-318.8365" font-family="Times,serif" font-size="14.00" fill="#000000">dead_end</text>
</g>
<!-- BB_002E3349&#45;&gt;dead_end -->
<g id="edge31" class="edge">
<title>BB_002E3349-&gt;dead_end</title>
<path fill="none" stroke="#000000" d="M221.4441,-393.4544C221.4441,-385.9968 221.4441,-377.0284 221.4441,-368.0283"/>
<polygon fill="#000000" stroke="#000000" points="224.9442,-367.9321 221.4441,-357.9321 217.9442,-367.9322 224.9442,-367.9321"/>
</g>
<!-- BB_002E326B&#45;&gt;BB_002E32A9 -->
<g id="edge26" class="edge">
<title>BB_002E326B-&gt;BB_002E32A9</title>
<path fill="none" stroke="#0000ff" d="M278.4441,-216.046C278.4441,-208.3456 278.4441,-199.1889 278.4441,-190.6312"/>
<polygon fill="#0000ff" stroke="#0000ff" points="281.9442,-190.6278 278.4441,-180.6279 274.9442,-190.6279 281.9442,-190.6278"/>
</g>
<!-- BB_002E32A9&#45;&gt;BB_002E332B -->
<g id="edge27" class="edge">
<title>BB_002E32A9-&gt;BB_002E332B</title>
<path fill="none" stroke="#0000ff" d="M244.4885,-146.2355C222.0273,-135.6655 192.3914,-121.7192 168.3086,-110.3861"/>
<polygon fill="#0000ff" stroke="#0000ff" points="169.5799,-107.1162 159.0413,-106.025 166.5992,-113.4499 169.5799,-107.1162"/>
</g>
</g>
</svg>