<?xml version="1.0" encoding="UTF-8" standalone="no"?><!DOCTYPE svg PUBLIC "-//W3C//DTD SVG 1.1//EN" "http://www.w3.org/Graphics/SVG/1.1/DTD/svg11.dtd"><!-- Generated by graphviz version 2.40.1 (20161225.0304)
 --><!-- Title: G Pages: 1 --><svg xmlns="http://www.w3.org/2000/svg" xmlns:xlink="http://www.w3.org/1999/xlink" width="658pt" height="942pt" viewBox="0.00 0.00 657.67 941.86">
<g id="graph0" class="graph" transform="scale(1 1) rotate(0) translate(4 937.8584)">
<title>G</title>
<polygon fill="#ffffff" stroke="transparent" points="-4,4 -4,-937.8584 653.6737,-937.8584 653.6737,4 -4,4"/>
<!-- start -->
<g id="node1" class="node">
<title>start</title>
<polygon fill="none" stroke="#000000" points="467.0061,-933.8584 427.7688,-915.8584 467.0061,-897.8584 506.2434,-915.8584 467.0061,-933.8584"/>
<polyline fill="none" stroke="#000000" points="438.6759,-920.862 438.6759,-910.8548 "/>
<polyline fill="none" stroke="#000000" points="456.099,-902.862 477.9132,-902.862 "/>
<polyline fill="none" stroke="#000000" points="495.3363,-910.8548 495.3363,-920.862 "/>
<polyline fill="none" stroke="#000000" points="477.9132,-928.8548 456.099,-928.8548 "/>
<text text-anchor="middle" x="467.0061" y="-911.6584" font-family="Times,serif" font-size="14.00" fill="#000000">start</text>
</g>
<!-- BB_0030DAE9 -->
<g id="node2" class="node">
<title>BB_0030DAE9</title>
<ellipse fill="none" stroke="#000000" cx="467.0061" cy="-843.8584" rx="72.9605" ry="18"/>
<text text-anchor="middle" x="467.0061" y="-839.6584" font-family="Times,serif" font-size="14.00" fill="#000000">BB_0030DAE9</text>
</g>
<!-- start&#45;&gt;BB_0030DAE9 -->
<g id="edge1" class="edge">
<title>start-&gt;BB_0030DAE9</title>
<path fill="none" stroke="#000000" d="M467.0061,-897.6898C467.0061,-889.9894 467.0061,-880.8327 467.0061,-872.275"/>
<polygon fill="#000000" stroke="#000000" points="470.5062,-872.2716 467.0061,-862.2717 463.5062,-872.2717 470.5062,-872.2716"/>
</g>
<!-- BB_0030DB1B -->
<g id="node3" class="node">
<title>BB_0030DB1B</title>
<ellipse fill="none" stroke="#000000" cx="518.0061" cy="-771.8584" rx="72.9799" ry="18"/>
<text text-anchor="middle" x="518.0061" y="-767.6584" font-family="Times,serif" font-size="14.00" fill="#000000">BB_0030DB1B</text>
</g>
<!-- BB_0030DAE9&#45;&gt;BB_0030DB1B -->
<g id="edge2" class="edge">
<title>BB_0030DAE9-&gt;BB_0030DB1B</title>
<path fill="none" stroke="#ff0000" d="M479.6128,-826.0606C485.6201,-817.5798 492.9229,-807.2699 499.5402,-797.928"/>
<polygon fill="#ff0000" stroke="#ff0000" points="502.4435,-799.8843 505.3676,-789.7009 496.7313,-795.8381 502.4435,-799.8843"/>
</g>
<!-- BB_0030DB24 -->
<g id="node4" class="node">
<title>BB_0030DB24</title>
<ellipse fill="none" stroke="#000000" cx="417.0061" cy="-699.8584" rx="71.2559" ry="18"/>
<text text-anchor="middle" x="417.0061" y="-695.6584" font-family="Times,serif" font-size="14.00" fill="#000000">BB_0030DB24</text>
</g>
<!-- BB_0030DAE9&#45;&gt;BB_0030DB24 -->
<g id="edge3" class="edge">
<title>BB_0030DAE9-&gt;BB_0030DB24</title>
<path fill="none" stroke="#00ff00" d="M454.9001,-826.0702C448.4484,-815.8639 440.8628,-802.5837 436.0061,-789.8584 428.3424,-769.7786 423.4854,-745.9368 420.6021,-727.8384"/>
<polygon fill="#00ff00" stroke="#00ff00" points="424.0597,-727.294 419.1262,-717.9179 417.1359,-728.3241 424.0597,-727.294"/>
</g>
<!-- BB_0030DB1B&#45;&gt;BB_0030DB24 -->
<g id="edge4" class="edge">
<title>BB_0030DB1B-&gt;BB_0030DB24</title>
<path fill="none" stroke="#ff0000" d="M494.0705,-754.7954C480.7093,-745.2706 463.8797,-733.2733 449.359,-722.9219"/>
<polygon fill="#ff0000" stroke="#ff0000" points="451.2944,-720.0032 441.1199,-717.0484 447.231,-725.7032 451.2944,-720.0032"/>
</g>
<!-- BB_0030DBF9 -->
<g id="node5" class="node">
<title>BB_0030DBF9</title>
<ellipse fill="none" stroke="#000000" cx="578.0061" cy="-699.8584" rx="71.8357" ry="18"/>
<text text-anchor="middle" x="578.0061" y="-695.6584" font-family="Times,serif" font-size="14.00" fill="#000000">BB_0030DBF9</text>
</g>
<!-- BB_0030DB1B&#45;&gt;BB_0030DBF9 -->
<g id="edge5" class="edge">
<title>BB_0030DB1B-&gt;BB_0030DBF9</title>
<path fill="none" stroke="#00ff00" d="M532.8376,-754.0606C539.9771,-745.4932 548.672,-735.0593 556.5195,-725.6423"/>
<polygon fill="#00ff00" stroke="#00ff00" points="559.4242,-727.6238 563.1373,-717.7009 554.0467,-723.1425 559.4242,-727.6238"/>
</g>
<!-- BB_0030DB28 -->
<g id="node6" class="node">
<title>BB_0030DB28</title>
<ellipse fill="none" stroke="#000000" cx="466.0061" cy="-234.2146" rx="71.2559" ry="18"/>
<text text-anchor="middle" x="466.0061" y="-230.0146" font-family="Times,serif" font-size="14.00" fill="#000000">BB_0030DB28</text>
</g>
<!-- BB_0030DB24&#45;&gt;BB_0030DB28 -->
<g id="edge6" class="edge">
<title>BB_0030DB24-&gt;BB_0030DB28</title>
<path fill="none" stroke="#ff0000" d="M425.5413,-681.6464C439.5801,-649.9718 466.0061,-582.3608 466.0061,-522.2146 466.0061,-522.2146 466.0061,-522.2146 466.0061,-378.2146 466.0061,-338.0906 466.0061,-291.6777 466.0061,-262.6323"/>
<polygon fill="#ff0000" stroke="#ff0000" points="469.5062,-262.3999 466.0061,-252.4 462.5062,-262.4 469.5062,-262.3999"/>
</g>
<!-- BB_0030DB5C -->
<g id="node7" class="node">
<title>BB_0030DB5C</title>
<ellipse fill="none" stroke="#000000" cx="284.0061" cy="-611.0365" rx="72.9799" ry="18"/>
<text text-anchor="middle" x="284.0061" y="-606.8365" font-family="Times,serif" font-size="14.00" fill="#000000">BB_0030DB5C</text>
</g>
<!-- BB_0030DB24&#45;&gt;BB_0030DB5C -->
<g id="edge7" class="edge">
<title>BB_0030DB24-&gt;BB_0030DB5C</title>
<path fill="none" stroke="#00ff00" d="M391.6768,-682.9426C370.8256,-669.0175 341.0712,-649.1465 318.1232,-633.8211"/>
<polygon fill="#00ff00" stroke="#00ff00" points="319.954,-630.835 309.6942,-628.1919 316.0664,-636.6562 319.954,-630.835"/>
</g>
<!-- dead_end -->
<g id="node21" class="node">
<title>dead_end</title>
<polygon fill="none" stroke="#000000" points="612.6508,-645.6812 543.3614,-645.6812 543.3614,-576.3918 612.6508,-576.3918 612.6508,-645.6812"/>
<polyline fill="none" stroke="#000000" points="555.3614,-645.6812 543.3614,-633.6812 "/>
<polyline fill="none" stroke="#000000" points="543.3614,-588.3918 555.3614,-576.3918 "/>
<polyline fill="none" stroke="#000000" points="600.6508,-576.3918 612.6508,-588.3918 "/>
<polyline fill="none" stroke="#000000" points="612.6508,-633.6812 600.6508,-645.6812 "/>
<text text-anchor="middle" x="578.0061" y="-606.8365" font-family="Times,serif" font-size="14.00" fill="#000000">dead_end</text>
</g>
<!-- BB_0030DBF9&#45;&gt;dead_end -->
<g id="edge27" class="edge">
<title>BB_0030DBF9-&gt;dead_end</title>
<path fill="none" stroke="#000000" d="M578.0061,-681.4544C578.0061,-673.9968 578.0061,-665.0284 578.0061,-656.0283"/>
<polygon fill="#000000" stroke="#000000" points="581.5062,-655.9321 578.0061,-645.9321 574.5062,-655.9322 581.5062,-655.9321"/>
</g>
<!-- BB_0030DB2E -->
<g id="node8" class="node">
<title>BB_0030DB2E</title>
<ellipse fill="none" stroke="#000000" cx="528.0061" cy="-162.2146" rx="72.3981" ry="18"/>
<text text-anchor="middle" x="528.0061" y="-158.0146" font-family="Times,serif" font-size="14.00" fill="#000000">BB_0030DB2E</text>
</g>
<!-- BB_0030DB28&#45;&gt;BB_0030DB2E -->
<g id="edge8" class="edge">
<title>BB_0030DB28-&gt;BB_0030DB2E</title>
<path fill="none" stroke="#ff0000" d="M481.332,-216.4168C488.784,-207.7629 497.8759,-197.2046 506.0488,-187.7134"/>
<polygon fill="#ff0000" stroke="#ff0000" points="508.7686,-189.9187 512.6417,-180.0571 503.4642,-185.351 508.7686,-189.9187"/>
</g>
<!-- BB_0030DB3B -->
<g id="node9" class="node">
<title>BB_0030DB3B</title>
<ellipse fill="none" stroke="#000000" cx="365.0061" cy="-162.2146" rx="72.9799" ry="18"/>
<text text-anchor="middle" x="365.0061" y="-158.0146" font-family="Times,serif" font-size="14.00" fill="#000000">BB_0030DB3B</text>
</g>
<!-- BB_0030DB28&#45;&gt;BB_0030DB3B -->
<g id="edge9" class="edge">
<title>BB_0030DB28-&gt;BB_0030DB3B</title>
<path fill="none" stroke="#00ff00" d="M442.0705,-217.1516C428.7093,-207.6268 411.8797,-195.6295 397.359,-185.2781"/>
<polygon fill="#00ff00" stroke="#00ff00" points="399.2944,-182.3594 389.1199,-179.4046 395.231,-188.0594 399.2944,-182.3594"/>
</g>
<!-- BB_0030DB74 -->
<g id="node11" class="node">
<title>BB_0030DB74</title>
<ellipse fill="none" stroke="#000000" cx="284.0061" cy="-522.2146" rx="71.2559" ry="18"/>
<text text-anchor="middle" x="284.0061" y="-518.0146" font-family="Times,serif" font-size="14.00" fill="#000000">BB_0030DB74</text>
</g>
<!-- BB_0030DB5C&#45;&gt;BB_0030DB74 -->
<g id="edge12" class="edge">
<title>BB_0030DB5C-&gt;BB_0030DB74</title>
<path fill="none" stroke="#ff0000" d="M284.0061,-592.6325C284.0061,-580.5239 284.0061,-564.4326 284.0061,-550.689"/>
<polygon fill="#ff0000" stroke="#ff0000" points="287.5062,-550.291 284.0061,-540.2911 280.5062,-550.2911 287.5062,-550.291"/>
</g>
<!-- BB_0030DBC7 -->
<g id="node12" class="node">
<title>BB_0030DBC7</title>
<ellipse fill="none" stroke="#000000" cx="102.0061" cy="-234.2146" rx="72.9799" ry="18"/>
<text text-anchor="middle" x="102.0061" y="-230.0146" font-family="Times,serif" font-size="14.00" fill="#000000">BB_0030DBC7</text>
</g>
<!-- BB_0030DB5C&#45;&gt;BB_0030DBC7 -->
<g id="edge13" class="edge">
<title>BB_0030DB5C-&gt;BB_0030DBC7</title>
<path fill="none" stroke="#00ff00" d="M218.7248,-602.9366C135.1481,-588.5001 1.0061,-549.8154 1.0061,-450.2146 1.0061,-450.2146 1.0061,-450.2146 1.0061,-378.2146 1.0061,-337.333 -3.0183,-321.996 20.0061,-288.2146 29.2987,-274.5805 43.2875,-263.5365 57.0925,-255.0732"/>
<polygon fill="#00ff00" stroke="#00ff00" points="59.1747,-257.9126 66.0867,-249.8829 55.676,-251.8497 59.1747,-257.9126"/>
</g>
<!-- BB_0030DBEB -->
<g id="node10" class="node">
<title>BB_0030DBEB</title>
<ellipse fill="none" stroke="#000000" cx="365.0061" cy="-90.2146" rx="73.6215" ry="18"/>
<text text-anchor="middle" x="365.0061" y="-86.0146" font-family="Times,serif" font-size="14.00" fill="#000000">BB_0030DBEB</text>
</g>
<!-- BB_0030DB2E&#45;&gt;BB_0030DBEB -->
<g id="edge10" class="edge">
<title>BB_0030DB2E-&gt;BB_0030DBEB</title>
<path fill="none" stroke="#0000ff" d="M492.2351,-146.4139C468.0304,-135.7223 435.8695,-121.5162 409.9389,-110.0622"/>
<polygon fill="#0000ff" stroke="#0000ff" points="411.2553,-106.8175 400.6937,-105.9784 408.4268,-113.2206 411.2553,-106.8175"/>
</g>
<!-- BB_0030DB3B&#45;&gt;BB_0030DBEB -->
<g id="edge11" class="edge">
<title>BB_0030DB3B-&gt;BB_0030DBEB</title>
<path fill="none" stroke="#0000ff" d="M365.0061,-144.046C365.0061,-136.3456 365.0061,-127.1889 365.0061,-118.6312"/>
<polygon fill="#0000ff" stroke="#0000ff" points="368.5062,-118.6278 365.0061,-108.6279 361.5062,-118.6279 368.5062,-118.6278"/>
</g>
<!-- end -->
<g id="node20" class="node">
<title>end</title>
<polygon fill="none" stroke="#000000" points="383.2213,-36.3225 346.7909,-36.3225 346.7909,.1079 383.2213,.1079 383.2213,-36.3225"/>
<polyline fill="none" stroke="#000000" points="358.7909,-36.3225 346.7909,-24.3225 "/>
<polyline fill="none" stroke="#000000" points="346.7909,-11.8921 358.7909,.1079 "/>
<polyline fill="none" stroke="#000000" points="371.2213,.1079 383.2213,-11.8921 "/>
<polyline fill="none" stroke="#000000" points="383.2213,-24.3225 371.2213,-36.3225 "/>
<text text-anchor="middle" x="365.0061" y="-13.9073" font-family="Times,serif" font-size="14.00" fill="#000000">end</text>
</g>
<!-- BB_0030DBEB&#45;&gt;end -->
<g id="edge26" class="edge">
<title>BB_0030DBEB-&gt;end</title>
<path fill="none" stroke="#000000" d="M365.0061,-72.0189C365.0061,-64.2477 365.0061,-54.9956 365.0061,-46.3686"/>
<polygon fill="#000000" stroke="#000000" points="368.5062,-46.2972 365.0061,-36.2972 361.5062,-46.2972 368.5062,-46.2972"/>
</g>
<!-- BB_0030DB9F -->
<g id="node13" class="node">
<title>BB_0030DB9F</title>
<ellipse fill="none" stroke="#000000" cx="366.0061" cy="-378.2146" rx="71.8357" ry="18"/>
<text text-anchor="middle" x="366.0061" y="-374.0146" font-family="Times,serif" font-size="14.00" fill="#000000">BB_0030DB9F</text>
</g>
<!-- BB_0030DB74&#45;&gt;BB_0030DB9F -->
<g id="edge14" class="edge">
<title>BB_0030DB74-&gt;BB_0030DB9F</title>
<path fill="none" stroke="#ff0000" d="M294.2257,-504.2681C308.4045,-479.3686 334.1573,-434.1441 350.6535,-405.1752"/>
<polygon fill="#ff0000" stroke="#ff0000" points="353.7508,-406.8091 355.6578,-396.3873 347.6679,-403.3452 353.7508,-406.8091"/>
</g>
<!-- BB_0030DBA3 -->
<g id="node14" class="node">
<title>BB_0030DBA3</title>
<ellipse fill="none" stroke="#000000" cx="203.0061" cy="-450.2146" rx="73.0421" ry="18"/>
<text text-anchor="middle" x="203.0061" y="-446.0146" font-family="Times,serif" font-size="14.00" fill="#000000">BB_0030DBA3</text>
</g>
<!-- BB_0030DB74&#45;&gt;BB_0030DBA3 -->
<g id="edge15" class="edge">
<title>BB_0030DB74-&gt;BB_0030DBA3</title>
<path fill="none" stroke="#00ff00" d="M264.3983,-504.7854C254.2257,-495.7432 241.6317,-484.5484 230.503,-474.6563"/>
<polygon fill="#00ff00" stroke="#00ff00" points="232.5135,-471.7606 222.7141,-467.7328 227.863,-476.9924 232.5135,-471.7606"/>
</g>
<!-- BB_0030DBE8 -->
<g id="node19" class="node">
<title>BB_0030DBE8</title>
<ellipse fill="none" stroke="#000000" cx="202.0061" cy="-162.2146" rx="72.3981" ry="18"/>
<text text-anchor="middle" x="202.0061" y="-158.0146" font-family="Times,serif" font-size="14.00" fill="#000000">BB_0030DBE8</text>
</g>
<!-- BB_0030DBC7&#45;&gt;BB_0030DBE8 -->
<g id="edge24" class="edge">
<title>BB_0030DBC7-&gt;BB_0030DBE8</title>
<path fill="none" stroke="#0000ff" d="M125.7047,-217.1516C138.9337,-207.6268 155.5966,-195.6295 169.9735,-185.2781"/>
<polygon fill="#0000ff" stroke="#0000ff" points="172.0608,-188.0881 178.1311,-179.4046 167.9706,-182.4073 172.0608,-188.0881"/>
</g>
<!-- BB_0030DBB5 -->
<g id="node15" class="node">
<title>BB_0030DBB5</title>
<ellipse fill="none" stroke="#000000" cx="265.0061" cy="-234.2146" rx="72.9799" ry="18"/>
<text text-anchor="middle" x="265.0061" y="-230.0146" font-family="Times,serif" font-size="14.00" fill="#000000">BB_0030DBB5</text>
</g>
<!-- BB_0030DB9F&#45;&gt;BB_0030DBB5 -->
<g id="edge16" class="edge">
<title>BB_0030DB9F-&gt;BB_0030DBB5</title>
<path fill="none" stroke="#0000ff" d="M366.1232,-360.0833C365.4053,-340.7053 361.7561,-309.8558 347.0061,-288.2146 337.7135,-274.5805 323.7247,-263.5365 309.9197,-255.0732"/>
<polygon fill="#0000ff" stroke="#0000ff" points="311.3362,-251.8497 300.9255,-249.8829 307.8375,-257.9126 311.3362,-251.8497"/>
</g>
<!-- BB_0030DBA8 -->
<g id="node16" class="node">
<title>BB_0030DBA8</title>
<ellipse fill="none" stroke="#000000" cx="203.0061" cy="-378.2146" rx="73.0421" ry="18"/>
<text text-anchor="middle" x="203.0061" y="-374.0146" font-family="Times,serif" font-size="14.00" fill="#000000">BB_0030DBA8</text>
</g>
<!-- BB_0030DBA3&#45;&gt;BB_0030DBA8 -->
<g id="edge17" class="edge">
<title>BB_0030DBA3-&gt;BB_0030DBA8</title>
<path fill="none" stroke="#ff0000" d="M203.0061,-432.046C203.0061,-424.3456 203.0061,-415.1889 203.0061,-406.6312"/>
<polygon fill="#ff0000" stroke="#ff0000" points="206.5062,-406.6278 203.0061,-396.6279 199.5062,-406.6279 206.5062,-406.6278"/>
</g>
<!-- BB_0030DBC0 -->
<g id="node17" class="node">
<title>BB_0030DBC0</title>
<ellipse fill="none" stroke="#000000" cx="102.0061" cy="-306.2146" rx="72.9799" ry="18"/>
<text text-anchor="middle" x="102.0061" y="-302.0146" font-family="Times,serif" font-size="14.00" fill="#000000">BB_0030DBC0</text>
</g>
<!-- BB_0030DBA3&#45;&gt;BB_0030DBC0 -->
<g id="edge18" class="edge">
<title>BB_0030DBA3-&gt;BB_0030DBC0</title>
<path fill="none" stroke="#00ff00" d="M166.6682,-434.3182C150.3315,-425.39 132.2382,-412.6944 121.0061,-396.2146 108.6184,-378.0394 104.0605,-353.3692 102.4931,-334.4542"/>
<polygon fill="#00ff00" stroke="#00ff00" points="105.9794,-334.1193 101.8891,-324.3459 98.9919,-334.5369 105.9794,-334.1193"/>
</g>
<!-- BB_0030DBB5&#45;&gt;BB_0030DBE8 -->
<g id="edge22" class="edge">
<title>BB_0030DBB5-&gt;BB_0030DBE8</title>
<path fill="none" stroke="#0000ff" d="M249.4331,-216.4168C241.8039,-207.6978 232.4833,-197.0457 224.1304,-187.4995"/>
<polygon fill="#0000ff" stroke="#0000ff" points="226.6191,-185.0286 217.4,-179.8076 221.3511,-189.6382 226.6191,-185.0286"/>
</g>
<!-- BB_0030DBA8&#45;&gt;BB_0030DBC0 -->
<g id="edge20" class="edge">
<title>BB_0030DBA8-&gt;BB_0030DBC0</title>
<path fill="none" stroke="#00ff00" d="M179.0705,-361.1516C165.7093,-351.6268 148.8797,-339.6295 134.359,-329.2781"/>
<polygon fill="#00ff00" stroke="#00ff00" points="136.2944,-326.3594 126.1199,-323.4046 132.231,-332.0594 136.2944,-326.3594"/>
</g>
<!-- BB_0030DBB2 -->
<g id="node18" class="node">
<title>BB_0030DBB2</title>
<ellipse fill="none" stroke="#000000" cx="265.0061" cy="-306.2146" rx="72.9799" ry="18"/>
<text text-anchor="middle" x="265.0061" y="-302.0146" font-family="Times,serif" font-size="14.00" fill="#000000">BB_0030DBB2</text>
</g>
<!-- BB_0030DBA8&#45;&gt;BB_0030DBB2 -->
<g id="edge19" class="edge">
<title>BB_0030DBA8-&gt;BB_0030DBB2</title>
<path fill="none" stroke="#ff0000" d="M218.332,-360.4168C225.784,-351.7629 234.8759,-341.2046 243.0488,-331.7134"/>
<polygon fill="#ff0000" stroke="#ff0000" points="245.7686,-333.9187 249.6417,-324.0571 240.4642,-329.351 245.7686,-333.9187"/>
</g>
<!-- BB_0030DBC0&#45;&gt;BB_0030DBC7 -->
<g id="edge23" class="edge">
<title>BB_0030DBC0-&gt;BB_0030DBC7</title>
<path fill="none" stroke="#0000ff" d="M102.0061,-288.046C102.0061,-280.3456 102.0061,-271.1889 102.0061,-262.6312"/>
<polygon fill="#0000ff" stroke="#0000ff" points="105.5062,-262.6278 102.0061,-252.6279 98.5062,-262.6279 105.5062,-262.6278"/>
</g>
<!-- BB_0030DBB2&#45;&gt;BB_0030DBB5 -->
<g id="edge21" class="edge">
<title>BB_0030DBB2-&gt;BB_0030DBB5</title>
<path fill="none" stroke="#0000ff" d="M265.0061,-288.046C265.0061,-280.3456 265.0061,-271.1889 265.0061,-262.6312"/>
<polygon fill="#0000ff" stroke="#0000ff" points="268.5062,-262.6278 265.0061,-252.6279 261.5062,-262.6279 268.5062,-262.6278"/>
</g>
<!-- BB_0030DBE8&#45;&gt;BB_0030DBEB -->
<g id="edge25" class="edge">
<title>BB_0030DBE8-&gt;BB_0030DBEB</title>
<path fill="none" stroke="#0000ff" d="M237.7771,-146.4139C261.9818,-135.7223 294.1427,-121.5162 320.0733,-110.0622"/>
<polygon fill="#0000ff" stroke="#0000ff" points="321.5854,-113.2206 329.3185,-105.9784 318.7569,-106.8175 321.5854,-113.2206"/>
</g>
</g>
</svg>