<?xml version="1.0" encoding="UTF-8" standalone="no"?><!DOCTYPE svg PUBLIC "-//W3C//DTD SVG 1.1//EN" "http://www.w3.org/Graphics/SVG/1.1/DTD/svg11.dtd"><!-- Generated by graphviz version 2.40.1 (20161225.0304)
 --><!-- Title: G Pages: 1 --><svg xmlns="http://www.w3.org/2000/svg" xmlns:xlink="http://www.w3.org/1999/xlink" width="217pt" height="764pt" viewBox="0.00 0.00 216.68 764.21">
<g id="graph0" class="graph" transform="scale(1 1) rotate(0) translate(4 760.2146)">
<title>G</title>
<polygon fill="#ffffff" stroke="transparent" points="-4,4 -4,-760.2146 212.6843,-760.2146 212.6843,4 -4,4"/>
<!-- start -->
<g id="node1" class="node">
<title>start</title>
<polygon fill="none" stroke="#000000" points="133.8018,-756.2146 94.5645,-738.2146 133.8018,-720.2146 173.0391,-738.2146 133.8018,-756.2146"/>
<polyline fill="none" stroke="#000000" points="105.4716,-743.2182 105.4716,-733.211 "/>
<polyline fill="none" stroke="#000000" points="122.8948,-725.2182 144.7089,-725.2182 "/>
<polyline fill="none" stroke="#000000" points="162.1321,-733.211 162.1321,-743.2182 "/>
<polyline fill="none" stroke="#000000" points="144.7089,-751.211 122.8948,-751.211 "/>
<text text-anchor="middle" x="133.8018" y="-734.0146" font-family="Times,serif" font-size="14.00" fill="#000000">start</text>
</g>
<!-- BB_002D4AA0 -->
<g id="node2" class="node">
<title>BB_002D4AA0</title>
<ellipse fill="none" stroke="#000000" cx="133.8018" cy="-666.2146" rx="73.6042" ry="18"/>
<text text-anchor="middle" x="133.8018" y="-662.0146" font-family="Times,serif" font-size="14.00" fill="#000000">BB_002D4AA0</text>
</g>
<!-- start&#45;&gt;BB_002D4AA0 -->
<g id="edge1" class="edge">
<title>start-&gt;BB_002D4AA0</title>
<path fill="none" stroke="#000000" d="M133.8018,-720.046C133.8018,-712.3456 133.8018,-703.1889 133.8018,-694.6312"/>
<polygon fill="#000000" stroke="#000000" points="137.3019,-694.6278 133.8018,-684.6279 130.3019,-694.6279 137.3019,-694.6278"/>
</g>
<!-- BB_002D4AB9 -->
<g id="node3" class="node">
<title>BB_002D4AB9</title>
<ellipse fill="none" stroke="#000000" cx="83.8018" cy="-594.2146" rx="73.0421" ry="18"/>
<text text-anchor="middle" x="83.8018" y="-590.0146" font-family="Times,serif" font-size="14.00" fill="#000000">BB_002D4AB9</text>
</g>
<!-- BB_002D4AA0&#45;&gt;BB_002D4AB9 -->
<g id="edge2" class="edge">
<title>BB_002D4AA0-&gt;BB_002D4AB9</title>
<path fill="none" stroke="#ff0000" d="M121.4423,-648.4168C115.5528,-639.936 108.3932,-629.6261 101.9057,-620.2842"/>
<polygon fill="#ff0000" stroke="#ff0000" points="104.7713,-618.2745 96.1925,-612.0571 99.0217,-622.2673 104.7713,-618.2745"/>
</g>
<!-- BB_002D4ABB -->
<g id="node4" class="node">
<title>BB_002D4ABB</title>
<ellipse fill="none" stroke="#000000" cx="133.8018" cy="-522.2146" rx="74.765" ry="18"/>
<text text-anchor="middle" x="133.8018" y="-518.0146" font-family="Times,serif" font-size="14.00" fill="#000000">BB_002D4ABB</text>
</g>
<!-- BB_002D4AA0&#45;&gt;BB_002D4ABB -->
<g id="edge3" class="edge">
<title>BB_002D4AA0-&gt;BB_002D4ABB</title>
<path fill="none" stroke="#00ff00" d="M147.703,-648.3441C154.611,-638.3236 162.2304,-625.247 165.8018,-612.2146 170.0306,-596.7835 170.0306,-591.6457 165.8018,-576.2146 163.179,-566.644 158.3732,-557.0494 153.2692,-548.659"/>
<polygon fill="#00ff00" stroke="#00ff00" points="156.0838,-546.5668 147.703,-540.0851 150.2126,-550.3784 156.0838,-546.5668"/>
</g>
<!-- BB_002D4AB9&#45;&gt;BB_002D4ABB -->
<g id="edge4" class="edge">
<title>BB_002D4AB9-&gt;BB_002D4ABB</title>
<path fill="none" stroke="#0000ff" d="M96.1614,-576.4168C102.0509,-567.936 109.2105,-557.6261 115.698,-548.2842"/>
<polygon fill="#0000ff" stroke="#0000ff" points="118.582,-550.2673 121.4112,-540.0571 112.8324,-546.2745 118.582,-550.2673"/>
</g>
<!-- BB_002D4AC9 -->
<g id="node5" class="node">
<title>BB_002D4AC9</title>
<ellipse fill="none" stroke="#000000" cx="83.8018" cy="-450.2146" rx="73.0421" ry="18"/>
<text text-anchor="middle" x="83.8018" y="-446.0146" font-family="Times,serif" font-size="14.00" fill="#000000">BB_002D4AC9</text>
</g>
<!-- BB_002D4ABB&#45;&gt;BB_002D4AC9 -->
<g id="edge5" class="edge">
<title>BB_002D4ABB-&gt;BB_002D4AC9</title>
<path fill="none" stroke="#ff0000" d="M121.4423,-504.4168C115.5528,-495.936 108.3932,-485.6261 101.9057,-476.2842"/>
<polygon fill="#ff0000" stroke="#ff0000" points="104.7713,-474.2745 96.1925,-468.0571 99.0217,-478.2673 104.7713,-474.2745"/>
</g>
<!-- BB_002D4AE4 -->
<g id="node6" class="node">
<title>BB_002D4AE4</title>
<ellipse fill="none" stroke="#000000" cx="133.8018" cy="-234.2146" rx="72.9605" ry="18"/>
<text text-anchor="middle" x="133.8018" y="-230.0146" font-family="Times,serif" font-size="14.00" fill="#000000">BB_002D4AE4</text>
</g>
<!-- BB_002D4ABB&#45;&gt;BB_002D4AE4 -->
<g id="edge6" class="edge">
<title>BB_002D4ABB-&gt;BB_002D4AE4</title>
<path fill="none" stroke="#00ff00" d="M147.0626,-504.147C153.783,-494.0688 161.4275,-480.9998 165.8018,-468.2146 181.3941,-422.6418 177.7948,-408.2879 174.8018,-360.2146 172.7979,-328.0279 176.2414,-318.7272 165.8018,-288.2146 162.5894,-278.8254 157.6134,-269.2833 152.5349,-260.8849"/>
<polygon fill="#00ff00" stroke="#00ff00" points="155.383,-258.8412 147.0626,-252.2822 149.4767,-262.5983 155.383,-258.8412"/>
</g>
<!-- BB_002D4AD0 -->
<g id="node7" class="node">
<title>BB_002D4AD0</title>
<ellipse fill="none" stroke="#000000" cx="73.8018" cy="-378.2146" rx="73.6042" ry="18"/>
<text text-anchor="middle" x="73.8018" y="-374.0146" font-family="Times,serif" font-size="14.00" fill="#000000">BB_002D4AD0</text>
</g>
<!-- BB_002D4AC9&#45;&gt;BB_002D4AD0 -->
<g id="edge7" class="edge">
<title>BB_002D4AC9-&gt;BB_002D4AD0</title>
<path fill="none" stroke="#0000ff" d="M81.2784,-432.046C80.2089,-424.3456 78.9371,-415.1889 77.7486,-406.6312"/>
<polygon fill="#0000ff" stroke="#0000ff" points="81.2017,-406.0513 76.3592,-396.6279 74.2683,-407.0143 81.2017,-406.0513"/>
</g>
<!-- BB_002D4AFE -->
<g id="node9" class="node">
<title>BB_002D4AFE</title>
<ellipse fill="none" stroke="#000000" cx="83.8018" cy="-162.2146" rx="73.0402" ry="18"/>
<text text-anchor="middle" x="83.8018" y="-158.0146" font-family="Times,serif" font-size="14.00" fill="#000000">BB_002D4AFE</text>
</g>
<!-- BB_002D4AE4&#45;&gt;BB_002D4AFE -->
<g id="edge11" class="edge">
<title>BB_002D4AE4-&gt;BB_002D4AFE</title>
<path fill="none" stroke="#ff0000" d="M121.4423,-216.4168C115.5528,-207.936 108.3932,-197.6261 101.9057,-188.2842"/>
<polygon fill="#ff0000" stroke="#ff0000" points="104.7713,-186.2745 96.1925,-180.0571 99.0217,-190.2673 104.7713,-186.2745"/>
</g>
<!-- BB_002D4B04 -->
<g id="node10" class="node">
<title>BB_002D4B04</title>
<ellipse fill="none" stroke="#000000" cx="133.8018" cy="-90.2146" rx="71.2559" ry="18"/>
<text text-anchor="middle" x="133.8018" y="-86.0146" font-family="Times,serif" font-size="14.00" fill="#000000">BB_002D4B04</text>
</g>
<!-- BB_002D4AE4&#45;&gt;BB_002D4B04 -->
<g id="edge12" class="edge">
<title>BB_002D4AE4-&gt;BB_002D4B04</title>
<path fill="none" stroke="#00ff00" d="M147.703,-216.3441C154.611,-206.3236 162.2304,-193.247 165.8018,-180.2146 170.0306,-164.7835 170.0306,-159.6457 165.8018,-144.2146 163.179,-134.644 158.3732,-125.0494 153.2692,-116.659"/>
<polygon fill="#00ff00" stroke="#00ff00" points="156.0838,-114.5668 147.703,-108.0851 150.2126,-118.3784 156.0838,-114.5668"/>
</g>
<!-- BB_002D4AD0&#45;&gt;BB_002D4AD0 -->
<g id="edge9" class="edge">
<title>BB_002D4AD0-&gt;BB_002D4AD0</title>
<path fill="none" stroke="#00ff00" d="M123.8491,-391.5037C146.2392,-392.7693 165.6036,-388.3396 165.6036,-378.2146 165.6036,-369.6716 151.8178,-365.1832 134.0605,-364.7494"/>
<polygon fill="#00ff00" stroke="#00ff00" points="133.7872,-361.2535 123.8491,-364.9255 133.908,-368.2525 133.7872,-361.2535"/>
</g>
<!-- BB_002D4AE1 -->
<g id="node8" class="node">
<title>BB_002D4AE1</title>
<ellipse fill="none" stroke="#000000" cx="83.8018" cy="-306.2146" rx="72.9605" ry="18"/>
<text text-anchor="middle" x="83.8018" y="-302.0146" font-family="Times,serif" font-size="14.00" fill="#000000">BB_002D4AE1</text>
</g>
<!-- BB_002D4AD0&#45;&gt;BB_002D4AE1 -->
<g id="edge8" class="edge">
<title>BB_002D4AD0-&gt;BB_002D4AE1</title>
<path fill="none" stroke="#ff0000" d="M76.3252,-360.046C77.3947,-352.3456 78.6665,-343.1889 79.8551,-334.6312"/>
<polygon fill="#ff0000" stroke="#ff0000" points="83.3354,-335.0143 81.2444,-324.6279 76.4019,-334.0513 83.3354,-335.0143"/>
</g>
<!-- BB_002D4AE1&#45;&gt;BB_002D4AE4 -->
<g id="edge10" class="edge">
<title>BB_002D4AE1-&gt;BB_002D4AE4</title>
<path fill="none" stroke="#0000ff" d="M96.1614,-288.4168C102.0509,-279.936 109.2105,-269.6261 115.698,-260.2842"/>
<polygon fill="#0000ff" stroke="#0000ff" points="118.582,-262.2673 121.4112,-252.0571 112.8324,-258.2745 118.582,-262.2673"/>
</g>
<!-- BB_002D4AFE&#45;&gt;BB_002D4B04 -->
<g id="edge13" class="edge">
<title>BB_002D4AFE-&gt;BB_002D4B04</title>
<path fill="none" stroke="#0000ff" d="M96.1614,-144.4168C102.0509,-135.936 109.2105,-125.6261 115.698,-116.2842"/>
<polygon fill="#0000ff" stroke="#0000ff" points="118.582,-118.2673 121.4112,-108.0571 112.8324,-114.2745 118.582,-118.2673"/>
</g>
<!-- end -->
<g id="node11" class="node">
<title>end</title>
<polygon fill="none" stroke="#000000" points="152.0171,-36.3225 115.5866,-36.3225 115.5866,.1079 152.0171,.1079 152.0171,-36.3225"/>
<polyline fill="none" stroke="#000000" points="127.5866,-36.3225 115.5866,-24.3225 "/>
<polyline fill="none" stroke="#000000" points="115.5866,-11.8921 127.5866,.1079 "/>
<polyline fill="none" stroke="#000000" points="140.0171,.1079 152.0171,-11.8921 "/>
<polyline fill="none" stroke="#000000" points="152.0171,-24.3225 140.0171,-36.3225 "/>
<text text-anchor="middle" x="133.8018" y="-13.9073" font-family="Times,serif" font-size="14.00" fill="#000000">end</text>
</g>
<!-- BB_002D4B04&#45;&gt;end -->
<g id="edge14" class="edge">
<title>BB_002D4B04-&gt;end</title>
<path fill="none" stroke="#000000" d="M133.8018,-72.0189C133.8018,-64.2477 133.8018,-54.9956 133.8018,-46.3686"/>
<polygon fill="#000000" stroke="#000000" points="137.3019,-46.2972 133.8018,-36.2972 130.3019,-46.2972 137.3019,-46.2972"/>
</g>
</g>
</svg>