<?xml version="1.0" encoding="UTF-8" standalone="no"?><!DOCTYPE svg PUBLIC "-//W3C//DTD SVG 1.1//EN" "http://www.w3.org/Graphics/SVG/1.1/DTD/svg11.dtd"><!-- Generated by graphviz version 2.40.1 (20161225.0304)
 --><!-- Title: G Pages: 1 --><svg xmlns="http://www.w3.org/2000/svg" xmlns:xlink="http://www.w3.org/1999/xlink" width="306pt" height="332pt" viewBox="0.00 0.00 305.57 332.21">
<g id="graph0" class="graph" transform="scale(1 1) rotate(0) translate(4 328.2146)">
<title>G</title>
<polygon fill="#ffffff" stroke="transparent" points="-4,4 -4,-328.2146 301.571,-328.2146 301.571,4 -4,4"/>
<!-- start -->
<g id="node1" class="node">
<title>start</title>
<polygon fill="none" stroke="#000000" points="147.984,-324.2146 108.7467,-306.2146 147.984,-288.2146 187.2213,-306.2146 147.984,-324.2146"/>
<polyline fill="none" stroke="#000000" points="119.6537,-311.2182 119.6537,-301.211 "/>
<polyline fill="none" stroke="#000000" points="137.0769,-293.2182 158.891,-293.2182 "/>
<polyline fill="none" stroke="#000000" points="176.3142,-301.211 176.3142,-311.2182 "/>
<polyline fill="none" stroke="#000000" points="158.891,-319.211 137.0769,-319.211 "/>
<text text-anchor="middle" x="147.984" y="-302.0146" font-family="Times,serif" font-size="14.00" fill="#000000">start</text>
</g>
<!-- BB_002E1980 -->
<g id="node2" class="node">
<title>BB_002E1980</title>
<ellipse fill="none" stroke="#000000" cx="147.984" cy="-234.2146" rx="68.3883" ry="18"/>
<text text-anchor="middle" x="147.984" y="-230.0146" font-family="Times,serif" font-size="14.00" fill="#000000">BB_002E1980</text>
</g>
<!-- start&#45;&gt;BB_002E1980 -->
<g id="edge1" class="edge">
<title>start-&gt;BB_002E1980</title>
<path fill="none" stroke="#000000" d="M147.984,-288.046C147.984,-280.3456 147.984,-271.1889 147.984,-262.6312"/>
<polygon fill="#000000" stroke="#000000" points="151.4841,-262.6278 147.984,-252.6279 144.4841,-262.6279 151.4841,-262.6278"/>
</g>
<!-- BB_002E19F7 -->
<g id="node3" class="node">
<title>BB_002E19F7</title>
<ellipse fill="none" stroke="#000000" cx="68.984" cy="-162.2146" rx="68.9679" ry="18"/>
<text text-anchor="middle" x="68.984" y="-158.0146" font-family="Times,serif" font-size="14.00" fill="#000000">BB_002E19F7</text>
</g>
<!-- BB_002E1980&#45;&gt;BB_002E19F7 -->
<g id="edge2" class="edge">
<title>BB_002E1980-&gt;BB_002E19F7</title>
<path fill="none" stroke="#ff0000" d="M128.8603,-216.7854C118.9389,-207.7432 106.6558,-196.5484 95.8019,-186.6563"/>
<polygon fill="#ff0000" stroke="#ff0000" points="97.9539,-183.8821 88.2054,-179.7328 93.2387,-189.0557 97.9539,-183.8821"/>
</g>
<!-- BB_002E1A41 -->
<g id="node4" class="node">
<title>BB_002E1A41</title>
<ellipse fill="none" stroke="#000000" cx="226.984" cy="-162.2146" rx="70.6742" ry="18"/>
<text text-anchor="middle" x="226.984" y="-158.0146" font-family="Times,serif" font-size="14.00" fill="#000000">BB_002E1A41</text>
</g>
<!-- BB_002E1980&#45;&gt;BB_002E1A41 -->
<g id="edge3" class="edge">
<title>BB_002E1980-&gt;BB_002E1A41</title>
<path fill="none" stroke="#00ff00" d="M167.1077,-216.7854C177.029,-207.7432 189.3121,-196.5484 200.166,-186.6563"/>
<polygon fill="#00ff00" stroke="#00ff00" points="202.7292,-189.0557 207.7626,-179.7328 198.014,-183.8821 202.7292,-189.0557"/>
</g>
<!-- BB_002E1A44 -->
<g id="node5" class="node">
<title>BB_002E1A44</title>
<ellipse fill="none" stroke="#000000" cx="147.984" cy="-90.2146" rx="70.6742" ry="18"/>
<text text-anchor="middle" x="147.984" y="-86.0146" font-family="Times,serif" font-size="14.00" fill="#000000">BB_002E1A44</text>
</g>
<!-- BB_002E19F7&#45;&gt;BB_002E1A44 -->
<g id="edge4" class="edge">
<title>BB_002E19F7-&gt;BB_002E1A44</title>
<path fill="none" stroke="#0000ff" d="M88.1077,-144.7854C98.029,-135.7432 110.3121,-124.5484 121.166,-114.6563"/>
<polygon fill="#0000ff" stroke="#0000ff" points="123.7292,-117.0557 128.7626,-107.7328 119.014,-111.8821 123.7292,-117.0557"/>
</g>
<!-- BB_002E1A41&#45;&gt;BB_002E1A44 -->
<g id="edge5" class="edge">
<title>BB_002E1A41-&gt;BB_002E1A44</title>
<path fill="none" stroke="#0000ff" d="M207.8603,-144.7854C197.9389,-135.7432 185.6558,-124.5484 174.8019,-114.6563"/>
<polygon fill="#0000ff" stroke="#0000ff" points="176.9539,-111.8821 167.2054,-107.7328 172.2387,-117.0557 176.9539,-111.8821"/>
</g>
<!-- end -->
<g id="node6" class="node">
<title>end</title>
<polygon fill="none" stroke="#000000" points="166.1992,-36.3225 129.7687,-36.3225 129.7687,.1079 166.1992,.1079 166.1992,-36.3225"/>
<polyline fill="none" stroke="#000000" points="141.7687,-36.3225 129.7687,-24.3225 "/>
<polyline fill="none" stroke="#000000" points="129.7687,-11.8921 141.7687,.1079 "/>
<polyline fill="none" stroke="#000000" points="154.1992,.1079 166.1992,-11.8921 "/>
<polyline fill="none" stroke="#000000" points="166.1992,-24.3225 154.1992,-36.3225 "/>
<text text-anchor="middle" x="147.984" y="-13.9073" font-family="Times,serif" font-size="14.00" fill="#000000">end</text>
</g>
<!-- BB_002E1A44&#45;&gt;end -->
<g id="edge6" class="edge">
<title>BB_002E1A44-&gt;end</title>
<path fill="none" stroke="#000000" d="M147.984,-72.0189C147.984,-64.2477 147.984,-54.9956 147.984,-46.3686"/>
<polygon fill="#000000" stroke="#000000" points="151.4841,-46.2972 147.984,-36.2972 144.4841,-46.2972 151.4841,-46.2972"/>
</g>
</g>
</svg>