<?xml version="1.0" encoding="UTF-8" standalone="no"?><!DOCTYPE svg PUBLIC "-//W3C//DTD SVG 1.1//EN" "http://www.w3.org/Graphics/SVG/1.1/DTD/svg11.dtd"><!-- Generated by graphviz version 2.40.1 (20161225.0304)
 --><!-- Title: G Pages: 1 --><svg xmlns="http://www.w3.org/2000/svg" xmlns:xlink="http://www.w3.org/1999/xlink" width="380pt" height="798pt" viewBox="0.00 0.00 379.64 797.86">
<g id="graph0" class="graph" transform="scale(1 1) rotate(0) translate(4 793.8584)">
<title>G</title>
<polygon fill="#ffffff" stroke="transparent" points="-4,4 -4,-793.8584 375.6429,-793.8584 375.6429,4 -4,4"/>
<!-- start -->
<g id="node1" class="node">
<title>start</title>
<polygon fill="none" stroke="#000000" points="284.1268,-789.8584 244.8895,-771.8584 284.1268,-753.8584 323.3642,-771.8584 284.1268,-789.8584"/>
<polyline fill="none" stroke="#000000" points="255.7966,-776.862 255.7966,-766.8548 "/>
<polyline fill="none" stroke="#000000" points="273.2198,-758.862 295.0339,-758.862 "/>
<polyline fill="none" stroke="#000000" points="312.4571,-766.8548 312.4571,-776.862 "/>
<polyline fill="none" stroke="#000000" points="295.0339,-784.8548 273.2198,-784.8548 "/>
<text text-anchor="middle" x="284.1268" y="-767.6584" font-family="Times,serif" font-size="14.00" fill="#000000">start</text>
</g>
<!-- BB_002D52B0 -->
<g id="node2" class="node">
<title>BB_002D52B0</title>
<ellipse fill="none" stroke="#000000" cx="284.1268" cy="-699.8584" rx="71.2559" ry="18"/>
<text text-anchor="middle" x="284.1268" y="-695.6584" font-family="Times,serif" font-size="14.00" fill="#000000">BB_002D52B0</text>
</g>
<!-- start&#45;&gt;BB_002D52B0 -->
<g id="edge1" class="edge">
<title>start-&gt;BB_002D52B0</title>
<path fill="none" stroke="#000000" d="M284.1268,-753.6898C284.1268,-745.9894 284.1268,-736.8327 284.1268,-728.275"/>
<polygon fill="#000000" stroke="#000000" points="287.6269,-728.2716 284.1268,-718.2717 280.6269,-728.2717 287.6269,-728.2716"/>
</g>
<!-- BB_002D52F5 -->
<g id="node3" class="node">
<title>BB_002D52F5</title>
<ellipse fill="none" stroke="#000000" cx="235.1268" cy="-627.8584" rx="70.1118" ry="18"/>
<text text-anchor="middle" x="235.1268" y="-623.6584" font-family="Times,serif" font-size="14.00" fill="#000000">BB_002D52F5</text>
</g>
<!-- BB_002D52B0&#45;&gt;BB_002D52F5 -->
<g id="edge2" class="edge">
<title>BB_002D52B0-&gt;BB_002D52F5</title>
<path fill="none" stroke="#ff0000" d="M272.0145,-682.0606C266.3017,-673.6663 259.3694,-663.4802 253.0635,-654.2142"/>
<polygon fill="#ff0000" stroke="#ff0000" points="255.7895,-651.9989 247.2697,-645.7009 250.0025,-655.9373 255.7895,-651.9989"/>
</g>
<!-- BB_002D52FB -->
<g id="node4" class="node">
<title>BB_002D52FB</title>
<ellipse fill="none" stroke="#000000" cx="284.1268" cy="-555.8584" rx="71.8357" ry="18"/>
<text text-anchor="middle" x="284.1268" y="-551.6584" font-family="Times,serif" font-size="14.00" fill="#000000">BB_002D52FB</text>
</g>
<!-- BB_002D52B0&#45;&gt;BB_002D52FB -->
<g id="edge3" class="edge">
<title>BB_002D52B0-&gt;BB_002D52FB</title>
<path fill="none" stroke="#00ff00" d="M297.1691,-681.8611C303.6482,-671.8035 310.791,-658.7317 314.1268,-645.8584 318.1403,-630.3699 318.1403,-625.3469 314.1268,-609.8584 311.6771,-600.4045 307.1742,-590.8437 302.3888,-582.4482"/>
<polygon fill="#00ff00" stroke="#00ff00" points="305.3523,-580.5852 297.1691,-573.8557 299.3697,-584.2195 305.3523,-580.5852"/>
</g>
<!-- BB_002D52F5&#45;&gt;BB_002D52FB -->
<g id="edge4" class="edge">
<title>BB_002D52F5-&gt;BB_002D52FB</title>
<path fill="none" stroke="#0000ff" d="M247.2392,-610.0606C252.952,-601.6663 259.8843,-591.4802 266.1902,-582.2142"/>
<polygon fill="#0000ff" stroke="#0000ff" points="269.2512,-583.9373 271.984,-573.7009 263.4642,-579.9989 269.2512,-583.9373"/>
</g>
<!-- BB_002D5347 -->
<g id="node5" class="node">
<title>BB_002D5347</title>
<ellipse fill="none" stroke="#000000" cx="284.1268" cy="-483.8584" rx="69.5321" ry="18"/>
<text text-anchor="middle" x="284.1268" y="-479.6584" font-family="Times,serif" font-size="14.00" fill="#000000">BB_002D5347</text>
</g>
<!-- BB_002D52FB&#45;&gt;BB_002D5347 -->
<g id="edge5" class="edge">
<title>BB_002D52FB-&gt;BB_002D5347</title>
<path fill="none" stroke="#0000ff" d="M284.1268,-537.6898C284.1268,-529.9894 284.1268,-520.8327 284.1268,-512.275"/>
<polygon fill="#0000ff" stroke="#0000ff" points="287.6269,-512.2716 284.1268,-502.2717 280.6269,-512.2717 287.6269,-512.2716"/>
</g>
<!-- BB_002D5347&#45;&gt;BB_002D5347 -->
<g id="edge7" class="edge">
<title>BB_002D5347-&gt;BB_002D5347</title>
<path fill="none" stroke="#00ff00" d="M331.3925,-497.1203C352.9252,-498.4743 371.6429,-494.0537 371.6429,-483.8584 371.6429,-475.3358 358.5631,-470.8484 341.6931,-470.3964"/>
<polygon fill="#00ff00" stroke="#00ff00" points="341.3226,-466.9028 331.3925,-470.5965 341.4587,-473.9015 341.3226,-466.9028"/>
</g>
<!-- BB_002D5352 -->
<g id="node6" class="node">
<title>BB_002D5352</title>
<ellipse fill="none" stroke="#000000" cx="284.1268" cy="-411.8584" rx="69.5321" ry="18"/>
<text text-anchor="middle" x="284.1268" y="-407.6584" font-family="Times,serif" font-size="14.00" fill="#000000">BB_002D5352</text>
</g>
<!-- BB_002D5347&#45;&gt;BB_002D5352 -->
<g id="edge6" class="edge">
<title>BB_002D5347-&gt;BB_002D5352</title>
<path fill="none" stroke="#ff0000" d="M284.1268,-465.6898C284.1268,-457.9894 284.1268,-448.8327 284.1268,-440.275"/>
<polygon fill="#ff0000" stroke="#ff0000" points="287.6269,-440.2716 284.1268,-430.2717 280.6269,-440.2717 287.6269,-440.2716"/>
</g>
<!-- BB_002D5387 -->
<g id="node7" class="node">
<title>BB_002D5387</title>
<ellipse fill="none" stroke="#000000" cx="234.1268" cy="-339.8584" rx="69.5321" ry="18"/>
<text text-anchor="middle" x="234.1268" y="-335.6584" font-family="Times,serif" font-size="14.00" fill="#000000">BB_002D5387</text>
</g>
<!-- BB_002D5352&#45;&gt;BB_002D5387 -->
<g id="edge8" class="edge">
<title>BB_002D5352-&gt;BB_002D5387</title>
<path fill="none" stroke="#ff0000" d="M271.7673,-394.0606C265.8778,-385.5798 258.7182,-375.2699 252.2307,-365.928"/>
<polygon fill="#ff0000" stroke="#ff0000" points="255.0963,-363.9183 246.5175,-357.7009 249.3467,-367.9111 255.0963,-363.9183"/>
</g>
<!-- BB_002D53B5 -->
<g id="node8" class="node">
<title>BB_002D53B5</title>
<ellipse fill="none" stroke="#000000" cx="283.1268" cy="-107.0365" rx="71.2559" ry="18"/>
<text text-anchor="middle" x="283.1268" y="-102.8365" font-family="Times,serif" font-size="14.00" fill="#000000">BB_002D53B5</text>
</g>
<!-- BB_002D5352&#45;&gt;BB_002D53B5 -->
<g id="edge9" class="edge">
<title>BB_002D5352-&gt;BB_002D53B5</title>
<path fill="none" stroke="#00ff00" d="M296.6682,-393.7819C302.912,-383.7011 309.8193,-370.6325 313.1268,-357.8584 333.1809,-280.4076 331.976,-256.069 315.1268,-177.8584 311.8662,-162.7232 305.0992,-146.9269 298.6244,-134.1031"/>
<polygon fill="#00ff00" stroke="#00ff00" points="301.5518,-132.1508 293.7929,-124.9362 295.3593,-135.4146 301.5518,-132.1508"/>
</g>
<!-- BB_002D539B -->
<g id="node9" class="node">
<title>BB_002D539B</title>
<ellipse fill="none" stroke="#000000" cx="135.1268" cy="-267.8584" rx="71.2559" ry="18"/>
<text text-anchor="middle" x="135.1268" y="-263.6584" font-family="Times,serif" font-size="14.00" fill="#000000">BB_002D539B</text>
</g>
<!-- BB_002D5387&#45;&gt;BB_002D539B -->
<g id="edge10" class="edge">
<title>BB_002D5387-&gt;BB_002D539B</title>
<path fill="none" stroke="#ff0000" d="M210.6652,-322.7954C197.691,-313.3596 181.3803,-301.4973 167.2388,-291.2125"/>
<polygon fill="#ff0000" stroke="#ff0000" points="168.9091,-288.0996 158.7631,-285.0484 164.7919,-293.7608 168.9091,-288.0996"/>
</g>
<!-- BB_002D53AB -->
<g id="node10" class="node">
<title>BB_002D53AB</title>
<ellipse fill="none" stroke="#000000" cx="233.1268" cy="-195.8584" rx="73.0421" ry="18"/>
<text text-anchor="middle" x="233.1268" y="-191.6584" font-family="Times,serif" font-size="14.00" fill="#000000">BB_002D53AB</text>
</g>
<!-- BB_002D5387&#45;&gt;BB_002D53AB -->
<g id="edge11" class="edge">
<title>BB_002D5387-&gt;BB_002D53AB</title>
<path fill="none" stroke="#00ff00" d="M234.0002,-321.6207C233.8296,-297.0594 233.5244,-253.1058 233.3237,-224.2125"/>
<polygon fill="#00ff00" stroke="#00ff00" points="236.8219,-223.9234 233.2525,-213.948 229.8221,-223.9721 236.8219,-223.9234"/>
</g>
<!-- end -->
<g id="node12" class="node">
<title>end</title>
<polygon fill="none" stroke="#000000" points="301.3421,-36.3225 264.9116,-36.3225 264.9116,.1079 301.3421,.1079 301.3421,-36.3225"/>
<polyline fill="none" stroke="#000000" points="276.9116,-36.3225 264.9116,-24.3225 "/>
<polyline fill="none" stroke="#000000" points="264.9116,-11.8921 276.9116,.1079 "/>
<polyline fill="none" stroke="#000000" points="289.3421,.1079 301.3421,-11.8921 "/>
<polyline fill="none" stroke="#000000" points="301.3421,-24.3225 289.3421,-36.3225 "/>
<text text-anchor="middle" x="283.1268" y="-13.9073" font-family="Times,serif" font-size="14.00" fill="#000000">end</text>
</g>
<!-- BB_002D53B5&#45;&gt;end -->
<g id="edge15" class="edge">
<title>BB_002D53B5-&gt;end</title>
<path fill="none" stroke="#000000" d="M283.1268,-88.6103C283.1268,-76.5673 283.1268,-60.5896 283.1268,-46.8898"/>
<polygon fill="#000000" stroke="#000000" points="286.6269,-46.5098 283.1268,-36.5099 279.6269,-46.5099 286.6269,-46.5098"/>
</g>
<!-- BB_002D539B&#45;&gt;BB_002D53AB -->
<g id="edge12" class="edge">
<title>BB_002D539B-&gt;BB_002D53AB</title>
<path fill="none" stroke="#ff0000" d="M158.3515,-250.7954C171.1947,-241.3596 187.3406,-229.4973 201.3393,-219.2125"/>
<polygon fill="#ff0000" stroke="#ff0000" points="203.7427,-221.7898 209.7293,-213.0484 199.5982,-216.1486 203.7427,-221.7898"/>
</g>
<!-- BB_002D53EF -->
<g id="node11" class="node">
<title>BB_002D53EF</title>
<ellipse fill="none" stroke="#000000" cx="71.1268" cy="-195.8584" rx="71.2539" ry="18"/>
<text text-anchor="middle" x="71.1268" y="-191.6584" font-family="Times,serif" font-size="14.00" fill="#000000">BB_002D53EF</text>
</g>
<!-- BB_002D539B&#45;&gt;BB_002D53EF -->
<g id="edge13" class="edge">
<title>BB_002D539B-&gt;BB_002D53EF</title>
<path fill="none" stroke="#00ff00" d="M119.3066,-250.0606C111.5564,-241.3416 102.0878,-230.6895 93.6024,-221.1433"/>
<polygon fill="#00ff00" stroke="#00ff00" points="96.0247,-218.6003 86.7651,-213.4514 90.7928,-223.2508 96.0247,-218.6003"/>
</g>
<!-- BB_002D53AB&#45;&gt;BB_002D53B5 -->
<g id="edge14" class="edge">
<title>BB_002D53AB-&gt;BB_002D53B5</title>
<path fill="none" stroke="#0000ff" d="M243.2451,-177.884C250.3611,-165.2428 260.0063,-148.1086 268.0289,-133.8571"/>
<polygon fill="#0000ff" stroke="#0000ff" points="271.1681,-135.4153 273.0236,-124.9842 265.0682,-131.9815 271.1681,-135.4153"/>
</g>
<!-- dead_end -->
<g id="node13" class="node">
<title>dead_end</title>
<polygon fill="none" stroke="#000000" points="105.7716,-141.6812 36.4821,-141.6812 36.4821,-72.3918 105.7716,-72.3918 105.7716,-141.6812"/>
<polyline fill="none" stroke="#000000" points="48.4821,-141.6812 36.4821,-129.6812 "/>
<polyline fill="none" stroke="#000000" points="36.4821,-84.3918 48.4821,-72.3918 "/>
<polyline fill="none" stroke="#000000" points="93.7716,-72.3918 105.7716,-84.3918 "/>
<polyline fill="none" stroke="#000000" points="105.7716,-129.6812 93.7716,-141.6812 "/>
<text text-anchor="middle" x="71.1268" y="-102.8365" font-family="Times,serif" font-size="14.00" fill="#000000">dead_end</text>
</g>
<!-- BB_002D53EF&#45;&gt;dead_end -->
<g id="edge16" class="edge">
<title>BB_002D53EF-&gt;dead_end</title>
<path fill="none" stroke="#000000" d="M71.1268,-177.4544C71.1268,-169.9968 71.1268,-161.0284 71.1268,-152.0283"/>
<polygon fill="#000000" stroke="#000000" points="74.6269,-151.9321 71.1268,-141.9321 67.6269,-151.9322 74.6269,-151.9321"/>
</g>
</g>
</svg>