<?xml version="1.0" encoding="UTF-8" standalone="no"?><!DOCTYPE svg PUBLIC "-//W3C//DTD SVG 1.1//EN" "http://www.w3.org/Graphics/SVG/1.1/DTD/svg11.dtd"><!-- Generated by graphviz version 2.40.1 (20161225.0304)
 --><!-- Title: G Pages: 1 --><svg xmlns="http://www.w3.org/2000/svg" xmlns:xlink="http://www.w3.org/1999/xlink" width="320pt" height="438pt" viewBox="0.00 0.00 320.07 437.64">
<g id="graph0" class="graph" transform="scale(1 1) rotate(0) translate(4 433.6438)">
<title>G</title>
<polygon fill="#ffffff" stroke="transparent" points="-4,4 -4,-433.6438 316.0725,-433.6438 316.0725,4 -4,4"/>
<!-- start -->
<g id="node1" class="node">
<title>start</title>
<polygon fill="none" stroke="#000000" points="155.2707,-429.6438 116.0334,-411.6438 155.2707,-393.6438 194.508,-411.6438 155.2707,-429.6438"/>
<polyline fill="none" stroke="#000000" points="126.9404,-416.6474 126.9404,-406.6402 "/>
<polyline fill="none" stroke="#000000" points="144.3636,-398.6474 166.1778,-398.6474 "/>
<polyline fill="none" stroke="#000000" points="183.6009,-406.6402 183.6009,-416.6474 "/>
<polyline fill="none" stroke="#000000" points="166.1778,-424.6402 144.3636,-424.6402 "/>
<text text-anchor="middle" x="155.2707" y="-407.4438" font-family="Times,serif" font-size="14.00" fill="#000000">start</text>
</g>
<!-- BB_002D2410 -->
<g id="node2" class="node">
<title>BB_002D2410</title>
<ellipse fill="none" stroke="#000000" cx="155.2707" cy="-339.6438" rx="69.5321" ry="18"/>
<text text-anchor="middle" x="155.2707" y="-335.4438" font-family="Times,serif" font-size="14.00" fill="#000000">BB_002D2410</text>
</g>
<!-- start&#45;&gt;BB_002D2410 -->
<g id="edge1" class="edge">
<title>start-&gt;BB_002D2410</title>
<path fill="none" stroke="#000000" d="M155.2707,-393.4752C155.2707,-385.7748 155.2707,-376.6181 155.2707,-368.0604"/>
<polygon fill="#000000" stroke="#000000" points="158.7708,-368.057 155.2707,-358.0571 151.7708,-368.0571 158.7708,-368.057"/>
</g>
<!-- BB_002D2457 -->
<g id="node3" class="node">
<title>BB_002D2457</title>
<ellipse fill="none" stroke="#000000" cx="76.2707" cy="-267.6438" rx="69.5321" ry="18"/>
<text text-anchor="middle" x="76.2707" y="-263.4438" font-family="Times,serif" font-size="14.00" fill="#000000">BB_002D2457</text>
</g>
<!-- BB_002D2410&#45;&gt;BB_002D2457 -->
<g id="edge2" class="edge">
<title>BB_002D2410-&gt;BB_002D2457</title>
<path fill="none" stroke="#ff0000" d="M136.147,-322.2146C126.2256,-313.1724 113.9425,-301.9776 103.0886,-292.0855"/>
<polygon fill="#ff0000" stroke="#ff0000" points="105.2407,-289.3113 95.4921,-285.162 100.5254,-294.4849 105.2407,-289.3113"/>
</g>
<!-- BB_002D245E -->
<g id="node4" class="node">
<title>BB_002D245E</title>
<ellipse fill="none" stroke="#000000" cx="234.2707" cy="-267.6438" rx="70.6742" ry="18"/>
<text text-anchor="middle" x="234.2707" y="-263.4438" font-family="Times,serif" font-size="14.00" fill="#000000">BB_002D245E</text>
</g>
<!-- BB_002D2410&#45;&gt;BB_002D245E -->
<g id="edge3" class="edge">
<title>BB_002D2410-&gt;BB_002D245E</title>
<path fill="none" stroke="#00ff00" d="M174.3944,-322.2146C184.3157,-313.1724 196.5988,-301.9776 207.4527,-292.0855"/>
<polygon fill="#00ff00" stroke="#00ff00" points="210.016,-294.4849 215.0493,-285.162 205.3007,-289.3113 210.016,-294.4849"/>
</g>
<!-- BB_002D2460 -->
<g id="node5" class="node">
<title>BB_002D2460</title>
<ellipse fill="none" stroke="#000000" cx="155.2707" cy="-195.6438" rx="69.5321" ry="18"/>
<text text-anchor="middle" x="155.2707" y="-191.4438" font-family="Times,serif" font-size="14.00" fill="#000000">BB_002D2460</text>
</g>
<!-- BB_002D2457&#45;&gt;BB_002D2460 -->
<g id="edge4" class="edge">
<title>BB_002D2457-&gt;BB_002D2460</title>
<path fill="none" stroke="#0000ff" d="M95.3944,-250.2146C105.3157,-241.1724 117.5988,-229.9776 128.4527,-220.0855"/>
<polygon fill="#0000ff" stroke="#0000ff" points="131.016,-222.4849 136.0493,-213.162 126.3007,-217.3113 131.016,-222.4849"/>
</g>
<!-- BB_002D245E&#45;&gt;BB_002D2460 -->
<g id="edge5" class="edge">
<title>BB_002D245E-&gt;BB_002D2460</title>
<path fill="none" stroke="#0000ff" d="M215.147,-250.2146C205.2256,-241.1724 192.9425,-229.9776 182.0886,-220.0855"/>
<polygon fill="#0000ff" stroke="#0000ff" points="184.2407,-217.3113 174.4921,-213.162 179.5254,-222.4849 184.2407,-217.3113"/>
</g>
<!-- BB_002D24BA -->
<g id="node6" class="node">
<title>BB_002D24BA</title>
<ellipse fill="none" stroke="#000000" cx="73.2707" cy="-123.6438" rx="73.0421" ry="18"/>
<text text-anchor="middle" x="73.2707" y="-119.4438" font-family="Times,serif" font-size="14.00" fill="#000000">BB_002D24BA</text>
</g>
<!-- BB_002D2460&#45;&gt;BB_002D24BA -->
<g id="edge6" class="edge">
<title>BB_002D2460-&gt;BB_002D24BA</title>
<path fill="none" stroke="#ff0000" d="M135.4208,-178.2146C125.0227,-169.0846 112.1253,-157.7601 100.7793,-147.7977"/>
<polygon fill="#ff0000" stroke="#ff0000" points="103.0458,-145.13 93.222,-141.162 98.4271,-150.3901 103.0458,-145.13"/>
</g>
<!-- BB_002D24DD -->
<g id="node7" class="node">
<title>BB_002D24DD</title>
<ellipse fill="none" stroke="#000000" cx="238.2707" cy="-123.6438" rx="73.6042" ry="18"/>
<text text-anchor="middle" x="238.2707" y="-119.4438" font-family="Times,serif" font-size="14.00" fill="#000000">BB_002D24DD</text>
</g>
<!-- BB_002D2460&#45;&gt;BB_002D24DD -->
<g id="edge7" class="edge">
<title>BB_002D2460-&gt;BB_002D24DD</title>
<path fill="none" stroke="#00ff00" d="M175.3627,-178.2146C185.8876,-169.0846 198.9422,-157.7601 210.4266,-147.7977"/>
<polygon fill="#00ff00" stroke="#00ff00" points="212.8156,-150.3587 218.0761,-141.162 208.2287,-145.071 212.8156,-150.3587"/>
</g>
<!-- end -->
<g id="node8" class="node">
<title>end</title>
<polygon fill="none" stroke="#000000" points="91.4859,-53.0371 55.0554,-53.0371 55.0554,-16.6067 91.4859,-16.6067 91.4859,-53.0371"/>
<polyline fill="none" stroke="#000000" points="67.0554,-53.0371 55.0554,-41.0371 "/>
<polyline fill="none" stroke="#000000" points="55.0554,-28.6067 67.0554,-16.6067 "/>
<polyline fill="none" stroke="#000000" points="79.4859,-16.6067 91.4859,-28.6067 "/>
<polyline fill="none" stroke="#000000" points="91.4859,-41.0371 79.4859,-53.0371 "/>
<text text-anchor="middle" x="73.2707" y="-30.6219" font-family="Times,serif" font-size="14.00" fill="#000000">end</text>
</g>
<!-- BB_002D24BA&#45;&gt;end -->
<g id="edge8" class="edge">
<title>BB_002D24BA-&gt;end</title>
<path fill="none" stroke="#000000" d="M73.2707,-105.2398C73.2707,-93.2114 73.2707,-77.2529 73.2707,-63.5696"/>
<polygon fill="#000000" stroke="#000000" points="76.7708,-63.2022 73.2707,-53.2023 69.7708,-63.2023 76.7708,-63.2022"/>
</g>
<!-- dead_end -->
<g id="node9" class="node">
<title>dead_end</title>
<polygon fill="none" stroke="#000000" points="272.9154,-69.4666 203.626,-69.4666 203.626,-.1772 272.9154,-.1772 272.9154,-69.4666"/>
<polyline fill="none" stroke="#000000" points="215.626,-69.4666 203.626,-57.4666 "/>
<polyline fill="none" stroke="#000000" points="203.626,-12.1772 215.626,-.1772 "/>
<polyline fill="none" stroke="#000000" points="260.9154,-.1772 272.9154,-12.1772 "/>
<polyline fill="none" stroke="#000000" points="272.9154,-57.4666 260.9154,-69.4666 "/>
<text text-anchor="middle" x="238.2707" y="-30.6219" font-family="Times,serif" font-size="14.00" fill="#000000">dead_end</text>
</g>
<!-- BB_002D24DD&#45;&gt;dead_end -->
<g id="edge9" class="edge">
<title>BB_002D24DD-&gt;dead_end</title>
<path fill="none" stroke="#000000" d="M238.2707,-105.2398C238.2707,-97.7822 238.2707,-88.8138 238.2707,-79.8137"/>
<polygon fill="#000000" stroke="#000000" points="241.7708,-79.7175 238.2707,-69.7175 234.7708,-79.7176 241.7708,-79.7175"/>
</g>
</g>
</svg>