<?xml version="1.0" encoding="UTF-8" standalone="no"?><!DOCTYPE svg PUBLIC "-//W3C//DTD SVG 1.1//EN" "http://www.w3.org/Graphics/SVG/1.1/DTD/svg11.dtd"><!-- Generated by graphviz version 2.40.1 (20161225.0304)
 --><!-- Title: G Pages: 1 --><svg xmlns="http://www.w3.org/2000/svg" xmlns:xlink="http://www.w3.org/1999/xlink" width="279pt" height="764pt" viewBox="0.00 0.00 279.32 764.21">
<g id="graph0" class="graph" transform="scale(1 1) rotate(0) translate(4 760.2146)">
<title>G</title>
<polygon fill="#ffffff" stroke="transparent" points="-4,4 -4,-760.2146 275.3179,-760.2146 275.3179,4 -4,4"/>
<!-- start -->
<g id="node1" class="node">
<title>start</title>
<polygon fill="none" stroke="#000000" points="199.6589,-756.2146 160.4216,-738.2146 199.6589,-720.2146 238.8963,-738.2146 199.6589,-756.2146"/>
<polyline fill="none" stroke="#000000" points="171.3287,-743.2182 171.3287,-733.211 "/>
<polyline fill="none" stroke="#000000" points="188.7519,-725.2182 210.566,-725.2182 "/>
<polyline fill="none" stroke="#000000" points="227.9892,-733.211 227.9892,-743.2182 "/>
<polyline fill="none" stroke="#000000" points="210.566,-751.211 188.7519,-751.211 "/>
<text text-anchor="middle" x="199.6589" y="-734.0146" font-family="Times,serif" font-size="14.00" fill="#000000">start</text>
</g>
<!-- BB_002D4A00 -->
<g id="node2" class="node">
<title>BB_002D4A00</title>
<ellipse fill="none" stroke="#000000" cx="199.6589" cy="-666.2146" rx="71.8182" ry="18"/>
<text text-anchor="middle" x="199.6589" y="-662.0146" font-family="Times,serif" font-size="14.00" fill="#000000">BB_002D4A00</text>
</g>
<!-- start&#45;&gt;BB_002D4A00 -->
<g id="edge1" class="edge">
<title>start-&gt;BB_002D4A00</title>
<path fill="none" stroke="#000000" d="M199.6589,-720.046C199.6589,-712.3456 199.6589,-703.1889 199.6589,-694.6312"/>
<polygon fill="#000000" stroke="#000000" points="203.159,-694.6278 199.6589,-684.6279 196.159,-694.6279 203.159,-694.6278"/>
</g>
<!-- BB_002D4A23 -->
<g id="node3" class="node">
<title>BB_002D4A23</title>
<ellipse fill="none" stroke="#000000" cx="130.6589" cy="-594.2146" rx="71.8182" ry="18"/>
<text text-anchor="middle" x="130.6589" y="-590.0146" font-family="Times,serif" font-size="14.00" fill="#000000">BB_002D4A23</text>
</g>
<!-- BB_002D4A00&#45;&gt;BB_002D4A23 -->
<g id="edge2" class="edge">
<title>BB_002D4A00-&gt;BB_002D4A23</title>
<path fill="none" stroke="#ff0000" d="M182.6028,-648.4168C174.1635,-639.6106 163.8344,-628.8325 154.6162,-619.2135"/>
<polygon fill="#ff0000" stroke="#ff0000" points="156.965,-616.6059 147.5189,-611.8076 151.911,-621.4492 156.965,-616.6059"/>
</g>
<!-- BB_002D4A4E -->
<g id="node4" class="node">
<title>BB_002D4A4E</title>
<ellipse fill="none" stroke="#000000" cx="130.6589" cy="-234.2146" rx="72.9605" ry="18"/>
<text text-anchor="middle" x="130.6589" y="-230.0146" font-family="Times,serif" font-size="14.00" fill="#000000">BB_002D4A4E</text>
</g>
<!-- BB_002D4A00&#45;&gt;BB_002D4A4E -->
<g id="edge3" class="edge">
<title>BB_002D4A00-&gt;BB_002D4A4E</title>
<path fill="none" stroke="#00ff00" d="M210.2627,-648.2709C224.9397,-621.6896 249.6589,-569.8501 249.6589,-522.2146 249.6589,-522.2146 249.6589,-522.2146 249.6589,-378.2146 249.6589,-335.1333 240.9904,-321.5161 213.6589,-288.2146 202.8209,-275.0091 187.8901,-263.9189 173.6773,-255.2916"/>
<polygon fill="#00ff00" stroke="#00ff00" points="175.3706,-252.2276 164.9636,-250.2412 171.8604,-258.2839 175.3706,-252.2276"/>
</g>
<!-- BB_002D4A23&#45;&gt;BB_002D4A4E -->
<g id="edge5" class="edge">
<title>BB_002D4A23-&gt;BB_002D4A4E</title>
<path fill="none" stroke="#00ff00" d="M97.7152,-578.1477C81.5031,-568.8973 62.6945,-555.9717 49.6589,-540.2146 21.9823,-506.7596 11.6589,-493.6339 11.6589,-450.2146 11.6589,-450.2146 11.6589,-450.2146 11.6589,-378.2146 11.6589,-335.1333 20.3275,-321.5161 47.6589,-288.2146 58.497,-275.0091 73.4277,-263.9189 87.6406,-255.2916"/>
<polygon fill="#00ff00" stroke="#00ff00" points="89.4575,-258.2839 96.3543,-250.2412 85.9473,-252.2276 89.4575,-258.2839"/>
</g>
<!-- BB_002D4A28 -->
<g id="node5" class="node">
<title>BB_002D4A28</title>
<ellipse fill="none" stroke="#000000" cx="130.6589" cy="-522.2146" rx="71.8182" ry="18"/>
<text text-anchor="middle" x="130.6589" y="-518.0146" font-family="Times,serif" font-size="14.00" fill="#000000">BB_002D4A28</text>
</g>
<!-- BB_002D4A23&#45;&gt;BB_002D4A28 -->
<g id="edge4" class="edge">
<title>BB_002D4A23-&gt;BB_002D4A28</title>
<path fill="none" stroke="#ff0000" d="M130.6589,-576.046C130.6589,-568.3456 130.6589,-559.1889 130.6589,-550.6312"/>
<polygon fill="#ff0000" stroke="#ff0000" points="134.159,-550.6278 130.6589,-540.6279 127.159,-550.6279 134.159,-550.6278"/>
</g>
<!-- BB_002D4A52 -->
<g id="node9" class="node">
<title>BB_002D4A52</title>
<ellipse fill="none" stroke="#000000" cx="71.6589" cy="-162.2146" rx="71.8182" ry="18"/>
<text text-anchor="middle" x="71.6589" y="-158.0146" font-family="Times,serif" font-size="14.00" fill="#000000">BB_002D4A52</text>
</g>
<!-- BB_002D4A4E&#45;&gt;BB_002D4A52 -->
<g id="edge12" class="edge">
<title>BB_002D4A4E-&gt;BB_002D4A52</title>
<path fill="none" stroke="#ff0000" d="M116.0747,-216.4168C109.0541,-207.8494 100.5042,-197.4155 92.7874,-187.9985"/>
<polygon fill="#ff0000" stroke="#ff0000" points="95.3254,-185.5736 86.2799,-180.0571 89.911,-190.0103 95.3254,-185.5736"/>
</g>
<!-- BB_002D4A5D -->
<g id="node10" class="node">
<title>BB_002D4A5D</title>
<ellipse fill="none" stroke="#000000" cx="130.6589" cy="-90.2146" rx="73.6042" ry="18"/>
<text text-anchor="middle" x="130.6589" y="-86.0146" font-family="Times,serif" font-size="14.00" fill="#000000">BB_002D4A5D</text>
</g>
<!-- BB_002D4A4E&#45;&gt;BB_002D4A5D -->
<g id="edge13" class="edge">
<title>BB_002D4A4E-&gt;BB_002D4A5D</title>
<path fill="none" stroke="#00ff00" d="M148.3975,-216.4276C156.9045,-206.6287 166.1981,-193.7311 170.6589,-180.2146 175.6734,-165.0207 175.6734,-159.4085 170.6589,-144.2146 167.3133,-134.0772 161.2493,-124.288 154.8375,-115.893"/>
<polygon fill="#00ff00" stroke="#00ff00" points="157.4318,-113.5363 148.3975,-108.0016 152.0085,-117.9621 157.4318,-113.5363"/>
</g>
<!-- BB_002D4A35 -->
<g id="node6" class="node">
<title>BB_002D4A35</title>
<ellipse fill="none" stroke="#000000" cx="149.6589" cy="-450.2146" rx="71.8182" ry="18"/>
<text text-anchor="middle" x="149.6589" y="-446.0146" font-family="Times,serif" font-size="14.00" fill="#000000">BB_002D4A35</text>
</g>
<!-- BB_002D4A28&#45;&gt;BB_002D4A35 -->
<g id="edge6" class="edge">
<title>BB_002D4A28-&gt;BB_002D4A35</title>
<path fill="none" stroke="#ff0000" d="M135.4534,-504.046C137.5078,-496.2609 139.955,-486.9875 142.2345,-478.3493"/>
<polygon fill="#ff0000" stroke="#ff0000" points="145.6324,-479.1899 144.7999,-468.6279 138.8641,-477.4038 145.6324,-479.1899"/>
</g>
<!-- BB_002D4A39 -->
<g id="node7" class="node">
<title>BB_002D4A39</title>
<ellipse fill="none" stroke="#000000" cx="111.6589" cy="-378.2146" rx="71.8182" ry="18"/>
<text text-anchor="middle" x="111.6589" y="-374.0146" font-family="Times,serif" font-size="14.00" fill="#000000">BB_002D4A39</text>
</g>
<!-- BB_002D4A28&#45;&gt;BB_002D4A39 -->
<g id="edge7" class="edge">
<title>BB_002D4A28-&gt;BB_002D4A39</title>
<path fill="none" stroke="#00ff00" d="M102.4406,-505.6547C89.5873,-496.4302 75.6956,-483.6748 68.6589,-468.2146 62.0308,-453.652 63.3799,-447.3186 68.6589,-432.2146 72.3146,-421.7553 78.9381,-411.8076 85.909,-403.3662"/>
<polygon fill="#00ff00" stroke="#00ff00" points="88.6223,-405.5813 92.6134,-395.767 83.3731,-400.9503 88.6223,-405.5813"/>
</g>
<!-- BB_002D4A35&#45;&gt;BB_002D4A39 -->
<g id="edge8" class="edge">
<title>BB_002D4A35-&gt;BB_002D4A39</title>
<path fill="none" stroke="#ff0000" d="M140.0699,-432.046C135.7619,-423.8834 130.5903,-414.0846 125.847,-405.0973"/>
<polygon fill="#ff0000" stroke="#ff0000" points="128.8762,-403.3382 121.1132,-396.128 122.6855,-406.6055 128.8762,-403.3382"/>
</g>
<!-- BB_002D4A4D -->
<g id="node8" class="node">
<title>BB_002D4A4D</title>
<ellipse fill="none" stroke="#000000" cx="130.6589" cy="-306.2146" rx="73.6042" ry="18"/>
<text text-anchor="middle" x="130.6589" y="-302.0146" font-family="Times,serif" font-size="14.00" fill="#000000">BB_002D4A4D</text>
</g>
<!-- BB_002D4A35&#45;&gt;BB_002D4A4D -->
<g id="edge9" class="edge">
<title>BB_002D4A35-&gt;BB_002D4A4D</title>
<path fill="none" stroke="#00ff00" d="M168.7045,-432.6622C177.8431,-422.9276 187.835,-410.0166 192.6589,-396.2146 197.938,-381.1106 199.2871,-374.7772 192.6589,-360.2146 187.1532,-348.118 177.4508,-337.6774 167.3329,-329.2883"/>
<polygon fill="#00ff00" stroke="#00ff00" points="169.2552,-326.3507 159.2016,-323.0078 164.9763,-331.8906 169.2552,-326.3507"/>
</g>
<!-- BB_002D4A39&#45;&gt;BB_002D4A4D -->
<g id="edge10" class="edge">
<title>BB_002D4A39-&gt;BB_002D4A4D</title>
<path fill="none" stroke="#0000ff" d="M116.4534,-360.046C118.5078,-352.2609 120.955,-342.9875 123.2345,-334.3493"/>
<polygon fill="#0000ff" stroke="#0000ff" points="126.6324,-335.1899 125.7999,-324.6279 119.8641,-333.4038 126.6324,-335.1899"/>
</g>
<!-- BB_002D4A4D&#45;&gt;BB_002D4A4E -->
<g id="edge11" class="edge">
<title>BB_002D4A4D-&gt;BB_002D4A4E</title>
<path fill="none" stroke="#0000ff" d="M130.6589,-288.046C130.6589,-280.3456 130.6589,-271.1889 130.6589,-262.6312"/>
<polygon fill="#0000ff" stroke="#0000ff" points="134.159,-262.6278 130.6589,-252.6279 127.159,-262.6279 134.159,-262.6278"/>
</g>
<!-- BB_002D4A52&#45;&gt;BB_002D4A52 -->
<g id="edge15" class="edge">
<title>BB_002D4A52-&gt;BB_002D4A52</title>
<path fill="none" stroke="#00ff00" d="M120.538,-175.5037C142.4055,-176.7693 161.3179,-172.3396 161.3179,-162.2146 161.3179,-153.7507 148.102,-149.2667 130.9918,-148.7625"/>
<polygon fill="#00ff00" stroke="#00ff00" points="130.4821,-145.2699 120.538,-148.9255 130.5913,-152.2691 130.4821,-145.2699"/>
</g>
<!-- BB_002D4A52&#45;&gt;BB_002D4A5D -->
<g id="edge14" class="edge">
<title>BB_002D4A52-&gt;BB_002D4A5D</title>
<path fill="none" stroke="#ff0000" d="M86.2432,-144.4168C93.2637,-135.8494 101.8137,-125.4155 109.5305,-115.9985"/>
<polygon fill="#ff0000" stroke="#ff0000" points="112.4069,-118.0103 116.038,-108.0571 106.9925,-113.5736 112.4069,-118.0103"/>
</g>
<!-- end -->
<g id="node11" class="node">
<title>end</title>
<polygon fill="none" stroke="#000000" points="148.8742,-36.3225 112.4437,-36.3225 112.4437,.1079 148.8742,.1079 148.8742,-36.3225"/>
<polyline fill="none" stroke="#000000" points="124.4437,-36.3225 112.4437,-24.3225 "/>
<polyline fill="none" stroke="#000000" points="112.4437,-11.8921 124.4437,.1079 "/>
<polyline fill="none" stroke="#000000" points="136.8742,.1079 148.8742,-11.8921 "/>
<polyline fill="none" stroke="#000000" points="148.8742,-24.3225 136.8742,-36.3225 "/>
<text text-anchor="middle" x="130.6589" y="-13.9073" font-family="Times,serif" font-size="14.00" fill="#000000">end</text>
</g>
<!-- BB_002D4A5D&#45;&gt;end -->
<g id="edge16" class="edge">
<title>BB_002D4A5D-&gt;end</title>
<path fill="none" stroke="#000000" d="M130.6589,-72.0189C130.6589,-64.2477 130.6589,-54.9956 130.6589,-46.3686"/>
<polygon fill="#000000" stroke="#000000" points="134.159,-46.2972 130.6589,-36.2972 127.159,-46.2972 134.159,-46.2972"/>
</g>
</g>
</svg>