<?xml version="1.0" encoding="UTF-8" standalone="no"?><!DOCTYPE svg PUBLIC "-//W3C//DTD SVG 1.1//EN" "http://www.w3.org/Graphics/SVG/1.1/DTD/svg11.dtd"><!-- Generated by graphviz version 2.40.1 (20161225.0304)
 --><!-- Title: G Pages: 1 --><svg xmlns="http://www.w3.org/2000/svg" xmlns:xlink="http://www.w3.org/1999/xlink" width="200pt" height="476pt" viewBox="0.00 0.00 200.33 476.21">
<g id="graph0" class="graph" transform="scale(1 1) rotate(0) translate(4 472.2146)">
<title>G</title>
<polygon fill="#ffffff" stroke="transparent" points="-4,4 -4,-472.2146 196.3256,-472.2146 196.3256,4 -4,4"/>
<!-- start -->
<g id="node1" class="node">
<title>start</title>
<polygon fill="none" stroke="#000000" points="120.1268,-468.2146 80.8895,-450.2146 120.1268,-432.2146 159.3642,-450.2146 120.1268,-468.2146"/>
<polyline fill="none" stroke="#000000" points="91.7966,-455.2182 91.7966,-445.211 "/>
<polyline fill="none" stroke="#000000" points="109.2198,-437.2182 131.0339,-437.2182 "/>
<polyline fill="none" stroke="#000000" points="148.4571,-445.211 148.4571,-455.2182 "/>
<polyline fill="none" stroke="#000000" points="131.0339,-463.211 109.2198,-463.211 "/>
<text text-anchor="middle" x="120.1268" y="-446.0146" font-family="Times,serif" font-size="14.00" fill="#000000">start</text>
</g>
<!-- BB_002DF520 -->
<g id="node2" class="node">
<title>BB_002DF520</title>
<ellipse fill="none" stroke="#000000" cx="120.1268" cy="-378.2146" rx="70.1118" ry="18"/>
<text text-anchor="middle" x="120.1268" y="-374.0146" font-family="Times,serif" font-size="14.00" fill="#000000">BB_002DF520</text>
</g>
<!-- start&#45;&gt;BB_002DF520 -->
<g id="edge1" class="edge">
<title>start-&gt;BB_002DF520</title>
<path fill="none" stroke="#000000" d="M120.1268,-432.046C120.1268,-424.3456 120.1268,-415.1889 120.1268,-406.6312"/>
<polygon fill="#000000" stroke="#000000" points="123.6269,-406.6278 120.1268,-396.6279 116.6269,-406.6279 123.6269,-406.6278"/>
</g>
<!-- BB_002DF613 -->
<g id="node3" class="node">
<title>BB_002DF613</title>
<ellipse fill="none" stroke="#000000" cx="71.1268" cy="-306.2146" rx="70.1118" ry="18"/>
<text text-anchor="middle" x="71.1268" y="-302.0146" font-family="Times,serif" font-size="14.00" fill="#000000">BB_002DF613</text>
</g>
<!-- BB_002DF520&#45;&gt;BB_002DF613 -->
<g id="edge2" class="edge">
<title>BB_002DF520-&gt;BB_002DF613</title>
<path fill="none" stroke="#ff0000" d="M108.0145,-360.4168C102.3017,-352.0225 95.3694,-341.8364 89.0635,-332.5704"/>
<polygon fill="#ff0000" stroke="#ff0000" points="91.7895,-330.3551 83.2697,-324.0571 86.0025,-334.2935 91.7895,-330.3551"/>
</g>
<!-- BB_002DF61A -->
<g id="node4" class="node">
<title>BB_002DF61A</title>
<ellipse fill="none" stroke="#000000" cx="120.1268" cy="-234.2146" rx="72.3981" ry="18"/>
<text text-anchor="middle" x="120.1268" y="-230.0146" font-family="Times,serif" font-size="14.00" fill="#000000">BB_002DF61A</text>
</g>
<!-- BB_002DF520&#45;&gt;BB_002DF61A -->
<g id="edge3" class="edge">
<title>BB_002DF520-&gt;BB_002DF61A</title>
<path fill="none" stroke="#00ff00" d="M133.1691,-360.2173C139.6482,-350.1597 146.791,-337.0879 150.1268,-324.2146 154.1403,-308.7261 154.1403,-303.7031 150.1268,-288.2146 147.6771,-278.7607 143.1742,-269.1999 138.3888,-260.8044"/>
<polygon fill="#00ff00" stroke="#00ff00" points="141.3523,-258.9414 133.1691,-252.2119 135.3697,-262.5757 141.3523,-258.9414"/>
</g>
<!-- BB_002DF613&#45;&gt;BB_002DF61A -->
<g id="edge4" class="edge">
<title>BB_002DF613-&gt;BB_002DF61A</title>
<path fill="none" stroke="#0000ff" d="M83.2392,-288.4168C88.952,-280.0225 95.8843,-269.8364 102.1902,-260.5704"/>
<polygon fill="#0000ff" stroke="#0000ff" points="105.2512,-262.2935 107.984,-252.0571 99.4642,-258.3551 105.2512,-262.2935"/>
</g>
<!-- BB_002DF61E -->
<g id="node5" class="node">
<title>BB_002DF61E</title>
<ellipse fill="none" stroke="#000000" cx="71.1268" cy="-162.2146" rx="71.2539" ry="18"/>
<text text-anchor="middle" x="71.1268" y="-158.0146" font-family="Times,serif" font-size="14.00" fill="#000000">BB_002DF61E</text>
</g>
<!-- BB_002DF61A&#45;&gt;BB_002DF61E -->
<g id="edge5" class="edge">
<title>BB_002DF61A-&gt;BB_002DF61E</title>
<path fill="none" stroke="#ff0000" d="M108.0145,-216.4168C102.3017,-208.0225 95.3694,-197.8364 89.0635,-188.5704"/>
<polygon fill="#ff0000" stroke="#ff0000" points="91.7895,-186.3551 83.2697,-180.0571 86.0025,-190.2935 91.7895,-186.3551"/>
</g>
<!-- BB_002DF625 -->
<g id="node6" class="node">
<title>BB_002DF625</title>
<ellipse fill="none" stroke="#000000" cx="120.1268" cy="-90.2146" rx="70.1118" ry="18"/>
<text text-anchor="middle" x="120.1268" y="-86.0146" font-family="Times,serif" font-size="14.00" fill="#000000">BB_002DF625</text>
</g>
<!-- BB_002DF61A&#45;&gt;BB_002DF625 -->
<g id="edge6" class="edge">
<title>BB_002DF61A-&gt;BB_002DF625</title>
<path fill="none" stroke="#00ff00" d="M133.5987,-216.2799C140.2924,-206.2407 147.6735,-193.1665 151.1268,-180.2146 155.2489,-164.7547 155.2489,-159.6745 151.1268,-144.2146 148.5908,-134.703 143.9364,-125.1255 138.9917,-116.7325"/>
<polygon fill="#00ff00" stroke="#00ff00" points="141.8825,-114.7545 133.5987,-108.1493 135.9554,-118.4787 141.8825,-114.7545"/>
</g>
<!-- BB_002DF61E&#45;&gt;BB_002DF625 -->
<g id="edge7" class="edge">
<title>BB_002DF61E-&gt;BB_002DF625</title>
<path fill="none" stroke="#0000ff" d="M83.2392,-144.4168C88.952,-136.0225 95.8843,-125.8364 102.1902,-116.5704"/>
<polygon fill="#0000ff" stroke="#0000ff" points="105.2512,-118.2935 107.984,-108.0571 99.4642,-114.3551 105.2512,-118.2935"/>
</g>
<!-- end -->
<g id="node7" class="node">
<title>end</title>
<polygon fill="none" stroke="#000000" points="138.3421,-36.3225 101.9116,-36.3225 101.9116,.1079 138.3421,.1079 138.3421,-36.3225"/>
<polyline fill="none" stroke="#000000" points="113.9116,-36.3225 101.9116,-24.3225 "/>
<polyline fill="none" stroke="#000000" points="101.9116,-11.8921 113.9116,.1079 "/>
<polyline fill="none" stroke="#000000" points="126.3421,.1079 138.3421,-11.8921 "/>
<polyline fill="none" stroke="#000000" points="138.3421,-24.3225 126.3421,-36.3225 "/>
<text text-anchor="middle" x="120.1268" y="-13.9073" font-family="Times,serif" font-size="14.00" fill="#000000">end</text>
</g>
<!-- BB_002DF625&#45;&gt;end -->
<g id="edge8" class="edge">
<title>BB_002DF625-&gt;end</title>
<path fill="none" stroke="#000000" d="M120.1268,-72.0189C120.1268,-64.2477 120.1268,-54.9956 120.1268,-46.3686"/>
<polygon fill="#000000" stroke="#000000" points="123.6269,-46.2972 120.1268,-36.2972 116.6269,-46.2972 123.6269,-46.2972"/>
</g>
</g>
</svg>