<?xml version="1.0" encoding="UTF-8" standalone="no"?><!DOCTYPE svg PUBLIC "-//W3C//DTD SVG 1.1//EN" "http://www.w3.org/Graphics/SVG/1.1/DTD/svg11.dtd"><!-- Generated by graphviz version 2.40.1 (20161225.0304)
 --><!-- Title: G Pages: 1 --><svg xmlns="http://www.w3.org/2000/svg" xmlns:xlink="http://www.w3.org/1999/xlink" width="149pt" height="222pt" viewBox="0.00 0.00 149.17 221.64">
<g id="graph0" class="graph" transform="scale(1 1) rotate(0) translate(4 217.6438)">
<title>G</title>
<polygon fill="#ffffff" stroke="transparent" points="-4,4 -4,-217.6438 145.174,-217.6438 145.174,4 -4,4"/>
<!-- start -->
<g id="node1" class="node">
<title>start</title>
<polygon fill="none" stroke="#000000" points="70.587,-213.6438 31.3497,-195.6438 70.587,-177.6438 109.8243,-195.6438 70.587,-213.6438"/>
<polyline fill="none" stroke="#000000" points="42.2568,-200.6474 42.2568,-190.6402 "/>
<polyline fill="none" stroke="#000000" points="59.68,-182.6474 81.4941,-182.6474 "/>
<polyline fill="none" stroke="#000000" points="98.9173,-190.6402 98.9173,-200.6474 "/>
<polyline fill="none" stroke="#000000" points="81.4941,-208.6402 59.68,-208.6402 "/>
<text text-anchor="middle" x="70.587" y="-191.4438" font-family="Times,serif" font-size="14.00" fill="#000000">start</text>
</g>
<!-- BB_002E29D0 -->
<g id="node2" class="node">
<title>BB_002E29D0</title>
<ellipse fill="none" stroke="#000000" cx="70.587" cy="-123.6438" rx="70.6742" ry="18"/>
<text text-anchor="middle" x="70.587" y="-119.4438" font-family="Times,serif" font-size="14.00" fill="#000000">BB_002E29D0</text>
</g>
<!-- start&#45;&gt;BB_002E29D0 -->
<g id="edge1" class="edge">
<title>start-&gt;BB_002E29D0</title>
<path fill="none" stroke="#000000" d="M70.587,-177.4752C70.587,-169.7748 70.587,-160.6181 70.587,-152.0604"/>
<polygon fill="#000000" stroke="#000000" points="74.0871,-152.057 70.587,-142.0571 67.0871,-152.0571 74.0871,-152.057"/>
</g>
<!-- dead_end -->
<g id="node3" class="node">
<title>dead_end</title>
<polygon fill="none" stroke="#000000" points="105.2317,-69.4666 35.9423,-69.4666 35.9423,-.1772 105.2317,-.1772 105.2317,-69.4666"/>
<polyline fill="none" stroke="#000000" points="47.9423,-69.4666 35.9423,-57.4666 "/>
<polyline fill="none" stroke="#000000" points="35.9423,-12.1772 47.9423,-.1772 "/>
<polyline fill="none" stroke="#000000" points="93.2317,-.1772 105.2317,-12.1772 "/>
<polyline fill="none" stroke="#000000" points="105.2317,-57.4666 93.2317,-69.4666 "/>
<text text-anchor="middle" x="70.587" y="-30.6219" font-family="Times,serif" font-size="14.00" fill="#000000">dead_end</text>
</g>
<!-- BB_002E29D0&#45;&gt;dead_end -->
<g id="edge2" class="edge">
<title>BB_002E29D0-&gt;dead_end</title>
<path fill="none" stroke="#000000" d="M70.587,-105.2398C70.587,-97.7822 70.587,-88.8138 70.587,-79.8137"/>
<polygon fill="#000000" stroke="#000000" points="74.0871,-79.7175 70.587,-69.7175 67.0871,-79.7176 74.0871,-79.7175"/>
</g>
</g>
</svg>