<?xml version="1.0" encoding="UTF-8" standalone="no"?><!DOCTYPE svg PUBLIC "-//W3C//DTD SVG 1.1//EN" "http://www.w3.org/Graphics/SVG/1.1/DTD/svg11.dtd"><!-- Generated by graphviz version 2.40.1 (20161225.0304)
 --><!-- Title: G Pages: 1 --><svg xmlns="http://www.w3.org/2000/svg" xmlns:xlink="http://www.w3.org/1999/xlink" width="554pt" height="1628pt" viewBox="0.00 0.00 553.74 1628.21">
<g id="graph0" class="graph" transform="scale(1 1) rotate(0) translate(4 1624.2146)">
<title>G</title>
<polygon fill="#ffffff" stroke="transparent" points="-4,4 -4,-1624.2146 549.7396,-1624.2146 549.7396,4 -4,4"/>
<!-- start -->
<g id="node1" class="node">
<title>start</title>
<polygon fill="none" stroke="#000000" points="201,-1620.2146 161.7627,-1602.2146 201,-1584.2146 240.2373,-1602.2146 201,-1620.2146"/>
<polyline fill="none" stroke="#000000" points="172.6698,-1607.2182 172.6698,-1597.211 "/>
<polyline fill="none" stroke="#000000" points="190.0929,-1589.2182 211.9071,-1589.2182 "/>
<polyline fill="none" stroke="#000000" points="229.3302,-1597.211 229.3302,-1607.2182 "/>
<polyline fill="none" stroke="#000000" points="211.9071,-1615.211 190.0929,-1615.211 "/>
<text text-anchor="middle" x="201" y="-1598.0146" font-family="Times,serif" font-size="14.00" fill="#000000">start</text>
</g>
<!-- BB_002D3B60 -->
<g id="node2" class="node">
<title>BB_002D3B60</title>
<ellipse fill="none" stroke="#000000" cx="201" cy="-1530.2146" rx="71.2559" ry="18"/>
<text text-anchor="middle" x="201" y="-1526.0146" font-family="Times,serif" font-size="14.00" fill="#000000">BB_002D3B60</text>
</g>
<!-- start&#45;&gt;BB_002D3B60 -->
<g id="edge1" class="edge">
<title>start-&gt;BB_002D3B60</title>
<path fill="none" stroke="#000000" d="M201,-1584.046C201,-1576.3456 201,-1567.1889 201,-1558.6312"/>
<polygon fill="#000000" stroke="#000000" points="204.5001,-1558.6278 201,-1548.6279 197.5001,-1558.6279 204.5001,-1558.6278"/>
</g>
<!-- BB_002D3B7A -->
<g id="node3" class="node">
<title>BB_002D3B7A</title>
<ellipse fill="none" stroke="#000000" cx="119" cy="-1386.2146" rx="73.0421" ry="18"/>
<text text-anchor="middle" x="119" y="-1382.0146" font-family="Times,serif" font-size="14.00" fill="#000000">BB_002D3B7A</text>
</g>
<!-- BB_002D3B60&#45;&gt;BB_002D3B7A -->
<g id="edge2" class="edge">
<title>BB_002D3B60-&gt;BB_002D3B7A</title>
<path fill="none" stroke="#ff0000" d="M190.7804,-1512.2681C176.6016,-1487.3686 150.8488,-1442.1441 134.3526,-1413.1752"/>
<polygon fill="#ff0000" stroke="#ff0000" points="137.3382,-1411.3452 129.3484,-1404.3873 131.2553,-1414.8091 137.3382,-1411.3452"/>
</g>
<!-- BB_002D3B8B -->
<g id="node4" class="node">
<title>BB_002D3B8B</title>
<ellipse fill="none" stroke="#000000" cx="268" cy="-1458.2146" rx="72.9799" ry="18"/>
<text text-anchor="middle" x="268" y="-1454.0146" font-family="Times,serif" font-size="14.00" fill="#000000">BB_002D3B8B</text>
</g>
<!-- BB_002D3B60&#45;&gt;BB_002D3B8B -->
<g id="edge3" class="edge">
<title>BB_002D3B60-&gt;BB_002D3B8B</title>
<path fill="none" stroke="#00ff00" d="M217.5618,-1512.4168C225.7565,-1503.6106 235.7862,-1492.8325 244.7371,-1483.2135"/>
<polygon fill="#00ff00" stroke="#00ff00" points="247.3786,-1485.5127 251.6287,-1475.8076 242.2541,-1480.744 247.3786,-1485.5127"/>
</g>
<!-- end -->
<g id="node5" class="node">
<title>end</title>
<polygon fill="none" stroke="#000000" points="132.2152,-36.3225 95.7848,-36.3225 95.7848,.1079 132.2152,.1079 132.2152,-36.3225"/>
<polyline fill="none" stroke="#000000" points="107.7848,-36.3225 95.7848,-24.3225 "/>
<polyline fill="none" stroke="#000000" points="95.7848,-11.8921 107.7848,.1079 "/>
<polyline fill="none" stroke="#000000" points="120.2152,.1079 132.2152,-11.8921 "/>
<polyline fill="none" stroke="#000000" points="132.2152,-24.3225 120.2152,-36.3225 "/>
<text text-anchor="middle" x="114" y="-13.9073" font-family="Times,serif" font-size="14.00" fill="#000000">end</text>
</g>
<!-- BB_002D3B7A&#45;&gt;end -->
<g id="edge4" class="edge">
<title>BB_002D3B7A-&gt;end</title>
<path fill="none" stroke="#000000" d="M91.3999,-1369.5388C56.2461,-1345.9521 0,-1299.2946 0,-1242.2146 0,-1242.2146 0,-1242.2146 0,-162.2146 0,-106.2828 53.4746,-59.3682 87.1753,-35.3554"/>
<polygon fill="#000000" stroke="#000000" points="89.4463,-38.0405 95.6839,-29.4765 85.4671,-32.2814 89.4463,-38.0405"/>
</g>
<!-- BB_002D3BA0 -->
<g id="node6" class="node">
<title>BB_002D3BA0</title>
<ellipse fill="none" stroke="#000000" cx="353" cy="-1386.2146" rx="73.0421" ry="18"/>
<text text-anchor="middle" x="353" y="-1382.0146" font-family="Times,serif" font-size="14.00" fill="#000000">BB_002D3BA0</text>
</g>
<!-- BB_002D3B8B&#45;&gt;BB_002D3BA0 -->
<g id="edge5" class="edge">
<title>BB_002D3B8B-&gt;BB_002D3BA0</title>
<path fill="none" stroke="#0000ff" d="M288.5761,-1440.7854C299.3546,-1431.6554 312.7239,-1420.3309 324.485,-1410.3685"/>
<polygon fill="#0000ff" stroke="#0000ff" points="326.9505,-1412.867 332.3187,-1403.7328 322.426,-1407.5257 326.9505,-1412.867"/>
</g>
<!-- BB_002D3BA9 -->
<g id="node7" class="node">
<title>BB_002D3BA9</title>
<ellipse fill="none" stroke="#000000" cx="404" cy="-1314.2146" rx="73.0421" ry="18"/>
<text text-anchor="middle" x="404" y="-1310.0146" font-family="Times,serif" font-size="14.00" fill="#000000">BB_002D3BA9</text>
</g>
<!-- BB_002D3BA0&#45;&gt;BB_002D3BA9 -->
<g id="edge6" class="edge">
<title>BB_002D3BA0-&gt;BB_002D3BA9</title>
<path fill="none" stroke="#ff0000" d="M365.6067,-1368.4168C371.614,-1359.936 378.9168,-1349.6261 385.5341,-1340.2842"/>
<polygon fill="#ff0000" stroke="#ff0000" points="388.4374,-1342.2405 391.3615,-1332.0571 382.7252,-1338.1943 388.4374,-1342.2405"/>
</g>
<!-- BB_002D3BAC -->
<g id="node8" class="node">
<title>BB_002D3BAC</title>
<ellipse fill="none" stroke="#000000" cx="354" cy="-1242.2146" rx="74.765" ry="18"/>
<text text-anchor="middle" x="354" y="-1238.0146" font-family="Times,serif" font-size="14.00" fill="#000000">BB_002D3BAC</text>
</g>
<!-- BB_002D3BA0&#45;&gt;BB_002D3BAC -->
<g id="edge7" class="edge">
<title>BB_002D3BA0-&gt;BB_002D3BAC</title>
<path fill="none" stroke="#00ff00" d="M339.5281,-1368.2799C332.8345,-1358.2407 325.4534,-1345.1665 322,-1332.2146 317.8779,-1316.7547 317.7712,-1311.6457 322,-1296.2146 324.6228,-1286.644 329.4287,-1277.0494 334.5327,-1268.659"/>
<polygon fill="#00ff00" stroke="#00ff00" points="337.5892,-1270.3784 340.0989,-1260.0851 331.718,-1266.5668 337.5892,-1270.3784"/>
</g>
<!-- BB_002D3BA9&#45;&gt;BB_002D3BAC -->
<g id="edge8" class="edge">
<title>BB_002D3BA9-&gt;BB_002D3BAC</title>
<path fill="none" stroke="#0000ff" d="M391.6404,-1296.4168C385.7509,-1287.936 378.5913,-1277.6261 372.1039,-1268.2842"/>
<polygon fill="#0000ff" stroke="#0000ff" points="374.9695,-1266.2745 366.3907,-1260.0571 369.2199,-1270.2673 374.9695,-1266.2745"/>
</g>
<!-- BB_002D3BB4 -->
<g id="node9" class="node">
<title>BB_002D3BB4</title>
<ellipse fill="none" stroke="#000000" cx="405" cy="-1170.2146" rx="72.9799" ry="18"/>
<text text-anchor="middle" x="405" y="-1166.0146" font-family="Times,serif" font-size="14.00" fill="#000000">BB_002D3BB4</text>
</g>
<!-- BB_002D3BAC&#45;&gt;BB_002D3BB4 -->
<g id="edge9" class="edge">
<title>BB_002D3BAC-&gt;BB_002D3BB4</title>
<path fill="none" stroke="#ff0000" d="M366.6067,-1224.4168C372.614,-1215.936 379.9168,-1205.6261 386.5341,-1196.2842"/>
<polygon fill="#ff0000" stroke="#ff0000" points="389.4374,-1198.2405 392.3615,-1188.0571 383.7252,-1194.1943 389.4374,-1198.2405"/>
</g>
<!-- BB_002D3BB6 -->
<g id="node10" class="node">
<title>BB_002D3BB6</title>
<ellipse fill="none" stroke="#000000" cx="355" cy="-1098.2146" rx="72.9799" ry="18"/>
<text text-anchor="middle" x="355" y="-1094.0146" font-family="Times,serif" font-size="14.00" fill="#000000">BB_002D3BB6</text>
</g>
<!-- BB_002D3BAC&#45;&gt;BB_002D3BB6 -->
<g id="edge10" class="edge">
<title>BB_002D3BAC-&gt;BB_002D3BB6</title>
<path fill="none" stroke="#00ff00" d="M340.5281,-1224.2799C333.8345,-1214.2407 326.4534,-1201.1665 323,-1188.2146 318.8779,-1172.7547 318.7712,-1167.6457 323,-1152.2146 325.6228,-1142.644 330.4287,-1133.0494 335.5327,-1124.659"/>
<polygon fill="#00ff00" stroke="#00ff00" points="338.5892,-1126.3784 341.0989,-1116.0851 332.718,-1122.5668 338.5892,-1126.3784"/>
</g>
<!-- BB_002D3BB4&#45;&gt;BB_002D3BB6 -->
<g id="edge11" class="edge">
<title>BB_002D3BB4-&gt;BB_002D3BB6</title>
<path fill="none" stroke="#0000ff" d="M392.6404,-1152.4168C386.7509,-1143.936 379.5913,-1133.6261 373.1039,-1124.2842"/>
<polygon fill="#0000ff" stroke="#0000ff" points="375.9695,-1122.2745 367.3907,-1116.0571 370.2199,-1126.2673 375.9695,-1122.2745"/>
</g>
<!-- BB_002D3BBB -->
<g id="node11" class="node">
<title>BB_002D3BBB</title>
<ellipse fill="none" stroke="#000000" cx="351" cy="-1026.2146" rx="74.2029" ry="18"/>
<text text-anchor="middle" x="351" y="-1022.0146" font-family="Times,serif" font-size="14.00" fill="#000000">BB_002D3BBB</text>
</g>
<!-- BB_002D3BB6&#45;&gt;BB_002D3BBB -->
<g id="edge12" class="edge">
<title>BB_002D3BB6-&gt;BB_002D3BBB</title>
<path fill="none" stroke="#ff0000" d="M353.9906,-1080.046C353.5628,-1072.3456 353.0541,-1063.1889 352.5787,-1054.6312"/>
<polygon fill="#ff0000" stroke="#ff0000" points="356.0724,-1054.4183 352.023,-1044.6279 349.0831,-1054.8066 356.0724,-1054.4183"/>
</g>
<!-- BB_002D3C06 -->
<g id="node12" class="node">
<title>BB_002D3C06</title>
<ellipse fill="none" stroke="#000000" cx="388" cy="-162.2146" rx="71.2559" ry="18"/>
<text text-anchor="middle" x="388" y="-158.0146" font-family="Times,serif" font-size="14.00" fill="#000000">BB_002D3C06</text>
</g>
<!-- BB_002D3BB6&#45;&gt;BB_002D3C06 -->
<g id="edge13" class="edge">
<title>BB_002D3BB6-&gt;BB_002D3C06</title>
<path fill="none" stroke="#00ff00" d="M387.7668,-1081.9567C403.5511,-1072.7325 421.6795,-1059.8877 434,-1044.2146 460.4254,-1010.5984 468,-996.9738 468,-954.2146 468,-954.2146 468,-954.2146 468,-306.2146 468,-265.333 469.5655,-251.5469 449,-216.2146 442.2068,-204.5437 431.9959,-194.0671 421.8615,-185.5173"/>
<polygon fill="#00ff00" stroke="#00ff00" points="423.8138,-182.5971 413.8171,-179.0876 419.4433,-188.0652 423.8138,-182.5971"/>
</g>
<!-- BB_002D3BC0 -->
<g id="node13" class="node">
<title>BB_002D3BC0</title>
<ellipse fill="none" stroke="#000000" cx="231" cy="-954.2146" rx="72.9799" ry="18"/>
<text text-anchor="middle" x="231" y="-950.0146" font-family="Times,serif" font-size="14.00" fill="#000000">BB_002D3BC0</text>
</g>
<!-- BB_002D3BBB&#45;&gt;BB_002D3BC0 -->
<g id="edge14" class="edge">
<title>BB_002D3BBB-&gt;BB_002D3BC0</title>
<path fill="none" stroke="#ff0000" d="M323.168,-1009.5154C306.7772,-999.6809 285.8394,-987.1182 268.0634,-976.4526"/>
<polygon fill="#ff0000" stroke="#ff0000" points="269.4725,-973.2164 259.0968,-971.0727 265.871,-979.2189 269.4725,-973.2164"/>
</g>
<!-- BB_002D3BD1 -->
<g id="node14" class="node">
<title>BB_002D3BD1</title>
<ellipse fill="none" stroke="#000000" cx="212" cy="-810.2146" rx="73.0421" ry="18"/>
<text text-anchor="middle" x="212" y="-806.0146" font-family="Times,serif" font-size="14.00" fill="#000000">BB_002D3BD1</text>
</g>
<!-- BB_002D3BBB&#45;&gt;BB_002D3BD1 -->
<g id="edge15" class="edge">
<title>BB_002D3BBB-&gt;BB_002D3BD1</title>
<path fill="none" stroke="#00ff00" d="M348.5025,-1008.1112C343.3084,-976.1099 328.7917,-908.7315 294,-864.2146 283.7536,-851.1041 269.3984,-840.1403 255.5578,-831.5925"/>
<polygon fill="#00ff00" stroke="#00ff00" points="256.9811,-828.3695 246.5852,-826.3259 253.4376,-834.4064 256.9811,-828.3695"/>
</g>
<!-- BB_002D3C0B -->
<g id="node25" class="node">
<title>BB_002D3C0B</title>
<ellipse fill="none" stroke="#000000" cx="473" cy="-90.2146" rx="72.9799" ry="18"/>
<text text-anchor="middle" x="473" y="-86.0146" font-family="Times,serif" font-size="14.00" fill="#000000">BB_002D3C0B</text>
</g>
<!-- BB_002D3C06&#45;&gt;BB_002D3C0B -->
<g id="edge37" class="edge">
<title>BB_002D3C06-&gt;BB_002D3C0B</title>
<path fill="none" stroke="#ff0000" d="M408.5761,-144.7854C419.3546,-135.6554 432.7239,-124.3309 444.485,-114.3685"/>
<polygon fill="#ff0000" stroke="#ff0000" points="446.9505,-116.867 452.3187,-107.7328 442.426,-111.5257 446.9505,-116.867"/>
</g>
<!-- BB_002D3C21 -->
<g id="node26" class="node">
<title>BB_002D3C21</title>
<ellipse fill="none" stroke="#000000" cx="246" cy="-90.2146" rx="71.2559" ry="18"/>
<text text-anchor="middle" x="246" y="-86.0146" font-family="Times,serif" font-size="14.00" fill="#000000">BB_002D3C21</text>
</g>
<!-- BB_002D3C06&#45;&gt;BB_002D3C21 -->
<g id="edge38" class="edge">
<title>BB_002D3C06-&gt;BB_002D3C21</title>
<path fill="none" stroke="#00ff00" d="M356.1324,-146.0564C335.8125,-135.7534 309.2738,-122.2971 287.3395,-111.1755"/>
<polygon fill="#00ff00" stroke="#00ff00" points="288.7544,-107.9687 278.2525,-106.568 285.5887,-114.212 288.7544,-107.9687"/>
</g>
<!-- BB_002D3BC6 -->
<g id="node15" class="node">
<title>BB_002D3BC6</title>
<ellipse fill="none" stroke="#000000" cx="212" cy="-882.2146" rx="72.9799" ry="18"/>
<text text-anchor="middle" x="212" y="-878.0146" font-family="Times,serif" font-size="14.00" fill="#000000">BB_002D3BC6</text>
</g>
<!-- BB_002D3BC0&#45;&gt;BB_002D3BC6 -->
<g id="edge16" class="edge">
<title>BB_002D3BC0-&gt;BB_002D3BC6</title>
<path fill="none" stroke="#ff0000" d="M220.2531,-936.046C217.4706,-928.3456 214.8334,-919.1889 212.8837,-910.6312"/>
<polygon fill="#ff0000" stroke="#ff0000" points="216.2763,-909.7472 210.883,-900.6279 209.4123,-911.1201 216.2763,-909.7472"/>
</g>
<!-- BB_002D3BD6 -->
<g id="node16" class="node">
<title>BB_002D3BD6</title>
<ellipse fill="none" stroke="#000000" cx="281" cy="-738.2146" rx="73.0421" ry="18"/>
<text text-anchor="middle" x="281" y="-734.0146" font-family="Times,serif" font-size="14.00" fill="#000000">BB_002D3BD6</text>
</g>
<!-- BB_002D3BC0&#45;&gt;BB_002D3BD6 -->
<g id="edge17" class="edge">
<title>BB_002D3BC0-&gt;BB_002D3BD6</title>
<path fill="none" stroke="#00ff00" d="M259.9918,-937.52C272.9569,-928.3375 286.897,-915.658 294,-900.2146 314.0872,-856.5406 301.6792,-799.2449 291.1317,-765.8032"/>
<polygon fill="#00ff00" stroke="#00ff00" points="294.4272,-764.6211 287.9561,-756.232 287.7833,-766.8255 294.4272,-764.6211"/>
</g>
<!-- BB_002D3BD1&#45;&gt;BB_002D3BD6 -->
<g id="edge20" class="edge">
<title>BB_002D3BD1-&gt;BB_002D3BD6</title>
<path fill="none" stroke="#ff0000" d="M229.0562,-792.4168C237.4955,-783.6106 247.8246,-772.8325 257.0427,-763.2135"/>
<polygon fill="#ff0000" stroke="#ff0000" points="259.7479,-765.4492 264.14,-755.8076 254.694,-760.6059 259.7479,-765.4492"/>
</g>
<!-- BB_002D3C10 -->
<g id="node17" class="node">
<title>BB_002D3C10</title>
<ellipse fill="none" stroke="#000000" cx="114" cy="-234.2146" rx="71.2559" ry="18"/>
<text text-anchor="middle" x="114" y="-230.0146" font-family="Times,serif" font-size="14.00" fill="#000000">BB_002D3C10</text>
</g>
<!-- BB_002D3BD1&#45;&gt;BB_002D3C10 -->
<g id="edge21" class="edge">
<title>BB_002D3BD1-&gt;BB_002D3C10</title>
<path fill="none" stroke="#00ff00" d="M168.0925,-795.6615C116.5464,-775.4785 38,-733.6584 38,-666.2146 38,-666.2146 38,-666.2146 38,-378.2146 38,-332.3582 68.5166,-286.7963 90.875,-259.5686"/>
<polygon fill="#00ff00" stroke="#00ff00" points="93.7222,-261.6221 97.5091,-251.7272 88.3782,-257.1009 93.7222,-261.6221"/>
</g>
<!-- BB_002D3BC6&#45;&gt;BB_002D3BC0 -->
<g id="edge19" class="edge">
<title>BB_002D3BC6-&gt;BB_002D3BC0</title>
<path fill="none" stroke="#00ff00" d="M222.6544,-900.128C225.514,-907.9994 228.2268,-917.4294 230.2062,-926.1947"/>
<polygon fill="#00ff00" stroke="#00ff00" points="226.7812,-926.9168 232.1579,-936.046 233.6477,-925.5564 226.7812,-926.9168"/>
</g>
<!-- BB_002D3BC6&#45;&gt;BB_002D3BD1 -->
<g id="edge18" class="edge">
<title>BB_002D3BC6-&gt;BB_002D3BD1</title>
<path fill="none" stroke="#ff0000" d="M212,-864.046C212,-856.3456 212,-847.1889 212,-838.6312"/>
<polygon fill="#ff0000" stroke="#ff0000" points="215.5001,-838.6278 212,-828.6279 208.5001,-838.6279 215.5001,-838.6278"/>
</g>
<!-- BB_002D3BDC -->
<g id="node18" class="node">
<title>BB_002D3BDC</title>
<ellipse fill="none" stroke="#000000" cx="273" cy="-666.2146" rx="74.765" ry="18"/>
<text text-anchor="middle" x="273" y="-662.0146" font-family="Times,serif" font-size="14.00" fill="#000000">BB_002D3BDC</text>
</g>
<!-- BB_002D3BD6&#45;&gt;BB_002D3BDC -->
<g id="edge22" class="edge">
<title>BB_002D3BD6-&gt;BB_002D3BDC</title>
<path fill="none" stroke="#ff0000" d="M278.9813,-720.046C278.1257,-712.3456 277.1083,-703.1889 276.1574,-694.6312"/>
<polygon fill="#ff0000" stroke="#ff0000" points="279.6289,-694.1802 275.0459,-684.6279 272.6717,-694.9532 279.6289,-694.1802"/>
</g>
<!-- BB_002D3C03 -->
<g id="node19" class="node">
<title>BB_002D3C03</title>
<ellipse fill="none" stroke="#000000" cx="369" cy="-234.2146" rx="71.2559" ry="18"/>
<text text-anchor="middle" x="369" y="-230.0146" font-family="Times,serif" font-size="14.00" fill="#000000">BB_002D3C03</text>
</g>
<!-- BB_002D3BD6&#45;&gt;BB_002D3C03 -->
<g id="edge23" class="edge">
<title>BB_002D3BD6-&gt;BB_002D3C03</title>
<path fill="none" stroke="#00ff00" d="M317.4495,-722.4348C361.5607,-700.586 430,-656.6302 430,-594.2146 430,-594.2146 430,-594.2146 430,-378.2146 430,-334.3611 405.7171,-288.5216 387.7932,-260.6593"/>
<polygon fill="#00ff00" stroke="#00ff00" points="390.6765,-258.6741 382.2361,-252.2701 384.8407,-262.5399 390.6765,-258.6741"/>
</g>
<!-- BB_002D3C10&#45;&gt;end -->
<g id="edge40" class="edge">
<title>BB_002D3C10-&gt;end</title>
<path fill="none" stroke="#000000" d="M114,-216.1611C114,-178.5808 114,-91.6979 114,-46.5317"/>
<polygon fill="#000000" stroke="#000000" points="117.5001,-46.2613 114,-36.2614 110.5001,-46.2614 117.5001,-46.2613"/>
</g>
<!-- BB_002D3BDC&#45;&gt;BB_002D3C10 -->
<g id="edge25" class="edge">
<title>BB_002D3BDC-&gt;BB_002D3C10</title>
<path fill="none" stroke="#00ff00" d="M222.0114,-653.009C163.6411,-634.4547 76,-594.5517 76,-522.2146 76,-522.2146 76,-522.2146 76,-378.2146 76,-336.5827 91.0328,-290.3546 102.1881,-261.7816"/>
<polygon fill="#00ff00" stroke="#00ff00" points="105.4578,-263.0316 105.9412,-252.4478 98.9632,-260.4201 105.4578,-263.0316"/>
</g>
<!-- BB_002D3BE1 -->
<g id="node20" class="node">
<title>BB_002D3BE1</title>
<ellipse fill="none" stroke="#000000" cx="273" cy="-594.2146" rx="72.3981" ry="18"/>
<text text-anchor="middle" x="273" y="-590.0146" font-family="Times,serif" font-size="14.00" fill="#000000">BB_002D3BE1</text>
</g>
<!-- BB_002D3BDC&#45;&gt;BB_002D3BE1 -->
<g id="edge24" class="edge">
<title>BB_002D3BDC-&gt;BB_002D3BE1</title>
<path fill="none" stroke="#ff0000" d="M273,-648.046C273,-640.3456 273,-631.1889 273,-622.6312"/>
<polygon fill="#ff0000" stroke="#ff0000" points="276.5001,-622.6278 273,-612.6279 269.5001,-622.6279 276.5001,-622.6278"/>
</g>
<!-- BB_002D3C03&#45;&gt;BB_002D3C06 -->
<g id="edge36" class="edge">
<title>BB_002D3C03-&gt;BB_002D3C06</title>
<path fill="none" stroke="#0000ff" d="M373.7945,-216.046C375.8489,-208.2609 378.296,-198.9875 380.5756,-190.3493"/>
<polygon fill="#0000ff" stroke="#0000ff" points="383.9735,-191.1899 383.1409,-180.6279 377.2052,-189.4038 383.9735,-191.1899"/>
</g>
<!-- BB_002D3BE1&#45;&gt;BB_002D3C03 -->
<g id="edge27" class="edge">
<title>BB_002D3BE1-&gt;BB_002D3C03</title>
<path fill="none" stroke="#00ff00" d="M303.6832,-577.8626C319.1114,-568.4564 337.1991,-555.4769 350,-540.2146 378.366,-506.3943 392,-494.3558 392,-450.2146 392,-450.2146 392,-450.2146 392,-378.2146 392,-337.403 382.88,-290.8904 376.1257,-262.0393"/>
<polygon fill="#00ff00" stroke="#00ff00" points="379.5124,-261.1531 373.7656,-252.2523 372.7075,-262.7942 379.5124,-261.1531"/>
</g>
<!-- BB_002D3BE9 -->
<g id="node21" class="node">
<title>BB_002D3BE9</title>
<ellipse fill="none" stroke="#000000" cx="269" cy="-522.2146" rx="72.3981" ry="18"/>
<text text-anchor="middle" x="269" y="-518.0146" font-family="Times,serif" font-size="14.00" fill="#000000">BB_002D3BE9</text>
</g>
<!-- BB_002D3BE1&#45;&gt;BB_002D3BE9 -->
<g id="edge26" class="edge">
<title>BB_002D3BE1-&gt;BB_002D3BE9</title>
<path fill="none" stroke="#ff0000" d="M271.9906,-576.046C271.5628,-568.3456 271.0541,-559.1889 270.5787,-550.6312"/>
<polygon fill="#ff0000" stroke="#ff0000" points="274.0724,-550.4183 270.023,-540.6279 267.0831,-550.8066 274.0724,-550.4183"/>
</g>
<!-- BB_002D3BE9&#45;&gt;BB_002D3C10 -->
<g id="edge29" class="edge">
<title>BB_002D3BE9-&gt;BB_002D3C10</title>
<path fill="none" stroke="#00ff00" d="M234.2573,-506.225C217.8915,-497.1406 199.3076,-484.3386 187,-468.2146 138.7309,-404.9781 122.0307,-309.3191 116.5331,-262.3091"/>
<polygon fill="#00ff00" stroke="#00ff00" points="119.9998,-261.8122 115.4427,-252.2475 113.0405,-262.5664 119.9998,-261.8122"/>
</g>
<!-- BB_002D3BEE -->
<g id="node22" class="node">
<title>BB_002D3BEE</title>
<ellipse fill="none" stroke="#000000" cx="269" cy="-450.2146" rx="73.0402" ry="18"/>
<text text-anchor="middle" x="269" y="-446.0146" font-family="Times,serif" font-size="14.00" fill="#000000">BB_002D3BEE</text>
</g>
<!-- BB_002D3BE9&#45;&gt;BB_002D3BEE -->
<g id="edge28" class="edge">
<title>BB_002D3BE9-&gt;BB_002D3BEE</title>
<path fill="none" stroke="#ff0000" d="M269,-504.046C269,-496.3456 269,-487.1889 269,-478.6312"/>
<polygon fill="#ff0000" stroke="#ff0000" points="272.5001,-478.6278 269,-468.6279 265.5001,-478.6279 272.5001,-478.6278"/>
</g>
<!-- BB_002D3BEE&#45;&gt;BB_002D3C03 -->
<g id="edge31" class="edge">
<title>BB_002D3BEE-&gt;BB_002D3C03</title>
<path fill="none" stroke="#00ff00" d="M296.8132,-433.4317C310.0177,-424.0736 324.8706,-411.2676 334,-396.2146 359.3125,-354.4784 366.447,-296.919 368.38,-262.8343"/>
<polygon fill="#00ff00" stroke="#00ff00" points="371.8854,-262.7905 368.8412,-252.6424 364.8926,-262.4739 371.8854,-262.7905"/>
</g>
<!-- BB_002D3BF6 -->
<g id="node23" class="node">
<title>BB_002D3BF6</title>
<ellipse fill="none" stroke="#000000" cx="253" cy="-378.2146" rx="71.8357" ry="18"/>
<text text-anchor="middle" x="253" y="-374.0146" font-family="Times,serif" font-size="14.00" fill="#000000">BB_002D3BF6</text>
</g>
<!-- BB_002D3BEE&#45;&gt;BB_002D3BF6 -->
<g id="edge30" class="edge">
<title>BB_002D3BEE-&gt;BB_002D3BF6</title>
<path fill="none" stroke="#ff0000" d="M264.9625,-432.046C263.2513,-424.3456 261.2165,-415.1889 259.3148,-406.6312"/>
<polygon fill="#ff0000" stroke="#ff0000" points="262.6779,-405.6305 257.0918,-396.6279 255.8446,-407.149 262.6779,-405.6305"/>
</g>
<!-- BB_002D3BF6&#45;&gt;BB_002D3C10 -->
<g id="edge33" class="edge">
<title>BB_002D3BF6-&gt;BB_002D3C10</title>
<path fill="none" stroke="#00ff00" d="M221.8933,-361.9759C205.5141,-352.4335 185.8124,-339.2928 171,-324.2146 152.8158,-305.7042 137.4433,-280.4517 127.2621,-261.4063"/>
<polygon fill="#00ff00" stroke="#00ff00" points="130.2726,-259.609 122.5578,-252.3472 124.0602,-262.835 130.2726,-259.609"/>
</g>
<!-- BB_002D3BFB -->
<g id="node24" class="node">
<title>BB_002D3BFB</title>
<ellipse fill="none" stroke="#000000" cx="253" cy="-306.2146" rx="73.0594" ry="18"/>
<text text-anchor="middle" x="253" y="-302.0146" font-family="Times,serif" font-size="14.00" fill="#000000">BB_002D3BFB</text>
</g>
<!-- BB_002D3BF6&#45;&gt;BB_002D3BFB -->
<g id="edge32" class="edge">
<title>BB_002D3BF6-&gt;BB_002D3BFB</title>
<path fill="none" stroke="#ff0000" d="M253,-360.046C253,-352.3456 253,-343.1889 253,-334.6312"/>
<polygon fill="#ff0000" stroke="#ff0000" points="256.5001,-334.6278 253,-324.6279 249.5001,-334.6279 256.5001,-334.6278"/>
</g>
<!-- BB_002D3BFB&#45;&gt;BB_002D3C10 -->
<g id="edge35" class="edge">
<title>BB_002D3BFB-&gt;BB_002D3C10</title>
<path fill="none" stroke="#00ff00" d="M221.4587,-289.8767C201.6429,-279.6124 175.8884,-266.2719 154.5605,-255.2243"/>
<polygon fill="#00ff00" stroke="#00ff00" points="155.9057,-251.9795 145.4164,-250.4879 152.6861,-258.1952 155.9057,-251.9795"/>
</g>
<!-- BB_002D3BFB&#45;&gt;BB_002D3C03 -->
<g id="edge34" class="edge">
<title>BB_002D3BFB-&gt;BB_002D3C03</title>
<path fill="none" stroke="#ff0000" d="M280.1968,-289.3338C296.0498,-279.494 316.2278,-266.9697 333.3422,-256.347"/>
<polygon fill="#ff0000" stroke="#ff0000" points="335.3229,-259.2371 341.9735,-250.9896 331.6313,-253.2896 335.3229,-259.2371"/>
</g>
<!-- BB_002D3C0B&#45;&gt;BB_002D3BA0 -->
<g id="edge39" class="edge">
<title>BB_002D3C0B-&gt;BB_002D3BA0</title>
<path fill="none" stroke="#0000ff" d="M479.9985,-108.5467C489.6853,-135.6118 506,-188.0481 506,-234.2146 506,-1242.2146 506,-1242.2146 506,-1242.2146 506,-1283.1904 512.4566,-1300.9246 486,-1332.2146 469.5245,-1351.7001 444.9515,-1364.237 421.3943,-1372.2667"/>
<polygon fill="#0000ff" stroke="#0000ff" points="420.2091,-1368.9708 411.739,-1375.3353 422.3294,-1375.6419 420.2091,-1368.9708"/>
</g>
<!-- BB_002D3C21&#45;&gt;end -->
<g id="edge41" class="edge">
<title>BB_002D3C21-&gt;end</title>
<path fill="none" stroke="#000000" d="M216.0472,-73.8523C193.6512,-61.6182 163.2671,-45.0203 141.4882,-33.1232"/>
<polygon fill="#000000" stroke="#000000" points="142.8926,-29.9022 132.4387,-28.1798 139.5367,-36.0454 142.8926,-29.9022"/>
</g>
</g>
</svg>