<?xml version="1.0" encoding="UTF-8" standalone="no"?><!DOCTYPE svg PUBLIC "-//W3C//DTD SVG 1.1//EN" "http://www.w3.org/Graphics/SVG/1.1/DTD/svg11.dtd"><!-- Generated by graphviz version 2.40.1 (20161225.0304)
 --><!-- Title: G Pages: 1 --><svg xmlns="http://www.w3.org/2000/svg" xmlns:xlink="http://www.w3.org/1999/xlink" width="614pt" height="438pt" viewBox="0.00 0.00 613.50 437.64">
<g id="graph0" class="graph" transform="scale(1 1) rotate(0) translate(4 433.6438)">
<title>G</title>
<polygon fill="#ffffff" stroke="transparent" points="-4,4 -4,-433.6438 609.5,-433.6438 609.5,4 -4,4"/>
<!-- start -->
<g id="node1" class="node">
<title>start</title>
<polygon fill="none" stroke="#000000" points="276.0559,-429.6438 236.8186,-411.6438 276.0559,-393.6438 315.2932,-411.6438 276.0559,-429.6438"/>
<polyline fill="none" stroke="#000000" points="247.7257,-416.6474 247.7257,-406.6402 "/>
<polyline fill="none" stroke="#000000" points="265.1488,-398.6474 286.963,-398.6474 "/>
<polyline fill="none" stroke="#000000" points="304.3861,-406.6402 304.3861,-416.6474 "/>
<polyline fill="none" stroke="#000000" points="286.963,-424.6402 265.1488,-424.6402 "/>
<text text-anchor="middle" x="276.0559" y="-407.4438" font-family="Times,serif" font-size="14.00" fill="#000000">start</text>
</g>
<!-- BB_002E3350 -->
<g id="node2" class="node">
<title>BB_002E3350</title>
<ellipse fill="none" stroke="#000000" cx="276.0559" cy="-339.6438" rx="68.3883" ry="18"/>
<text text-anchor="middle" x="276.0559" y="-335.4438" font-family="Times,serif" font-size="14.00" fill="#000000">BB_002E3350</text>
</g>
<!-- start&#45;&gt;BB_002E3350 -->
<g id="edge1" class="edge">
<title>start-&gt;BB_002E3350</title>
<path fill="none" stroke="#000000" d="M276.0559,-393.4752C276.0559,-385.7748 276.0559,-376.6181 276.0559,-368.0604"/>
<polygon fill="#000000" stroke="#000000" points="279.556,-368.057 276.0559,-358.0571 272.556,-368.0571 279.556,-368.057"/>
</g>
<!-- BB_002E335D -->
<g id="node3" class="node">
<title>BB_002E335D</title>
<ellipse fill="none" stroke="#000000" cx="227.0559" cy="-267.6438" rx="70.6742" ry="18"/>
<text text-anchor="middle" x="227.0559" y="-263.4438" font-family="Times,serif" font-size="14.00" fill="#000000">BB_002E335D</text>
</g>
<!-- BB_002E3350&#45;&gt;BB_002E335D -->
<g id="edge2" class="edge">
<title>BB_002E3350-&gt;BB_002E335D</title>
<path fill="none" stroke="#ff0000" d="M263.9435,-321.846C258.2307,-313.4517 251.2985,-303.2656 244.9925,-293.9996"/>
<polygon fill="#ff0000" stroke="#ff0000" points="247.7185,-291.7843 239.1987,-285.4863 241.9315,-295.7227 247.7185,-291.7843"/>
</g>
<!-- BB_002E3380 -->
<g id="node4" class="node">
<title>BB_002E3380</title>
<ellipse fill="none" stroke="#000000" cx="382.0559" cy="-195.6438" rx="68.3883" ry="18"/>
<text text-anchor="middle" x="382.0559" y="-191.4438" font-family="Times,serif" font-size="14.00" fill="#000000">BB_002E3380</text>
</g>
<!-- BB_002E3350&#45;&gt;BB_002E3380 -->
<g id="edge3" class="edge">
<title>BB_002E3350-&gt;BB_002E3380</title>
<path fill="none" stroke="#00ff00" d="M289.2665,-321.6973C307.7752,-296.5534 341.5406,-250.6834 362.8344,-221.756"/>
<polygon fill="#00ff00" stroke="#00ff00" points="365.9022,-223.4924 369.0117,-213.3642 360.2648,-219.3427 365.9022,-223.4924"/>
</g>
<!-- BB_002E3364 -->
<g id="node5" class="node">
<title>BB_002E3364</title>
<ellipse fill="none" stroke="#000000" cx="227.0559" cy="-195.6438" rx="68.3883" ry="18"/>
<text text-anchor="middle" x="227.0559" y="-191.4438" font-family="Times,serif" font-size="14.00" fill="#000000">BB_002E3364</text>
</g>
<!-- BB_002E335D&#45;&gt;BB_002E3364 -->
<g id="edge4" class="edge">
<title>BB_002E335D-&gt;BB_002E3364</title>
<path fill="none" stroke="#ff0000" d="M227.0559,-249.4752C227.0559,-241.7748 227.0559,-232.6181 227.0559,-224.0604"/>
<polygon fill="#ff0000" stroke="#ff0000" points="230.556,-224.057 227.0559,-214.0571 223.556,-224.0571 230.556,-224.057"/>
</g>
<!-- BB_002E3397 -->
<g id="node6" class="node">
<title>BB_002E3397</title>
<ellipse fill="none" stroke="#000000" cx="71.0559" cy="-195.6438" rx="68.3883" ry="18"/>
<text text-anchor="middle" x="71.0559" y="-191.4438" font-family="Times,serif" font-size="14.00" fill="#000000">BB_002E3397</text>
</g>
<!-- BB_002E335D&#45;&gt;BB_002E3397 -->
<g id="edge5" class="edge">
<title>BB_002E335D-&gt;BB_002E3397</title>
<path fill="none" stroke="#00ff00" d="M192.821,-251.8431C169.6779,-241.1617 138.9347,-226.9725 114.13,-215.5242"/>
<polygon fill="#00ff00" stroke="#00ff00" points="115.4887,-212.2965 104.9424,-211.2837 112.5552,-218.6522 115.4887,-212.2965"/>
</g>
<!-- BB_002E3384 -->
<g id="node10" class="node">
<title>BB_002E3384</title>
<ellipse fill="none" stroke="#000000" cx="382.0559" cy="-123.6438" rx="68.3883" ry="18"/>
<text text-anchor="middle" x="382.0559" y="-119.4438" font-family="Times,serif" font-size="14.00" fill="#000000">BB_002E3384</text>
</g>
<!-- BB_002E3380&#45;&gt;BB_002E3384 -->
<g id="edge9" class="edge">
<title>BB_002E3380-&gt;BB_002E3384</title>
<path fill="none" stroke="#ff0000" d="M382.0559,-177.4752C382.0559,-169.7748 382.0559,-160.6181 382.0559,-152.0604"/>
<polygon fill="#ff0000" stroke="#ff0000" points="385.556,-152.057 382.0559,-142.0571 378.556,-152.0571 385.556,-152.057"/>
</g>
<!-- BB_002E3391 -->
<g id="node11" class="node">
<title>BB_002E3391</title>
<ellipse fill="none" stroke="#000000" cx="537.0559" cy="-123.6438" rx="68.3883" ry="18"/>
<text text-anchor="middle" x="537.0559" y="-119.4438" font-family="Times,serif" font-size="14.00" fill="#000000">BB_002E3391</text>
</g>
<!-- BB_002E3380&#45;&gt;BB_002E3391 -->
<g id="edge10" class="edge">
<title>BB_002E3380-&gt;BB_002E3391</title>
<path fill="none" stroke="#00ff00" d="M416.0713,-179.8431C438.987,-169.1984 469.4024,-155.07 494.0036,-143.6423"/>
<polygon fill="#00ff00" stroke="#00ff00" points="495.525,-146.7948 503.1198,-139.4076 492.576,-140.4463 495.525,-146.7948"/>
</g>
<!-- BB_002E3373 -->
<g id="node7" class="node">
<title>BB_002E3373</title>
<ellipse fill="none" stroke="#000000" cx="227.0559" cy="-123.6438" rx="68.3883" ry="18"/>
<text text-anchor="middle" x="227.0559" y="-119.4438" font-family="Times,serif" font-size="14.00" fill="#000000">BB_002E3373</text>
</g>
<!-- BB_002E3364&#45;&gt;BB_002E3373 -->
<g id="edge6" class="edge">
<title>BB_002E3364-&gt;BB_002E3373</title>
<path fill="none" stroke="#ff0000" d="M227.0559,-177.4752C227.0559,-169.7748 227.0559,-160.6181 227.0559,-152.0604"/>
<polygon fill="#ff0000" stroke="#ff0000" points="230.556,-152.057 227.0559,-142.0571 223.556,-152.0571 230.556,-152.057"/>
</g>
<!-- BB_002E339C -->
<g id="node8" class="node">
<title>BB_002E339C</title>
<ellipse fill="none" stroke="#000000" cx="70.0559" cy="-123.6438" rx="70.1118" ry="18"/>
<text text-anchor="middle" x="70.0559" y="-119.4438" font-family="Times,serif" font-size="14.00" fill="#000000">BB_002E339C</text>
</g>
<!-- BB_002E3364&#45;&gt;BB_002E339C -->
<g id="edge7" class="edge">
<title>BB_002E3364-&gt;BB_002E339C</title>
<path fill="none" stroke="#00ff00" d="M192.9892,-180.0209C169.7182,-169.3488 138.6793,-155.1144 113.6127,-143.6189"/>
<polygon fill="#00ff00" stroke="#00ff00" points="114.8756,-140.3476 104.3268,-139.3604 111.9575,-146.7104 114.8756,-140.3476"/>
</g>
<!-- BB_002E3397&#45;&gt;BB_002E339C -->
<g id="edge13" class="edge">
<title>BB_002E3397-&gt;BB_002E339C</title>
<path fill="none" stroke="#0000ff" d="M70.8035,-177.4752C70.6966,-169.7748 70.5694,-160.6181 70.4506,-152.0604"/>
<polygon fill="#0000ff" stroke="#0000ff" points="73.9503,-152.0075 70.3116,-142.0571 66.9509,-152.1047 73.9503,-152.0075"/>
</g>
<!-- end -->
<g id="node9" class="node">
<title>end</title>
<polygon fill="none" stroke="#000000" points="400.2711,-53.0371 363.8407,-53.0371 363.8407,-16.6067 400.2711,-16.6067 400.2711,-53.0371"/>
<polyline fill="none" stroke="#000000" points="375.8407,-53.0371 363.8407,-41.0371 "/>
<polyline fill="none" stroke="#000000" points="363.8407,-28.6067 375.8407,-16.6067 "/>
<polyline fill="none" stroke="#000000" points="388.2711,-16.6067 400.2711,-28.6067 "/>
<polyline fill="none" stroke="#000000" points="400.2711,-41.0371 388.2711,-53.0371 "/>
<text text-anchor="middle" x="382.0559" y="-30.6219" font-family="Times,serif" font-size="14.00" fill="#000000">end</text>
</g>
<!-- BB_002E3373&#45;&gt;end -->
<g id="edge8" class="edge">
<title>BB_002E3373-&gt;end</title>
<path fill="none" stroke="#000000" d="M255.8469,-107.1452C284.1634,-90.9186 327.0693,-66.3317 354.8319,-50.4224"/>
<polygon fill="#000000" stroke="#000000" points="356.6874,-53.3932 363.6236,-45.3844 353.207,-47.3197 356.6874,-53.3932"/>
</g>
<!-- dead_end -->
<g id="node12" class="node">
<title>dead_end</title>
<polygon fill="none" stroke="#000000" points="104.7006,-69.4666 35.4112,-69.4666 35.4112,-.1772 104.7006,-.1772 104.7006,-69.4666"/>
<polyline fill="none" stroke="#000000" points="47.4112,-69.4666 35.4112,-57.4666 "/>
<polyline fill="none" stroke="#000000" points="35.4112,-12.1772 47.4112,-.1772 "/>
<polyline fill="none" stroke="#000000" points="92.7006,-.1772 104.7006,-12.1772 "/>
<polyline fill="none" stroke="#000000" points="104.7006,-57.4666 92.7006,-69.4666 "/>
<text text-anchor="middle" x="70.0559" y="-30.6219" font-family="Times,serif" font-size="14.00" fill="#000000">dead_end</text>
</g>
<!-- BB_002E339C&#45;&gt;dead_end -->
<g id="edge14" class="edge">
<title>BB_002E339C-&gt;dead_end</title>
<path fill="none" stroke="#000000" d="M70.0559,-105.2398C70.0559,-97.7822 70.0559,-88.8138 70.0559,-79.8137"/>
<polygon fill="#000000" stroke="#000000" points="73.556,-79.7175 70.0559,-69.7175 66.556,-79.7176 73.556,-79.7175"/>
</g>
<!-- BB_002E3384&#45;&gt;end -->
<g id="edge11" class="edge">
<title>BB_002E3384-&gt;end</title>
<path fill="none" stroke="#000000" d="M382.0559,-105.2398C382.0559,-93.2114 382.0559,-77.2529 382.0559,-63.5696"/>
<polygon fill="#000000" stroke="#000000" points="385.556,-63.2022 382.0559,-53.2023 378.556,-63.2023 385.556,-63.2022"/>
</g>
<!-- BB_002E3391&#45;&gt;end -->
<g id="edge12" class="edge">
<title>BB_002E3391-&gt;end</title>
<path fill="none" stroke="#000000" d="M508.2648,-107.1452C479.9484,-90.9186 437.0425,-66.3317 409.2799,-50.4224"/>
<polygon fill="#000000" stroke="#000000" points="410.9048,-47.3197 400.4882,-45.3844 407.4244,-53.3932 410.9048,-47.3197"/>
</g>
</g>
</svg>