<?xml version="1.0" encoding="UTF-8" standalone="no"?><!DOCTYPE svg PUBLIC "-//W3C//DTD SVG 1.1//EN" "http://www.w3.org/Graphics/SVG/1.1/DTD/svg11.dtd"><!-- Generated by graphviz version 2.40.1 (20161225.0304)
 --><!-- Title: G Pages: 1 --><svg xmlns="http://www.w3.org/2000/svg" xmlns:xlink="http://www.w3.org/1999/xlink" width="310pt" height="332pt" viewBox="0.00 0.00 309.71 332.21">
<g id="graph0" class="graph" transform="scale(1 1) rotate(0) translate(4 328.2146)">
<title>G</title>
<polygon fill="#ffffff" stroke="transparent" points="-4,4 -4,-328.2146 305.7139,-328.2146 305.7139,4 -4,4"/>
<!-- start -->
<g id="node1" class="node">
<title>start</title>
<polygon fill="none" stroke="#000000" points="151.658,-324.2146 112.4207,-306.2146 151.658,-288.2146 190.8953,-306.2146 151.658,-324.2146"/>
<polyline fill="none" stroke="#000000" points="123.3277,-311.2182 123.3277,-301.211 "/>
<polyline fill="none" stroke="#000000" points="140.7509,-293.2182 162.565,-293.2182 "/>
<polyline fill="none" stroke="#000000" points="179.9882,-301.211 179.9882,-311.2182 "/>
<polyline fill="none" stroke="#000000" points="162.565,-319.211 140.7509,-319.211 "/>
<text text-anchor="middle" x="151.658" y="-302.0146" font-family="Times,serif" font-size="14.00" fill="#000000">start</text>
</g>
<!-- BB_002E0150 -->
<g id="node2" class="node">
<title>BB_002E0150</title>
<ellipse fill="none" stroke="#000000" cx="151.658" cy="-234.2146" rx="68.3883" ry="18"/>
<text text-anchor="middle" x="151.658" y="-230.0146" font-family="Times,serif" font-size="14.00" fill="#000000">BB_002E0150</text>
</g>
<!-- start&#45;&gt;BB_002E0150 -->
<g id="edge1" class="edge">
<title>start-&gt;BB_002E0150</title>
<path fill="none" stroke="#000000" d="M151.658,-288.046C151.658,-280.3456 151.658,-271.1889 151.658,-262.6312"/>
<polygon fill="#000000" stroke="#000000" points="155.1581,-262.6278 151.658,-252.6279 148.1581,-262.6279 155.1581,-262.6278"/>
</g>
<!-- BB_002E01DE -->
<g id="node3" class="node">
<title>BB_002E01DE</title>
<ellipse fill="none" stroke="#000000" cx="71.658" cy="-162.2146" rx="71.8163" ry="18"/>
<text text-anchor="middle" x="71.658" y="-158.0146" font-family="Times,serif" font-size="14.00" fill="#000000">BB_002E01DE</text>
</g>
<!-- BB_002E0150&#45;&gt;BB_002E01DE -->
<g id="edge2" class="edge">
<title>BB_002E0150-&gt;BB_002E01DE</title>
<path fill="none" stroke="#ff0000" d="M132.2922,-216.7854C122.2453,-207.7432 109.8067,-196.5484 98.8154,-186.6563"/>
<polygon fill="#ff0000" stroke="#ff0000" points="100.897,-183.821 91.1227,-179.7328 96.2143,-189.0241 100.897,-183.821"/>
</g>
<!-- BB_002E022C -->
<g id="node4" class="node">
<title>BB_002E022C</title>
<ellipse fill="none" stroke="#000000" cx="231.658" cy="-162.2146" rx="70.1118" ry="18"/>
<text text-anchor="middle" x="231.658" y="-158.0146" font-family="Times,serif" font-size="14.00" fill="#000000">BB_002E022C</text>
</g>
<!-- BB_002E0150&#45;&gt;BB_002E022C -->
<g id="edge3" class="edge">
<title>BB_002E0150-&gt;BB_002E022C</title>
<path fill="none" stroke="#00ff00" d="M171.0237,-216.7854C181.0707,-207.7432 193.5093,-196.5484 204.5006,-186.6563"/>
<polygon fill="#00ff00" stroke="#00ff00" points="207.1017,-189.0241 212.1933,-179.7328 202.4189,-183.821 207.1017,-189.0241"/>
</g>
<!-- BB_002E0247 -->
<g id="node5" class="node">
<title>BB_002E0247</title>
<ellipse fill="none" stroke="#000000" cx="151.658" cy="-90.2146" rx="68.3883" ry="18"/>
<text text-anchor="middle" x="151.658" y="-86.0146" font-family="Times,serif" font-size="14.00" fill="#000000">BB_002E0247</text>
</g>
<!-- BB_002E01DE&#45;&gt;BB_002E0247 -->
<g id="edge4" class="edge">
<title>BB_002E01DE-&gt;BB_002E0247</title>
<path fill="none" stroke="#0000ff" d="M91.0237,-144.7854C101.0707,-135.7432 113.5093,-124.5484 124.5006,-114.6563"/>
<polygon fill="#0000ff" stroke="#0000ff" points="127.1017,-117.0241 132.1933,-107.7328 122.4189,-111.821 127.1017,-117.0241"/>
</g>
<!-- BB_002E022C&#45;&gt;BB_002E0247 -->
<g id="edge5" class="edge">
<title>BB_002E022C-&gt;BB_002E0247</title>
<path fill="none" stroke="#0000ff" d="M212.2922,-144.7854C202.2453,-135.7432 189.8067,-124.5484 178.8154,-114.6563"/>
<polygon fill="#0000ff" stroke="#0000ff" points="180.897,-111.821 171.1227,-107.7328 176.2143,-117.0241 180.897,-111.821"/>
</g>
<!-- end -->
<g id="node6" class="node">
<title>end</title>
<polygon fill="none" stroke="#000000" points="169.8732,-36.3225 133.4427,-36.3225 133.4427,.1079 169.8732,.1079 169.8732,-36.3225"/>
<polyline fill="none" stroke="#000000" points="145.4427,-36.3225 133.4427,-24.3225 "/>
<polyline fill="none" stroke="#000000" points="133.4427,-11.8921 145.4427,.1079 "/>
<polyline fill="none" stroke="#000000" points="157.8732,.1079 169.8732,-11.8921 "/>
<polyline fill="none" stroke="#000000" points="169.8732,-24.3225 157.8732,-36.3225 "/>
<text text-anchor="middle" x="151.658" y="-13.9073" font-family="Times,serif" font-size="14.00" fill="#000000">end</text>
</g>
<!-- BB_002E0247&#45;&gt;end -->
<g id="edge6" class="edge">
<title>BB_002E0247-&gt;end</title>
<path fill="none" stroke="#000000" d="M151.658,-72.0189C151.658,-64.2477 151.658,-54.9956 151.658,-46.3686"/>
<polygon fill="#000000" stroke="#000000" points="155.1581,-46.2972 151.658,-36.2972 148.1581,-46.2972 155.1581,-46.2972"/>
</g>
</g>
</svg>