<?xml version="1.0" encoding="UTF-8" standalone="no"?><!DOCTYPE svg PUBLIC "-//W3C//DTD SVG 1.1//EN" "http://www.w3.org/Graphics/SVG/1.1/DTD/svg11.dtd"><!-- Generated by graphviz version 2.40.1 (20161225.0304)
 --><!-- Title: G Pages: 1 --><svg xmlns="http://www.w3.org/2000/svg" xmlns:xlink="http://www.w3.org/1999/xlink" width="528pt" height="1518pt" viewBox="0.00 0.00 528.01 1517.86">
<g id="graph0" class="graph" transform="scale(1 1) rotate(0) translate(4 1513.8584)">
<title>G</title>
<polygon fill="#ffffff" stroke="transparent" points="-4,4 -4,-1513.8584 524.0102,-1513.8584 524.0102,4 -4,4"/>
<!-- start -->
<g id="node1" class="node">
<title>start</title>
<polygon fill="none" stroke="#000000" points="330.2707,-1509.8584 291.0334,-1491.8584 330.2707,-1473.8584 369.508,-1491.8584 330.2707,-1509.8584"/>
<polyline fill="none" stroke="#000000" points="301.9404,-1496.862 301.9404,-1486.8548 "/>
<polyline fill="none" stroke="#000000" points="319.3636,-1478.862 341.1778,-1478.862 "/>
<polyline fill="none" stroke="#000000" points="358.6009,-1486.8548 358.6009,-1496.862 "/>
<polyline fill="none" stroke="#000000" points="341.1778,-1504.8548 319.3636,-1504.8548 "/>
<text text-anchor="middle" x="330.2707" y="-1487.6584" font-family="Times,serif" font-size="14.00" fill="#000000">start</text>
</g>
<!-- BB_002DC8E0 -->
<g id="node2" class="node">
<title>BB_002DC8E0</title>
<ellipse fill="none" stroke="#000000" cx="330.2707" cy="-1419.8584" rx="72.3981" ry="18"/>
<text text-anchor="middle" x="330.2707" y="-1415.6584" font-family="Times,serif" font-size="14.00" fill="#000000">BB_002DC8E0</text>
</g>
<!-- start&#45;&gt;BB_002DC8E0 -->
<g id="edge1" class="edge">
<title>start-&gt;BB_002DC8E0</title>
<path fill="none" stroke="#000000" d="M330.2707,-1473.6898C330.2707,-1465.9894 330.2707,-1456.8327 330.2707,-1448.275"/>
<polygon fill="#000000" stroke="#000000" points="333.7708,-1448.2716 330.2707,-1438.2717 326.7708,-1448.2717 333.7708,-1448.2716"/>
</g>
<!-- BB_002DC958 -->
<g id="node3" class="node">
<title>BB_002DC958</title>
<ellipse fill="none" stroke="#000000" cx="281.2707" cy="-1347.8584" rx="71.2559" ry="18"/>
<text text-anchor="middle" x="281.2707" y="-1343.6584" font-family="Times,serif" font-size="14.00" fill="#000000">BB_002DC958</text>
</g>
<!-- BB_002DC8E0&#45;&gt;BB_002DC958 -->
<g id="edge2" class="edge">
<title>BB_002DC8E0-&gt;BB_002DC958</title>
<path fill="none" stroke="#ff0000" d="M318.1583,-1402.0606C312.4455,-1393.6663 305.5133,-1383.4802 299.2073,-1374.2142"/>
<polygon fill="#ff0000" stroke="#ff0000" points="301.9333,-1371.9989 293.4135,-1365.7009 296.1463,-1375.9373 301.9333,-1371.9989"/>
</g>
<!-- BB_002DCC11 -->
<g id="node4" class="node">
<title>BB_002DCC11</title>
<ellipse fill="none" stroke="#000000" cx="447.2707" cy="-1275.8584" rx="72.9799" ry="18"/>
<text text-anchor="middle" x="447.2707" y="-1271.6584" font-family="Times,serif" font-size="14.00" fill="#000000">BB_002DCC11</text>
</g>
<!-- BB_002DC8E0&#45;&gt;BB_002DCC11 -->
<g id="edge3" class="edge">
<title>BB_002DC8E0-&gt;BB_002DCC11</title>
<path fill="none" stroke="#00ff00" d="M344.6172,-1402.2012C365.0552,-1377.0467 402.6831,-1330.7354 426.2643,-1301.7125"/>
<polygon fill="#00ff00" stroke="#00ff00" points="429.2173,-1303.6283 432.8068,-1293.6601 423.7845,-1299.2141 429.2173,-1303.6283"/>
</g>
<!-- BB_002DC9AB -->
<g id="node5" class="node">
<title>BB_002DC9AB</title>
<ellipse fill="none" stroke="#000000" cx="281.2707" cy="-1275.8584" rx="74.765" ry="18"/>
<text text-anchor="middle" x="281.2707" y="-1271.6584" font-family="Times,serif" font-size="14.00" fill="#000000">BB_002DC9AB</text>
</g>
<!-- BB_002DC958&#45;&gt;BB_002DC9AB -->
<g id="edge4" class="edge">
<title>BB_002DC958-&gt;BB_002DC9AB</title>
<path fill="none" stroke="#ff0000" d="M281.2707,-1329.6898C281.2707,-1321.9894 281.2707,-1312.8327 281.2707,-1304.275"/>
<polygon fill="#ff0000" stroke="#ff0000" points="284.7708,-1304.2716 281.2707,-1294.2717 277.7708,-1304.2717 284.7708,-1304.2716"/>
</g>
<!-- BB_002DCA2B -->
<g id="node6" class="node">
<title>BB_002DCA2B</title>
<ellipse fill="none" stroke="#000000" cx="198.2707" cy="-1059.8584" rx="74.765" ry="18"/>
<text text-anchor="middle" x="198.2707" y="-1055.6584" font-family="Times,serif" font-size="14.00" fill="#000000">BB_002DCA2B</text>
</g>
<!-- BB_002DC958&#45;&gt;BB_002DCA2B -->
<g id="edge5" class="edge">
<title>BB_002DC958-&gt;BB_002DCA2B</title>
<path fill="none" stroke="#00ff00" d="M241.5889,-1332.6849C224.7457,-1324.0319 206.8244,-1311.3576 197.2707,-1293.8584 161.0596,-1227.5318 177.9988,-1134.0504 189.9675,-1087.8931"/>
<polygon fill="#00ff00" stroke="#00ff00" points="193.41,-1088.5708 192.6465,-1078.0036 186.6535,-1086.7405 193.41,-1088.5708"/>
</g>
<!-- BB_002DCC16 -->
<g id="node18" class="node">
<title>BB_002DCC16</title>
<ellipse fill="none" stroke="#000000" cx="344.2707" cy="-483.8584" rx="72.9799" ry="18"/>
<text text-anchor="middle" x="344.2707" y="-479.6584" font-family="Times,serif" font-size="14.00" fill="#000000">BB_002DCC16</text>
</g>
<!-- BB_002DCC11&#45;&gt;BB_002DCC16 -->
<g id="edge24" class="edge">
<title>BB_002DCC11-&gt;BB_002DCC16</title>
<path fill="none" stroke="#0000ff" d="M447.2707,-1257.673C447.2707,-1230.3567 447.2707,-1177.1084 447.2707,-1131.8584 447.2707,-1131.8584 447.2707,-1131.8584 447.2707,-627.8584 447.2707,-586.9768 451.4808,-571.5125 428.2707,-537.8584 418.734,-524.0304 404.3834,-512.9343 390.2291,-504.483"/>
<polygon fill="#0000ff" stroke="#0000ff" points="391.9173,-501.4169 381.4861,-499.5618 388.4837,-507.517 391.9173,-501.4169"/>
</g>
<!-- BB_002DC9B0 -->
<g id="node7" class="node">
<title>BB_002DC9B0</title>
<ellipse fill="none" stroke="#000000" cx="290.2707" cy="-1203.8584" rx="72.9799" ry="18"/>
<text text-anchor="middle" x="290.2707" y="-1199.6584" font-family="Times,serif" font-size="14.00" fill="#000000">BB_002DC9B0</text>
</g>
<!-- BB_002DC9AB&#45;&gt;BB_002DC9B0 -->
<g id="edge6" class="edge">
<title>BB_002DC9AB-&gt;BB_002DC9B0</title>
<path fill="none" stroke="#0000ff" d="M283.5418,-1257.6898C284.5043,-1249.9894 285.6489,-1240.8327 286.7186,-1232.275"/>
<polygon fill="#0000ff" stroke="#0000ff" points="290.2016,-1232.6286 287.969,-1222.2717 283.2556,-1231.7603 290.2016,-1232.6286"/>
</g>
<!-- BB_002DCA91 -->
<g id="node9" class="node">
<title>BB_002DCA91</title>
<ellipse fill="none" stroke="#000000" cx="251.2707" cy="-987.8584" rx="73.0421" ry="18"/>
<text text-anchor="middle" x="251.2707" y="-983.6584" font-family="Times,serif" font-size="14.00" fill="#000000">BB_002DCA91</text>
</g>
<!-- BB_002DCA2B&#45;&gt;BB_002DCA91 -->
<g id="edge11" class="edge">
<title>BB_002DCA2B-&gt;BB_002DCA91</title>
<path fill="none" stroke="#ff0000" d="M211.3718,-1042.0606C217.6147,-1033.5798 225.2039,-1023.2699 232.0806,-1013.928"/>
<polygon fill="#ff0000" stroke="#ff0000" points="235.0271,-1015.8292 238.1366,-1005.7009 229.3897,-1011.6795 235.0271,-1015.8292"/>
</g>
<!-- BB_002DCB96 -->
<g id="node10" class="node">
<title>BB_002DCB96</title>
<ellipse fill="none" stroke="#000000" cx="180.2707" cy="-771.8584" rx="72.9799" ry="18"/>
<text text-anchor="middle" x="180.2707" y="-767.6584" font-family="Times,serif" font-size="14.00" fill="#000000">BB_002DCB96</text>
</g>
<!-- BB_002DCA2B&#45;&gt;BB_002DCB96 -->
<g id="edge12" class="edge">
<title>BB_002DCA2B-&gt;BB_002DCB96</title>
<path fill="none" stroke="#00ff00" d="M185.7293,-1041.7819C179.4855,-1031.7011 172.5782,-1018.6325 169.2707,-1005.8584 165.8118,-992.5 166.0825,-845.7919 168.2707,-825.8584 169.1991,-817.4009 170.9221,-808.3299 172.7785,-800.083"/>
<polygon fill="#00ff00" stroke="#00ff00" points="176.2234,-800.7262 175.1516,-790.1857 169.4163,-799.094 176.2234,-800.7262"/>
</g>
<!-- BB_002DC9B0&#45;&gt;BB_002DCA2B -->
<g id="edge8" class="edge">
<title>BB_002DC9B0-&gt;BB_002DCA2B</title>
<path fill="none" stroke="#00ff00" d="M258.6383,-1187.5764C243.896,-1178.4202 227.4093,-1165.6421 217.2707,-1149.8584 205.4556,-1131.465 200.8436,-1107.0075 199.1095,-1088.231"/>
<polygon fill="#00ff00" stroke="#00ff00" points="202.5963,-1087.9193 198.4015,-1078.1903 195.6137,-1088.4118 202.5963,-1087.9193"/>
</g>
<!-- BB_002DCA20 -->
<g id="node8" class="node">
<title>BB_002DCA20</title>
<ellipse fill="none" stroke="#000000" cx="299.2707" cy="-1131.8584" rx="73.0421" ry="18"/>
<text text-anchor="middle" x="299.2707" y="-1127.6584" font-family="Times,serif" font-size="14.00" fill="#000000">BB_002DCA20</text>
</g>
<!-- BB_002DC9B0&#45;&gt;BB_002DCA20 -->
<g id="edge7" class="edge">
<title>BB_002DC9B0-&gt;BB_002DCA20</title>
<path fill="none" stroke="#ff0000" d="M286.5894,-1185.6898C286.8071,-1177.785 287.7747,-1168.3456 289.2142,-1159.5949"/>
<polygon fill="#ff0000" stroke="#ff0000" points="292.6517,-1160.253 291.1042,-1149.7718 285.7778,-1158.9304 292.6517,-1160.253"/>
</g>
<!-- BB_002DCA20&#45;&gt;BB_002DCA2B -->
<g id="edge9" class="edge">
<title>BB_002DCA20-&gt;BB_002DCA2B</title>
<path fill="none" stroke="#ff0000" d="M275.3351,-1114.7954C261.9739,-1105.2706 245.1443,-1093.2733 230.6236,-1082.9219"/>
<polygon fill="#ff0000" stroke="#ff0000" points="232.559,-1080.0032 222.3845,-1077.0484 228.4956,-1085.7032 232.559,-1080.0032"/>
</g>
<!-- BB_002DCA20&#45;&gt;BB_002DC9B0 -->
<g id="edge10" class="edge">
<title>BB_002DCA20-&gt;BB_002DC9B0</title>
<path fill="none" stroke="#00ff00" d="M302.945,-1150.2717C302.7179,-1158.0026 301.7819,-1167.1681 300.394,-1175.7129"/>
<polygon fill="#00ff00" stroke="#00ff00" points="296.9267,-1175.2115 298.4942,-1185.6898 303.8031,-1176.521 296.9267,-1175.2115"/>
</g>
<!-- BB_002DCAE7 -->
<g id="node11" class="node">
<title>BB_002DCAE7</title>
<ellipse fill="none" stroke="#000000" cx="251.2707" cy="-915.8584" rx="74.1836" ry="18"/>
<text text-anchor="middle" x="251.2707" y="-911.6584" font-family="Times,serif" font-size="14.00" fill="#000000">BB_002DCAE7</text>
</g>
<!-- BB_002DCA91&#45;&gt;BB_002DCAE7 -->
<g id="edge13" class="edge">
<title>BB_002DCA91-&gt;BB_002DCAE7</title>
<path fill="none" stroke="#ff0000" d="M251.2707,-969.6898C251.2707,-961.9894 251.2707,-952.8327 251.2707,-944.275"/>
<polygon fill="#ff0000" stroke="#ff0000" points="254.7708,-944.2716 251.2707,-934.2717 247.7708,-944.2717 254.7708,-944.2716"/>
</g>
<!-- BB_002DCAF8 -->
<g id="node12" class="node">
<title>BB_002DCAF8</title>
<ellipse fill="none" stroke="#000000" cx="251.2707" cy="-843.8584" rx="73.6215" ry="18"/>
<text text-anchor="middle" x="251.2707" y="-839.6584" font-family="Times,serif" font-size="14.00" fill="#000000">BB_002DCAF8</text>
</g>
<!-- BB_002DCA91&#45;&gt;BB_002DCAF8 -->
<g id="edge14" class="edge">
<title>BB_002DCA91-&gt;BB_002DCAF8</title>
<path fill="none" stroke="#00ff00" d="M290.4928,-972.5745C307.1382,-963.8983 324.8447,-951.2363 334.2707,-933.8584 341.8993,-919.7941 341.8993,-911.9227 334.2707,-897.8584 326.5384,-883.6031 313.2341,-872.5212 299.5143,-864.2096"/>
<polygon fill="#00ff00" stroke="#00ff00" points="300.9257,-860.9881 290.4928,-859.1423 297.4975,-867.0912 300.9257,-860.9881"/>
</g>
<!-- BB_002DCBA1 -->
<g id="node13" class="node">
<title>BB_002DCBA1</title>
<ellipse fill="none" stroke="#000000" cx="318.2707" cy="-699.8584" rx="74.765" ry="18"/>
<text text-anchor="middle" x="318.2707" y="-695.6584" font-family="Times,serif" font-size="14.00" fill="#000000">BB_002DCBA1</text>
</g>
<!-- BB_002DCB96&#45;&gt;BB_002DCBA1 -->
<g id="edge17" class="edge">
<title>BB_002DCB96-&gt;BB_002DCBA1</title>
<path fill="none" stroke="#ff0000" d="M211.585,-755.5205C231.1197,-745.3285 256.4677,-732.1034 277.554,-721.1019"/>
<polygon fill="#ff0000" stroke="#ff0000" points="279.3557,-724.1097 286.6026,-716.3809 276.1177,-717.9036 279.3557,-724.1097"/>
</g>
<!-- BB_002DCBB5 -->
<g id="node14" class="node">
<title>BB_002DCBB5</title>
<ellipse fill="none" stroke="#000000" cx="151.2707" cy="-699.8584" rx="74.2029" ry="18"/>
<text text-anchor="middle" x="151.2707" y="-695.6584" font-family="Times,serif" font-size="14.00" fill="#000000">BB_002DCBB5</text>
</g>
<!-- BB_002DCB96&#45;&gt;BB_002DCBB5 -->
<g id="edge18" class="edge">
<title>BB_002DCB96-&gt;BB_002DCBB5</title>
<path fill="none" stroke="#00ff00" d="M172.9528,-753.6898C169.783,-745.8201 166.0007,-736.4296 162.4894,-727.7117"/>
<polygon fill="#00ff00" stroke="#00ff00" points="165.6699,-726.2399 158.6871,-718.2717 159.1768,-728.8552 165.6699,-726.2399"/>
</g>
<!-- BB_002DCAE7&#45;&gt;BB_002DCAF8 -->
<g id="edge15" class="edge">
<title>BB_002DCAE7-&gt;BB_002DCAF8</title>
<path fill="none" stroke="#0000ff" d="M251.2707,-897.6898C251.2707,-889.9894 251.2707,-880.8327 251.2707,-872.275"/>
<polygon fill="#0000ff" stroke="#0000ff" points="254.7708,-872.2716 251.2707,-862.2717 247.7708,-872.2717 254.7708,-872.2716"/>
</g>
<!-- BB_002DCAF8&#45;&gt;BB_002DCB96 -->
<g id="edge16" class="edge">
<title>BB_002DCAF8-&gt;BB_002DCB96</title>
<path fill="none" stroke="#0000ff" d="M233.7201,-826.0606C224.9502,-817.1672 214.1971,-806.2626 204.641,-796.5719"/>
<polygon fill="#0000ff" stroke="#0000ff" points="207.133,-794.1143 197.6194,-789.4514 202.1487,-799.0293 207.133,-794.1143"/>
</g>
<!-- BB_002DCBD5 -->
<g id="node15" class="node">
<title>BB_002DCBD5</title>
<ellipse fill="none" stroke="#000000" cx="292.2707" cy="-627.8584" rx="74.765" ry="18"/>
<text text-anchor="middle" x="292.2707" y="-623.6584" font-family="Times,serif" font-size="14.00" fill="#000000">BB_002DCBD5</text>
</g>
<!-- BB_002DCBA1&#45;&gt;BB_002DCBD5 -->
<g id="edge19" class="edge">
<title>BB_002DCBA1-&gt;BB_002DCBD5</title>
<path fill="none" stroke="#0000ff" d="M311.7098,-681.6898C308.868,-673.8201 305.4769,-664.4296 302.3288,-655.7117"/>
<polygon fill="#0000ff" stroke="#0000ff" points="305.6084,-654.4884 298.9199,-646.2717 299.0245,-656.866 305.6084,-654.4884"/>
</g>
<!-- BB_002DCBB5&#45;&gt;BB_002DCBD5 -->
<g id="edge20" class="edge">
<title>BB_002DCBB5-&gt;BB_002DCBD5</title>
<path fill="none" stroke="#0000ff" d="M183.2658,-683.5205C203.3146,-673.2828 229.3565,-659.9848 250.9584,-648.954"/>
<polygon fill="#0000ff" stroke="#0000ff" points="252.5998,-652.0458 259.9141,-644.3809 249.4163,-645.8116 252.5998,-652.0458"/>
</g>
<!-- BB_002DCC0A -->
<g id="node16" class="node">
<title>BB_002DCC0A</title>
<ellipse fill="none" stroke="#000000" cx="344.2707" cy="-555.8584" rx="74.765" ry="18"/>
<text text-anchor="middle" x="344.2707" y="-551.6584" font-family="Times,serif" font-size="14.00" fill="#000000">BB_002DCC0A</text>
</g>
<!-- BB_002DCBD5&#45;&gt;BB_002DCC0A -->
<g id="edge21" class="edge">
<title>BB_002DCBD5-&gt;BB_002DCC0A</title>
<path fill="none" stroke="#ff0000" d="M305.1246,-610.0606C311.2497,-601.5798 318.6957,-591.2699 325.4427,-581.928"/>
<polygon fill="#ff0000" stroke="#ff0000" points="328.3668,-583.857 331.3844,-573.7009 322.6921,-579.7585 328.3668,-583.857"/>
</g>
<!-- BB_002DCC45 -->
<g id="node17" class="node">
<title>BB_002DCC45</title>
<ellipse fill="none" stroke="#000000" cx="292.2707" cy="-411.8584" rx="72.9799" ry="18"/>
<text text-anchor="middle" x="292.2707" y="-407.6584" font-family="Times,serif" font-size="14.00" fill="#000000">BB_002DCC45</text>
</g>
<!-- BB_002DCBD5&#45;&gt;BB_002DCC45 -->
<g id="edge22" class="edge">
<title>BB_002DCBD5-&gt;BB_002DCC45</title>
<path fill="none" stroke="#00ff00" d="M278.3695,-609.9879C271.4616,-599.9674 263.8421,-586.8908 260.2707,-573.8584 256.1999,-559.0038 257.2368,-484.2303 262.2707,-465.8584 264.8515,-456.4395 269.3922,-446.8887 274.1719,-438.4917"/>
<polygon fill="#00ff00" stroke="#00ff00" points="277.1915,-440.262 279.3708,-429.8937 271.2014,-436.6399 277.1915,-440.262"/>
</g>
<!-- BB_002DCC0A&#45;&gt;BB_002DCC16 -->
<g id="edge23" class="edge">
<title>BB_002DCC0A-&gt;BB_002DCC16</title>
<path fill="none" stroke="#0000ff" d="M344.2707,-537.6898C344.2707,-529.9894 344.2707,-520.8327 344.2707,-512.275"/>
<polygon fill="#0000ff" stroke="#0000ff" points="347.7708,-512.2716 344.2707,-502.2717 340.7708,-512.2717 347.7708,-512.2716"/>
</g>
<!-- BB_002DCCA4 -->
<g id="node19" class="node">
<title>BB_002DCCA4</title>
<ellipse fill="none" stroke="#000000" cx="240.2707" cy="-339.8584" rx="74.765" ry="18"/>
<text text-anchor="middle" x="240.2707" y="-335.6584" font-family="Times,serif" font-size="14.00" fill="#000000">BB_002DCCA4</text>
</g>
<!-- BB_002DCC45&#45;&gt;BB_002DCCA4 -->
<g id="edge26" class="edge">
<title>BB_002DCC45-&gt;BB_002DCCA4</title>
<path fill="none" stroke="#ff0000" d="M279.4168,-394.0606C273.2917,-385.5798 265.8457,-375.2699 259.0987,-365.928"/>
<polygon fill="#ff0000" stroke="#ff0000" points="261.8493,-363.7585 253.157,-357.7009 256.1745,-367.857 261.8493,-363.7585"/>
</g>
<!-- BB_002DCCD5 -->
<g id="node20" class="node">
<title>BB_002DCCD5</title>
<ellipse fill="none" stroke="#000000" cx="292.2707" cy="-107.0365" rx="74.765" ry="18"/>
<text text-anchor="middle" x="292.2707" y="-102.8365" font-family="Times,serif" font-size="14.00" fill="#000000">BB_002DCCD5</text>
</g>
<!-- BB_002DCC45&#45;&gt;BB_002DCCD5 -->
<g id="edge27" class="edge">
<title>BB_002DCC45-&gt;BB_002DCCD5</title>
<path fill="none" stroke="#00ff00" d="M306.1358,-393.9779C313.0332,-383.9546 320.654,-370.8783 324.2707,-357.8584 345.6827,-280.7758 342.5749,-255.9658 325.2707,-177.8584 321.9039,-162.6614 314.925,-146.8586 308.2486,-134.0466"/>
<polygon fill="#00ff00" stroke="#00ff00" points="311.121,-132.0025 303.267,-124.8917 304.9724,-135.3484 311.121,-132.0025"/>
</g>
<!-- BB_002DCC16&#45;&gt;BB_002DCC45 -->
<g id="edge25" class="edge">
<title>BB_002DCC16-&gt;BB_002DCC45</title>
<path fill="none" stroke="#0000ff" d="M331.4168,-466.0606C325.2917,-457.5798 317.8457,-447.2699 311.0987,-437.928"/>
<polygon fill="#0000ff" stroke="#0000ff" points="313.8493,-435.7585 305.157,-429.7009 308.1745,-439.857 313.8493,-435.7585"/>
</g>
<!-- BB_002DCCBB -->
<g id="node21" class="node">
<title>BB_002DCCBB</title>
<ellipse fill="none" stroke="#000000" cx="136.2707" cy="-267.8584" rx="75.9261" ry="18"/>
<text text-anchor="middle" x="136.2707" y="-263.6584" font-family="Times,serif" font-size="14.00" fill="#000000">BB_002DCCBB</text>
</g>
<!-- BB_002DCCA4&#45;&gt;BB_002DCCBB -->
<g id="edge28" class="edge">
<title>BB_002DCCA4-&gt;BB_002DCCBB</title>
<path fill="none" stroke="#ff0000" d="M215.6241,-322.7954C201.866,-313.2706 184.5366,-301.2733 169.5846,-290.9219"/>
<polygon fill="#ff0000" stroke="#ff0000" points="171.3149,-287.8629 161.1007,-285.0484 167.3304,-293.6183 171.3149,-287.8629"/>
</g>
<!-- BB_002DCCCB -->
<g id="node22" class="node">
<title>BB_002DCCCB</title>
<ellipse fill="none" stroke="#000000" cx="240.2707" cy="-195.8584" rx="75.9261" ry="18"/>
<text text-anchor="middle" x="240.2707" y="-191.6584" font-family="Times,serif" font-size="14.00" fill="#000000">BB_002DCCCB</text>
</g>
<!-- BB_002DCCA4&#45;&gt;BB_002DCCCB -->
<g id="edge29" class="edge">
<title>BB_002DCCA4-&gt;BB_002DCCCB</title>
<path fill="none" stroke="#00ff00" d="M240.2707,-321.6207C240.2707,-297.0594 240.2707,-253.1058 240.2707,-224.2125"/>
<polygon fill="#00ff00" stroke="#00ff00" points="243.7708,-223.948 240.2707,-213.948 236.7708,-223.9481 243.7708,-223.948"/>
</g>
<!-- end -->
<g id="node24" class="node">
<title>end</title>
<polygon fill="none" stroke="#000000" points="310.4859,-36.3225 274.0554,-36.3225 274.0554,.1079 310.4859,.1079 310.4859,-36.3225"/>
<polyline fill="none" stroke="#000000" points="286.0554,-36.3225 274.0554,-24.3225 "/>
<polyline fill="none" stroke="#000000" points="274.0554,-11.8921 286.0554,.1079 "/>
<polyline fill="none" stroke="#000000" points="298.4859,.1079 310.4859,-11.8921 "/>
<polyline fill="none" stroke="#000000" points="310.4859,-24.3225 298.4859,-36.3225 "/>
<text text-anchor="middle" x="292.2707" y="-13.9073" font-family="Times,serif" font-size="14.00" fill="#000000">end</text>
</g>
<!-- BB_002DCCD5&#45;&gt;end -->
<g id="edge33" class="edge">
<title>BB_002DCCD5-&gt;end</title>
<path fill="none" stroke="#000000" d="M292.2707,-88.6103C292.2707,-76.5673 292.2707,-60.5896 292.2707,-46.8898"/>
<polygon fill="#000000" stroke="#000000" points="295.7708,-46.5098 292.2707,-36.5099 288.7708,-46.5099 295.7708,-46.5098"/>
</g>
<!-- BB_002DCCBB&#45;&gt;BB_002DCCCB -->
<g id="edge30" class="edge">
<title>BB_002DCCBB-&gt;BB_002DCCCB</title>
<path fill="none" stroke="#ff0000" d="M160.9172,-250.7954C174.6754,-241.2706 192.0048,-229.2733 206.9568,-218.9219"/>
<polygon fill="#ff0000" stroke="#ff0000" points="209.2109,-221.6183 215.4406,-213.0484 205.2265,-215.8629 209.2109,-221.6183"/>
</g>
<!-- BB_002DCD29 -->
<g id="node23" class="node">
<title>BB_002DCD29</title>
<ellipse fill="none" stroke="#000000" cx="73.2707" cy="-195.8584" rx="73.0421" ry="18"/>
<text text-anchor="middle" x="73.2707" y="-191.6584" font-family="Times,serif" font-size="14.00" fill="#000000">BB_002DCD29</text>
</g>
<!-- BB_002DCCBB&#45;&gt;BB_002DCD29 -->
<g id="edge31" class="edge">
<title>BB_002DCCBB-&gt;BB_002DCD29</title>
<path fill="none" stroke="#00ff00" d="M120.6977,-250.0606C113.1254,-241.4067 103.8869,-230.8484 95.5822,-221.3572"/>
<polygon fill="#00ff00" stroke="#00ff00" points="98.102,-218.922 88.8829,-213.7009 92.834,-223.5315 98.102,-218.922"/>
</g>
<!-- BB_002DCCCB&#45;&gt;BB_002DCCD5 -->
<g id="edge32" class="edge">
<title>BB_002DCCCB-&gt;BB_002DCCD5</title>
<path fill="none" stroke="#0000ff" d="M250.7937,-177.884C258.1943,-165.2428 268.2254,-148.1086 276.5688,-133.8571"/>
<polygon fill="#0000ff" stroke="#0000ff" points="279.7315,-135.3824 281.7634,-124.9842 273.6906,-131.8458 279.7315,-135.3824"/>
</g>
<!-- dead_end -->
<g id="node25" class="node">
<title>dead_end</title>
<polygon fill="none" stroke="#000000" points="107.9154,-141.6812 38.626,-141.6812 38.626,-72.3918 107.9154,-72.3918 107.9154,-141.6812"/>
<polyline fill="none" stroke="#000000" points="50.626,-141.6812 38.626,-129.6812 "/>
<polyline fill="none" stroke="#000000" points="38.626,-84.3918 50.626,-72.3918 "/>
<polyline fill="none" stroke="#000000" points="95.9154,-72.3918 107.9154,-84.3918 "/>
<polyline fill="none" stroke="#000000" points="107.9154,-129.6812 95.9154,-141.6812 "/>
<text text-anchor="middle" x="73.2707" y="-102.8365" font-family="Times,serif" font-size="14.00" fill="#000000">dead_end</text>
</g>
<!-- BB_002DCD29&#45;&gt;dead_end -->
<g id="edge34" class="edge">
<title>BB_002DCD29-&gt;dead_end</title>
<path fill="none" stroke="#000000" d="M73.2707,-177.4544C73.2707,-169.9968 73.2707,-161.0284 73.2707,-152.0283"/>
<polygon fill="#000000" stroke="#000000" points="76.7708,-151.9321 73.2707,-141.9321 69.7708,-151.9322 76.7708,-151.9321"/>
</g>
</g>
</svg>