<?xml version="1.0" encoding="UTF-8" standalone="no"?><!DOCTYPE svg PUBLIC "-//W3C//DTD SVG 1.1//EN" "http://www.w3.org/Graphics/SVG/1.1/DTD/svg11.dtd"><!-- Generated by graphviz version 2.40.1 (20161225.0304)
 --><!-- Title: G Pages: 1 --><svg xmlns="http://www.w3.org/2000/svg" xmlns:xlink="http://www.w3.org/1999/xlink" width="411pt" height="908pt" viewBox="0.00 0.00 411.00 908.21">
<g id="graph0" class="graph" transform="scale(1 1) rotate(0) translate(4 904.2146)">
<title>G</title>
<polygon fill="#ffffff" stroke="transparent" points="-4,4 -4,-904.2146 407,-904.2146 407,4 -4,4"/>
<!-- start -->
<g id="node1" class="node">
<title>start</title>
<polygon fill="none" stroke="#000000" points="232,-900.2146 192.7627,-882.2146 232,-864.2146 271.2373,-882.2146 232,-900.2146"/>
<polyline fill="none" stroke="#000000" points="203.6698,-887.2182 203.6698,-877.211 "/>
<polyline fill="none" stroke="#000000" points="221.0929,-869.2182 242.9071,-869.2182 "/>
<polyline fill="none" stroke="#000000" points="260.3302,-877.211 260.3302,-887.2182 "/>
<polyline fill="none" stroke="#000000" points="242.9071,-895.211 221.0929,-895.211 "/>
<text text-anchor="middle" x="232" y="-878.0146" font-family="Times,serif" font-size="14.00" fill="#000000">start</text>
</g>
<!-- BB_002DFE80 -->
<g id="node2" class="node">
<title>BB_002DFE80</title>
<ellipse fill="none" stroke="#000000" cx="232" cy="-810.2146" rx="71.2539" ry="18"/>
<text text-anchor="middle" x="232" y="-806.0146" font-family="Times,serif" font-size="14.00" fill="#000000">BB_002DFE80</text>
</g>
<!-- start&#45;&gt;BB_002DFE80 -->
<g id="edge1" class="edge">
<title>start-&gt;BB_002DFE80</title>
<path fill="none" stroke="#000000" d="M232,-864.046C232,-856.3456 232,-847.1889 232,-838.6312"/>
<polygon fill="#000000" stroke="#000000" points="235.5001,-838.6278 232,-828.6279 228.5001,-838.6279 235.5001,-838.6278"/>
</g>
<!-- BB_002DFED0 -->
<g id="node3" class="node">
<title>BB_002DFED0</title>
<ellipse fill="none" stroke="#000000" cx="162" cy="-738.2146" rx="73.0402" ry="18"/>
<text text-anchor="middle" x="162" y="-734.0146" font-family="Times,serif" font-size="14.00" fill="#000000">BB_002DFED0</text>
</g>
<!-- BB_002DFE80&#45;&gt;BB_002DFED0 -->
<g id="edge2" class="edge">
<title>BB_002DFE80-&gt;BB_002DFED0</title>
<path fill="none" stroke="#ff0000" d="M214.6966,-792.4168C206.135,-783.6106 195.6562,-772.8325 186.3045,-763.2135"/>
<polygon fill="#ff0000" stroke="#ff0000" points="188.5846,-760.5378 179.1043,-755.8076 183.5657,-765.4174 188.5846,-760.5378"/>
</g>
<!-- BB_002E004B -->
<g id="node4" class="node">
<title>BB_002E004B</title>
<ellipse fill="none" stroke="#000000" cx="150" cy="-90.2146" rx="70.1118" ry="18"/>
<text text-anchor="middle" x="150" y="-86.0146" font-family="Times,serif" font-size="14.00" fill="#000000">BB_002E004B</text>
</g>
<!-- BB_002DFE80&#45;&gt;BB_002E004B -->
<g id="edge3" class="edge">
<title>BB_002DFE80-&gt;BB_002E004B</title>
<path fill="none" stroke="#00ff00" d="M274.7094,-795.6169C325.3584,-775.2715 403,-733.1648 403,-666.2146 403,-666.2146 403,-666.2146 403,-234.2146 403,-150.6584 297.4814,-114.9669 222.734,-100.1659"/>
<polygon fill="#00ff00" stroke="#00ff00" points="223.3411,-96.7188 212.8644,-98.2962 222.0382,-103.5965 223.3411,-96.7188"/>
</g>
<!-- BB_002DFED0&#45;&gt;BB_002E004B -->
<g id="edge5" class="edge">
<title>BB_002DFED0-&gt;BB_002E004B</title>
<path fill="none" stroke="#00ff00" d="M121.5384,-722.9663C73.5552,-701.9417 0,-659.1263 0,-594.2146 0,-594.2146 0,-594.2146 0,-234.2146 0,-175.5728 60.3984,-133.371 104.5434,-110.3577"/>
<polygon fill="#00ff00" stroke="#00ff00" points="106.3405,-113.3712 113.6892,-105.7391 103.1851,-107.1227 106.3405,-113.3712"/>
</g>
<!-- BB_002DFEFC -->
<g id="node5" class="node">
<title>BB_002DFEFC</title>
<ellipse fill="none" stroke="#000000" cx="162" cy="-666.2146" rx="73.0575" ry="18"/>
<text text-anchor="middle" x="162" y="-662.0146" font-family="Times,serif" font-size="14.00" fill="#000000">BB_002DFEFC</text>
</g>
<!-- BB_002DFED0&#45;&gt;BB_002DFEFC -->
<g id="edge4" class="edge">
<title>BB_002DFED0-&gt;BB_002DFEFC</title>
<path fill="none" stroke="#ff0000" d="M162,-720.046C162,-712.3456 162,-703.1889 162,-694.6312"/>
<polygon fill="#ff0000" stroke="#ff0000" points="165.5001,-694.6278 162,-684.6279 158.5001,-694.6279 165.5001,-694.6278"/>
</g>
<!-- end -->
<g id="node14" class="node">
<title>end</title>
<polygon fill="none" stroke="#000000" points="168.2152,-36.3225 131.7848,-36.3225 131.7848,.1079 168.2152,.1079 168.2152,-36.3225"/>
<polyline fill="none" stroke="#000000" points="143.7848,-36.3225 131.7848,-24.3225 "/>
<polyline fill="none" stroke="#000000" points="131.7848,-11.8921 143.7848,.1079 "/>
<polyline fill="none" stroke="#000000" points="156.2152,.1079 168.2152,-11.8921 "/>
<polyline fill="none" stroke="#000000" points="168.2152,-24.3225 156.2152,-36.3225 "/>
<text text-anchor="middle" x="150" y="-13.9073" font-family="Times,serif" font-size="14.00" fill="#000000">end</text>
</g>
<!-- BB_002E004B&#45;&gt;end -->
<g id="edge19" class="edge">
<title>BB_002E004B-&gt;end</title>
<path fill="none" stroke="#000000" d="M150,-72.0189C150,-64.2477 150,-54.9956 150,-46.3686"/>
<polygon fill="#000000" stroke="#000000" points="153.5001,-46.2972 150,-36.2972 146.5001,-46.2972 153.5001,-46.2972"/>
</g>
<!-- BB_002DFF5A -->
<g id="node6" class="node">
<title>BB_002DFF5A</title>
<ellipse fill="none" stroke="#000000" cx="142" cy="-594.2146" rx="72.978" ry="18"/>
<text text-anchor="middle" x="142" y="-590.0146" font-family="Times,serif" font-size="14.00" fill="#000000">BB_002DFF5A</text>
</g>
<!-- BB_002DFEFC&#45;&gt;BB_002DFF5A -->
<g id="edge6" class="edge">
<title>BB_002DFEFC-&gt;BB_002DFF5A</title>
<path fill="none" stroke="#ff0000" d="M156.9532,-648.046C154.7906,-640.2609 152.2147,-630.9875 149.8152,-622.3493"/>
<polygon fill="#ff0000" stroke="#ff0000" points="153.1636,-621.3263 147.1148,-612.6279 146.419,-623.1998 153.1636,-621.3263"/>
</g>
<!-- BB_002DFF61 -->
<g id="node7" class="node">
<title>BB_002DFF61</title>
<ellipse fill="none" stroke="#000000" cx="182" cy="-522.2146" rx="70.6916" ry="18"/>
<text text-anchor="middle" x="182" y="-518.0146" font-family="Times,serif" font-size="14.00" fill="#000000">BB_002DFF61</text>
</g>
<!-- BB_002DFEFC&#45;&gt;BB_002DFF61 -->
<g id="edge7" class="edge">
<title>BB_002DFEFC-&gt;BB_002DFF61</title>
<path fill="none" stroke="#00ff00" d="M190.5426,-649.4214C203.3046,-640.2156 217.0224,-627.5449 224,-612.2146 230.6281,-597.652 229.1926,-591.3486 224,-576.2146 220.4364,-565.8284 213.9689,-555.9011 207.1597,-547.4558"/>
<polygon fill="#00ff00" stroke="#00ff00" points="209.7865,-545.1424 200.6103,-539.8463 204.481,-549.7088 209.7865,-545.1424"/>
</g>
<!-- BB_002DFF5A&#45;&gt;BB_002DFF61 -->
<g id="edge8" class="edge">
<title>BB_002DFF5A-&gt;BB_002DFF61</title>
<path fill="none" stroke="#0000ff" d="M152.0937,-576.046C156.6284,-567.8834 162.0722,-558.0846 167.0652,-549.0973"/>
<polygon fill="#0000ff" stroke="#0000ff" points="170.2512,-550.5694 172.0481,-540.128 164.1321,-547.1698 170.2512,-550.5694"/>
</g>
<!-- BB_002DFF78 -->
<g id="node8" class="node">
<title>BB_002DFF78</title>
<ellipse fill="none" stroke="#000000" cx="99" cy="-378.2146" rx="70.6916" ry="18"/>
<text text-anchor="middle" x="99" y="-374.0146" font-family="Times,serif" font-size="14.00" fill="#000000">BB_002DFF78</text>
</g>
<!-- BB_002DFF61&#45;&gt;BB_002DFF78 -->
<g id="edge9" class="edge">
<title>BB_002DFF61-&gt;BB_002DFF78</title>
<path fill="none" stroke="#ff0000" d="M171.6558,-504.2681C157.304,-479.3686 131.2372,-434.1441 114.5398,-405.1752"/>
<polygon fill="#ff0000" stroke="#ff0000" points="117.5007,-403.3034 109.4745,-396.3873 111.436,-406.799 117.5007,-403.3034"/>
</g>
<!-- BB_002DFFA1 -->
<g id="node9" class="node">
<title>BB_002DFFA1</title>
<ellipse fill="none" stroke="#000000" cx="262" cy="-450.2146" rx="72.978" ry="18"/>
<text text-anchor="middle" x="262" y="-446.0146" font-family="Times,serif" font-size="14.00" fill="#000000">BB_002DFFA1</text>
</g>
<!-- BB_002DFF61&#45;&gt;BB_002DFFA1 -->
<g id="edge10" class="edge">
<title>BB_002DFF61-&gt;BB_002DFFA1</title>
<path fill="none" stroke="#00ff00" d="M201.3658,-504.7854C211.4127,-495.7432 223.8513,-484.5484 234.8426,-474.6563"/>
<polygon fill="#00ff00" stroke="#00ff00" points="237.4437,-477.0241 242.5353,-467.7328 232.7609,-471.821 237.4437,-477.0241"/>
</g>
<!-- BB_002E0033 -->
<g id="node10" class="node">
<title>BB_002E0033</title>
<ellipse fill="none" stroke="#000000" cx="150" cy="-234.2146" rx="68.3883" ry="18"/>
<text text-anchor="middle" x="150" y="-230.0146" font-family="Times,serif" font-size="14.00" fill="#000000">BB_002E0033</text>
</g>
<!-- BB_002DFF78&#45;&gt;BB_002E0033 -->
<g id="edge11" class="edge">
<title>BB_002DFF78-&gt;BB_002E0033</title>
<path fill="none" stroke="#0000ff" d="M105.3561,-360.2681C114.0983,-335.5842 129.9148,-290.9257 140.1837,-261.9313"/>
<polygon fill="#0000ff" stroke="#0000ff" points="143.5245,-262.9821 143.5638,-252.3873 136.9261,-260.6451 143.5245,-262.9821"/>
</g>
<!-- BB_002DFFDA -->
<g id="node11" class="node">
<title>BB_002DFFDA</title>
<ellipse fill="none" stroke="#000000" cx="262" cy="-378.2146" rx="74.7631" ry="18"/>
<text text-anchor="middle" x="262" y="-374.0146" font-family="Times,serif" font-size="14.00" fill="#000000">BB_002DFFDA</text>
</g>
<!-- BB_002DFFA1&#45;&gt;BB_002DFFDA -->
<g id="edge12" class="edge">
<title>BB_002DFFA1-&gt;BB_002DFFDA</title>
<path fill="none" stroke="#ff0000" d="M262,-432.046C262,-424.3456 262,-415.1889 262,-406.6312"/>
<polygon fill="#ff0000" stroke="#ff0000" points="265.5001,-406.6278 262,-396.6279 258.5001,-406.6279 265.5001,-406.6278"/>
</g>
<!-- BB_002DFFE1 -->
<g id="node12" class="node">
<title>BB_002DFFE1</title>
<ellipse fill="none" stroke="#000000" cx="262" cy="-306.2146" rx="71.8337" ry="18"/>
<text text-anchor="middle" x="262" y="-302.0146" font-family="Times,serif" font-size="14.00" fill="#000000">BB_002DFFE1</text>
</g>
<!-- BB_002DFFA1&#45;&gt;BB_002DFFE1 -->
<g id="edge13" class="edge">
<title>BB_002DFFA1-&gt;BB_002DFFE1</title>
<path fill="none" stroke="#00ff00" d="M301.6818,-435.0411C318.525,-426.3881 336.4463,-413.7138 346,-396.2146 353.667,-382.1712 353.667,-374.258 346,-360.2146 338.163,-345.8598 324.6953,-334.7517 310.811,-326.4467"/>
<polygon fill="#00ff00" stroke="#00ff00" points="312.1251,-323.1735 301.6818,-321.3881 308.7323,-329.2964 312.1251,-323.1735"/>
</g>
<!-- BB_002E0033&#45;&gt;BB_002E004B -->
<g id="edge17" class="edge">
<title>BB_002E0033-&gt;BB_002E004B</title>
<path fill="none" stroke="#00ff00" d="M137.3878,-216.1561C131.1233,-206.0806 124.2188,-193.0113 121,-180.2146 117.0971,-164.6979 117.0971,-159.7313 121,-144.2146 123.3386,-134.917 127.623,-125.4755 132.1938,-117.1429"/>
<polygon fill="#00ff00" stroke="#00ff00" points="135.3549,-118.671 137.3878,-108.2731 129.3143,-115.1338 135.3549,-118.671"/>
</g>
<!-- BB_002E0044 -->
<g id="node13" class="node">
<title>BB_002E0044</title>
<ellipse fill="none" stroke="#000000" cx="198" cy="-162.2146" rx="68.3883" ry="18"/>
<text text-anchor="middle" x="198" y="-158.0146" font-family="Times,serif" font-size="14.00" fill="#000000">BB_002E0044</text>
</g>
<!-- BB_002E0033&#45;&gt;BB_002E0044 -->
<g id="edge16" class="edge">
<title>BB_002E0033-&gt;BB_002E0044</title>
<path fill="none" stroke="#ff0000" d="M161.8652,-216.4168C167.4614,-208.0225 174.2522,-197.8364 180.4294,-188.5704"/>
<polygon fill="#ff0000" stroke="#ff0000" points="183.4701,-190.3191 186.105,-180.0571 177.6457,-186.4362 183.4701,-190.3191"/>
</g>
<!-- BB_002DFFDA&#45;&gt;BB_002DFFE1 -->
<g id="edge14" class="edge">
<title>BB_002DFFDA-&gt;BB_002DFFE1</title>
<path fill="none" stroke="#0000ff" d="M262,-360.046C262,-352.3456 262,-343.1889 262,-334.6312"/>
<polygon fill="#0000ff" stroke="#0000ff" points="265.5001,-334.6278 262,-324.6279 258.5001,-334.6279 265.5001,-334.6278"/>
</g>
<!-- BB_002DFFE1&#45;&gt;BB_002E0033 -->
<g id="edge15" class="edge">
<title>BB_002DFFE1-&gt;BB_002E0033</title>
<path fill="none" stroke="#0000ff" d="M235.741,-289.3338C220.5751,-279.5843 201.3096,-267.1993 184.8837,-256.6399"/>
<polygon fill="#0000ff" stroke="#0000ff" points="186.399,-253.4531 176.0945,-250.9896 182.6136,-259.3414 186.399,-253.4531"/>
</g>
<!-- BB_002E0044&#45;&gt;BB_002E004B -->
<g id="edge18" class="edge">
<title>BB_002E0044-&gt;BB_002E004B</title>
<path fill="none" stroke="#0000ff" d="M186.1348,-144.4168C180.5386,-136.0225 173.7478,-125.8364 167.5706,-116.5704"/>
<polygon fill="#0000ff" stroke="#0000ff" points="170.3543,-114.4362 161.895,-108.0571 164.5299,-118.3191 170.3543,-114.4362"/>
</g>
</g>
</svg>