<?xml version="1.0" encoding="UTF-8" standalone="no"?><!DOCTYPE svg PUBLIC "-//W3C//DTD SVG 1.1//EN" "http://www.w3.org/Graphics/SVG/1.1/DTD/svg11.dtd"><!-- Generated by graphviz version 2.40.1 (20161225.0304)
 --><!-- Title: G Pages: 1 --><svg xmlns="http://www.w3.org/2000/svg" xmlns:xlink="http://www.w3.org/1999/xlink" width="534pt" height="1412pt" viewBox="0.00 0.00 534.44 1412.21">
<g id="graph0" class="graph" transform="scale(1 1) rotate(0) translate(4 1408.2146)">
<title>G</title>
<polygon fill="#ffffff" stroke="transparent" points="-4,4 -4,-1408.2146 530.4378,-1408.2146 530.4378,4 -4,4"/>
<!-- start -->
<g id="node1" class="node">
<title>start</title>
<polygon fill="none" stroke="#000000" points="368.913,-1404.2146 329.6757,-1386.2146 368.913,-1368.2146 408.1503,-1386.2146 368.913,-1404.2146"/>
<polyline fill="none" stroke="#000000" points="340.5828,-1391.2182 340.5828,-1381.211 "/>
<polyline fill="none" stroke="#000000" points="358.0059,-1373.2182 379.8201,-1373.2182 "/>
<polyline fill="none" stroke="#000000" points="397.2433,-1381.211 397.2433,-1391.2182 "/>
<polyline fill="none" stroke="#000000" points="379.8201,-1399.211 358.0059,-1399.211 "/>
<text text-anchor="middle" x="368.913" y="-1382.0146" font-family="Times,serif" font-size="14.00" fill="#000000">start</text>
</g>
<!-- BB_002F507E -->
<g id="node2" class="node">
<title>BB_002F507E</title>
<ellipse fill="none" stroke="#000000" cx="368.913" cy="-1314.2146" rx="68.9679" ry="18"/>
<text text-anchor="middle" x="368.913" y="-1310.0146" font-family="Times,serif" font-size="14.00" fill="#000000">BB_002F507E</text>
</g>
<!-- start&#45;&gt;BB_002F507E -->
<g id="edge1" class="edge">
<title>start-&gt;BB_002F507E</title>
<path fill="none" stroke="#000000" d="M368.913,-1368.046C368.913,-1360.3456 368.913,-1351.1889 368.913,-1342.6312"/>
<polygon fill="#000000" stroke="#000000" points="372.4131,-1342.6278 368.913,-1332.6279 365.4131,-1342.6279 372.4131,-1342.6278"/>
</g>
<!-- BB_002F5097 -->
<g id="node3" class="node">
<title>BB_002F5097</title>
<ellipse fill="none" stroke="#000000" cx="416.913" cy="-1242.2146" rx="67.8261" ry="18"/>
<text text-anchor="middle" x="416.913" y="-1238.0146" font-family="Times,serif" font-size="14.00" fill="#000000">BB_002F5097</text>
</g>
<!-- BB_002F507E&#45;&gt;BB_002F5097 -->
<g id="edge2" class="edge">
<title>BB_002F507E-&gt;BB_002F5097</title>
<path fill="none" stroke="#ff0000" d="M380.7782,-1296.4168C386.3744,-1288.0225 393.1652,-1277.8364 399.3424,-1268.5704"/>
<polygon fill="#ff0000" stroke="#ff0000" points="402.3831,-1270.3191 405.018,-1260.0571 396.5588,-1266.4362 402.3831,-1270.3191"/>
</g>
<!-- BB_002F509A -->
<g id="node4" class="node">
<title>BB_002F509A</title>
<ellipse fill="none" stroke="#000000" cx="368.913" cy="-1170.2146" rx="70.1118" ry="18"/>
<text text-anchor="middle" x="368.913" y="-1166.0146" font-family="Times,serif" font-size="14.00" fill="#000000">BB_002F509A</text>
</g>
<!-- BB_002F507E&#45;&gt;BB_002F509A -->
<g id="edge3" class="edge">
<title>BB_002F507E-&gt;BB_002F509A</title>
<path fill="none" stroke="#00ff00" d="M356.3009,-1296.1561C350.0363,-1286.0806 343.1318,-1273.0113 339.913,-1260.2146 336.0101,-1244.6979 336.0101,-1239.7313 339.913,-1224.2146 342.2516,-1214.917 346.536,-1205.4755 351.1069,-1197.1429"/>
<polygon fill="#00ff00" stroke="#00ff00" points="354.2679,-1198.671 356.3009,-1188.2731 348.2274,-1195.1338 354.2679,-1198.671"/>
</g>
<!-- BB_002F5097&#45;&gt;BB_002F509A -->
<g id="edge4" class="edge">
<title>BB_002F5097-&gt;BB_002F509A</title>
<path fill="none" stroke="#0000ff" d="M405.0478,-1224.4168C399.4516,-1216.0225 392.6608,-1205.8364 386.4836,-1196.5704"/>
<polygon fill="#0000ff" stroke="#0000ff" points="389.2673,-1194.4362 380.808,-1188.0571 383.4429,-1198.3191 389.2673,-1194.4362"/>
</g>
<!-- BB_002F509E -->
<g id="node5" class="node">
<title>BB_002F509E</title>
<ellipse fill="none" stroke="#000000" cx="417.913" cy="-1098.2146" rx="68.9679" ry="18"/>
<text text-anchor="middle" x="417.913" y="-1094.0146" font-family="Times,serif" font-size="14.00" fill="#000000">BB_002F509E</text>
</g>
<!-- BB_002F509A&#45;&gt;BB_002F509E -->
<g id="edge5" class="edge">
<title>BB_002F509A-&gt;BB_002F509E</title>
<path fill="none" stroke="#ff0000" d="M381.0254,-1152.4168C386.7382,-1144.0225 393.6704,-1133.8364 399.9764,-1124.5704"/>
<polygon fill="#ff0000" stroke="#ff0000" points="403.0374,-1126.2935 405.7702,-1116.0571 397.2504,-1122.3551 403.0374,-1126.2935"/>
</g>
<!-- BB_002F50A1 -->
<g id="node6" class="node">
<title>BB_002F50A1</title>
<ellipse fill="none" stroke="#000000" cx="368.913" cy="-1026.2146" rx="70.1118" ry="18"/>
<text text-anchor="middle" x="368.913" y="-1022.0146" font-family="Times,serif" font-size="14.00" fill="#000000">BB_002F50A1</text>
</g>
<!-- BB_002F509A&#45;&gt;BB_002F50A1 -->
<g id="edge6" class="edge">
<title>BB_002F509A-&gt;BB_002F50A1</title>
<path fill="none" stroke="#00ff00" d="M356.3009,-1152.1561C350.0363,-1142.0806 343.1318,-1129.0113 339.913,-1116.2146 336.0101,-1100.6979 336.0101,-1095.7313 339.913,-1080.2146 342.2516,-1070.917 346.536,-1061.4755 351.1069,-1053.1429"/>
<polygon fill="#00ff00" stroke="#00ff00" points="354.2679,-1054.671 356.3009,-1044.2731 348.2274,-1051.1338 354.2679,-1054.671"/>
</g>
<!-- BB_002F509E&#45;&gt;BB_002F50A1 -->
<g id="edge7" class="edge">
<title>BB_002F509E-&gt;BB_002F50A1</title>
<path fill="none" stroke="#0000ff" d="M405.8007,-1080.4168C400.0878,-1072.0225 393.1556,-1061.8364 386.8496,-1052.5704"/>
<polygon fill="#0000ff" stroke="#0000ff" points="389.5756,-1050.3551 381.0559,-1044.0571 383.7886,-1054.2935 389.5756,-1050.3551"/>
</g>
<!-- BB_002F50BC -->
<g id="node7" class="node">
<title>BB_002F50BC</title>
<ellipse fill="none" stroke="#000000" cx="368.913" cy="-954.2146" rx="71.2733" ry="18"/>
<text text-anchor="middle" x="368.913" y="-950.0146" font-family="Times,serif" font-size="14.00" fill="#000000">BB_002F50BC</text>
</g>
<!-- BB_002F50A1&#45;&gt;BB_002F50BC -->
<g id="edge8" class="edge">
<title>BB_002F50A1-&gt;BB_002F50BC</title>
<path fill="none" stroke="#0000ff" d="M368.913,-1008.046C368.913,-1000.3456 368.913,-991.1889 368.913,-982.6312"/>
<polygon fill="#0000ff" stroke="#0000ff" points="372.4131,-982.6278 368.913,-972.6279 365.4131,-982.6279 372.4131,-982.6278"/>
</g>
<!-- BB_002F50B0 -->
<g id="node8" class="node">
<title>BB_002F50B0</title>
<ellipse fill="none" stroke="#000000" cx="368.913" cy="-882.2146" rx="69.5495" ry="18"/>
<text text-anchor="middle" x="368.913" y="-878.0146" font-family="Times,serif" font-size="14.00" fill="#000000">BB_002F50B0</text>
</g>
<!-- BB_002F50BC&#45;&gt;BB_002F50B0 -->
<g id="edge13" class="edge">
<title>BB_002F50BC-&gt;BB_002F50B0</title>
<path fill="none" stroke="#00ff00" d="M368.913,-936.046C368.913,-928.3456 368.913,-919.1889 368.913,-910.6312"/>
<polygon fill="#00ff00" stroke="#00ff00" points="372.4131,-910.6278 368.913,-900.6279 365.4131,-910.6279 372.4131,-910.6278"/>
</g>
<!-- BB_002F50C0 -->
<g id="node10" class="node">
<title>BB_002F50C0</title>
<ellipse fill="none" stroke="#000000" cx="456.913" cy="-810.2146" rx="69.5495" ry="18"/>
<text text-anchor="middle" x="456.913" y="-806.0146" font-family="Times,serif" font-size="14.00" fill="#000000">BB_002F50C0</text>
</g>
<!-- BB_002F50BC&#45;&gt;BB_002F50C0 -->
<g id="edge12" class="edge">
<title>BB_002F50BC-&gt;BB_002F50C0</title>
<path fill="none" stroke="#ff0000" d="M404.721,-938.5281C420.6421,-929.6478 437.9957,-916.9317 447.913,-900.2146 458.8808,-881.7266 460.6922,-857.2757 460.0037,-838.5258"/>
<polygon fill="#ff0000" stroke="#ff0000" points="463.4944,-838.2666 459.3832,-828.502 456.5078,-838.6991 463.4944,-838.2666"/>
</g>
<!-- BB_002F50B4 -->
<g id="node9" class="node">
<title>BB_002F50B4</title>
<ellipse fill="none" stroke="#000000" cx="289.913" cy="-810.2146" rx="69.5495" ry="18"/>
<text text-anchor="middle" x="289.913" y="-806.0146" font-family="Times,serif" font-size="14.00" fill="#000000">BB_002F50B4</text>
</g>
<!-- BB_002F50B0&#45;&gt;BB_002F50B4 -->
<g id="edge9" class="edge">
<title>BB_002F50B0-&gt;BB_002F50B4</title>
<path fill="none" stroke="#ff0000" d="M349.7893,-864.7854C339.868,-855.7432 327.5849,-844.5484 316.731,-834.6563"/>
<polygon fill="#ff0000" stroke="#ff0000" points="318.883,-831.8821 309.1344,-827.7328 314.1677,-837.0557 318.883,-831.8821"/>
</g>
<!-- BB_002F50B0&#45;&gt;BB_002F50C0 -->
<g id="edge10" class="edge">
<title>BB_002F50B0-&gt;BB_002F50C0</title>
<path fill="none" stroke="#00ff00" d="M390.2154,-864.7854C401.565,-855.4993 415.6893,-843.9431 428.0145,-833.8588"/>
<polygon fill="#00ff00" stroke="#00ff00" points="430.2836,-836.5246 435.8068,-827.4833 425.8509,-831.1068 430.2836,-836.5246"/>
</g>
<!-- BB_002F50B4&#45;&gt;BB_002F50BC -->
<g id="edge11" class="edge">
<title>BB_002F50B4-&gt;BB_002F50BC</title>
<path fill="none" stroke="#0000ff" d="M285.2066,-828.2997C281.2762,-847.3622 278.0258,-877.6902 289.913,-900.2146 297.2915,-914.1956 310.0997,-925.2438 323.2817,-933.6079"/>
<polygon fill="#0000ff" stroke="#0000ff" points="321.5538,-936.6522 331.9448,-938.7206 325.1116,-930.6238 321.5538,-936.6522"/>
</g>
<!-- BB_002F50CA -->
<g id="node11" class="node">
<title>BB_002F50CA</title>
<ellipse fill="none" stroke="#000000" cx="397.913" cy="-738.2146" rx="71.8357" ry="18"/>
<text text-anchor="middle" x="397.913" y="-734.0146" font-family="Times,serif" font-size="14.00" fill="#000000">BB_002F50CA</text>
</g>
<!-- BB_002F50C0&#45;&gt;BB_002F50CA -->
<g id="edge14" class="edge">
<title>BB_002F50C0-&gt;BB_002F50CA</title>
<path fill="none" stroke="#ff0000" d="M442.3287,-792.4168C435.3082,-783.8494 426.7582,-773.4155 419.0415,-763.9985"/>
<polygon fill="#ff0000" stroke="#ff0000" points="421.5794,-761.5736 412.534,-756.0571 416.1651,-766.0103 421.5794,-761.5736"/>
</g>
<!-- BB_002F50ED -->
<g id="node12" class="node">
<title>BB_002F50ED</title>
<ellipse fill="none" stroke="#000000" cx="249.913" cy="-162.2146" rx="71.2539" ry="18"/>
<text text-anchor="middle" x="249.913" y="-158.0146" font-family="Times,serif" font-size="14.00" fill="#000000">BB_002F50ED</text>
</g>
<!-- BB_002F50C0&#45;&gt;BB_002F50ED -->
<g id="edge15" class="edge">
<title>BB_002F50C0-&gt;BB_002F50ED</title>
<path fill="none" stroke="#00ff00" d="M469.7151,-792.0942C487.0675,-765.709 515.913,-714.5751 515.913,-666.2146 515.913,-666.2146 515.913,-666.2146 515.913,-306.2146 515.913,-219.0928 404.1966,-184.4139 325.5625,-170.7952"/>
<polygon fill="#00ff00" stroke="#00ff00" points="326.1025,-167.337 315.6658,-169.1609 324.9619,-174.2435 326.1025,-167.337"/>
</g>
<!-- BB_002F50CE -->
<g id="node13" class="node">
<title>BB_002F50CE</title>
<ellipse fill="none" stroke="#000000" cx="397.913" cy="-666.2146" rx="70.6916" ry="18"/>
<text text-anchor="middle" x="397.913" y="-662.0146" font-family="Times,serif" font-size="14.00" fill="#000000">BB_002F50CE</text>
</g>
<!-- BB_002F50CA&#45;&gt;BB_002F50CE -->
<g id="edge16" class="edge">
<title>BB_002F50CA-&gt;BB_002F50CE</title>
<path fill="none" stroke="#ff0000" d="M397.913,-720.046C397.913,-712.3456 397.913,-703.1889 397.913,-694.6312"/>
<polygon fill="#ff0000" stroke="#ff0000" points="401.4131,-694.6278 397.913,-684.6279 394.4131,-694.6279 401.4131,-694.6278"/>
</g>
<!-- BB_002F50F3 -->
<g id="node14" class="node">
<title>BB_002F50F3</title>
<ellipse fill="none" stroke="#000000" cx="319.913" cy="-522.2146" rx="68.4057" ry="18"/>
<text text-anchor="middle" x="319.913" y="-518.0146" font-family="Times,serif" font-size="14.00" fill="#000000">BB_002F50F3</text>
</g>
<!-- BB_002F50CA&#45;&gt;BB_002F50F3 -->
<g id="edge17" class="edge">
<title>BB_002F50CA-&gt;BB_002F50F3</title>
<path fill="none" stroke="#00ff00" d="M360.4895,-722.8289C344.3167,-714.0754 327.0357,-701.3788 317.913,-684.2146 295.4223,-641.8985 303.7538,-584.1533 311.8432,-550.259"/>
<polygon fill="#00ff00" stroke="#00ff00" points="315.2398,-551.1033 314.3116,-540.5492 308.4556,-549.3786 315.2398,-551.1033"/>
</g>
<!-- BB_002F50EF -->
<g id="node18" class="node">
<title>BB_002F50EF</title>
<ellipse fill="none" stroke="#000000" cx="152.913" cy="-90.2146" rx="69.5476" ry="18"/>
<text text-anchor="middle" x="152.913" y="-86.0146" font-family="Times,serif" font-size="14.00" fill="#000000">BB_002F50EF</text>
</g>
<!-- BB_002F50ED&#45;&gt;BB_002F50EF -->
<g id="edge24" class="edge">
<title>BB_002F50ED-&gt;BB_002F50EF</title>
<path fill="none" stroke="#0000ff" d="M226.9254,-145.1516C214.2132,-135.7158 198.2321,-123.8535 184.3762,-113.5687"/>
<polygon fill="#0000ff" stroke="#0000ff" points="186.1876,-110.5545 176.0718,-107.4046 182.0155,-116.1753 186.1876,-110.5545"/>
</g>
<!-- BB_002F50CE&#45;&gt;BB_002F50F3 -->
<g id="edge19" class="edge">
<title>BB_002F50CE-&gt;BB_002F50F3</title>
<path fill="none" stroke="#00ff00" d="M372.9462,-649.1744C360.8809,-639.6668 347.2444,-626.8051 338.913,-612.2146 328.1231,-593.3187 323.4366,-569.041 321.413,-550.4636"/>
<polygon fill="#00ff00" stroke="#00ff00" points="324.8783,-549.9174 320.5033,-540.268 317.906,-550.5395 324.8783,-549.9174"/>
</g>
<!-- BB_002F50D2 -->
<g id="node15" class="node">
<title>BB_002F50D2</title>
<ellipse fill="none" stroke="#000000" cx="417.913" cy="-594.2146" rx="70.1118" ry="18"/>
<text text-anchor="middle" x="417.913" y="-590.0146" font-family="Times,serif" font-size="14.00" fill="#000000">BB_002F50D2</text>
</g>
<!-- BB_002F50CE&#45;&gt;BB_002F50D2 -->
<g id="edge18" class="edge">
<title>BB_002F50CE-&gt;BB_002F50D2</title>
<path fill="none" stroke="#ff0000" d="M402.9599,-648.046C405.1224,-640.2609 407.6983,-630.9875 410.0978,-622.3493"/>
<polygon fill="#ff0000" stroke="#ff0000" points="413.494,-623.1998 412.7982,-612.6279 406.7494,-621.3263 413.494,-623.1998"/>
</g>
<!-- BB_002F50F3&#45;&gt;BB_002F50ED -->
<g id="edge27" class="edge">
<title>BB_002F50F3-&gt;BB_002F50ED</title>
<path fill="none" stroke="#00ff00" d="M320.3274,-504.0303C320.9132,-476.7154 321.913,-423.469 321.913,-378.2146 321.913,-378.2146 321.913,-378.2146 321.913,-306.2146 321.913,-265.333 322.227,-252.2462 302.913,-216.2146 297.0571,-205.29 288.3175,-195.0824 279.6156,-186.5475"/>
<polygon fill="#00ff00" stroke="#00ff00" points="281.7545,-183.7566 272.0516,-179.5017 276.9833,-188.8787 281.7545,-183.7566"/>
</g>
<!-- BB_002F5108 -->
<g id="node20" class="node">
<title>BB_002F5108</title>
<ellipse fill="none" stroke="#000000" cx="194.913" cy="-450.2146" rx="67.8261" ry="18"/>
<text text-anchor="middle" x="194.913" y="-446.0146" font-family="Times,serif" font-size="14.00" fill="#000000">BB_002F5108</text>
</g>
<!-- BB_002F50F3&#45;&gt;BB_002F5108 -->
<g id="edge26" class="edge">
<title>BB_002F50F3-&gt;BB_002F5108</title>
<path fill="none" stroke="#ff0000" d="M291.2355,-505.6963C273.6883,-495.5892 251.0511,-482.5501 232.1314,-471.6524"/>
<polygon fill="#ff0000" stroke="#ff0000" points="233.8694,-468.6144 223.4571,-466.656 230.3755,-474.6801 233.8694,-468.6144"/>
</g>
<!-- BB_002F50D2&#45;&gt;BB_002F50F3 -->
<g id="edge21" class="edge">
<title>BB_002F50D2-&gt;BB_002F50F3</title>
<path fill="none" stroke="#00ff00" d="M394.6884,-577.1516C381.8452,-567.7158 365.6993,-555.8535 351.7006,-545.5687"/>
<polygon fill="#00ff00" stroke="#00ff00" points="353.4417,-542.5048 343.3106,-539.4046 349.2971,-548.146 353.4417,-542.5048"/>
</g>
<!-- BB_002F50E6 -->
<g id="node16" class="node">
<title>BB_002F50E6</title>
<ellipse fill="none" stroke="#000000" cx="418.913" cy="-450.2146" rx="68.9679" ry="18"/>
<text text-anchor="middle" x="418.913" y="-446.0146" font-family="Times,serif" font-size="14.00" fill="#000000">BB_002F50E6</text>
</g>
<!-- BB_002F50D2&#45;&gt;BB_002F50E6 -->
<g id="edge20" class="edge">
<title>BB_002F50D2-&gt;BB_002F50E6</title>
<path fill="none" stroke="#ff0000" d="M418.0397,-575.9769C418.2102,-551.4156 418.5155,-507.462 418.7161,-478.5687"/>
<polygon fill="#ff0000" stroke="#ff0000" points="422.2178,-478.3283 418.7874,-468.3042 415.2179,-478.2796 422.2178,-478.3283"/>
</g>
<!-- BB_002F50E7 -->
<g id="node17" class="node">
<title>BB_002F50E7</title>
<ellipse fill="none" stroke="#000000" cx="224.913" cy="-234.2146" rx="68.9679" ry="18"/>
<text text-anchor="middle" x="224.913" y="-230.0146" font-family="Times,serif" font-size="14.00" fill="#000000">BB_002F50E7</text>
</g>
<!-- BB_002F50E6&#45;&gt;BB_002F50E7 -->
<g id="edge22" class="edge">
<title>BB_002F50E6-&gt;BB_002F50E7</title>
<path fill="none" stroke="#0000ff" d="M408.81,-432.1575C390.5294,-400.5197 349.508,-334.0758 302.913,-288.2146 290.8767,-276.3679 275.9686,-265.3479 262.4203,-256.393"/>
<polygon fill="#0000ff" stroke="#0000ff" points="264.0608,-253.2866 253.7574,-250.8187 260.2729,-259.1732 264.0608,-253.2866"/>
</g>
<!-- BB_002F50E7&#45;&gt;BB_002F50ED -->
<g id="edge23" class="edge">
<title>BB_002F50E7-&gt;BB_002F50ED</title>
<path fill="none" stroke="#0000ff" d="M231.2216,-216.046C233.9247,-208.2609 237.1446,-198.9875 240.144,-190.3493"/>
<polygon fill="#0000ff" stroke="#0000ff" points="243.5457,-191.2227 243.5195,-180.6279 236.933,-188.9265 243.5457,-191.2227"/>
</g>
<!-- end -->
<g id="node19" class="node">
<title>end</title>
<polygon fill="none" stroke="#000000" points="171.1283,-36.3225 134.6978,-36.3225 134.6978,.1079 171.1283,.1079 171.1283,-36.3225"/>
<polyline fill="none" stroke="#000000" points="146.6978,-36.3225 134.6978,-24.3225 "/>
<polyline fill="none" stroke="#000000" points="134.6978,-11.8921 146.6978,.1079 "/>
<polyline fill="none" stroke="#000000" points="159.1283,.1079 171.1283,-11.8921 "/>
<polyline fill="none" stroke="#000000" points="171.1283,-24.3225 159.1283,-36.3225 "/>
<text text-anchor="middle" x="152.913" y="-13.9073" font-family="Times,serif" font-size="14.00" fill="#000000">end</text>
</g>
<!-- BB_002F50EF&#45;&gt;end -->
<g id="edge25" class="edge">
<title>BB_002F50EF-&gt;end</title>
<path fill="none" stroke="#000000" d="M152.913,-72.0189C152.913,-64.2477 152.913,-54.9956 152.913,-46.3686"/>
<polygon fill="#000000" stroke="#000000" points="156.4131,-46.2972 152.913,-36.2972 149.4131,-46.2972 156.4131,-46.2972"/>
</g>
<!-- BB_002F510C -->
<g id="node21" class="node">
<title>BB_002F510C</title>
<ellipse fill="none" stroke="#000000" cx="194.913" cy="-378.2146" rx="69.5495" ry="18"/>
<text text-anchor="middle" x="194.913" y="-374.0146" font-family="Times,serif" font-size="14.00" fill="#000000">BB_002F510C</text>
</g>
<!-- BB_002F5108&#45;&gt;BB_002F510C -->
<g id="edge28" class="edge">
<title>BB_002F5108-&gt;BB_002F510C</title>
<path fill="none" stroke="#ff0000" d="M194.913,-432.046C194.913,-424.3456 194.913,-415.1889 194.913,-406.6312"/>
<polygon fill="#ff0000" stroke="#ff0000" points="198.4131,-406.6278 194.913,-396.6279 191.4131,-406.6279 198.4131,-406.6278"/>
</g>
<!-- BB_002F5120 -->
<g id="node22" class="node">
<title>BB_002F5120</title>
<ellipse fill="none" stroke="#000000" cx="67.913" cy="-306.2146" rx="67.8261" ry="18"/>
<text text-anchor="middle" x="67.913" y="-302.0146" font-family="Times,serif" font-size="14.00" fill="#000000">BB_002F5120</text>
</g>
<!-- BB_002F5108&#45;&gt;BB_002F5120 -->
<g id="edge29" class="edge">
<title>BB_002F5108-&gt;BB_002F5120</title>
<path fill="none" stroke="#00ff00" d="M164.1412,-433.9569C148.3186,-424.4942 129.5488,-411.4338 115.913,-396.2146 99.4101,-377.7954 86.6279,-352.6882 78.4182,-333.6718"/>
<polygon fill="#00ff00" stroke="#00ff00" points="81.6146,-332.2427 74.5464,-324.3503 75.1501,-334.9279 81.6146,-332.2427"/>
</g>
<!-- BB_002F510C&#45;&gt;BB_002F5120 -->
<g id="edge31" class="edge">
<title>BB_002F510C-&gt;BB_002F5120</title>
<path fill="none" stroke="#00ff00" d="M165.7766,-361.6963C147.9487,-351.5892 124.9493,-338.5501 105.7269,-327.6524"/>
<polygon fill="#00ff00" stroke="#00ff00" points="107.3392,-324.5432 96.9138,-322.656 103.8869,-330.6326 107.3392,-324.5432"/>
</g>
<!-- BB_002F511D -->
<g id="node23" class="node">
<title>BB_002F511D</title>
<ellipse fill="none" stroke="#000000" cx="223.913" cy="-306.2146" rx="70.1118" ry="18"/>
<text text-anchor="middle" x="223.913" y="-302.0146" font-family="Times,serif" font-size="14.00" fill="#000000">BB_002F511D</text>
</g>
<!-- BB_002F510C&#45;&gt;BB_002F511D -->
<g id="edge30" class="edge">
<title>BB_002F510C-&gt;BB_002F511D</title>
<path fill="none" stroke="#ff0000" d="M202.2309,-360.046C205.4494,-352.0552 209.2995,-342.4965 212.8562,-333.666"/>
<polygon fill="#ff0000" stroke="#ff0000" points="216.2083,-334.7115 216.6979,-324.128 209.7152,-332.0962 216.2083,-334.7115"/>
</g>
<!-- BB_002F5120&#45;&gt;BB_002F50EF -->
<g id="edge33" class="edge">
<title>BB_002F5120-&gt;BB_002F50EF</title>
<path fill="none" stroke="#0000ff" d="M75.0139,-288.1701C89.8888,-250.3702 124.4024,-162.6652 142.0691,-117.771"/>
<polygon fill="#0000ff" stroke="#0000ff" points="145.3676,-118.9468 145.7726,-108.3597 138.8538,-116.3834 145.3676,-118.9468"/>
</g>
<!-- BB_002F511D&#45;&gt;BB_002F50E7 -->
<g id="edge32" class="edge">
<title>BB_002F511D-&gt;BB_002F50E7</title>
<path fill="none" stroke="#0000ff" d="M224.1654,-288.046C224.2723,-280.3456 224.3995,-271.1889 224.5183,-262.6312"/>
<polygon fill="#0000ff" stroke="#0000ff" points="228.018,-262.6755 224.6573,-252.6279 221.0186,-262.5783 228.018,-262.6755"/>
</g>
</g>
</svg>