<?xml version="1.0" encoding="UTF-8" standalone="no"?><!DOCTYPE svg PUBLIC "-//W3C//DTD SVG 1.1//EN" "http://www.w3.org/Graphics/SVG/1.1/DTD/svg11.dtd"><!-- Generated by graphviz version 2.40.1 (20161225.0304)
 --><!-- Title: G Pages: 1 --><svg xmlns="http://www.w3.org/2000/svg" xmlns:xlink="http://www.w3.org/1999/xlink" width="208pt" height="332pt" viewBox="0.00 0.00 207.67 332.21">
<g id="graph0" class="graph" transform="scale(1 1) rotate(0) translate(4 328.2146)">
<title>G</title>
<polygon fill="#ffffff" stroke="transparent" points="-4,4 -4,-328.2146 203.6746,-328.2146 203.6746,4 -4,4"/>
<!-- start -->
<g id="node1" class="node">
<title>start</title>
<polygon fill="none" stroke="#000000" points="125.8728,-324.2146 86.6355,-306.2146 125.8728,-288.2146 165.1101,-306.2146 125.8728,-324.2146"/>
<polyline fill="none" stroke="#000000" points="97.5425,-311.2182 97.5425,-301.211 "/>
<polyline fill="none" stroke="#000000" points="114.9657,-293.2182 136.7798,-293.2182 "/>
<polyline fill="none" stroke="#000000" points="154.203,-301.211 154.203,-311.2182 "/>
<polyline fill="none" stroke="#000000" points="136.7798,-319.211 114.9657,-319.211 "/>
<text text-anchor="middle" x="125.8728" y="-302.0146" font-family="Times,serif" font-size="14.00" fill="#000000">start</text>
</g>
<!-- BB_002DA3D0 -->
<g id="node2" class="node">
<title>BB_002DA3D0</title>
<ellipse fill="none" stroke="#000000" cx="125.8728" cy="-234.2146" rx="73.6042" ry="18"/>
<text text-anchor="middle" x="125.8728" y="-230.0146" font-family="Times,serif" font-size="14.00" fill="#000000">BB_002DA3D0</text>
</g>
<!-- start&#45;&gt;BB_002DA3D0 -->
<g id="edge1" class="edge">
<title>start-&gt;BB_002DA3D0</title>
<path fill="none" stroke="#000000" d="M125.8728,-288.046C125.8728,-280.3456 125.8728,-271.1889 125.8728,-262.6312"/>
<polygon fill="#000000" stroke="#000000" points="129.3729,-262.6278 125.8728,-252.6279 122.3729,-262.6279 129.3729,-262.6278"/>
</g>
<!-- BB_002DA3DE -->
<g id="node3" class="node">
<title>BB_002DA3DE</title>
<ellipse fill="none" stroke="#000000" cx="74.8728" cy="-162.2146" rx="74.7458" ry="18"/>
<text text-anchor="middle" x="74.8728" y="-158.0146" font-family="Times,serif" font-size="14.00" fill="#000000">BB_002DA3DE</text>
</g>
<!-- BB_002DA3D0&#45;&gt;BB_002DA3DE -->
<g id="edge2" class="edge">
<title>BB_002DA3D0-&gt;BB_002DA3DE</title>
<path fill="none" stroke="#ff0000" d="M113.266,-216.4168C107.2587,-207.936 99.9559,-197.6261 93.3387,-188.2842"/>
<polygon fill="#ff0000" stroke="#ff0000" points="96.1476,-186.1943 87.5112,-180.0571 90.4354,-190.2405 96.1476,-186.1943"/>
</g>
<!-- BB_002DA404 -->
<g id="node4" class="node">
<title>BB_002DA404</title>
<ellipse fill="none" stroke="#000000" cx="125.8728" cy="-90.2146" rx="71.8182" ry="18"/>
<text text-anchor="middle" x="125.8728" y="-86.0146" font-family="Times,serif" font-size="14.00" fill="#000000">BB_002DA404</text>
</g>
<!-- BB_002DA3D0&#45;&gt;BB_002DA404 -->
<g id="edge3" class="edge">
<title>BB_002DA3D0-&gt;BB_002DA404</title>
<path fill="none" stroke="#00ff00" d="M140.2028,-216.4097C147.325,-206.4085 155.1828,-193.3292 158.8728,-180.2146 163.2064,-164.8126 163.2064,-159.6166 158.8728,-144.2146 156.1629,-134.5835 151.2054,-124.9716 145.9421,-116.5837"/>
<polygon fill="#00ff00" stroke="#00ff00" points="148.6773,-114.3781 140.2028,-108.0195 142.8624,-118.2751 148.6773,-114.3781"/>
</g>
<!-- BB_002DA3DE&#45;&gt;BB_002DA404 -->
<g id="edge4" class="edge">
<title>BB_002DA3DE-&gt;BB_002DA404</title>
<path fill="none" stroke="#0000ff" d="M87.4795,-144.4168C93.4868,-135.936 100.7896,-125.6261 107.4068,-116.2842"/>
<polygon fill="#0000ff" stroke="#0000ff" points="110.3102,-118.2405 113.2343,-108.0571 104.598,-114.1943 110.3102,-118.2405"/>
</g>
<!-- end -->
<g id="node5" class="node">
<title>end</title>
<polygon fill="none" stroke="#000000" points="144.088,-36.3225 107.6575,-36.3225 107.6575,.1079 144.088,.1079 144.088,-36.3225"/>
<polyline fill="none" stroke="#000000" points="119.6575,-36.3225 107.6575,-24.3225 "/>
<polyline fill="none" stroke="#000000" points="107.6575,-11.8921 119.6575,.1079 "/>
<polyline fill="none" stroke="#000000" points="132.088,.1079 144.088,-11.8921 "/>
<polyline fill="none" stroke="#000000" points="144.088,-24.3225 132.088,-36.3225 "/>
<text text-anchor="middle" x="125.8728" y="-13.9073" font-family="Times,serif" font-size="14.00" fill="#000000">end</text>
</g>
<!-- BB_002DA404&#45;&gt;end -->
<g id="edge5" class="edge">
<title>BB_002DA404-&gt;end</title>
<path fill="none" stroke="#000000" d="M125.8728,-72.0189C125.8728,-64.2477 125.8728,-54.9956 125.8728,-46.3686"/>
<polygon fill="#000000" stroke="#000000" points="129.3729,-46.2972 125.8728,-36.2972 122.3729,-46.2972 129.3729,-46.2972"/>
</g>
</g>
</svg>