<?xml version="1.0" encoding="UTF-8" standalone="no"?><!DOCTYPE svg PUBLIC "-//W3C//DTD SVG 1.1//EN" "http://www.w3.org/Graphics/SVG/1.1/DTD/svg11.dtd"><!-- Generated by graphviz version 2.40.1 (20161225.0304)
 --><!-- Title: G Pages: 1 --><svg xmlns="http://www.w3.org/2000/svg" xmlns:xlink="http://www.w3.org/1999/xlink" width="148pt" height="188pt" viewBox="0.00 0.00 148.11 188.21">
<g id="graph0" class="graph" transform="scale(1 1) rotate(0) translate(4 184.2146)">
<title>G</title>
<polygon fill="#ffffff" stroke="transparent" points="-4,4 -4,-184.2146 144.1118,-184.2146 144.1118,4 -4,4"/>
<!-- start -->
<g id="node1" class="node">
<title>start</title>
<polygon fill="none" stroke="#000000" points="70.0559,-180.2146 30.8186,-162.2146 70.0559,-144.2146 109.2932,-162.2146 70.0559,-180.2146"/>
<polyline fill="none" stroke="#000000" points="41.7257,-167.2182 41.7257,-157.211 "/>
<polyline fill="none" stroke="#000000" points="59.1488,-149.2182 80.963,-149.2182 "/>
<polyline fill="none" stroke="#000000" points="98.3861,-157.211 98.3861,-167.2182 "/>
<polyline fill="none" stroke="#000000" points="80.963,-175.211 59.1488,-175.211 "/>
<text text-anchor="middle" x="70.0559" y="-158.0146" font-family="Times,serif" font-size="14.00" fill="#000000">start</text>
</g>
<!-- BB_002D24F0 -->
<g id="node2" class="node">
<title>BB_002D24F0</title>
<ellipse fill="none" stroke="#000000" cx="70.0559" cy="-90.2146" rx="70.1118" ry="18"/>
<text text-anchor="middle" x="70.0559" y="-86.0146" font-family="Times,serif" font-size="14.00" fill="#000000">BB_002D24F0</text>
</g>
<!-- start&#45;&gt;BB_002D24F0 -->
<g id="edge1" class="edge">
<title>start-&gt;BB_002D24F0</title>
<path fill="none" stroke="#000000" d="M70.0559,-144.046C70.0559,-136.3456 70.0559,-127.1889 70.0559,-118.6312"/>
<polygon fill="#000000" stroke="#000000" points="73.556,-118.6278 70.0559,-108.6279 66.556,-118.6279 73.556,-118.6278"/>
</g>
<!-- end -->
<g id="node3" class="node">
<title>end</title>
<polygon fill="none" stroke="#000000" points="88.2711,-36.3225 51.8407,-36.3225 51.8407,.1079 88.2711,.1079 88.2711,-36.3225"/>
<polyline fill="none" stroke="#000000" points="63.8407,-36.3225 51.8407,-24.3225 "/>
<polyline fill="none" stroke="#000000" points="51.8407,-11.8921 63.8407,.1079 "/>
<polyline fill="none" stroke="#000000" points="76.2711,.1079 88.2711,-11.8921 "/>
<polyline fill="none" stroke="#000000" points="88.2711,-24.3225 76.2711,-36.3225 "/>
<text text-anchor="middle" x="70.0559" y="-13.9073" font-family="Times,serif" font-size="14.00" fill="#000000">end</text>
</g>
<!-- BB_002D24F0&#45;&gt;end -->
<g id="edge2" class="edge">
<title>BB_002D24F0-&gt;end</title>
<path fill="none" stroke="#000000" d="M70.0559,-72.0189C70.0559,-64.2477 70.0559,-54.9956 70.0559,-46.3686"/>
<polygon fill="#000000" stroke="#000000" points="73.556,-46.2972 70.0559,-36.2972 66.556,-46.2972 73.556,-46.2972"/>
</g>
</g>
</svg>