<?xml version="1.0" encoding="UTF-8" standalone="no"?><!DOCTYPE svg PUBLIC "-//W3C//DTD SVG 1.1//EN" "http://www.w3.org/Graphics/SVG/1.1/DTD/svg11.dtd"><!-- Generated by graphviz version 2.40.1 (20161225.0304)
 --><!-- Title: G Pages: 1 --><svg xmlns="http://www.w3.org/2000/svg" xmlns:xlink="http://www.w3.org/1999/xlink" width="328pt" height="1412pt" viewBox="0.00 0.00 328.03 1412.21">
<g id="graph0" class="graph" transform="scale(1 1) rotate(0) translate(4 1408.2146)">
<title>G</title>
<polygon fill="#ffffff" stroke="transparent" points="-4,4 -4,-1408.2146 324.0321,-1408.2146 324.0321,4 -4,4"/>
<!-- start -->
<g id="node1" class="node">
<title>start</title>
<polygon fill="none" stroke="#000000" points="200.5161,-1404.2146 161.2788,-1386.2146 200.5161,-1368.2146 239.7534,-1386.2146 200.5161,-1404.2146"/>
<polyline fill="none" stroke="#000000" points="172.1858,-1391.2182 172.1858,-1381.211 "/>
<polyline fill="none" stroke="#000000" points="189.609,-1373.2182 211.4231,-1373.2182 "/>
<polyline fill="none" stroke="#000000" points="228.8463,-1381.211 228.8463,-1391.2182 "/>
<polyline fill="none" stroke="#000000" points="211.4231,-1399.211 189.609,-1399.211 "/>
<text text-anchor="middle" x="200.5161" y="-1382.0146" font-family="Times,serif" font-size="14.00" fill="#000000">start</text>
</g>
<!-- BB_002D5180 -->
<g id="node2" class="node">
<title>BB_002D5180</title>
<ellipse fill="none" stroke="#000000" cx="200.5161" cy="-1314.2146" rx="69.5321" ry="18"/>
<text text-anchor="middle" x="200.5161" y="-1310.0146" font-family="Times,serif" font-size="14.00" fill="#000000">BB_002D5180</text>
</g>
<!-- start&#45;&gt;BB_002D5180 -->
<g id="edge1" class="edge">
<title>start-&gt;BB_002D5180</title>
<path fill="none" stroke="#000000" d="M200.5161,-1368.046C200.5161,-1360.3456 200.5161,-1351.1889 200.5161,-1342.6312"/>
<polygon fill="#000000" stroke="#000000" points="204.0162,-1342.6278 200.5161,-1332.6279 197.0162,-1342.6279 204.0162,-1342.6278"/>
</g>
<!-- BB_002D51B6 -->
<g id="node3" class="node">
<title>BB_002D51B6</title>
<ellipse fill="none" stroke="#000000" cx="151.5161" cy="-1242.2146" rx="71.2559" ry="18"/>
<text text-anchor="middle" x="151.5161" y="-1238.0146" font-family="Times,serif" font-size="14.00" fill="#000000">BB_002D51B6</text>
</g>
<!-- BB_002D5180&#45;&gt;BB_002D51B6 -->
<g id="edge2" class="edge">
<title>BB_002D5180-&gt;BB_002D51B6</title>
<path fill="none" stroke="#ff0000" d="M188.4037,-1296.4168C182.6909,-1288.0225 175.7586,-1277.8364 169.4527,-1268.5704"/>
<polygon fill="#ff0000" stroke="#ff0000" points="172.1787,-1266.3551 163.6589,-1260.0571 166.3917,-1270.2935 172.1787,-1266.3551"/>
</g>
<!-- BB_002D5226 -->
<g id="node4" class="node">
<title>BB_002D5226</title>
<ellipse fill="none" stroke="#000000" cx="250.5161" cy="-594.2146" rx="69.5321" ry="18"/>
<text text-anchor="middle" x="250.5161" y="-590.0146" font-family="Times,serif" font-size="14.00" fill="#000000">BB_002D5226</text>
</g>
<!-- BB_002D5180&#45;&gt;BB_002D5226 -->
<g id="edge3" class="edge">
<title>BB_002D5180-&gt;BB_002D5226</title>
<path fill="none" stroke="#00ff00" d="M212.622,-1296.4264C219.0737,-1286.2201 226.6593,-1272.9399 231.5161,-1260.2146 246.0934,-1222.0202 250.5161,-1211.0962 250.5161,-1170.2146 250.5161,-1170.2146 250.5161,-1170.2146 250.5161,-738.2146 250.5161,-698.0906 250.5161,-651.6777 250.5161,-622.6323"/>
<polygon fill="#00ff00" stroke="#00ff00" points="254.0162,-622.3999 250.5161,-612.4 247.0162,-622.4 254.0162,-622.3999"/>
</g>
<!-- BB_002D51E5 -->
<g id="node5" class="node">
<title>BB_002D51E5</title>
<ellipse fill="none" stroke="#000000" cx="104.5161" cy="-1170.2146" rx="70.6742" ry="18"/>
<text text-anchor="middle" x="104.5161" y="-1166.0146" font-family="Times,serif" font-size="14.00" fill="#000000">BB_002D51E5</text>
</g>
<!-- BB_002D51B6&#45;&gt;BB_002D51E5 -->
<g id="edge4" class="edge">
<title>BB_002D51B6-&gt;BB_002D51E5</title>
<path fill="none" stroke="#ff0000" d="M139.8981,-1224.4168C134.4185,-1216.0225 127.7692,-1205.8364 121.7206,-1196.5704"/>
<polygon fill="#ff0000" stroke="#ff0000" points="124.5604,-1194.5178 116.1633,-1188.0571 118.6987,-1198.3441 124.5604,-1194.5178"/>
</g>
<!-- BB_002D51EE -->
<g id="node6" class="node">
<title>BB_002D51EE</title>
<ellipse fill="none" stroke="#000000" cx="122.5161" cy="-1098.2146" rx="71.8163" ry="18"/>
<text text-anchor="middle" x="122.5161" y="-1094.0146" font-family="Times,serif" font-size="14.00" fill="#000000">BB_002D51EE</text>
</g>
<!-- BB_002D51B6&#45;&gt;BB_002D51EE -->
<g id="edge5" class="edge">
<title>BB_002D51B6-&gt;BB_002D51EE</title>
<path fill="none" stroke="#00ff00" d="M166.3622,-1224.3063C179.7018,-1205.9113 195.6157,-1176.6014 184.5161,-1152.2146 178.9637,-1140.0155 169.1432,-1129.5006 158.9327,-1121.0755"/>
<polygon fill="#00ff00" stroke="#00ff00" points="160.7961,-1118.0933 150.7344,-1114.7745 156.5304,-1123.6435 160.7961,-1118.0933"/>
</g>
<!-- BB_002D5232 -->
<g id="node13" class="node">
<title>BB_002D5232</title>
<ellipse fill="none" stroke="#000000" cx="201.5161" cy="-522.2146" rx="69.5321" ry="18"/>
<text text-anchor="middle" x="201.5161" y="-518.0146" font-family="Times,serif" font-size="14.00" fill="#000000">BB_002D5232</text>
</g>
<!-- BB_002D5226&#45;&gt;BB_002D5232 -->
<g id="edge19" class="edge">
<title>BB_002D5226-&gt;BB_002D5232</title>
<path fill="none" stroke="#0000ff" d="M238.4037,-576.4168C232.6909,-568.0225 225.7586,-557.8364 219.4527,-548.5704"/>
<polygon fill="#0000ff" stroke="#0000ff" points="222.1787,-546.3551 213.6589,-540.0571 216.3917,-550.2935 222.1787,-546.3551"/>
</g>
<!-- BB_002D51E5&#45;&gt;BB_002D51EE -->
<g id="edge6" class="edge">
<title>BB_002D51E5-&gt;BB_002D51EE</title>
<path fill="none" stroke="#0000ff" d="M109.0582,-1152.046C111.0045,-1144.2609 113.3228,-1134.9875 115.4824,-1126.3493"/>
<polygon fill="#0000ff" stroke="#0000ff" points="118.8828,-1127.1782 117.9128,-1116.6279 112.0918,-1125.4804 118.8828,-1127.1782"/>
</g>
<!-- BB_002D51F6 -->
<g id="node7" class="node">
<title>BB_002D51F6</title>
<ellipse fill="none" stroke="#000000" cx="88.5161" cy="-1026.2146" rx="70.1118" ry="18"/>
<text text-anchor="middle" x="88.5161" y="-1022.0146" font-family="Times,serif" font-size="14.00" fill="#000000">BB_002D51F6</text>
</g>
<!-- BB_002D51EE&#45;&gt;BB_002D51F6 -->
<g id="edge7" class="edge">
<title>BB_002D51EE-&gt;BB_002D51F6</title>
<path fill="none" stroke="#ff0000" d="M113.9364,-1080.046C110.1225,-1071.9693 105.552,-1062.2907 101.3448,-1053.3814"/>
<polygon fill="#ff0000" stroke="#ff0000" points="104.4102,-1051.676 96.9752,-1044.128 98.0804,-1054.665 104.4102,-1051.676"/>
</g>
<!-- BB_002D520D -->
<g id="node8" class="node">
<title>BB_002D520D</title>
<ellipse fill="none" stroke="#000000" cx="99.5161" cy="-810.2146" rx="71.8182" ry="18"/>
<text text-anchor="middle" x="99.5161" y="-806.0146" font-family="Times,serif" font-size="14.00" fill="#000000">BB_002D520D</text>
</g>
<!-- BB_002D51EE&#45;&gt;BB_002D520D -->
<g id="edge8" class="edge">
<title>BB_002D51EE-&gt;BB_002D520D</title>
<path fill="none" stroke="#00ff00" d="M141.6857,-1080.5264C151.0409,-1070.7546 161.541,-1057.8513 167.5161,-1044.2146 199.8004,-970.5326 225.6222,-934.5141 186.5161,-864.2146 178.286,-849.4197 164.1392,-838.1594 149.6169,-829.8513"/>
<polygon fill="#00ff00" stroke="#00ff00" points="151.0498,-826.6495 140.5757,-825.0547 147.7691,-832.8332 151.0498,-826.6495"/>
</g>
<!-- BB_002D51F6&#45;&gt;BB_002D520D -->
<g id="edge10" class="edge">
<title>BB_002D51F6-&gt;BB_002D520D</title>
<path fill="none" stroke="#00ff00" d="M50.6375,-1010.9376C34.2653,-1002.2079 16.7669,-989.5 7.5161,-972.2146 -.0337,-958.1078 6.1964,-952.1601 7.5161,-936.2146 10.1919,-903.8837 1.9797,-891.5078 19.5161,-864.2146 28.2096,-850.6841 41.6291,-839.709 55.009,-831.275"/>
<polygon fill="#00ff00" stroke="#00ff00" points="56.9268,-834.207 63.7457,-826.0982 53.3584,-828.1848 56.9268,-834.207"/>
</g>
<!-- BB_002D51FA -->
<g id="node9" class="node">
<title>BB_002D51FA</title>
<ellipse fill="none" stroke="#000000" cx="88.5161" cy="-954.2146" rx="72.3981" ry="18"/>
<text text-anchor="middle" x="88.5161" y="-950.0146" font-family="Times,serif" font-size="14.00" fill="#000000">BB_002D51FA</text>
</g>
<!-- BB_002D51F6&#45;&gt;BB_002D51FA -->
<g id="edge9" class="edge">
<title>BB_002D51F6-&gt;BB_002D51FA</title>
<path fill="none" stroke="#ff0000" d="M88.5161,-1008.046C88.5161,-1000.3456 88.5161,-991.1889 88.5161,-982.6312"/>
<polygon fill="#ff0000" stroke="#ff0000" points="92.0162,-982.6278 88.5161,-972.6279 85.0162,-982.6279 92.0162,-982.6278"/>
</g>
<!-- BB_002D5218 -->
<g id="node11" class="node">
<title>BB_002D5218</title>
<ellipse fill="none" stroke="#000000" cx="69.5161" cy="-738.2146" rx="69.5321" ry="18"/>
<text text-anchor="middle" x="69.5161" y="-734.0146" font-family="Times,serif" font-size="14.00" fill="#000000">BB_002D5218</text>
</g>
<!-- BB_002D520D&#45;&gt;BB_002D5218 -->
<g id="edge14" class="edge">
<title>BB_002D520D-&gt;BB_002D5218</title>
<path fill="none" stroke="#ff0000" d="M91.9458,-792.046C88.5805,-783.9693 84.5478,-774.2907 80.8356,-765.3814"/>
<polygon fill="#ff0000" stroke="#ff0000" points="84.057,-764.0126 76.98,-756.128 77.5954,-766.705 84.057,-764.0126"/>
</g>
<!-- BB_002D5221 -->
<g id="node12" class="node">
<title>BB_002D5221</title>
<ellipse fill="none" stroke="#000000" cx="152.5161" cy="-666.2146" rx="69.5321" ry="18"/>
<text text-anchor="middle" x="152.5161" y="-662.0146" font-family="Times,serif" font-size="14.00" fill="#000000">BB_002D5221</text>
</g>
<!-- BB_002D520D&#45;&gt;BB_002D5221 -->
<g id="edge15" class="edge">
<title>BB_002D520D-&gt;BB_002D5221</title>
<path fill="none" stroke="#00ff00" d="M121.1576,-792.8184C131.4174,-783.2167 142.6832,-770.3784 148.5161,-756.2146 156.5815,-736.6298 157.2331,-712.5805 156.0577,-694.2705"/>
<polygon fill="#00ff00" stroke="#00ff00" points="159.5384,-693.8946 155.1968,-684.2302 152.564,-694.4927 159.5384,-693.8946"/>
</g>
<!-- BB_002D51FA&#45;&gt;BB_002D520D -->
<g id="edge12" class="edge">
<title>BB_002D51FA-&gt;BB_002D520D</title>
<path fill="none" stroke="#00ff00" d="M61.1866,-937.4606C48.7427,-928.1884 35.3009,-915.4489 28.5161,-900.2146 22.0067,-885.5986 21.4088,-878.5494 28.5161,-864.2146 34.9927,-851.1518 46.3084,-840.3934 58.0281,-832.0114"/>
<polygon fill="#00ff00" stroke="#00ff00" points="60.1824,-834.7819 66.5697,-826.3289 56.3052,-828.9538 60.1824,-834.7819"/>
</g>
<!-- BB_002D5200 -->
<g id="node10" class="node">
<title>BB_002D5200</title>
<ellipse fill="none" stroke="#000000" cx="107.5161" cy="-882.2146" rx="69.5321" ry="18"/>
<text text-anchor="middle" x="107.5161" y="-878.0146" font-family="Times,serif" font-size="14.00" fill="#000000">BB_002D5200</text>
</g>
<!-- BB_002D51FA&#45;&gt;BB_002D5200 -->
<g id="edge11" class="edge">
<title>BB_002D51FA-&gt;BB_002D5200</title>
<path fill="none" stroke="#ff0000" d="M93.3106,-936.046C95.365,-928.2609 97.8121,-918.9875 100.0916,-910.3493"/>
<polygon fill="#ff0000" stroke="#ff0000" points="103.4895,-911.1899 102.657,-900.6279 96.7212,-909.4038 103.4895,-911.1899"/>
</g>
<!-- BB_002D5200&#45;&gt;BB_002D520D -->
<g id="edge13" class="edge">
<title>BB_002D5200-&gt;BB_002D520D</title>
<path fill="none" stroke="#0000ff" d="M105.4973,-864.046C104.6417,-856.3456 103.6243,-847.1889 102.6735,-838.6312"/>
<polygon fill="#0000ff" stroke="#0000ff" points="106.145,-838.1802 101.562,-828.6279 99.1878,-838.9532 106.145,-838.1802"/>
</g>
<!-- BB_002D5218&#45;&gt;BB_002D5221 -->
<g id="edge16" class="edge">
<title>BB_002D5218-&gt;BB_002D5221</title>
<path fill="none" stroke="#0000ff" d="M89.6081,-720.7854C100.2109,-711.5878 113.3811,-700.163 124.9269,-690.1474"/>
<polygon fill="#0000ff" stroke="#0000ff" points="127.3487,-692.68 132.6091,-683.4833 122.7617,-687.3922 127.3487,-692.68"/>
</g>
<!-- BB_002D5221&#45;&gt;BB_002D5226 -->
<g id="edge17" class="edge">
<title>BB_002D5221-&gt;BB_002D5226</title>
<path fill="none" stroke="#ff0000" d="M175.7407,-649.1516C188.5839,-639.7158 204.7298,-627.8535 218.7285,-617.5687"/>
<polygon fill="#ff0000" stroke="#ff0000" points="221.132,-620.146 227.1185,-611.4046 216.9874,-614.5048 221.132,-620.146"/>
</g>
<!-- BB_002D5221&#45;&gt;BB_002D5232 -->
<g id="edge18" class="edge">
<title>BB_002D5221-&gt;BB_002D5232</title>
<path fill="none" stroke="#00ff00" d="M154.7059,-648.1814C157.3223,-629.6869 162.5172,-600.2991 171.5161,-576.2146 174.9894,-566.9187 179.8712,-557.2879 184.6896,-548.7788"/>
<polygon fill="#00ff00" stroke="#00ff00" points="187.7682,-550.4482 189.8235,-540.0547 181.7353,-546.898 187.7682,-550.4482"/>
</g>
<!-- BB_002D5259 -->
<g id="node14" class="node">
<title>BB_002D5259</title>
<ellipse fill="none" stroke="#000000" cx="152.5161" cy="-450.2146" rx="69.5321" ry="18"/>
<text text-anchor="middle" x="152.5161" y="-446.0146" font-family="Times,serif" font-size="14.00" fill="#000000">BB_002D5259</text>
</g>
<!-- BB_002D5232&#45;&gt;BB_002D5259 -->
<g id="edge20" class="edge">
<title>BB_002D5232-&gt;BB_002D5259</title>
<path fill="none" stroke="#ff0000" d="M189.4037,-504.4168C183.6909,-496.0225 176.7586,-485.8364 170.4527,-476.5704"/>
<polygon fill="#ff0000" stroke="#ff0000" points="173.1787,-474.3551 164.6589,-468.0571 167.3917,-478.2935 173.1787,-474.3551"/>
</g>
<!-- BB_002D5262 -->
<g id="node15" class="node">
<title>BB_002D5262</title>
<ellipse fill="none" stroke="#000000" cx="201.5161" cy="-378.2146" rx="69.5321" ry="18"/>
<text text-anchor="middle" x="201.5161" y="-374.0146" font-family="Times,serif" font-size="14.00" fill="#000000">BB_002D5262</text>
</g>
<!-- BB_002D5232&#45;&gt;BB_002D5262 -->
<g id="edge21" class="edge">
<title>BB_002D5232-&gt;BB_002D5262</title>
<path fill="none" stroke="#00ff00" d="M214.5583,-504.2173C221.0374,-494.1597 228.1802,-481.0879 231.5161,-468.2146 235.5295,-452.7261 235.5295,-447.7031 231.5161,-432.2146 229.0663,-422.7607 224.5634,-413.1999 219.778,-404.8044"/>
<polygon fill="#00ff00" stroke="#00ff00" points="222.7416,-402.9414 214.5583,-396.2119 216.7589,-406.5757 222.7416,-402.9414"/>
</g>
<!-- BB_002D5259&#45;&gt;BB_002D5262 -->
<g id="edge22" class="edge">
<title>BB_002D5259-&gt;BB_002D5262</title>
<path fill="none" stroke="#0000ff" d="M164.6284,-432.4168C170.3412,-424.0225 177.2735,-413.8364 183.5794,-404.5704"/>
<polygon fill="#0000ff" stroke="#0000ff" points="186.6404,-406.2935 189.3732,-396.0571 180.8534,-402.3551 186.6404,-406.2935"/>
</g>
<!-- BB_002D5269 -->
<g id="node16" class="node">
<title>BB_002D5269</title>
<ellipse fill="none" stroke="#000000" cx="152.5161" cy="-306.2146" rx="69.5321" ry="18"/>
<text text-anchor="middle" x="152.5161" y="-302.0146" font-family="Times,serif" font-size="14.00" fill="#000000">BB_002D5269</text>
</g>
<!-- BB_002D5262&#45;&gt;BB_002D5269 -->
<g id="edge23" class="edge">
<title>BB_002D5262-&gt;BB_002D5269</title>
<path fill="none" stroke="#ff0000" d="M189.4037,-360.4168C183.6909,-352.0225 176.7586,-341.8364 170.4527,-332.5704"/>
<polygon fill="#ff0000" stroke="#ff0000" points="173.1787,-330.3551 164.6589,-324.0571 167.3917,-334.2935 173.1787,-330.3551"/>
</g>
<!-- BB_002D5276 -->
<g id="node17" class="node">
<title>BB_002D5276</title>
<ellipse fill="none" stroke="#000000" cx="201.5161" cy="-234.2146" rx="69.5321" ry="18"/>
<text text-anchor="middle" x="201.5161" y="-230.0146" font-family="Times,serif" font-size="14.00" fill="#000000">BB_002D5276</text>
</g>
<!-- BB_002D5262&#45;&gt;BB_002D5276 -->
<g id="edge24" class="edge">
<title>BB_002D5262-&gt;BB_002D5276</title>
<path fill="none" stroke="#00ff00" d="M214.5583,-360.2173C221.0374,-350.1597 228.1802,-337.0879 231.5161,-324.2146 235.5295,-308.7261 235.5295,-303.7031 231.5161,-288.2146 229.0663,-278.7607 224.5634,-269.1999 219.778,-260.8044"/>
<polygon fill="#00ff00" stroke="#00ff00" points="222.7416,-258.9414 214.5583,-252.2119 216.7589,-262.5757 222.7416,-258.9414"/>
</g>
<!-- BB_002D5269&#45;&gt;BB_002D5276 -->
<g id="edge25" class="edge">
<title>BB_002D5269-&gt;BB_002D5276</title>
<path fill="none" stroke="#0000ff" d="M164.6284,-288.4168C170.3412,-280.0225 177.2735,-269.8364 183.5794,-260.5704"/>
<polygon fill="#0000ff" stroke="#0000ff" points="186.6404,-262.2935 189.3732,-252.0571 180.8534,-258.3551 186.6404,-262.2935"/>
</g>
<!-- BB_002D527D -->
<g id="node18" class="node">
<title>BB_002D527D</title>
<ellipse fill="none" stroke="#000000" cx="151.5161" cy="-162.2146" rx="71.8182" ry="18"/>
<text text-anchor="middle" x="151.5161" y="-158.0146" font-family="Times,serif" font-size="14.00" fill="#000000">BB_002D527D</text>
</g>
<!-- BB_002D5276&#45;&gt;BB_002D527D -->
<g id="edge26" class="edge">
<title>BB_002D5276-&gt;BB_002D527D</title>
<path fill="none" stroke="#ff0000" d="M189.1565,-216.4168C183.267,-207.936 176.1074,-197.6261 169.6199,-188.2842"/>
<polygon fill="#ff0000" stroke="#ff0000" points="172.4855,-186.2745 163.9067,-180.0571 166.7359,-190.2673 172.4855,-186.2745"/>
</g>
<!-- BB_002D528E -->
<g id="node19" class="node">
<title>BB_002D528E</title>
<ellipse fill="none" stroke="#000000" cx="201.5161" cy="-90.2146" rx="70.6742" ry="18"/>
<text text-anchor="middle" x="201.5161" y="-86.0146" font-family="Times,serif" font-size="14.00" fill="#000000">BB_002D528E</text>
</g>
<!-- BB_002D5276&#45;&gt;BB_002D528E -->
<g id="edge27" class="edge">
<title>BB_002D5276-&gt;BB_002D528E</title>
<path fill="none" stroke="#00ff00" d="M214.988,-216.2799C221.6816,-206.2407 229.0627,-193.1665 232.5161,-180.2146 236.6382,-164.7547 236.6382,-159.6745 232.5161,-144.2146 229.98,-134.703 225.3257,-125.1255 220.381,-116.7325"/>
<polygon fill="#00ff00" stroke="#00ff00" points="223.2717,-114.7545 214.988,-108.1493 217.3446,-118.4787 223.2717,-114.7545"/>
</g>
<!-- BB_002D527D&#45;&gt;BB_002D528E -->
<g id="edge28" class="edge">
<title>BB_002D527D-&gt;BB_002D528E</title>
<path fill="none" stroke="#0000ff" d="M163.8756,-144.4168C169.7651,-135.936 176.9247,-125.6261 183.4122,-116.2842"/>
<polygon fill="#0000ff" stroke="#0000ff" points="186.2962,-118.2673 189.1254,-108.0571 180.5466,-114.2745 186.2962,-118.2673"/>
</g>
<!-- end -->
<g id="node20" class="node">
<title>end</title>
<polygon fill="none" stroke="#000000" points="219.7313,-36.3225 183.3008,-36.3225 183.3008,.1079 219.7313,.1079 219.7313,-36.3225"/>
<polyline fill="none" stroke="#000000" points="195.3008,-36.3225 183.3008,-24.3225 "/>
<polyline fill="none" stroke="#000000" points="183.3008,-11.8921 195.3008,.1079 "/>
<polyline fill="none" stroke="#000000" points="207.7313,.1079 219.7313,-11.8921 "/>
<polyline fill="none" stroke="#000000" points="219.7313,-24.3225 207.7313,-36.3225 "/>
<text text-anchor="middle" x="201.5161" y="-13.9073" font-family="Times,serif" font-size="14.00" fill="#000000">end</text>
</g>
<!-- BB_002D528E&#45;&gt;end -->
<g id="edge29" class="edge">
<title>BB_002D528E-&gt;end</title>
<path fill="none" stroke="#000000" d="M201.5161,-72.0189C201.5161,-64.2477 201.5161,-54.9956 201.5161,-46.3686"/>
<polygon fill="#000000" stroke="#000000" points="205.0162,-46.2972 201.5161,-36.2972 198.0162,-46.2972 205.0162,-46.2972"/>
</g>
</g>
</svg>