<?xml version="1.0" encoding="UTF-8" standalone="no"?><!DOCTYPE svg PUBLIC "-//W3C//DTD SVG 1.1//EN" "http://www.w3.org/Graphics/SVG/1.1/DTD/svg11.dtd"><!-- Generated by graphviz version 2.40.1 (20161225.0304)
 --><!-- Title: G Pages: 1 --><svg xmlns="http://www.w3.org/2000/svg" xmlns:xlink="http://www.w3.org/1999/xlink" width="522pt" height="798pt" viewBox="0.00 0.00 521.97 797.86">
<g id="graph0" class="graph" transform="scale(1 1) rotate(0) translate(4 793.8584)">
<title>G</title>
<polygon fill="#ffffff" stroke="transparent" points="-4,4 -4,-793.8584 517.9679,-793.8584 517.9679,4 -4,4"/>
<!-- start -->
<g id="node1" class="node">
<title>start</title>
<polygon fill="none" stroke="#000000" points="444.984,-789.8584 405.7467,-771.8584 444.984,-753.8584 484.2213,-771.8584 444.984,-789.8584"/>
<polyline fill="none" stroke="#000000" points="416.6537,-776.862 416.6537,-766.8548 "/>
<polyline fill="none" stroke="#000000" points="434.0769,-758.862 455.891,-758.862 "/>
<polyline fill="none" stroke="#000000" points="473.3142,-766.8548 473.3142,-776.862 "/>
<polyline fill="none" stroke="#000000" points="455.891,-784.8548 434.0769,-784.8548 "/>
<text text-anchor="middle" x="444.984" y="-767.6584" font-family="Times,serif" font-size="14.00" fill="#000000">start</text>
</g>
<!-- BB_002E7F40 -->
<g id="node2" class="node">
<title>BB_002E7F40</title>
<ellipse fill="none" stroke="#000000" cx="444.984" cy="-699.8584" rx="68.9679" ry="18"/>
<text text-anchor="middle" x="444.984" y="-695.6584" font-family="Times,serif" font-size="14.00" fill="#000000">BB_002E7F40</text>
</g>
<!-- start&#45;&gt;BB_002E7F40 -->
<g id="edge1" class="edge">
<title>start-&gt;BB_002E7F40</title>
<path fill="none" stroke="#000000" d="M444.984,-753.6898C444.984,-745.9894 444.984,-736.8327 444.984,-728.275"/>
<polygon fill="#000000" stroke="#000000" points="448.4841,-728.2716 444.984,-718.2717 441.4841,-728.2717 448.4841,-728.2716"/>
</g>
<!-- BB_002E7F98 -->
<g id="node3" class="node">
<title>BB_002E7F98</title>
<ellipse fill="none" stroke="#000000" cx="396.984" cy="-627.8584" rx="68.9679" ry="18"/>
<text text-anchor="middle" x="396.984" y="-623.6584" font-family="Times,serif" font-size="14.00" fill="#000000">BB_002E7F98</text>
</g>
<!-- BB_002E7F40&#45;&gt;BB_002E7F98 -->
<g id="edge2" class="edge">
<title>BB_002E7F40-&gt;BB_002E7F98</title>
<path fill="none" stroke="#ff0000" d="M433.1188,-682.0606C427.5226,-673.6663 420.7318,-663.4802 414.5545,-654.2142"/>
<polygon fill="#ff0000" stroke="#ff0000" points="417.3382,-652.08 408.879,-645.7009 411.5139,-655.9629 417.3382,-652.08"/>
</g>
<!-- BB_002E808C -->
<g id="node4" class="node">
<title>BB_002E808C</title>
<ellipse fill="none" stroke="#000000" cx="417.984" cy="-411.8584" rx="70.1118" ry="18"/>
<text text-anchor="middle" x="417.984" y="-407.6584" font-family="Times,serif" font-size="14.00" fill="#000000">BB_002E808C</text>
</g>
<!-- BB_002E7F40&#45;&gt;BB_002E808C -->
<g id="edge3" class="edge">
<title>BB_002E7F40-&gt;BB_002E808C</title>
<path fill="none" stroke="#00ff00" d="M458.0262,-681.8611C464.5053,-671.8035 471.6482,-658.7317 474.984,-645.8584 495.0513,-568.4161 506.5944,-539.3484 474.984,-465.8584 469.9344,-454.1188 460.9389,-443.7356 451.5649,-435.2897"/>
<polygon fill="#00ff00" stroke="#00ff00" points="453.5874,-432.4176 443.6799,-428.6636 449.0839,-437.7766 453.5874,-432.4176"/>
</g>
<!-- BB_002E7FCC -->
<g id="node5" class="node">
<title>BB_002E7FCC</title>
<ellipse fill="none" stroke="#000000" cx="297.984" cy="-555.8584" rx="72.4155" ry="18"/>
<text text-anchor="middle" x="297.984" y="-551.6584" font-family="Times,serif" font-size="14.00" fill="#000000">BB_002E7FCC</text>
</g>
<!-- BB_002E7F98&#45;&gt;BB_002E7FCC -->
<g id="edge4" class="edge">
<title>BB_002E7F98-&gt;BB_002E7FCC</title>
<path fill="none" stroke="#ff0000" d="M373.5224,-610.7954C360.5481,-601.3596 344.2375,-589.4973 330.0959,-579.2125"/>
<polygon fill="#ff0000" stroke="#ff0000" points="331.7663,-576.0996 321.6203,-573.0484 327.649,-581.7608 331.7663,-576.0996"/>
</g>
<!-- BB_002E8080 -->
<g id="node6" class="node">
<title>BB_002E8080</title>
<ellipse fill="none" stroke="#000000" cx="397.984" cy="-483.8584" rx="68.3883" ry="18"/>
<text text-anchor="middle" x="397.984" y="-479.6584" font-family="Times,serif" font-size="14.00" fill="#000000">BB_002E8080</text>
</g>
<!-- BB_002E7F98&#45;&gt;BB_002E8080 -->
<g id="edge5" class="edge">
<title>BB_002E7F98-&gt;BB_002E8080</title>
<path fill="none" stroke="#00ff00" d="M397.1106,-609.6207C397.2812,-585.0594 397.5864,-541.1058 397.7871,-512.2125"/>
<polygon fill="#00ff00" stroke="#00ff00" points="401.2887,-511.9721 397.8583,-501.948 394.2889,-511.9234 401.2887,-511.9721"/>
</g>
<!-- BB_002E80D9 -->
<g id="node13" class="node">
<title>BB_002E80D9</title>
<ellipse fill="none" stroke="#000000" cx="367.984" cy="-90.2146" rx="70.6742" ry="18"/>
<text text-anchor="middle" x="367.984" y="-86.0146" font-family="Times,serif" font-size="14.00" fill="#000000">BB_002E80D9</text>
</g>
<!-- BB_002E808C&#45;&gt;BB_002E80D9 -->
<g id="edge17" class="edge">
<title>BB_002E808C-&gt;BB_002E80D9</title>
<path fill="none" stroke="#0000ff" d="M419.255,-393.8452C421.7911,-350.0297 425.1083,-234.8309 397.984,-144.2146 395.1834,-134.8586 390.5793,-125.3261 385.8091,-116.9263"/>
<polygon fill="#0000ff" stroke="#0000ff" points="388.7909,-115.0931 380.6452,-108.3183 382.7882,-118.6941 388.7909,-115.0931"/>
</g>
<!-- BB_002E7FCC&#45;&gt;BB_002E8080 -->
<g id="edge7" class="edge">
<title>BB_002E7FCC-&gt;BB_002E8080</title>
<path fill="none" stroke="#00ff00" d="M321.6826,-538.7954C335.0081,-529.201 351.8179,-517.098 366.2658,-506.6955"/>
<polygon fill="#00ff00" stroke="#00ff00" points="368.3852,-509.4824 374.4555,-500.7989 364.295,-503.8016 368.3852,-509.4824"/>
</g>
<!-- BB_002E7FD4 -->
<g id="node7" class="node">
<title>BB_002E7FD4</title>
<ellipse fill="none" stroke="#000000" cx="239.984" cy="-483.8584" rx="71.2539" ry="18"/>
<text text-anchor="middle" x="239.984" y="-479.6584" font-family="Times,serif" font-size="14.00" fill="#000000">BB_002E7FD4</text>
</g>
<!-- BB_002E7FCC&#45;&gt;BB_002E7FD4 -->
<g id="edge6" class="edge">
<title>BB_002E7FCC-&gt;BB_002E7FD4</title>
<path fill="none" stroke="#ff0000" d="M283.6469,-538.0606C276.7454,-529.4932 268.3403,-519.0593 260.7543,-509.6423"/>
<polygon fill="#ff0000" stroke="#ff0000" points="263.3561,-507.2928 254.3571,-501.7009 257.9048,-511.6842 263.3561,-507.2928"/>
</g>
<!-- BB_002E8080&#45;&gt;BB_002E808C -->
<g id="edge16" class="edge">
<title>BB_002E8080-&gt;BB_002E808C</title>
<path fill="none" stroke="#0000ff" d="M403.0308,-465.6898C405.1933,-457.9047 407.7693,-448.6313 410.1688,-439.9931"/>
<polygon fill="#0000ff" stroke="#0000ff" points="413.565,-440.8436 412.8692,-430.2717 406.8203,-438.9701 413.565,-440.8436"/>
</g>
<!-- BB_002E802D -->
<g id="node8" class="node">
<title>BB_002E802D</title>
<ellipse fill="none" stroke="#000000" cx="220.984" cy="-411.8584" rx="70.6742" ry="18"/>
<text text-anchor="middle" x="220.984" y="-407.6584" font-family="Times,serif" font-size="14.00" fill="#000000">BB_002E802D</text>
</g>
<!-- BB_002E7FD4&#45;&gt;BB_002E802D -->
<g id="edge8" class="edge">
<title>BB_002E7FD4-&gt;BB_002E802D</title>
<path fill="none" stroke="#ff0000" d="M235.1895,-465.6898C233.1351,-457.9047 230.6879,-448.6313 228.4084,-439.9931"/>
<polygon fill="#ff0000" stroke="#ff0000" points="231.7788,-439.0476 225.843,-430.2717 225.0105,-440.8337 231.7788,-439.0476"/>
</g>
<!-- BB_002E805F -->
<g id="node9" class="node">
<title>BB_002E805F</title>
<ellipse fill="none" stroke="#000000" cx="319.984" cy="-179.0365" rx="68.9679" ry="18"/>
<text text-anchor="middle" x="319.984" y="-174.8365" font-family="Times,serif" font-size="14.00" fill="#000000">BB_002E805F</text>
</g>
<!-- BB_002E7FD4&#45;&gt;BB_002E805F -->
<g id="edge9" class="edge">
<title>BB_002E7FD4-&gt;BB_002E805F</title>
<path fill="none" stroke="#00ff00" d="M266.9484,-467.2012C279.5603,-457.8751 293.4354,-445.0598 300.984,-429.8584 337.4588,-356.4047 330.6438,-255.7418 324.4236,-207.3185"/>
<polygon fill="#00ff00" stroke="#00ff00" points="327.8706,-206.6928 323.0415,-197.2625 320.9358,-207.646 327.8706,-206.6928"/>
</g>
<!-- BB_002E8041 -->
<g id="node10" class="node">
<title>BB_002E8041</title>
<ellipse fill="none" stroke="#000000" cx="127.984" cy="-339.8584" rx="68.3883" ry="18"/>
<text text-anchor="middle" x="127.984" y="-335.6584" font-family="Times,serif" font-size="14.00" fill="#000000">BB_002E8041</text>
</g>
<!-- BB_002E802D&#45;&gt;BB_002E8041 -->
<g id="edge10" class="edge">
<title>BB_002E802D-&gt;BB_002E8041</title>
<path fill="none" stroke="#ff0000" d="M198.4713,-394.4292C186.4767,-385.1431 171.5499,-373.5869 158.5244,-363.5026"/>
<polygon fill="#ff0000" stroke="#ff0000" points="160.3392,-360.4813 150.2894,-357.1271 156.054,-366.0164 160.3392,-360.4813"/>
</g>
<!-- BB_002E8055 -->
<g id="node11" class="node">
<title>BB_002E8055</title>
<ellipse fill="none" stroke="#000000" cx="223.984" cy="-267.8584" rx="68.3883" ry="18"/>
<text text-anchor="middle" x="223.984" y="-263.6584" font-family="Times,serif" font-size="14.00" fill="#000000">BB_002E8055</text>
</g>
<!-- BB_002E802D&#45;&gt;BB_002E8055 -->
<g id="edge11" class="edge">
<title>BB_002E802D-&gt;BB_002E8055</title>
<path fill="none" stroke="#00ff00" d="M221.3639,-393.6207C221.8756,-369.0594 222.7913,-325.1058 223.3933,-296.2125"/>
<polygon fill="#00ff00" stroke="#00ff00" points="226.898,-296.0188 223.6071,-285.948 219.8995,-295.8729 226.898,-296.0188"/>
</g>
<!-- BB_002E805F&#45;&gt;BB_002E80D9 -->
<g id="edge15" class="edge">
<title>BB_002E805F-&gt;BB_002E80D9</title>
<path fill="none" stroke="#0000ff" d="M329.6975,-161.0621C336.5289,-148.4209 345.7883,-131.2867 353.4899,-117.0352"/>
<polygon fill="#0000ff" stroke="#0000ff" points="356.6097,-118.6239 358.2849,-108.1623 350.4514,-115.2959 356.6097,-118.6239"/>
</g>
<!-- BB_002E8041&#45;&gt;BB_002E8055 -->
<g id="edge12" class="edge">
<title>BB_002E8041-&gt;BB_002E8055</title>
<path fill="none" stroke="#ff0000" d="M150.7346,-322.7954C163.3157,-313.3596 179.1321,-301.4973 192.8451,-291.2125"/>
<polygon fill="#ff0000" stroke="#ff0000" points="195.1639,-293.8485 201.0639,-285.0484 190.9639,-288.2485 195.1639,-293.8485"/>
</g>
<!-- BB_002E80F7 -->
<g id="node12" class="node">
<title>BB_002E80F7</title>
<ellipse fill="none" stroke="#000000" cx="68.984" cy="-267.8584" rx="68.9679" ry="18"/>
<text text-anchor="middle" x="68.984" y="-263.6584" font-family="Times,serif" font-size="14.00" fill="#000000">BB_002E80F7</text>
</g>
<!-- BB_002E8041&#45;&gt;BB_002E80F7 -->
<g id="edge13" class="edge">
<title>BB_002E8041-&gt;BB_002E80F7</title>
<path fill="none" stroke="#00ff00" d="M113.3997,-322.0606C106.3792,-313.4932 97.8292,-303.0593 90.1124,-293.6423"/>
<polygon fill="#00ff00" stroke="#00ff00" points="92.6504,-291.2174 83.6049,-285.7009 87.236,-295.6541 92.6504,-291.2174"/>
</g>
<!-- BB_002E8055&#45;&gt;BB_002E805F -->
<g id="edge14" class="edge">
<title>BB_002E8055-&gt;BB_002E805F</title>
<path fill="none" stroke="#0000ff" d="M242.9505,-250.3101C257.4139,-236.9281 277.5107,-218.334 293.5509,-203.4931"/>
<polygon fill="#0000ff" stroke="#0000ff" points="296.0936,-205.9088 301.0569,-196.5484 291.3397,-200.7707 296.0936,-205.9088"/>
</g>
<!-- dead_end -->
<g id="node15" class="node">
<title>dead_end</title>
<polygon fill="none" stroke="#000000" points="103.6287,-213.6812 34.3393,-213.6812 34.3393,-144.3918 103.6287,-144.3918 103.6287,-213.6812"/>
<polyline fill="none" stroke="#000000" points="46.3393,-213.6812 34.3393,-201.6812 "/>
<polyline fill="none" stroke="#000000" points="34.3393,-156.3918 46.3393,-144.3918 "/>
<polyline fill="none" stroke="#000000" points="91.6287,-144.3918 103.6287,-156.3918 "/>
<polyline fill="none" stroke="#000000" points="103.6287,-201.6812 91.6287,-213.6812 "/>
<text text-anchor="middle" x="68.984" y="-174.8365" font-family="Times,serif" font-size="14.00" fill="#000000">dead_end</text>
</g>
<!-- BB_002E80F7&#45;&gt;dead_end -->
<g id="edge19" class="edge">
<title>BB_002E80F7-&gt;dead_end</title>
<path fill="none" stroke="#000000" d="M68.984,-249.4544C68.984,-241.9968 68.984,-233.0284 68.984,-224.0283"/>
<polygon fill="#000000" stroke="#000000" points="72.4841,-223.9321 68.984,-213.9321 65.4841,-223.9322 72.4841,-223.9321"/>
</g>
<!-- end -->
<g id="node14" class="node">
<title>end</title>
<polygon fill="none" stroke="#000000" points="386.1992,-36.3225 349.7687,-36.3225 349.7687,.1079 386.1992,.1079 386.1992,-36.3225"/>
<polyline fill="none" stroke="#000000" points="361.7687,-36.3225 349.7687,-24.3225 "/>
<polyline fill="none" stroke="#000000" points="349.7687,-11.8921 361.7687,.1079 "/>
<polyline fill="none" stroke="#000000" points="374.1992,.1079 386.1992,-11.8921 "/>
<polyline fill="none" stroke="#000000" points="386.1992,-24.3225 374.1992,-36.3225 "/>
<text text-anchor="middle" x="367.984" y="-13.9073" font-family="Times,serif" font-size="14.00" fill="#000000">end</text>
</g>
<!-- BB_002E80D9&#45;&gt;end -->
<g id="edge18" class="edge">
<title>BB_002E80D9-&gt;end</title>
<path fill="none" stroke="#000000" d="M367.984,-72.0189C367.984,-64.2477 367.984,-54.9956 367.984,-46.3686"/>
<polygon fill="#000000" stroke="#000000" points="371.4841,-46.2972 367.984,-36.2972 364.4841,-46.2972 371.4841,-46.2972"/>
</g>
</g>
</svg>