<?xml version="1.0" encoding="UTF-8" standalone="no"?><!DOCTYPE svg PUBLIC "-//W3C//DTD SVG 1.1//EN" "http://www.w3.org/Graphics/SVG/1.1/DTD/svg11.dtd"><!-- Generated by graphviz version 2.40.1 (20161225.0304)
 --><!-- Title: G Pages: 1 --><svg xmlns="http://www.w3.org/2000/svg" xmlns:xlink="http://www.w3.org/1999/xlink" width="308pt" height="332pt" viewBox="0.00 0.00 308.18 332.21">
<g id="graph0" class="graph" transform="scale(1 1) rotate(0) translate(4 328.2146)">
<title>G</title>
<polygon fill="#ffffff" stroke="transparent" points="-4,4 -4,-328.2146 304.175,-328.2146 304.175,4 -4,4"/>
<!-- start -->
<g id="node1" class="node">
<title>start</title>
<polygon fill="none" stroke="#000000" points="148.5161,-324.2146 109.2788,-306.2146 148.5161,-288.2146 187.7534,-306.2146 148.5161,-324.2146"/>
<polyline fill="none" stroke="#000000" points="120.1858,-311.2182 120.1858,-301.211 "/>
<polyline fill="none" stroke="#000000" points="137.609,-293.2182 159.4231,-293.2182 "/>
<polyline fill="none" stroke="#000000" points="176.8463,-301.211 176.8463,-311.2182 "/>
<polyline fill="none" stroke="#000000" points="159.4231,-319.211 137.609,-319.211 "/>
<text text-anchor="middle" x="148.5161" y="-302.0146" font-family="Times,serif" font-size="14.00" fill="#000000">start</text>
</g>
<!-- BB_002D6650 -->
<g id="node2" class="node">
<title>BB_002D6650</title>
<ellipse fill="none" stroke="#000000" cx="148.5161" cy="-234.2146" rx="69.5321" ry="18"/>
<text text-anchor="middle" x="148.5161" y="-230.0146" font-family="Times,serif" font-size="14.00" fill="#000000">BB_002D6650</text>
</g>
<!-- start&#45;&gt;BB_002D6650 -->
<g id="edge1" class="edge">
<title>start-&gt;BB_002D6650</title>
<path fill="none" stroke="#000000" d="M148.5161,-288.046C148.5161,-280.3456 148.5161,-271.1889 148.5161,-262.6312"/>
<polygon fill="#000000" stroke="#000000" points="152.0162,-262.6278 148.5161,-252.6279 145.0162,-262.6279 152.0162,-262.6278"/>
</g>
<!-- BB_002D6693 -->
<g id="node3" class="node">
<title>BB_002D6693</title>
<ellipse fill="none" stroke="#000000" cx="69.5161" cy="-162.2146" rx="69.5321" ry="18"/>
<text text-anchor="middle" x="69.5161" y="-158.0146" font-family="Times,serif" font-size="14.00" fill="#000000">BB_002D6693</text>
</g>
<!-- BB_002D6650&#45;&gt;BB_002D6693 -->
<g id="edge2" class="edge">
<title>BB_002D6650-&gt;BB_002D6693</title>
<path fill="none" stroke="#ff0000" d="M129.3924,-216.7854C119.471,-207.7432 107.1879,-196.5484 96.334,-186.6563"/>
<polygon fill="#ff0000" stroke="#ff0000" points="98.486,-183.8821 88.7375,-179.7328 93.7708,-189.0557 98.486,-183.8821"/>
</g>
<!-- BB_002D66A2 -->
<g id="node4" class="node">
<title>BB_002D66A2</title>
<ellipse fill="none" stroke="#000000" cx="228.5161" cy="-162.2146" rx="71.8182" ry="18"/>
<text text-anchor="middle" x="228.5161" y="-158.0146" font-family="Times,serif" font-size="14.00" fill="#000000">BB_002D66A2</text>
</g>
<!-- BB_002D6650&#45;&gt;BB_002D66A2 -->
<g id="edge3" class="edge">
<title>BB_002D6650-&gt;BB_002D66A2</title>
<path fill="none" stroke="#00ff00" d="M167.8818,-216.7854C177.9288,-207.7432 190.3674,-196.5484 201.3587,-186.6563"/>
<polygon fill="#00ff00" stroke="#00ff00" points="203.9598,-189.0241 209.0514,-179.7328 199.277,-183.821 203.9598,-189.0241"/>
</g>
<!-- BB_002D66A4 -->
<g id="node5" class="node">
<title>BB_002D66A4</title>
<ellipse fill="none" stroke="#000000" cx="148.5161" cy="-90.2146" rx="71.8182" ry="18"/>
<text text-anchor="middle" x="148.5161" y="-86.0146" font-family="Times,serif" font-size="14.00" fill="#000000">BB_002D66A4</text>
</g>
<!-- BB_002D6693&#45;&gt;BB_002D66A4 -->
<g id="edge4" class="edge">
<title>BB_002D6693-&gt;BB_002D66A4</title>
<path fill="none" stroke="#0000ff" d="M88.6398,-144.7854C98.5611,-135.7432 110.8442,-124.5484 121.6981,-114.6563"/>
<polygon fill="#0000ff" stroke="#0000ff" points="124.2613,-117.0557 129.2947,-107.7328 119.5461,-111.8821 124.2613,-117.0557"/>
</g>
<!-- BB_002D66A2&#45;&gt;BB_002D66A4 -->
<g id="edge5" class="edge">
<title>BB_002D66A2-&gt;BB_002D66A4</title>
<path fill="none" stroke="#0000ff" d="M209.1503,-144.7854C199.1034,-135.7432 186.6648,-124.5484 175.6735,-114.6563"/>
<polygon fill="#0000ff" stroke="#0000ff" points="177.7551,-111.821 167.9808,-107.7328 173.0724,-117.0241 177.7551,-111.821"/>
</g>
<!-- end -->
<g id="node6" class="node">
<title>end</title>
<polygon fill="none" stroke="#000000" points="166.7313,-36.3225 130.3008,-36.3225 130.3008,.1079 166.7313,.1079 166.7313,-36.3225"/>
<polyline fill="none" stroke="#000000" points="142.3008,-36.3225 130.3008,-24.3225 "/>
<polyline fill="none" stroke="#000000" points="130.3008,-11.8921 142.3008,.1079 "/>
<polyline fill="none" stroke="#000000" points="154.7313,.1079 166.7313,-11.8921 "/>
<polyline fill="none" stroke="#000000" points="166.7313,-24.3225 154.7313,-36.3225 "/>
<text text-anchor="middle" x="148.5161" y="-13.9073" font-family="Times,serif" font-size="14.00" fill="#000000">end</text>
</g>
<!-- BB_002D66A4&#45;&gt;end -->
<g id="edge6" class="edge">
<title>BB_002D66A4-&gt;end</title>
<path fill="none" stroke="#000000" d="M148.5161,-72.0189C148.5161,-64.2477 148.5161,-54.9956 148.5161,-46.3686"/>
<polygon fill="#000000" stroke="#000000" points="152.0162,-46.2972 148.5161,-36.2972 145.0162,-46.2972 152.0162,-46.2972"/>
</g>
</g>
</svg>