<?xml version="1.0" encoding="UTF-8" standalone="no"?><!DOCTYPE svg PUBLIC "-//W3C//DTD SVG 1.1//EN" "http://www.w3.org/Graphics/SVG/1.1/DTD/svg11.dtd"><!-- Generated by graphviz version 2.40.1 (20161225.0304)
 --><!-- Title: G Pages: 1 --><svg xmlns="http://www.w3.org/2000/svg" xmlns:xlink="http://www.w3.org/1999/xlink" width="483pt" height="942pt" viewBox="0.00 0.00 483.17 941.86">
<g id="graph0" class="graph" transform="scale(1 1) rotate(0) translate(4 937.8584)">
<title>G</title>
<polygon fill="#ffffff" stroke="transparent" points="-4,4 -4,-937.8584 479.174,-937.8584 479.174,4 -4,4"/>
<!-- start -->
<g id="node1" class="node">
<title>start</title>
<polygon fill="none" stroke="#000000" points="151.7299,-933.8584 112.4926,-915.8584 151.7299,-897.8584 190.9672,-915.8584 151.7299,-933.8584"/>
<polyline fill="none" stroke="#000000" points="123.3997,-920.862 123.3997,-910.8548 "/>
<polyline fill="none" stroke="#000000" points="140.8228,-902.862 162.637,-902.862 "/>
<polyline fill="none" stroke="#000000" points="180.0601,-910.8548 180.0601,-920.862 "/>
<polyline fill="none" stroke="#000000" points="162.637,-928.8548 140.8228,-928.8548 "/>
<text text-anchor="middle" x="151.7299" y="-911.6584" font-family="Times,serif" font-size="14.00" fill="#000000">start</text>
</g>
<!-- BB_002E4650 -->
<g id="node2" class="node">
<title>BB_002E4650</title>
<ellipse fill="none" stroke="#000000" cx="151.7299" cy="-843.8584" rx="68.3883" ry="18"/>
<text text-anchor="middle" x="151.7299" y="-839.6584" font-family="Times,serif" font-size="14.00" fill="#000000">BB_002E4650</text>
</g>
<!-- start&#45;&gt;BB_002E4650 -->
<g id="edge1" class="edge">
<title>start-&gt;BB_002E4650</title>
<path fill="none" stroke="#000000" d="M151.7299,-897.6898C151.7299,-889.9894 151.7299,-880.8327 151.7299,-872.275"/>
<polygon fill="#000000" stroke="#000000" points="155.23,-872.2716 151.7299,-862.2717 148.23,-872.2717 155.23,-872.2716"/>
</g>
<!-- BB_002E46DD -->
<g id="node3" class="node">
<title>BB_002E46DD</title>
<ellipse fill="none" stroke="#000000" cx="72.7299" cy="-699.8584" rx="72.9605" ry="18"/>
<text text-anchor="middle" x="72.7299" y="-695.6584" font-family="Times,serif" font-size="14.00" fill="#000000">BB_002E46DD</text>
</g>
<!-- BB_002E4650&#45;&gt;BB_002E46DD -->
<g id="edge2" class="edge">
<title>BB_002E4650-&gt;BB_002E46DD</title>
<path fill="none" stroke="#ff0000" d="M141.8842,-825.9119C128.2241,-801.0124 103.4135,-755.7879 87.5208,-726.819"/>
<polygon fill="#ff0000" stroke="#ff0000" points="90.5781,-725.115 82.6997,-718.0311 84.441,-728.4819 90.5781,-725.115"/>
</g>
<!-- BB_002E4733 -->
<g id="node4" class="node">
<title>BB_002E4733</title>
<ellipse fill="none" stroke="#000000" cx="215.7299" cy="-771.8584" rx="68.3883" ry="18"/>
<text text-anchor="middle" x="215.7299" y="-767.6584" font-family="Times,serif" font-size="14.00" fill="#000000">BB_002E4733</text>
</g>
<!-- BB_002E4650&#45;&gt;BB_002E4733 -->
<g id="edge3" class="edge">
<title>BB_002E4650-&gt;BB_002E4733</title>
<path fill="none" stroke="#00ff00" d="M167.5501,-826.0606C175.3004,-817.3416 184.7689,-806.6895 193.2544,-797.1433"/>
<polygon fill="#00ff00" stroke="#00ff00" points="196.0639,-799.2508 200.0917,-789.4514 190.832,-794.6003 196.0639,-799.2508"/>
</g>
<!-- BB_002E47E6 -->
<g id="node5" class="node">
<title>BB_002E47E6</title>
<ellipse fill="none" stroke="#000000" cx="121.7299" cy="-234.2146" rx="69.5302" ry="18"/>
<text text-anchor="middle" x="121.7299" y="-230.0146" font-family="Times,serif" font-size="14.00" fill="#000000">BB_002E47E6</text>
</g>
<!-- BB_002E46DD&#45;&gt;BB_002E47E6 -->
<g id="edge4" class="edge">
<title>BB_002E46DD-&gt;BB_002E47E6</title>
<path fill="none" stroke="#0000ff" d="M72.7299,-681.673C72.7299,-654.3567 72.7299,-601.1084 72.7299,-555.8584 72.7299,-555.8584 72.7299,-555.8584 72.7299,-411.8584 72.7299,-356.2606 73.725,-340.8163 91.7299,-288.2146 94.9436,-278.8257 99.7535,-269.1692 104.5858,-260.6651"/>
<polygon fill="#0000ff" stroke="#0000ff" points="107.6613,-262.3409 109.7638,-251.9568 101.6446,-258.7633 107.6613,-262.3409"/>
</g>
<!-- BB_002E4761 -->
<g id="node6" class="node">
<title>BB_002E4761</title>
<ellipse fill="none" stroke="#000000" cx="231.7299" cy="-699.8584" rx="68.3883" ry="18"/>
<text text-anchor="middle" x="231.7299" y="-695.6584" font-family="Times,serif" font-size="14.00" fill="#000000">BB_002E4761</text>
</g>
<!-- BB_002E4733&#45;&gt;BB_002E4761 -->
<g id="edge5" class="edge">
<title>BB_002E4733-&gt;BB_002E4761</title>
<path fill="none" stroke="#0000ff" d="M219.7674,-753.6898C221.4786,-745.9894 223.5134,-736.8327 225.4151,-728.275"/>
<polygon fill="#0000ff" stroke="#0000ff" points="228.8853,-728.7928 227.6381,-718.2717 222.052,-727.2743 228.8853,-728.7928"/>
</g>
<!-- BB_002E47EA -->
<g id="node13" class="node">
<title>BB_002E47EA</title>
<ellipse fill="none" stroke="#000000" cx="71.7299" cy="-162.2146" rx="71.8163" ry="18"/>
<text text-anchor="middle" x="71.7299" y="-158.0146" font-family="Times,serif" font-size="14.00" fill="#000000">BB_002E47EA</text>
</g>
<!-- BB_002E47E6&#45;&gt;BB_002E47EA -->
<g id="edge16" class="edge">
<title>BB_002E47E6-&gt;BB_002E47EA</title>
<path fill="none" stroke="#ff0000" d="M109.3703,-216.4168C103.4808,-207.936 96.3212,-197.6261 89.8338,-188.2842"/>
<polygon fill="#ff0000" stroke="#ff0000" points="92.6994,-186.2745 84.1206,-180.0571 86.9498,-190.2673 92.6994,-186.2745"/>
</g>
<!-- BB_002E47F3 -->
<g id="node14" class="node">
<title>BB_002E47F3</title>
<ellipse fill="none" stroke="#000000" cx="121.7299" cy="-90.2146" rx="68.9679" ry="18"/>
<text text-anchor="middle" x="121.7299" y="-86.0146" font-family="Times,serif" font-size="14.00" fill="#000000">BB_002E47F3</text>
</g>
<!-- BB_002E47E6&#45;&gt;BB_002E47F3 -->
<g id="edge17" class="edge">
<title>BB_002E47E6-&gt;BB_002E47F3</title>
<path fill="none" stroke="#00ff00" d="M135.2018,-216.2799C141.8954,-206.2407 149.2765,-193.1665 152.7299,-180.2146 156.852,-164.7547 156.852,-159.6745 152.7299,-144.2146 150.1938,-134.703 145.5395,-125.1255 140.5948,-116.7325"/>
<polygon fill="#00ff00" stroke="#00ff00" points="143.4856,-114.7545 135.2018,-108.1493 137.5584,-118.4787 143.4856,-114.7545"/>
</g>
<!-- BB_002E4761&#45;&gt;BB_002E4761 -->
<g id="edge7" class="edge">
<title>BB_002E4761-&gt;BB_002E4761</title>
<path fill="none" stroke="#00ff00" d="M278.4167,-713.1203C299.6856,-714.4743 318.174,-710.0537 318.174,-699.8584 318.174,-691.3358 305.2545,-686.8484 288.5911,-686.3964"/>
<polygon fill="#00ff00" stroke="#00ff00" points="288.3459,-682.9004 278.4167,-686.5965 288.4836,-689.8991 288.3459,-682.9004"/>
</g>
<!-- BB_002E476C -->
<g id="node7" class="node">
<title>BB_002E476C</title>
<ellipse fill="none" stroke="#000000" cx="231.7299" cy="-627.8584" rx="70.1118" ry="18"/>
<text text-anchor="middle" x="231.7299" y="-623.6584" font-family="Times,serif" font-size="14.00" fill="#000000">BB_002E476C</text>
</g>
<!-- BB_002E4761&#45;&gt;BB_002E476C -->
<g id="edge6" class="edge">
<title>BB_002E4761-&gt;BB_002E476C</title>
<path fill="none" stroke="#ff0000" d="M231.7299,-681.6898C231.7299,-673.9894 231.7299,-664.8327 231.7299,-656.275"/>
<polygon fill="#ff0000" stroke="#ff0000" points="235.23,-656.2716 231.7299,-646.2717 228.23,-656.2717 235.23,-656.2716"/>
</g>
<!-- BB_002E47A1 -->
<g id="node8" class="node">
<title>BB_002E47A1</title>
<ellipse fill="none" stroke="#000000" cx="250.7299" cy="-555.8584" rx="70.6742" ry="18"/>
<text text-anchor="middle" x="250.7299" y="-551.6584" font-family="Times,serif" font-size="14.00" fill="#000000">BB_002E47A1</text>
</g>
<!-- BB_002E476C&#45;&gt;BB_002E47A1 -->
<g id="edge8" class="edge">
<title>BB_002E476C-&gt;BB_002E47A1</title>
<path fill="none" stroke="#ff0000" d="M236.5244,-609.6898C238.5788,-601.9047 241.0259,-592.6313 243.3055,-583.9931"/>
<polygon fill="#ff0000" stroke="#ff0000" points="246.7034,-584.8337 245.8708,-574.2717 239.9351,-583.0476 246.7034,-584.8337"/>
</g>
<!-- BB_002E47CF -->
<g id="node9" class="node">
<title>BB_002E47CF</title>
<ellipse fill="none" stroke="#000000" cx="171.7299" cy="-323.0365" rx="70.6916" ry="18"/>
<text text-anchor="middle" x="171.7299" y="-318.8365" font-family="Times,serif" font-size="14.00" fill="#000000">BB_002E47CF</text>
</g>
<!-- BB_002E476C&#45;&gt;BB_002E47CF -->
<g id="edge9" class="edge">
<title>BB_002E476C-&gt;BB_002E47CF</title>
<path fill="none" stroke="#00ff00" d="M203.9558,-611.2011C191.3072,-601.9527 177.6405,-589.2053 170.7299,-573.8584 137.1531,-499.2917 153.3771,-399.1487 164.4051,-351.0815"/>
<polygon fill="#00ff00" stroke="#00ff00" points="167.8695,-351.6429 166.7943,-341.1027 161.0619,-350.0129 167.8695,-351.6429"/>
</g>
<!-- BB_002E47B5 -->
<g id="node10" class="node">
<title>BB_002E47B5</title>
<ellipse fill="none" stroke="#000000" cx="347.7299" cy="-483.8584" rx="70.1118" ry="18"/>
<text text-anchor="middle" x="347.7299" y="-479.6584" font-family="Times,serif" font-size="14.00" fill="#000000">BB_002E47B5</text>
</g>
<!-- BB_002E47A1&#45;&gt;BB_002E47B5 -->
<g id="edge10" class="edge">
<title>BB_002E47A1-&gt;BB_002E47B5</title>
<path fill="none" stroke="#ff0000" d="M273.7175,-538.7954C286.4297,-529.3596 302.4108,-517.4973 316.2667,-507.2125"/>
<polygon fill="#ff0000" stroke="#ff0000" points="318.6275,-509.8191 324.5711,-501.0484 314.4553,-504.1983 318.6275,-509.8191"/>
</g>
<!-- BB_002E47C5 -->
<g id="node11" class="node">
<title>BB_002E47C5</title>
<ellipse fill="none" stroke="#000000" cx="249.7299" cy="-411.8584" rx="70.1118" ry="18"/>
<text text-anchor="middle" x="249.7299" y="-407.6584" font-family="Times,serif" font-size="14.00" fill="#000000">BB_002E47C5</text>
</g>
<!-- BB_002E47A1&#45;&gt;BB_002E47C5 -->
<g id="edge11" class="edge">
<title>BB_002E47A1-&gt;BB_002E47C5</title>
<path fill="none" stroke="#00ff00" d="M250.6032,-537.6207C250.4327,-513.0594 250.1275,-469.1058 249.9268,-440.2125"/>
<polygon fill="#00ff00" stroke="#00ff00" points="253.425,-439.9234 249.8555,-429.948 246.4251,-439.9721 253.425,-439.9234"/>
</g>
<!-- BB_002E47CF&#45;&gt;BB_002E47E6 -->
<g id="edge15" class="edge">
<title>BB_002E47CF-&gt;BB_002E47E6</title>
<path fill="none" stroke="#0000ff" d="M161.6117,-305.0621C154.4956,-292.4209 144.8504,-275.2867 136.8278,-261.0352"/>
<polygon fill="#0000ff" stroke="#0000ff" points="139.7885,-259.1596 131.8331,-252.1623 133.6886,-262.5934 139.7885,-259.1596"/>
</g>
<!-- BB_002E47B5&#45;&gt;BB_002E47C5 -->
<g id="edge12" class="edge">
<title>BB_002E47B5-&gt;BB_002E47C5</title>
<path fill="none" stroke="#ff0000" d="M324.5053,-466.7954C311.6621,-457.3596 295.5162,-445.4973 281.5174,-435.2125"/>
<polygon fill="#ff0000" stroke="#ff0000" points="283.2586,-432.1486 273.1274,-429.0484 279.114,-437.7898 283.2586,-432.1486"/>
</g>
<!-- BB_002E4810 -->
<g id="node12" class="node">
<title>BB_002E4810</title>
<ellipse fill="none" stroke="#000000" cx="406.7299" cy="-411.8584" rx="68.3883" ry="18"/>
<text text-anchor="middle" x="406.7299" y="-407.6584" font-family="Times,serif" font-size="14.00" fill="#000000">BB_002E4810</text>
</g>
<!-- BB_002E47B5&#45;&gt;BB_002E4810 -->
<g id="edge13" class="edge">
<title>BB_002E47B5-&gt;BB_002E4810</title>
<path fill="none" stroke="#00ff00" d="M362.3142,-466.0606C369.3347,-457.4932 377.8847,-447.0593 385.6014,-437.6423"/>
<polygon fill="#00ff00" stroke="#00ff00" points="388.4778,-439.6541 392.1089,-429.7009 383.0635,-435.2174 388.4778,-439.6541"/>
</g>
<!-- BB_002E47C5&#45;&gt;BB_002E47CF -->
<g id="edge14" class="edge">
<title>BB_002E47C5-&gt;BB_002E47CF</title>
<path fill="none" stroke="#0000ff" d="M233.9454,-393.884C222.4521,-380.7961 206.7295,-362.892 193.9657,-348.3573"/>
<polygon fill="#0000ff" stroke="#0000ff" points="196.4531,-345.8856 187.2247,-340.6811 191.1933,-350.5046 196.4531,-345.8856"/>
</g>
<!-- dead_end -->
<g id="node16" class="node">
<title>dead_end</title>
<polygon fill="none" stroke="#000000" points="441.3746,-357.6812 372.0852,-357.6812 372.0852,-288.3918 441.3746,-288.3918 441.3746,-357.6812"/>
<polyline fill="none" stroke="#000000" points="384.0852,-357.6812 372.0852,-345.6812 "/>
<polyline fill="none" stroke="#000000" points="372.0852,-300.3918 384.0852,-288.3918 "/>
<polyline fill="none" stroke="#000000" points="429.3746,-288.3918 441.3746,-300.3918 "/>
<polyline fill="none" stroke="#000000" points="441.3746,-345.6812 429.3746,-357.6812 "/>
<text text-anchor="middle" x="406.7299" y="-318.8365" font-family="Times,serif" font-size="14.00" fill="#000000">dead_end</text>
</g>
<!-- BB_002E4810&#45;&gt;dead_end -->
<g id="edge20" class="edge">
<title>BB_002E4810-&gt;dead_end</title>
<path fill="none" stroke="#000000" d="M406.7299,-393.4544C406.7299,-385.9968 406.7299,-377.0284 406.7299,-368.0283"/>
<polygon fill="#000000" stroke="#000000" points="410.23,-367.9321 406.7299,-357.9321 403.23,-367.9322 410.23,-367.9321"/>
</g>
<!-- BB_002E47EA&#45;&gt;BB_002E47F3 -->
<g id="edge18" class="edge">
<title>BB_002E47EA-&gt;BB_002E47F3</title>
<path fill="none" stroke="#0000ff" d="M84.0895,-144.4168C89.9789,-135.936 97.1386,-125.6261 103.626,-116.2842"/>
<polygon fill="#0000ff" stroke="#0000ff" points="106.51,-118.2673 109.3392,-108.0571 100.7604,-114.2745 106.51,-118.2673"/>
</g>
<!-- end -->
<g id="node15" class="node">
<title>end</title>
<polygon fill="none" stroke="#000000" points="139.9451,-36.3225 103.5147,-36.3225 103.5147,.1079 139.9451,.1079 139.9451,-36.3225"/>
<polyline fill="none" stroke="#000000" points="115.5147,-36.3225 103.5147,-24.3225 "/>
<polyline fill="none" stroke="#000000" points="103.5147,-11.8921 115.5147,.1079 "/>
<polyline fill="none" stroke="#000000" points="127.9451,.1079 139.9451,-11.8921 "/>
<polyline fill="none" stroke="#000000" points="139.9451,-24.3225 127.9451,-36.3225 "/>
<text text-anchor="middle" x="121.7299" y="-13.9073" font-family="Times,serif" font-size="14.00" fill="#000000">end</text>
</g>
<!-- BB_002E47F3&#45;&gt;end -->
<g id="edge19" class="edge">
<title>BB_002E47F3-&gt;end</title>
<path fill="none" stroke="#000000" d="M121.7299,-72.0189C121.7299,-64.2477 121.7299,-54.9956 121.7299,-46.3686"/>
<polygon fill="#000000" stroke="#000000" points="125.23,-46.2972 121.7299,-36.2972 118.23,-46.2972 125.23,-46.2972"/>
</g>
</g>
</svg>