<?xml version="1.0" encoding="UTF-8" standalone="no"?><!DOCTYPE svg PUBLIC "-//W3C//DTD SVG 1.1//EN" "http://www.w3.org/Graphics/SVG/1.1/DTD/svg11.dtd"><!-- Generated by graphviz version 2.40.1 (20161225.0304)
 --><!-- Title: G Pages: 1 --><svg xmlns="http://www.w3.org/2000/svg" xmlns:xlink="http://www.w3.org/1999/xlink" width="204pt" height="332pt" viewBox="0.00 0.00 204.00 332.21">
<g id="graph0" class="graph" transform="scale(1 1) rotate(0) translate(4 328.2146)">
<title>G</title>
<polygon fill="#ffffff" stroke="transparent" points="-4,4 -4,-328.2146 200.0006,-328.2146 200.0006,4 -4,4"/>
<!-- start -->
<g id="node1" class="node">
<title>start</title>
<polygon fill="none" stroke="#000000" points="122.1988,-324.2146 82.9615,-306.2146 122.1988,-288.2146 161.4361,-306.2146 122.1988,-324.2146"/>
<polyline fill="none" stroke="#000000" points="93.8685,-311.2182 93.8685,-301.211 "/>
<polyline fill="none" stroke="#000000" points="111.2917,-293.2182 133.1058,-293.2182 "/>
<polyline fill="none" stroke="#000000" points="150.529,-301.211 150.529,-311.2182 "/>
<polyline fill="none" stroke="#000000" points="133.1058,-319.211 111.2917,-319.211 "/>
<text text-anchor="middle" x="122.1988" y="-302.0146" font-family="Times,serif" font-size="14.00" fill="#000000">start</text>
</g>
<!-- BB_002DD0D0 -->
<g id="node2" class="node">
<title>BB_002DD0D0</title>
<ellipse fill="none" stroke="#000000" cx="122.1988" cy="-234.2146" rx="73.6042" ry="18"/>
<text text-anchor="middle" x="122.1988" y="-230.0146" font-family="Times,serif" font-size="14.00" fill="#000000">BB_002DD0D0</text>
</g>
<!-- start&#45;&gt;BB_002DD0D0 -->
<g id="edge1" class="edge">
<title>start-&gt;BB_002DD0D0</title>
<path fill="none" stroke="#000000" d="M122.1988,-288.046C122.1988,-280.3456 122.1988,-271.1889 122.1988,-262.6312"/>
<polygon fill="#000000" stroke="#000000" points="125.6989,-262.6278 122.1988,-252.6279 118.6989,-262.6279 125.6989,-262.6278"/>
</g>
<!-- BB_002DD0F8 -->
<g id="node3" class="node">
<title>BB_002DD0F8</title>
<ellipse fill="none" stroke="#000000" cx="72.1988" cy="-162.2146" rx="72.3981" ry="18"/>
<text text-anchor="middle" x="72.1988" y="-158.0146" font-family="Times,serif" font-size="14.00" fill="#000000">BB_002DD0F8</text>
</g>
<!-- BB_002DD0D0&#45;&gt;BB_002DD0F8 -->
<g id="edge2" class="edge">
<title>BB_002DD0D0-&gt;BB_002DD0F8</title>
<path fill="none" stroke="#ff0000" d="M109.8392,-216.4168C103.9497,-207.936 96.7901,-197.6261 90.3026,-188.2842"/>
<polygon fill="#ff0000" stroke="#ff0000" points="93.1682,-186.2745 84.5894,-180.0571 87.4186,-190.2673 93.1682,-186.2745"/>
</g>
<!-- BB_002DD113 -->
<g id="node4" class="node">
<title>BB_002DD113</title>
<ellipse fill="none" stroke="#000000" cx="122.1988" cy="-90.2146" rx="71.8182" ry="18"/>
<text text-anchor="middle" x="122.1988" y="-86.0146" font-family="Times,serif" font-size="14.00" fill="#000000">BB_002DD113</text>
</g>
<!-- BB_002DD0D0&#45;&gt;BB_002DD113 -->
<g id="edge3" class="edge">
<title>BB_002DD0D0-&gt;BB_002DD113</title>
<path fill="none" stroke="#00ff00" d="M135.6707,-216.2799C142.3643,-206.2407 149.7454,-193.1665 153.1988,-180.2146 157.3209,-164.7547 157.3209,-159.6745 153.1988,-144.2146 150.6627,-134.703 146.0084,-125.1255 141.0637,-116.7325"/>
<polygon fill="#00ff00" stroke="#00ff00" points="143.9544,-114.7545 135.6707,-108.1493 138.0273,-118.4787 143.9544,-114.7545"/>
</g>
<!-- BB_002DD0F8&#45;&gt;BB_002DD113 -->
<g id="edge4" class="edge">
<title>BB_002DD0F8-&gt;BB_002DD113</title>
<path fill="none" stroke="#0000ff" d="M84.5583,-144.4168C90.4478,-135.936 97.6074,-125.6261 104.0949,-116.2842"/>
<polygon fill="#0000ff" stroke="#0000ff" points="106.9789,-118.2673 109.8081,-108.0571 101.2293,-114.2745 106.9789,-118.2673"/>
</g>
<!-- end -->
<g id="node5" class="node">
<title>end</title>
<polygon fill="none" stroke="#000000" points="140.414,-36.3225 103.9835,-36.3225 103.9835,.1079 140.414,.1079 140.414,-36.3225"/>
<polyline fill="none" stroke="#000000" points="115.9835,-36.3225 103.9835,-24.3225 "/>
<polyline fill="none" stroke="#000000" points="103.9835,-11.8921 115.9835,.1079 "/>
<polyline fill="none" stroke="#000000" points="128.414,.1079 140.414,-11.8921 "/>
<polyline fill="none" stroke="#000000" points="140.414,-24.3225 128.414,-36.3225 "/>
<text text-anchor="middle" x="122.1988" y="-13.9073" font-family="Times,serif" font-size="14.00" fill="#000000">end</text>
</g>
<!-- BB_002DD113&#45;&gt;end -->
<g id="edge5" class="edge">
<title>BB_002DD113-&gt;end</title>
<path fill="none" stroke="#000000" d="M122.1988,-72.0189C122.1988,-64.2477 122.1988,-54.9956 122.1988,-46.3686"/>
<polygon fill="#000000" stroke="#000000" points="125.6989,-46.2972 122.1988,-36.2972 118.6989,-46.2972 125.6989,-46.2972"/>
</g>
</g>
</svg>