<?xml version="1.0" encoding="UTF-8" standalone="no"?><!DOCTYPE svg PUBLIC "-//W3C//DTD SVG 1.1//EN" "http://www.w3.org/Graphics/SVG/1.1/DTD/svg11.dtd"><!-- Generated by graphviz version 2.40.1 (20161225.0304)
 --><!-- Title: G Pages: 1 --><svg xmlns="http://www.w3.org/2000/svg" xmlns:xlink="http://www.w3.org/1999/xlink" width="306pt" height="294pt" viewBox="0.00 0.00 305.58 293.64">
<g id="graph0" class="graph" transform="scale(1 1) rotate(0) translate(4 289.6438)">
<title>G</title>
<polygon fill="#ffffff" stroke="transparent" points="-4,4 -4,-289.6438 301.5797,-289.6438 301.5797,4 -4,4"/>
<!-- start -->
<g id="node1" class="node">
<title>start</title>
<polygon fill="none" stroke="#000000" points="147.984,-285.6438 108.7467,-267.6438 147.984,-249.6438 187.2213,-267.6438 147.984,-285.6438"/>
<polyline fill="none" stroke="#000000" points="119.6537,-272.6474 119.6537,-262.6402 "/>
<polyline fill="none" stroke="#000000" points="137.0769,-254.6474 158.891,-254.6474 "/>
<polyline fill="none" stroke="#000000" points="176.3142,-262.6402 176.3142,-272.6474 "/>
<polyline fill="none" stroke="#000000" points="158.891,-280.6402 137.0769,-280.6402 "/>
<text text-anchor="middle" x="147.984" y="-263.4438" font-family="Times,serif" font-size="14.00" fill="#000000">start</text>
</g>
<!-- BB_002E2F10 -->
<g id="node2" class="node">
<title>BB_002E2F10</title>
<ellipse fill="none" stroke="#000000" cx="147.984" cy="-195.6438" rx="68.9679" ry="18"/>
<text text-anchor="middle" x="147.984" y="-191.4438" font-family="Times,serif" font-size="14.00" fill="#000000">BB_002E2F10</text>
</g>
<!-- start&#45;&gt;BB_002E2F10 -->
<g id="edge1" class="edge">
<title>start-&gt;BB_002E2F10</title>
<path fill="none" stroke="#000000" d="M147.984,-249.4752C147.984,-241.7748 147.984,-232.6181 147.984,-224.0604"/>
<polygon fill="#000000" stroke="#000000" points="151.4841,-224.057 147.984,-214.0571 144.4841,-224.0571 151.4841,-224.057"/>
</g>
<!-- BB_002E2F99 -->
<g id="node3" class="node">
<title>BB_002E2F99</title>
<ellipse fill="none" stroke="#000000" cx="68.984" cy="-123.6438" rx="68.9679" ry="18"/>
<text text-anchor="middle" x="68.984" y="-119.4438" font-family="Times,serif" font-size="14.00" fill="#000000">BB_002E2F99</text>
</g>
<!-- BB_002E2F10&#45;&gt;BB_002E2F99 -->
<g id="edge2" class="edge">
<title>BB_002E2F10-&gt;BB_002E2F99</title>
<path fill="none" stroke="#ff0000" d="M128.8603,-178.2146C118.9389,-169.1724 106.6558,-157.9776 95.8019,-148.0855"/>
<polygon fill="#ff0000" stroke="#ff0000" points="97.9539,-145.3113 88.2054,-141.162 93.2387,-150.4849 97.9539,-145.3113"/>
</g>
<!-- BB_002E2FB6 -->
<g id="node4" class="node">
<title>BB_002E2FB6</title>
<ellipse fill="none" stroke="#000000" cx="226.984" cy="-123.6438" rx="70.6916" ry="18"/>
<text text-anchor="middle" x="226.984" y="-119.4438" font-family="Times,serif" font-size="14.00" fill="#000000">BB_002E2FB6</text>
</g>
<!-- BB_002E2F10&#45;&gt;BB_002E2FB6 -->
<g id="edge3" class="edge">
<title>BB_002E2F10-&gt;BB_002E2FB6</title>
<path fill="none" stroke="#00ff00" d="M167.1077,-178.2146C177.029,-169.1724 189.3121,-157.9776 200.166,-148.0855"/>
<polygon fill="#00ff00" stroke="#00ff00" points="202.7292,-150.4849 207.7626,-141.162 198.014,-145.3113 202.7292,-150.4849"/>
</g>
<!-- end -->
<g id="node5" class="node">
<title>end</title>
<polygon fill="none" stroke="#000000" points="87.1992,-53.0371 50.7687,-53.0371 50.7687,-16.6067 87.1992,-16.6067 87.1992,-53.0371"/>
<polyline fill="none" stroke="#000000" points="62.7687,-53.0371 50.7687,-41.0371 "/>
<polyline fill="none" stroke="#000000" points="50.7687,-28.6067 62.7687,-16.6067 "/>
<polyline fill="none" stroke="#000000" points="75.1992,-16.6067 87.1992,-28.6067 "/>
<polyline fill="none" stroke="#000000" points="87.1992,-41.0371 75.1992,-53.0371 "/>
<text text-anchor="middle" x="68.984" y="-30.6219" font-family="Times,serif" font-size="14.00" fill="#000000">end</text>
</g>
<!-- BB_002E2F99&#45;&gt;end -->
<g id="edge4" class="edge">
<title>BB_002E2F99-&gt;end</title>
<path fill="none" stroke="#000000" d="M68.984,-105.2398C68.984,-93.2114 68.984,-77.2529 68.984,-63.5696"/>
<polygon fill="#000000" stroke="#000000" points="72.4841,-63.2022 68.984,-53.2023 65.4841,-63.2023 72.4841,-63.2022"/>
</g>
<!-- dead_end -->
<g id="node6" class="node">
<title>dead_end</title>
<polygon fill="none" stroke="#000000" points="261.6287,-69.4666 192.3393,-69.4666 192.3393,-.1772 261.6287,-.1772 261.6287,-69.4666"/>
<polyline fill="none" stroke="#000000" points="204.3393,-69.4666 192.3393,-57.4666 "/>
<polyline fill="none" stroke="#000000" points="192.3393,-12.1772 204.3393,-.1772 "/>
<polyline fill="none" stroke="#000000" points="249.6287,-.1772 261.6287,-12.1772 "/>
<polyline fill="none" stroke="#000000" points="261.6287,-57.4666 249.6287,-69.4666 "/>
<text text-anchor="middle" x="226.984" y="-30.6219" font-family="Times,serif" font-size="14.00" fill="#000000">dead_end</text>
</g>
<!-- BB_002E2FB6&#45;&gt;dead_end -->
<g id="edge5" class="edge">
<title>BB_002E2FB6-&gt;dead_end</title>
<path fill="none" stroke="#000000" d="M226.984,-105.2398C226.984,-97.7822 226.984,-88.8138 226.984,-79.8137"/>
<polygon fill="#000000" stroke="#000000" points="230.4841,-79.7175 226.984,-69.7175 223.4841,-79.7176 230.4841,-79.7175"/>
</g>
</g>
</svg>