<?xml version="1.0" encoding="UTF-8" standalone="no"?><!DOCTYPE svg PUBLIC "-//W3C//DTD SVG 1.1//EN" "http://www.w3.org/Graphics/SVG/1.1/DTD/svg11.dtd"><!-- Generated by graphviz version 2.40.1 (20161225.0304)
 --><!-- Title: G Pages: 1 --><svg xmlns="http://www.w3.org/2000/svg" xmlns:xlink="http://www.w3.org/1999/xlink" width="545pt" height="2238pt" viewBox="0.00 0.00 545.20 2237.86">
<g id="graph0" class="graph" transform="scale(1 1) rotate(0) translate(4 2233.8584)">
<title>G</title>
<polygon fill="#ffffff" stroke="transparent" points="-4,4 -4,-2233.8584 541.1988,-2233.8584 541.1988,4 -4,4"/>
<!-- start -->
<g id="node1" class="node">
<title>start</title>
<polygon fill="none" stroke="#000000" points="72.1988,-2229.8584 32.9615,-2211.8584 72.1988,-2193.8584 111.4361,-2211.8584 72.1988,-2229.8584"/>
<polyline fill="none" stroke="#000000" points="43.8685,-2216.862 43.8685,-2206.8548 "/>
<polyline fill="none" stroke="#000000" points="61.2917,-2198.862 83.1058,-2198.862 "/>
<polyline fill="none" stroke="#000000" points="100.529,-2206.8548 100.529,-2216.862 "/>
<polyline fill="none" stroke="#000000" points="83.1058,-2224.8548 61.2917,-2224.8548 "/>
<text text-anchor="middle" x="72.1988" y="-2207.6584" font-family="Times,serif" font-size="14.00" fill="#000000">start</text>
</g>
<!-- BB_002EB4D0 -->
<g id="node2" class="node">
<title>BB_002EB4D0</title>
<ellipse fill="none" stroke="#000000" cx="72.1988" cy="-2139.8584" rx="72.3981" ry="18"/>
<text text-anchor="middle" x="72.1988" y="-2135.6584" font-family="Times,serif" font-size="14.00" fill="#000000">BB_002EB4D0</text>
</g>
<!-- start&#45;&gt;BB_002EB4D0 -->
<g id="edge1" class="edge">
<title>start-&gt;BB_002EB4D0</title>
<path fill="none" stroke="#000000" d="M72.1988,-2193.6898C72.1988,-2185.9894 72.1988,-2176.8327 72.1988,-2168.275"/>
<polygon fill="#000000" stroke="#000000" points="75.6989,-2168.2716 72.1988,-2158.2717 68.6989,-2168.2717 75.6989,-2168.2716"/>
</g>
<!-- BB_002EB59D -->
<g id="node3" class="node">
<title>BB_002EB59D</title>
<ellipse fill="none" stroke="#000000" cx="122.1988" cy="-2067.8584" rx="72.3981" ry="18"/>
<text text-anchor="middle" x="122.1988" y="-2063.6584" font-family="Times,serif" font-size="14.00" fill="#000000">BB_002EB59D</text>
</g>
<!-- BB_002EB4D0&#45;&gt;BB_002EB59D -->
<g id="edge2" class="edge">
<title>BB_002EB4D0-&gt;BB_002EB59D</title>
<path fill="none" stroke="#ff0000" d="M84.5583,-2122.0606C90.4478,-2113.5798 97.6074,-2103.2699 104.0949,-2093.928"/>
<polygon fill="#ff0000" stroke="#ff0000" points="106.9789,-2095.9111 109.8081,-2085.7009 101.2293,-2091.9183 106.9789,-2095.9111"/>
</g>
<!-- BB_002EB5A6 -->
<g id="node4" class="node">
<title>BB_002EB5A6</title>
<ellipse fill="none" stroke="#000000" cx="72.1988" cy="-1995.8584" rx="72.3981" ry="18"/>
<text text-anchor="middle" x="72.1988" y="-1991.6584" font-family="Times,serif" font-size="14.00" fill="#000000">BB_002EB5A6</text>
</g>
<!-- BB_002EB4D0&#45;&gt;BB_002EB5A6 -->
<g id="edge3" class="edge">
<title>BB_002EB4D0-&gt;BB_002EB5A6</title>
<path fill="none" stroke="#00ff00" d="M58.7269,-2121.9237C52.0333,-2111.8845 44.6521,-2098.8103 41.1988,-2085.8584 37.0767,-2070.3985 37.0767,-2065.3183 41.1988,-2049.8584 43.7348,-2040.3468 48.3892,-2030.7693 53.3339,-2022.3763"/>
<polygon fill="#00ff00" stroke="#00ff00" points="56.3702,-2024.1225 58.7269,-2013.7931 50.4431,-2020.3983 56.3702,-2024.1225"/>
</g>
<!-- BB_002EB59D&#45;&gt;BB_002EB5A6 -->
<g id="edge4" class="edge">
<title>BB_002EB59D-&gt;BB_002EB5A6</title>
<path fill="none" stroke="#0000ff" d="M109.8392,-2050.0606C103.9497,-2041.5798 96.7901,-2031.2699 90.3026,-2021.928"/>
<polygon fill="#0000ff" stroke="#0000ff" points="93.1682,-2019.9183 84.5894,-2013.7009 87.4186,-2023.9111 93.1682,-2019.9183"/>
</g>
<!-- BB_002EB5B5 -->
<g id="node5" class="node">
<title>BB_002EB5B5</title>
<ellipse fill="none" stroke="#000000" cx="151.1988" cy="-1923.8584" rx="71.8357" ry="18"/>
<text text-anchor="middle" x="151.1988" y="-1919.6584" font-family="Times,serif" font-size="14.00" fill="#000000">BB_002EB5B5</text>
</g>
<!-- BB_002EB5A6&#45;&gt;BB_002EB5B5 -->
<g id="edge5" class="edge">
<title>BB_002EB5A6-&gt;BB_002EB5B5</title>
<path fill="none" stroke="#ff0000" d="M91.3225,-1978.4292C101.2438,-1969.387 113.5269,-1958.1922 124.3808,-1948.3001"/>
<polygon fill="#ff0000" stroke="#ff0000" points="126.944,-1950.6995 131.9774,-1941.3766 122.2288,-1945.5259 126.944,-1950.6995"/>
</g>
<!-- BB_002EB7AD -->
<g id="node6" class="node">
<title>BB_002EB7AD</title>
<ellipse fill="none" stroke="#000000" cx="97.1988" cy="-234.2146" rx="74.1836" ry="18"/>
<text text-anchor="middle" x="97.1988" y="-230.0146" font-family="Times,serif" font-size="14.00" fill="#000000">BB_002EB7AD</text>
</g>
<!-- BB_002EB5A6&#45;&gt;BB_002EB7AD -->
<g id="edge6" class="edge">
<title>BB_002EB5A6-&gt;BB_002EB7AD</title>
<path fill="none" stroke="#00ff00" d="M61.383,-1977.9421C46.4124,-1951.3948 21.1988,-1899.5973 21.1988,-1851.8584 21.1988,-1851.8584 21.1988,-1851.8584 21.1988,-378.2146 21.1988,-332.6144 51.3753,-287.3054 73.6983,-260.0266"/>
<polygon fill="#00ff00" stroke="#00ff00" points="76.5615,-262.0605 80.3319,-252.1593 71.2099,-257.5482 76.5615,-262.0605"/>
</g>
<!-- BB_002EB5B5&#45;&gt;BB_002EB7AD -->
<g id="edge8" class="edge">
<title>BB_002EB5B5-&gt;BB_002EB7AD</title>
<path fill="none" stroke="#00ff00" d="M211.9359,-1914.1584C320.6388,-1895.069 537.1988,-1848.4332 537.1988,-1779.8584 537.1988,-1779.8584 537.1988,-1779.8584 537.1988,-378.2146 537.1988,-326.4297 508.2778,-313.701 463.1988,-288.2146 416.0433,-261.5543 272.1332,-246.583 179.4426,-239.4714"/>
<polygon fill="#00ff00" stroke="#00ff00" points="179.4764,-235.9642 169.2421,-238.7046 178.9516,-242.9445 179.4764,-235.9642"/>
</g>
<!-- BB_002EB5BD -->
<g id="node7" class="node">
<title>BB_002EB5BD</title>
<ellipse fill="none" stroke="#000000" cx="151.1988" cy="-1851.8584" rx="73.6215" ry="18"/>
<text text-anchor="middle" x="151.1988" y="-1847.6584" font-family="Times,serif" font-size="14.00" fill="#000000">BB_002EB5BD</text>
</g>
<!-- BB_002EB5B5&#45;&gt;BB_002EB5BD -->
<g id="edge7" class="edge">
<title>BB_002EB5B5-&gt;BB_002EB5BD</title>
<path fill="none" stroke="#ff0000" d="M151.1988,-1905.6898C151.1988,-1897.9894 151.1988,-1888.8327 151.1988,-1880.275"/>
<polygon fill="#ff0000" stroke="#ff0000" points="154.6989,-1880.2716 151.1988,-1870.2717 147.6989,-1880.2717 154.6989,-1880.2716"/>
</g>
<!-- BB_002EB7B5 -->
<g id="node33" class="node">
<title>BB_002EB7B5</title>
<ellipse fill="none" stroke="#000000" cx="147.1988" cy="-162.2146" rx="71.8357" ry="18"/>
<text text-anchor="middle" x="147.1988" y="-158.0146" font-family="Times,serif" font-size="14.00" fill="#000000">BB_002EB7B5</text>
</g>
<!-- BB_002EB7AD&#45;&gt;BB_002EB7B5 -->
<g id="edge49" class="edge">
<title>BB_002EB7AD-&gt;BB_002EB7B5</title>
<path fill="none" stroke="#ff0000" d="M109.5583,-216.4168C115.4478,-207.936 122.6074,-197.6261 129.0949,-188.2842"/>
<polygon fill="#ff0000" stroke="#ff0000" points="131.9789,-190.2673 134.8081,-180.0571 126.2293,-186.2745 131.9789,-190.2673"/>
</g>
<!-- BB_002EB7BE -->
<g id="node34" class="node">
<title>BB_002EB7BE</title>
<ellipse fill="none" stroke="#000000" cx="97.1988" cy="-90.2146" rx="72.978" ry="18"/>
<text text-anchor="middle" x="97.1988" y="-86.0146" font-family="Times,serif" font-size="14.00" fill="#000000">BB_002EB7BE</text>
</g>
<!-- BB_002EB7AD&#45;&gt;BB_002EB7BE -->
<g id="edge50" class="edge">
<title>BB_002EB7AD-&gt;BB_002EB7BE</title>
<path fill="none" stroke="#00ff00" d="M83.7269,-216.2799C77.0333,-206.2407 69.6521,-193.1665 66.1988,-180.2146 62.0767,-164.7547 62.0767,-159.6745 66.1988,-144.2146 68.7348,-134.703 73.3892,-125.1255 78.3339,-116.7325"/>
<polygon fill="#00ff00" stroke="#00ff00" points="81.3702,-118.4787 83.7269,-108.1493 75.4431,-114.7545 81.3702,-118.4787"/>
</g>
<!-- BB_002EB5BD&#45;&gt;BB_002EB7AD -->
<g id="edge10" class="edge">
<title>BB_002EB5BD-&gt;BB_002EB7AD</title>
<path fill="none" stroke="#00ff00" d="M130.3225,-1834.1842C103.1787,-1809.1051 59.1988,-1760.3684 59.1988,-1707.8584 59.1988,-1707.8584 59.1988,-1707.8584 59.1988,-378.2146 59.1988,-336.5827 74.2316,-290.3546 85.3869,-261.7816"/>
<polygon fill="#00ff00" stroke="#00ff00" points="88.6566,-263.0316 89.1399,-252.4478 82.1619,-260.4201 88.6566,-263.0316"/>
</g>
<!-- BB_002EB5C7 -->
<g id="node8" class="node">
<title>BB_002EB5C7</title>
<ellipse fill="none" stroke="#000000" cx="179.1988" cy="-1779.8584" rx="71.8357" ry="18"/>
<text text-anchor="middle" x="179.1988" y="-1775.6584" font-family="Times,serif" font-size="14.00" fill="#000000">BB_002EB5C7</text>
</g>
<!-- BB_002EB5BD&#45;&gt;BB_002EB5C7 -->
<g id="edge9" class="edge">
<title>BB_002EB5BD-&gt;BB_002EB5C7</title>
<path fill="none" stroke="#ff0000" d="M158.2643,-1833.6898C161.3248,-1825.8201 164.9767,-1816.4296 168.3669,-1807.7117"/>
<polygon fill="#ff0000" stroke="#ff0000" points="171.6755,-1808.8603 172.0381,-1798.2717 165.1515,-1806.3231 171.6755,-1808.8603"/>
</g>
<!-- BB_002EB5D2 -->
<g id="node9" class="node">
<title>BB_002EB5D2</title>
<ellipse fill="none" stroke="#000000" cx="179.1988" cy="-1707.8584" rx="72.3981" ry="18"/>
<text text-anchor="middle" x="179.1988" y="-1703.6584" font-family="Times,serif" font-size="14.00" fill="#000000">BB_002EB5D2</text>
</g>
<!-- BB_002EB5C7&#45;&gt;BB_002EB5D2 -->
<g id="edge11" class="edge">
<title>BB_002EB5C7-&gt;BB_002EB5D2</title>
<path fill="none" stroke="#ff0000" d="M179.1988,-1761.6898C179.1988,-1753.9894 179.1988,-1744.8327 179.1988,-1736.275"/>
<polygon fill="#ff0000" stroke="#ff0000" points="182.6989,-1736.2716 179.1988,-1726.2717 175.6989,-1736.2717 182.6989,-1736.2716"/>
</g>
<!-- BB_002EB779 -->
<g id="node10" class="node">
<title>BB_002EB779</title>
<ellipse fill="none" stroke="#000000" cx="361.1988" cy="-1707.8584" rx="70.1118" ry="18"/>
<text text-anchor="middle" x="361.1988" y="-1703.6584" font-family="Times,serif" font-size="14.00" fill="#000000">BB_002EB779</text>
</g>
<!-- BB_002EB5C7&#45;&gt;BB_002EB779 -->
<g id="edge12" class="edge">
<title>BB_002EB5C7-&gt;BB_002EB779</title>
<path fill="none" stroke="#00ff00" d="M217.7963,-1764.5891C245.7602,-1753.5264 283.7391,-1738.5018 313.5871,-1726.6938"/>
<polygon fill="#00ff00" stroke="#00ff00" points="314.9581,-1729.9154 322.9694,-1722.9821 312.383,-1723.4063 314.9581,-1729.9154"/>
</g>
<!-- BB_002EB5D2&#45;&gt;BB_002EB7AD -->
<g id="edge14" class="edge">
<title>BB_002EB5D2-&gt;BB_002EB7AD</title>
<path fill="none" stroke="#00ff00" d="M152.2131,-1690.9207C139.4076,-1681.5232 125.0139,-1668.7286 116.1988,-1653.8584 95.3517,-1618.6916 97.1988,-1604.74 97.1988,-1563.8584 97.1988,-1563.8584 97.1988,-1563.8584 97.1988,-378.2146 97.1988,-338.0906 97.1988,-291.6777 97.1988,-262.6323"/>
<polygon fill="#00ff00" stroke="#00ff00" points="100.6989,-262.3999 97.1988,-252.4 93.6989,-262.4 100.6989,-262.3999"/>
</g>
<!-- BB_002EB5DD -->
<g id="node11" class="node">
<title>BB_002EB5DD</title>
<ellipse fill="none" stroke="#000000" cx="199.1988" cy="-1635.8584" rx="74.1836" ry="18"/>
<text text-anchor="middle" x="199.1988" y="-1631.6584" font-family="Times,serif" font-size="14.00" fill="#000000">BB_002EB5DD</text>
</g>
<!-- BB_002EB5D2&#45;&gt;BB_002EB5DD -->
<g id="edge13" class="edge">
<title>BB_002EB5D2-&gt;BB_002EB5DD</title>
<path fill="none" stroke="#ff0000" d="M184.2456,-1689.6898C186.4081,-1681.9047 188.9841,-1672.6313 191.3836,-1663.9931"/>
<polygon fill="#ff0000" stroke="#ff0000" points="194.7798,-1664.8436 194.084,-1654.2717 188.0351,-1662.9701 194.7798,-1664.8436"/>
</g>
<!-- BB_002EB785 -->
<g id="node31" class="node">
<title>BB_002EB785</title>
<ellipse fill="none" stroke="#000000" cx="361.1988" cy="-1635.8584" rx="70.1118" ry="18"/>
<text text-anchor="middle" x="361.1988" y="-1631.6584" font-family="Times,serif" font-size="14.00" fill="#000000">BB_002EB785</text>
</g>
<!-- BB_002EB779&#45;&gt;BB_002EB785 -->
<g id="edge44" class="edge">
<title>BB_002EB779-&gt;BB_002EB785</title>
<path fill="none" stroke="#ff0000" d="M361.1988,-1689.6898C361.1988,-1681.9894 361.1988,-1672.8327 361.1988,-1664.275"/>
<polygon fill="#ff0000" stroke="#ff0000" points="364.6989,-1664.2716 361.1988,-1654.2717 357.6989,-1664.2717 364.6989,-1664.2716"/>
</g>
<!-- BB_002EB787 -->
<g id="node32" class="node">
<title>BB_002EB787</title>
<ellipse fill="none" stroke="#000000" cx="439.1988" cy="-1563.8584" rx="70.1118" ry="18"/>
<text text-anchor="middle" x="439.1988" y="-1559.6584" font-family="Times,serif" font-size="14.00" fill="#000000">BB_002EB787</text>
</g>
<!-- BB_002EB779&#45;&gt;BB_002EB787 -->
<g id="edge45" class="edge">
<title>BB_002EB779-&gt;BB_002EB787</title>
<path fill="none" stroke="#00ff00" d="M398.167,-1692.3644C414.1404,-1683.5871 431.2041,-1670.9019 440.1988,-1653.8584 450.1828,-1634.9402 449.2031,-1610.5192 446.1303,-1591.8902"/>
<polygon fill="#00ff00" stroke="#00ff00" points="449.5416,-1591.0959 444.2055,-1581.9429 442.6691,-1592.4258 449.5416,-1591.0959"/>
</g>
<!-- BB_002EB62E -->
<g id="node12" class="node">
<title>BB_002EB62E</title>
<ellipse fill="none" stroke="#000000" cx="237.1988" cy="-1563.8584" rx="71.2539" ry="18"/>
<text text-anchor="middle" x="237.1988" y="-1559.6584" font-family="Times,serif" font-size="14.00" fill="#000000">BB_002EB62E</text>
</g>
<!-- BB_002EB5DD&#45;&gt;BB_002EB62E -->
<g id="edge15" class="edge">
<title>BB_002EB5DD-&gt;BB_002EB62E</title>
<path fill="none" stroke="#ff0000" d="M208.7878,-1617.6898C213.0958,-1609.5272 218.2674,-1599.7284 223.0107,-1590.7411"/>
<polygon fill="#ff0000" stroke="#ff0000" points="226.1722,-1592.2493 227.7445,-1581.7718 219.9815,-1588.982 226.1722,-1592.2493"/>
</g>
<!-- BB_002EB6E4 -->
<g id="node13" class="node">
<title>BB_002EB6E4</title>
<ellipse fill="none" stroke="#000000" cx="374.1988" cy="-882.2146" rx="71.2539" ry="18"/>
<text text-anchor="middle" x="374.1988" y="-878.0146" font-family="Times,serif" font-size="14.00" fill="#000000">BB_002EB6E4</text>
</g>
<!-- BB_002EB5DD&#45;&gt;BB_002EB6E4 -->
<g id="edge16" class="edge">
<title>BB_002EB5DD-&gt;BB_002EB6E4</title>
<path fill="none" stroke="#00ff00" d="M182.3282,-1618.1683C173.6642,-1608.2008 163.6098,-1595.117 157.1988,-1581.8584 139.2733,-1544.7871 135.1988,-1533.0361 135.1988,-1491.8584 135.1988,-1491.8584 135.1988,-1491.8584 135.1988,-1026.2146 135.1988,-946.9146 232.925,-910.1503 303.3954,-893.9483"/>
<polygon fill="#00ff00" stroke="#00ff00" points="304.5673,-897.2741 313.58,-891.7044 303.0611,-890.4381 304.5673,-897.2741"/>
</g>
<!-- BB_002EB640 -->
<g id="node14" class="node">
<title>BB_002EB640</title>
<ellipse fill="none" stroke="#000000" cx="399.1988" cy="-1491.8584" rx="70.1118" ry="18"/>
<text text-anchor="middle" x="399.1988" y="-1487.6584" font-family="Times,serif" font-size="14.00" fill="#000000">BB_002EB640</text>
</g>
<!-- BB_002EB62E&#45;&gt;BB_002EB640 -->
<g id="edge17" class="edge">
<title>BB_002EB62E-&gt;BB_002EB640</title>
<path fill="none" stroke="#ff0000" d="M272.7504,-1548.0577C296.8895,-1537.3292 328.9907,-1523.062 354.808,-1511.5876"/>
<polygon fill="#ff0000" stroke="#ff0000" points="356.2923,-1514.7581 364.009,-1507.4983 353.4493,-1508.3614 356.2923,-1514.7581"/>
</g>
<!-- BB_002EB7DC -->
<g id="node15" class="node">
<title>BB_002EB7DC</title>
<ellipse fill="none" stroke="#000000" cx="237.1988" cy="-1491.8584" rx="73.6215" ry="18"/>
<text text-anchor="middle" x="237.1988" y="-1487.6584" font-family="Times,serif" font-size="14.00" fill="#000000">BB_002EB7DC</text>
</g>
<!-- BB_002EB62E&#45;&gt;BB_002EB7DC -->
<g id="edge18" class="edge">
<title>BB_002EB62E-&gt;BB_002EB7DC</title>
<path fill="none" stroke="#00ff00" d="M237.1988,-1545.6898C237.1988,-1537.9894 237.1988,-1528.8327 237.1988,-1520.275"/>
<polygon fill="#00ff00" stroke="#00ff00" points="240.6989,-1520.2716 237.1988,-1510.2717 233.6989,-1520.2717 240.6989,-1520.2716"/>
</g>
<!-- BB_002EB6E8 -->
<g id="node23" class="node">
<title>BB_002EB6E8</title>
<ellipse fill="none" stroke="#000000" cx="353.1988" cy="-810.2146" rx="71.2539" ry="18"/>
<text text-anchor="middle" x="353.1988" y="-806.0146" font-family="Times,serif" font-size="14.00" fill="#000000">BB_002EB6E8</text>
</g>
<!-- BB_002EB6E4&#45;&gt;BB_002EB6E8 -->
<g id="edge33" class="edge">
<title>BB_002EB6E4-&gt;BB_002EB6E8</title>
<path fill="none" stroke="#0000ff" d="M368.8996,-864.046C366.6289,-856.2609 363.9242,-846.9875 361.4047,-838.3493"/>
<polygon fill="#0000ff" stroke="#0000ff" points="364.7294,-837.2478 358.5693,-828.6279 358.0094,-839.2079 364.7294,-837.2478"/>
</g>
<!-- BB_002EB67C -->
<g id="node16" class="node">
<title>BB_002EB67C</title>
<ellipse fill="none" stroke="#000000" cx="390.1988" cy="-1403.0365" rx="71.8357" ry="18"/>
<text text-anchor="middle" x="390.1988" y="-1398.8365" font-family="Times,serif" font-size="14.00" fill="#000000">BB_002EB67C</text>
</g>
<!-- BB_002EB640&#45;&gt;BB_002EB67C -->
<g id="edge19" class="edge">
<title>BB_002EB640-&gt;BB_002EB67C</title>
<path fill="none" stroke="#ff0000" d="M397.334,-1473.4544C396.0949,-1461.2259 394.4442,-1444.9355 393.0427,-1431.1034"/>
<polygon fill="#ff0000" stroke="#ff0000" points="396.5208,-1430.7092 392.0304,-1421.113 389.5564,-1431.4149 396.5208,-1430.7092"/>
</g>
<!-- BB_002EB6AC -->
<g id="node17" class="node">
<title>BB_002EB6AC</title>
<ellipse fill="none" stroke="#000000" cx="336.1988" cy="-1098.2146" rx="73.6215" ry="18"/>
<text text-anchor="middle" x="336.1988" y="-1094.0146" font-family="Times,serif" font-size="14.00" fill="#000000">BB_002EB6AC</text>
</g>
<!-- BB_002EB640&#45;&gt;BB_002EB6AC -->
<g id="edge20" class="edge">
<title>BB_002EB640-&gt;BB_002EB6AC</title>
<path fill="none" stroke="#00ff00" d="M361.9171,-1476.4863C343.9471,-1467.4879 323.291,-1454.5777 309.1988,-1437.8584 271.2078,-1392.785 261.1988,-1373.1631 261.1988,-1314.2146 261.1988,-1314.2146 261.1988,-1314.2146 261.1988,-1242.2146 261.1988,-1201.333 260.3907,-1187.977 280.1988,-1152.2146 286.3849,-1141.046 295.6382,-1130.7625 304.8501,-1122.2333"/>
<polygon fill="#00ff00" stroke="#00ff00" points="307.3097,-1124.7313 312.5101,-1115.5006 302.6884,-1119.4736 307.3097,-1124.7313"/>
</g>
<!-- dead_end -->
<g id="node36" class="node">
<title>dead_end</title>
<polygon fill="none" stroke="#000000" points="232.8435,-1437.6812 163.5541,-1437.6812 163.5541,-1368.3918 232.8435,-1368.3918 232.8435,-1437.6812"/>
<polyline fill="none" stroke="#000000" points="175.5541,-1437.6812 163.5541,-1425.6812 "/>
<polyline fill="none" stroke="#000000" points="163.5541,-1380.3918 175.5541,-1368.3918 "/>
<polyline fill="none" stroke="#000000" points="220.8435,-1368.3918 232.8435,-1380.3918 "/>
<polyline fill="none" stroke="#000000" points="232.8435,-1425.6812 220.8435,-1437.6812 "/>
<text text-anchor="middle" x="198.1988" y="-1398.8365" font-family="Times,serif" font-size="14.00" fill="#000000">dead_end</text>
</g>
<!-- BB_002EB7DC&#45;&gt;dead_end -->
<g id="edge53" class="edge">
<title>BB_002EB7DC-&gt;dead_end</title>
<path fill="none" stroke="#000000" d="M229.3065,-1473.884C225.9011,-1466.1282 221.7531,-1456.6811 217.6104,-1447.2462"/>
<polygon fill="#000000" stroke="#000000" points="220.7223,-1445.6275 213.4972,-1437.8784 214.3129,-1448.4418 220.7223,-1445.6275"/>
</g>
<!-- BB_002EB692 -->
<g id="node18" class="node">
<title>BB_002EB692</title>
<ellipse fill="none" stroke="#000000" cx="371.1988" cy="-1314.2146" rx="70.1118" ry="18"/>
<text text-anchor="middle" x="371.1988" y="-1310.0146" font-family="Times,serif" font-size="14.00" fill="#000000">BB_002EB692</text>
</g>
<!-- BB_002EB67C&#45;&gt;BB_002EB692 -->
<g id="edge21" class="edge">
<title>BB_002EB67C-&gt;BB_002EB692</title>
<path fill="none" stroke="#0000ff" d="M386.3538,-1385.0621C383.7443,-1372.8628 380.2397,-1356.4794 377.2579,-1342.5402"/>
<polygon fill="#0000ff" stroke="#0000ff" points="380.6176,-1341.5138 375.1032,-1332.4672 373.7725,-1342.9781 380.6176,-1341.5138"/>
</g>
<!-- BB_002EB6AC&#45;&gt;BB_002EB6E4 -->
<g id="edge28" class="edge">
<title>BB_002EB6AC-&gt;BB_002EB6E4</title>
<path fill="none" stroke="#00ff00" d="M362.1927,-1081.1746C374.0219,-1071.8321 386.7892,-1059.1161 393.1988,-1044.2146 412.161,-1000.13 397.6914,-943.4195 385.7431,-910.1185"/>
<polygon fill="#00ff00" stroke="#00ff00" points="388.9506,-908.7042 382.1557,-900.5752 382.3982,-911.1672 388.9506,-908.7042"/>
</g>
<!-- BB_002EB6B1 -->
<g id="node21" class="node">
<title>BB_002EB6B1</title>
<ellipse fill="none" stroke="#000000" cx="312.1988" cy="-1026.2146" rx="71.8357" ry="18"/>
<text text-anchor="middle" x="312.1988" y="-1022.0146" font-family="Times,serif" font-size="14.00" fill="#000000">BB_002EB6B1</text>
</g>
<!-- BB_002EB6AC&#45;&gt;BB_002EB6B1 -->
<g id="edge27" class="edge">
<title>BB_002EB6AC-&gt;BB_002EB6B1</title>
<path fill="none" stroke="#ff0000" d="M330.1426,-1080.046C327.5475,-1072.2609 324.4564,-1062.9875 321.577,-1054.3493"/>
<polygon fill="#ff0000" stroke="#ff0000" points="324.8193,-1053.0079 318.3365,-1044.6279 318.1785,-1055.2215 324.8193,-1053.0079"/>
</g>
<!-- BB_002EB692&#45;&gt;BB_002EB6E4 -->
<g id="edge23" class="edge">
<title>BB_002EB692-&gt;BB_002EB6E4</title>
<path fill="none" stroke="#00ff00" d="M401.6072,-1297.9816C416.0377,-1288.7637 432.2595,-1275.9171 442.1988,-1260.2146 464.0637,-1225.6714 461.1988,-1211.0962 461.1988,-1170.2146 461.1988,-1170.2146 461.1988,-1170.2146 461.1988,-1026.2146 461.1988,-978.8946 426.3561,-933.7962 400.7707,-907.0588"/>
<polygon fill="#00ff00" stroke="#00ff00" points="403.0206,-904.3558 393.5069,-899.6932 398.0365,-909.2709 403.0206,-904.3558"/>
</g>
<!-- BB_002EB69B -->
<g id="node19" class="node">
<title>BB_002EB69B</title>
<ellipse fill="none" stroke="#000000" cx="361.1988" cy="-1242.2146" rx="71.8357" ry="18"/>
<text text-anchor="middle" x="361.1988" y="-1238.0146" font-family="Times,serif" font-size="14.00" fill="#000000">BB_002EB69B</text>
</g>
<!-- BB_002EB692&#45;&gt;BB_002EB69B -->
<g id="edge22" class="edge">
<title>BB_002EB692-&gt;BB_002EB69B</title>
<path fill="none" stroke="#ff0000" d="M362.723,-1296.046C360.903,-1288.3456 359.4104,-1279.1889 358.5304,-1270.6312"/>
<polygon fill="#ff0000" stroke="#ff0000" points="362.0184,-1270.3381 357.7802,-1260.6279 355.038,-1270.8617 362.0184,-1270.3381"/>
</g>
<!-- BB_002EB69B&#45;&gt;BB_002EB692 -->
<g id="edge25" class="edge">
<title>BB_002EB69B-&gt;BB_002EB692</title>
<path fill="none" stroke="#00ff00" d="M369.614,-1260.128C371.4693,-1267.9139 372.9903,-1277.2246 373.8785,-1285.9087"/>
<polygon fill="#00ff00" stroke="#00ff00" points="370.4,-1286.3312 374.6277,-1296.046 377.381,-1285.8151 370.4,-1286.3312"/>
</g>
<!-- BB_002EB6A9 -->
<g id="node20" class="node">
<title>BB_002EB6A9</title>
<ellipse fill="none" stroke="#000000" cx="361.1988" cy="-1170.2146" rx="72.3981" ry="18"/>
<text text-anchor="middle" x="361.1988" y="-1166.0146" font-family="Times,serif" font-size="14.00" fill="#000000">BB_002EB6A9</text>
</g>
<!-- BB_002EB69B&#45;&gt;BB_002EB6A9 -->
<g id="edge24" class="edge">
<title>BB_002EB69B-&gt;BB_002EB6A9</title>
<path fill="none" stroke="#ff0000" d="M361.1988,-1224.046C361.1988,-1216.3456 361.1988,-1207.1889 361.1988,-1198.6312"/>
<polygon fill="#ff0000" stroke="#ff0000" points="364.6989,-1198.6278 361.1988,-1188.6279 357.6989,-1198.6279 364.6989,-1198.6278"/>
</g>
<!-- BB_002EB6A9&#45;&gt;BB_002EB6AC -->
<g id="edge26" class="edge">
<title>BB_002EB6A9-&gt;BB_002EB6AC</title>
<path fill="none" stroke="#0000ff" d="M354.8902,-1152.046C352.1871,-1144.2609 348.9671,-1134.9875 345.9678,-1126.3493"/>
<polygon fill="#0000ff" stroke="#0000ff" points="349.1788,-1124.9265 342.5923,-1116.6279 342.5661,-1127.2227 349.1788,-1124.9265"/>
</g>
<!-- BB_002EB6B1&#45;&gt;BB_002EB6E4 -->
<g id="edge30" class="edge">
<title>BB_002EB6B1-&gt;BB_002EB6E4</title>
<path fill="none" stroke="#00ff00" d="M329.6548,-1008.6718C338.579,-998.7474 348.8655,-985.6579 355.1988,-972.2146 364.4154,-952.6509 369.1978,-928.6003 371.6582,-910.2845"/>
<polygon fill="#00ff00" stroke="#00ff00" points="375.1472,-910.5842 372.8545,-900.2404 368.1963,-909.7563 375.1472,-910.5842"/>
</g>
<!-- BB_002EB6B3 -->
<g id="node22" class="node">
<title>BB_002EB6B3</title>
<ellipse fill="none" stroke="#000000" cx="274.1988" cy="-954.2146" rx="71.8357" ry="18"/>
<text text-anchor="middle" x="274.1988" y="-950.0146" font-family="Times,serif" font-size="14.00" fill="#000000">BB_002EB6B3</text>
</g>
<!-- BB_002EB6B1&#45;&gt;BB_002EB6B3 -->
<g id="edge29" class="edge">
<title>BB_002EB6B1-&gt;BB_002EB6B3</title>
<path fill="none" stroke="#ff0000" d="M302.6098,-1008.046C298.3017,-999.8834 293.1302,-990.0846 288.3869,-981.0973"/>
<polygon fill="#ff0000" stroke="#ff0000" points="291.4161,-979.3382 283.6531,-972.128 285.2254,-982.6055 291.4161,-979.3382"/>
</g>
<!-- BB_002EB6B3&#45;&gt;BB_002EB6E4 -->
<g id="edge31" class="edge">
<title>BB_002EB6B3-&gt;BB_002EB6E4</title>
<path fill="none" stroke="#ff0000" d="M297.8974,-937.1516C311.1263,-927.6268 327.7892,-915.6295 342.1662,-905.2781"/>
<polygon fill="#ff0000" stroke="#ff0000" points="344.2534,-908.0881 350.3237,-899.4046 340.1633,-902.4073 344.2534,-908.0881"/>
</g>
<!-- BB_002EB6B3&#45;&gt;BB_002EB6E8 -->
<g id="edge32" class="edge">
<title>BB_002EB6B3-&gt;BB_002EB6E8</title>
<path fill="none" stroke="#00ff00" d="M275.0298,-936.1545C276.6036,-917.1128 281.1415,-886.8021 294.1988,-864.2146 300.8338,-852.7369 310.7263,-842.3093 320.5236,-833.7451"/>
<polygon fill="#00ff00" stroke="#00ff00" points="322.8382,-836.3725 328.2964,-827.2918 318.3668,-830.9868 322.8382,-836.3725"/>
</g>
<!-- BB_002EB6F4 -->
<g id="node24" class="node">
<title>BB_002EB6F4</title>
<ellipse fill="none" stroke="#000000" cx="342.1988" cy="-738.2146" rx="70.6916" ry="18"/>
<text text-anchor="middle" x="342.1988" y="-734.0146" font-family="Times,serif" font-size="14.00" fill="#000000">BB_002EB6F4</text>
</g>
<!-- BB_002EB6E8&#45;&gt;BB_002EB6F4 -->
<g id="edge34" class="edge">
<title>BB_002EB6E8-&gt;BB_002EB6F4</title>
<path fill="none" stroke="#ff0000" d="M350.423,-792.046C349.2466,-784.3456 347.8476,-775.1889 346.5402,-766.6312"/>
<polygon fill="#ff0000" stroke="#ff0000" points="349.9821,-765.9845 345.0119,-756.6279 343.0624,-767.0418 349.9821,-765.9845"/>
</g>
<!-- BB_002EB705 -->
<g id="node25" class="node">
<title>BB_002EB705</title>
<ellipse fill="none" stroke="#000000" cx="352.1988" cy="-666.2146" rx="70.1118" ry="18"/>
<text text-anchor="middle" x="352.1988" y="-662.0146" font-family="Times,serif" font-size="14.00" fill="#000000">BB_002EB705</text>
</g>
<!-- BB_002EB6E8&#45;&gt;BB_002EB705 -->
<g id="edge35" class="edge">
<title>BB_002EB6E8-&gt;BB_002EB705</title>
<path fill="none" stroke="#00ff00" d="M385.2405,-793.8934C399.321,-784.8684 414.4034,-772.2141 422.1988,-756.2146 429.2068,-741.831 429.2569,-734.5737 422.1988,-720.2146 415.8242,-707.2461 404.6706,-696.5128 393.1154,-688.1245"/>
<polygon fill="#00ff00" stroke="#00ff00" points="394.9381,-685.1321 384.693,-682.4326 391.0186,-690.9319 394.9381,-685.1321"/>
</g>
<!-- BB_002EB6F4&#45;&gt;BB_002EB705 -->
<g id="edge36" class="edge">
<title>BB_002EB6F4-&gt;BB_002EB705</title>
<path fill="none" stroke="#0000ff" d="M344.7222,-720.046C345.7917,-712.3456 347.0634,-703.1889 348.252,-694.6312"/>
<polygon fill="#0000ff" stroke="#0000ff" points="351.7323,-695.0143 349.6414,-684.6279 344.7989,-694.0513 351.7323,-695.0143"/>
</g>
<!-- BB_002EB710 -->
<g id="node26" class="node">
<title>BB_002EB710</title>
<ellipse fill="none" stroke="#000000" cx="337.1988" cy="-594.2146" rx="70.1118" ry="18"/>
<text text-anchor="middle" x="337.1988" y="-590.0146" font-family="Times,serif" font-size="14.00" fill="#000000">BB_002EB710</text>
</g>
<!-- BB_002EB705&#45;&gt;BB_002EB710 -->
<g id="edge37" class="edge">
<title>BB_002EB705-&gt;BB_002EB710</title>
<path fill="none" stroke="#ff0000" d="M348.4136,-648.046C346.8094,-640.3456 344.9018,-631.1889 343.1189,-622.6312"/>
<polygon fill="#ff0000" stroke="#ff0000" points="346.5009,-621.7038 341.0349,-612.6279 339.6481,-623.1315 346.5009,-621.7038"/>
</g>
<!-- BB_002EB713 -->
<g id="node27" class="node">
<title>BB_002EB713</title>
<ellipse fill="none" stroke="#000000" cx="337.1988" cy="-522.2146" rx="70.1118" ry="18"/>
<text text-anchor="middle" x="337.1988" y="-518.0146" font-family="Times,serif" font-size="14.00" fill="#000000">BB_002EB713</text>
</g>
<!-- BB_002EB705&#45;&gt;BB_002EB713 -->
<g id="edge38" class="edge">
<title>BB_002EB705-&gt;BB_002EB713</title>
<path fill="none" stroke="#00ff00" d="M381.6394,-649.6192C394.8077,-640.4602 408.9701,-627.7718 416.1988,-612.2146 422.9409,-597.7045 423.6666,-590.3649 416.1988,-576.2146 408.8203,-562.2336 396.0121,-551.1854 382.8301,-542.8213"/>
<polygon fill="#00ff00" stroke="#00ff00" points="384.558,-539.777 374.167,-537.7086 381.0002,-545.8054 384.558,-539.777"/>
</g>
<!-- BB_002EB710&#45;&gt;BB_002EB713 -->
<g id="edge39" class="edge">
<title>BB_002EB710-&gt;BB_002EB713</title>
<path fill="none" stroke="#0000ff" d="M337.1988,-576.046C337.1988,-568.3456 337.1988,-559.1889 337.1988,-550.6312"/>
<polygon fill="#0000ff" stroke="#0000ff" points="340.6989,-550.6278 337.1988,-540.6279 333.6989,-550.6279 340.6989,-550.6278"/>
</g>
<!-- BB_002EB71F -->
<g id="node28" class="node">
<title>BB_002EB71F</title>
<ellipse fill="none" stroke="#000000" cx="298.1988" cy="-450.2146" rx="70.6916" ry="18"/>
<text text-anchor="middle" x="298.1988" y="-446.0146" font-family="Times,serif" font-size="14.00" fill="#000000">BB_002EB71F</text>
</g>
<!-- BB_002EB713&#45;&gt;BB_002EB71F -->
<g id="edge40" class="edge">
<title>BB_002EB713-&gt;BB_002EB71F</title>
<path fill="none" stroke="#ff0000" d="M327.3574,-504.046C322.936,-495.8834 317.6283,-486.0846 312.7602,-477.0973"/>
<polygon fill="#ff0000" stroke="#ff0000" points="315.7423,-475.2539 307.9019,-468.128 309.5872,-478.588 315.7423,-475.2539"/>
</g>
<!-- BB_002EB764 -->
<g id="node29" class="node">
<title>BB_002EB764</title>
<ellipse fill="none" stroke="#000000" cx="382.1988" cy="-378.2146" rx="70.1118" ry="18"/>
<text text-anchor="middle" x="382.1988" y="-374.0146" font-family="Times,serif" font-size="14.00" fill="#000000">BB_002EB764</text>
</g>
<!-- BB_002EB713&#45;&gt;BB_002EB764 -->
<g id="edge41" class="edge">
<title>BB_002EB713-&gt;BB_002EB764</title>
<path fill="none" stroke="#00ff00" d="M355.1259,-504.4183C363.7758,-494.6169 373.3163,-481.7198 378.1988,-468.2146 385.3221,-448.5113 386.0858,-424.7852 385.1951,-406.6414"/>
<polygon fill="#00ff00" stroke="#00ff00" points="388.6697,-406.1508 384.492,-396.4144 381.6862,-406.631 388.6697,-406.1508"/>
</g>
<!-- BB_002EB71F&#45;&gt;BB_002EB764 -->
<g id="edge42" class="edge">
<title>BB_002EB71F-&gt;BB_002EB764</title>
<path fill="none" stroke="#0000ff" d="M318.5328,-432.7854C329.2634,-423.5878 342.5923,-412.163 354.2772,-402.1474"/>
<polygon fill="#0000ff" stroke="#0000ff" points="356.7372,-404.6486 362.052,-395.4833 352.1816,-399.3338 356.7372,-404.6486"/>
</g>
<!-- BB_002EB7A8 -->
<g id="node30" class="node">
<title>BB_002EB7A8</title>
<ellipse fill="none" stroke="#000000" cx="382.1988" cy="-306.2146" rx="72.3981" ry="18"/>
<text text-anchor="middle" x="382.1988" y="-302.0146" font-family="Times,serif" font-size="14.00" fill="#000000">BB_002EB7A8</text>
</g>
<!-- BB_002EB764&#45;&gt;BB_002EB7A8 -->
<g id="edge43" class="edge">
<title>BB_002EB764-&gt;BB_002EB7A8</title>
<path fill="none" stroke="#0000ff" d="M382.1988,-360.046C382.1988,-352.3456 382.1988,-343.1889 382.1988,-334.6312"/>
<polygon fill="#0000ff" stroke="#0000ff" points="385.6989,-334.6278 382.1988,-324.6279 378.6989,-334.6279 385.6989,-334.6278"/>
</g>
<!-- BB_002EB7A8&#45;&gt;BB_002EB7AD -->
<g id="edge48" class="edge">
<title>BB_002EB7A8-&gt;BB_002EB7AD</title>
<path fill="none" stroke="#0000ff" d="M331.2465,-293.3424C282.9134,-281.132 210.2132,-262.7656 158.6815,-249.7471"/>
<polygon fill="#0000ff" stroke="#0000ff" points="159.2235,-246.2741 148.6708,-247.2181 157.5089,-253.0609 159.2235,-246.2741"/>
</g>
<!-- BB_002EB785&#45;&gt;BB_002EB787 -->
<g id="edge46" class="edge">
<title>BB_002EB785-&gt;BB_002EB787</title>
<path fill="none" stroke="#0000ff" d="M380.0804,-1618.4292C389.8762,-1609.387 402.0038,-1598.1922 412.7203,-1588.3001"/>
<polygon fill="#0000ff" stroke="#0000ff" points="415.2466,-1590.7313 420.2207,-1581.3766 410.4986,-1585.5876 415.2466,-1590.7313"/>
</g>
<!-- BB_002EB787&#45;&gt;BB_002EB7A8 -->
<g id="edge47" class="edge">
<title>BB_002EB787-&gt;BB_002EB7A8</title>
<path fill="none" stroke="#0000ff" d="M455.0555,-1546.0837C463.1567,-1536.0914 472.4854,-1523.0109 478.1988,-1509.8584 497.4766,-1465.4795 499.1988,-1451.4216 499.1988,-1403.0365 499.1988,-1403.0365 499.1988,-1403.0365 499.1988,-450.2146 499.1988,-406.7953 488.681,-393.8295 461.1988,-360.2146 450.7615,-347.4482 436.5416,-336.4637 423.0414,-327.7984"/>
<polygon fill="#0000ff" stroke="#0000ff" points="424.674,-324.6937 414.3208,-322.4436 421.0111,-330.6589 424.674,-324.6937"/>
</g>
<!-- BB_002EB7B5&#45;&gt;BB_002EB7BE -->
<g id="edge51" class="edge">
<title>BB_002EB7B5-&gt;BB_002EB7BE</title>
<path fill="none" stroke="#0000ff" d="M134.8392,-144.4168C128.9497,-135.936 121.7901,-125.6261 115.3026,-116.2842"/>
<polygon fill="#0000ff" stroke="#0000ff" points="118.1682,-114.2745 109.5894,-108.0571 112.4186,-118.2673 118.1682,-114.2745"/>
</g>
<!-- end -->
<g id="node35" class="node">
<title>end</title>
<polygon fill="none" stroke="#000000" points="115.414,-36.3225 78.9835,-36.3225 78.9835,.1079 115.414,.1079 115.414,-36.3225"/>
<polyline fill="none" stroke="#000000" points="90.9835,-36.3225 78.9835,-24.3225 "/>
<polyline fill="none" stroke="#000000" points="78.9835,-11.8921 90.9835,.1079 "/>
<polyline fill="none" stroke="#000000" points="103.414,.1079 115.414,-11.8921 "/>
<polyline fill="none" stroke="#000000" points="115.414,-24.3225 103.414,-36.3225 "/>
<text text-anchor="middle" x="97.1988" y="-13.9073" font-family="Times,serif" font-size="14.00" fill="#000000">end</text>
</g>
<!-- BB_002EB7BE&#45;&gt;end -->
<g id="edge52" class="edge">
<title>BB_002EB7BE-&gt;end</title>
<path fill="none" stroke="#000000" d="M97.1988,-72.0189C97.1988,-64.2477 97.1988,-54.9956 97.1988,-46.3686"/>
<polygon fill="#000000" stroke="#000000" points="100.6989,-46.2972 97.1988,-36.2972 93.6989,-46.2972 100.6989,-46.2972"/>
</g>
</g>
</svg>