<?xml version="1.0" encoding="UTF-8" standalone="no"?><!DOCTYPE svg PUBLIC "-//W3C//DTD SVG 1.1//EN" "http://www.w3.org/Graphics/SVG/1.1/DTD/svg11.dtd"><!-- Generated by graphviz version 2.40.1 (20161225.0304)
 --><!-- Title: G Pages: 1 --><svg xmlns="http://www.w3.org/2000/svg" xmlns:xlink="http://www.w3.org/1999/xlink" width="384pt" height="798pt" viewBox="0.00 0.00 383.76 797.86">
<g id="graph0" class="graph" transform="scale(1 1) rotate(0) translate(4 793.8584)">
<title>G</title>
<polygon fill="#ffffff" stroke="transparent" points="-4,4 -4,-793.8584 379.757,-793.8584 379.757,4 -4,4"/>
<!-- start -->
<g id="node1" class="node">
<title>start</title>
<polygon fill="none" stroke="#000000" points="223.0981,-789.8584 183.8608,-771.8584 223.0981,-753.8584 262.3354,-771.8584 223.0981,-789.8584"/>
<polyline fill="none" stroke="#000000" points="194.7678,-776.862 194.7678,-766.8548 "/>
<polyline fill="none" stroke="#000000" points="212.191,-758.862 234.0051,-758.862 "/>
<polyline fill="none" stroke="#000000" points="251.4283,-766.8548 251.4283,-776.862 "/>
<polyline fill="none" stroke="#000000" points="234.0051,-784.8548 212.191,-784.8548 "/>
<text text-anchor="middle" x="223.0981" y="-767.6584" font-family="Times,serif" font-size="14.00" fill="#000000">start</text>
</g>
<!-- BB_002D7CE0 -->
<g id="node2" class="node">
<title>BB_002D7CE0</title>
<ellipse fill="none" stroke="#000000" cx="223.0981" cy="-699.8584" rx="72.3981" ry="18"/>
<text text-anchor="middle" x="223.0981" y="-695.6584" font-family="Times,serif" font-size="14.00" fill="#000000">BB_002D7CE0</text>
</g>
<!-- start&#45;&gt;BB_002D7CE0 -->
<g id="edge1" class="edge">
<title>start-&gt;BB_002D7CE0</title>
<path fill="none" stroke="#000000" d="M223.0981,-753.6898C223.0981,-745.9894 223.0981,-736.8327 223.0981,-728.275"/>
<polygon fill="#000000" stroke="#000000" points="226.5982,-728.2716 223.0981,-718.2717 219.5982,-728.2717 226.5982,-728.2716"/>
</g>
<!-- BB_002D7D2E -->
<g id="node3" class="node">
<title>BB_002D7D2E</title>
<ellipse fill="none" stroke="#000000" cx="142.0981" cy="-627.8584" rx="72.9605" ry="18"/>
<text text-anchor="middle" x="142.0981" y="-623.6584" font-family="Times,serif" font-size="14.00" fill="#000000">BB_002D7D2E</text>
</g>
<!-- BB_002D7CE0&#45;&gt;BB_002D7D2E -->
<g id="edge2" class="edge">
<title>BB_002D7CE0-&gt;BB_002D7D2E</title>
<path fill="none" stroke="#ff0000" d="M203.4902,-682.4292C193.3177,-673.387 180.7236,-662.1922 169.5949,-652.3001"/>
<polygon fill="#ff0000" stroke="#ff0000" points="171.6055,-649.4044 161.8061,-645.3766 166.9549,-654.6362 171.6055,-649.4044"/>
</g>
<!-- BB_002D7D68 -->
<g id="node4" class="node">
<title>BB_002D7D68</title>
<ellipse fill="none" stroke="#000000" cx="304.0981" cy="-627.8584" rx="71.8182" ry="18"/>
<text text-anchor="middle" x="304.0981" y="-623.6584" font-family="Times,serif" font-size="14.00" fill="#000000">BB_002D7D68</text>
</g>
<!-- BB_002D7CE0&#45;&gt;BB_002D7D68 -->
<g id="edge3" class="edge">
<title>BB_002D7CE0-&gt;BB_002D7D68</title>
<path fill="none" stroke="#00ff00" d="M242.7059,-682.4292C252.8784,-673.387 265.4725,-662.1922 276.6012,-652.3001"/>
<polygon fill="#00ff00" stroke="#00ff00" points="279.2412,-654.6362 284.39,-645.3766 274.5906,-649.4044 279.2412,-654.6362"/>
</g>
<!-- BB_002D7D6A -->
<g id="node5" class="node">
<title>BB_002D7D6A</title>
<ellipse fill="none" stroke="#000000" cx="223.0981" cy="-555.8584" rx="73.6042" ry="18"/>
<text text-anchor="middle" x="223.0981" y="-551.6584" font-family="Times,serif" font-size="14.00" fill="#000000">BB_002D7D6A</text>
</g>
<!-- BB_002D7D2E&#45;&gt;BB_002D7D6A -->
<g id="edge4" class="edge">
<title>BB_002D7D2E-&gt;BB_002D7D6A</title>
<path fill="none" stroke="#0000ff" d="M161.7059,-610.4292C171.8784,-601.387 184.4725,-590.1922 195.6012,-580.3001"/>
<polygon fill="#0000ff" stroke="#0000ff" points="198.2412,-582.6362 203.39,-573.3766 193.5906,-577.4044 198.2412,-582.6362"/>
</g>
<!-- BB_002D7D68&#45;&gt;BB_002D7D6A -->
<g id="edge5" class="edge">
<title>BB_002D7D68-&gt;BB_002D7D6A</title>
<path fill="none" stroke="#0000ff" d="M284.4902,-610.4292C274.3177,-601.387 261.7236,-590.1922 250.5949,-580.3001"/>
<polygon fill="#0000ff" stroke="#0000ff" points="252.6055,-577.4044 242.8061,-573.3766 247.9549,-582.6362 252.6055,-577.4044"/>
</g>
<!-- BB_002D7D85 -->
<g id="node6" class="node">
<title>BB_002D7D85</title>
<ellipse fill="none" stroke="#000000" cx="140.0981" cy="-483.8584" rx="71.8182" ry="18"/>
<text text-anchor="middle" x="140.0981" y="-479.6584" font-family="Times,serif" font-size="14.00" fill="#000000">BB_002D7D85</text>
</g>
<!-- BB_002D7D6A&#45;&gt;BB_002D7D85 -->
<g id="edge6" class="edge">
<title>BB_002D7D6A-&gt;BB_002D7D85</title>
<path fill="none" stroke="#ff0000" d="M203.0061,-538.4292C192.4812,-529.2992 179.4265,-517.9747 167.9422,-508.0123"/>
<polygon fill="#ff0000" stroke="#ff0000" points="170.1401,-505.2856 160.2927,-501.3766 165.5531,-510.5733 170.1401,-505.2856"/>
</g>
<!-- BB_002D7DD9 -->
<g id="node7" class="node">
<title>BB_002D7DD9</title>
<ellipse fill="none" stroke="#000000" cx="222.0981" cy="-90.2146" rx="73.6042" ry="18"/>
<text text-anchor="middle" x="222.0981" y="-86.0146" font-family="Times,serif" font-size="14.00" fill="#000000">BB_002D7DD9</text>
</g>
<!-- BB_002D7D6A&#45;&gt;BB_002D7DD9 -->
<g id="edge7" class="edge">
<title>BB_002D7D6A-&gt;BB_002D7DD9</title>
<path fill="none" stroke="#00ff00" d="M255.1944,-539.4861C294.8371,-516.7086 357.0981,-471.4498 357.0981,-411.8584 357.0981,-411.8584 357.0981,-411.8584 357.0981,-267.8584 357.0981,-207.1599 338.1503,-190.6821 299.0981,-144.2146 288.6711,-131.8077 274.7542,-120.9039 261.6212,-112.2027"/>
<polygon fill="#00ff00" stroke="#00ff00" points="263.464,-109.2268 253.1486,-106.8092 259.7049,-115.1319 263.464,-109.2268"/>
</g>
<!-- BB_002D7D97 -->
<g id="node8" class="node">
<title>BB_002D7D97</title>
<ellipse fill="none" stroke="#000000" cx="140.0981" cy="-411.8584" rx="71.8182" ry="18"/>
<text text-anchor="middle" x="140.0981" y="-407.6584" font-family="Times,serif" font-size="14.00" fill="#000000">BB_002D7D97</text>
</g>
<!-- BB_002D7D85&#45;&gt;BB_002D7D97 -->
<g id="edge8" class="edge">
<title>BB_002D7D85-&gt;BB_002D7D97</title>
<path fill="none" stroke="#ff0000" d="M140.0981,-465.6898C140.0981,-457.9894 140.0981,-448.8327 140.0981,-440.275"/>
<polygon fill="#ff0000" stroke="#ff0000" points="143.5982,-440.2716 140.0981,-430.2717 136.5982,-440.2717 143.5982,-440.2716"/>
</g>
<!-- BB_002D7DC5 -->
<g id="node9" class="node">
<title>BB_002D7DC5</title>
<ellipse fill="none" stroke="#000000" cx="88.0981" cy="-179.0365" rx="73.0421" ry="18"/>
<text text-anchor="middle" x="88.0981" y="-174.8365" font-family="Times,serif" font-size="14.00" fill="#000000">BB_002D7DC5</text>
</g>
<!-- BB_002D7D85&#45;&gt;BB_002D7DC5 -->
<g id="edge9" class="edge">
<title>BB_002D7D85-&gt;BB_002D7DC5</title>
<path fill="none" stroke="#00ff00" d="M106.5208,-467.7492C90.3418,-458.5628 71.753,-445.707 59.0981,-429.8584 16.3499,-376.3222 16.5265,-353.231 4.0981,-285.8584 1.1955,-270.1239 -2.6468,-264.3673 4.0981,-249.8584 13.4106,-229.8261 31.4887,-213.4243 48.4954,-201.4681"/>
<polygon fill="#00ff00" stroke="#00ff00" points="50.8692,-204.0914 57.2391,-195.6253 46.98,-198.2713 50.8692,-204.0914"/>
</g>
<!-- end -->
<g id="node13" class="node">
<title>end</title>
<polygon fill="none" stroke="#000000" points="240.3133,-36.3225 203.8828,-36.3225 203.8828,.1079 240.3133,.1079 240.3133,-36.3225"/>
<polyline fill="none" stroke="#000000" points="215.8828,-36.3225 203.8828,-24.3225 "/>
<polyline fill="none" stroke="#000000" points="203.8828,-11.8921 215.8828,.1079 "/>
<polyline fill="none" stroke="#000000" points="228.3133,.1079 240.3133,-11.8921 "/>
<polyline fill="none" stroke="#000000" points="240.3133,-24.3225 228.3133,-36.3225 "/>
<text text-anchor="middle" x="222.0981" y="-13.9073" font-family="Times,serif" font-size="14.00" fill="#000000">end</text>
</g>
<!-- BB_002D7DD9&#45;&gt;end -->
<g id="edge16" class="edge">
<title>BB_002D7DD9-&gt;end</title>
<path fill="none" stroke="#000000" d="M222.0981,-72.0189C222.0981,-64.2477 222.0981,-54.9956 222.0981,-46.3686"/>
<polygon fill="#000000" stroke="#000000" points="225.5982,-46.2972 222.0981,-36.2972 218.5982,-46.2972 225.5982,-46.2972"/>
</g>
<!-- BB_002D7DAB -->
<g id="node10" class="node">
<title>BB_002D7DAB</title>
<ellipse fill="none" stroke="#000000" cx="191.0981" cy="-339.8584" rx="75.3272" ry="18"/>
<text text-anchor="middle" x="191.0981" y="-335.6584" font-family="Times,serif" font-size="14.00" fill="#000000">BB_002D7DAB</text>
</g>
<!-- BB_002D7D97&#45;&gt;BB_002D7DAB -->
<g id="edge10" class="edge">
<title>BB_002D7D97-&gt;BB_002D7DAB</title>
<path fill="none" stroke="#ff0000" d="M152.7048,-394.0606C158.7121,-385.5798 166.0149,-375.2699 172.6321,-365.928"/>
<polygon fill="#ff0000" stroke="#ff0000" points="175.5355,-367.8843 178.4596,-357.7009 169.8233,-363.8381 175.5355,-367.8843"/>
</g>
<!-- BB_002D7DBB -->
<g id="node11" class="node">
<title>BB_002D7DBB</title>
<ellipse fill="none" stroke="#000000" cx="88.0981" cy="-267.8584" rx="74.765" ry="18"/>
<text text-anchor="middle" x="88.0981" y="-263.6584" font-family="Times,serif" font-size="14.00" fill="#000000">BB_002D7DBB</text>
</g>
<!-- BB_002D7D97&#45;&gt;BB_002D7DBB -->
<g id="edge11" class="edge">
<title>BB_002D7D97-&gt;BB_002D7DBB</title>
<path fill="none" stroke="#00ff00" d="M126.8384,-393.6913C120.0296,-383.584 112.13,-370.519 107.0981,-357.8584 99.1599,-337.8855 94.317,-314.0382 91.5088,-295.9106"/>
<polygon fill="#00ff00" stroke="#00ff00" points="94.9675,-295.3722 90.0825,-285.9707 88.0385,-296.3665 94.9675,-295.3722"/>
</g>
<!-- BB_002D7DC5&#45;&gt;BB_002D7DD9 -->
<g id="edge15" class="edge">
<title>BB_002D7DC5-&gt;BB_002D7DD9</title>
<path fill="none" stroke="#0000ff" d="M113.6178,-162.1207C134.6258,-148.1956 164.6039,-128.3246 187.7244,-112.9992"/>
<polygon fill="#0000ff" stroke="#0000ff" points="189.8154,-115.8123 196.2169,-107.37 185.9479,-109.9776 189.8154,-115.8123"/>
</g>
<!-- BB_002D7DAB&#45;&gt;BB_002D7DBB -->
<g id="edge12" class="edge">
<title>BB_002D7DAB-&gt;BB_002D7DBB</title>
<path fill="none" stroke="#ff0000" d="M166.6885,-322.7954C153.0627,-313.2706 135.8999,-301.2733 121.0916,-290.9219"/>
<polygon fill="#ff0000" stroke="#ff0000" points="122.8907,-287.9091 112.6894,-285.0484 118.8802,-293.6464 122.8907,-287.9091"/>
</g>
<!-- BB_002D7DFD -->
<g id="node12" class="node">
<title>BB_002D7DFD</title>
<ellipse fill="none" stroke="#000000" cx="255.0981" cy="-267.8584" rx="74.1836" ry="18"/>
<text text-anchor="middle" x="255.0981" y="-263.6584" font-family="Times,serif" font-size="14.00" fill="#000000">BB_002D7DFD</text>
</g>
<!-- BB_002D7DAB&#45;&gt;BB_002D7DFD -->
<g id="edge13" class="edge">
<title>BB_002D7DAB-&gt;BB_002D7DFD</title>
<path fill="none" stroke="#00ff00" d="M206.9183,-322.0606C214.6107,-313.4067 223.9959,-302.8484 232.4324,-293.3572"/>
<polygon fill="#00ff00" stroke="#00ff00" points="235.2103,-295.5003 239.238,-285.7009 229.9784,-290.8498 235.2103,-295.5003"/>
</g>
<!-- BB_002D7DBB&#45;&gt;BB_002D7DC5 -->
<g id="edge14" class="edge">
<title>BB_002D7DBB-&gt;BB_002D7DC5</title>
<path fill="none" stroke="#0000ff" d="M88.0981,-249.4544C88.0981,-237.3458 88.0981,-221.2545 88.0981,-207.5109"/>
<polygon fill="#0000ff" stroke="#0000ff" points="91.5982,-207.1129 88.0981,-197.113 84.5982,-207.113 91.5982,-207.1129"/>
</g>
<!-- dead_end -->
<g id="node14" class="node">
<title>dead_end</title>
<polygon fill="none" stroke="#000000" points="289.7428,-213.6812 220.4534,-213.6812 220.4534,-144.3918 289.7428,-144.3918 289.7428,-213.6812"/>
<polyline fill="none" stroke="#000000" points="232.4534,-213.6812 220.4534,-201.6812 "/>
<polyline fill="none" stroke="#000000" points="220.4534,-156.3918 232.4534,-144.3918 "/>
<polyline fill="none" stroke="#000000" points="277.7428,-144.3918 289.7428,-156.3918 "/>
<polyline fill="none" stroke="#000000" points="289.7428,-201.6812 277.7428,-213.6812 "/>
<text text-anchor="middle" x="255.0981" y="-174.8365" font-family="Times,serif" font-size="14.00" fill="#000000">dead_end</text>
</g>
<!-- BB_002D7DFD&#45;&gt;dead_end -->
<g id="edge17" class="edge">
<title>BB_002D7DFD-&gt;dead_end</title>
<path fill="none" stroke="#000000" d="M255.0981,-249.4544C255.0981,-241.9968 255.0981,-233.0284 255.0981,-224.0283"/>
<polygon fill="#000000" stroke="#000000" points="258.5982,-223.9321 255.0981,-213.9321 251.5982,-223.9322 258.5982,-223.9321"/>
</g>
</g>
</svg>