<?xml version="1.0" encoding="UTF-8" standalone="no"?><!DOCTYPE svg PUBLIC "-//W3C//DTD SVG 1.1//EN" "http://www.w3.org/Graphics/SVG/1.1/DTD/svg11.dtd"><!-- Generated by graphviz version 2.40.1 (20161225.0304)
 --><!-- Title: G Pages: 1 --><svg xmlns="http://www.w3.org/2000/svg" xmlns:xlink="http://www.w3.org/1999/xlink" width="202pt" height="332pt" viewBox="0.00 0.00 202.39 332.21">
<g id="graph0" class="graph" transform="scale(1 1) rotate(0) translate(4 328.2146)">
<title>G</title>
<polygon fill="#ffffff" stroke="transparent" points="-4,4 -4,-328.2146 198.3888,-328.2146 198.3888,4 -4,4"/>
<!-- start -->
<g id="node1" class="node">
<title>start</title>
<polygon fill="none" stroke="#000000" points="122.7299,-324.2146 83.4926,-306.2146 122.7299,-288.2146 161.9672,-306.2146 122.7299,-324.2146"/>
<polyline fill="none" stroke="#000000" points="94.3997,-311.2182 94.3997,-301.211 "/>
<polyline fill="none" stroke="#000000" points="111.8228,-293.2182 133.637,-293.2182 "/>
<polyline fill="none" stroke="#000000" points="151.0601,-301.211 151.0601,-311.2182 "/>
<polyline fill="none" stroke="#000000" points="133.637,-319.211 111.8228,-319.211 "/>
<text text-anchor="middle" x="122.7299" y="-302.0146" font-family="Times,serif" font-size="14.00" fill="#000000">start</text>
</g>
<!-- BB_002DA440 -->
<g id="node2" class="node">
<title>BB_002DA440</title>
<ellipse fill="none" stroke="#000000" cx="122.7299" cy="-234.2146" rx="71.8182" ry="18"/>
<text text-anchor="middle" x="122.7299" y="-230.0146" font-family="Times,serif" font-size="14.00" fill="#000000">BB_002DA440</text>
</g>
<!-- start&#45;&gt;BB_002DA440 -->
<g id="edge1" class="edge">
<title>start-&gt;BB_002DA440</title>
<path fill="none" stroke="#000000" d="M122.7299,-288.046C122.7299,-280.3456 122.7299,-271.1889 122.7299,-262.6312"/>
<polygon fill="#000000" stroke="#000000" points="126.23,-262.6278 122.7299,-252.6279 119.23,-262.6279 126.23,-262.6278"/>
</g>
<!-- BB_002DA44E -->
<g id="node3" class="node">
<title>BB_002DA44E</title>
<ellipse fill="none" stroke="#000000" cx="72.7299" cy="-162.2146" rx="72.9605" ry="18"/>
<text text-anchor="middle" x="72.7299" y="-158.0146" font-family="Times,serif" font-size="14.00" fill="#000000">BB_002DA44E</text>
</g>
<!-- BB_002DA440&#45;&gt;BB_002DA44E -->
<g id="edge2" class="edge">
<title>BB_002DA440-&gt;BB_002DA44E</title>
<path fill="none" stroke="#ff0000" d="M110.3703,-216.4168C104.4808,-207.936 97.3212,-197.6261 90.8338,-188.2842"/>
<polygon fill="#ff0000" stroke="#ff0000" points="93.6994,-186.2745 85.1206,-180.0571 87.9498,-190.2673 93.6994,-186.2745"/>
</g>
<!-- BB_002DA476 -->
<g id="node4" class="node">
<title>BB_002DA476</title>
<ellipse fill="none" stroke="#000000" cx="122.7299" cy="-90.2146" rx="71.8182" ry="18"/>
<text text-anchor="middle" x="122.7299" y="-86.0146" font-family="Times,serif" font-size="14.00" fill="#000000">BB_002DA476</text>
</g>
<!-- BB_002DA440&#45;&gt;BB_002DA476 -->
<g id="edge3" class="edge">
<title>BB_002DA440-&gt;BB_002DA476</title>
<path fill="none" stroke="#00ff00" d="M136.631,-216.3441C143.539,-206.3236 151.1585,-193.247 154.7299,-180.2146 158.9587,-164.7835 158.9587,-159.6457 154.7299,-144.2146 152.1071,-134.644 147.3012,-125.0494 142.1972,-116.659"/>
<polygon fill="#00ff00" stroke="#00ff00" points="145.0119,-114.5668 136.631,-108.0851 139.1407,-118.3784 145.0119,-114.5668"/>
</g>
<!-- BB_002DA44E&#45;&gt;BB_002DA476 -->
<g id="edge4" class="edge">
<title>BB_002DA44E-&gt;BB_002DA476</title>
<path fill="none" stroke="#0000ff" d="M85.0895,-144.4168C90.9789,-135.936 98.1386,-125.6261 104.626,-116.2842"/>
<polygon fill="#0000ff" stroke="#0000ff" points="107.51,-118.2673 110.3392,-108.0571 101.7604,-114.2745 107.51,-118.2673"/>
</g>
<!-- end -->
<g id="node5" class="node">
<title>end</title>
<polygon fill="none" stroke="#000000" points="140.9451,-36.3225 104.5147,-36.3225 104.5147,.1079 140.9451,.1079 140.9451,-36.3225"/>
<polyline fill="none" stroke="#000000" points="116.5147,-36.3225 104.5147,-24.3225 "/>
<polyline fill="none" stroke="#000000" points="104.5147,-11.8921 116.5147,.1079 "/>
<polyline fill="none" stroke="#000000" points="128.9451,.1079 140.9451,-11.8921 "/>
<polyline fill="none" stroke="#000000" points="140.9451,-24.3225 128.9451,-36.3225 "/>
<text text-anchor="middle" x="122.7299" y="-13.9073" font-family="Times,serif" font-size="14.00" fill="#000000">end</text>
</g>
<!-- BB_002DA476&#45;&gt;end -->
<g id="edge5" class="edge">
<title>BB_002DA476-&gt;end</title>
<path fill="none" stroke="#000000" d="M122.7299,-72.0189C122.7299,-64.2477 122.7299,-54.9956 122.7299,-46.3686"/>
<polygon fill="#000000" stroke="#000000" points="126.23,-46.2972 122.7299,-36.2972 119.23,-46.2972 126.23,-46.2972"/>
</g>
</g>
</svg>