<?xml version="1.0" encoding="UTF-8" standalone="no"?><!DOCTYPE svg PUBLIC "-//W3C//DTD SVG 1.1//EN" "http://www.w3.org/Graphics/SVG/1.1/DTD/svg11.dtd"><!-- Generated by graphviz version 2.40.1 (20161225.0304)
 --><!-- Title: G Pages: 1 --><svg xmlns="http://www.w3.org/2000/svg" xmlns:xlink="http://www.w3.org/1999/xlink" width="636pt" height="510pt" viewBox="0.00 0.00 635.79 509.64">
<g id="graph0" class="graph" transform="scale(1 1) rotate(0) translate(4 505.6438)">
<title>G</title>
<polygon fill="#ffffff" stroke="transparent" points="-4,4 -4,-505.6438 631.7858,-505.6438 631.7858,4 -4,4"/>
<!-- start -->
<g id="node1" class="node">
<title>start</title>
<polygon fill="none" stroke="#000000" points="461.1988,-501.6438 421.9615,-483.6438 461.1988,-465.6438 500.4361,-483.6438 461.1988,-501.6438"/>
<polyline fill="none" stroke="#000000" points="432.8685,-488.6474 432.8685,-478.6402 "/>
<polyline fill="none" stroke="#000000" points="450.2917,-470.6474 472.1058,-470.6474 "/>
<polyline fill="none" stroke="#000000" points="489.529,-478.6402 489.529,-488.6474 "/>
<polyline fill="none" stroke="#000000" points="472.1058,-496.6402 450.2917,-496.6402 "/>
<text text-anchor="middle" x="461.1988" y="-479.4438" font-family="Times,serif" font-size="14.00" fill="#000000">start</text>
</g>
<!-- BB_002E3480 -->
<g id="node2" class="node">
<title>BB_002E3480</title>
<ellipse fill="none" stroke="#000000" cx="461.1988" cy="-411.6438" rx="68.3883" ry="18"/>
<text text-anchor="middle" x="461.1988" y="-407.4438" font-family="Times,serif" font-size="14.00" fill="#000000">BB_002E3480</text>
</g>
<!-- start&#45;&gt;BB_002E3480 -->
<g id="edge1" class="edge">
<title>start-&gt;BB_002E3480</title>
<path fill="none" stroke="#000000" d="M461.1988,-465.4752C461.1988,-457.7748 461.1988,-448.6181 461.1988,-440.0604"/>
<polygon fill="#000000" stroke="#000000" points="464.6989,-440.057 461.1988,-430.0571 457.6989,-440.0571 464.6989,-440.057"/>
</g>
<!-- BB_002E348D -->
<g id="node3" class="node">
<title>BB_002E348D</title>
<ellipse fill="none" stroke="#000000" cx="412.1988" cy="-339.6438" rx="70.6742" ry="18"/>
<text text-anchor="middle" x="412.1988" y="-335.4438" font-family="Times,serif" font-size="14.00" fill="#000000">BB_002E348D</text>
</g>
<!-- BB_002E3480&#45;&gt;BB_002E348D -->
<g id="edge2" class="edge">
<title>BB_002E3480-&gt;BB_002E348D</title>
<path fill="none" stroke="#ff0000" d="M449.0864,-393.846C443.3736,-385.4517 436.4413,-375.2656 430.1354,-365.9996"/>
<polygon fill="#ff0000" stroke="#ff0000" points="432.8614,-363.7843 424.3416,-357.4863 427.0744,-367.7227 432.8614,-363.7843"/>
</g>
<!-- BB_002E34D0 -->
<g id="node4" class="node">
<title>BB_002E34D0</title>
<ellipse fill="none" stroke="#000000" cx="556.1988" cy="-195.6438" rx="70.6742" ry="18"/>
<text text-anchor="middle" x="556.1988" y="-191.4438" font-family="Times,serif" font-size="14.00" fill="#000000">BB_002E34D0</text>
</g>
<!-- BB_002E3480&#45;&gt;BB_002E34D0 -->
<g id="edge3" class="edge">
<title>BB_002E3480-&gt;BB_002E34D0</title>
<path fill="none" stroke="#00ff00" d="M472.4911,-393.5052C478.6883,-383.1893 486.2903,-369.9162 492.1988,-357.6438 514.2151,-311.9136 534.8719,-256.5143 546.4887,-223.7801"/>
<polygon fill="#00ff00" stroke="#00ff00" points="549.916,-224.5843 549.933,-213.9895 543.3127,-222.2613 549.916,-224.5843"/>
</g>
<!-- BB_002E3496 -->
<g id="node5" class="node">
<title>BB_002E3496</title>
<ellipse fill="none" stroke="#000000" cx="412.1988" cy="-267.6438" rx="68.3883" ry="18"/>
<text text-anchor="middle" x="412.1988" y="-263.4438" font-family="Times,serif" font-size="14.00" fill="#000000">BB_002E3496</text>
</g>
<!-- BB_002E348D&#45;&gt;BB_002E3496 -->
<g id="edge4" class="edge">
<title>BB_002E348D-&gt;BB_002E3496</title>
<path fill="none" stroke="#ff0000" d="M412.1988,-321.4752C412.1988,-313.7748 412.1988,-304.6181 412.1988,-296.0604"/>
<polygon fill="#ff0000" stroke="#ff0000" points="415.6989,-296.057 412.1988,-286.0571 408.6989,-296.0571 415.6989,-296.057"/>
</g>
<!-- BB_002E34B9 -->
<g id="node6" class="node">
<title>BB_002E34B9</title>
<ellipse fill="none" stroke="#000000" cx="234.1988" cy="-195.6438" rx="70.1118" ry="18"/>
<text text-anchor="middle" x="234.1988" y="-191.4438" font-family="Times,serif" font-size="14.00" fill="#000000">BB_002E34B9</text>
</g>
<!-- BB_002E348D&#45;&gt;BB_002E34B9 -->
<g id="edge5" class="edge">
<title>BB_002E348D-&gt;BB_002E34B9</title>
<path fill="none" stroke="#00ff00" d="M386.6948,-322.8526C371.436,-312.5398 351.8397,-298.8205 335.1988,-285.6438 308.7028,-264.6637 280.0818,-238.8332 260.0964,-220.234"/>
<polygon fill="#00ff00" stroke="#00ff00" points="262.3126,-217.5144 252.6193,-213.2377 257.53,-222.6258 262.3126,-217.5144"/>
</g>
<!-- BB_002E34D5 -->
<g id="node9" class="node">
<title>BB_002E34D5</title>
<ellipse fill="none" stroke="#000000" cx="557.1988" cy="-123.6438" rx="70.6742" ry="18"/>
<text text-anchor="middle" x="557.1988" y="-119.4438" font-family="Times,serif" font-size="14.00" fill="#000000">BB_002E34D5</text>
</g>
<!-- BB_002E34D0&#45;&gt;BB_002E34D5 -->
<g id="edge15" class="edge">
<title>BB_002E34D0-&gt;BB_002E34D5</title>
<path fill="none" stroke="#0000ff" d="M556.4511,-177.4752C556.5581,-169.7748 556.6852,-160.6181 556.8041,-152.0604"/>
<polygon fill="#0000ff" stroke="#0000ff" points="560.3037,-152.1047 556.943,-142.0571 553.3044,-152.0075 560.3037,-152.1047"/>
</g>
<!-- BB_002E3496&#45;&gt;BB_002E34D0 -->
<g id="edge7" class="edge">
<title>BB_002E3496-&gt;BB_002E34D0</title>
<path fill="none" stroke="#00ff00" d="M444.157,-251.6647C465.0578,-241.2143 492.5592,-227.4636 515.0844,-216.201"/>
<polygon fill="#00ff00" stroke="#00ff00" points="516.7022,-219.3053 524.0812,-211.7026 513.5716,-213.0443 516.7022,-219.3053"/>
</g>
<!-- BB_002E349D -->
<g id="node7" class="node">
<title>BB_002E349D</title>
<ellipse fill="none" stroke="#000000" cx="397.1988" cy="-195.6438" rx="70.6742" ry="18"/>
<text text-anchor="middle" x="397.1988" y="-191.4438" font-family="Times,serif" font-size="14.00" fill="#000000">BB_002E349D</text>
</g>
<!-- BB_002E3496&#45;&gt;BB_002E349D -->
<g id="edge6" class="edge">
<title>BB_002E3496-&gt;BB_002E349D</title>
<path fill="none" stroke="#ff0000" d="M408.4136,-249.4752C406.8094,-241.7748 404.9018,-232.6181 403.1189,-224.0604"/>
<polygon fill="#ff0000" stroke="#ff0000" points="406.5009,-223.133 401.0349,-214.0571 399.6481,-224.5607 406.5009,-223.133"/>
</g>
<!-- BB_002E34BD -->
<g id="node11" class="node">
<title>BB_002E34BD</title>
<ellipse fill="none" stroke="#000000" cx="72.1988" cy="-123.6438" rx="72.3981" ry="18"/>
<text text-anchor="middle" x="72.1988" y="-119.4438" font-family="Times,serif" font-size="14.00" fill="#000000">BB_002E34BD</text>
</g>
<!-- BB_002E34B9&#45;&gt;BB_002E34BD -->
<g id="edge11" class="edge">
<title>BB_002E34B9-&gt;BB_002E34BD</title>
<path fill="none" stroke="#ff0000" d="M199.0472,-180.0209C174.9293,-169.3018 142.7253,-154.9889 116.8013,-143.4671"/>
<polygon fill="#ff0000" stroke="#ff0000" points="118.1207,-140.2235 107.5611,-139.3604 115.2777,-146.6202 118.1207,-140.2235"/>
</g>
<!-- BB_002E34CA -->
<g id="node12" class="node">
<title>BB_002E34CA</title>
<ellipse fill="none" stroke="#000000" cx="234.1988" cy="-123.6438" rx="72.3981" ry="18"/>
<text text-anchor="middle" x="234.1988" y="-119.4438" font-family="Times,serif" font-size="14.00" fill="#000000">BB_002E34CA</text>
</g>
<!-- BB_002E34B9&#45;&gt;BB_002E34CA -->
<g id="edge12" class="edge">
<title>BB_002E34B9-&gt;BB_002E34CA</title>
<path fill="none" stroke="#00ff00" d="M234.1988,-177.4752C234.1988,-169.7748 234.1988,-160.6181 234.1988,-152.0604"/>
<polygon fill="#00ff00" stroke="#00ff00" points="237.6989,-152.057 234.1988,-142.0571 230.6989,-152.0571 237.6989,-152.057"/>
</g>
<!-- BB_002E34AC -->
<g id="node8" class="node">
<title>BB_002E34AC</title>
<ellipse fill="none" stroke="#000000" cx="396.1988" cy="-123.6438" rx="72.3981" ry="18"/>
<text text-anchor="middle" x="396.1988" y="-119.4438" font-family="Times,serif" font-size="14.00" fill="#000000">BB_002E34AC</text>
</g>
<!-- BB_002E349D&#45;&gt;BB_002E34AC -->
<g id="edge8" class="edge">
<title>BB_002E349D-&gt;BB_002E34AC</title>
<path fill="none" stroke="#ff0000" d="M396.9464,-177.4752C396.8395,-169.7748 396.7123,-160.6181 396.5934,-152.0604"/>
<polygon fill="#ff0000" stroke="#ff0000" points="400.0931,-152.0075 396.4545,-142.0571 393.0938,-152.1047 400.0931,-152.0075"/>
</g>
<!-- BB_002E349D&#45;&gt;BB_002E34D5 -->
<g id="edge9" class="edge">
<title>BB_002E349D-&gt;BB_002E34D5</title>
<path fill="none" stroke="#00ff00" d="M432.3114,-179.8431C455.9664,-169.1984 487.3629,-155.07 512.7577,-143.6423"/>
<polygon fill="#00ff00" stroke="#00ff00" points="514.4851,-146.7031 522.168,-139.4076 511.6125,-140.3196 514.4851,-146.7031"/>
</g>
<!-- end -->
<g id="node10" class="node">
<title>end</title>
<polygon fill="none" stroke="#000000" points="252.414,-53.0371 215.9835,-53.0371 215.9835,-16.6067 252.414,-16.6067 252.414,-53.0371"/>
<polyline fill="none" stroke="#000000" points="227.9835,-53.0371 215.9835,-41.0371 "/>
<polyline fill="none" stroke="#000000" points="215.9835,-28.6067 227.9835,-16.6067 "/>
<polyline fill="none" stroke="#000000" points="240.414,-16.6067 252.414,-28.6067 "/>
<polyline fill="none" stroke="#000000" points="252.414,-41.0371 240.414,-53.0371 "/>
<text text-anchor="middle" x="234.1988" y="-30.6219" font-family="Times,serif" font-size="14.00" fill="#000000">end</text>
</g>
<!-- BB_002E34AC&#45;&gt;end -->
<g id="edge10" class="edge">
<title>BB_002E34AC-&gt;end</title>
<path fill="none" stroke="#000000" d="M366.1075,-107.1452C336.0532,-90.667 290.2741,-65.5671 261.3138,-49.6886"/>
<polygon fill="#000000" stroke="#000000" points="262.9946,-46.6186 252.5434,-44.88 259.6292,-52.7566 262.9946,-46.6186"/>
</g>
<!-- dead_end -->
<g id="node13" class="node">
<title>dead_end</title>
<polygon fill="none" stroke="#000000" points="591.8435,-69.4666 522.5541,-69.4666 522.5541,-.1772 591.8435,-.1772 591.8435,-69.4666"/>
<polyline fill="none" stroke="#000000" points="534.5541,-69.4666 522.5541,-57.4666 "/>
<polyline fill="none" stroke="#000000" points="522.5541,-12.1772 534.5541,-.1772 "/>
<polyline fill="none" stroke="#000000" points="579.8435,-.1772 591.8435,-12.1772 "/>
<polyline fill="none" stroke="#000000" points="591.8435,-57.4666 579.8435,-69.4666 "/>
<text text-anchor="middle" x="557.1988" y="-30.6219" font-family="Times,serif" font-size="14.00" fill="#000000">dead_end</text>
</g>
<!-- BB_002E34D5&#45;&gt;dead_end -->
<g id="edge16" class="edge">
<title>BB_002E34D5-&gt;dead_end</title>
<path fill="none" stroke="#000000" d="M557.1988,-105.2398C557.1988,-97.7822 557.1988,-88.8138 557.1988,-79.8137"/>
<polygon fill="#000000" stroke="#000000" points="560.6989,-79.7175 557.1988,-69.7175 553.6989,-79.7176 560.6989,-79.7175"/>
</g>
<!-- BB_002E34BD&#45;&gt;end -->
<g id="edge13" class="edge">
<title>BB_002E34BD-&gt;end</title>
<path fill="none" stroke="#000000" d="M102.2901,-107.1452C132.3443,-90.667 178.1234,-65.5671 207.0837,-49.6886"/>
<polygon fill="#000000" stroke="#000000" points="208.7683,-52.7566 215.8541,-44.88 205.4029,-46.6186 208.7683,-52.7566"/>
</g>
<!-- BB_002E34CA&#45;&gt;end -->
<g id="edge14" class="edge">
<title>BB_002E34CA-&gt;end</title>
<path fill="none" stroke="#000000" d="M234.1988,-105.2398C234.1988,-93.2114 234.1988,-77.2529 234.1988,-63.5696"/>
<polygon fill="#000000" stroke="#000000" points="237.6989,-63.2022 234.1988,-53.2023 230.6989,-63.2023 237.6989,-63.2022"/>
</g>
</g>
</svg>