<?xml version="1.0" encoding="UTF-8" standalone="no"?><!DOCTYPE svg PUBLIC "-//W3C//DTD SVG 1.1//EN" "http://www.w3.org/Graphics/SVG/1.1/DTD/svg11.dtd"><!-- Generated by graphviz version 2.40.1 (20161225.0304)
 --><!-- Title: G Pages: 1 --><svg xmlns="http://www.w3.org/2000/svg" xmlns:xlink="http://www.w3.org/1999/xlink" width="295pt" height="548pt" viewBox="0.00 0.00 295.04 548.21">
<g id="graph0" class="graph" transform="scale(1 1) rotate(0) translate(4 544.2146)">
<title>G</title>
<polygon fill="#ffffff" stroke="transparent" points="-4,4 -4,-544.2146 291.0408,-544.2146 291.0408,4 -4,4"/>
<!-- start -->
<g id="node1" class="node">
<title>start</title>
<polygon fill="none" stroke="#000000" points="217.5248,-540.2146 178.2875,-522.2146 217.5248,-504.2146 256.7621,-522.2146 217.5248,-540.2146"/>
<polyline fill="none" stroke="#000000" points="189.1945,-527.2182 189.1945,-517.211 "/>
<polyline fill="none" stroke="#000000" points="206.6177,-509.2182 228.4318,-509.2182 "/>
<polyline fill="none" stroke="#000000" points="245.855,-517.211 245.855,-527.2182 "/>
<polyline fill="none" stroke="#000000" points="228.4318,-535.211 206.6177,-535.211 "/>
<text text-anchor="middle" x="217.5248" y="-518.0146" font-family="Times,serif" font-size="14.00" fill="#000000">start</text>
</g>
<!-- BB_003098A0 -->
<g id="node2" class="node">
<title>BB_003098A0</title>
<ellipse fill="none" stroke="#000000" cx="217.5248" cy="-450.2146" rx="69.5321" ry="18"/>
<text text-anchor="middle" x="217.5248" y="-446.0146" font-family="Times,serif" font-size="14.00" fill="#000000">BB_003098A0</text>
</g>
<!-- start&#45;&gt;BB_003098A0 -->
<g id="edge1" class="edge">
<title>start-&gt;BB_003098A0</title>
<path fill="none" stroke="#000000" d="M217.5248,-504.046C217.5248,-496.3456 217.5248,-487.1889 217.5248,-478.6312"/>
<polygon fill="#000000" stroke="#000000" points="221.0249,-478.6278 217.5248,-468.6279 214.0249,-478.6279 221.0249,-478.6278"/>
</g>
<!-- BB_003098BA -->
<g id="node3" class="node">
<title>BB_003098BA</title>
<ellipse fill="none" stroke="#000000" cx="167.5248" cy="-378.2146" rx="71.2559" ry="18"/>
<text text-anchor="middle" x="167.5248" y="-374.0146" font-family="Times,serif" font-size="14.00" fill="#000000">BB_003098BA</text>
</g>
<!-- BB_003098A0&#45;&gt;BB_003098BA -->
<g id="edge2" class="edge">
<title>BB_003098A0-&gt;BB_003098BA</title>
<path fill="none" stroke="#ff0000" d="M205.1652,-432.4168C199.2757,-423.936 192.1161,-413.6261 185.6286,-404.2842"/>
<polygon fill="#ff0000" stroke="#ff0000" points="188.4942,-402.2745 179.9154,-396.0571 182.7446,-406.2673 188.4942,-402.2745"/>
</g>
<!-- BB_003098E7 -->
<g id="node4" class="node">
<title>BB_003098E7</title>
<ellipse fill="none" stroke="#000000" cx="130.5248" cy="-90.2146" rx="68.3883" ry="18"/>
<text text-anchor="middle" x="130.5248" y="-86.0146" font-family="Times,serif" font-size="14.00" fill="#000000">BB_003098E7</text>
</g>
<!-- BB_003098A0&#45;&gt;BB_003098E7 -->
<g id="edge3" class="edge">
<title>BB_003098A0-&gt;BB_003098E7</title>
<path fill="none" stroke="#00ff00" d="M229.613,-432.4723C246.3448,-406.1418 274.5248,-354.6118 274.5248,-306.2146 274.5248,-306.2146 274.5248,-306.2146 274.5248,-234.2146 274.5248,-193.333 281.4064,-175.8603 255.5248,-144.2146 240.0068,-125.2407 216.5533,-112.7781 194.1381,-104.665"/>
<polygon fill="#00ff00" stroke="#00ff00" points="195.2155,-101.3347 184.6213,-101.4479 192.9738,-107.966 195.2155,-101.3347"/>
</g>
<!-- BB_003098BF -->
<g id="node5" class="node">
<title>BB_003098BF</title>
<ellipse fill="none" stroke="#000000" cx="69.5248" cy="-306.2146" rx="69.5495" ry="18"/>
<text text-anchor="middle" x="69.5248" y="-302.0146" font-family="Times,serif" font-size="14.00" fill="#000000">BB_003098BF</text>
</g>
<!-- BB_003098BA&#45;&gt;BB_003098BF -->
<g id="edge4" class="edge">
<title>BB_003098BA-&gt;BB_003098BF</title>
<path fill="none" stroke="#ff0000" d="M144.3001,-361.1516C131.4569,-351.7158 115.311,-339.8535 101.3123,-329.5687"/>
<polygon fill="#ff0000" stroke="#ff0000" points="103.0534,-326.5048 92.9223,-323.4046 98.9089,-332.146 103.0534,-326.5048"/>
</g>
<!-- BB_003098DD -->
<g id="node6" class="node">
<title>BB_003098DD</title>
<ellipse fill="none" stroke="#000000" cx="159.5248" cy="-234.2146" rx="71.8182" ry="18"/>
<text text-anchor="middle" x="159.5248" y="-230.0146" font-family="Times,serif" font-size="14.00" fill="#000000">BB_003098DD</text>
</g>
<!-- BB_003098BA&#45;&gt;BB_003098DD -->
<g id="edge5" class="edge">
<title>BB_003098BA-&gt;BB_003098DD</title>
<path fill="none" stroke="#00ff00" d="M166.5116,-359.9769C165.147,-335.4156 162.7052,-291.462 161.1,-262.5687"/>
<polygon fill="#00ff00" stroke="#00ff00" points="164.5791,-262.0946 160.5297,-252.3042 157.5899,-262.483 164.5791,-262.0946"/>
</g>
<!-- end -->
<g id="node8" class="node">
<title>end</title>
<polygon fill="none" stroke="#000000" points="148.74,-36.3225 112.3095,-36.3225 112.3095,.1079 148.74,.1079 148.74,-36.3225"/>
<polyline fill="none" stroke="#000000" points="124.3095,-36.3225 112.3095,-24.3225 "/>
<polyline fill="none" stroke="#000000" points="112.3095,-11.8921 124.3095,.1079 "/>
<polyline fill="none" stroke="#000000" points="136.74,.1079 148.74,-11.8921 "/>
<polyline fill="none" stroke="#000000" points="148.74,-24.3225 136.74,-36.3225 "/>
<text text-anchor="middle" x="130.5248" y="-13.9073" font-family="Times,serif" font-size="14.00" fill="#000000">end</text>
</g>
<!-- BB_003098E7&#45;&gt;end -->
<g id="edge11" class="edge">
<title>BB_003098E7-&gt;end</title>
<path fill="none" stroke="#000000" d="M130.5248,-72.0189C130.5248,-64.2477 130.5248,-54.9956 130.5248,-46.3686"/>
<polygon fill="#000000" stroke="#000000" points="134.0249,-46.2972 130.5248,-36.2972 127.0249,-46.2972 134.0249,-46.2972"/>
</g>
<!-- BB_003098BF&#45;&gt;BB_003098E7 -->
<g id="edge7" class="edge">
<title>BB_003098BF-&gt;BB_003098E7</title>
<path fill="none" stroke="#00ff00" d="M69.2705,-287.9112C69.4771,-257.0194 72.6708,-193.1219 93.5248,-144.2146 97.6271,-134.5938 103.5617,-124.9114 109.4809,-116.4551"/>
<polygon fill="#00ff00" stroke="#00ff00" points="112.4846,-118.2773 115.5665,-108.1406 106.8359,-114.1429 112.4846,-118.2773"/>
</g>
<!-- BB_003098BF&#45;&gt;BB_003098DD -->
<g id="edge6" class="edge">
<title>BB_003098BF-&gt;BB_003098DD</title>
<path fill="none" stroke="#ff0000" d="M91.3112,-288.7854C102.9189,-279.4993 117.3642,-267.9431 129.9695,-257.8588"/>
<polygon fill="#ff0000" stroke="#ff0000" points="132.3166,-260.4633 137.9389,-251.4833 127.9437,-254.9972 132.3166,-260.4633"/>
</g>
<!-- BB_003098DD&#45;&gt;BB_003098E7 -->
<g id="edge9" class="edge">
<title>BB_003098DD-&gt;BB_003098E7</title>
<path fill="none" stroke="#00ff00" d="M133.0853,-217.2693C121.0511,-207.95 108.0591,-195.2262 101.5248,-180.2146 92.542,-159.5781 101.4984,-135.232 111.7557,-117.0685"/>
<polygon fill="#00ff00" stroke="#00ff00" points="114.9507,-118.5502 117.15,-108.1861 108.9676,-114.9166 114.9507,-118.5502"/>
</g>
<!-- BB_003098E2 -->
<g id="node7" class="node">
<title>BB_003098E2</title>
<ellipse fill="none" stroke="#000000" cx="178.5248" cy="-162.2146" rx="68.3883" ry="18"/>
<text text-anchor="middle" x="178.5248" y="-158.0146" font-family="Times,serif" font-size="14.00" fill="#000000">BB_003098E2</text>
</g>
<!-- BB_003098DD&#45;&gt;BB_003098E2 -->
<g id="edge8" class="edge">
<title>BB_003098DD-&gt;BB_003098E2</title>
<path fill="none" stroke="#ff0000" d="M164.3193,-216.046C166.3736,-208.2609 168.8208,-198.9875 171.1003,-190.3493"/>
<polygon fill="#ff0000" stroke="#ff0000" points="174.4982,-191.1899 173.6657,-180.6279 167.7299,-189.4038 174.4982,-191.1899"/>
</g>
<!-- BB_003098E2&#45;&gt;BB_003098E7 -->
<g id="edge10" class="edge">
<title>BB_003098E2-&gt;BB_003098E7</title>
<path fill="none" stroke="#0000ff" d="M166.6596,-144.4168C161.0634,-136.0225 154.2726,-125.8364 148.0953,-116.5704"/>
<polygon fill="#0000ff" stroke="#0000ff" points="150.879,-114.4362 142.4198,-108.0571 145.0547,-118.3191 150.879,-114.4362"/>
</g>
</g>
</svg>