<?xml version="1.0" encoding="UTF-8" standalone="no"?><!DOCTYPE svg PUBLIC "-//W3C//DTD SVG 1.1//EN" "http://www.w3.org/Graphics/SVG/1.1/DTD/svg11.dtd"><!-- Generated by graphviz version 2.40.1 (20161225.0304)
 --><!-- Title: G Pages: 1 --><svg xmlns="http://www.w3.org/2000/svg" xmlns:xlink="http://www.w3.org/1999/xlink" width="147pt" height="188pt" viewBox="0.00 0.00 147.03 188.21">
<g id="graph0" class="graph" transform="scale(1 1) rotate(0) translate(4 184.2146)">
<title>G</title>
<polygon fill="#ffffff" stroke="transparent" points="-4,4 -4,-184.2146 143.0321,-184.2146 143.0321,4 -4,4"/>
<!-- start -->
<g id="node1" class="node">
<title>start</title>
<polygon fill="none" stroke="#000000" points="69.5161,-180.2146 30.2788,-162.2146 69.5161,-144.2146 108.7534,-162.2146 69.5161,-180.2146"/>
<polyline fill="none" stroke="#000000" points="41.1858,-167.2182 41.1858,-157.211 "/>
<polyline fill="none" stroke="#000000" points="58.609,-149.2182 80.4231,-149.2182 "/>
<polyline fill="none" stroke="#000000" points="97.8463,-157.211 97.8463,-167.2182 "/>
<polyline fill="none" stroke="#000000" points="80.4231,-175.211 58.609,-175.211 "/>
<text text-anchor="middle" x="69.5161" y="-158.0146" font-family="Times,serif" font-size="14.00" fill="#000000">start</text>
</g>
<!-- BB_00406D90 -->
<g id="node2" class="node">
<title>BB_00406D90</title>
<ellipse fill="none" stroke="#000000" cx="69.5161" cy="-90.2146" rx="69.5321" ry="18"/>
<text text-anchor="middle" x="69.5161" y="-86.0146" font-family="Times,serif" font-size="14.00" fill="#000000">BB_00406D90</text>
</g>
<!-- start&#45;&gt;BB_00406D90 -->
<g id="edge1" class="edge">
<title>start-&gt;BB_00406D90</title>
<path fill="none" stroke="#000000" d="M69.5161,-144.046C69.5161,-136.3456 69.5161,-127.1889 69.5161,-118.6312"/>
<polygon fill="#000000" stroke="#000000" points="73.0162,-118.6278 69.5161,-108.6279 66.0162,-118.6279 73.0162,-118.6278"/>
</g>
<!-- end -->
<g id="node3" class="node">
<title>end</title>
<polygon fill="none" stroke="#000000" points="87.7313,-36.3225 51.3008,-36.3225 51.3008,.1079 87.7313,.1079 87.7313,-36.3225"/>
<polyline fill="none" stroke="#000000" points="63.3008,-36.3225 51.3008,-24.3225 "/>
<polyline fill="none" stroke="#000000" points="51.3008,-11.8921 63.3008,.1079 "/>
<polyline fill="none" stroke="#000000" points="75.7313,.1079 87.7313,-11.8921 "/>
<polyline fill="none" stroke="#000000" points="87.7313,-24.3225 75.7313,-36.3225 "/>
<text text-anchor="middle" x="69.5161" y="-13.9073" font-family="Times,serif" font-size="14.00" fill="#000000">end</text>
</g>
<!-- BB_00406D90&#45;&gt;end -->
<g id="edge2" class="edge">
<title>BB_00406D90-&gt;end</title>
<path fill="none" stroke="#000000" d="M69.5161,-72.0189C69.5161,-64.2477 69.5161,-54.9956 69.5161,-46.3686"/>
<polygon fill="#000000" stroke="#000000" points="73.0162,-46.2972 69.5161,-36.2972 66.0162,-46.2972 73.0162,-46.2972"/>
</g>
</g>
</svg>