<?xml version="1.0" encoding="UTF-8" standalone="no"?><!DOCTYPE svg PUBLIC "-//W3C//DTD SVG 1.1//EN" "http://www.w3.org/Graphics/SVG/1.1/DTD/svg11.dtd"><!-- Generated by graphviz version 2.40.1 (20161225.0304)
 --><!-- Title: G Pages: 1 --><svg xmlns="http://www.w3.org/2000/svg" xmlns:xlink="http://www.w3.org/1999/xlink" width="469pt" height="1628pt" viewBox="0.00 0.00 468.89 1628.21">
<g id="graph0" class="graph" transform="scale(1 1) rotate(0) translate(4 1624.2146)">
<title>G</title>
<polygon fill="#ffffff" stroke="transparent" points="-4,4 -4,-1624.2146 464.8883,-1624.2146 464.8883,4 -4,4"/>
<!-- start -->
<g id="node1" class="node">
<title>start</title>
<polygon fill="none" stroke="#000000" points="117.4441,-1620.2146 78.2068,-1602.2146 117.4441,-1584.2146 156.6815,-1602.2146 117.4441,-1620.2146"/>
<polyline fill="none" stroke="#000000" points="89.1139,-1607.2182 89.1139,-1597.211 "/>
<polyline fill="none" stroke="#000000" points="106.5371,-1589.2182 128.3512,-1589.2182 "/>
<polyline fill="none" stroke="#000000" points="145.7744,-1597.211 145.7744,-1607.2182 "/>
<polyline fill="none" stroke="#000000" points="128.3512,-1615.211 106.5371,-1615.211 "/>
<text text-anchor="middle" x="117.4441" y="-1598.0146" font-family="Times,serif" font-size="14.00" fill="#000000">start</text>
</g>
<!-- BB_002E8310 -->
<g id="node2" class="node">
<title>BB_002E8310</title>
<ellipse fill="none" stroke="#000000" cx="117.4441" cy="-1530.2146" rx="68.3883" ry="18"/>
<text text-anchor="middle" x="117.4441" y="-1526.0146" font-family="Times,serif" font-size="14.00" fill="#000000">BB_002E8310</text>
</g>
<!-- start&#45;&gt;BB_002E8310 -->
<g id="edge1" class="edge">
<title>start-&gt;BB_002E8310</title>
<path fill="none" stroke="#000000" d="M117.4441,-1584.046C117.4441,-1576.3456 117.4441,-1567.1889 117.4441,-1558.6312"/>
<polygon fill="#000000" stroke="#000000" points="120.9442,-1558.6278 117.4441,-1548.6279 113.9442,-1558.6279 120.9442,-1558.6278"/>
</g>
<!-- BB_002E834D -->
<g id="node3" class="node">
<title>BB_002E834D</title>
<ellipse fill="none" stroke="#000000" cx="167.4441" cy="-1458.2146" rx="70.6742" ry="18"/>
<text text-anchor="middle" x="167.4441" y="-1454.0146" font-family="Times,serif" font-size="14.00" fill="#000000">BB_002E834D</text>
</g>
<!-- BB_002E8310&#45;&gt;BB_002E834D -->
<g id="edge2" class="edge">
<title>BB_002E8310-&gt;BB_002E834D</title>
<path fill="none" stroke="#ff0000" d="M129.8037,-1512.4168C135.6932,-1503.936 142.8528,-1493.6261 149.3403,-1484.2842"/>
<polygon fill="#ff0000" stroke="#ff0000" points="152.2243,-1486.2673 155.0535,-1476.0571 146.4747,-1482.2745 152.2243,-1486.2673"/>
</g>
<!-- BB_002E8365 -->
<g id="node4" class="node">
<title>BB_002E8365</title>
<ellipse fill="none" stroke="#000000" cx="68.4441" cy="-1242.2146" rx="68.3883" ry="18"/>
<text text-anchor="middle" x="68.4441" y="-1238.0146" font-family="Times,serif" font-size="14.00" fill="#000000">BB_002E8365</text>
</g>
<!-- BB_002E8310&#45;&gt;BB_002E8365 -->
<g id="edge3" class="edge">
<title>BB_002E8310-&gt;BB_002E8365</title>
<path fill="none" stroke="#00ff00" d="M104.8156,-1512.1011C98.4576,-1502.0095 91.2986,-1488.9423 87.4441,-1476.2146 65.7261,-1404.4995 65.4023,-1315.1092 66.9453,-1270.4145"/>
<polygon fill="#00ff00" stroke="#00ff00" points="70.4471,-1270.4387 67.3541,-1260.3054 63.4528,-1270.1558 70.4471,-1270.4387"/>
</g>
<!-- BB_002E8355 -->
<g id="node5" class="node">
<title>BB_002E8355</title>
<ellipse fill="none" stroke="#000000" cx="232.4441" cy="-1386.2146" rx="68.3883" ry="18"/>
<text text-anchor="middle" x="232.4441" y="-1382.0146" font-family="Times,serif" font-size="14.00" fill="#000000">BB_002E8355</text>
</g>
<!-- BB_002E834D&#45;&gt;BB_002E8355 -->
<g id="edge4" class="edge">
<title>BB_002E834D-&gt;BB_002E8355</title>
<path fill="none" stroke="#ff0000" d="M183.5116,-1440.4168C191.3829,-1431.6978 200.9994,-1421.0457 209.6175,-1411.4995"/>
<polygon fill="#ff0000" stroke="#ff0000" points="212.4584,-1413.5757 216.5616,-1403.8076 207.2625,-1408.885 212.4584,-1413.5757"/>
</g>
<!-- BB_002E8357 -->
<g id="node6" class="node">
<title>BB_002E8357</title>
<ellipse fill="none" stroke="#000000" cx="183.4441" cy="-1314.2146" rx="68.3883" ry="18"/>
<text text-anchor="middle" x="183.4441" y="-1310.0146" font-family="Times,serif" font-size="14.00" fill="#000000">BB_002E8357</text>
</g>
<!-- BB_002E834D&#45;&gt;BB_002E8357 -->
<g id="edge5" class="edge">
<title>BB_002E834D-&gt;BB_002E8357</title>
<path fill="none" stroke="#00ff00" d="M161.1266,-1440.0754C155.6504,-1421.7483 149.4692,-1392.7179 155.4441,-1368.2146 157.6981,-1358.9712 161.8335,-1349.5458 166.2469,-1341.2112"/>
<polygon fill="#00ff00" stroke="#00ff00" points="169.3913,-1342.7609 171.2624,-1332.3326 163.2965,-1339.3179 169.3913,-1342.7609"/>
</g>
<!-- BB_002E8367 -->
<g id="node8" class="node">
<title>BB_002E8367</title>
<ellipse fill="none" stroke="#000000" cx="146.4441" cy="-1170.2146" rx="68.3883" ry="18"/>
<text text-anchor="middle" x="146.4441" y="-1166.0146" font-family="Times,serif" font-size="14.00" fill="#000000">BB_002E8367</text>
</g>
<!-- BB_002E8365&#45;&gt;BB_002E8367 -->
<g id="edge10" class="edge">
<title>BB_002E8365-&gt;BB_002E8367</title>
<path fill="none" stroke="#0000ff" d="M87.3258,-1224.7854C97.1215,-1215.7432 109.2492,-1204.5484 119.9657,-1194.6563"/>
<polygon fill="#0000ff" stroke="#0000ff" points="122.492,-1197.0875 127.4661,-1187.7328 117.744,-1191.9438 122.492,-1197.0875"/>
</g>
<!-- BB_002E8355&#45;&gt;BB_002E8357 -->
<g id="edge6" class="edge">
<title>BB_002E8355-&gt;BB_002E8357</title>
<path fill="none" stroke="#0000ff" d="M220.3318,-1368.4168C214.619,-1360.0225 207.6867,-1349.8364 201.3808,-1340.5704"/>
<polygon fill="#0000ff" stroke="#0000ff" points="204.1068,-1338.3551 195.587,-1332.0571 198.3198,-1342.2935 204.1068,-1338.3551"/>
</g>
<!-- BB_002E8357&#45;&gt;BB_002E8365 -->
<g id="edge8" class="edge">
<title>BB_002E8357-&gt;BB_002E8365</title>
<path fill="none" stroke="#00ff00" d="M156.7718,-1297.5154C140.951,-1287.6102 120.7096,-1274.9373 103.5961,-1264.2228"/>
<polygon fill="#00ff00" stroke="#00ff00" points="105.3051,-1261.1634 94.9719,-1258.8233 101.5904,-1267.0965 105.3051,-1261.1634"/>
</g>
<!-- BB_002E835E -->
<g id="node7" class="node">
<title>BB_002E835E</title>
<ellipse fill="none" stroke="#000000" cx="224.4441" cy="-1242.2146" rx="69.5302" ry="18"/>
<text text-anchor="middle" x="224.4441" y="-1238.0146" font-family="Times,serif" font-size="14.00" fill="#000000">BB_002E835E</text>
</g>
<!-- BB_002E8357&#45;&gt;BB_002E835E -->
<g id="edge7" class="edge">
<title>BB_002E8357-&gt;BB_002E835E</title>
<path fill="none" stroke="#ff0000" d="M193.7902,-1296.046C198.4383,-1287.8834 204.0182,-1278.0846 209.1359,-1269.0973"/>
<polygon fill="#ff0000" stroke="#ff0000" points="212.3365,-1270.5498 214.2435,-1260.128 206.2536,-1267.0859 212.3365,-1270.5498"/>
</g>
<!-- BB_002E835E&#45;&gt;BB_002E8367 -->
<g id="edge9" class="edge">
<title>BB_002E835E-&gt;BB_002E8367</title>
<path fill="none" stroke="#0000ff" d="M205.5625,-1224.7854C195.7668,-1215.7432 183.6391,-1204.5484 172.9226,-1194.6563"/>
<polygon fill="#0000ff" stroke="#0000ff" points="175.1443,-1191.9438 165.4222,-1187.7328 170.3963,-1197.0875 175.1443,-1191.9438"/>
</g>
<!-- BB_002E837E -->
<g id="node9" class="node">
<title>BB_002E837E</title>
<ellipse fill="none" stroke="#000000" cx="217.4441" cy="-1098.2146" rx="69.5302" ry="18"/>
<text text-anchor="middle" x="217.4441" y="-1094.0146" font-family="Times,serif" font-size="14.00" fill="#000000">BB_002E837E</text>
</g>
<!-- BB_002E8367&#45;&gt;BB_002E837E -->
<g id="edge11" class="edge">
<title>BB_002E8367-&gt;BB_002E837E</title>
<path fill="none" stroke="#ff0000" d="M163.6313,-1152.7854C172.4613,-1143.831 183.373,-1132.7656 193.0575,-1122.9448"/>
<polygon fill="#ff0000" stroke="#ff0000" points="195.6399,-1125.3107 200.1692,-1115.7328 190.6556,-1120.3957 195.6399,-1125.3107"/>
</g>
<!-- BB_002E8477 -->
<g id="node10" class="node">
<title>BB_002E8477</title>
<ellipse fill="none" stroke="#000000" cx="192.4441" cy="-162.2146" rx="68.3883" ry="18"/>
<text text-anchor="middle" x="192.4441" y="-158.0146" font-family="Times,serif" font-size="14.00" fill="#000000">BB_002E8477</text>
</g>
<!-- BB_002E8367&#45;&gt;BB_002E8477 -->
<g id="edge12" class="edge">
<title>BB_002E8367-&gt;BB_002E8477</title>
<path fill="none" stroke="#00ff00" d="M136.0525,-1152.2441C121.669,-1125.6293 97.4441,-1073.7485 97.4441,-1026.2146 97.4441,-1026.2146 97.4441,-1026.2146 97.4441,-306.2146 97.4441,-265.333 94.0213,-250.3983 116.4441,-216.2146 125.0278,-203.1289 137.9687,-192.2248 150.7511,-183.7211"/>
<polygon fill="#00ff00" stroke="#00ff00" points="152.9087,-186.4993 159.5197,-178.2201 149.1886,-180.5696 152.9087,-186.4993"/>
</g>
<!-- BB_002E83C7 -->
<g id="node11" class="node">
<title>BB_002E83C7</title>
<ellipse fill="none" stroke="#000000" cx="217.4441" cy="-1026.2146" rx="70.1118" ry="18"/>
<text text-anchor="middle" x="217.4441" y="-1022.0146" font-family="Times,serif" font-size="14.00" fill="#000000">BB_002E83C7</text>
</g>
<!-- BB_002E837E&#45;&gt;BB_002E83C7 -->
<g id="edge13" class="edge">
<title>BB_002E837E-&gt;BB_002E83C7</title>
<path fill="none" stroke="#ff0000" d="M217.4441,-1080.046C217.4441,-1072.3456 217.4441,-1063.1889 217.4441,-1054.6312"/>
<polygon fill="#ff0000" stroke="#ff0000" points="220.9442,-1054.6278 217.4441,-1044.6279 213.9442,-1054.6279 220.9442,-1054.6278"/>
</g>
<!-- BB_002E8499 -->
<g id="node12" class="node">
<title>BB_002E8499</title>
<ellipse fill="none" stroke="#000000" cx="392.4441" cy="-522.2146" rx="68.3883" ry="18"/>
<text text-anchor="middle" x="392.4441" y="-518.0146" font-family="Times,serif" font-size="14.00" fill="#000000">BB_002E8499</text>
</g>
<!-- BB_002E837E&#45;&gt;BB_002E8499 -->
<g id="edge14" class="edge">
<title>BB_002E837E-&gt;BB_002E8499</title>
<path fill="none" stroke="#00ff00" d="M273.2118,-1087.3186C338.6812,-1070.9087 438.4441,-1032.9806 438.4441,-954.2146 438.4441,-954.2146 438.4441,-954.2146 438.4441,-666.2146 438.4441,-623.9567 420.2466,-577.8901 406.7427,-549.5231"/>
<polygon fill="#00ff00" stroke="#00ff00" points="409.7464,-547.6989 402.1996,-540.2628 403.4619,-550.7821 409.7464,-547.6989"/>
</g>
<!-- BB_002E8479 -->
<g id="node25" class="node">
<title>BB_002E8479</title>
<ellipse fill="none" stroke="#000000" cx="270.4441" cy="-90.2146" rx="68.3883" ry="18"/>
<text text-anchor="middle" x="270.4441" y="-86.0146" font-family="Times,serif" font-size="14.00" fill="#000000">BB_002E8479</text>
</g>
<!-- BB_002E8477&#45;&gt;BB_002E8479 -->
<g id="edge37" class="edge">
<title>BB_002E8477-&gt;BB_002E8479</title>
<path fill="none" stroke="#0000ff" d="M211.3258,-144.7854C221.1215,-135.7432 233.2492,-124.5484 243.9657,-114.6563"/>
<polygon fill="#0000ff" stroke="#0000ff" points="246.492,-117.0875 251.4661,-107.7328 241.744,-111.9438 246.492,-117.0875"/>
</g>
<!-- BB_002E83DC -->
<g id="node13" class="node">
<title>BB_002E83DC</title>
<ellipse fill="none" stroke="#000000" cx="303.4441" cy="-954.2146" rx="72.3981" ry="18"/>
<text text-anchor="middle" x="303.4441" y="-950.0146" font-family="Times,serif" font-size="14.00" fill="#000000">BB_002E83DC</text>
</g>
<!-- BB_002E83C7&#45;&gt;BB_002E83DC -->
<g id="edge15" class="edge">
<title>BB_002E83C7-&gt;BB_002E83DC</title>
<path fill="none" stroke="#ff0000" d="M238.2623,-1008.7854C249.2484,-999.5878 262.8947,-988.163 274.8578,-978.1474"/>
<polygon fill="#ff0000" stroke="#ff0000" points="277.3969,-980.5863 282.8177,-971.4833 272.9033,-975.219 277.3969,-980.5863"/>
</g>
<!-- BB_002E83F1 -->
<g id="node14" class="node">
<title>BB_002E83F1</title>
<ellipse fill="none" stroke="#000000" cx="283.4441" cy="-738.2146" rx="68.9679" ry="18"/>
<text text-anchor="middle" x="283.4441" y="-734.0146" font-family="Times,serif" font-size="14.00" fill="#000000">BB_002E83F1</text>
</g>
<!-- BB_002E83C7&#45;&gt;BB_002E83F1 -->
<g id="edge16" class="edge">
<title>BB_002E83C7-&gt;BB_002E83F1</title>
<path fill="none" stroke="#00ff00" d="M213.2968,-1008.1183C204.9003,-967.3315 189.4287,-866.031 223.4441,-792.2146 228.9977,-780.1629 238.6514,-769.6389 248.6124,-761.1612"/>
<polygon fill="#00ff00" stroke="#00ff00" points="250.9479,-763.7757 256.5944,-754.8109 246.5898,-758.2978 250.9479,-763.7757"/>
</g>
<!-- BB_002E849B -->
<g id="node27" class="node">
<title>BB_002E849B</title>
<ellipse fill="none" stroke="#000000" cx="349.4441" cy="-162.2146" rx="70.1118" ry="18"/>
<text text-anchor="middle" x="349.4441" y="-158.0146" font-family="Times,serif" font-size="14.00" fill="#000000">BB_002E849B</text>
</g>
<!-- BB_002E8499&#45;&gt;BB_002E849B -->
<g id="edge40" class="edge">
<title>BB_002E8499-&gt;BB_002E849B</title>
<path fill="none" stroke="#0000ff" d="M403.472,-504.3261C418.7361,-477.8135 444.4441,-426.0587 444.4441,-378.2146 444.4441,-378.2146 444.4441,-378.2146 444.4441,-306.2146 444.4441,-265.333 447.867,-250.3983 425.4441,-216.2146 416.8605,-203.1289 403.9196,-192.2248 391.1372,-183.7211"/>
<polygon fill="#0000ff" stroke="#0000ff" points="392.6997,-180.5696 382.3686,-178.2201 388.9796,-186.4993 392.6997,-180.5696"/>
</g>
<!-- BB_002E83E0 -->
<g id="node15" class="node">
<title>BB_002E83E0</title>
<ellipse fill="none" stroke="#000000" cx="302.4441" cy="-882.2146" rx="69.5302" ry="18"/>
<text text-anchor="middle" x="302.4441" y="-878.0146" font-family="Times,serif" font-size="14.00" fill="#000000">BB_002E83E0</text>
</g>
<!-- BB_002E83DC&#45;&gt;BB_002E83E0 -->
<g id="edge17" class="edge">
<title>BB_002E83DC-&gt;BB_002E83E0</title>
<path fill="none" stroke="#0000ff" d="M303.1918,-936.046C303.0849,-928.3456 302.9577,-919.1889 302.8388,-910.6312"/>
<polygon fill="#0000ff" stroke="#0000ff" points="306.3385,-910.5783 302.6999,-900.6279 299.3392,-910.6755 306.3385,-910.5783"/>
</g>
<!-- BB_002E83F1&#45;&gt;BB_002E8499 -->
<g id="edge23" class="edge">
<title>BB_002E83F1-&gt;BB_002E8499</title>
<path fill="none" stroke="#00ff00" d="M308.0175,-721.1804C320.2213,-711.5876 334.2777,-698.647 343.4441,-684.2146 370.1684,-642.1378 382.9912,-584.6892 388.6014,-550.718"/>
<polygon fill="#00ff00" stroke="#00ff00" points="392.1024,-550.9811 390.1779,-540.5626 385.1852,-549.9073 392.1024,-550.9811"/>
</g>
<!-- BB_002E83FE -->
<g id="node17" class="node">
<title>BB_002E83FE</title>
<ellipse fill="none" stroke="#000000" cx="264.4441" cy="-666.2146" rx="70.1099" ry="18"/>
<text text-anchor="middle" x="264.4441" y="-662.0146" font-family="Times,serif" font-size="14.00" fill="#000000">BB_002E83FE</text>
</g>
<!-- BB_002E83F1&#45;&gt;BB_002E83FE -->
<g id="edge22" class="edge">
<title>BB_002E83F1-&gt;BB_002E83FE</title>
<path fill="none" stroke="#ff0000" d="M278.6496,-720.046C276.5953,-712.2609 274.1481,-702.9875 271.8686,-694.3493"/>
<polygon fill="#ff0000" stroke="#ff0000" points="275.239,-693.4038 269.3032,-684.6279 268.4707,-695.1899 275.239,-693.4038"/>
</g>
<!-- BB_002E83E0&#45;&gt;BB_002E8499 -->
<g id="edge19" class="edge">
<title>BB_002E83E0-&gt;BB_002E8499</title>
<path fill="none" stroke="#00ff00" d="M336.6584,-866.4893C352.6079,-857.4698 370.4511,-844.6462 381.4441,-828.2146 404.1765,-794.2359 400.4441,-779.0962 400.4441,-738.2146 400.4441,-738.2146 400.4441,-738.2146 400.4441,-666.2146 400.4441,-626.0287 397.2997,-579.6316 394.9536,-550.6064"/>
<polygon fill="#00ff00" stroke="#00ff00" points="398.42,-550.0568 394.1018,-540.382 391.4442,-550.6381 398.42,-550.0568"/>
</g>
<!-- BB_002E83E8 -->
<g id="node16" class="node">
<title>BB_002E83E8</title>
<ellipse fill="none" stroke="#000000" cx="302.4441" cy="-810.2146" rx="69.5302" ry="18"/>
<text text-anchor="middle" x="302.4441" y="-806.0146" font-family="Times,serif" font-size="14.00" fill="#000000">BB_002E83E8</text>
</g>
<!-- BB_002E83E0&#45;&gt;BB_002E83E8 -->
<g id="edge18" class="edge">
<title>BB_002E83E0-&gt;BB_002E83E8</title>
<path fill="none" stroke="#ff0000" d="M296.4918,-864.046C295.7413,-856.3456 295.5204,-847.1889 295.8291,-838.6312"/>
<polygon fill="#ff0000" stroke="#ff0000" points="299.3234,-838.8307 296.4681,-828.6279 292.3376,-838.3843 299.3234,-838.8307"/>
</g>
<!-- BB_002E83E8&#45;&gt;BB_002E83F1 -->
<g id="edge20" class="edge">
<title>BB_002E83E8-&gt;BB_002E83F1</title>
<path fill="none" stroke="#ff0000" d="M297.6496,-792.046C295.5953,-784.2609 293.1481,-774.9875 290.8686,-766.3493"/>
<polygon fill="#ff0000" stroke="#ff0000" points="294.239,-765.4038 288.3032,-756.6279 287.4707,-767.1899 294.239,-765.4038"/>
</g>
<!-- BB_002E83E8&#45;&gt;BB_002E83E0 -->
<g id="edge21" class="edge">
<title>BB_002E83E8-&gt;BB_002E83E0</title>
<path fill="none" stroke="#00ff00" d="M308.4202,-828.6279C309.1513,-836.2739 309.3644,-845.323 309.0596,-853.7872"/>
<polygon fill="#00ff00" stroke="#00ff00" points="305.5489,-853.841 308.3965,-864.046 312.5344,-854.2926 305.5489,-853.841"/>
</g>
<!-- BB_002E83FE&#45;&gt;BB_002E8499 -->
<g id="edge25" class="edge">
<title>BB_002E83FE-&gt;BB_002E8499</title>
<path fill="none" stroke="#00ff00" d="M280.1395,-648.5574C302.5949,-623.295 344.0183,-576.6937 369.7941,-547.6959"/>
<polygon fill="#00ff00" stroke="#00ff00" points="372.5927,-549.8157 376.6205,-540.0163 367.3608,-545.1651 372.5927,-549.8157"/>
</g>
<!-- BB_002E8406 -->
<g id="node18" class="node">
<title>BB_002E8406</title>
<ellipse fill="none" stroke="#000000" cx="228.4441" cy="-594.2146" rx="68.3883" ry="18"/>
<text text-anchor="middle" x="228.4441" y="-590.0146" font-family="Times,serif" font-size="14.00" fill="#000000">BB_002E8406</text>
</g>
<!-- BB_002E83FE&#45;&gt;BB_002E8406 -->
<g id="edge24" class="edge">
<title>BB_002E83FE-&gt;BB_002E8406</title>
<path fill="none" stroke="#ff0000" d="M255.3598,-648.046C251.2785,-639.8834 246.3791,-630.0846 241.8855,-621.0973"/>
<polygon fill="#ff0000" stroke="#ff0000" points="245.0035,-619.507 237.4009,-612.128 238.7425,-622.6376 245.0035,-619.507"/>
</g>
<!-- BB_002E8406&#45;&gt;BB_002E8499 -->
<g id="edge27" class="edge">
<title>BB_002E8406-&gt;BB_002E8499</title>
<path fill="none" stroke="#00ff00" d="M263.6263,-578.7688C288.1867,-567.9861 321.1743,-553.5038 347.6187,-541.8941"/>
<polygon fill="#00ff00" stroke="#00ff00" points="349.2882,-544.9836 357.0376,-537.7589 346.4742,-538.5741 349.2882,-544.9836"/>
</g>
<!-- BB_002E8411 -->
<g id="node19" class="node">
<title>BB_002E8411</title>
<ellipse fill="none" stroke="#000000" cx="228.4441" cy="-522.2146" rx="68.3883" ry="18"/>
<text text-anchor="middle" x="228.4441" y="-518.0146" font-family="Times,serif" font-size="14.00" fill="#000000">BB_002E8411</text>
</g>
<!-- BB_002E8406&#45;&gt;BB_002E8411 -->
<g id="edge26" class="edge">
<title>BB_002E8406-&gt;BB_002E8411</title>
<path fill="none" stroke="#ff0000" d="M228.4441,-576.046C228.4441,-568.3456 228.4441,-559.1889 228.4441,-550.6312"/>
<polygon fill="#ff0000" stroke="#ff0000" points="231.9442,-550.6278 228.4441,-540.6279 224.9442,-550.6279 231.9442,-550.6278"/>
</g>
<!-- BB_002E8432 -->
<g id="node20" class="node">
<title>BB_002E8432</title>
<ellipse fill="none" stroke="#000000" cx="251.4441" cy="-450.2146" rx="68.3883" ry="18"/>
<text text-anchor="middle" x="251.4441" y="-446.0146" font-family="Times,serif" font-size="14.00" fill="#000000">BB_002E8432</text>
</g>
<!-- BB_002E8411&#45;&gt;BB_002E8432 -->
<g id="edge28" class="edge">
<title>BB_002E8411-&gt;BB_002E8432</title>
<path fill="none" stroke="#ff0000" d="M234.248,-504.046C236.7349,-496.2609 239.6972,-486.9875 242.4567,-478.3493"/>
<polygon fill="#ff0000" stroke="#ff0000" points="245.8531,-479.2187 245.5621,-468.6279 239.1851,-477.0886 245.8531,-479.2187"/>
</g>
<!-- BB_002E8495 -->
<g id="node21" class="node">
<title>BB_002E8495</title>
<ellipse fill="none" stroke="#000000" cx="193.4441" cy="-234.2146" rx="68.3883" ry="18"/>
<text text-anchor="middle" x="193.4441" y="-230.0146" font-family="Times,serif" font-size="14.00" fill="#000000">BB_002E8495</text>
</g>
<!-- BB_002E8411&#45;&gt;BB_002E8495 -->
<g id="edge29" class="edge">
<title>BB_002E8411-&gt;BB_002E8495</title>
<path fill="none" stroke="#00ff00" d="M204.0712,-505.1318C192.7784,-495.6973 180.5326,-482.9134 174.4441,-468.2146 145.5755,-398.5195 168.3811,-307.2888 183.2317,-262.0918"/>
<polygon fill="#00ff00" stroke="#00ff00" points="186.6216,-262.9943 186.529,-252.3999 179.9946,-260.7397 186.6216,-262.9943"/>
</g>
<!-- BB_002E8432&#45;&gt;BB_002E8495 -->
<g id="edge31" class="edge">
<title>BB_002E8432-&gt;BB_002E8495</title>
<path fill="none" stroke="#00ff00" d="M235.1783,-432.6083C226.9573,-422.6653 217.6446,-409.5782 212.4441,-396.2146 195.1903,-351.8774 192.3998,-295.9614 192.5199,-262.7607"/>
<polygon fill="#00ff00" stroke="#00ff00" points="196.024,-262.4668 192.6556,-252.4217 189.0246,-262.3749 196.024,-262.4668"/>
</g>
<!-- BB_002E8444 -->
<g id="node22" class="node">
<title>BB_002E8444</title>
<ellipse fill="none" stroke="#000000" cx="289.4441" cy="-378.2146" rx="68.3883" ry="18"/>
<text text-anchor="middle" x="289.4441" y="-374.0146" font-family="Times,serif" font-size="14.00" fill="#000000">BB_002E8444</text>
</g>
<!-- BB_002E8432&#45;&gt;BB_002E8444 -->
<g id="edge30" class="edge">
<title>BB_002E8432-&gt;BB_002E8444</title>
<path fill="none" stroke="#ff0000" d="M261.0332,-432.046C265.3412,-423.8834 270.5128,-414.0846 275.256,-405.0973"/>
<polygon fill="#ff0000" stroke="#ff0000" points="278.4176,-406.6055 279.9898,-396.128 272.2269,-403.3382 278.4176,-406.6055"/>
</g>
<!-- BB_002E8495&#45;&gt;BB_002E849B -->
<g id="edge39" class="edge">
<title>BB_002E8495-&gt;BB_002E849B</title>
<path fill="none" stroke="#0000ff" d="M227.679,-218.4139C250.7426,-207.7692 281.3541,-193.6408 306.1141,-182.2131"/>
<polygon fill="#0000ff" stroke="#0000ff" points="307.6763,-185.3469 315.2891,-177.9784 304.7428,-178.9912 307.6763,-185.3469"/>
</g>
<!-- BB_002E8444&#45;&gt;BB_002E8495 -->
<g id="edge33" class="edge">
<title>BB_002E8444-&gt;BB_002E8495</title>
<path fill="none" stroke="#00ff00" d="M276.1671,-360.4084C268.4914,-349.973 258.7414,-336.473 250.4441,-324.2146 236.2307,-303.2156 220.8928,-278.8952 209.7115,-260.8339"/>
<polygon fill="#00ff00" stroke="#00ff00" points="212.4988,-258.6855 204.2713,-252.0102 206.5403,-262.3593 212.4988,-258.6855"/>
</g>
<!-- BB_002E8456 -->
<g id="node23" class="node">
<title>BB_002E8456</title>
<ellipse fill="none" stroke="#000000" cx="327.4441" cy="-306.2146" rx="68.3883" ry="18"/>
<text text-anchor="middle" x="327.4441" y="-302.0146" font-family="Times,serif" font-size="14.00" fill="#000000">BB_002E8456</text>
</g>
<!-- BB_002E8444&#45;&gt;BB_002E8456 -->
<g id="edge32" class="edge">
<title>BB_002E8444-&gt;BB_002E8456</title>
<path fill="none" stroke="#ff0000" d="M299.0332,-360.046C303.3412,-351.8834 308.5128,-342.0846 313.256,-333.0973"/>
<polygon fill="#ff0000" stroke="#ff0000" points="316.4176,-334.6055 317.9898,-324.128 310.2269,-331.3382 316.4176,-334.6055"/>
</g>
<!-- BB_002E8456&#45;&gt;BB_002E8495 -->
<g id="edge35" class="edge">
<title>BB_002E8456-&gt;BB_002E8495</title>
<path fill="none" stroke="#00ff00" d="M297.0375,-289.8767C277.9345,-279.6124 253.1063,-266.2719 232.5456,-255.2243"/>
<polygon fill="#00ff00" stroke="#00ff00" points="234.1961,-252.1379 223.7305,-250.4879 230.8828,-258.3042 234.1961,-252.1379"/>
</g>
<!-- BB_002E8468 -->
<g id="node24" class="node">
<title>BB_002E8468</title>
<ellipse fill="none" stroke="#000000" cx="348.4441" cy="-234.2146" rx="68.3883" ry="18"/>
<text text-anchor="middle" x="348.4441" y="-230.0146" font-family="Times,serif" font-size="14.00" fill="#000000">BB_002E8468</text>
</g>
<!-- BB_002E8456&#45;&gt;BB_002E8468 -->
<g id="edge34" class="edge">
<title>BB_002E8456-&gt;BB_002E8468</title>
<path fill="none" stroke="#ff0000" d="M332.7433,-288.046C335.014,-280.2609 337.7187,-270.9875 340.2382,-262.3493"/>
<polygon fill="#ff0000" stroke="#ff0000" points="343.6335,-263.2079 343.0736,-252.6279 336.9135,-261.2478 343.6335,-263.2079"/>
</g>
<!-- BB_002E8468&#45;&gt;BB_002E8477 -->
<g id="edge36" class="edge">
<title>BB_002E8468-&gt;BB_002E8477</title>
<path fill="none" stroke="#0000ff" d="M314.2093,-218.4139C291.0662,-207.7325 260.3229,-193.5433 235.5183,-182.095"/>
<polygon fill="#0000ff" stroke="#0000ff" points="236.877,-178.8673 226.3306,-177.8545 233.9435,-185.223 236.877,-178.8673"/>
</g>
<!-- end -->
<g id="node26" class="node">
<title>end</title>
<polygon fill="none" stroke="#000000" points="288.6594,-36.3225 252.2289,-36.3225 252.2289,.1079 288.6594,.1079 288.6594,-36.3225"/>
<polyline fill="none" stroke="#000000" points="264.2289,-36.3225 252.2289,-24.3225 "/>
<polyline fill="none" stroke="#000000" points="252.2289,-11.8921 264.2289,.1079 "/>
<polyline fill="none" stroke="#000000" points="276.6594,.1079 288.6594,-11.8921 "/>
<polyline fill="none" stroke="#000000" points="288.6594,-24.3225 276.6594,-36.3225 "/>
<text text-anchor="middle" x="270.4441" y="-13.9073" font-family="Times,serif" font-size="14.00" fill="#000000">end</text>
</g>
<!-- BB_002E8479&#45;&gt;end -->
<g id="edge38" class="edge">
<title>BB_002E8479-&gt;end</title>
<path fill="none" stroke="#000000" d="M270.4441,-72.0189C270.4441,-64.2477 270.4441,-54.9956 270.4441,-46.3686"/>
<polygon fill="#000000" stroke="#000000" points="273.9442,-46.2972 270.4441,-36.2972 266.9442,-46.2972 273.9442,-46.2972"/>
</g>
<!-- BB_002E849B&#45;&gt;BB_002E8479 -->
<g id="edge41" class="edge">
<title>BB_002E849B-&gt;BB_002E8479</title>
<path fill="none" stroke="#0000ff" d="M330.3205,-144.7854C320.3991,-135.7432 308.116,-124.5484 297.2621,-114.6563"/>
<polygon fill="#0000ff" stroke="#0000ff" points="299.4141,-111.8821 289.6655,-107.7328 294.6989,-117.0557 299.4141,-111.8821"/>
</g>
</g>
</svg>