<?xml version="1.0" encoding="UTF-8" standalone="no"?><!DOCTYPE svg PUBLIC "-//W3C//DTD SVG 1.1//EN" "http://www.w3.org/Graphics/SVG/1.1/DTD/svg11.dtd"><!-- Generated by graphviz version 2.40.1 (20161225.0304)
 --><!-- Title: G Pages: 1 --><svg xmlns="http://www.w3.org/2000/svg" xmlns:xlink="http://www.w3.org/1999/xlink" width="152pt" height="294pt" viewBox="0.00 0.00 152.40 293.64">
<g id="graph0" class="graph" transform="scale(1 1) rotate(0) translate(4 289.6438)">
<title>G</title>
<polygon fill="#ffffff" stroke="transparent" points="-4,4 -4,-289.6438 148.3975,-289.6438 148.3975,4 -4,4"/>
<!-- start -->
<g id="node1" class="node">
<title>start</title>
<polygon fill="none" stroke="#000000" points="72.1988,-285.6438 32.9615,-267.6438 72.1988,-249.6438 111.4361,-267.6438 72.1988,-285.6438"/>
<polyline fill="none" stroke="#000000" points="43.8685,-272.6474 43.8685,-262.6402 "/>
<polyline fill="none" stroke="#000000" points="61.2917,-254.6474 83.1058,-254.6474 "/>
<polyline fill="none" stroke="#000000" points="100.529,-262.6402 100.529,-272.6474 "/>
<polyline fill="none" stroke="#000000" points="83.1058,-280.6402 61.2917,-280.6402 "/>
<text text-anchor="middle" x="72.1988" y="-263.4438" font-family="Times,serif" font-size="14.00" fill="#000000">start</text>
</g>
<!-- BB_002EDC60 -->
<g id="node2" class="node">
<title>BB_002EDC60</title>
<ellipse fill="none" stroke="#000000" cx="72.1988" cy="-195.6438" rx="72.3981" ry="18"/>
<text text-anchor="middle" x="72.1988" y="-191.4438" font-family="Times,serif" font-size="14.00" fill="#000000">BB_002EDC60</text>
</g>
<!-- start&#45;&gt;BB_002EDC60 -->
<g id="edge1" class="edge">
<title>start-&gt;BB_002EDC60</title>
<path fill="none" stroke="#000000" d="M72.1988,-249.4752C72.1988,-241.7748 72.1988,-232.6181 72.1988,-224.0604"/>
<polygon fill="#000000" stroke="#000000" points="75.6989,-224.057 72.1988,-214.0571 68.6989,-224.0571 75.6989,-224.057"/>
</g>
<!-- BB_003125E8 -->
<g id="node3" class="node">
<title>BB_003125E8</title>
<ellipse fill="none" stroke="#000000" cx="72.1988" cy="-123.6438" rx="68.3883" ry="18"/>
<text text-anchor="middle" x="72.1988" y="-119.4438" font-family="Times,serif" font-size="14.00" fill="#000000">BB_003125E8</text>
</g>
<!-- BB_002EDC60&#45;&gt;BB_003125E8 -->
<g id="edge2" class="edge">
<title>BB_002EDC60-&gt;BB_003125E8</title>
<path fill="none" stroke="#0000ff" d="M72.1988,-177.4752C72.1988,-169.7748 72.1988,-160.6181 72.1988,-152.0604"/>
<polygon fill="#0000ff" stroke="#0000ff" points="75.6989,-152.057 72.1988,-142.0571 68.6989,-152.0571 75.6989,-152.057"/>
</g>
<!-- dead_end -->
<g id="node4" class="node">
<title>dead_end</title>
<polygon fill="none" stroke="#000000" points="106.8435,-69.4666 37.5541,-69.4666 37.5541,-.1772 106.8435,-.1772 106.8435,-69.4666"/>
<polyline fill="none" stroke="#000000" points="49.5541,-69.4666 37.5541,-57.4666 "/>
<polyline fill="none" stroke="#000000" points="37.5541,-12.1772 49.5541,-.1772 "/>
<polyline fill="none" stroke="#000000" points="94.8435,-.1772 106.8435,-12.1772 "/>
<polyline fill="none" stroke="#000000" points="106.8435,-57.4666 94.8435,-69.4666 "/>
<text text-anchor="middle" x="72.1988" y="-30.6219" font-family="Times,serif" font-size="14.00" fill="#000000">dead_end</text>
</g>
<!-- BB_003125E8&#45;&gt;dead_end -->
<g id="edge3" class="edge">
<title>BB_003125E8-&gt;dead_end</title>
<path fill="none" stroke="#000000" d="M72.1988,-105.2398C72.1988,-97.7822 72.1988,-88.8138 72.1988,-79.8137"/>
<polygon fill="#000000" stroke="#000000" points="75.6989,-79.7175 72.1988,-69.7175 68.6989,-79.7176 75.6989,-79.7175"/>
</g>
</g>
</svg>