<?xml version="1.0" encoding="UTF-8" standalone="no"?><!DOCTYPE svg PUBLIC "-//W3C//DTD SVG 1.1//EN" "http://www.w3.org/Graphics/SVG/1.1/DTD/svg11.dtd"><!-- Generated by graphviz version 2.40.1 (20161225.0304)
 --><!-- Title: G Pages: 1 --><svg xmlns="http://www.w3.org/2000/svg" xmlns:xlink="http://www.w3.org/1999/xlink" width="300pt" height="332pt" viewBox="0.00 0.00 299.89 332.21">
<g id="graph0" class="graph" transform="scale(1 1) rotate(0) translate(4 328.2146)">
<title>G</title>
<polygon fill="#ffffff" stroke="transparent" points="-4,4 -4,-328.2146 295.8883,-328.2146 295.8883,4 -4,4"/>
<!-- start -->
<g id="node1" class="node">
<title>start</title>
<polygon fill="none" stroke="#000000" points="117.4441,-324.2146 78.2068,-306.2146 117.4441,-288.2146 156.6815,-306.2146 117.4441,-324.2146"/>
<polyline fill="none" stroke="#000000" points="89.1139,-311.2182 89.1139,-301.211 "/>
<polyline fill="none" stroke="#000000" points="106.5371,-293.2182 128.3512,-293.2182 "/>
<polyline fill="none" stroke="#000000" points="145.7744,-301.211 145.7744,-311.2182 "/>
<polyline fill="none" stroke="#000000" points="128.3512,-319.211 106.5371,-319.211 "/>
<text text-anchor="middle" x="117.4441" y="-302.0146" font-family="Times,serif" font-size="14.00" fill="#000000">start</text>
</g>
<!-- BB_002E7120 -->
<g id="node2" class="node">
<title>BB_002E7120</title>
<ellipse fill="none" stroke="#000000" cx="117.4441" cy="-234.2146" rx="68.3883" ry="18"/>
<text text-anchor="middle" x="117.4441" y="-230.0146" font-family="Times,serif" font-size="14.00" fill="#000000">BB_002E7120</text>
</g>
<!-- start&#45;&gt;BB_002E7120 -->
<g id="edge1" class="edge">
<title>start-&gt;BB_002E7120</title>
<path fill="none" stroke="#000000" d="M117.4441,-288.046C117.4441,-280.3456 117.4441,-271.1889 117.4441,-262.6312"/>
<polygon fill="#000000" stroke="#000000" points="120.9442,-262.6278 117.4441,-252.6279 113.9442,-262.6279 120.9442,-262.6278"/>
</g>
<!-- BB_002E713C -->
<g id="node3" class="node">
<title>BB_002E713C</title>
<ellipse fill="none" stroke="#000000" cx="166.4441" cy="-162.2146" rx="70.1118" ry="18"/>
<text text-anchor="middle" x="166.4441" y="-158.0146" font-family="Times,serif" font-size="14.00" fill="#000000">BB_002E713C</text>
</g>
<!-- BB_002E7120&#45;&gt;BB_002E713C -->
<g id="edge2" class="edge">
<title>BB_002E7120-&gt;BB_002E713C</title>
<path fill="none" stroke="#ff0000" d="M129.5565,-216.4168C135.2693,-208.0225 142.2016,-197.8364 148.5075,-188.5704"/>
<polygon fill="#ff0000" stroke="#ff0000" points="151.5685,-190.2935 154.3013,-180.0571 145.7815,-186.3551 151.5685,-190.2935"/>
</g>
<!-- BB_002E7147 -->
<g id="node4" class="node">
<title>BB_002E7147</title>
<ellipse fill="none" stroke="#000000" cx="68.4441" cy="-90.2146" rx="68.3883" ry="18"/>
<text text-anchor="middle" x="68.4441" y="-86.0146" font-family="Times,serif" font-size="14.00" fill="#000000">BB_002E7147</text>
</g>
<!-- BB_002E7120&#45;&gt;BB_002E7147 -->
<g id="edge3" class="edge">
<title>BB_002E7120-&gt;BB_002E7147</title>
<path fill="none" stroke="#00ff00" d="M105.7516,-216.3745C99.5151,-206.1521 92.1738,-192.8729 87.4441,-180.2146 79.9216,-160.0815 75.0573,-136.2425 72.1353,-118.1587"/>
<polygon fill="#00ff00" stroke="#00ff00" points="75.5924,-117.6107 70.634,-108.2478 68.6713,-118.6592 75.5924,-117.6107"/>
</g>
<!-- BB_002E713C&#45;&gt;BB_002E7147 -->
<g id="edge5" class="edge">
<title>BB_002E713C-&gt;BB_002E7147</title>
<path fill="none" stroke="#00ff00" d="M143.2195,-145.1516C130.3763,-135.7158 114.2304,-123.8535 100.2317,-113.5687"/>
<polygon fill="#00ff00" stroke="#00ff00" points="101.9728,-110.5048 91.8417,-107.4046 97.8282,-116.146 101.9728,-110.5048"/>
</g>
<!-- BB_002E7141 -->
<g id="node5" class="node">
<title>BB_002E7141</title>
<ellipse fill="none" stroke="#000000" cx="223.4441" cy="-90.2146" rx="68.3883" ry="18"/>
<text text-anchor="middle" x="223.4441" y="-86.0146" font-family="Times,serif" font-size="14.00" fill="#000000">BB_002E7141</text>
</g>
<!-- BB_002E713C&#45;&gt;BB_002E7141 -->
<g id="edge4" class="edge">
<title>BB_002E713C-&gt;BB_002E7141</title>
<path fill="none" stroke="#ff0000" d="M180.534,-144.4168C187.3166,-135.8494 195.5767,-125.4155 203.0319,-115.9985"/>
<polygon fill="#ff0000" stroke="#ff0000" points="205.8559,-118.0701 209.3188,-108.0571 200.3676,-113.7252 205.8559,-118.0701"/>
</g>
<!-- end -->
<g id="node6" class="node">
<title>end</title>
<polygon fill="none" stroke="#000000" points="163.6594,-36.3225 127.2289,-36.3225 127.2289,.1079 163.6594,.1079 163.6594,-36.3225"/>
<polyline fill="none" stroke="#000000" points="139.2289,-36.3225 127.2289,-24.3225 "/>
<polyline fill="none" stroke="#000000" points="127.2289,-11.8921 139.2289,.1079 "/>
<polyline fill="none" stroke="#000000" points="151.6594,.1079 163.6594,-11.8921 "/>
<polyline fill="none" stroke="#000000" points="163.6594,-24.3225 151.6594,-36.3225 "/>
<text text-anchor="middle" x="145.4441" y="-13.9073" font-family="Times,serif" font-size="14.00" fill="#000000">end</text>
</g>
<!-- BB_002E7147&#45;&gt;end -->
<g id="edge7" class="edge">
<title>BB_002E7147-&gt;end</title>
<path fill="none" stroke="#000000" d="M87.0837,-72.7594C96.8971,-63.5696 109.0812,-52.1596 119.7744,-42.146"/>
<polygon fill="#000000" stroke="#000000" points="122.3351,-44.543 127.2419,-35.1529 117.5504,-39.4336 122.3351,-44.543"/>
</g>
<!-- BB_002E7141&#45;&gt;end -->
<g id="edge6" class="edge">
<title>BB_002E7141-&gt;end</title>
<path fill="none" stroke="#000000" d="M204.5625,-72.7594C194.5491,-63.5025 182.099,-51.993 171.2103,-41.9269"/>
<polygon fill="#000000" stroke="#000000" points="173.3337,-39.1234 163.6148,-34.9052 168.5819,-44.2636 173.3337,-39.1234"/>
</g>
</g>
</svg>