<?xml version="1.0" encoding="UTF-8" standalone="no"?><!DOCTYPE svg PUBLIC "-//W3C//DTD SVG 1.1//EN" "http://www.w3.org/Graphics/SVG/1.1/DTD/svg11.dtd"><!-- Generated by graphviz version 2.40.1 (20161225.0304)
 --><!-- Title: G Pages: 1 --><svg xmlns="http://www.w3.org/2000/svg" xmlns:xlink="http://www.w3.org/1999/xlink" width="158pt" height="188pt" viewBox="0.00 0.00 157.75 188.21">
<g id="graph0" class="graph" transform="scale(1 1) rotate(0) translate(4 184.2146)">
<title>G</title>
<polygon fill="#ffffff" stroke="transparent" points="-4,4 -4,-184.2146 153.7455,-184.2146 153.7455,4 -4,4"/>
<!-- start -->
<g id="node1" class="node">
<title>start</title>
<polygon fill="none" stroke="#000000" points="74.8728,-180.2146 35.6355,-162.2146 74.8728,-144.2146 114.1101,-162.2146 74.8728,-180.2146"/>
<polyline fill="none" stroke="#000000" points="46.5425,-167.2182 46.5425,-157.211 "/>
<polyline fill="none" stroke="#000000" points="63.9657,-149.2182 85.7798,-149.2182 "/>
<polyline fill="none" stroke="#000000" points="103.203,-157.211 103.203,-167.2182 "/>
<polyline fill="none" stroke="#000000" points="85.7798,-175.211 63.9657,-175.211 "/>
<text text-anchor="middle" x="74.8728" y="-158.0146" font-family="Times,serif" font-size="14.00" fill="#000000">start</text>
</g>
<!-- BB_002DAEA0 -->
<g id="node2" class="node">
<title>BB_002DAEA0</title>
<ellipse fill="none" stroke="#000000" cx="74.8728" cy="-90.2146" rx="74.7458" ry="18"/>
<text text-anchor="middle" x="74.8728" y="-86.0146" font-family="Times,serif" font-size="14.00" fill="#000000">BB_002DAEA0</text>
</g>
<!-- start&#45;&gt;BB_002DAEA0 -->
<g id="edge1" class="edge">
<title>start-&gt;BB_002DAEA0</title>
<path fill="none" stroke="#000000" d="M74.8728,-144.046C74.8728,-136.3456 74.8728,-127.1889 74.8728,-118.6312"/>
<polygon fill="#000000" stroke="#000000" points="78.3729,-118.6278 74.8728,-108.6279 71.3729,-118.6279 78.3729,-118.6278"/>
</g>
<!-- end -->
<g id="node3" class="node">
<title>end</title>
<polygon fill="none" stroke="#000000" points="93.088,-36.3225 56.6575,-36.3225 56.6575,.1079 93.088,.1079 93.088,-36.3225"/>
<polyline fill="none" stroke="#000000" points="68.6575,-36.3225 56.6575,-24.3225 "/>
<polyline fill="none" stroke="#000000" points="56.6575,-11.8921 68.6575,.1079 "/>
<polyline fill="none" stroke="#000000" points="81.088,.1079 93.088,-11.8921 "/>
<polyline fill="none" stroke="#000000" points="93.088,-24.3225 81.088,-36.3225 "/>
<text text-anchor="middle" x="74.8728" y="-13.9073" font-family="Times,serif" font-size="14.00" fill="#000000">end</text>
</g>
<!-- BB_002DAEA0&#45;&gt;end -->
<g id="edge2" class="edge">
<title>BB_002DAEA0-&gt;end</title>
<path fill="none" stroke="#000000" d="M74.8728,-72.0189C74.8728,-64.2477 74.8728,-54.9956 74.8728,-46.3686"/>
<polygon fill="#000000" stroke="#000000" points="78.3729,-46.2972 74.8728,-36.2972 71.3729,-46.2972 78.3729,-46.2972"/>
</g>
</g>
</svg>