<?xml version="1.0" encoding="UTF-8" standalone="no"?><!DOCTYPE svg PUBLIC "-//W3C//DTD SVG 1.1//EN" "http://www.w3.org/Graphics/SVG/1.1/DTD/svg11.dtd"><!-- Generated by graphviz version 2.40.1 (20161225.0304)
 --><!-- Title: G Pages: 1 --><svg xmlns="http://www.w3.org/2000/svg" xmlns:xlink="http://www.w3.org/1999/xlink" width="149pt" height="188pt" viewBox="0.00 0.00 149.17 188.21">
<g id="graph0" class="graph" transform="scale(1 1) rotate(0) translate(4 184.2146)">
<title>G</title>
<polygon fill="#ffffff" stroke="transparent" points="-4,4 -4,-184.2146 145.174,-184.2146 145.174,4 -4,4"/>
<!-- start -->
<g id="node1" class="node">
<title>start</title>
<polygon fill="none" stroke="#000000" points="70.587,-180.2146 31.3497,-162.2146 70.587,-144.2146 109.8243,-162.2146 70.587,-180.2146"/>
<polyline fill="none" stroke="#000000" points="42.2568,-167.2182 42.2568,-157.211 "/>
<polyline fill="none" stroke="#000000" points="59.68,-149.2182 81.4941,-149.2182 "/>
<polyline fill="none" stroke="#000000" points="98.9173,-157.211 98.9173,-167.2182 "/>
<polyline fill="none" stroke="#000000" points="81.4941,-175.211 59.68,-175.211 "/>
<text text-anchor="middle" x="70.587" y="-158.0146" font-family="Times,serif" font-size="14.00" fill="#000000">start</text>
</g>
<!-- BB_002E29D0 -->
<g id="node2" class="node">
<title>BB_002E29D0</title>
<ellipse fill="none" stroke="#000000" cx="70.587" cy="-90.2146" rx="70.6742" ry="18"/>
<text text-anchor="middle" x="70.587" y="-86.0146" font-family="Times,serif" font-size="14.00" fill="#000000">BB_002E29D0</text>
</g>
<!-- start&#45;&gt;BB_002E29D0 -->
<g id="edge1" class="edge">
<title>start-&gt;BB_002E29D0</title>
<path fill="none" stroke="#000000" d="M70.587,-144.046C70.587,-136.3456 70.587,-127.1889 70.587,-118.6312"/>
<polygon fill="#000000" stroke="#000000" points="74.0871,-118.6278 70.587,-108.6279 67.0871,-118.6279 74.0871,-118.6278"/>
</g>
<!-- end -->
<g id="node3" class="node">
<title>end</title>
<polygon fill="none" stroke="#000000" points="88.8023,-36.3225 52.3718,-36.3225 52.3718,.1079 88.8023,.1079 88.8023,-36.3225"/>
<polyline fill="none" stroke="#000000" points="64.3718,-36.3225 52.3718,-24.3225 "/>
<polyline fill="none" stroke="#000000" points="52.3718,-11.8921 64.3718,.1079 "/>
<polyline fill="none" stroke="#000000" points="76.8023,.1079 88.8023,-11.8921 "/>
<polyline fill="none" stroke="#000000" points="88.8023,-24.3225 76.8023,-36.3225 "/>
<text text-anchor="middle" x="70.587" y="-13.9073" font-family="Times,serif" font-size="14.00" fill="#000000">end</text>
</g>
<!-- BB_002E29D0&#45;&gt;end -->
<g id="edge2" class="edge">
<title>BB_002E29D0-&gt;end</title>
<path fill="none" stroke="#000000" d="M70.587,-72.0189C70.587,-64.2477 70.587,-54.9956 70.587,-46.3686"/>
<polygon fill="#000000" stroke="#000000" points="74.0871,-46.2972 70.587,-36.2972 67.0871,-46.2972 74.0871,-46.2972"/>
</g>
</g>
</svg>