<?xml version="1.0" encoding="UTF-8" standalone="no"?><!DOCTYPE svg PUBLIC "-//W3C//DTD SVG 1.1//EN" "http://www.w3.org/Graphics/SVG/1.1/DTD/svg11.dtd"><!-- Generated by graphviz version 2.40.1 (20161225.0304)
 --><!-- Title: G Pages: 1 --><svg xmlns="http://www.w3.org/2000/svg" xmlns:xlink="http://www.w3.org/1999/xlink" width="583pt" height="1446pt" viewBox="0.00 0.00 582.74 1445.86">
<g id="graph0" class="graph" transform="scale(1 1) rotate(0) translate(4 1441.8584)">
<title>G</title>
<polygon fill="#ffffff" stroke="transparent" points="-4,4 -4,-1441.8584 578.7439,-1441.8584 578.7439,4 -4,4"/>
<!-- start -->
<g id="node1" class="node">
<title>start</title>
<polygon fill="none" stroke="#000000" points="472.7439,-1437.8584 433.5066,-1419.8584 472.7439,-1401.8584 511.9812,-1419.8584 472.7439,-1437.8584"/>
<polyline fill="none" stroke="#000000" points="444.4136,-1424.862 444.4136,-1414.8548 "/>
<polyline fill="none" stroke="#000000" points="461.8368,-1406.862 483.6509,-1406.862 "/>
<polyline fill="none" stroke="#000000" points="501.0741,-1414.8548 501.0741,-1424.862 "/>
<polyline fill="none" stroke="#000000" points="483.6509,-1432.8548 461.8368,-1432.8548 "/>
<text text-anchor="middle" x="472.7439" y="-1415.6584" font-family="Times,serif" font-size="14.00" fill="#000000">start</text>
</g>
<!-- BB_002D8450 -->
<g id="node2" class="node">
<title>BB_002D8450</title>
<ellipse fill="none" stroke="#000000" cx="472.7439" cy="-1347.8584" rx="69.5321" ry="18"/>
<text text-anchor="middle" x="472.7439" y="-1343.6584" font-family="Times,serif" font-size="14.00" fill="#000000">BB_002D8450</text>
</g>
<!-- start&#45;&gt;BB_002D8450 -->
<g id="edge1" class="edge">
<title>start-&gt;BB_002D8450</title>
<path fill="none" stroke="#000000" d="M472.7439,-1401.6898C472.7439,-1393.9894 472.7439,-1384.8327 472.7439,-1376.275"/>
<polygon fill="#000000" stroke="#000000" points="476.244,-1376.2716 472.7439,-1366.2717 469.244,-1376.2717 476.244,-1376.2716"/>
</g>
<!-- BB_002D8556 -->
<g id="node3" class="node">
<title>BB_002D8556</title>
<ellipse fill="none" stroke="#000000" cx="414.7439" cy="-1275.8584" rx="69.5321" ry="18"/>
<text text-anchor="middle" x="414.7439" y="-1271.6584" font-family="Times,serif" font-size="14.00" fill="#000000">BB_002D8556</text>
</g>
<!-- BB_002D8450&#45;&gt;BB_002D8556 -->
<g id="edge2" class="edge">
<title>BB_002D8450-&gt;BB_002D8556</title>
<path fill="none" stroke="#ff0000" d="M458.4068,-1330.0606C451.5053,-1321.4932 443.1002,-1311.0593 435.5142,-1301.6423"/>
<polygon fill="#ff0000" stroke="#ff0000" points="438.116,-1299.2928 429.117,-1293.7009 432.6647,-1303.6842 438.116,-1299.2928"/>
</g>
<!-- BB_002D886A -->
<g id="node4" class="node">
<title>BB_002D886A</title>
<ellipse fill="none" stroke="#000000" cx="298.7439" cy="-90.2146" rx="71.8182" ry="18"/>
<text text-anchor="middle" x="298.7439" y="-86.0146" font-family="Times,serif" font-size="14.00" fill="#000000">BB_002D886A</text>
</g>
<!-- BB_002D8450&#45;&gt;BB_002D886A -->
<g id="edge3" class="edge">
<title>BB_002D8450-&gt;BB_002D886A</title>
<path fill="none" stroke="#00ff00" d="M495.8893,-1330.6745C525.9835,-1306.1643 574.7439,-1258.0847 574.7439,-1203.8584 574.7439,-1203.8584 574.7439,-1203.8584 574.7439,-234.2146 574.7439,-190.9663 570.7808,-172.1249 537.7439,-144.2146 513.1187,-123.4108 433.8793,-108.3127 373.3248,-99.4563"/>
<polygon fill="#00ff00" stroke="#00ff00" points="373.793,-95.9877 363.3979,-98.0353 372.801,-102.9171 373.793,-95.9877"/>
</g>
<!-- BB_002D8604 -->
<g id="node5" class="node">
<title>BB_002D8604</title>
<ellipse fill="none" stroke="#000000" cx="414.7439" cy="-1203.8584" rx="69.5321" ry="18"/>
<text text-anchor="middle" x="414.7439" y="-1199.6584" font-family="Times,serif" font-size="14.00" fill="#000000">BB_002D8604</text>
</g>
<!-- BB_002D8556&#45;&gt;BB_002D8604 -->
<g id="edge4" class="edge">
<title>BB_002D8556-&gt;BB_002D8604</title>
<path fill="none" stroke="#ff0000" d="M414.7439,-1257.6898C414.7439,-1249.9894 414.7439,-1240.8327 414.7439,-1232.275"/>
<polygon fill="#ff0000" stroke="#ff0000" points="418.244,-1232.2716 414.7439,-1222.2717 411.244,-1232.2717 418.244,-1232.2716"/>
</g>
<!-- BB_002D87B6 -->
<g id="node6" class="node">
<title>BB_002D87B6</title>
<ellipse fill="none" stroke="#000000" cx="84.7439" cy="-483.8584" rx="71.2559" ry="18"/>
<text text-anchor="middle" x="84.7439" y="-479.6584" font-family="Times,serif" font-size="14.00" fill="#000000">BB_002D87B6</text>
</g>
<!-- BB_002D8556&#45;&gt;BB_002D87B6 -->
<g id="edge5" class="edge">
<title>BB_002D8556-&gt;BB_002D87B6</title>
<path fill="none" stroke="#00ff00" d="M365.7049,-1263.087C280.8794,-1239.5416 115.7439,-1186.6658 115.7439,-1131.8584 115.7439,-1131.8584 115.7439,-1131.8584 115.7439,-627.8584 115.7439,-586.8621 103.5872,-540.7413 94.4993,-511.991"/>
<polygon fill="#00ff00" stroke="#00ff00" points="97.7437,-510.6503 91.3182,-502.2263 91.0879,-512.8187 97.7437,-510.6503"/>
</g>
<!-- end -->
<g id="node27" class="node">
<title>end</title>
<polygon fill="none" stroke="#000000" points="316.9591,-36.3225 280.5286,-36.3225 280.5286,.1079 316.9591,.1079 316.9591,-36.3225"/>
<polyline fill="none" stroke="#000000" points="292.5286,-36.3225 280.5286,-24.3225 "/>
<polyline fill="none" stroke="#000000" points="280.5286,-11.8921 292.5286,.1079 "/>
<polyline fill="none" stroke="#000000" points="304.9591,.1079 316.9591,-11.8921 "/>
<polyline fill="none" stroke="#000000" points="316.9591,-24.3225 304.9591,-36.3225 "/>
<text text-anchor="middle" x="298.7439" y="-13.9073" font-family="Times,serif" font-size="14.00" fill="#000000">end</text>
</g>
<!-- BB_002D886A&#45;&gt;end -->
<g id="edge39" class="edge">
<title>BB_002D886A-&gt;end</title>
<path fill="none" stroke="#000000" d="M298.7439,-72.0189C298.7439,-64.2477 298.7439,-54.9956 298.7439,-46.3686"/>
<polygon fill="#000000" stroke="#000000" points="302.244,-46.2972 298.7439,-36.2972 295.244,-46.2972 302.244,-46.2972"/>
</g>
<!-- BB_002D8640 -->
<g id="node7" class="node">
<title>BB_002D8640</title>
<ellipse fill="none" stroke="#000000" cx="414.7439" cy="-1131.8584" rx="69.5321" ry="18"/>
<text text-anchor="middle" x="414.7439" y="-1127.6584" font-family="Times,serif" font-size="14.00" fill="#000000">BB_002D8640</text>
</g>
<!-- BB_002D8604&#45;&gt;BB_002D8640 -->
<g id="edge6" class="edge">
<title>BB_002D8604-&gt;BB_002D8640</title>
<path fill="none" stroke="#0000ff" d="M414.7439,-1185.6898C414.7439,-1177.9894 414.7439,-1168.8327 414.7439,-1160.275"/>
<polygon fill="#0000ff" stroke="#0000ff" points="418.244,-1160.2716 414.7439,-1150.2717 411.244,-1160.2717 418.244,-1160.2716"/>
</g>
<!-- BB_002D87FF -->
<g id="node23" class="node">
<title>BB_002D87FF</title>
<ellipse fill="none" stroke="#000000" cx="84.7439" cy="-411.8584" rx="70.6916" ry="18"/>
<text text-anchor="middle" x="84.7439" y="-407.6584" font-family="Times,serif" font-size="14.00" fill="#000000">BB_002D87FF</text>
</g>
<!-- BB_002D87B6&#45;&gt;BB_002D87FF -->
<g id="edge31" class="edge">
<title>BB_002D87B6-&gt;BB_002D87FF</title>
<path fill="none" stroke="#ff0000" d="M84.7439,-465.6898C84.7439,-457.9894 84.7439,-448.8327 84.7439,-440.275"/>
<polygon fill="#ff0000" stroke="#ff0000" points="88.244,-440.2716 84.7439,-430.2717 81.244,-440.2717 88.244,-440.2716"/>
</g>
<!-- BB_002D882E -->
<g id="node24" class="node">
<title>BB_002D882E</title>
<ellipse fill="none" stroke="#000000" cx="84.7439" cy="-323.0365" rx="70.6742" ry="18"/>
<text text-anchor="middle" x="84.7439" y="-318.8365" font-family="Times,serif" font-size="14.00" fill="#000000">BB_002D882E</text>
</g>
<!-- BB_002D87B6&#45;&gt;BB_002D882E -->
<g id="edge32" class="edge">
<title>BB_002D87B6-&gt;BB_002D882E</title>
<path fill="none" stroke="#00ff00" d="M47.3204,-468.4727C31.1476,-459.7192 13.8665,-447.0226 4.7439,-429.8584 -11.9822,-398.3884 20.2725,-366.1713 48.6866,-345.466"/>
<polygon fill="#00ff00" stroke="#00ff00" points="50.7579,-348.2883 56.938,-339.6827 46.7402,-342.5561 50.7579,-348.2883"/>
</g>
<!-- BB_002D8640&#45;&gt;BB_002D8640 -->
<g id="edge8" class="edge">
<title>BB_002D8640-&gt;BB_002D8640</title>
<path fill="none" stroke="#00ff00" d="M462.0096,-1145.1203C483.5422,-1146.4743 502.2599,-1142.0537 502.2599,-1131.8584 502.2599,-1123.3358 489.1802,-1118.8484 472.3101,-1118.3964"/>
<polygon fill="#00ff00" stroke="#00ff00" points="471.9397,-1114.9028 462.0096,-1118.5965 472.0757,-1121.9015 471.9397,-1114.9028"/>
</g>
<!-- BB_002D864B -->
<g id="node8" class="node">
<title>BB_002D864B</title>
<ellipse fill="none" stroke="#000000" cx="414.7439" cy="-1059.8584" rx="71.2559" ry="18"/>
<text text-anchor="middle" x="414.7439" y="-1055.6584" font-family="Times,serif" font-size="14.00" fill="#000000">BB_002D864B</text>
</g>
<!-- BB_002D8640&#45;&gt;BB_002D864B -->
<g id="edge7" class="edge">
<title>BB_002D8640-&gt;BB_002D864B</title>
<path fill="none" stroke="#ff0000" d="M414.7439,-1113.6898C414.7439,-1105.9894 414.7439,-1096.8327 414.7439,-1088.275"/>
<polygon fill="#ff0000" stroke="#ff0000" points="418.244,-1088.2716 414.7439,-1078.2717 411.244,-1088.2717 418.244,-1088.2716"/>
</g>
<!-- BB_002D8678 -->
<g id="node9" class="node">
<title>BB_002D8678</title>
<ellipse fill="none" stroke="#000000" cx="467.7439" cy="-987.8584" rx="69.5321" ry="18"/>
<text text-anchor="middle" x="467.7439" y="-983.6584" font-family="Times,serif" font-size="14.00" fill="#000000">BB_002D8678</text>
</g>
<!-- BB_002D864B&#45;&gt;BB_002D8678 -->
<g id="edge9" class="edge">
<title>BB_002D864B-&gt;BB_002D8678</title>
<path fill="none" stroke="#ff0000" d="M427.845,-1042.0606C434.0879,-1033.5798 441.6771,-1023.2699 448.5538,-1013.928"/>
<polygon fill="#ff0000" stroke="#ff0000" points="451.5003,-1015.8292 454.6098,-1005.7009 445.8629,-1011.6795 451.5003,-1015.8292"/>
</g>
<!-- BB_002D86A4 -->
<g id="node10" class="node">
<title>BB_002D86A4</title>
<ellipse fill="none" stroke="#000000" cx="369.7439" cy="-915.8584" rx="71.8182" ry="18"/>
<text text-anchor="middle" x="369.7439" y="-911.6584" font-family="Times,serif" font-size="14.00" fill="#000000">BB_002D86A4</text>
</g>
<!-- BB_002D864B&#45;&gt;BB_002D86A4 -->
<g id="edge10" class="edge">
<title>BB_002D864B-&gt;BB_002D86A4</title>
<path fill="none" stroke="#00ff00" d="M404.7104,-1041.8261C399.3368,-1031.5436 392.9722,-1018.2682 388.7439,-1005.8584 381.8874,-985.7352 377.0239,-962.2031 373.9348,-944.2492"/>
<polygon fill="#00ff00" stroke="#00ff00" points="377.3482,-943.4351 372.2791,-934.1316 370.4401,-944.5657 377.3482,-943.4351"/>
</g>
<!-- BB_002D8678&#45;&gt;BB_002D86A4 -->
<g id="edge11" class="edge">
<title>BB_002D8678-&gt;BB_002D86A4</title>
<path fill="none" stroke="#ff0000" d="M444.5192,-970.7954C431.676,-961.3596 415.5302,-949.4973 401.5314,-939.2125"/>
<polygon fill="#ff0000" stroke="#ff0000" points="403.2725,-936.1486 393.1414,-933.0484 399.128,-941.7898 403.2725,-936.1486"/>
</g>
<!-- BB_002D86A8 -->
<g id="node11" class="node">
<title>BB_002D86A8</title>
<ellipse fill="none" stroke="#000000" cx="381.7439" cy="-843.8584" rx="71.8182" ry="18"/>
<text text-anchor="middle" x="381.7439" y="-839.6584" font-family="Times,serif" font-size="14.00" fill="#000000">BB_002D86A8</text>
</g>
<!-- BB_002D8678&#45;&gt;BB_002D86A8 -->
<g id="edge12" class="edge">
<title>BB_002D8678-&gt;BB_002D86A8</title>
<path fill="none" stroke="#00ff00" d="M467.9784,-969.6215C467.4263,-950.4322 464.2189,-919.9994 450.7439,-897.8584 443.1711,-885.4154 431.6093,-874.7256 420.1023,-866.2185"/>
<polygon fill="#00ff00" stroke="#00ff00" points="421.994,-863.2705 411.791,-860.4158 417.9868,-869.0101 421.994,-863.2705"/>
</g>
<!-- BB_002D86A4&#45;&gt;BB_002D86A8 -->
<g id="edge13" class="edge">
<title>BB_002D86A4-&gt;BB_002D86A8</title>
<path fill="none" stroke="#0000ff" d="M372.772,-897.6898C374.0554,-889.9894 375.5815,-880.8327 377.0078,-872.275"/>
<polygon fill="#0000ff" stroke="#0000ff" points="380.4833,-872.711 378.675,-862.2717 373.5785,-871.5602 380.4833,-872.711"/>
</g>
<!-- BB_002D86B6 -->
<g id="node12" class="node">
<title>BB_002D86B6</title>
<ellipse fill="none" stroke="#000000" cx="332.7439" cy="-771.8584" rx="71.2559" ry="18"/>
<text text-anchor="middle" x="332.7439" y="-767.6584" font-family="Times,serif" font-size="14.00" fill="#000000">BB_002D86B6</text>
</g>
<!-- BB_002D86A8&#45;&gt;BB_002D86B6 -->
<g id="edge14" class="edge">
<title>BB_002D86A8-&gt;BB_002D86B6</title>
<path fill="none" stroke="#ff0000" d="M369.6315,-826.0606C363.9187,-817.6663 356.9865,-807.4802 350.6805,-798.2142"/>
<polygon fill="#ff0000" stroke="#ff0000" points="353.4065,-795.9989 344.8867,-789.7009 347.6195,-799.9373 353.4065,-795.9989"/>
</g>
<!-- BB_002D86C7 -->
<g id="node13" class="node">
<title>BB_002D86C7</title>
<ellipse fill="none" stroke="#000000" cx="392.7439" cy="-699.8584" rx="71.2559" ry="18"/>
<text text-anchor="middle" x="392.7439" y="-695.6584" font-family="Times,serif" font-size="14.00" fill="#000000">BB_002D86C7</text>
</g>
<!-- BB_002D86A8&#45;&gt;BB_002D86C7 -->
<g id="edge15" class="edge">
<title>BB_002D86A8-&gt;BB_002D86C7</title>
<path fill="none" stroke="#00ff00" d="M395.2158,-825.9237C401.9094,-815.8845 409.2905,-802.8103 412.7439,-789.8584 418.3108,-768.9795 412.4446,-745.0931 405.6554,-727.1774"/>
<polygon fill="#00ff00" stroke="#00ff00" points="408.8833,-725.8239 401.8555,-717.8955 402.4052,-728.4761 408.8833,-725.8239"/>
</g>
<!-- BB_002D86B6&#45;&gt;BB_002D86C7 -->
<g id="edge16" class="edge">
<title>BB_002D86B6-&gt;BB_002D86C7</title>
<path fill="none" stroke="#0000ff" d="M347.5753,-754.0606C354.7149,-745.4932 363.4098,-735.0593 371.2573,-725.6423"/>
<polygon fill="#0000ff" stroke="#0000ff" points="374.162,-727.6238 377.8751,-717.7009 368.7844,-723.1425 374.162,-727.6238"/>
</g>
<!-- BB_002D86D2 -->
<g id="node14" class="node">
<title>BB_002D86D2</title>
<ellipse fill="none" stroke="#000000" cx="354.7439" cy="-627.8584" rx="71.8182" ry="18"/>
<text text-anchor="middle" x="354.7439" y="-623.6584" font-family="Times,serif" font-size="14.00" fill="#000000">BB_002D86D2</text>
</g>
<!-- BB_002D86C7&#45;&gt;BB_002D86D2 -->
<g id="edge17" class="edge">
<title>BB_002D86C7-&gt;BB_002D86D2</title>
<path fill="none" stroke="#ff0000" d="M383.1549,-681.6898C378.8469,-673.5272 373.6753,-663.7284 368.932,-654.7411"/>
<polygon fill="#ff0000" stroke="#ff0000" points="371.9612,-652.982 364.1982,-645.7718 365.7705,-656.2493 371.9612,-652.982"/>
</g>
<!-- BB_002D8726 -->
<g id="node15" class="node">
<title>BB_002D8726</title>
<ellipse fill="none" stroke="#000000" cx="398.7439" cy="-234.2146" rx="69.5321" ry="18"/>
<text text-anchor="middle" x="398.7439" y="-230.0146" font-family="Times,serif" font-size="14.00" fill="#000000">BB_002D8726</text>
</g>
<!-- BB_002D86C7&#45;&gt;BB_002D8726 -->
<g id="edge18" class="edge">
<title>BB_002D86C7-&gt;BB_002D8726</title>
<path fill="none" stroke="#00ff00" d="M427.6023,-683.9354C470.2195,-661.793 536.7439,-617.3767 536.7439,-555.8584 536.7439,-555.8584 536.7439,-555.8584 536.7439,-411.8584 536.7439,-351.8933 521.6314,-333.8608 482.7439,-288.2146 471.4781,-274.9908 456.1621,-263.8458 441.6925,-255.1783"/>
<polygon fill="#00ff00" stroke="#00ff00" points="443.2532,-252.0388 432.8363,-250.1052 439.7738,-258.1128 443.2532,-252.0388"/>
</g>
<!-- BB_002D86E0 -->
<g id="node16" class="node">
<title>BB_002D86E0</title>
<ellipse fill="none" stroke="#000000" cx="354.7439" cy="-555.8584" rx="70.6742" ry="18"/>
<text text-anchor="middle" x="354.7439" y="-551.6584" font-family="Times,serif" font-size="14.00" fill="#000000">BB_002D86E0</text>
</g>
<!-- BB_002D86D2&#45;&gt;BB_002D86E0 -->
<g id="edge19" class="edge">
<title>BB_002D86D2-&gt;BB_002D86E0</title>
<path fill="none" stroke="#ff0000" d="M354.7439,-609.6898C354.7439,-601.9894 354.7439,-592.8327 354.7439,-584.275"/>
<polygon fill="#ff0000" stroke="#ff0000" points="358.244,-584.2716 354.7439,-574.2717 351.244,-584.2717 358.244,-584.2716"/>
</g>
<!-- BB_002D8712 -->
<g id="node17" class="node">
<title>BB_002D8712</title>
<ellipse fill="none" stroke="#000000" cx="281.7439" cy="-323.0365" rx="69.5321" ry="18"/>
<text text-anchor="middle" x="281.7439" y="-318.8365" font-family="Times,serif" font-size="14.00" fill="#000000">BB_002D8712</text>
</g>
<!-- BB_002D86D2&#45;&gt;BB_002D8712 -->
<g id="edge20" class="edge">
<title>BB_002D86D2-&gt;BB_002D8712</title>
<path fill="none" stroke="#00ff00" d="M323.0179,-611.5906C307.0303,-602.2074 288.2292,-589.2231 274.7439,-573.8584 227.5435,-520.0799 219.1837,-499.4984 202.7439,-429.8584 199.0678,-414.2864 196.2202,-408.4681 202.7439,-393.8584 211.5696,-374.0933 228.9396,-357.5506 245.1497,-345.4367"/>
<polygon fill="#00ff00" stroke="#00ff00" points="247.354,-348.1638 253.4694,-339.5121 243.2934,-342.4618 247.354,-348.1638"/>
</g>
<!-- BB_002D872C -->
<g id="node21" class="node">
<title>BB_002D872C</title>
<ellipse fill="none" stroke="#000000" cx="457.7439" cy="-162.2146" rx="71.2559" ry="18"/>
<text text-anchor="middle" x="457.7439" y="-158.0146" font-family="Times,serif" font-size="14.00" fill="#000000">BB_002D872C</text>
</g>
<!-- BB_002D8726&#45;&gt;BB_002D872C -->
<g id="edge27" class="edge">
<title>BB_002D8726-&gt;BB_002D872C</title>
<path fill="none" stroke="#ff0000" d="M413.3282,-216.4168C420.3487,-207.8494 428.8987,-197.4155 436.6154,-187.9985"/>
<polygon fill="#ff0000" stroke="#ff0000" points="439.4918,-190.0103 443.1229,-180.0571 434.0775,-185.5736 439.4918,-190.0103"/>
</g>
<!-- BB_002D873F -->
<g id="node22" class="node">
<title>BB_002D873F</title>
<ellipse fill="none" stroke="#000000" cx="298.7439" cy="-162.2146" rx="70.1118" ry="18"/>
<text text-anchor="middle" x="298.7439" y="-158.0146" font-family="Times,serif" font-size="14.00" fill="#000000">BB_002D873F</text>
</g>
<!-- BB_002D8726&#45;&gt;BB_002D873F -->
<g id="edge28" class="edge">
<title>BB_002D8726-&gt;BB_002D873F</title>
<path fill="none" stroke="#00ff00" d="M375.0453,-217.1516C361.8163,-207.6268 345.1534,-195.6295 330.7765,-185.2781"/>
<polygon fill="#00ff00" stroke="#00ff00" points="332.7794,-182.4073 322.6189,-179.4046 328.6892,-188.0881 332.7794,-182.4073"/>
</g>
<!-- BB_002D86F4 -->
<g id="node18" class="node">
<title>BB_002D86F4</title>
<ellipse fill="none" stroke="#000000" cx="379.7439" cy="-483.8584" rx="70.1118" ry="18"/>
<text text-anchor="middle" x="379.7439" y="-479.6584" font-family="Times,serif" font-size="14.00" fill="#000000">BB_002D86F4</text>
</g>
<!-- BB_002D86E0&#45;&gt;BB_002D86F4 -->
<g id="edge21" class="edge">
<title>BB_002D86E0-&gt;BB_002D86F4</title>
<path fill="none" stroke="#ff0000" d="M361.0524,-537.6898C363.7556,-529.9047 366.9755,-520.6313 369.9749,-511.9931"/>
<polygon fill="#ff0000" stroke="#ff0000" points="373.3766,-512.8665 373.3504,-502.2717 366.7638,-510.5703 373.3766,-512.8665"/>
</g>
<!-- BB_002D8708 -->
<g id="node19" class="node">
<title>BB_002D8708</title>
<ellipse fill="none" stroke="#000000" cx="281.7439" cy="-411.8584" rx="69.5321" ry="18"/>
<text text-anchor="middle" x="281.7439" y="-407.6584" font-family="Times,serif" font-size="14.00" fill="#000000">BB_002D8708</text>
</g>
<!-- BB_002D86E0&#45;&gt;BB_002D8708 -->
<g id="edge22" class="edge">
<title>BB_002D86E0-&gt;BB_002D8708</title>
<path fill="none" stroke="#00ff00" d="M332.1827,-538.6498C321.0775,-529.0093 308.4521,-516.0787 300.7439,-501.8584 290.438,-482.8459 285.7187,-458.7634 283.5595,-440.2952"/>
<polygon fill="#00ff00" stroke="#00ff00" points="287.0238,-439.76 282.5611,-430.1509 280.0575,-440.4457 287.0238,-439.76"/>
</g>
<!-- BB_002D8712&#45;&gt;BB_002D8726 -->
<g id="edge26" class="edge">
<title>BB_002D8712-&gt;BB_002D8726</title>
<path fill="none" stroke="#0000ff" d="M304.3027,-305.9107C322.4309,-292.1484 348.0773,-272.6787 368.0704,-257.5007"/>
<polygon fill="#0000ff" stroke="#0000ff" points="370.4058,-260.1221 376.2544,-251.2878 366.1732,-254.5467 370.4058,-260.1221"/>
</g>
<!-- BB_002D86F4&#45;&gt;BB_002D8708 -->
<g id="edge23" class="edge">
<title>BB_002D86F4-&gt;BB_002D8708</title>
<path fill="none" stroke="#ff0000" d="M356.5192,-466.7954C343.676,-457.3596 327.5302,-445.4973 313.5314,-435.2125"/>
<polygon fill="#ff0000" stroke="#ff0000" points="315.2725,-432.1486 305.1414,-429.0484 311.128,-437.7898 315.2725,-432.1486"/>
</g>
<!-- BB_002D8890 -->
<g id="node20" class="node">
<title>BB_002D8890</title>
<ellipse fill="none" stroke="#000000" cx="438.7439" cy="-411.8584" rx="69.5321" ry="18"/>
<text text-anchor="middle" x="438.7439" y="-407.6584" font-family="Times,serif" font-size="14.00" fill="#000000">BB_002D8890</text>
</g>
<!-- BB_002D86F4&#45;&gt;BB_002D8890 -->
<g id="edge24" class="edge">
<title>BB_002D86F4-&gt;BB_002D8890</title>
<path fill="none" stroke="#00ff00" d="M394.3282,-466.0606C401.3487,-457.4932 409.8987,-447.0593 417.6154,-437.6423"/>
<polygon fill="#00ff00" stroke="#00ff00" points="420.4918,-439.6541 424.1229,-429.7009 415.0775,-435.2174 420.4918,-439.6541"/>
</g>
<!-- BB_002D8708&#45;&gt;BB_002D8712 -->
<g id="edge25" class="edge">
<title>BB_002D8708-&gt;BB_002D8712</title>
<path fill="none" stroke="#0000ff" d="M281.7439,-393.4544C281.7439,-381.3458 281.7439,-365.2545 281.7439,-351.5109"/>
<polygon fill="#0000ff" stroke="#0000ff" points="285.244,-351.1129 281.7439,-341.113 278.244,-351.113 285.244,-351.1129"/>
</g>
<!-- dead_end -->
<g id="node28" class="node">
<title>dead_end</title>
<polygon fill="none" stroke="#000000" points="473.3886,-357.6812 404.0992,-357.6812 404.0992,-288.3918 473.3886,-288.3918 473.3886,-357.6812"/>
<polyline fill="none" stroke="#000000" points="416.0992,-357.6812 404.0992,-345.6812 "/>
<polyline fill="none" stroke="#000000" points="404.0992,-300.3918 416.0992,-288.3918 "/>
<polyline fill="none" stroke="#000000" points="461.3886,-288.3918 473.3886,-300.3918 "/>
<polyline fill="none" stroke="#000000" points="473.3886,-345.6812 461.3886,-357.6812 "/>
<text text-anchor="middle" x="438.7439" y="-318.8365" font-family="Times,serif" font-size="14.00" fill="#000000">dead_end</text>
</g>
<!-- BB_002D8890&#45;&gt;dead_end -->
<g id="edge40" class="edge">
<title>BB_002D8890-&gt;dead_end</title>
<path fill="none" stroke="#000000" d="M438.7439,-393.4544C438.7439,-385.9968 438.7439,-377.0284 438.7439,-368.0283"/>
<polygon fill="#000000" stroke="#000000" points="442.244,-367.9321 438.7439,-357.9321 435.244,-367.9322 442.244,-367.9321"/>
</g>
<!-- BB_002D872C&#45;&gt;BB_002D886A -->
<g id="edge29" class="edge">
<title>BB_002D872C-&gt;BB_002D886A</title>
<path fill="none" stroke="#0000ff" d="M422.8507,-146.4139C399.3435,-135.7692 368.1433,-121.6408 342.9072,-110.2131"/>
<polygon fill="#0000ff" stroke="#0000ff" points="344.1091,-106.9152 333.5557,-105.9784 341.2215,-113.2919 344.1091,-106.9152"/>
</g>
<!-- BB_002D873F&#45;&gt;BB_002D886A -->
<g id="edge30" class="edge">
<title>BB_002D873F-&gt;BB_002D886A</title>
<path fill="none" stroke="#0000ff" d="M298.7439,-144.046C298.7439,-136.3456 298.7439,-127.1889 298.7439,-118.6312"/>
<polygon fill="#0000ff" stroke="#0000ff" points="302.244,-118.6278 298.7439,-108.6279 295.244,-118.6279 302.244,-118.6278"/>
</g>
<!-- BB_002D87FF&#45;&gt;BB_002D882E -->
<g id="edge33" class="edge">
<title>BB_002D87FF-&gt;BB_002D882E</title>
<path fill="none" stroke="#0000ff" d="M84.7439,-393.4544C84.7439,-381.3458 84.7439,-365.2545 84.7439,-351.5109"/>
<polygon fill="#0000ff" stroke="#0000ff" points="88.244,-351.1129 84.7439,-341.113 81.244,-351.113 88.244,-351.1129"/>
</g>
<!-- BB_002D8852 -->
<g id="node25" class="node">
<title>BB_002D8852</title>
<ellipse fill="none" stroke="#000000" cx="182.7439" cy="-234.2146" rx="69.5321" ry="18"/>
<text text-anchor="middle" x="182.7439" y="-230.0146" font-family="Times,serif" font-size="14.00" fill="#000000">BB_002D8852</text>
</g>
<!-- BB_002D882E&#45;&gt;BB_002D8852 -->
<g id="edge34" class="edge">
<title>BB_002D882E-&gt;BB_002D8852</title>
<path fill="none" stroke="#ff0000" d="M104.1055,-305.4882C118.8702,-292.1062 139.3857,-273.5121 155.7601,-258.6712"/>
<polygon fill="#ff0000" stroke="#ff0000" points="158.3634,-261.0354 163.4225,-251.7265 153.6624,-255.8488 158.3634,-261.0354"/>
</g>
<!-- BB_002D8858 -->
<g id="node26" class="node">
<title>BB_002D8858</title>
<ellipse fill="none" stroke="#000000" cx="102.7439" cy="-162.2146" rx="69.5321" ry="18"/>
<text text-anchor="middle" x="102.7439" y="-158.0146" font-family="Times,serif" font-size="14.00" fill="#000000">BB_002D8858</text>
</g>
<!-- BB_002D882E&#45;&gt;BB_002D8858 -->
<g id="edge35" class="edge">
<title>BB_002D882E-&gt;BB_002D8858</title>
<path fill="none" stroke="#00ff00" d="M86.7737,-304.9008C89.8797,-277.1507 95.8392,-223.9045 99.5348,-190.8866"/>
<polygon fill="#00ff00" stroke="#00ff00" points="103.0597,-190.8581 100.6938,-180.5308 96.1032,-190.0794 103.0597,-190.8581"/>
</g>
<!-- BB_002D8852&#45;&gt;BB_002D886A -->
<g id="edge37" class="edge">
<title>BB_002D8852-&gt;BB_002D886A</title>
<path fill="none" stroke="#00ff00" d="M186.8899,-216.0412C192.0278,-196.6271 202.3091,-165.7471 219.7439,-144.2146 230.1206,-131.399 244.3269,-120.4033 257.8331,-111.743"/>
<polygon fill="#00ff00" stroke="#00ff00" points="259.8636,-114.6036 266.5602,-106.3935 256.2053,-108.6356 259.8636,-114.6036"/>
</g>
<!-- BB_002D8852&#45;&gt;BB_002D8858 -->
<g id="edge36" class="edge">
<title>BB_002D8852-&gt;BB_002D8858</title>
<path fill="none" stroke="#ff0000" d="M163.3781,-216.7854C153.3312,-207.7432 140.8926,-196.5484 129.9013,-186.6563"/>
<polygon fill="#ff0000" stroke="#ff0000" points="131.9829,-183.821 122.2086,-179.7328 127.3002,-189.0241 131.9829,-183.821"/>
</g>
<!-- BB_002D8858&#45;&gt;BB_002D886A -->
<g id="edge38" class="edge">
<title>BB_002D8858-&gt;BB_002D886A</title>
<path fill="none" stroke="#0000ff" d="M142.8804,-147.4706C173.4608,-136.237 215.7525,-120.7012 248.5673,-108.6468"/>
<polygon fill="#0000ff" stroke="#0000ff" points="249.8077,-111.9199 257.9875,-105.1863 247.3939,-105.3492 249.8077,-111.9199"/>
</g>
</g>
</svg>