<?xml version="1.0" encoding="UTF-8" standalone="no"?><!DOCTYPE svg PUBLIC "-//W3C//DTD SVG 1.1//EN" "http://www.w3.org/Graphics/SVG/1.1/DTD/svg11.dtd"><!-- Generated by graphviz version 2.40.1 (20161225.0304)
 --><!-- Title: G Pages: 1 --><svg xmlns="http://www.w3.org/2000/svg" xmlns:xlink="http://www.w3.org/1999/xlink" width="144pt" height="222pt" viewBox="0.00 0.00 143.83 221.64">
<g id="graph0" class="graph" transform="scale(1 1) rotate(0) translate(4 217.6438)">
<title>G</title>
<polygon fill="#ffffff" stroke="transparent" points="-4,4 -4,-217.6438 139.826,-217.6438 139.826,4 -4,4"/>
<!-- start -->
<g id="node1" class="node">
<title>start</title>
<polygon fill="none" stroke="#000000" points="67.913,-213.6438 28.6757,-195.6438 67.913,-177.6438 107.1503,-195.6438 67.913,-213.6438"/>
<polyline fill="none" stroke="#000000" points="39.5828,-200.6474 39.5828,-190.6402 "/>
<polyline fill="none" stroke="#000000" points="57.0059,-182.6474 78.8201,-182.6474 "/>
<polyline fill="none" stroke="#000000" points="96.2433,-190.6402 96.2433,-200.6474 "/>
<polyline fill="none" stroke="#000000" points="78.8201,-208.6402 57.0059,-208.6402 "/>
<text text-anchor="middle" x="67.913" y="-191.4438" font-family="Times,serif" font-size="14.00" fill="#000000">start</text>
</g>
<!-- BB_002F5124 -->
<g id="node2" class="node">
<title>BB_002F5124</title>
<ellipse fill="none" stroke="#000000" cx="67.913" cy="-123.6438" rx="67.8261" ry="18"/>
<text text-anchor="middle" x="67.913" y="-119.4438" font-family="Times,serif" font-size="14.00" fill="#000000">BB_002F5124</text>
</g>
<!-- start&#45;&gt;BB_002F5124 -->
<g id="edge1" class="edge">
<title>start-&gt;BB_002F5124</title>
<path fill="none" stroke="#000000" d="M67.913,-177.4752C67.913,-169.7748 67.913,-160.6181 67.913,-152.0604"/>
<polygon fill="#000000" stroke="#000000" points="71.4131,-152.057 67.913,-142.0571 64.4131,-152.0571 71.4131,-152.057"/>
</g>
<!-- dead_end -->
<g id="node3" class="node">
<title>dead_end</title>
<polygon fill="none" stroke="#000000" points="102.5577,-69.4666 33.2683,-69.4666 33.2683,-.1772 102.5577,-.1772 102.5577,-69.4666"/>
<polyline fill="none" stroke="#000000" points="45.2683,-69.4666 33.2683,-57.4666 "/>
<polyline fill="none" stroke="#000000" points="33.2683,-12.1772 45.2683,-.1772 "/>
<polyline fill="none" stroke="#000000" points="90.5577,-.1772 102.5577,-12.1772 "/>
<polyline fill="none" stroke="#000000" points="102.5577,-57.4666 90.5577,-69.4666 "/>
<text text-anchor="middle" x="67.913" y="-30.6219" font-family="Times,serif" font-size="14.00" fill="#000000">dead_end</text>
</g>
<!-- BB_002F5124&#45;&gt;dead_end -->
<g id="edge2" class="edge">
<title>BB_002F5124-&gt;dead_end</title>
<path fill="none" stroke="#000000" d="M67.913,-105.2398C67.913,-97.7822 67.913,-88.8138 67.913,-79.8137"/>
<polygon fill="#000000" stroke="#000000" points="71.4131,-79.7175 67.913,-69.7175 64.4131,-79.7176 71.4131,-79.7175"/>
</g>
</g>
</svg>