<?xml version="1.0" encoding="UTF-8" standalone="no"?><!DOCTYPE svg PUBLIC "-//W3C//DTD SVG 1.1//EN" "http://www.w3.org/Graphics/SVG/1.1/DTD/svg11.dtd"><!-- Generated by graphviz version 2.40.1 (20161225.0304)
 --><!-- Title: G Pages: 1 --><svg xmlns="http://www.w3.org/2000/svg" xmlns:xlink="http://www.w3.org/1999/xlink" width="193pt" height="332pt" viewBox="0.00 0.00 192.89 332.21">
<g id="graph0" class="graph" transform="scale(1 1) rotate(0) translate(4 328.2146)">
<title>G</title>
<polygon fill="#ffffff" stroke="transparent" points="-4,4 -4,-328.2146 188.8883,-328.2146 188.8883,4 -4,4"/>
<!-- start -->
<g id="node1" class="node">
<title>start</title>
<polygon fill="none" stroke="#000000" points="116.4441,-324.2146 77.2068,-306.2146 116.4441,-288.2146 155.6815,-306.2146 116.4441,-324.2146"/>
<polyline fill="none" stroke="#000000" points="88.1139,-311.2182 88.1139,-301.211 "/>
<polyline fill="none" stroke="#000000" points="105.5371,-293.2182 127.3512,-293.2182 "/>
<polyline fill="none" stroke="#000000" points="144.7744,-301.211 144.7744,-311.2182 "/>
<polyline fill="none" stroke="#000000" points="127.3512,-319.211 105.5371,-319.211 "/>
<text text-anchor="middle" x="116.4441" y="-302.0146" font-family="Times,serif" font-size="14.00" fill="#000000">start</text>
</g>
<!-- BB_002E7840 -->
<g id="node2" class="node">
<title>BB_002E7840</title>
<ellipse fill="none" stroke="#000000" cx="116.4441" cy="-234.2146" rx="68.3883" ry="18"/>
<text text-anchor="middle" x="116.4441" y="-230.0146" font-family="Times,serif" font-size="14.00" fill="#000000">BB_002E7840</text>
</g>
<!-- start&#45;&gt;BB_002E7840 -->
<g id="edge1" class="edge">
<title>start-&gt;BB_002E7840</title>
<path fill="none" stroke="#000000" d="M116.4441,-288.046C116.4441,-280.3456 116.4441,-271.1889 116.4441,-262.6312"/>
<polygon fill="#000000" stroke="#000000" points="119.9442,-262.6278 116.4441,-252.6279 112.9442,-262.6279 119.9442,-262.6278"/>
</g>
<!-- BB_002E7875 -->
<g id="node3" class="node">
<title>BB_002E7875</title>
<ellipse fill="none" stroke="#000000" cx="68.4441" cy="-162.2146" rx="68.3883" ry="18"/>
<text text-anchor="middle" x="68.4441" y="-158.0146" font-family="Times,serif" font-size="14.00" fill="#000000">BB_002E7875</text>
</g>
<!-- BB_002E7840&#45;&gt;BB_002E7875 -->
<g id="edge2" class="edge">
<title>BB_002E7840-&gt;BB_002E7875</title>
<path fill="none" stroke="#ff0000" d="M104.579,-216.4168C98.9828,-208.0225 92.192,-197.8364 86.0147,-188.5704"/>
<polygon fill="#ff0000" stroke="#ff0000" points="88.7984,-186.4362 80.3392,-180.0571 82.974,-190.3191 88.7984,-186.4362"/>
</g>
<!-- BB_002E7877 -->
<g id="node4" class="node">
<title>BB_002E7877</title>
<ellipse fill="none" stroke="#000000" cx="116.4441" cy="-90.2146" rx="68.3883" ry="18"/>
<text text-anchor="middle" x="116.4441" y="-86.0146" font-family="Times,serif" font-size="14.00" fill="#000000">BB_002E7877</text>
</g>
<!-- BB_002E7840&#45;&gt;BB_002E7877 -->
<g id="edge3" class="edge">
<title>BB_002E7840-&gt;BB_002E7877</title>
<path fill="none" stroke="#00ff00" d="M129.0563,-216.1561C135.3208,-206.0806 142.2254,-193.0113 145.4441,-180.2146 149.3471,-164.6979 149.3471,-159.7313 145.4441,-144.2146 143.1055,-134.917 138.8212,-125.4755 134.2503,-117.1429"/>
<polygon fill="#00ff00" stroke="#00ff00" points="137.1298,-115.1338 129.0563,-108.2731 131.0893,-118.671 137.1298,-115.1338"/>
</g>
<!-- BB_002E7875&#45;&gt;BB_002E7877 -->
<g id="edge4" class="edge">
<title>BB_002E7875-&gt;BB_002E7877</title>
<path fill="none" stroke="#0000ff" d="M80.3093,-144.4168C85.9055,-136.0225 92.6963,-125.8364 98.8736,-116.5704"/>
<polygon fill="#0000ff" stroke="#0000ff" points="101.9143,-118.3191 104.5491,-108.0571 96.0899,-114.4362 101.9143,-118.3191"/>
</g>
<!-- end -->
<g id="node5" class="node">
<title>end</title>
<polygon fill="none" stroke="#000000" points="134.6594,-36.3225 98.2289,-36.3225 98.2289,.1079 134.6594,.1079 134.6594,-36.3225"/>
<polyline fill="none" stroke="#000000" points="110.2289,-36.3225 98.2289,-24.3225 "/>
<polyline fill="none" stroke="#000000" points="98.2289,-11.8921 110.2289,.1079 "/>
<polyline fill="none" stroke="#000000" points="122.6594,.1079 134.6594,-11.8921 "/>
<polyline fill="none" stroke="#000000" points="134.6594,-24.3225 122.6594,-36.3225 "/>
<text text-anchor="middle" x="116.4441" y="-13.9073" font-family="Times,serif" font-size="14.00" fill="#000000">end</text>
</g>
<!-- BB_002E7877&#45;&gt;end -->
<g id="edge5" class="edge">
<title>BB_002E7877-&gt;end</title>
<path fill="none" stroke="#000000" d="M116.4441,-72.0189C116.4441,-64.2477 116.4441,-54.9956 116.4441,-46.3686"/>
<polygon fill="#000000" stroke="#000000" points="119.9442,-46.2972 116.4441,-36.2972 112.9442,-46.2972 119.9442,-46.2972"/>
</g>
</g>
</svg>