<?xml version="1.0" encoding="UTF-8" standalone="no"?><!DOCTYPE svg PUBLIC "-//W3C//DTD SVG 1.1//EN" "http://www.w3.org/Graphics/SVG/1.1/DTD/svg11.dtd"><!-- Generated by graphviz version 2.40.1 (20161225.0304)
 --><!-- Title: G Pages: 1 --><svg xmlns="http://www.w3.org/2000/svg" xmlns:xlink="http://www.w3.org/1999/xlink" width="314pt" height="404pt" viewBox="0.00 0.00 313.87 404.21">
<g id="graph0" class="graph" transform="scale(1 1) rotate(0) translate(4 400.2146)">
<title>G</title>
<polygon fill="#ffffff" stroke="transparent" points="-4,4 -4,-400.2146 309.8674,-400.2146 309.8674,4 -4,4"/>
<!-- start -->
<g id="node1" class="node">
<title>start</title>
<polygon fill="none" stroke="#000000" points="152.1278,-396.2146 112.8905,-378.2146 152.1278,-360.2146 191.3651,-378.2146 152.1278,-396.2146"/>
<polyline fill="none" stroke="#000000" points="123.7976,-383.2182 123.7976,-373.211 "/>
<polyline fill="none" stroke="#000000" points="141.2207,-365.2182 163.0349,-365.2182 "/>
<polyline fill="none" stroke="#000000" points="180.4581,-373.211 180.4581,-383.2182 "/>
<polyline fill="none" stroke="#000000" points="163.0349,-391.211 141.2207,-391.211 "/>
<text text-anchor="middle" x="152.1278" y="-374.0146" font-family="Times,serif" font-size="14.00" fill="#000000">start</text>
</g>
<!-- BB_002D6BD0 -->
<g id="node2" class="node">
<title>BB_002D6BD0</title>
<ellipse fill="none" stroke="#000000" cx="152.1278" cy="-306.2146" rx="73.0421" ry="18"/>
<text text-anchor="middle" x="152.1278" y="-302.0146" font-family="Times,serif" font-size="14.00" fill="#000000">BB_002D6BD0</text>
</g>
<!-- start&#45;&gt;BB_002D6BD0 -->
<g id="edge1" class="edge">
<title>start-&gt;BB_002D6BD0</title>
<path fill="none" stroke="#000000" d="M152.1278,-360.046C152.1278,-352.3456 152.1278,-343.1889 152.1278,-334.6312"/>
<polygon fill="#000000" stroke="#000000" points="155.6279,-334.6278 152.1278,-324.6279 148.6279,-334.6279 155.6279,-334.6278"/>
</g>
<!-- BB_002D6BFB -->
<g id="node3" class="node">
<title>BB_002D6BFB</title>
<ellipse fill="none" stroke="#000000" cx="102.1278" cy="-234.2146" rx="73.0594" ry="18"/>
<text text-anchor="middle" x="102.1278" y="-230.0146" font-family="Times,serif" font-size="14.00" fill="#000000">BB_002D6BFB</text>
</g>
<!-- BB_002D6BD0&#45;&gt;BB_002D6BFB -->
<g id="edge2" class="edge">
<title>BB_002D6BD0-&gt;BB_002D6BFB</title>
<path fill="none" stroke="#ff0000" d="M139.7683,-288.4168C133.8788,-279.936 126.7192,-269.6261 120.2317,-260.2842"/>
<polygon fill="#ff0000" stroke="#ff0000" points="123.0973,-258.2745 114.5185,-252.0571 117.3477,-262.2673 123.0973,-258.2745"/>
</g>
<!-- BB_002D6BFD -->
<g id="node4" class="node">
<title>BB_002D6BFD</title>
<ellipse fill="none" stroke="#000000" cx="152.1278" cy="-162.2146" rx="73.6215" ry="18"/>
<text text-anchor="middle" x="152.1278" y="-158.0146" font-family="Times,serif" font-size="14.00" fill="#000000">BB_002D6BFD</text>
</g>
<!-- BB_002D6BD0&#45;&gt;BB_002D6BFD -->
<g id="edge3" class="edge">
<title>BB_002D6BD0-&gt;BB_002D6BFD</title>
<path fill="none" stroke="#00ff00" d="M166.029,-288.3441C172.9369,-278.3236 180.5564,-265.247 184.1278,-252.2146 188.3566,-236.7835 188.3566,-231.6457 184.1278,-216.2146 181.505,-206.644 176.6992,-197.0494 171.5952,-188.659"/>
<polygon fill="#00ff00" stroke="#00ff00" points="174.4098,-186.5668 166.029,-180.0851 168.5386,-190.3784 174.4098,-186.5668"/>
</g>
<!-- BB_002D6BFB&#45;&gt;BB_002D6BFD -->
<g id="edge4" class="edge">
<title>BB_002D6BFB-&gt;BB_002D6BFD</title>
<path fill="none" stroke="#0000ff" d="M114.4874,-216.4168C120.3769,-207.936 127.5365,-197.6261 134.0239,-188.2842"/>
<polygon fill="#0000ff" stroke="#0000ff" points="136.908,-190.2673 139.7372,-180.0571 131.1584,-186.2745 136.908,-190.2673"/>
</g>
<!-- BB_002D6C02 -->
<g id="node5" class="node">
<title>BB_002D6C02</title>
<ellipse fill="none" stroke="#000000" cx="71.1278" cy="-90.2146" rx="71.2559" ry="18"/>
<text text-anchor="middle" x="71.1278" y="-86.0146" font-family="Times,serif" font-size="14.00" fill="#000000">BB_002D6C02</text>
</g>
<!-- BB_002D6BFD&#45;&gt;BB_002D6C02 -->
<g id="edge5" class="edge">
<title>BB_002D6BFD-&gt;BB_002D6C02</title>
<path fill="none" stroke="#ff0000" d="M132.52,-144.7854C122.3475,-135.7432 109.7534,-124.5484 98.6247,-114.6563"/>
<polygon fill="#ff0000" stroke="#ff0000" points="100.6352,-111.7606 90.8358,-107.7328 95.9847,-116.9924 100.6352,-111.7606"/>
</g>
<!-- BB_002D6C1C -->
<g id="node6" class="node">
<title>BB_002D6C1C</title>
<ellipse fill="none" stroke="#000000" cx="233.1278" cy="-90.2146" rx="72.9799" ry="18"/>
<text text-anchor="middle" x="233.1278" y="-86.0146" font-family="Times,serif" font-size="14.00" fill="#000000">BB_002D6C1C</text>
</g>
<!-- BB_002D6BFD&#45;&gt;BB_002D6C1C -->
<g id="edge6" class="edge">
<title>BB_002D6BFD-&gt;BB_002D6C1C</title>
<path fill="none" stroke="#00ff00" d="M171.7357,-144.7854C181.9082,-135.7432 194.5022,-124.5484 205.6309,-114.6563"/>
<polygon fill="#00ff00" stroke="#00ff00" points="208.271,-116.9924 213.4198,-107.7328 203.6204,-111.7606 208.271,-116.9924"/>
</g>
<!-- end -->
<g id="node7" class="node">
<title>end</title>
<polygon fill="none" stroke="#000000" points="170.3431,-36.3225 133.9126,-36.3225 133.9126,.1079 170.3431,.1079 170.3431,-36.3225"/>
<polyline fill="none" stroke="#000000" points="145.9126,-36.3225 133.9126,-24.3225 "/>
<polyline fill="none" stroke="#000000" points="133.9126,-11.8921 145.9126,.1079 "/>
<polyline fill="none" stroke="#000000" points="158.3431,.1079 170.3431,-11.8921 "/>
<polyline fill="none" stroke="#000000" points="170.3431,-24.3225 158.3431,-36.3225 "/>
<text text-anchor="middle" x="152.1278" y="-13.9073" font-family="Times,serif" font-size="14.00" fill="#000000">end</text>
</g>
<!-- BB_002D6C02&#45;&gt;end -->
<g id="edge7" class="edge">
<title>BB_002D6C02-&gt;end</title>
<path fill="none" stroke="#000000" d="M90.7357,-72.7594C101.3874,-63.2771 114.6941,-51.4313 126.1934,-41.1944"/>
<polygon fill="#000000" stroke="#000000" points="128.6689,-43.6767 133.8109,-34.4133 124.0145,-38.4482 128.6689,-43.6767"/>
</g>
<!-- BB_002D6C1C&#45;&gt;end -->
<g id="edge8" class="edge">
<title>BB_002D6C1C-&gt;end</title>
<path fill="none" stroke="#000000" d="M213.52,-72.7594C202.8683,-63.2771 189.5615,-51.4313 178.0622,-41.1944"/>
<polygon fill="#000000" stroke="#000000" points="180.2411,-38.4482 170.4447,-34.4133 175.5867,-43.6767 180.2411,-38.4482"/>
</g>
</g>
</svg>