<?xml version="1.0" encoding="UTF-8" standalone="no"?><!DOCTYPE svg PUBLIC "-//W3C//DTD SVG 1.1//EN" "http://www.w3.org/Graphics/SVG/1.1/DTD/svg11.dtd"><!-- Generated by graphviz version 2.40.1 (20161225.0304)
 --><!-- Title: G Pages: 1 --><svg xmlns="http://www.w3.org/2000/svg" xmlns:xlink="http://www.w3.org/1999/xlink" width="473pt" height="1086pt" viewBox="0.00 0.00 473.40 1085.86">
<g id="graph0" class="graph" transform="scale(1 1) rotate(0) translate(4 1081.8584)">
<title>G</title>
<polygon fill="#ffffff" stroke="transparent" points="-4,4 -4,-1081.8584 469.3966,-1081.8584 469.3966,4 -4,4"/>
<!-- start -->
<g id="node1" class="node">
<title>start</title>
<polygon fill="none" stroke="#000000" points="279.1268,-1077.8584 239.8895,-1059.8584 279.1268,-1041.8584 318.3642,-1059.8584 279.1268,-1077.8584"/>
<polyline fill="none" stroke="#000000" points="250.7966,-1064.862 250.7966,-1054.8548 "/>
<polyline fill="none" stroke="#000000" points="268.2198,-1046.862 290.0339,-1046.862 "/>
<polyline fill="none" stroke="#000000" points="307.4571,-1054.8548 307.4571,-1064.862 "/>
<polyline fill="none" stroke="#000000" points="290.0339,-1072.8548 268.2198,-1072.8548 "/>
<text text-anchor="middle" x="279.1268" y="-1055.6584" font-family="Times,serif" font-size="14.00" fill="#000000">start</text>
</g>
<!-- BB_002DF1B0 -->
<g id="node2" class="node">
<title>BB_002DF1B0</title>
<ellipse fill="none" stroke="#000000" cx="279.1268" cy="-987.8584" rx="71.8357" ry="18"/>
<text text-anchor="middle" x="279.1268" y="-983.6584" font-family="Times,serif" font-size="14.00" fill="#000000">BB_002DF1B0</text>
</g>
<!-- start&#45;&gt;BB_002DF1B0 -->
<g id="edge1" class="edge">
<title>start-&gt;BB_002DF1B0</title>
<path fill="none" stroke="#000000" d="M279.1268,-1041.6898C279.1268,-1033.9894 279.1268,-1024.8327 279.1268,-1016.275"/>
<polygon fill="#000000" stroke="#000000" points="282.6269,-1016.2716 279.1268,-1006.2717 275.6269,-1016.2717 282.6269,-1016.2716"/>
</g>
<!-- BB_002DF389 -->
<g id="node3" class="node">
<title>BB_002DF389</title>
<ellipse fill="none" stroke="#000000" cx="229.1268" cy="-915.8584" rx="70.1118" ry="18"/>
<text text-anchor="middle" x="229.1268" y="-911.6584" font-family="Times,serif" font-size="14.00" fill="#000000">BB_002DF389</text>
</g>
<!-- BB_002DF1B0&#45;&gt;BB_002DF389 -->
<g id="edge2" class="edge">
<title>BB_002DF1B0-&gt;BB_002DF389</title>
<path fill="none" stroke="#ff0000" d="M266.7673,-970.0606C260.8778,-961.5798 253.7182,-951.2699 247.2307,-941.928"/>
<polygon fill="#ff0000" stroke="#ff0000" points="250.0963,-939.9183 241.5175,-933.7009 244.3467,-943.9111 250.0963,-939.9183"/>
</g>
<!-- BB_002DF3ED -->
<g id="node4" class="node">
<title>BB_002DF3ED</title>
<ellipse fill="none" stroke="#000000" cx="392.1268" cy="-771.8584" rx="73.0402" ry="18"/>
<text text-anchor="middle" x="392.1268" y="-767.6584" font-family="Times,serif" font-size="14.00" fill="#000000">BB_002DF3ED</text>
</g>
<!-- BB_002DF1B0&#45;&gt;BB_002DF3ED -->
<g id="edge3" class="edge">
<title>BB_002DF1B0-&gt;BB_002DF3ED</title>
<path fill="none" stroke="#00ff00" d="M288.8588,-969.8932C294.5195,-959.4048 301.7695,-945.9048 308.1268,-933.8584 333.0516,-886.6295 361.5715,-831.3605 378.1459,-799.1156"/>
<polygon fill="#00ff00" stroke="#00ff00" points="381.433,-800.3765 382.889,-789.8822 375.2064,-797.178 381.433,-800.3765"/>
</g>
<!-- BB_002DF3D5 -->
<g id="node5" class="node">
<title>BB_002DF3D5</title>
<ellipse fill="none" stroke="#000000" cx="229.1268" cy="-843.8584" rx="72.3981" ry="18"/>
<text text-anchor="middle" x="229.1268" y="-839.6584" font-family="Times,serif" font-size="14.00" fill="#000000">BB_002DF3D5</text>
</g>
<!-- BB_002DF389&#45;&gt;BB_002DF3D5 -->
<g id="edge4" class="edge">
<title>BB_002DF389-&gt;BB_002DF3D5</title>
<path fill="none" stroke="#ff0000" d="M229.1268,-897.6898C229.1268,-889.9894 229.1268,-880.8327 229.1268,-872.275"/>
<polygon fill="#ff0000" stroke="#ff0000" points="232.6269,-872.2716 229.1268,-862.2717 225.6269,-872.2717 232.6269,-872.2716"/>
</g>
<!-- BB_002DF3E9 -->
<g id="node6" class="node">
<title>BB_002DF3E9</title>
<ellipse fill="none" stroke="#000000" cx="229.1268" cy="-699.8584" rx="71.2539" ry="18"/>
<text text-anchor="middle" x="229.1268" y="-695.6584" font-family="Times,serif" font-size="14.00" fill="#000000">BB_002DF3E9</text>
</g>
<!-- BB_002DF389&#45;&gt;BB_002DF3E9 -->
<g id="edge5" class="edge">
<title>BB_002DF389-&gt;BB_002DF3E9</title>
<path fill="none" stroke="#00ff00" d="M191.2482,-900.5814C174.8761,-891.8517 157.3777,-879.1438 148.1268,-861.8584 125.4777,-819.538 125.4777,-796.1788 148.1268,-753.8584 155.7154,-739.679 168.8539,-728.5798 182.3679,-720.2301"/>
<polygon fill="#00ff00" stroke="#00ff00" points="184.316,-723.1476 191.2482,-715.1354 180.8326,-717.0758 184.316,-723.1476"/>
</g>
<!-- BB_002DF3F0 -->
<g id="node8" class="node">
<title>BB_002DF3F0</title>
<ellipse fill="none" stroke="#000000" cx="278.1268" cy="-627.8584" rx="70.6916" ry="18"/>
<text text-anchor="middle" x="278.1268" y="-623.6584" font-family="Times,serif" font-size="14.00" fill="#000000">BB_002DF3F0</text>
</g>
<!-- BB_002DF3ED&#45;&gt;BB_002DF3F0 -->
<g id="edge11" class="edge">
<title>BB_002DF3ED-&gt;BB_002DF3F0</title>
<path fill="none" stroke="#0000ff" d="M377.9192,-753.9119C357.9278,-728.6596 321.3865,-682.5022 298.5036,-653.5975"/>
<polygon fill="#0000ff" stroke="#0000ff" points="301.1067,-651.2468 292.1555,-645.5788 295.6184,-655.5917 301.1067,-651.2468"/>
</g>
<!-- BB_002DF3D5&#45;&gt;BB_002DF3ED -->
<g id="edge7" class="edge">
<title>BB_002DF3D5-&gt;BB_002DF3ED</title>
<path fill="none" stroke="#00ff00" d="M264.8979,-828.0577C289.1025,-817.3661 321.2635,-803.16 347.1941,-791.706"/>
<polygon fill="#00ff00" stroke="#00ff00" points="348.7061,-794.8644 356.4392,-787.6222 345.8777,-788.4613 348.7061,-794.8644"/>
</g>
<!-- BB_002DF3D9 -->
<g id="node7" class="node">
<title>BB_002DF3D9</title>
<ellipse fill="none" stroke="#000000" cx="229.1268" cy="-771.8584" rx="72.3981" ry="18"/>
<text text-anchor="middle" x="229.1268" y="-767.6584" font-family="Times,serif" font-size="14.00" fill="#000000">BB_002DF3D9</text>
</g>
<!-- BB_002DF3D5&#45;&gt;BB_002DF3D9 -->
<g id="edge6" class="edge">
<title>BB_002DF3D5-&gt;BB_002DF3D9</title>
<path fill="none" stroke="#ff0000" d="M223.1745,-825.6898C222.424,-817.9894 222.2031,-808.8327 222.5118,-800.275"/>
<polygon fill="#ff0000" stroke="#ff0000" points="226.0061,-800.4745 223.1508,-790.2717 219.0203,-800.0281 226.0061,-800.4745"/>
</g>
<!-- BB_002DF3E9&#45;&gt;BB_002DF3F0 -->
<g id="edge10" class="edge">
<title>BB_002DF3E9-&gt;BB_002DF3F0</title>
<path fill="none" stroke="#0000ff" d="M241.2392,-682.0606C246.952,-673.6663 253.8843,-663.4802 260.1902,-654.2142"/>
<polygon fill="#0000ff" stroke="#0000ff" points="263.2512,-655.9373 265.984,-645.7009 257.4642,-651.9989 263.2512,-655.9373"/>
</g>
<!-- BB_002DF3D9&#45;&gt;BB_002DF3D5 -->
<g id="edge9" class="edge">
<title>BB_002DF3D9-&gt;BB_002DF3D5</title>
<path fill="none" stroke="#00ff00" d="M235.1029,-790.2717C235.834,-797.9177 236.0471,-806.9668 235.7423,-815.431"/>
<polygon fill="#00ff00" stroke="#00ff00" points="232.2316,-815.4848 235.0792,-825.6898 239.2171,-815.9364 232.2316,-815.4848"/>
</g>
<!-- BB_002DF3D9&#45;&gt;BB_002DF3E9 -->
<g id="edge8" class="edge">
<title>BB_002DF3D9-&gt;BB_002DF3E9</title>
<path fill="none" stroke="#ff0000" d="M229.1268,-753.6898C229.1268,-745.9894 229.1268,-736.8327 229.1268,-728.275"/>
<polygon fill="#ff0000" stroke="#ff0000" points="232.6269,-728.2716 229.1268,-718.2717 225.6269,-728.2717 232.6269,-728.2716"/>
</g>
<!-- BB_002DF42C -->
<g id="node9" class="node">
<title>BB_002DF42C</title>
<ellipse fill="none" stroke="#000000" cx="228.1268" cy="-555.8584" rx="71.8357" ry="18"/>
<text text-anchor="middle" x="228.1268" y="-551.6584" font-family="Times,serif" font-size="14.00" fill="#000000">BB_002DF42C</text>
</g>
<!-- BB_002DF3F0&#45;&gt;BB_002DF42C -->
<g id="edge12" class="edge">
<title>BB_002DF3F0-&gt;BB_002DF42C</title>
<path fill="none" stroke="#ff0000" d="M265.7673,-610.0606C259.8778,-601.5798 252.7182,-591.2699 246.2307,-581.928"/>
<polygon fill="#ff0000" stroke="#ff0000" points="249.0963,-579.9183 240.5175,-573.7009 243.3467,-583.9111 249.0963,-579.9183"/>
</g>
<!-- BB_002DF45B -->
<g id="node10" class="node">
<title>BB_002DF45B</title>
<ellipse fill="none" stroke="#000000" cx="279.1268" cy="-323.0365" rx="71.8357" ry="18"/>
<text text-anchor="middle" x="279.1268" y="-318.8365" font-family="Times,serif" font-size="14.00" fill="#000000">BB_002DF45B</text>
</g>
<!-- BB_002DF3F0&#45;&gt;BB_002DF45B -->
<g id="edge13" class="edge">
<title>BB_002DF3F0-&gt;BB_002DF45B</title>
<path fill="none" stroke="#00ff00" d="M291.5987,-609.9237C298.2924,-599.8845 305.6735,-586.8103 309.1268,-573.8584 329.7373,-496.5589 325.0471,-472.2583 309.1268,-393.8584 306.0776,-378.8422 299.7343,-363.0582 293.6627,-350.2117"/>
<polygon fill="#00ff00" stroke="#00ff00" points="296.6931,-348.4433 289.1317,-341.022 290.4148,-351.5388 296.6931,-348.4433"/>
</g>
<!-- BB_002DF43D -->
<g id="node11" class="node">
<title>BB_002DF43D</title>
<ellipse fill="none" stroke="#000000" cx="130.1268" cy="-483.8584" rx="72.3981" ry="18"/>
<text text-anchor="middle" x="130.1268" y="-479.6584" font-family="Times,serif" font-size="14.00" fill="#000000">BB_002DF43D</text>
</g>
<!-- BB_002DF42C&#45;&gt;BB_002DF43D -->
<g id="edge14" class="edge">
<title>BB_002DF42C-&gt;BB_002DF43D</title>
<path fill="none" stroke="#ff0000" d="M204.9022,-538.7954C192.059,-529.3596 175.9131,-517.4973 161.9144,-507.2125"/>
<polygon fill="#ff0000" stroke="#ff0000" points="163.6555,-504.1486 153.5244,-501.0484 159.5109,-509.7898 163.6555,-504.1486"/>
</g>
<!-- BB_002DF451 -->
<g id="node12" class="node">
<title>BB_002DF451</title>
<ellipse fill="none" stroke="#000000" cx="230.1268" cy="-411.8584" rx="70.1118" ry="18"/>
<text text-anchor="middle" x="230.1268" y="-407.6584" font-family="Times,serif" font-size="14.00" fill="#000000">BB_002DF451</text>
</g>
<!-- BB_002DF42C&#45;&gt;BB_002DF451 -->
<g id="edge15" class="edge">
<title>BB_002DF42C-&gt;BB_002DF451</title>
<path fill="none" stroke="#00ff00" d="M228.3801,-537.6207C228.7213,-513.0594 229.3317,-469.1058 229.733,-440.2125"/>
<polygon fill="#00ff00" stroke="#00ff00" points="233.2363,-439.9957 229.8756,-429.948 226.237,-439.8984 233.2363,-439.9957"/>
</g>
<!-- BB_002DF4B3 -->
<g id="node14" class="node">
<title>BB_002DF4B3</title>
<ellipse fill="none" stroke="#000000" cx="229.1268" cy="-234.2146" rx="71.8357" ry="18"/>
<text text-anchor="middle" x="229.1268" y="-230.0146" font-family="Times,serif" font-size="14.00" fill="#000000">BB_002DF4B3</text>
</g>
<!-- BB_002DF45B&#45;&gt;BB_002DF4B3 -->
<g id="edge19" class="edge">
<title>BB_002DF45B-&gt;BB_002DF4B3</title>
<path fill="none" stroke="#ff0000" d="M269.0086,-305.0621C261.8926,-292.4209 252.2474,-275.2867 244.2248,-261.0352"/>
<polygon fill="#ff0000" stroke="#ff0000" points="247.1855,-259.1596 239.23,-252.1623 241.0855,-262.5934 247.1855,-259.1596"/>
</g>
<!-- BB_002DF4C6 -->
<g id="node15" class="node">
<title>BB_002DF4C6</title>
<ellipse fill="none" stroke="#000000" cx="291.1268" cy="-90.2146" rx="71.8357" ry="18"/>
<text text-anchor="middle" x="291.1268" y="-86.0146" font-family="Times,serif" font-size="14.00" fill="#000000">BB_002DF4C6</text>
</g>
<!-- BB_002DF45B&#45;&gt;BB_002DF4C6 -->
<g id="edge20" class="edge">
<title>BB_002DF45B-&gt;BB_002DF4C6</title>
<path fill="none" stroke="#00ff00" d="M289.4624,-305.0933C296.8542,-291.1759 306.1679,-271.1321 310.1268,-252.2146 319.8622,-205.695 308.6657,-150.5413 299.7992,-118.07"/>
<polygon fill="#00ff00" stroke="#00ff00" points="303.1396,-117.0211 297.0317,-108.3641 296.4079,-118.9405 303.1396,-117.0211"/>
</g>
<!-- BB_002DF43D&#45;&gt;BB_002DF451 -->
<g id="edge16" class="edge">
<title>BB_002DF43D-&gt;BB_002DF451</title>
<path fill="none" stroke="#ff0000" d="M153.8254,-466.7954C167.0544,-457.2706 183.7173,-445.2733 198.0943,-434.9219"/>
<polygon fill="#ff0000" stroke="#ff0000" points="200.1815,-437.7319 206.2518,-429.0484 196.0914,-432.0511 200.1815,-437.7319"/>
</g>
<!-- BB_002DF4E3 -->
<g id="node13" class="node">
<title>BB_002DF4E3</title>
<ellipse fill="none" stroke="#000000" cx="71.1268" cy="-411.8584" rx="71.2539" ry="18"/>
<text text-anchor="middle" x="71.1268" y="-407.6584" font-family="Times,serif" font-size="14.00" fill="#000000">BB_002DF4E3</text>
</g>
<!-- BB_002DF43D&#45;&gt;BB_002DF4E3 -->
<g id="edge17" class="edge">
<title>BB_002DF43D-&gt;BB_002DF4E3</title>
<path fill="none" stroke="#00ff00" d="M115.5426,-466.0606C108.5221,-457.4932 99.9721,-447.0593 92.2553,-437.6423"/>
<polygon fill="#00ff00" stroke="#00ff00" points="94.7933,-435.2174 85.7478,-429.7009 89.3789,-439.6541 94.7933,-435.2174"/>
</g>
<!-- BB_002DF451&#45;&gt;BB_002DF45B -->
<g id="edge18" class="edge">
<title>BB_002DF451-&gt;BB_002DF45B</title>
<path fill="none" stroke="#0000ff" d="M240.0427,-393.884C247.0164,-381.2428 256.4688,-364.1086 264.3309,-349.8571"/>
<polygon fill="#0000ff" stroke="#0000ff" points="267.4599,-351.4309 269.2257,-340.9842 261.3307,-348.0496 267.4599,-351.4309"/>
</g>
<!-- dead_end -->
<g id="node18" class="node">
<title>dead_end</title>
<polygon fill="none" stroke="#000000" points="105.7716,-357.6812 36.4821,-357.6812 36.4821,-288.3918 105.7716,-288.3918 105.7716,-357.6812"/>
<polyline fill="none" stroke="#000000" points="48.4821,-357.6812 36.4821,-345.6812 "/>
<polyline fill="none" stroke="#000000" points="36.4821,-300.3918 48.4821,-288.3918 "/>
<polyline fill="none" stroke="#000000" points="93.7716,-288.3918 105.7716,-300.3918 "/>
<polyline fill="none" stroke="#000000" points="105.7716,-345.6812 93.7716,-357.6812 "/>
<text text-anchor="middle" x="71.1268" y="-318.8365" font-family="Times,serif" font-size="14.00" fill="#000000">dead_end</text>
</g>
<!-- BB_002DF4E3&#45;&gt;dead_end -->
<g id="edge25" class="edge">
<title>BB_002DF4E3-&gt;dead_end</title>
<path fill="none" stroke="#000000" d="M71.1268,-393.4544C71.1268,-385.9968 71.1268,-377.0284 71.1268,-368.0283"/>
<polygon fill="#000000" stroke="#000000" points="74.6269,-367.9321 71.1268,-357.9321 67.6269,-367.9322 74.6269,-367.9321"/>
</g>
<!-- BB_002DF4B3&#45;&gt;BB_002DF4C6 -->
<g id="edge22" class="edge">
<title>BB_002DF4B3-&gt;BB_002DF4C6</title>
<path fill="none" stroke="#00ff00" d="M246.5829,-216.6718C255.5071,-206.7474 265.7936,-193.6579 272.1268,-180.2146 281.3435,-160.6509 286.1259,-136.6003 288.5863,-118.2845"/>
<polygon fill="#00ff00" stroke="#00ff00" points="292.0752,-118.5842 289.7826,-108.2404 285.1244,-117.7563 292.0752,-118.5842"/>
</g>
<!-- BB_002DF4BE -->
<g id="node16" class="node">
<title>BB_002DF4BE</title>
<ellipse fill="none" stroke="#000000" cx="190.1268" cy="-162.2146" rx="72.978" ry="18"/>
<text text-anchor="middle" x="190.1268" y="-158.0146" font-family="Times,serif" font-size="14.00" fill="#000000">BB_002DF4BE</text>
</g>
<!-- BB_002DF4B3&#45;&gt;BB_002DF4BE -->
<g id="edge21" class="edge">
<title>BB_002DF4B3-&gt;BB_002DF4BE</title>
<path fill="none" stroke="#ff0000" d="M219.2855,-216.046C214.8641,-207.8834 209.5564,-198.0846 204.6883,-189.0973"/>
<polygon fill="#ff0000" stroke="#ff0000" points="207.6704,-187.2539 199.8299,-180.128 201.5153,-190.588 207.6704,-187.2539"/>
</g>
<!-- end -->
<g id="node17" class="node">
<title>end</title>
<polygon fill="none" stroke="#000000" points="309.3421,-36.3225 272.9116,-36.3225 272.9116,.1079 309.3421,.1079 309.3421,-36.3225"/>
<polyline fill="none" stroke="#000000" points="284.9116,-36.3225 272.9116,-24.3225 "/>
<polyline fill="none" stroke="#000000" points="272.9116,-11.8921 284.9116,.1079 "/>
<polyline fill="none" stroke="#000000" points="297.3421,.1079 309.3421,-11.8921 "/>
<polyline fill="none" stroke="#000000" points="309.3421,-24.3225 297.3421,-36.3225 "/>
<text text-anchor="middle" x="291.1268" y="-13.9073" font-family="Times,serif" font-size="14.00" fill="#000000">end</text>
</g>
<!-- BB_002DF4C6&#45;&gt;end -->
<g id="edge24" class="edge">
<title>BB_002DF4C6-&gt;end</title>
<path fill="none" stroke="#000000" d="M291.1268,-72.0189C291.1268,-64.2477 291.1268,-54.9956 291.1268,-46.3686"/>
<polygon fill="#000000" stroke="#000000" points="294.6269,-46.2972 291.1268,-36.2972 287.6269,-46.2972 294.6269,-46.2972"/>
</g>
<!-- BB_002DF4BE&#45;&gt;BB_002DF4C6 -->
<g id="edge23" class="edge">
<title>BB_002DF4BE-&gt;BB_002DF4C6</title>
<path fill="none" stroke="#0000ff" d="M214.0624,-145.1516C227.4237,-135.6268 244.2532,-123.6295 258.7739,-113.2781"/>
<polygon fill="#0000ff" stroke="#0000ff" points="260.9019,-116.0594 267.013,-107.4046 256.8386,-110.3594 260.9019,-116.0594"/>
</g>
</g>
</svg>