<?xml version="1.0" encoding="UTF-8" standalone="no"?><!DOCTYPE svg PUBLIC "-//W3C//DTD SVG 1.1//EN" "http://www.w3.org/Graphics/SVG/1.1/DTD/svg11.dtd"><!-- Generated by graphviz version 2.40.1 (20161225.0304)
 --><!-- Title: G Pages: 1 --><svg xmlns="http://www.w3.org/2000/svg" xmlns:xlink="http://www.w3.org/1999/xlink" width="638pt" height="1518pt" viewBox="0.00 0.00 637.57 1517.86">
<g id="graph0" class="graph" transform="scale(1 1) rotate(0) translate(4 1513.8584)">
<title>G</title>
<polygon fill="#ffffff" stroke="transparent" points="-4,4 -4,-1513.8584 633.572,-1513.8584 633.572,4 -4,4"/>
<!-- start -->
<g id="node1" class="node">
<title>start</title>
<polygon fill="none" stroke="#000000" points="127.5161,-1509.8584 88.2788,-1491.8584 127.5161,-1473.8584 166.7534,-1491.8584 127.5161,-1509.8584"/>
<polyline fill="none" stroke="#000000" points="99.1858,-1496.862 99.1858,-1486.8548 "/>
<polyline fill="none" stroke="#000000" points="116.609,-1478.862 138.4231,-1478.862 "/>
<polyline fill="none" stroke="#000000" points="155.8463,-1486.8548 155.8463,-1496.862 "/>
<polyline fill="none" stroke="#000000" points="138.4231,-1504.8548 116.609,-1504.8548 "/>
<text text-anchor="middle" x="127.5161" y="-1487.6584" font-family="Times,serif" font-size="14.00" fill="#000000">start</text>
</g>
<!-- BB_002D42B0 -->
<g id="node2" class="node">
<title>BB_002D42B0</title>
<ellipse fill="none" stroke="#000000" cx="127.5161" cy="-1419.8584" rx="71.2559" ry="18"/>
<text text-anchor="middle" x="127.5161" y="-1415.6584" font-family="Times,serif" font-size="14.00" fill="#000000">BB_002D42B0</text>
</g>
<!-- start&#45;&gt;BB_002D42B0 -->
<g id="edge1" class="edge">
<title>start-&gt;BB_002D42B0</title>
<path fill="none" stroke="#000000" d="M127.5161,-1473.6898C127.5161,-1465.9894 127.5161,-1456.8327 127.5161,-1448.275"/>
<polygon fill="#000000" stroke="#000000" points="131.0162,-1448.2716 127.5161,-1438.2717 124.0162,-1448.2717 131.0162,-1448.2716"/>
</g>
<!-- BB_002D42E8 -->
<g id="node3" class="node">
<title>BB_002D42E8</title>
<ellipse fill="none" stroke="#000000" cx="78.5161" cy="-1347.8584" rx="70.6742" ry="18"/>
<text text-anchor="middle" x="78.5161" y="-1343.6584" font-family="Times,serif" font-size="14.00" fill="#000000">BB_002D42E8</text>
</g>
<!-- BB_002D42B0&#45;&gt;BB_002D42E8 -->
<g id="edge2" class="edge">
<title>BB_002D42B0-&gt;BB_002D42E8</title>
<path fill="none" stroke="#ff0000" d="M115.4037,-1402.0606C109.6909,-1393.6663 102.7586,-1383.4802 96.4527,-1374.2142"/>
<polygon fill="#ff0000" stroke="#ff0000" points="99.1787,-1371.9989 90.6589,-1365.7009 93.3917,-1375.9373 99.1787,-1371.9989"/>
</g>
<!-- BB_002D42ED -->
<g id="node4" class="node">
<title>BB_002D42ED</title>
<ellipse fill="none" stroke="#000000" cx="127.5161" cy="-1275.8584" rx="72.9605" ry="18"/>
<text text-anchor="middle" x="127.5161" y="-1271.6584" font-family="Times,serif" font-size="14.00" fill="#000000">BB_002D42ED</text>
</g>
<!-- BB_002D42B0&#45;&gt;BB_002D42ED -->
<g id="edge3" class="edge">
<title>BB_002D42B0-&gt;BB_002D42ED</title>
<path fill="none" stroke="#00ff00" d="M140.988,-1401.9237C147.6816,-1391.8845 155.0627,-1378.8103 158.5161,-1365.8584 162.6382,-1350.3985 162.6382,-1345.3183 158.5161,-1329.8584 155.98,-1320.3468 151.3257,-1310.7693 146.381,-1302.3763"/>
<polygon fill="#00ff00" stroke="#00ff00" points="149.2717,-1300.3983 140.988,-1293.7931 143.3446,-1304.1225 149.2717,-1300.3983"/>
</g>
<!-- BB_002D42E8&#45;&gt;BB_002D42ED -->
<g id="edge4" class="edge">
<title>BB_002D42E8-&gt;BB_002D42ED</title>
<path fill="none" stroke="#0000ff" d="M90.6284,-1330.0606C96.3412,-1321.6663 103.2735,-1311.4802 109.5794,-1302.2142"/>
<polygon fill="#0000ff" stroke="#0000ff" points="112.6404,-1303.9373 115.3732,-1293.7009 106.8534,-1299.9989 112.6404,-1303.9373"/>
</g>
<!-- BB_002D42F9 -->
<g id="node5" class="node">
<title>BB_002D42F9</title>
<ellipse fill="none" stroke="#000000" cx="78.5161" cy="-1203.8584" rx="70.1118" ry="18"/>
<text text-anchor="middle" x="78.5161" y="-1199.6584" font-family="Times,serif" font-size="14.00" fill="#000000">BB_002D42F9</text>
</g>
<!-- BB_002D42ED&#45;&gt;BB_002D42F9 -->
<g id="edge5" class="edge">
<title>BB_002D42ED-&gt;BB_002D42F9</title>
<path fill="none" stroke="#ff0000" d="M115.4037,-1258.0606C109.6909,-1249.6663 102.7586,-1239.4802 96.4527,-1230.2142"/>
<polygon fill="#ff0000" stroke="#ff0000" points="99.1787,-1227.9989 90.6589,-1221.7009 93.3917,-1231.9373 99.1787,-1227.9989"/>
</g>
<!-- BB_002D4315 -->
<g id="node6" class="node">
<title>BB_002D4315</title>
<ellipse fill="none" stroke="#000000" cx="127.5161" cy="-987.8584" rx="69.5321" ry="18"/>
<text text-anchor="middle" x="127.5161" y="-983.6584" font-family="Times,serif" font-size="14.00" fill="#000000">BB_002D4315</text>
</g>
<!-- BB_002D42ED&#45;&gt;BB_002D4315 -->
<g id="edge6" class="edge">
<title>BB_002D42ED-&gt;BB_002D4315</title>
<path fill="none" stroke="#00ff00" d="M139.9254,-1257.6759C146.2192,-1247.5641 153.3868,-1234.4996 157.5161,-1221.8584 167.5296,-1191.2034 164.5122,-1182.0451 166.5161,-1149.8584 169.509,-1101.7851 172.4721,-1087.644 157.5161,-1041.8584 154.4836,-1032.575 149.8126,-1023.0634 145.0524,-1014.6605"/>
<polygon fill="#00ff00" stroke="#00ff00" points="148.0457,-1012.8462 139.9254,-1006.0409 142.0295,-1016.4247 148.0457,-1012.8462"/>
</g>
<!-- BB_002D4300 -->
<g id="node7" class="node">
<title>BB_002D4300</title>
<ellipse fill="none" stroke="#000000" cx="69.5161" cy="-1131.8584" rx="69.5321" ry="18"/>
<text text-anchor="middle" x="69.5161" y="-1127.6584" font-family="Times,serif" font-size="14.00" fill="#000000">BB_002D4300</text>
</g>
<!-- BB_002D42F9&#45;&gt;BB_002D4300 -->
<g id="edge7" class="edge">
<title>BB_002D42F9-&gt;BB_002D4300</title>
<path fill="none" stroke="#0000ff" d="M76.245,-1185.6898C75.2824,-1177.9894 74.1379,-1168.8327 73.0681,-1160.275"/>
<polygon fill="#0000ff" stroke="#0000ff" points="76.5311,-1159.7603 71.8177,-1150.2717 69.5852,-1160.6286 76.5311,-1159.7603"/>
</g>
<!-- BB_002D4329 -->
<g id="node9" class="node">
<title>BB_002D4329</title>
<ellipse fill="none" stroke="#000000" cx="77.5161" cy="-666.2146" rx="69.5321" ry="18"/>
<text text-anchor="middle" x="77.5161" y="-662.0146" font-family="Times,serif" font-size="14.00" fill="#000000">BB_002D4329</text>
</g>
<!-- BB_002D4315&#45;&gt;BB_002D4329 -->
<g id="edge11" class="edge">
<title>BB_002D4315-&gt;BB_002D4329</title>
<path fill="none" stroke="#ff0000" d="M115.3014,-969.6916C109.1534,-959.5844 102.2332,-946.5193 98.5161,-933.8584 73.7976,-849.6656 74.0779,-744.5589 75.9569,-694.8306"/>
<polygon fill="#ff0000" stroke="#ff0000" points="79.4669,-694.6723 76.4006,-684.531 72.4734,-694.371 79.4669,-694.6723"/>
</g>
<!-- BB_002D4345 -->
<g id="node10" class="node">
<title>BB_002D4345</title>
<ellipse fill="none" stroke="#000000" cx="177.5161" cy="-915.8584" rx="69.5321" ry="18"/>
<text text-anchor="middle" x="177.5161" y="-911.6584" font-family="Times,serif" font-size="14.00" fill="#000000">BB_002D4345</text>
</g>
<!-- BB_002D4315&#45;&gt;BB_002D4345 -->
<g id="edge12" class="edge">
<title>BB_002D4315-&gt;BB_002D4345</title>
<path fill="none" stroke="#00ff00" d="M139.8756,-970.0606C145.7651,-961.5798 152.9247,-951.2699 159.4122,-941.928"/>
<polygon fill="#00ff00" stroke="#00ff00" points="162.2962,-943.9111 165.1254,-933.7009 156.5466,-939.9183 162.2962,-943.9111"/>
</g>
<!-- BB_002D4300&#45;&gt;BB_002D4300 -->
<g id="edge9" class="edge">
<title>BB_002D4300-&gt;BB_002D4300</title>
<path fill="none" stroke="#00ff00" d="M116.7818,-1145.1203C138.3144,-1146.4743 157.0321,-1142.0537 157.0321,-1131.8584 157.0321,-1123.3358 143.9524,-1118.8484 127.0823,-1118.3964"/>
<polygon fill="#00ff00" stroke="#00ff00" points="126.7118,-1114.9028 116.7818,-1118.5965 126.8479,-1121.9015 126.7118,-1114.9028"/>
</g>
<!-- BB_002D4312 -->
<g id="node8" class="node">
<title>BB_002D4312</title>
<ellipse fill="none" stroke="#000000" cx="78.5161" cy="-1059.8584" rx="69.5321" ry="18"/>
<text text-anchor="middle" x="78.5161" y="-1055.6584" font-family="Times,serif" font-size="14.00" fill="#000000">BB_002D4312</text>
</g>
<!-- BB_002D4300&#45;&gt;BB_002D4312 -->
<g id="edge8" class="edge">
<title>BB_002D4300-&gt;BB_002D4312</title>
<path fill="none" stroke="#ff0000" d="M71.7871,-1113.6898C72.7497,-1105.9894 73.8943,-1096.8327 74.964,-1088.275"/>
<polygon fill="#ff0000" stroke="#ff0000" points="78.4469,-1088.6286 76.2144,-1078.2717 71.501,-1087.7603 78.4469,-1088.6286"/>
</g>
<!-- BB_002D4312&#45;&gt;BB_002D4315 -->
<g id="edge10" class="edge">
<title>BB_002D4312-&gt;BB_002D4315</title>
<path fill="none" stroke="#0000ff" d="M90.6284,-1042.0606C96.3412,-1033.6663 103.2735,-1023.4802 109.5794,-1014.2142"/>
<polygon fill="#0000ff" stroke="#0000ff" points="112.6404,-1015.9373 115.3732,-1005.7009 106.8534,-1011.9989 112.6404,-1015.9373"/>
</g>
<!-- end -->
<g id="node11" class="node">
<title>end</title>
<polygon fill="none" stroke="#000000" points="145.7313,-36.3225 109.3008,-36.3225 109.3008,.1079 145.7313,.1079 145.7313,-36.3225"/>
<polyline fill="none" stroke="#000000" points="121.3008,-36.3225 109.3008,-24.3225 "/>
<polyline fill="none" stroke="#000000" points="109.3008,-11.8921 121.3008,.1079 "/>
<polyline fill="none" stroke="#000000" points="133.7313,.1079 145.7313,-11.8921 "/>
<polyline fill="none" stroke="#000000" points="145.7313,-24.3225 133.7313,-36.3225 "/>
<text text-anchor="middle" x="127.5161" y="-13.9073" font-family="Times,serif" font-size="14.00" fill="#000000">end</text>
</g>
<!-- BB_002D4329&#45;&gt;end -->
<g id="edge13" class="edge">
<title>BB_002D4329-&gt;end</title>
<path fill="none" stroke="#000000" d="M77.5161,-648.0292C77.5161,-620.7129 77.5161,-567.4646 77.5161,-522.2146 77.5161,-522.2146 77.5161,-522.2146 77.5161,-162.2146 77.5161,-119.6265 97.2481,-73.6759 111.9207,-45.3944"/>
<polygon fill="#000000" stroke="#000000" points="115.0415,-46.9805 116.6668,-36.5111 108.8674,-43.6818 115.0415,-46.9805"/>
</g>
<!-- BB_002D4352 -->
<g id="node12" class="node">
<title>BB_002D4352</title>
<ellipse fill="none" stroke="#000000" cx="337.5161" cy="-843.8584" rx="69.5321" ry="18"/>
<text text-anchor="middle" x="337.5161" y="-839.6584" font-family="Times,serif" font-size="14.00" fill="#000000">BB_002D4352</text>
</g>
<!-- BB_002D4345&#45;&gt;BB_002D4352 -->
<g id="edge14" class="edge">
<title>BB_002D4345-&gt;BB_002D4352</title>
<path fill="none" stroke="#ff0000" d="M212.2337,-900.2355C236.0539,-889.5164 267.8603,-875.2035 293.4642,-863.6817"/>
<polygon fill="#ff0000" stroke="#ff0000" points="294.9074,-866.8704 302.5903,-859.575 292.0348,-860.487 294.9074,-866.8704"/>
</g>
<!-- BB_002D44FA -->
<g id="node13" class="node">
<title>BB_002D44FA</title>
<ellipse fill="none" stroke="#000000" cx="177.5161" cy="-843.8584" rx="72.3981" ry="18"/>
<text text-anchor="middle" x="177.5161" y="-839.6584" font-family="Times,serif" font-size="14.00" fill="#000000">BB_002D44FA</text>
</g>
<!-- BB_002D4345&#45;&gt;BB_002D44FA -->
<g id="edge15" class="edge">
<title>BB_002D4345-&gt;BB_002D44FA</title>
<path fill="none" stroke="#00ff00" d="M177.5161,-897.6898C177.5161,-889.9894 177.5161,-880.8327 177.5161,-872.275"/>
<polygon fill="#00ff00" stroke="#00ff00" points="181.0162,-872.2716 177.5161,-862.2717 174.0162,-872.2717 181.0162,-872.2716"/>
</g>
<!-- BB_002D4419 -->
<g id="node14" class="node">
<title>BB_002D4419</title>
<ellipse fill="none" stroke="#000000" cx="363.5161" cy="-755.0365" rx="69.5321" ry="18"/>
<text text-anchor="middle" x="363.5161" y="-750.8365" font-family="Times,serif" font-size="14.00" fill="#000000">BB_002D4419</text>
</g>
<!-- BB_002D4352&#45;&gt;BB_002D4419 -->
<g id="edge16" class="edge">
<title>BB_002D4352-&gt;BB_002D4419</title>
<path fill="none" stroke="#ff0000" d="M342.7776,-825.884C346.3835,-813.5651 351.2385,-796.9796 355.3444,-782.9529"/>
<polygon fill="#ff0000" stroke="#ff0000" points="358.7228,-783.8696 358.1732,-773.2891 352.0047,-781.9031 358.7228,-783.8696"/>
</g>
<!-- BB_002D4489 -->
<g id="node15" class="node">
<title>BB_002D4489</title>
<ellipse fill="none" stroke="#000000" cx="265.5161" cy="-594.2146" rx="69.5321" ry="18"/>
<text text-anchor="middle" x="265.5161" y="-590.0146" font-family="Times,serif" font-size="14.00" fill="#000000">BB_002D4489</text>
</g>
<!-- BB_002D4352&#45;&gt;BB_002D4489 -->
<g id="edge17" class="edge">
<title>BB_002D4352-&gt;BB_002D4489</title>
<path fill="none" stroke="#00ff00" d="M314.4497,-826.6633C303.4427,-817.1147 291.2349,-804.2632 284.5161,-789.8584 258.8701,-734.8748 259.6815,-661.9028 262.5712,-622.4456"/>
<polygon fill="#00ff00" stroke="#00ff00" points="266.0783,-622.5043 263.4211,-612.2481 259.1025,-621.9229 266.0783,-622.5043"/>
</g>
<!-- dead_end -->
<g id="node27" class="node">
<title>dead_end</title>
<polygon fill="none" stroke="#000000" points="212.1608,-789.6812 142.8714,-789.6812 142.8714,-720.3918 212.1608,-720.3918 212.1608,-789.6812"/>
<polyline fill="none" stroke="#000000" points="154.8714,-789.6812 142.8714,-777.6812 "/>
<polyline fill="none" stroke="#000000" points="142.8714,-732.3918 154.8714,-720.3918 "/>
<polyline fill="none" stroke="#000000" points="200.1608,-720.3918 212.1608,-732.3918 "/>
<polyline fill="none" stroke="#000000" points="212.1608,-777.6812 200.1608,-789.6812 "/>
<text text-anchor="middle" x="177.5161" y="-750.8365" font-family="Times,serif" font-size="14.00" fill="#000000">dead_end</text>
</g>
<!-- BB_002D44FA&#45;&gt;dead_end -->
<g id="edge37" class="edge">
<title>BB_002D44FA-&gt;dead_end</title>
<path fill="none" stroke="#000000" d="M177.5161,-825.4544C177.5161,-817.9968 177.5161,-809.0284 177.5161,-800.0283"/>
<polygon fill="#000000" stroke="#000000" points="181.0162,-799.9321 177.5161,-789.9321 174.0162,-799.9322 181.0162,-799.9321"/>
</g>
<!-- BB_002D4458 -->
<g id="node16" class="node">
<title>BB_002D4458</title>
<ellipse fill="none" stroke="#000000" cx="461.5161" cy="-666.2146" rx="69.5321" ry="18"/>
<text text-anchor="middle" x="461.5161" y="-662.0146" font-family="Times,serif" font-size="14.00" fill="#000000">BB_002D4458</text>
</g>
<!-- BB_002D4419&#45;&gt;BB_002D4458 -->
<g id="edge18" class="edge">
<title>BB_002D4419-&gt;BB_002D4458</title>
<path fill="none" stroke="#ff0000" d="M382.8777,-737.4882C397.6424,-724.1062 418.1579,-705.5121 434.5323,-690.6712"/>
<polygon fill="#ff0000" stroke="#ff0000" points="437.1356,-693.0354 442.1946,-683.7265 432.4346,-687.8488 437.1356,-693.0354"/>
</g>
<!-- BB_002D4468 -->
<g id="node17" class="node">
<title>BB_002D4468</title>
<ellipse fill="none" stroke="#000000" cx="424.5161" cy="-450.2146" rx="69.5321" ry="18"/>
<text text-anchor="middle" x="424.5161" y="-446.0146" font-family="Times,serif" font-size="14.00" fill="#000000">BB_002D4468</text>
</g>
<!-- BB_002D4419&#45;&gt;BB_002D4468 -->
<g id="edge19" class="edge">
<title>BB_002D4419-&gt;BB_002D4468</title>
<path fill="none" stroke="#00ff00" d="M361.4249,-736.9352C357.2547,-694.5631 350.833,-586.3084 382.5161,-504.2146 386.4696,-493.9705 393.0455,-484.0827 399.8339,-475.6298"/>
<polygon fill="#00ff00" stroke="#00ff00" points="402.5116,-477.8837 406.3288,-468.0004 397.1814,-473.3461 402.5116,-477.8837"/>
</g>
<!-- BB_002D448C -->
<g id="node20" class="node">
<title>BB_002D448C</title>
<ellipse fill="none" stroke="#000000" cx="327.5161" cy="-378.2146" rx="71.2559" ry="18"/>
<text text-anchor="middle" x="327.5161" y="-374.0146" font-family="Times,serif" font-size="14.00" fill="#000000">BB_002D448C</text>
</g>
<!-- BB_002D4489&#45;&gt;BB_002D448C -->
<g id="edge26" class="edge">
<title>BB_002D4489-&gt;BB_002D448C</title>
<path fill="none" stroke="#0000ff" d="M270.6955,-576.1701C281.5227,-538.4496 306.6144,-451.0334 319.525,-406.0545"/>
<polygon fill="#0000ff" stroke="#0000ff" points="322.9129,-406.9372 322.3078,-396.3597 316.1846,-405.0059 322.9129,-406.9372"/>
</g>
<!-- BB_002D445F -->
<g id="node18" class="node">
<title>BB_002D445F</title>
<ellipse fill="none" stroke="#000000" cx="559.5161" cy="-594.2146" rx="70.1118" ry="18"/>
<text text-anchor="middle" x="559.5161" y="-590.0146" font-family="Times,serif" font-size="14.00" fill="#000000">BB_002D445F</text>
</g>
<!-- BB_002D4458&#45;&gt;BB_002D445F -->
<g id="edge20" class="edge">
<title>BB_002D4458-&gt;BB_002D445F</title>
<path fill="none" stroke="#ff0000" d="M484.7407,-649.1516C497.5839,-639.7158 513.7298,-627.8535 527.7285,-617.5687"/>
<polygon fill="#ff0000" stroke="#ff0000" points="530.132,-620.146 536.1185,-611.4046 525.9874,-614.5048 530.132,-620.146"/>
</g>
<!-- BB_002D4466 -->
<g id="node19" class="node">
<title>BB_002D4466</title>
<ellipse fill="none" stroke="#000000" cx="461.5161" cy="-522.2146" rx="69.5321" ry="18"/>
<text text-anchor="middle" x="461.5161" y="-518.0146" font-family="Times,serif" font-size="14.00" fill="#000000">BB_002D4466</text>
</g>
<!-- BB_002D4458&#45;&gt;BB_002D4466 -->
<g id="edge21" class="edge">
<title>BB_002D4458-&gt;BB_002D4466</title>
<path fill="none" stroke="#00ff00" d="M461.5161,-647.9769C461.5161,-623.4156 461.5161,-579.462 461.5161,-550.5687"/>
<polygon fill="#00ff00" stroke="#00ff00" points="465.0162,-550.3042 461.5161,-540.3042 458.0162,-550.3043 465.0162,-550.3042"/>
</g>
<!-- BB_002D4468&#45;&gt;BB_002D448C -->
<g id="edge25" class="edge">
<title>BB_002D4468-&gt;BB_002D448C</title>
<path fill="none" stroke="#0000ff" d="M401.5284,-433.1516C388.8163,-423.7158 372.8351,-411.8535 358.9793,-401.5687"/>
<polygon fill="#0000ff" stroke="#0000ff" points="360.7907,-398.5545 350.6749,-395.4046 356.6185,-404.1753 360.7907,-398.5545"/>
</g>
<!-- BB_002D445F&#45;&gt;BB_002D4468 -->
<g id="edge23" class="edge">
<title>BB_002D445F-&gt;BB_002D4468</title>
<path fill="none" stroke="#00ff00" d="M560.2355,-576.0022C560.0651,-556.2672 556.9114,-524.8419 540.5161,-504.2146 526.4954,-486.575 505.3736,-474.4361 484.9793,-466.2083"/>
<polygon fill="#00ff00" stroke="#00ff00" points="485.9674,-462.8404 475.3756,-462.5871 483.4977,-469.3902 485.9674,-462.8404"/>
</g>
<!-- BB_002D445F&#45;&gt;BB_002D4466 -->
<g id="edge22" class="edge">
<title>BB_002D445F-&gt;BB_002D4466</title>
<path fill="none" stroke="#ff0000" d="M536.2914,-577.1516C523.4482,-567.7158 507.3023,-555.8535 493.3036,-545.5687"/>
<polygon fill="#ff0000" stroke="#ff0000" points="495.0447,-542.5048 484.9136,-539.4046 490.9002,-548.146 495.0447,-542.5048"/>
</g>
<!-- BB_002D4466&#45;&gt;BB_002D4468 -->
<g id="edge24" class="edge">
<title>BB_002D4466-&gt;BB_002D4468</title>
<path fill="none" stroke="#0000ff" d="M452.1794,-504.046C447.9848,-495.8834 442.9493,-486.0846 438.3308,-477.0973"/>
<polygon fill="#0000ff" stroke="#0000ff" points="441.4053,-475.4226 433.7216,-468.128 435.1793,-478.6221 441.4053,-475.4226"/>
</g>
<!-- BB_002D44BB -->
<g id="node21" class="node">
<title>BB_002D44BB</title>
<ellipse fill="none" stroke="#000000" cx="178.5161" cy="-306.2146" rx="72.9799" ry="18"/>
<text text-anchor="middle" x="178.5161" y="-302.0146" font-family="Times,serif" font-size="14.00" fill="#000000">BB_002D44BB</text>
</g>
<!-- BB_002D448C&#45;&gt;BB_002D44BB -->
<g id="edge27" class="edge">
<title>BB_002D448C-&gt;BB_002D44BB</title>
<path fill="none" stroke="#ff0000" d="M294.4481,-362.2355C272.8217,-351.7851 244.3653,-338.0344 221.058,-326.7718"/>
<polygon fill="#ff0000" stroke="#ff0000" points="222.2756,-323.473 211.7489,-322.2734 219.2299,-329.7757 222.2756,-323.473"/>
</g>
<!-- BB_002D44C0 -->
<g id="node22" class="node">
<title>BB_002D44C0</title>
<ellipse fill="none" stroke="#000000" cx="340.5161" cy="-306.2146" rx="71.2559" ry="18"/>
<text text-anchor="middle" x="340.5161" y="-302.0146" font-family="Times,serif" font-size="14.00" fill="#000000">BB_002D44C0</text>
</g>
<!-- BB_002D448C&#45;&gt;BB_002D44C0 -->
<g id="edge28" class="edge">
<title>BB_002D448C-&gt;BB_002D44C0</title>
<path fill="none" stroke="#00ff00" d="M330.7965,-360.046C332.1869,-352.3456 333.8401,-343.1889 335.3853,-334.6312"/>
<polygon fill="#00ff00" stroke="#00ff00" points="338.8589,-335.0907 337.1914,-324.6279 331.9702,-333.8468 338.8589,-335.0907"/>
</g>
<!-- BB_002D44D3 -->
<g id="node23" class="node">
<title>BB_002D44D3</title>
<ellipse fill="none" stroke="#000000" cx="178.5161" cy="-162.2146" rx="71.8182" ry="18"/>
<text text-anchor="middle" x="178.5161" y="-158.0146" font-family="Times,serif" font-size="14.00" fill="#000000">BB_002D44D3</text>
</g>
<!-- BB_002D44BB&#45;&gt;BB_002D44D3 -->
<g id="edge29" class="edge">
<title>BB_002D44BB-&gt;BB_002D44D3</title>
<path fill="none" stroke="#0000ff" d="M178.5161,-287.9769C178.5161,-263.4156 178.5161,-219.462 178.5161,-190.5687"/>
<polygon fill="#0000ff" stroke="#0000ff" points="182.0162,-190.3042 178.5161,-180.3042 175.0162,-190.3043 182.0162,-190.3042"/>
</g>
<!-- BB_002D44C5 -->
<g id="node24" class="node">
<title>BB_002D44C5</title>
<ellipse fill="none" stroke="#000000" cx="378.5161" cy="-162.2146" rx="71.2559" ry="18"/>
<text text-anchor="middle" x="378.5161" y="-158.0146" font-family="Times,serif" font-size="14.00" fill="#000000">BB_002D44C5</text>
</g>
<!-- BB_002D44C0&#45;&gt;BB_002D44C5 -->
<g id="edge30" class="edge">
<title>BB_002D44C0-&gt;BB_002D44C5</title>
<path fill="none" stroke="#ff0000" d="M348.0943,-287.9579C352.1841,-277.6051 357.0827,-264.3343 360.5161,-252.2146 366.2978,-231.805 370.9338,-208.2844 374.0523,-190.4074"/>
<polygon fill="#ff0000" stroke="#ff0000" points="377.5379,-190.7859 375.7523,-180.3426 370.6356,-189.62 377.5379,-190.7859"/>
</g>
<!-- BB_002D44CA -->
<g id="node25" class="node">
<title>BB_002D44CA</title>
<ellipse fill="none" stroke="#000000" cx="278.5161" cy="-234.2146" rx="73.0421" ry="18"/>
<text text-anchor="middle" x="278.5161" y="-230.0146" font-family="Times,serif" font-size="14.00" fill="#000000">BB_002D44CA</text>
</g>
<!-- BB_002D44C0&#45;&gt;BB_002D44CA -->
<g id="edge31" class="edge">
<title>BB_002D44C0-&gt;BB_002D44CA</title>
<path fill="none" stroke="#00ff00" d="M325.1902,-288.4168C317.7382,-279.7629 308.6463,-269.2046 300.4734,-259.7134"/>
<polygon fill="#00ff00" stroke="#00ff00" points="303.0579,-257.351 293.8805,-252.0571 297.7535,-261.9187 303.0579,-257.351"/>
</g>
<!-- BB_002D44D7 -->
<g id="node26" class="node">
<title>BB_002D44D7</title>
<ellipse fill="none" stroke="#000000" cx="227.5161" cy="-90.2146" rx="71.8182" ry="18"/>
<text text-anchor="middle" x="227.5161" y="-86.0146" font-family="Times,serif" font-size="14.00" fill="#000000">BB_002D44D7</text>
</g>
<!-- BB_002D44D3&#45;&gt;BB_002D44D7 -->
<g id="edge35" class="edge">
<title>BB_002D44D3-&gt;BB_002D44D7</title>
<path fill="none" stroke="#0000ff" d="M190.6284,-144.4168C196.3412,-136.0225 203.2735,-125.8364 209.5794,-116.5704"/>
<polygon fill="#0000ff" stroke="#0000ff" points="212.6404,-118.2935 215.3732,-108.0571 206.8534,-114.3551 212.6404,-118.2935"/>
</g>
<!-- BB_002D44C5&#45;&gt;BB_002D44D7 -->
<g id="edge32" class="edge">
<title>BB_002D44C5-&gt;BB_002D44D7</title>
<path fill="none" stroke="#0000ff" d="M345.0043,-146.2355C322.9134,-135.7021 293.7905,-121.8157 270.0671,-110.5038"/>
<polygon fill="#0000ff" stroke="#0000ff" points="271.467,-107.2939 260.9342,-106.1491 268.4542,-113.6123 271.467,-107.2939"/>
</g>
<!-- BB_002D44CA&#45;&gt;BB_002D44D3 -->
<g id="edge33" class="edge">
<title>BB_002D44CA-&gt;BB_002D44D3</title>
<path fill="none" stroke="#ff0000" d="M254.8175,-217.1516C241.5885,-207.6268 224.9256,-195.6295 210.5487,-185.2781"/>
<polygon fill="#ff0000" stroke="#ff0000" points="212.5516,-182.4073 202.3911,-179.4046 208.4614,-188.0881 212.5516,-182.4073"/>
</g>
<!-- BB_002D44CA&#45;&gt;BB_002D44D7 -->
<g id="edge34" class="edge">
<title>BB_002D44CA-&gt;BB_002D44D7</title>
<path fill="none" stroke="#00ff00" d="M276.4645,-216.1287C273.9582,-197.5921 268.8495,-168.1714 259.5161,-144.2146 255.8555,-134.8189 250.6605,-125.1605 245.5186,-116.6567"/>
<polygon fill="#00ff00" stroke="#00ff00" points="248.3256,-114.5461 240.0349,-107.9496 242.4024,-118.2765 248.3256,-114.5461"/>
</g>
<!-- BB_002D44D7&#45;&gt;end -->
<g id="edge36" class="edge">
<title>BB_002D44D7-&gt;end</title>
<path fill="none" stroke="#000000" d="M203.8175,-73.1262C188.808,-62.3032 169.378,-48.2928 153.8817,-37.1189"/>
<polygon fill="#000000" stroke="#000000" points="155.8888,-34.2511 145.7304,-31.2412 151.7946,-39.9289 155.8888,-34.2511"/>
</g>
</g>
</svg>