<?xml version="1.0" encoding="UTF-8" standalone="no"?><!DOCTYPE svg PUBLIC "-//W3C//DTD SVG 1.1//EN" "http://www.w3.org/Graphics/SVG/1.1/DTD/svg11.dtd"><!-- Generated by graphviz version 2.40.1 (20161225.0304)
 --><!-- Title: G Pages: 1 --><svg xmlns="http://www.w3.org/2000/svg" xmlns:xlink="http://www.w3.org/1999/xlink" width="471pt" height="1230pt" viewBox="0.00 0.00 470.54 1229.64">
<g id="graph0" class="graph" transform="scale(1 1) rotate(0) translate(4 1225.6438)">
<title>G</title>
<polygon fill="#ffffff" stroke="transparent" points="-4,4 -4,-1225.6438 466.5414,-1225.6438 466.5414,4 -4,4"/>
<!-- start -->
<g id="node1" class="node">
<title>start</title>
<polygon fill="none" stroke="#000000" points="389.2707,-1221.6438 350.0334,-1203.6438 389.2707,-1185.6438 428.508,-1203.6438 389.2707,-1221.6438"/>
<polyline fill="none" stroke="#000000" points="360.9404,-1208.6474 360.9404,-1198.6402 "/>
<polyline fill="none" stroke="#000000" points="378.3636,-1190.6474 400.1778,-1190.6474 "/>
<polyline fill="none" stroke="#000000" points="417.6009,-1198.6402 417.6009,-1208.6474 "/>
<polyline fill="none" stroke="#000000" points="400.1778,-1216.6402 378.3636,-1216.6402 "/>
<text text-anchor="middle" x="389.2707" y="-1199.4438" font-family="Times,serif" font-size="14.00" fill="#000000">start</text>
</g>
<!-- BB_002DC5A0 -->
<g id="node2" class="node">
<title>BB_002DC5A0</title>
<ellipse fill="none" stroke="#000000" cx="389.2707" cy="-1131.6438" rx="73.0421" ry="18"/>
<text text-anchor="middle" x="389.2707" y="-1127.4438" font-family="Times,serif" font-size="14.00" fill="#000000">BB_002DC5A0</text>
</g>
<!-- start&#45;&gt;BB_002DC5A0 -->
<g id="edge1" class="edge">
<title>start-&gt;BB_002DC5A0</title>
<path fill="none" stroke="#000000" d="M389.2707,-1185.4752C389.2707,-1177.7748 389.2707,-1168.6181 389.2707,-1160.0604"/>
<polygon fill="#000000" stroke="#000000" points="392.7708,-1160.057 389.2707,-1150.0571 385.7708,-1160.0571 392.7708,-1160.057"/>
</g>
<!-- BB_002DC63B -->
<g id="node3" class="node">
<title>BB_002DC63B</title>
<ellipse fill="none" stroke="#000000" cx="339.2707" cy="-1059.6438" rx="72.9799" ry="18"/>
<text text-anchor="middle" x="339.2707" y="-1055.4438" font-family="Times,serif" font-size="14.00" fill="#000000">BB_002DC63B</text>
</g>
<!-- BB_002DC5A0&#45;&gt;BB_002DC63B -->
<g id="edge2" class="edge">
<title>BB_002DC5A0-&gt;BB_002DC63B</title>
<path fill="none" stroke="#ff0000" d="M376.9111,-1113.846C371.0216,-1105.3652 363.862,-1095.0553 357.3746,-1085.7134"/>
<polygon fill="#ff0000" stroke="#ff0000" points="360.2401,-1083.7037 351.6613,-1077.4863 354.4905,-1087.6965 360.2401,-1083.7037"/>
</g>
<!-- BB_002DC8B0 -->
<g id="node4" class="node">
<title>BB_002DC8B0</title>
<ellipse fill="none" stroke="#000000" cx="389.2707" cy="-123.6438" rx="72.9799" ry="18"/>
<text text-anchor="middle" x="389.2707" y="-119.4438" font-family="Times,serif" font-size="14.00" fill="#000000">BB_002DC8B0</text>
</g>
<!-- BB_002DC5A0&#45;&gt;BB_002DC8B0 -->
<g id="edge3" class="edge">
<title>BB_002DC5A0-&gt;BB_002DC8B0</title>
<path fill="none" stroke="#00ff00" d="M402.1078,-1113.4213C408.7042,-1103.2977 416.3653,-1090.2348 421.2707,-1077.6438 436.1115,-1039.551 440.2707,-1028.5254 440.2707,-987.6438 440.2707,-987.6438 440.2707,-987.6438 440.2707,-267.6438 440.2707,-226.7622 436.1115,-215.7366 421.2707,-177.6438 417.6102,-168.2481 412.4152,-158.5897 407.2732,-150.0859"/>
<polygon fill="#00ff00" stroke="#00ff00" points="410.0803,-147.9753 401.7895,-141.3788 404.157,-151.7057 410.0803,-147.9753"/>
</g>
<!-- BB_002DC64E -->
<g id="node5" class="node">
<title>BB_002DC64E</title>
<ellipse fill="none" stroke="#000000" cx="263.2707" cy="-987.6438" rx="72.3981" ry="18"/>
<text text-anchor="middle" x="263.2707" y="-983.4438" font-family="Times,serif" font-size="14.00" fill="#000000">BB_002DC64E</text>
</g>
<!-- BB_002DC63B&#45;&gt;BB_002DC64E -->
<g id="edge4" class="edge">
<title>BB_002DC63B-&gt;BB_002DC64E</title>
<path fill="none" stroke="#ff0000" d="M320.8732,-1042.2146C311.3286,-1033.1724 299.512,-1021.9776 289.0702,-1012.0855"/>
<polygon fill="#ff0000" stroke="#ff0000" points="291.4288,-1009.4987 281.7622,-1005.162 286.6146,-1014.5804 291.4288,-1009.4987"/>
</g>
<!-- BB_002DC69E -->
<g id="node6" class="node">
<title>BB_002DC69E</title>
<ellipse fill="none" stroke="#000000" cx="293.2707" cy="-771.6438" rx="72.3981" ry="18"/>
<text text-anchor="middle" x="293.2707" y="-767.4438" font-family="Times,serif" font-size="14.00" fill="#000000">BB_002DC69E</text>
</g>
<!-- BB_002DC63B&#45;&gt;BB_002DC69E -->
<g id="edge5" class="edge">
<title>BB_002DC63B-&gt;BB_002DC69E</title>
<path fill="none" stroke="#00ff00" d="M344.2704,-1041.4886C354.4541,-1001.004 374.2203,-900.9738 344.2707,-825.6438 339.8121,-814.4295 331.7977,-804.1978 323.423,-795.7289"/>
<polygon fill="#00ff00" stroke="#00ff00" points="325.7225,-793.0863 316.0511,-788.76 320.9137,-798.1731 325.7225,-793.0863"/>
</g>
<!-- dead_end -->
<g id="node18" class="node">
<title>dead_end</title>
<polygon fill="none" stroke="#000000" points="423.9154,-69.4666 354.626,-69.4666 354.626,-.1772 423.9154,-.1772 423.9154,-69.4666"/>
<polyline fill="none" stroke="#000000" points="366.626,-69.4666 354.626,-57.4666 "/>
<polyline fill="none" stroke="#000000" points="354.626,-12.1772 366.626,-.1772 "/>
<polyline fill="none" stroke="#000000" points="411.9154,-.1772 423.9154,-12.1772 "/>
<polyline fill="none" stroke="#000000" points="423.9154,-57.4666 411.9154,-69.4666 "/>
<text text-anchor="middle" x="389.2707" y="-30.6219" font-family="Times,serif" font-size="14.00" fill="#000000">dead_end</text>
</g>
<!-- BB_002DC8B0&#45;&gt;dead_end -->
<g id="edge24" class="edge">
<title>BB_002DC8B0-&gt;dead_end</title>
<path fill="none" stroke="#000000" d="M389.2707,-105.2398C389.2707,-97.7822 389.2707,-88.8138 389.2707,-79.8137"/>
<polygon fill="#000000" stroke="#000000" points="392.7708,-79.7175 389.2707,-69.7175 385.7708,-79.7176 392.7708,-79.7175"/>
</g>
<!-- BB_002DC65B -->
<g id="node7" class="node">
<title>BB_002DC65B</title>
<ellipse fill="none" stroke="#000000" cx="101.2707" cy="-915.6438" rx="72.9799" ry="18"/>
<text text-anchor="middle" x="101.2707" y="-911.4438" font-family="Times,serif" font-size="14.00" fill="#000000">BB_002DC65B</text>
</g>
<!-- BB_002DC64E&#45;&gt;BB_002DC65B -->
<g id="edge6" class="edge">
<title>BB_002DC64E-&gt;BB_002DC65B</title>
<path fill="none" stroke="#ff0000" d="M227.7191,-971.8431C203.6629,-961.1515 171.6993,-946.9454 145.9278,-935.4914"/>
<polygon fill="#ff0000" stroke="#ff0000" points="147.299,-932.2707 136.7393,-931.4076 144.456,-938.6674 147.299,-932.2707"/>
</g>
<!-- BB_002DC66F -->
<g id="node8" class="node">
<title>BB_002DC66F</title>
<ellipse fill="none" stroke="#000000" cx="263.2707" cy="-915.6438" rx="71.8357" ry="18"/>
<text text-anchor="middle" x="263.2707" y="-911.4438" font-family="Times,serif" font-size="14.00" fill="#000000">BB_002DC66F</text>
</g>
<!-- BB_002DC64E&#45;&gt;BB_002DC66F -->
<g id="edge7" class="edge">
<title>BB_002DC64E-&gt;BB_002DC66F</title>
<path fill="none" stroke="#00ff00" d="M263.2707,-969.4752C263.2707,-961.7748 263.2707,-952.6181 263.2707,-944.0604"/>
<polygon fill="#00ff00" stroke="#00ff00" points="266.7708,-944.057 263.2707,-934.0571 259.7708,-944.0571 266.7708,-944.057"/>
</g>
<!-- BB_002DC6EA -->
<g id="node10" class="node">
<title>BB_002DC6EA</title>
<ellipse fill="none" stroke="#000000" cx="277.2707" cy="-699.6438" rx="74.1836" ry="18"/>
<text text-anchor="middle" x="277.2707" y="-695.4438" font-family="Times,serif" font-size="14.00" fill="#000000">BB_002DC6EA</text>
</g>
<!-- BB_002DC69E&#45;&gt;BB_002DC6EA -->
<g id="edge11" class="edge">
<title>BB_002DC69E-&gt;BB_002DC6EA</title>
<path fill="none" stroke="#ff0000" d="M289.2332,-753.4752C287.522,-745.7748 285.4872,-736.6181 283.5855,-728.0604"/>
<polygon fill="#ff0000" stroke="#ff0000" points="286.9486,-727.0597 281.3625,-718.0571 280.1153,-728.5782 286.9486,-727.0597"/>
</g>
<!-- BB_002DC87D -->
<g id="node11" class="node">
<title>BB_002DC87D</title>
<ellipse fill="none" stroke="#000000" cx="339.2707" cy="-195.6438" rx="73.0421" ry="18"/>
<text text-anchor="middle" x="339.2707" y="-191.4438" font-family="Times,serif" font-size="14.00" fill="#000000">BB_002DC87D</text>
</g>
<!-- BB_002DC69E&#45;&gt;BB_002DC87D -->
<g id="edge12" class="edge">
<title>BB_002DC69E-&gt;BB_002DC87D</title>
<path fill="none" stroke="#00ff00" d="M321.9703,-755.0543C335.5889,-745.7456 350.8965,-732.9252 360.2707,-717.6438 381.6474,-682.7963 379.2707,-668.5254 379.2707,-627.6438 379.2707,-627.6438 379.2707,-627.6438 379.2707,-339.6438 379.2707,-297.8657 363.4467,-251.6754 351.7043,-223.1505"/>
<polygon fill="#00ff00" stroke="#00ff00" points="354.8799,-221.6739 347.7537,-213.8338 348.4353,-224.4067 354.8799,-221.6739"/>
</g>
<!-- BB_002DC68B -->
<g id="node9" class="node">
<title>BB_002DC68B</title>
<ellipse fill="none" stroke="#000000" cx="262.2707" cy="-843.6438" rx="72.9799" ry="18"/>
<text text-anchor="middle" x="262.2707" y="-839.4438" font-family="Times,serif" font-size="14.00" fill="#000000">BB_002DC68B</text>
</g>
<!-- BB_002DC65B&#45;&gt;BB_002DC68B -->
<g id="edge8" class="edge">
<title>BB_002DC65B-&gt;BB_002DC68B</title>
<path fill="none" stroke="#0000ff" d="M136.6028,-899.8431C160.5105,-889.1515 192.2768,-874.9454 217.8892,-863.4914"/>
<polygon fill="#0000ff" stroke="#0000ff" points="219.3211,-866.6852 227.021,-859.4076 216.4634,-860.2951 219.3211,-866.6852"/>
</g>
<!-- BB_002DC66F&#45;&gt;BB_002DC68B -->
<g id="edge9" class="edge">
<title>BB_002DC66F-&gt;BB_002DC68B</title>
<path fill="none" stroke="#0000ff" d="M263.0183,-897.4752C262.9114,-889.7748 262.7842,-880.6181 262.6654,-872.0604"/>
<polygon fill="#0000ff" stroke="#0000ff" points="266.1651,-872.0075 262.5264,-862.0571 259.1657,-872.1047 266.1651,-872.0075"/>
</g>
<!-- BB_002DC68B&#45;&gt;BB_002DC69E -->
<g id="edge10" class="edge">
<title>BB_002DC68B-&gt;BB_002DC69E</title>
<path fill="none" stroke="#0000ff" d="M270.0933,-825.4752C273.5707,-817.3985 277.7379,-807.7199 281.5739,-798.8106"/>
<polygon fill="#0000ff" stroke="#0000ff" points="284.818,-800.1262 285.558,-789.5572 278.3886,-797.3579 284.818,-800.1262"/>
</g>
<!-- BB_002DC738 -->
<g id="node12" class="node">
<title>BB_002DC738</title>
<ellipse fill="none" stroke="#000000" cx="212.2707" cy="-627.6438" rx="71.2559" ry="18"/>
<text text-anchor="middle" x="212.2707" y="-623.4438" font-family="Times,serif" font-size="14.00" fill="#000000">BB_002DC738</text>
</g>
<!-- BB_002DC6EA&#45;&gt;BB_002DC738 -->
<g id="edge13" class="edge">
<title>BB_002DC6EA-&gt;BB_002DC738</title>
<path fill="none" stroke="#ff0000" d="M261.2033,-681.846C253.3319,-673.127 243.7154,-662.4749 235.0974,-652.9287"/>
<polygon fill="#ff0000" stroke="#ff0000" points="237.4523,-650.3142 228.1533,-645.2368 232.2564,-655.0049 237.4523,-650.3142"/>
</g>
<!-- BB_002DC858 -->
<g id="node13" class="node">
<title>BB_002DC858</title>
<ellipse fill="none" stroke="#000000" cx="280.2707" cy="-267.6438" rx="71.2559" ry="18"/>
<text text-anchor="middle" x="280.2707" y="-263.4438" font-family="Times,serif" font-size="14.00" fill="#000000">BB_002DC858</text>
</g>
<!-- BB_002DC6EA&#45;&gt;BB_002DC858 -->
<g id="edge14" class="edge">
<title>BB_002DC6EA-&gt;BB_002DC858</title>
<path fill="none" stroke="#00ff00" d="M284.4812,-681.3305C294.4616,-654.2886 311.2707,-601.8811 311.2707,-555.6438 311.2707,-555.6438 311.2707,-555.6438 311.2707,-411.6438 311.2707,-370.6475 299.114,-324.5267 290.0261,-295.7764"/>
<polygon fill="#00ff00" stroke="#00ff00" points="293.2705,-294.4357 286.845,-286.0117 286.6148,-296.6041 293.2705,-294.4357"/>
</g>
<!-- BB_002DC87D&#45;&gt;BB_002DC8B0 -->
<g id="edge23" class="edge">
<title>BB_002DC87D-&gt;BB_002DC8B0</title>
<path fill="none" stroke="#0000ff" d="M351.6302,-177.846C357.5197,-169.3652 364.6793,-159.0553 371.1668,-149.7134"/>
<polygon fill="#0000ff" stroke="#0000ff" points="374.0508,-151.6965 376.88,-141.4863 368.3012,-147.7037 374.0508,-151.6965"/>
</g>
<!-- BB_002DC75A -->
<g id="node14" class="node">
<title>BB_002DC75A</title>
<ellipse fill="none" stroke="#000000" cx="142.2707" cy="-555.6438" rx="73.0421" ry="18"/>
<text text-anchor="middle" x="142.2707" y="-551.4438" font-family="Times,serif" font-size="14.00" fill="#000000">BB_002DC75A</text>
</g>
<!-- BB_002DC738&#45;&gt;BB_002DC75A -->
<g id="edge15" class="edge">
<title>BB_002DC738-&gt;BB_002DC75A</title>
<path fill="none" stroke="#ff0000" d="M194.9673,-609.846C186.4057,-601.0398 175.9269,-590.2617 166.5752,-580.6427"/>
<polygon fill="#ff0000" stroke="#ff0000" points="168.8553,-577.967 159.375,-573.2368 163.8363,-582.8466 168.8553,-577.967"/>
</g>
<!-- BB_002DC843 -->
<g id="node15" class="node">
<title>BB_002DC843</title>
<ellipse fill="none" stroke="#000000" cx="212.2707" cy="-339.6438" rx="71.2559" ry="18"/>
<text text-anchor="middle" x="212.2707" y="-335.4438" font-family="Times,serif" font-size="14.00" fill="#000000">BB_002DC843</text>
</g>
<!-- BB_002DC738&#45;&gt;BB_002DC843 -->
<g id="edge16" class="edge">
<title>BB_002DC738-&gt;BB_002DC843</title>
<path fill="none" stroke="#00ff00" d="M217.3898,-609.3165C220.0227,-598.9416 222.9503,-585.6722 224.2707,-573.6438 233,-494.1215 233,-473.1661 224.2707,-393.6438 223.3423,-385.1863 221.6193,-376.1153 219.7629,-367.8684"/>
<polygon fill="#00ff00" stroke="#00ff00" points="223.125,-366.8794 217.3898,-357.9711 216.318,-368.5116 223.125,-366.8794"/>
</g>
<!-- BB_002DC858&#45;&gt;BB_002DC87D -->
<g id="edge22" class="edge">
<title>BB_002DC858-&gt;BB_002DC87D</title>
<path fill="none" stroke="#0000ff" d="M294.855,-249.846C301.8755,-241.2786 310.4255,-230.8447 318.1422,-221.4277"/>
<polygon fill="#0000ff" stroke="#0000ff" points="321.0186,-223.4395 324.6497,-213.4863 315.6043,-219.0028 321.0186,-223.4395"/>
</g>
<!-- BB_002DC78D -->
<g id="node16" class="node">
<title>BB_002DC78D</title>
<ellipse fill="none" stroke="#000000" cx="73.2707" cy="-483.6438" rx="73.0421" ry="18"/>
<text text-anchor="middle" x="73.2707" y="-479.4438" font-family="Times,serif" font-size="14.00" fill="#000000">BB_002DC78D</text>
</g>
<!-- BB_002DC75A&#45;&gt;BB_002DC78D -->
<g id="edge17" class="edge">
<title>BB_002DC75A-&gt;BB_002DC78D</title>
<path fill="none" stroke="#ff0000" d="M125.2145,-537.846C116.7752,-529.0398 106.4461,-518.2617 97.228,-508.6427"/>
<polygon fill="#ff0000" stroke="#ff0000" points="99.5767,-506.0351 90.1307,-501.2368 94.5228,-510.8784 99.5767,-506.0351"/>
</g>
<!-- BB_002DC81E -->
<g id="node17" class="node">
<title>BB_002DC81E</title>
<ellipse fill="none" stroke="#000000" cx="143.2707" cy="-411.6438" rx="72.3981" ry="18"/>
<text text-anchor="middle" x="143.2707" y="-407.4438" font-family="Times,serif" font-size="14.00" fill="#000000">BB_002DC81E</text>
</g>
<!-- BB_002DC75A&#45;&gt;BB_002DC81E -->
<g id="edge18" class="edge">
<title>BB_002DC75A-&gt;BB_002DC81E</title>
<path fill="none" stroke="#00ff00" d="M147.8153,-537.345C150.6672,-526.9791 153.8388,-513.7091 155.2707,-501.6438 157.1563,-485.7553 157.0166,-481.5483 155.2707,-465.6438 154.3423,-457.1863 152.6193,-448.1153 150.7629,-439.8684"/>
<polygon fill="#00ff00" stroke="#00ff00" points="154.125,-438.8794 148.3898,-429.9711 147.318,-440.5116 154.125,-438.8794"/>
</g>
<!-- BB_002DC843&#45;&gt;BB_002DC858 -->
<g id="edge21" class="edge">
<title>BB_002DC843-&gt;BB_002DC858</title>
<path fill="none" stroke="#0000ff" d="M229.0797,-321.846C237.3967,-313.0398 247.5761,-302.2617 256.6606,-292.6427"/>
<polygon fill="#0000ff" stroke="#0000ff" points="259.3333,-294.9102 263.655,-285.2368 254.2442,-290.1038 259.3333,-294.9102"/>
</g>
<!-- BB_002DC78D&#45;&gt;BB_002DC81E -->
<g id="edge19" class="edge">
<title>BB_002DC78D-&gt;BB_002DC81E</title>
<path fill="none" stroke="#0000ff" d="M90.5741,-465.846C99.1357,-457.0398 109.6144,-446.2617 118.9662,-436.6427"/>
<polygon fill="#0000ff" stroke="#0000ff" points="121.705,-438.8466 126.1664,-429.2368 116.686,-433.967 121.705,-438.8466"/>
</g>
<!-- BB_002DC81E&#45;&gt;BB_002DC843 -->
<g id="edge20" class="edge">
<title>BB_002DC81E-&gt;BB_002DC843</title>
<path fill="none" stroke="#0000ff" d="M160.3269,-393.846C168.7662,-385.0398 179.0952,-374.2617 188.3134,-364.6427"/>
<polygon fill="#0000ff" stroke="#0000ff" points="191.0186,-366.8784 195.4107,-357.2368 185.9646,-362.0351 191.0186,-366.8784"/>
</g>
</g>
</svg>