<?xml version="1.0" encoding="UTF-8" standalone="no"?><!DOCTYPE svg PUBLIC "-//W3C//DTD SVG 1.1//EN" "http://www.w3.org/Graphics/SVG/1.1/DTD/svg11.dtd"><!-- Generated by graphviz version 2.40.1 (20161225.0304)
 --><!-- Title: G Pages: 1 --><svg xmlns="http://www.w3.org/2000/svg" xmlns:xlink="http://www.w3.org/1999/xlink" width="306pt" height="294pt" viewBox="0.00 0.00 306.11 293.64">
<g id="graph0" class="graph" transform="scale(1 1) rotate(0) translate(4 289.6438)">
<title>G</title>
<polygon fill="#ffffff" stroke="transparent" points="-4,4 -4,-289.6438 302.1118,-289.6438 302.1118,4 -4,4"/>
<!-- start -->
<g id="node1" class="node">
<title>start</title>
<polygon fill="none" stroke="#000000" points="149.0559,-285.6438 109.8186,-267.6438 149.0559,-249.6438 188.2932,-267.6438 149.0559,-285.6438"/>
<polyline fill="none" stroke="#000000" points="120.7257,-272.6474 120.7257,-262.6402 "/>
<polyline fill="none" stroke="#000000" points="138.1488,-254.6474 159.963,-254.6474 "/>
<polyline fill="none" stroke="#000000" points="177.3861,-262.6402 177.3861,-272.6474 "/>
<polyline fill="none" stroke="#000000" points="159.963,-280.6402 138.1488,-280.6402 "/>
<text text-anchor="middle" x="149.0559" y="-263.4438" font-family="Times,serif" font-size="14.00" fill="#000000">start</text>
</g>
<!-- BB_002EC510 -->
<g id="node2" class="node">
<title>BB_002EC510</title>
<ellipse fill="none" stroke="#000000" cx="149.0559" cy="-195.6438" rx="70.1118" ry="18"/>
<text text-anchor="middle" x="149.0559" y="-191.4438" font-family="Times,serif" font-size="14.00" fill="#000000">BB_002EC510</text>
</g>
<!-- start&#45;&gt;BB_002EC510 -->
<g id="edge1" class="edge">
<title>start-&gt;BB_002EC510</title>
<path fill="none" stroke="#000000" d="M149.0559,-249.4752C149.0559,-241.7748 149.0559,-232.6181 149.0559,-224.0604"/>
<polygon fill="#000000" stroke="#000000" points="152.556,-224.057 149.0559,-214.0571 145.556,-224.0571 152.556,-224.057"/>
</g>
<!-- BB_002EC577 -->
<g id="node3" class="node">
<title>BB_002EC577</title>
<ellipse fill="none" stroke="#000000" cx="70.0559" cy="-123.6438" rx="70.1118" ry="18"/>
<text text-anchor="middle" x="70.0559" y="-119.4438" font-family="Times,serif" font-size="14.00" fill="#000000">BB_002EC577</text>
</g>
<!-- BB_002EC510&#45;&gt;BB_002EC577 -->
<g id="edge2" class="edge">
<title>BB_002EC510-&gt;BB_002EC577</title>
<path fill="none" stroke="#ff0000" d="M129.9322,-178.2146C120.0108,-169.1724 107.7277,-157.9776 96.8738,-148.0855"/>
<polygon fill="#ff0000" stroke="#ff0000" points="99.0259,-145.3113 89.2773,-141.162 94.3106,-150.4849 99.0259,-145.3113"/>
</g>
<!-- BB_002EC594 -->
<g id="node4" class="node">
<title>BB_002EC594</title>
<ellipse fill="none" stroke="#000000" cx="228.0559" cy="-123.6438" rx="70.1118" ry="18"/>
<text text-anchor="middle" x="228.0559" y="-119.4438" font-family="Times,serif" font-size="14.00" fill="#000000">BB_002EC594</text>
</g>
<!-- BB_002EC510&#45;&gt;BB_002EC594 -->
<g id="edge3" class="edge">
<title>BB_002EC510-&gt;BB_002EC594</title>
<path fill="none" stroke="#00ff00" d="M168.1796,-178.2146C178.1009,-169.1724 190.384,-157.9776 201.238,-148.0855"/>
<polygon fill="#00ff00" stroke="#00ff00" points="203.8012,-150.4849 208.8345,-141.162 199.0859,-145.3113 203.8012,-150.4849"/>
</g>
<!-- end -->
<g id="node5" class="node">
<title>end</title>
<polygon fill="none" stroke="#000000" points="88.2711,-53.0371 51.8407,-53.0371 51.8407,-16.6067 88.2711,-16.6067 88.2711,-53.0371"/>
<polyline fill="none" stroke="#000000" points="63.8407,-53.0371 51.8407,-41.0371 "/>
<polyline fill="none" stroke="#000000" points="51.8407,-28.6067 63.8407,-16.6067 "/>
<polyline fill="none" stroke="#000000" points="76.2711,-16.6067 88.2711,-28.6067 "/>
<polyline fill="none" stroke="#000000" points="88.2711,-41.0371 76.2711,-53.0371 "/>
<text text-anchor="middle" x="70.0559" y="-30.6219" font-family="Times,serif" font-size="14.00" fill="#000000">end</text>
</g>
<!-- BB_002EC577&#45;&gt;end -->
<g id="edge4" class="edge">
<title>BB_002EC577-&gt;end</title>
<path fill="none" stroke="#000000" d="M70.0559,-105.2398C70.0559,-93.2114 70.0559,-77.2529 70.0559,-63.5696"/>
<polygon fill="#000000" stroke="#000000" points="73.556,-63.2022 70.0559,-53.2023 66.556,-63.2023 73.556,-63.2022"/>
</g>
<!-- dead_end -->
<g id="node6" class="node">
<title>dead_end</title>
<polygon fill="none" stroke="#000000" points="262.7006,-69.4666 193.4112,-69.4666 193.4112,-.1772 262.7006,-.1772 262.7006,-69.4666"/>
<polyline fill="none" stroke="#000000" points="205.4112,-69.4666 193.4112,-57.4666 "/>
<polyline fill="none" stroke="#000000" points="193.4112,-12.1772 205.4112,-.1772 "/>
<polyline fill="none" stroke="#000000" points="250.7006,-.1772 262.7006,-12.1772 "/>
<polyline fill="none" stroke="#000000" points="262.7006,-57.4666 250.7006,-69.4666 "/>
<text text-anchor="middle" x="228.0559" y="-30.6219" font-family="Times,serif" font-size="14.00" fill="#000000">dead_end</text>
</g>
<!-- BB_002EC594&#45;&gt;dead_end -->
<g id="edge5" class="edge">
<title>BB_002EC594-&gt;dead_end</title>
<path fill="none" stroke="#000000" d="M228.0559,-105.2398C228.0559,-97.7822 228.0559,-88.8138 228.0559,-79.8137"/>
<polygon fill="#000000" stroke="#000000" points="231.556,-79.7175 228.0559,-69.7175 224.556,-79.7176 231.556,-79.7175"/>
</g>
</g>
</svg>