<?xml version="1.0" encoding="UTF-8" standalone="no"?><!DOCTYPE svg PUBLIC "-//W3C//DTD SVG 1.1//EN" "http://www.w3.org/Graphics/SVG/1.1/DTD/svg11.dtd"><!-- Generated by graphviz version 2.40.1 (20161225.0304)
 --><!-- Title: G Pages: 1 --><svg xmlns="http://www.w3.org/2000/svg" xmlns:xlink="http://www.w3.org/1999/xlink" width="402pt" height="620pt" viewBox="0.00 0.00 401.96 620.21">
<g id="graph0" class="graph" transform="scale(1 1) rotate(0) translate(4 616.2146)">
<title>G</title>
<polygon fill="#ffffff" stroke="transparent" points="-4,4 -4,-616.2146 397.9592,-616.2146 397.9592,4 -4,4"/>
<!-- start -->
<g id="node1" class="node">
<title>start</title>
<polygon fill="none" stroke="#000000" points="116.4441,-612.2146 77.2068,-594.2146 116.4441,-576.2146 155.6815,-594.2146 116.4441,-612.2146"/>
<polyline fill="none" stroke="#000000" points="88.1139,-599.2182 88.1139,-589.211 "/>
<polyline fill="none" stroke="#000000" points="105.5371,-581.2182 127.3512,-581.2182 "/>
<polyline fill="none" stroke="#000000" points="144.7744,-589.211 144.7744,-599.2182 "/>
<polyline fill="none" stroke="#000000" points="127.3512,-607.211 105.5371,-607.211 "/>
<text text-anchor="middle" x="116.4441" y="-590.0146" font-family="Times,serif" font-size="14.00" fill="#000000">start</text>
</g>
<!-- BB_002E8100 -->
<g id="node2" class="node">
<title>BB_002E8100</title>
<ellipse fill="none" stroke="#000000" cx="116.4441" cy="-522.2146" rx="68.3883" ry="18"/>
<text text-anchor="middle" x="116.4441" y="-518.0146" font-family="Times,serif" font-size="14.00" fill="#000000">BB_002E8100</text>
</g>
<!-- start&#45;&gt;BB_002E8100 -->
<g id="edge1" class="edge">
<title>start-&gt;BB_002E8100</title>
<path fill="none" stroke="#000000" d="M116.4441,-576.046C116.4441,-568.3456 116.4441,-559.1889 116.4441,-550.6312"/>
<polygon fill="#000000" stroke="#000000" points="119.9442,-550.6278 116.4441,-540.6279 112.9442,-550.6279 119.9442,-550.6278"/>
</g>
<!-- BB_002E8138 -->
<g id="node3" class="node">
<title>BB_002E8138</title>
<ellipse fill="none" stroke="#000000" cx="68.4441" cy="-450.2146" rx="68.3883" ry="18"/>
<text text-anchor="middle" x="68.4441" y="-446.0146" font-family="Times,serif" font-size="14.00" fill="#000000">BB_002E8138</text>
</g>
<!-- BB_002E8100&#45;&gt;BB_002E8138 -->
<g id="edge2" class="edge">
<title>BB_002E8100-&gt;BB_002E8138</title>
<path fill="none" stroke="#ff0000" d="M104.579,-504.4168C98.9828,-496.0225 92.192,-485.8364 86.0147,-476.5704"/>
<polygon fill="#ff0000" stroke="#ff0000" points="88.7984,-474.4362 80.3392,-468.0571 82.974,-478.3191 88.7984,-474.4362"/>
</g>
<!-- BB_002E813A -->
<g id="node4" class="node">
<title>BB_002E813A</title>
<ellipse fill="none" stroke="#000000" cx="116.4441" cy="-378.2146" rx="70.6742" ry="18"/>
<text text-anchor="middle" x="116.4441" y="-374.0146" font-family="Times,serif" font-size="14.00" fill="#000000">BB_002E813A</text>
</g>
<!-- BB_002E8100&#45;&gt;BB_002E813A -->
<g id="edge3" class="edge">
<title>BB_002E8100-&gt;BB_002E813A</title>
<path fill="none" stroke="#00ff00" d="M129.0563,-504.1561C135.3208,-494.0806 142.2254,-481.0113 145.4441,-468.2146 149.3471,-452.6979 149.3471,-447.7313 145.4441,-432.2146 143.1055,-422.917 138.8212,-413.4755 134.2503,-405.1429"/>
<polygon fill="#00ff00" stroke="#00ff00" points="137.1298,-403.1338 129.0563,-396.2731 131.0893,-406.671 137.1298,-403.1338"/>
</g>
<!-- BB_002E8138&#45;&gt;BB_002E813A -->
<g id="edge4" class="edge">
<title>BB_002E8138-&gt;BB_002E813A</title>
<path fill="none" stroke="#0000ff" d="M80.3093,-432.4168C85.9055,-424.0225 92.6963,-413.8364 98.8736,-404.5704"/>
<polygon fill="#0000ff" stroke="#0000ff" points="101.9143,-406.3191 104.5491,-396.0571 96.0899,-402.4362 101.9143,-406.3191"/>
</g>
<!-- BB_002E8161 -->
<g id="node5" class="node">
<title>BB_002E8161</title>
<ellipse fill="none" stroke="#000000" cx="72.4441" cy="-162.2146" rx="68.3883" ry="18"/>
<text text-anchor="middle" x="72.4441" y="-158.0146" font-family="Times,serif" font-size="14.00" fill="#000000">BB_002E8161</text>
</g>
<!-- BB_002E813A&#45;&gt;BB_002E8161 -->
<g id="edge5" class="edge">
<title>BB_002E813A-&gt;BB_002E8161</title>
<path fill="none" stroke="#ff0000" d="M104.3003,-360.0268C98.1729,-349.9134 91.25,-336.8491 87.4441,-324.2146 73.8303,-279.02 71.5982,-223.799 71.6896,-190.8994"/>
<polygon fill="#ff0000" stroke="#ff0000" points="75.1919,-190.6806 71.7965,-180.6446 68.1923,-190.6075 75.1919,-190.6806"/>
</g>
<!-- BB_002E819C -->
<g id="node6" class="node">
<title>BB_002E819C</title>
<ellipse fill="none" stroke="#000000" cx="166.4441" cy="-306.2146" rx="70.1118" ry="18"/>
<text text-anchor="middle" x="166.4441" y="-302.0146" font-family="Times,serif" font-size="14.00" fill="#000000">BB_002E819C</text>
</g>
<!-- BB_002E813A&#45;&gt;BB_002E819C -->
<g id="edge6" class="edge">
<title>BB_002E813A-&gt;BB_002E819C</title>
<path fill="none" stroke="#00ff00" d="M128.8037,-360.4168C134.6932,-351.936 141.8528,-341.6261 148.3403,-332.2842"/>
<polygon fill="#00ff00" stroke="#00ff00" points="151.2243,-334.2673 154.0535,-324.0571 145.4747,-330.2745 151.2243,-334.2673"/>
</g>
<!-- end -->
<g id="node7" class="node">
<title>end</title>
<polygon fill="none" stroke="#000000" points="157.6594,-36.3225 121.2289,-36.3225 121.2289,.1079 157.6594,.1079 157.6594,-36.3225"/>
<polyline fill="none" stroke="#000000" points="133.2289,-36.3225 121.2289,-24.3225 "/>
<polyline fill="none" stroke="#000000" points="121.2289,-11.8921 133.2289,.1079 "/>
<polyline fill="none" stroke="#000000" points="145.6594,.1079 157.6594,-11.8921 "/>
<polyline fill="none" stroke="#000000" points="157.6594,-24.3225 145.6594,-36.3225 "/>
<text text-anchor="middle" x="139.4441" y="-13.9073" font-family="Times,serif" font-size="14.00" fill="#000000">end</text>
</g>
<!-- BB_002E8161&#45;&gt;end -->
<g id="edge7" class="edge">
<title>BB_002E8161-&gt;end</title>
<path fill="none" stroke="#000000" d="M80.7943,-144.2547C92.3293,-119.4445 113.2394,-74.47 126.7245,-45.4654"/>
<polygon fill="#000000" stroke="#000000" points="129.9466,-46.837 130.9888,-36.2936 123.599,-43.8858 129.9466,-46.837"/>
</g>
<!-- BB_002E81D4 -->
<g id="node8" class="node">
<title>BB_002E81D4</title>
<ellipse fill="none" stroke="#000000" cx="166.4441" cy="-234.2146" rx="70.6742" ry="18"/>
<text text-anchor="middle" x="166.4441" y="-230.0146" font-family="Times,serif" font-size="14.00" fill="#000000">BB_002E81D4</text>
</g>
<!-- BB_002E819C&#45;&gt;BB_002E81D4 -->
<g id="edge8" class="edge">
<title>BB_002E819C-&gt;BB_002E81D4</title>
<path fill="none" stroke="#ff0000" d="M166.4441,-288.046C166.4441,-280.3456 166.4441,-271.1889 166.4441,-262.6312"/>
<polygon fill="#ff0000" stroke="#ff0000" points="169.9442,-262.6278 166.4441,-252.6279 162.9442,-262.6279 169.9442,-262.6278"/>
</g>
<!-- BB_002E81E9 -->
<g id="node9" class="node">
<title>BB_002E81E9</title>
<ellipse fill="none" stroke="#000000" cx="324.4441" cy="-234.2146" rx="69.5302" ry="18"/>
<text text-anchor="middle" x="324.4441" y="-230.0146" font-family="Times,serif" font-size="14.00" fill="#000000">BB_002E81E9</text>
</g>
<!-- BB_002E819C&#45;&gt;BB_002E81E9 -->
<g id="edge9" class="edge">
<title>BB_002E819C-&gt;BB_002E81E9</title>
<path fill="none" stroke="#00ff00" d="M201.1179,-290.4139C224.4772,-279.7692 255.4812,-265.6408 280.5586,-254.2131"/>
<polygon fill="#00ff00" stroke="#00ff00" points="282.2029,-257.3101 289.8513,-249.9784 279.3002,-250.9403 282.2029,-257.3101"/>
</g>
<!-- BB_002E821C -->
<g id="node10" class="node">
<title>BB_002E821C</title>
<ellipse fill="none" stroke="#000000" cx="197.4441" cy="-90.2146" rx="70.1118" ry="18"/>
<text text-anchor="middle" x="197.4441" y="-86.0146" font-family="Times,serif" font-size="14.00" fill="#000000">BB_002E821C</text>
</g>
<!-- BB_002E81D4&#45;&gt;BB_002E821C -->
<g id="edge10" class="edge">
<title>BB_002E81D4-&gt;BB_002E821C</title>
<path fill="none" stroke="#0000ff" d="M170.3703,-215.9769C175.6811,-191.3074 185.2035,-147.0744 191.4222,-118.1877"/>
<polygon fill="#0000ff" stroke="#0000ff" points="194.8668,-118.8169 193.5499,-108.3042 188.0236,-117.3436 194.8668,-118.8169"/>
</g>
<!-- BB_002E81E9&#45;&gt;BB_002E821C -->
<g id="edge12" class="edge">
<title>BB_002E81E9-&gt;BB_002E821C</title>
<path fill="none" stroke="#00ff00" d="M293.2208,-218.0793C277.1804,-208.6512 258.176,-195.5849 244.4441,-180.2146 228.0429,-161.8563 215.549,-136.7436 207.5804,-117.7095"/>
<polygon fill="#00ff00" stroke="#00ff00" points="210.8065,-116.3509 203.8291,-108.378 204.3116,-118.9618 210.8065,-116.3509"/>
</g>
<!-- BB_002E8213 -->
<g id="node11" class="node">
<title>BB_002E8213</title>
<ellipse fill="none" stroke="#000000" cx="321.4441" cy="-162.2146" rx="68.3883" ry="18"/>
<text text-anchor="middle" x="321.4441" y="-158.0146" font-family="Times,serif" font-size="14.00" fill="#000000">BB_002E8213</text>
</g>
<!-- BB_002E81E9&#45;&gt;BB_002E8213 -->
<g id="edge11" class="edge">
<title>BB_002E81E9-&gt;BB_002E8213</title>
<path fill="none" stroke="#ff0000" d="M323.6871,-216.046C323.3663,-208.3456 322.9847,-199.1889 322.6282,-190.6312"/>
<polygon fill="#ff0000" stroke="#ff0000" points="326.1247,-190.4735 322.2114,-180.6279 319.1308,-190.7649 326.1247,-190.4735"/>
</g>
<!-- BB_002E821C&#45;&gt;end -->
<g id="edge14" class="edge">
<title>BB_002E821C-&gt;end</title>
<path fill="none" stroke="#000000" d="M183.1071,-72.3903C176.2574,-63.8746 167.9268,-53.5177 160.3858,-44.1425"/>
<polygon fill="#000000" stroke="#000000" points="163.0141,-41.8258 154.0192,-36.2274 157.5596,-46.2132 163.0141,-41.8258"/>
</g>
<!-- BB_002E8213&#45;&gt;BB_002E821C -->
<g id="edge13" class="edge">
<title>BB_002E8213-&gt;BB_002E821C</title>
<path fill="none" stroke="#0000ff" d="M292.996,-145.6963C275.7909,-135.7062 253.6528,-122.8519 235.0185,-112.032"/>
<polygon fill="#0000ff" stroke="#0000ff" points="236.5947,-108.9 226.1893,-106.9053 233.0797,-114.9535 236.5947,-108.9"/>
</g>
</g>
</svg>