<?xml version="1.0" encoding="UTF-8" standalone="no"?><!DOCTYPE svg PUBLIC "-//W3C//DTD SVG 1.1//EN" "http://www.w3.org/Graphics/SVG/1.1/DTD/svg11.dtd"><!-- Generated by graphviz version 2.40.1 (20161225.0304)
 --><!-- Title: G Pages: 1 --><svg xmlns="http://www.w3.org/2000/svg" xmlns:xlink="http://www.w3.org/1999/xlink" width="146pt" height="188pt" viewBox="0.00 0.00 145.97 188.21">
<g id="graph0" class="graph" transform="scale(1 1) rotate(0) translate(4 184.2146)">
<title>G</title>
<polygon fill="#ffffff" stroke="transparent" points="-4,4 -4,-184.2146 141.9679,-184.2146 141.9679,4 -4,4"/>
<!-- start -->
<g id="node1" class="node">
<title>start</title>
<polygon fill="none" stroke="#000000" points="68.984,-180.2146 29.7467,-162.2146 68.984,-144.2146 108.2213,-162.2146 68.984,-180.2146"/>
<polyline fill="none" stroke="#000000" points="40.6537,-167.2182 40.6537,-157.211 "/>
<polyline fill="none" stroke="#000000" points="58.0769,-149.2182 79.891,-149.2182 "/>
<polyline fill="none" stroke="#000000" points="97.3142,-157.211 97.3142,-167.2182 "/>
<polyline fill="none" stroke="#000000" points="79.891,-175.211 58.0769,-175.211 "/>
<text text-anchor="middle" x="68.984" y="-158.0146" font-family="Times,serif" font-size="14.00" fill="#000000">start</text>
</g>
<!-- BB_002E6F10 -->
<g id="node2" class="node">
<title>BB_002E6F10</title>
<ellipse fill="none" stroke="#000000" cx="68.984" cy="-90.2146" rx="68.9679" ry="18"/>
<text text-anchor="middle" x="68.984" y="-86.0146" font-family="Times,serif" font-size="14.00" fill="#000000">BB_002E6F10</text>
</g>
<!-- start&#45;&gt;BB_002E6F10 -->
<g id="edge1" class="edge">
<title>start-&gt;BB_002E6F10</title>
<path fill="none" stroke="#000000" d="M68.984,-144.046C68.984,-136.3456 68.984,-127.1889 68.984,-118.6312"/>
<polygon fill="#000000" stroke="#000000" points="72.4841,-118.6278 68.984,-108.6279 65.4841,-118.6279 72.4841,-118.6278"/>
</g>
<!-- end -->
<g id="node3" class="node">
<title>end</title>
<polygon fill="none" stroke="#000000" points="87.1992,-36.3225 50.7687,-36.3225 50.7687,.1079 87.1992,.1079 87.1992,-36.3225"/>
<polyline fill="none" stroke="#000000" points="62.7687,-36.3225 50.7687,-24.3225 "/>
<polyline fill="none" stroke="#000000" points="50.7687,-11.8921 62.7687,.1079 "/>
<polyline fill="none" stroke="#000000" points="75.1992,.1079 87.1992,-11.8921 "/>
<polyline fill="none" stroke="#000000" points="87.1992,-24.3225 75.1992,-36.3225 "/>
<text text-anchor="middle" x="68.984" y="-13.9073" font-family="Times,serif" font-size="14.00" fill="#000000">end</text>
</g>
<!-- BB_002E6F10&#45;&gt;end -->
<g id="edge2" class="edge">
<title>BB_002E6F10-&gt;end</title>
<path fill="none" stroke="#000000" d="M68.984,-72.0189C68.984,-64.2477 68.984,-54.9956 68.984,-46.3686"/>
<polygon fill="#000000" stroke="#000000" points="72.4841,-46.2972 68.984,-36.2972 65.4841,-46.2972 72.4841,-46.2972"/>
</g>
</g>
</svg>