<?xml version="1.0" encoding="UTF-8" standalone="no"?><!DOCTYPE svg PUBLIC "-//W3C//DTD SVG 1.1//EN" "http://www.w3.org/Graphics/SVG/1.1/DTD/svg11.dtd"><!-- Generated by graphviz version 2.40.1 (20161225.0304)
 --><!-- Title: G Pages: 1 --><svg xmlns="http://www.w3.org/2000/svg" xmlns:xlink="http://www.w3.org/1999/xlink" width="144pt" height="188pt" viewBox="0.00 0.00 143.83 188.21">
<g id="graph0" class="graph" transform="scale(1 1) rotate(0) translate(4 184.2146)">
<title>G</title>
<polygon fill="#ffffff" stroke="transparent" points="-4,4 -4,-184.2146 139.826,-184.2146 139.826,4 -4,4"/>
<!-- start -->
<g id="node1" class="node">
<title>start</title>
<polygon fill="none" stroke="#000000" points="67.913,-180.2146 28.6757,-162.2146 67.913,-144.2146 107.1503,-162.2146 67.913,-180.2146"/>
<polyline fill="none" stroke="#000000" points="39.5828,-167.2182 39.5828,-157.211 "/>
<polyline fill="none" stroke="#000000" points="57.0059,-149.2182 78.8201,-149.2182 "/>
<polyline fill="none" stroke="#000000" points="96.2433,-157.211 96.2433,-167.2182 "/>
<polyline fill="none" stroke="#000000" points="78.8201,-175.211 57.0059,-175.211 "/>
<text text-anchor="middle" x="67.913" y="-158.0146" font-family="Times,serif" font-size="14.00" fill="#000000">start</text>
</g>
<!-- BB_002F1320 -->
<g id="node2" class="node">
<title>BB_002F1320</title>
<ellipse fill="none" stroke="#000000" cx="67.913" cy="-90.2146" rx="67.8261" ry="18"/>
<text text-anchor="middle" x="67.913" y="-86.0146" font-family="Times,serif" font-size="14.00" fill="#000000">BB_002F1320</text>
</g>
<!-- start&#45;&gt;BB_002F1320 -->
<g id="edge1" class="edge">
<title>start-&gt;BB_002F1320</title>
<path fill="none" stroke="#000000" d="M67.913,-144.046C67.913,-136.3456 67.913,-127.1889 67.913,-118.6312"/>
<polygon fill="#000000" stroke="#000000" points="71.4131,-118.6278 67.913,-108.6279 64.4131,-118.6279 71.4131,-118.6278"/>
</g>
<!-- end -->
<g id="node3" class="node">
<title>end</title>
<polygon fill="none" stroke="#000000" points="86.1283,-36.3225 49.6978,-36.3225 49.6978,.1079 86.1283,.1079 86.1283,-36.3225"/>
<polyline fill="none" stroke="#000000" points="61.6978,-36.3225 49.6978,-24.3225 "/>
<polyline fill="none" stroke="#000000" points="49.6978,-11.8921 61.6978,.1079 "/>
<polyline fill="none" stroke="#000000" points="74.1283,.1079 86.1283,-11.8921 "/>
<polyline fill="none" stroke="#000000" points="86.1283,-24.3225 74.1283,-36.3225 "/>
<text text-anchor="middle" x="67.913" y="-13.9073" font-family="Times,serif" font-size="14.00" fill="#000000">end</text>
</g>
<!-- BB_002F1320&#45;&gt;end -->
<g id="edge2" class="edge">
<title>BB_002F1320-&gt;end</title>
<path fill="none" stroke="#000000" d="M67.913,-72.0189C67.913,-64.2477 67.913,-54.9956 67.913,-46.3686"/>
<polygon fill="#000000" stroke="#000000" points="71.4131,-46.2972 67.913,-36.2972 64.4131,-46.2972 71.4131,-46.2972"/>
</g>
</g>
</svg>