<?xml version="1.0" encoding="UTF-8" standalone="no"?><!DOCTYPE svg PUBLIC "-//W3C//DTD SVG 1.1//EN" "http://www.w3.org/Graphics/SVG/1.1/DTD/svg11.dtd"><!-- Generated by graphviz version 2.40.1 (20161225.0304)
 --><!-- Title: G Pages: 1 --><svg xmlns="http://www.w3.org/2000/svg" xmlns:xlink="http://www.w3.org/1999/xlink" width="583pt" height="942pt" viewBox="0.00 0.00 582.87 941.86">
<g id="graph0" class="graph" transform="scale(1 1) rotate(0) translate(4 937.8584)">
<title>G</title>
<polygon fill="#ffffff" stroke="transparent" points="-4,4 -4,-937.8584 578.8664,-937.8584 578.8664,4 -4,4"/>
<!-- start -->
<g id="node1" class="node">
<title>start</title>
<polygon fill="none" stroke="#000000" points="256.8105,-933.8584 217.5732,-915.8584 256.8105,-897.8584 296.0478,-915.8584 256.8105,-933.8584"/>
<polyline fill="none" stroke="#000000" points="228.4803,-920.862 228.4803,-910.8548 "/>
<polyline fill="none" stroke="#000000" points="245.9034,-902.862 267.7176,-902.862 "/>
<polyline fill="none" stroke="#000000" points="285.1408,-910.8548 285.1408,-920.862 "/>
<polyline fill="none" stroke="#000000" points="267.7176,-928.8548 245.9034,-928.8548 "/>
<text text-anchor="middle" x="256.8105" y="-911.6584" font-family="Times,serif" font-size="14.00" fill="#000000">start</text>
</g>
<!-- BB_002E3BA0 -->
<g id="node2" class="node">
<title>BB_002E3BA0</title>
<ellipse fill="none" stroke="#000000" cx="256.8105" cy="-843.8584" rx="72.3981" ry="18"/>
<text text-anchor="middle" x="256.8105" y="-839.6584" font-family="Times,serif" font-size="14.00" fill="#000000">BB_002E3BA0</text>
</g>
<!-- start&#45;&gt;BB_002E3BA0 -->
<g id="edge1" class="edge">
<title>start-&gt;BB_002E3BA0</title>
<path fill="none" stroke="#000000" d="M256.8105,-897.6898C256.8105,-889.9894 256.8105,-880.8327 256.8105,-872.275"/>
<polygon fill="#000000" stroke="#000000" points="260.3106,-872.2716 256.8105,-862.2717 253.3106,-872.2717 260.3106,-872.2716"/>
</g>
<!-- BB_002E3BB6 -->
<g id="node3" class="node">
<title>BB_002E3BB6</title>
<ellipse fill="none" stroke="#000000" cx="175.8105" cy="-771.8584" rx="71.8357" ry="18"/>
<text text-anchor="middle" x="175.8105" y="-767.6584" font-family="Times,serif" font-size="14.00" fill="#000000">BB_002E3BB6</text>
</g>
<!-- BB_002E3BA0&#45;&gt;BB_002E3BB6 -->
<g id="edge2" class="edge">
<title>BB_002E3BA0-&gt;BB_002E3BB6</title>
<path fill="none" stroke="#ff0000" d="M237.2027,-826.4292C227.0302,-817.387 214.4361,-806.1922 203.3074,-796.3001"/>
<polygon fill="#ff0000" stroke="#ff0000" points="205.3179,-793.4044 195.5185,-789.3766 200.6674,-798.6362 205.3179,-793.4044"/>
</g>
<!-- BB_002E3BDE -->
<g id="node4" class="node">
<title>BB_002E3BDE</title>
<ellipse fill="none" stroke="#000000" cx="414.8105" cy="-771.8584" rx="73.0402" ry="18"/>
<text text-anchor="middle" x="414.8105" y="-767.6584" font-family="Times,serif" font-size="14.00" fill="#000000">BB_002E3BDE</text>
</g>
<!-- BB_002E3BA0&#45;&gt;BB_002E3BDE -->
<g id="edge3" class="edge">
<title>BB_002E3BA0-&gt;BB_002E3BDE</title>
<path fill="none" stroke="#00ff00" d="M291.4843,-828.0577C314.763,-817.4497 345.6338,-803.3819 370.6653,-791.9752"/>
<polygon fill="#00ff00" stroke="#00ff00" points="372.2966,-795.0782 379.945,-787.7465 369.3939,-788.7084 372.2966,-795.0782"/>
</g>
<!-- BB_002E3BBD -->
<g id="node5" class="node">
<title>BB_002E3BBD</title>
<ellipse fill="none" stroke="#000000" cx="73.8105" cy="-699.8584" rx="73.6215" ry="18"/>
<text text-anchor="middle" x="73.8105" y="-695.6584" font-family="Times,serif" font-size="14.00" fill="#000000">BB_002E3BBD</text>
</g>
<!-- BB_002E3BB6&#45;&gt;BB_002E3BBD -->
<g id="edge4" class="edge">
<title>BB_002E3BB6-&gt;BB_002E3BBD</title>
<path fill="none" stroke="#ff0000" d="M151.6379,-754.7954C138.1444,-745.2706 121.1482,-733.2733 106.4837,-722.9219"/>
<polygon fill="#ff0000" stroke="#ff0000" points="108.3512,-719.9559 98.1631,-717.0484 104.3143,-725.6747 108.3512,-719.9559"/>
</g>
<!-- BB_002E3BBF -->
<g id="node6" class="node">
<title>BB_002E3BBF</title>
<ellipse fill="none" stroke="#000000" cx="73.8105" cy="-627.8584" rx="72.4155" ry="18"/>
<text text-anchor="middle" x="73.8105" y="-623.6584" font-family="Times,serif" font-size="14.00" fill="#000000">BB_002E3BBF</text>
</g>
<!-- BB_002E3BB6&#45;&gt;BB_002E3BBF -->
<g id="edge5" class="edge">
<title>BB_002E3BB6-&gt;BB_002E3BBF</title>
<path fill="none" stroke="#00ff00" d="M175.9508,-753.7112C175.2529,-734.3196 171.6206,-703.4586 156.8105,-681.8584 147.3109,-668.0035 132.9701,-656.8577 118.868,-648.3715"/>
<polygon fill="#00ff00" stroke="#00ff00" points="120.5882,-645.3235 110.1637,-643.431 117.1327,-651.4112 120.5882,-645.3235"/>
</g>
<!-- BB_002E3BEA -->
<g id="node8" class="node">
<title>BB_002E3BEA</title>
<ellipse fill="none" stroke="#000000" cx="414.8105" cy="-699.8584" rx="73.0402" ry="18"/>
<text text-anchor="middle" x="414.8105" y="-695.6584" font-family="Times,serif" font-size="14.00" fill="#000000">BB_002E3BEA</text>
</g>
<!-- BB_002E3BDE&#45;&gt;BB_002E3BEA -->
<g id="edge8" class="edge">
<title>BB_002E3BDE-&gt;BB_002E3BEA</title>
<path fill="none" stroke="#ff0000" d="M414.8105,-753.6898C414.8105,-745.9894 414.8105,-736.8327 414.8105,-728.275"/>
<polygon fill="#ff0000" stroke="#ff0000" points="418.3106,-728.2716 414.8105,-718.2717 411.3106,-728.2717 418.3106,-728.2716"/>
</g>
<!-- BB_002E3C87 -->
<g id="node9" class="node">
<title>BB_002E3C87</title>
<ellipse fill="none" stroke="#000000" cx="504.8105" cy="-195.8584" rx="70.1118" ry="18"/>
<text text-anchor="middle" x="504.8105" y="-191.6584" font-family="Times,serif" font-size="14.00" fill="#000000">BB_002E3C87</text>
</g>
<!-- BB_002E3BDE&#45;&gt;BB_002E3C87 -->
<g id="edge9" class="edge">
<title>BB_002E3BDE-&gt;BB_002E3C87</title>
<path fill="none" stroke="#00ff00" d="M448.1045,-755.8029C489.2264,-733.3721 553.8105,-688.4918 553.8105,-627.8584 553.8105,-627.8584 553.8105,-627.8584 553.8105,-339.8584 553.8105,-298.9768 549.1193,-288.1542 534.8105,-249.8584 531.3372,-240.5625 526.4553,-230.9317 521.637,-222.4226"/>
<polygon fill="#00ff00" stroke="#00ff00" points="524.5913,-220.5418 516.5031,-213.6985 518.5584,-224.092 524.5913,-220.5418"/>
</g>
<!-- BB_002E3BBD&#45;&gt;BB_002E3BBF -->
<g id="edge6" class="edge">
<title>BB_002E3BBD-&gt;BB_002E3BBF</title>
<path fill="none" stroke="#0000ff" d="M73.8105,-681.6898C73.8105,-673.9894 73.8105,-664.8327 73.8105,-656.275"/>
<polygon fill="#0000ff" stroke="#0000ff" points="77.3106,-656.2716 73.8105,-646.2717 70.3106,-656.2717 77.3106,-656.2716"/>
</g>
<!-- end -->
<g id="node7" class="node">
<title>end</title>
<polygon fill="none" stroke="#000000" points="117.0258,-36.3225 80.5953,-36.3225 80.5953,.1079 117.0258,.1079 117.0258,-36.3225"/>
<polyline fill="none" stroke="#000000" points="92.5953,-36.3225 80.5953,-24.3225 "/>
<polyline fill="none" stroke="#000000" points="80.5953,-11.8921 92.5953,.1079 "/>
<polyline fill="none" stroke="#000000" points="105.0258,.1079 117.0258,-11.8921 "/>
<polyline fill="none" stroke="#000000" points="117.0258,-24.3225 105.0258,-36.3225 "/>
<text text-anchor="middle" x="98.8105" y="-13.9073" font-family="Times,serif" font-size="14.00" fill="#000000">end</text>
</g>
<!-- BB_002E3BBF&#45;&gt;end -->
<g id="edge7" class="edge">
<title>BB_002E3BBF-&gt;end</title>
<path fill="none" stroke="#000000" d="M65.7517,-609.6252C54.5971,-582.6832 35.8105,-530.3989 35.8105,-483.8584 35.8105,-483.8584 35.8105,-483.8584 35.8105,-195.8584 35.8105,-138.982 47.5273,-124.9587 68.8105,-72.2146 72.4706,-63.1443 77.3227,-53.6805 82.0557,-45.2509"/>
<polygon fill="#000000" stroke="#000000" points="85.0964,-46.9843 87.0828,-36.5774 79.0401,-43.4742 85.0964,-46.9843"/>
</g>
<!-- BB_002E3BF7 -->
<g id="node10" class="node">
<title>BB_002E3BF7</title>
<ellipse fill="none" stroke="#000000" cx="454.8105" cy="-555.8584" rx="70.6916" ry="18"/>
<text text-anchor="middle" x="454.8105" y="-551.6584" font-family="Times,serif" font-size="14.00" fill="#000000">BB_002E3BF7</text>
</g>
<!-- BB_002E3BEA&#45;&gt;BB_002E3BF7 -->
<g id="edge10" class="edge">
<title>BB_002E3BEA-&gt;BB_002E3BF7</title>
<path fill="none" stroke="#ff0000" d="M419.8765,-681.6207C426.7292,-656.9512 439.0161,-612.7182 447.0402,-583.8315"/>
<polygon fill="#ff0000" stroke="#ff0000" points="450.4814,-584.52 449.7856,-573.948 443.7368,-582.6464 450.4814,-584.52"/>
</g>
<!-- BB_002E3BFE -->
<g id="node11" class="node">
<title>BB_002E3BFE</title>
<ellipse fill="none" stroke="#000000" cx="293.8105" cy="-627.8584" rx="71.8337" ry="18"/>
<text text-anchor="middle" x="293.8105" y="-623.6584" font-family="Times,serif" font-size="14.00" fill="#000000">BB_002E3BFE</text>
</g>
<!-- BB_002E3BEA&#45;&gt;BB_002E3BFE -->
<g id="edge11" class="edge">
<title>BB_002E3BEA-&gt;BB_002E3BFE</title>
<path fill="none" stroke="#00ff00" d="M386.7465,-683.1592C370.1003,-673.254 348.8029,-660.5811 330.7964,-649.8666"/>
<polygon fill="#00ff00" stroke="#00ff00" points="332.1057,-646.5729 321.7223,-644.4671 328.5262,-652.5885 332.1057,-646.5729"/>
</g>
<!-- dead_end -->
<g id="node21" class="node">
<title>dead_end</title>
<polygon fill="none" stroke="#000000" points="539.4552,-141.6812 470.1658,-141.6812 470.1658,-72.3918 539.4552,-72.3918 539.4552,-141.6812"/>
<polyline fill="none" stroke="#000000" points="482.1658,-141.6812 470.1658,-129.6812 "/>
<polyline fill="none" stroke="#000000" points="470.1658,-84.3918 482.1658,-72.3918 "/>
<polyline fill="none" stroke="#000000" points="527.4552,-72.3918 539.4552,-84.3918 "/>
<polyline fill="none" stroke="#000000" points="539.4552,-129.6812 527.4552,-141.6812 "/>
<text text-anchor="middle" x="504.8105" y="-102.8365" font-family="Times,serif" font-size="14.00" fill="#000000">dead_end</text>
</g>
<!-- BB_002E3C87&#45;&gt;dead_end -->
<g id="edge27" class="edge">
<title>BB_002E3C87-&gt;dead_end</title>
<path fill="none" stroke="#000000" d="M504.8105,-177.4544C504.8105,-169.9968 504.8105,-161.0284 504.8105,-152.0283"/>
<polygon fill="#000000" stroke="#000000" points="508.3106,-151.9321 504.8105,-141.9321 501.3106,-151.9322 508.3106,-151.9321"/>
</g>
<!-- BB_002E3C1C -->
<g id="node12" class="node">
<title>BB_002E3C1C</title>
<ellipse fill="none" stroke="#000000" cx="277.8105" cy="-483.8584" rx="71.8357" ry="18"/>
<text text-anchor="middle" x="277.8105" y="-479.6584" font-family="Times,serif" font-size="14.00" fill="#000000">BB_002E3C1C</text>
</g>
<!-- BB_002E3BF7&#45;&gt;BB_002E3C1C -->
<g id="edge12" class="edge">
<title>BB_002E3BF7-&gt;BB_002E3C1C</title>
<path fill="none" stroke="#0000ff" d="M417.2734,-540.5891C390.3777,-529.6485 353.9561,-514.8329 325.0779,-503.0858"/>
<polygon fill="#0000ff" stroke="#0000ff" points="326.18,-499.7557 315.5982,-499.2297 323.5424,-506.2398 326.18,-499.7557"/>
</g>
<!-- BB_002E3C0D -->
<g id="node13" class="node">
<title>BB_002E3C0D</title>
<ellipse fill="none" stroke="#000000" cx="293.8105" cy="-555.8584" rx="72.3981" ry="18"/>
<text text-anchor="middle" x="293.8105" y="-551.6584" font-family="Times,serif" font-size="14.00" fill="#000000">BB_002E3C0D</text>
</g>
<!-- BB_002E3BFE&#45;&gt;BB_002E3C0D -->
<g id="edge13" class="edge">
<title>BB_002E3BFE-&gt;BB_002E3C0D</title>
<path fill="none" stroke="#ff0000" d="M293.8105,-609.6898C293.8105,-601.9894 293.8105,-592.8327 293.8105,-584.275"/>
<polygon fill="#ff0000" stroke="#ff0000" points="297.3106,-584.2716 293.8105,-574.2717 290.3106,-584.2717 297.3106,-584.2716"/>
</g>
<!-- BB_002E3C14 -->
<g id="node14" class="node">
<title>BB_002E3C14</title>
<ellipse fill="none" stroke="#000000" cx="133.8105" cy="-555.8584" rx="70.1118" ry="18"/>
<text text-anchor="middle" x="133.8105" y="-551.6584" font-family="Times,serif" font-size="14.00" fill="#000000">BB_002E3C14</text>
</g>
<!-- BB_002E3BFE&#45;&gt;BB_002E3C14 -->
<g id="edge14" class="edge">
<title>BB_002E3BFE-&gt;BB_002E3C14</title>
<path fill="none" stroke="#00ff00" d="M258.6978,-612.0577C234.9613,-601.3763 203.4298,-587.1871 177.9891,-575.7388"/>
<polygon fill="#00ff00" stroke="#00ff00" points="179.1214,-572.4103 168.5659,-571.4983 176.2488,-578.7937 179.1214,-572.4103"/>
</g>
<!-- BB_002E3C4C -->
<g id="node15" class="node">
<title>BB_002E3C4C</title>
<ellipse fill="none" stroke="#000000" cx="277.8105" cy="-411.8584" rx="71.8357" ry="18"/>
<text text-anchor="middle" x="277.8105" y="-407.6584" font-family="Times,serif" font-size="14.00" fill="#000000">BB_002E3C4C</text>
</g>
<!-- BB_002E3C1C&#45;&gt;BB_002E3C4C -->
<g id="edge17" class="edge">
<title>BB_002E3C1C-&gt;BB_002E3C4C</title>
<path fill="none" stroke="#ff0000" d="M277.8105,-465.6898C277.8105,-457.9894 277.8105,-448.8327 277.8105,-440.275"/>
<polygon fill="#ff0000" stroke="#ff0000" points="281.3106,-440.2716 277.8105,-430.2717 274.3106,-440.2717 281.3106,-440.2716"/>
</g>
<!-- BB_002E3C75 -->
<g id="node16" class="node">
<title>BB_002E3C75</title>
<ellipse fill="none" stroke="#000000" cx="147.8105" cy="-107.0365" rx="70.1118" ry="18"/>
<text text-anchor="middle" x="147.8105" y="-102.8365" font-family="Times,serif" font-size="14.00" fill="#000000">BB_002E3C75</text>
</g>
<!-- BB_002E3C1C&#45;&gt;BB_002E3C75 -->
<g id="edge18" class="edge">
<title>BB_002E3C1C-&gt;BB_002E3C75</title>
<path fill="none" stroke="#00ff00" d="M247.0023,-467.4347C208.5596,-444.4482 147.8105,-398.7994 147.8105,-339.8584 147.8105,-339.8584 147.8105,-339.8584 147.8105,-267.8584 147.8105,-221.4515 147.8105,-167.5121 147.8105,-135.3837"/>
<polygon fill="#00ff00" stroke="#00ff00" points="151.3106,-135.3665 147.8105,-125.3665 144.3106,-135.3666 151.3106,-135.3665"/>
</g>
<!-- BB_002E3C0D&#45;&gt;BB_002E3C1C -->
<g id="edge15" class="edge">
<title>BB_002E3C0D-&gt;BB_002E3C1C</title>
<path fill="none" stroke="#0000ff" d="M289.773,-537.6898C288.0618,-529.9894 286.027,-520.8327 284.1253,-512.275"/>
<polygon fill="#0000ff" stroke="#0000ff" points="287.4884,-511.2743 281.9023,-502.2717 280.6551,-512.7928 287.4884,-511.2743"/>
</g>
<!-- BB_002E3C14&#45;&gt;BB_002E3C1C -->
<g id="edge16" class="edge">
<title>BB_002E3C14-&gt;BB_002E3C1C</title>
<path fill="none" stroke="#0000ff" d="M166.1269,-539.7002C186.9708,-529.2783 214.2674,-515.6299 236.6568,-504.4352"/>
<polygon fill="#0000ff" stroke="#0000ff" points="238.2229,-507.5654 245.602,-499.9627 235.0924,-501.3044 238.2229,-507.5654"/>
</g>
<!-- BB_002E3C59 -->
<g id="node17" class="node">
<title>BB_002E3C59</title>
<ellipse fill="none" stroke="#000000" cx="297.8105" cy="-339.8584" rx="70.1118" ry="18"/>
<text text-anchor="middle" x="297.8105" y="-335.6584" font-family="Times,serif" font-size="14.00" fill="#000000">BB_002E3C59</text>
</g>
<!-- BB_002E3C4C&#45;&gt;BB_002E3C59 -->
<g id="edge19" class="edge">
<title>BB_002E3C4C-&gt;BB_002E3C59</title>
<path fill="none" stroke="#ff0000" d="M282.8574,-393.6898C285.0199,-385.9047 287.5958,-376.6313 289.9953,-367.9931"/>
<polygon fill="#ff0000" stroke="#ff0000" points="293.3915,-368.8436 292.6957,-358.2717 286.6469,-366.9701 293.3915,-368.8436"/>
</g>
<!-- BB_002E3C6B -->
<g id="node18" class="node">
<title>BB_002E3C6B</title>
<ellipse fill="none" stroke="#000000" cx="247.8105" cy="-195.8584" rx="71.8357" ry="18"/>
<text text-anchor="middle" x="247.8105" y="-191.6584" font-family="Times,serif" font-size="14.00" fill="#000000">BB_002E3C6B</text>
</g>
<!-- BB_002E3C4C&#45;&gt;BB_002E3C6B -->
<g id="edge20" class="edge">
<title>BB_002E3C4C-&gt;BB_002E3C6B</title>
<path fill="none" stroke="#00ff00" d="M250.9259,-395.0084C238.6868,-385.7126 225.4699,-372.981 218.8105,-357.8584 199.4658,-313.9291 207.1018,-296.4084 218.8105,-249.8584 221.1491,-240.5608 225.4335,-231.1193 230.0044,-222.7867"/>
<polygon fill="#00ff00" stroke="#00ff00" points="233.1654,-224.3148 235.1984,-213.9169 227.1249,-220.7776 233.1654,-224.3148"/>
</g>
<!-- BB_002E3C75&#45;&gt;end -->
<g id="edge25" class="edge">
<title>BB_002E3C75-&gt;end</title>
<path fill="none" stroke="#000000" d="M137.8946,-89.0403C130.9668,-76.4672 121.5929,-59.4546 113.7619,-45.2423"/>
<polygon fill="#000000" stroke="#000000" points="116.7713,-43.4513 108.8798,-36.3819 110.6403,-46.8295 116.7713,-43.4513"/>
</g>
<!-- BB_002E3C69 -->
<g id="node19" class="node">
<title>BB_002E3C69</title>
<ellipse fill="none" stroke="#000000" cx="297.8105" cy="-267.8584" rx="70.1118" ry="18"/>
<text text-anchor="middle" x="297.8105" y="-263.6584" font-family="Times,serif" font-size="14.00" fill="#000000">BB_002E3C69</text>
</g>
<!-- BB_002E3C59&#45;&gt;BB_002E3C69 -->
<g id="edge21" class="edge">
<title>BB_002E3C59-&gt;BB_002E3C69</title>
<path fill="none" stroke="#ff0000" d="M297.8105,-321.6898C297.8105,-313.9894 297.8105,-304.8327 297.8105,-296.275"/>
<polygon fill="#ff0000" stroke="#ff0000" points="301.3106,-296.2716 297.8105,-286.2717 294.3106,-296.2717 301.3106,-296.2716"/>
</g>
<!-- BB_002E3C82 -->
<g id="node20" class="node">
<title>BB_002E3C82</title>
<ellipse fill="none" stroke="#000000" cx="455.8105" cy="-267.8584" rx="70.1118" ry="18"/>
<text text-anchor="middle" x="455.8105" y="-263.6584" font-family="Times,serif" font-size="14.00" fill="#000000">BB_002E3C82</text>
</g>
<!-- BB_002E3C59&#45;&gt;BB_002E3C82 -->
<g id="edge22" class="edge">
<title>BB_002E3C59-&gt;BB_002E3C82</title>
<path fill="none" stroke="#00ff00" d="M332.4843,-324.0577C355.8436,-313.413 386.8476,-299.2846 411.9249,-287.8569"/>
<polygon fill="#00ff00" stroke="#00ff00" points="413.5693,-290.9539 421.2176,-283.6222 410.6665,-284.5841 413.5693,-290.9539"/>
</g>
<!-- BB_002E3C6B&#45;&gt;BB_002E3C75 -->
<g id="edge24" class="edge">
<title>BB_002E3C6B-&gt;BB_002E3C75</title>
<path fill="none" stroke="#0000ff" d="M228.0537,-178.3101C212.9877,-164.9281 192.0535,-146.334 175.345,-131.4931"/>
<polygon fill="#0000ff" stroke="#0000ff" points="177.3272,-128.5725 167.5263,-124.5484 172.6785,-133.8061 177.3272,-128.5725"/>
</g>
<!-- BB_002E3C69&#45;&gt;BB_002E3C6B -->
<g id="edge23" class="edge">
<title>BB_002E3C69-&gt;BB_002E3C6B</title>
<path fill="none" stroke="#0000ff" d="M285.451,-250.0606C279.5615,-241.5798 272.4019,-231.2699 265.9144,-221.928"/>
<polygon fill="#0000ff" stroke="#0000ff" points="268.78,-219.9183 260.2012,-213.7009 263.0304,-223.9111 268.78,-219.9183"/>
</g>
<!-- BB_002E3C82&#45;&gt;BB_002E3C87 -->
<g id="edge26" class="edge">
<title>BB_002E3C82-&gt;BB_002E3C87</title>
<path fill="none" stroke="#0000ff" d="M467.9229,-250.0606C473.6357,-241.6663 480.5679,-231.4802 486.8739,-222.2142"/>
<polygon fill="#0000ff" stroke="#0000ff" points="489.9349,-223.9373 492.6677,-213.7009 484.1479,-219.9989 489.9349,-223.9373"/>
</g>
</g>
</svg>