<?xml version="1.0" encoding="UTF-8" standalone="no"?><!DOCTYPE svg PUBLIC "-//W3C//DTD SVG 1.1//EN" "http://www.w3.org/Graphics/SVG/1.1/DTD/svg11.dtd"><!-- Generated by graphviz version 2.40.1 (20161225.0304)
 --><!-- Title: G Pages: 1 --><svg xmlns="http://www.w3.org/2000/svg" xmlns:xlink="http://www.w3.org/1999/xlink" width="739pt" height="1556pt" viewBox="0.00 0.00 739.03 1556.21">
<g id="graph0" class="graph" transform="scale(1 1) rotate(0) translate(4 1552.2146)">
<title>G</title>
<polygon fill="#ffffff" stroke="transparent" points="-4,4 -4,-1552.2146 735.0313,-1552.2146 735.0313,4 -4,4"/>
<!-- start -->
<g id="node1" class="node">
<title>start</title>
<polygon fill="none" stroke="#000000" points="141.0559,-1548.2146 101.8186,-1530.2146 141.0559,-1512.2146 180.2932,-1530.2146 141.0559,-1548.2146"/>
<polyline fill="none" stroke="#000000" points="112.7257,-1535.2182 112.7257,-1525.211 "/>
<polyline fill="none" stroke="#000000" points="130.1488,-1517.2182 151.963,-1517.2182 "/>
<polyline fill="none" stroke="#000000" points="169.3861,-1525.211 169.3861,-1535.2182 "/>
<polyline fill="none" stroke="#000000" points="151.963,-1543.211 130.1488,-1543.211 "/>
<text text-anchor="middle" x="141.0559" y="-1526.0146" font-family="Times,serif" font-size="14.00" fill="#000000">start</text>
</g>
<!-- BB_002EC5E0 -->
<g id="node2" class="node">
<title>BB_002EC5E0</title>
<ellipse fill="none" stroke="#000000" cx="141.0559" cy="-1458.2146" rx="71.2539" ry="18"/>
<text text-anchor="middle" x="141.0559" y="-1454.0146" font-family="Times,serif" font-size="14.00" fill="#000000">BB_002EC5E0</text>
</g>
<!-- start&#45;&gt;BB_002EC5E0 -->
<g id="edge1" class="edge">
<title>start-&gt;BB_002EC5E0</title>
<path fill="none" stroke="#000000" d="M141.0559,-1512.046C141.0559,-1504.3456 141.0559,-1495.1889 141.0559,-1486.6312"/>
<polygon fill="#000000" stroke="#000000" points="144.556,-1486.6278 141.0559,-1476.6279 137.556,-1486.6279 144.556,-1486.6278"/>
</g>
<!-- BB_002EC647 -->
<g id="node3" class="node">
<title>BB_002EC647</title>
<ellipse fill="none" stroke="#000000" cx="70.0559" cy="-1314.2146" rx="70.1118" ry="18"/>
<text text-anchor="middle" x="70.0559" y="-1310.0146" font-family="Times,serif" font-size="14.00" fill="#000000">BB_002EC647</text>
</g>
<!-- BB_002EC5E0&#45;&gt;BB_002EC647 -->
<g id="edge2" class="edge">
<title>BB_002EC5E0-&gt;BB_002EC647</title>
<path fill="none" stroke="#ff0000" d="M132.2072,-1440.2681C119.9836,-1415.4764 97.8251,-1370.5353 83.5349,-1341.5524"/>
<polygon fill="#ff0000" stroke="#ff0000" points="86.5775,-1339.8086 79.016,-1332.3873 80.2992,-1342.9042 86.5775,-1339.8086"/>
</g>
<!-- BB_002EC668 -->
<g id="node4" class="node">
<title>BB_002EC668</title>
<ellipse fill="none" stroke="#000000" cx="201.0559" cy="-1386.2146" rx="70.1118" ry="18"/>
<text text-anchor="middle" x="201.0559" y="-1382.0146" font-family="Times,serif" font-size="14.00" fill="#000000">BB_002EC668</text>
</g>
<!-- BB_002EC5E0&#45;&gt;BB_002EC668 -->
<g id="edge3" class="edge">
<title>BB_002EC5E0-&gt;BB_002EC668</title>
<path fill="none" stroke="#00ff00" d="M155.8874,-1440.4168C163.0269,-1431.8494 171.7218,-1421.4155 179.5693,-1411.9985"/>
<polygon fill="#00ff00" stroke="#00ff00" points="182.474,-1413.98 186.1871,-1404.0571 177.0964,-1409.4987 182.474,-1413.98"/>
</g>
<!-- BB_002EC82D -->
<g id="node5" class="node">
<title>BB_002EC82D</title>
<ellipse fill="none" stroke="#000000" cx="319.0559" cy="-90.2146" rx="72.3981" ry="18"/>
<text text-anchor="middle" x="319.0559" y="-86.0146" font-family="Times,serif" font-size="14.00" fill="#000000">BB_002EC82D</text>
</g>
<!-- BB_002EC647&#45;&gt;BB_002EC82D -->
<g id="edge4" class="edge">
<title>BB_002EC647-&gt;BB_002EC82D</title>
<path fill="none" stroke="#0000ff" d="M60.5125,-1296.1415C47.3032,-1269.399 25.0559,-1217.3607 25.0559,-1170.2146 25.0559,-1170.2146 25.0559,-1170.2146 25.0559,-234.2146 25.0559,-180.9906 58.6321,-171.9539 104.0559,-144.2146 145.5624,-118.8675 198.4803,-105.3863 241.4297,-98.2327"/>
<polygon fill="#0000ff" stroke="#0000ff" points="242.2256,-101.6504 251.5561,-96.6314 241.1321,-94.7364 242.2256,-101.6504"/>
</g>
<!-- BB_002EC670 -->
<g id="node6" class="node">
<title>BB_002EC670</title>
<ellipse fill="none" stroke="#000000" cx="299.0559" cy="-1314.2146" rx="70.1118" ry="18"/>
<text text-anchor="middle" x="299.0559" y="-1310.0146" font-family="Times,serif" font-size="14.00" fill="#000000">BB_002EC670</text>
</g>
<!-- BB_002EC668&#45;&gt;BB_002EC670 -->
<g id="edge5" class="edge">
<title>BB_002EC668-&gt;BB_002EC670</title>
<path fill="none" stroke="#ff0000" d="M224.2805,-1369.1516C237.1237,-1359.7158 253.2696,-1347.8535 267.2683,-1337.5687"/>
<polygon fill="#ff0000" stroke="#ff0000" points="269.6718,-1340.146 275.6583,-1331.4046 265.5272,-1334.5048 269.6718,-1340.146"/>
</g>
<!-- BB_002EC672 -->
<g id="node7" class="node">
<title>BB_002EC672</title>
<ellipse fill="none" stroke="#000000" cx="299.0559" cy="-1242.2146" rx="70.1118" ry="18"/>
<text text-anchor="middle" x="299.0559" y="-1238.0146" font-family="Times,serif" font-size="14.00" fill="#000000">BB_002EC672</text>
</g>
<!-- BB_002EC668&#45;&gt;BB_002EC672 -->
<g id="edge6" class="edge">
<title>BB_002EC668-&gt;BB_002EC672</title>
<path fill="none" stroke="#00ff00" d="M201.0113,-1368.1323C201.7912,-1348.7961 205.493,-1317.9822 220.0559,-1296.2146 229.0736,-1282.7356 242.7009,-1271.6844 256.1112,-1263.1693"/>
<polygon fill="#00ff00" stroke="#00ff00" points="258.0614,-1266.0811 264.8417,-1257.9399 254.4644,-1260.0759 258.0614,-1266.0811"/>
</g>
<!-- end -->
<g id="node34" class="node">
<title>end</title>
<polygon fill="none" stroke="#000000" points="337.2711,-36.3225 300.8407,-36.3225 300.8407,.1079 337.2711,.1079 337.2711,-36.3225"/>
<polyline fill="none" stroke="#000000" points="312.8407,-36.3225 300.8407,-24.3225 "/>
<polyline fill="none" stroke="#000000" points="300.8407,-11.8921 312.8407,.1079 "/>
<polyline fill="none" stroke="#000000" points="325.2711,.1079 337.2711,-11.8921 "/>
<polyline fill="none" stroke="#000000" points="337.2711,-24.3225 325.2711,-36.3225 "/>
<text text-anchor="middle" x="319.0559" y="-13.9073" font-family="Times,serif" font-size="14.00" fill="#000000">end</text>
</g>
<!-- BB_002EC82D&#45;&gt;end -->
<g id="edge51" class="edge">
<title>BB_002EC82D-&gt;end</title>
<path fill="none" stroke="#000000" d="M319.0559,-72.0189C319.0559,-64.2477 319.0559,-54.9956 319.0559,-46.3686"/>
<polygon fill="#000000" stroke="#000000" points="322.556,-46.2972 319.0559,-36.2972 315.556,-46.2972 322.556,-46.2972"/>
</g>
<!-- BB_002EC670&#45;&gt;BB_002EC672 -->
<g id="edge7" class="edge">
<title>BB_002EC670-&gt;BB_002EC672</title>
<path fill="none" stroke="#0000ff" d="M299.0559,-1296.046C299.0559,-1288.3456 299.0559,-1279.1889 299.0559,-1270.6312"/>
<polygon fill="#0000ff" stroke="#0000ff" points="302.556,-1270.6278 299.0559,-1260.6279 295.556,-1270.6279 302.556,-1270.6278"/>
</g>
<!-- BB_002EC683 -->
<g id="node8" class="node">
<title>BB_002EC683</title>
<ellipse fill="none" stroke="#000000" cx="488.0559" cy="-1098.2146" rx="70.1118" ry="18"/>
<text text-anchor="middle" x="488.0559" y="-1094.0146" font-family="Times,serif" font-size="14.00" fill="#000000">BB_002EC683</text>
</g>
<!-- BB_002EC672&#45;&gt;BB_002EC683 -->
<g id="edge8" class="edge">
<title>BB_002EC672-&gt;BB_002EC683</title>
<path fill="none" stroke="#ff0000" d="M325.0658,-1225.2542C340.6654,-1214.8814 360.7673,-1201.1584 378.0559,-1188.2146 406.6048,-1166.8403 437.9807,-1140.9128 459.8911,-1122.3869"/>
<polygon fill="#ff0000" stroke="#ff0000" points="462.4406,-1124.8137 467.7993,-1115.6739 457.9106,-1119.477 462.4406,-1124.8137"/>
</g>
<!-- BB_002EC697 -->
<g id="node9" class="node">
<title>BB_002EC697</title>
<ellipse fill="none" stroke="#000000" cx="299.0559" cy="-1170.2146" rx="70.1118" ry="18"/>
<text text-anchor="middle" x="299.0559" y="-1166.0146" font-family="Times,serif" font-size="14.00" fill="#000000">BB_002EC697</text>
</g>
<!-- BB_002EC672&#45;&gt;BB_002EC697 -->
<g id="edge9" class="edge">
<title>BB_002EC672-&gt;BB_002EC697</title>
<path fill="none" stroke="#00ff00" d="M299.0559,-1224.046C299.0559,-1216.3456 299.0559,-1207.1889 299.0559,-1198.6312"/>
<polygon fill="#00ff00" stroke="#00ff00" points="302.556,-1198.6278 299.0559,-1188.6279 295.556,-1198.6279 302.556,-1198.6278"/>
</g>
<!-- BB_002EC7CD -->
<g id="node10" class="node">
<title>BB_002EC7CD</title>
<ellipse fill="none" stroke="#000000" cx="466.0559" cy="-450.2146" rx="73.6215" ry="18"/>
<text text-anchor="middle" x="466.0559" y="-446.0146" font-family="Times,serif" font-size="14.00" fill="#000000">BB_002EC7CD</text>
</g>
<!-- BB_002EC683&#45;&gt;BB_002EC7CD -->
<g id="edge10" class="edge">
<title>BB_002EC683-&gt;BB_002EC7CD</title>
<path fill="none" stroke="#0000ff" d="M494.8423,-1079.8643C504.2356,-1052.7765 520.0559,-1000.3123 520.0559,-954.2146 520.0559,-954.2146 520.0559,-954.2146 520.0559,-594.2146 520.0559,-553.333 516.6577,-542.002 501.0559,-504.2146 497.132,-494.7111 491.5061,-485.0617 485.9089,-476.5995"/>
<polygon fill="#0000ff" stroke="#0000ff" points="488.7193,-474.5096 480.1591,-468.2667 482.9577,-478.4852 488.7193,-474.5096"/>
</g>
<!-- BB_002EC697&#45;&gt;BB_002EC7CD -->
<g id="edge12" class="edge">
<title>BB_002EC697-&gt;BB_002EC7CD</title>
<path fill="none" stroke="#00ff00" d="M265.2713,-1154.3955C249.5228,-1145.353 231.9058,-1132.537 221.0559,-1116.2146 198.4247,-1082.1685 202.0559,-1067.0962 202.0559,-1026.2146 202.0559,-1026.2146 202.0559,-1026.2146 202.0559,-594.2146 202.0559,-546.964 334.0398,-494.5406 411.3656,-467.8817"/>
<polygon fill="#00ff00" stroke="#00ff00" points="412.6379,-471.1458 420.9726,-464.605 410.3781,-464.5206 412.6379,-471.1458"/>
</g>
<!-- BB_002EC6A4 -->
<g id="node11" class="node">
<title>BB_002EC6A4</title>
<ellipse fill="none" stroke="#000000" cx="302.0559" cy="-1098.2146" rx="72.3981" ry="18"/>
<text text-anchor="middle" x="302.0559" y="-1094.0146" font-family="Times,serif" font-size="14.00" fill="#000000">BB_002EC6A4</text>
</g>
<!-- BB_002EC697&#45;&gt;BB_002EC6A4 -->
<g id="edge11" class="edge">
<title>BB_002EC697-&gt;BB_002EC6A4</title>
<path fill="none" stroke="#ff0000" d="M299.8129,-1152.046C300.1338,-1144.3456 300.5153,-1135.1889 300.8719,-1126.6312"/>
<polygon fill="#ff0000" stroke="#ff0000" points="304.3692,-1126.7649 301.2887,-1116.6279 297.3753,-1126.4735 304.3692,-1126.7649"/>
</g>
<!-- BB_002EC7D3 -->
<g id="node26" class="node">
<title>BB_002EC7D3</title>
<ellipse fill="none" stroke="#000000" cx="645.0559" cy="-378.2146" rx="72.3981" ry="18"/>
<text text-anchor="middle" x="645.0559" y="-374.0146" font-family="Times,serif" font-size="14.00" fill="#000000">BB_002EC7D3</text>
</g>
<!-- BB_002EC7CD&#45;&gt;BB_002EC7D3 -->
<g id="edge37" class="edge">
<title>BB_002EC7CD-&gt;BB_002EC7D3</title>
<path fill="none" stroke="#ff0000" d="M504.4559,-434.7688C531.5902,-423.8544 568.1484,-409.1495 597.185,-397.4699"/>
<polygon fill="#ff0000" stroke="#ff0000" points="598.7479,-400.6139 606.7194,-393.6349 596.1357,-394.1195 598.7479,-400.6139"/>
</g>
<!-- BB_002EC804 -->
<g id="node27" class="node">
<title>BB_002EC804</title>
<ellipse fill="none" stroke="#000000" cx="466.0559" cy="-378.2146" rx="70.1118" ry="18"/>
<text text-anchor="middle" x="466.0559" y="-374.0146" font-family="Times,serif" font-size="14.00" fill="#000000">BB_002EC804</text>
</g>
<!-- BB_002EC7CD&#45;&gt;BB_002EC804 -->
<g id="edge38" class="edge">
<title>BB_002EC7CD-&gt;BB_002EC804</title>
<path fill="none" stroke="#00ff00" d="M466.0559,-432.046C466.0559,-424.3456 466.0559,-415.1889 466.0559,-406.6312"/>
<polygon fill="#00ff00" stroke="#00ff00" points="469.556,-406.6278 466.0559,-396.6279 462.556,-406.6279 469.556,-406.6278"/>
</g>
<!-- BB_002EC6CF -->
<g id="node12" class="node">
<title>BB_002EC6CF</title>
<ellipse fill="none" stroke="#000000" cx="396.0559" cy="-1026.2146" rx="72.4155" ry="18"/>
<text text-anchor="middle" x="396.0559" y="-1022.0146" font-family="Times,serif" font-size="14.00" fill="#000000">BB_002EC6CF</text>
</g>
<!-- BB_002EC6A4&#45;&gt;BB_002EC6CF -->
<g id="edge13" class="edge">
<title>BB_002EC6A4-&gt;BB_002EC6CF</title>
<path fill="none" stroke="#ff0000" d="M324.8107,-1080.7854C337.0496,-1071.4109 352.3092,-1059.7227 365.5627,-1049.5711"/>
<polygon fill="#ff0000" stroke="#ff0000" points="367.7001,-1052.3427 373.5107,-1043.4833 363.4436,-1046.7855 367.7001,-1052.3427"/>
</g>
<!-- BB_002EC6D8 -->
<g id="node13" class="node">
<title>BB_002EC6D8</title>
<ellipse fill="none" stroke="#000000" cx="384.0559" cy="-954.2146" rx="72.3981" ry="18"/>
<text text-anchor="middle" x="384.0559" y="-950.0146" font-family="Times,serif" font-size="14.00" fill="#000000">BB_002EC6D8</text>
</g>
<!-- BB_002EC6A4&#45;&gt;BB_002EC6D8 -->
<g id="edge14" class="edge">
<title>BB_002EC6A4-&gt;BB_002EC6D8</title>
<path fill="none" stroke="#00ff00" d="M300.849,-1080.0272C300.4129,-1060.8793 302.1559,-1030.4807 315.0559,-1008.2146 322.358,-995.6108 333.8515,-984.8805 345.3792,-976.3857"/>
<polygon fill="#00ff00" stroke="#00ff00" points="347.4978,-979.1758 353.7197,-970.6003 343.5081,-973.424 347.4978,-979.1758"/>
</g>
<!-- BB_002EC6CF&#45;&gt;BB_002EC6D8 -->
<g id="edge15" class="edge">
<title>BB_002EC6CF-&gt;BB_002EC6D8</title>
<path fill="none" stroke="#0000ff" d="M393.0278,-1008.046C391.7444,-1000.3456 390.2183,-991.1889 388.792,-982.6312"/>
<polygon fill="#0000ff" stroke="#0000ff" points="392.2212,-981.9164 387.1248,-972.6279 385.3165,-983.0672 392.2212,-981.9164"/>
</g>
<!-- BB_002EC6E1 -->
<g id="node14" class="node">
<title>BB_002EC6E1</title>
<ellipse fill="none" stroke="#000000" cx="377.0559" cy="-882.2146" rx="71.2539" ry="18"/>
<text text-anchor="middle" x="377.0559" y="-878.0146" font-family="Times,serif" font-size="14.00" fill="#000000">BB_002EC6E1</text>
</g>
<!-- BB_002EC6D8&#45;&gt;BB_002EC6E1 -->
<g id="edge16" class="edge">
<title>BB_002EC6D8-&gt;BB_002EC6E1</title>
<path fill="none" stroke="#ff0000" d="M382.2895,-936.046C381.5408,-928.3456 380.6506,-919.1889 379.8186,-910.6312"/>
<polygon fill="#ff0000" stroke="#ff0000" points="383.2974,-910.2422 378.8461,-900.6279 376.3302,-910.9197 383.2974,-910.2422"/>
</g>
<!-- BB_002EC7B6 -->
<g id="node15" class="node">
<title>BB_002EC7B6</title>
<ellipse fill="none" stroke="#000000" cx="410.0559" cy="-666.2146" rx="71.8357" ry="18"/>
<text text-anchor="middle" x="410.0559" y="-662.0146" font-family="Times,serif" font-size="14.00" fill="#000000">BB_002EC7B6</text>
</g>
<!-- BB_002EC6D8&#45;&gt;BB_002EC7B6 -->
<g id="edge17" class="edge">
<title>BB_002EC6D8-&gt;BB_002EC7B6</title>
<path fill="none" stroke="#00ff00" d="M411.594,-937.5724C430.1079,-925.7305 452.0174,-910.209 457.0559,-900.2146 491.885,-831.128 450.9044,-738.3373 426.1723,-693.1734"/>
<polygon fill="#00ff00" stroke="#00ff00" points="429.1264,-691.2858 421.1745,-684.2844 423.0247,-694.7165 429.1264,-691.2858"/>
</g>
<!-- BB_002EC6E1&#45;&gt;BB_002EC7B6 -->
<g id="edge19" class="edge">
<title>BB_002EC6E1-&gt;BB_002EC7B6</title>
<path fill="none" stroke="#00ff00" d="M395.6661,-864.5829C404.5943,-854.8265 414.3534,-841.92 419.0559,-828.2146 434.4814,-783.2565 425.6618,-727.1831 417.857,-694.1797"/>
<polygon fill="#00ff00" stroke="#00ff00" points="421.2124,-693.1703 415.3906,-684.3183 414.4216,-694.8687 421.2124,-693.1703"/>
</g>
<!-- BB_002EC6E9 -->
<g id="node16" class="node">
<title>BB_002EC6E9</title>
<ellipse fill="none" stroke="#000000" cx="339.0559" cy="-810.2146" rx="71.2539" ry="18"/>
<text text-anchor="middle" x="339.0559" y="-806.0146" font-family="Times,serif" font-size="14.00" fill="#000000">BB_002EC6E9</text>
</g>
<!-- BB_002EC6E1&#45;&gt;BB_002EC6E9 -->
<g id="edge18" class="edge">
<title>BB_002EC6E1-&gt;BB_002EC6E9</title>
<path fill="none" stroke="#ff0000" d="M367.4669,-864.046C363.1589,-855.8834 357.9873,-846.0846 353.244,-837.0973"/>
<polygon fill="#ff0000" stroke="#ff0000" points="356.2732,-835.3382 348.5102,-828.128 350.0825,-838.6055 356.2732,-835.3382"/>
</g>
<!-- BB_002EC7C1 -->
<g id="node24" class="node">
<title>BB_002EC7C1</title>
<ellipse fill="none" stroke="#000000" cx="420.0559" cy="-594.2146" rx="71.8357" ry="18"/>
<text text-anchor="middle" x="420.0559" y="-590.0146" font-family="Times,serif" font-size="14.00" fill="#000000">BB_002EC7C1</text>
</g>
<!-- BB_002EC7B6&#45;&gt;BB_002EC7C1 -->
<g id="edge33" class="edge">
<title>BB_002EC7B6-&gt;BB_002EC7C1</title>
<path fill="none" stroke="#ff0000" d="M412.5793,-648.046C413.6488,-640.3456 414.9206,-631.1889 416.1091,-622.6312"/>
<polygon fill="#ff0000" stroke="#ff0000" points="419.5894,-623.0143 417.4985,-612.6279 412.656,-622.0513 419.5894,-623.0143"/>
</g>
<!-- BB_002EC7CA -->
<g id="node25" class="node">
<title>BB_002EC7CA</title>
<ellipse fill="none" stroke="#000000" cx="418.0559" cy="-522.2146" rx="73.6215" ry="18"/>
<text text-anchor="middle" x="418.0559" y="-518.0146" font-family="Times,serif" font-size="14.00" fill="#000000">BB_002EC7CA</text>
</g>
<!-- BB_002EC7B6&#45;&gt;BB_002EC7CA -->
<g id="edge34" class="edge">
<title>BB_002EC7B6-&gt;BB_002EC7CA</title>
<path fill="none" stroke="#00ff00" d="M377.1095,-650.1003C362.6265,-641.1225 347.1045,-628.448 339.0559,-612.2146 331.9486,-597.8798 331.5881,-590.3649 339.0559,-576.2146 346.3011,-562.4861 358.7816,-551.5854 371.7106,-543.2771"/>
<polygon fill="#00ff00" stroke="#00ff00" points="373.875,-546.0618 380.6743,-537.9365 370.2921,-540.0482 373.875,-546.0618"/>
</g>
<!-- BB_002EC6E9&#45;&gt;BB_002EC7B6 -->
<g id="edge21" class="edge">
<title>BB_002EC6E9-&gt;BB_002EC7B6</title>
<path fill="none" stroke="#00ff00" d="M355.5493,-792.3337C364.1028,-782.3102 374.1719,-769.234 381.0559,-756.2146 391.4959,-736.4699 399.0301,-712.2915 403.7983,-693.9691"/>
<polygon fill="#00ff00" stroke="#00ff00" points="407.2116,-694.7461 406.2254,-684.1973 400.418,-693.0587 407.2116,-694.7461"/>
</g>
<!-- BB_002EC6F3 -->
<g id="node17" class="node">
<title>BB_002EC6F3</title>
<ellipse fill="none" stroke="#000000" cx="301.0559" cy="-738.2146" rx="70.6916" ry="18"/>
<text text-anchor="middle" x="301.0559" y="-734.0146" font-family="Times,serif" font-size="14.00" fill="#000000">BB_002EC6F3</text>
</g>
<!-- BB_002EC6E9&#45;&gt;BB_002EC6F3 -->
<g id="edge20" class="edge">
<title>BB_002EC6E9-&gt;BB_002EC6F3</title>
<path fill="none" stroke="#ff0000" d="M329.4669,-792.046C325.1589,-783.8834 319.9873,-774.0846 315.244,-765.0973"/>
<polygon fill="#ff0000" stroke="#ff0000" points="318.2732,-763.3382 310.5102,-756.128 312.0825,-766.6055 318.2732,-763.3382"/>
</g>
<!-- BB_002EC6F3&#45;&gt;BB_002EC7B6 -->
<g id="edge23" class="edge">
<title>BB_002EC6F3-&gt;BB_002EC7B6</title>
<path fill="none" stroke="#00ff00" d="M326.6115,-721.3338C341.265,-711.6545 359.8511,-699.3774 375.7611,-688.868"/>
<polygon fill="#00ff00" stroke="#00ff00" points="377.8678,-691.6712 384.2827,-683.2391 374.0096,-685.8304 377.8678,-691.6712"/>
</g>
<!-- BB_002EC6FE -->
<g id="node18" class="node">
<title>BB_002EC6FE</title>
<ellipse fill="none" stroke="#000000" cx="282.0559" cy="-450.2146" rx="71.8337" ry="18"/>
<text text-anchor="middle" x="282.0559" y="-446.0146" font-family="Times,serif" font-size="14.00" fill="#000000">BB_002EC6FE</text>
</g>
<!-- BB_002EC6F3&#45;&gt;BB_002EC6FE -->
<g id="edge22" class="edge">
<title>BB_002EC6F3-&gt;BB_002EC6FE</title>
<path fill="none" stroke="#ff0000" d="M299.8674,-720.1989C296.6551,-671.5085 287.782,-537.0107 283.9069,-478.2719"/>
<polygon fill="#ff0000" stroke="#ff0000" points="287.3948,-477.9714 283.244,-468.2235 280.41,-478.4322 287.3948,-477.9714"/>
</g>
<!-- BB_002EC717 -->
<g id="node19" class="node">
<title>BB_002EC717</title>
<ellipse fill="none" stroke="#000000" cx="187.0559" cy="-378.2146" rx="70.1118" ry="18"/>
<text text-anchor="middle" x="187.0559" y="-374.0146" font-family="Times,serif" font-size="14.00" fill="#000000">BB_002EC717</text>
</g>
<!-- BB_002EC6FE&#45;&gt;BB_002EC717 -->
<g id="edge24" class="edge">
<title>BB_002EC6FE-&gt;BB_002EC717</title>
<path fill="none" stroke="#ff0000" d="M259.059,-432.7854C246.6899,-423.4109 231.268,-411.7227 217.8735,-401.5711"/>
<polygon fill="#ff0000" stroke="#ff0000" points="219.9248,-398.7341 209.841,-395.4833 215.6966,-404.3129 219.9248,-398.7341"/>
</g>
<!-- BB_002EC789 -->
<g id="node20" class="node">
<title>BB_002EC789</title>
<ellipse fill="none" stroke="#000000" cx="285.0559" cy="-306.2146" rx="70.1118" ry="18"/>
<text text-anchor="middle" x="285.0559" y="-302.0146" font-family="Times,serif" font-size="14.00" fill="#000000">BB_002EC789</text>
</g>
<!-- BB_002EC6FE&#45;&gt;BB_002EC789 -->
<g id="edge25" class="edge">
<title>BB_002EC6FE-&gt;BB_002EC789</title>
<path fill="none" stroke="#00ff00" d="M282.4358,-431.9769C282.9475,-407.4156 283.8632,-363.462 284.4652,-334.5687"/>
<polygon fill="#00ff00" stroke="#00ff00" points="287.9699,-334.375 284.679,-324.3042 280.9714,-334.2291 287.9699,-334.375"/>
</g>
<!-- BB_002EC717&#45;&gt;BB_002EC789 -->
<g id="edge27" class="edge">
<title>BB_002EC717-&gt;BB_002EC789</title>
<path fill="none" stroke="#00ff00" d="M210.2805,-361.1516C223.1237,-351.7158 239.2696,-339.8535 253.2683,-329.5687"/>
<polygon fill="#00ff00" stroke="#00ff00" points="255.6718,-332.146 261.6583,-323.4046 251.5272,-326.5048 255.6718,-332.146"/>
</g>
<!-- BB_002EC71D -->
<g id="node21" class="node">
<title>BB_002EC71D</title>
<ellipse fill="none" stroke="#000000" cx="125.0559" cy="-306.2146" rx="72.3981" ry="18"/>
<text text-anchor="middle" x="125.0559" y="-302.0146" font-family="Times,serif" font-size="14.00" fill="#000000">BB_002EC71D</text>
</g>
<!-- BB_002EC717&#45;&gt;BB_002EC71D -->
<g id="edge26" class="edge">
<title>BB_002EC717-&gt;BB_002EC71D</title>
<path fill="none" stroke="#ff0000" d="M171.73,-360.4168C164.278,-351.7629 155.1861,-341.2046 147.0132,-331.7134"/>
<polygon fill="#ff0000" stroke="#ff0000" points="149.5978,-329.351 140.4203,-324.0571 144.2934,-333.9187 149.5978,-329.351"/>
</g>
<!-- BB_002EC789&#45;&gt;BB_002EC82D -->
<g id="edge32" class="edge">
<title>BB_002EC789-&gt;BB_002EC82D</title>
<path fill="none" stroke="#0000ff" d="M287.8962,-288.1701C293.8212,-250.529 307.5358,-163.4013 314.6289,-118.3392"/>
<polygon fill="#0000ff" stroke="#0000ff" points="318.1021,-118.7823 316.1997,-108.3597 311.1873,-117.6938 318.1021,-118.7823"/>
</g>
<!-- BB_002EC723 -->
<g id="node22" class="node">
<title>BB_002EC723</title>
<ellipse fill="none" stroke="#000000" cx="186.0559" cy="-234.2146" rx="70.1118" ry="18"/>
<text text-anchor="middle" x="186.0559" y="-230.0146" font-family="Times,serif" font-size="14.00" fill="#000000">BB_002EC723</text>
</g>
<!-- BB_002EC71D&#45;&gt;BB_002EC723 -->
<g id="edge28" class="edge">
<title>BB_002EC71D-&gt;BB_002EC723</title>
<path fill="none" stroke="#ff0000" d="M140.1345,-288.4168C147.5215,-279.6978 156.5462,-269.0457 164.6339,-259.4995"/>
<polygon fill="#ff0000" stroke="#ff0000" points="167.3569,-261.7 171.1507,-251.8076 162.016,-257.175 167.3569,-261.7"/>
</g>
<!-- BB_002EC74A -->
<g id="node23" class="node">
<title>BB_002EC74A</title>
<ellipse fill="none" stroke="#000000" cx="185.0559" cy="-162.2146" rx="72.3981" ry="18"/>
<text text-anchor="middle" x="185.0559" y="-158.0146" font-family="Times,serif" font-size="14.00" fill="#000000">BB_002EC74A</text>
</g>
<!-- BB_002EC71D&#45;&gt;BB_002EC74A -->
<g id="edge29" class="edge">
<title>BB_002EC71D-&gt;BB_002EC74A</title>
<path fill="none" stroke="#00ff00" d="M114.8828,-288.3203C105.5951,-269.4172 95.0016,-239.2211 107.0559,-216.2146 114.2603,-202.4645 126.7324,-191.5196 139.6169,-183.178"/>
<polygon fill="#00ff00" stroke="#00ff00" points="141.7728,-185.966 148.5432,-177.8166 138.1685,-179.9652 141.7728,-185.966"/>
</g>
<!-- BB_002EC723&#45;&gt;BB_002EC74A -->
<g id="edge30" class="edge">
<title>BB_002EC723-&gt;BB_002EC74A</title>
<path fill="none" stroke="#0000ff" d="M185.8035,-216.046C185.6966,-208.3456 185.5694,-199.1889 185.4506,-190.6312"/>
<polygon fill="#0000ff" stroke="#0000ff" points="188.9503,-190.5783 185.3116,-180.6279 181.9509,-190.6755 188.9503,-190.5783"/>
</g>
<!-- BB_002EC74A&#45;&gt;BB_002EC82D -->
<g id="edge31" class="edge">
<title>BB_002EC74A-&gt;BB_002EC82D</title>
<path fill="none" stroke="#0000ff" d="M215.4626,-145.8767C234.346,-135.7304 258.8237,-122.5782 279.2437,-111.6062"/>
<polygon fill="#0000ff" stroke="#0000ff" points="281.1534,-114.5534 288.3057,-106.7371 277.8401,-108.3872 281.1534,-114.5534"/>
</g>
<!-- BB_002EC7C1&#45;&gt;BB_002EC7CA -->
<g id="edge35" class="edge">
<title>BB_002EC7C1-&gt;BB_002EC7CA</title>
<path fill="none" stroke="#0000ff" d="M419.5512,-576.046C419.3373,-568.3456 419.083,-559.1889 418.8452,-550.6312"/>
<polygon fill="#0000ff" stroke="#0000ff" points="422.3438,-550.5268 418.5674,-540.6279 415.3465,-550.7212 422.3438,-550.5268"/>
</g>
<!-- BB_002EC7CA&#45;&gt;BB_002EC7CD -->
<g id="edge36" class="edge">
<title>BB_002EC7CA-&gt;BB_002EC7CD</title>
<path fill="none" stroke="#0000ff" d="M429.9211,-504.4168C435.5173,-496.0225 442.3081,-485.8364 448.4853,-476.5704"/>
<polygon fill="#0000ff" stroke="#0000ff" points="451.526,-478.3191 454.1609,-468.0571 445.7016,-474.4362 451.526,-478.3191"/>
</g>
<!-- BB_002EC7D8 -->
<g id="node28" class="node">
<title>BB_002EC7D8</title>
<ellipse fill="none" stroke="#000000" cx="645.0559" cy="-306.2146" rx="72.3981" ry="18"/>
<text text-anchor="middle" x="645.0559" y="-302.0146" font-family="Times,serif" font-size="14.00" fill="#000000">BB_002EC7D8</text>
</g>
<!-- BB_002EC7D3&#45;&gt;BB_002EC7D8 -->
<g id="edge39" class="edge">
<title>BB_002EC7D3-&gt;BB_002EC7D8</title>
<path fill="none" stroke="#ff0000" d="M645.0559,-360.046C645.0559,-352.3456 645.0559,-343.1889 645.0559,-334.6312"/>
<polygon fill="#ff0000" stroke="#ff0000" points="648.556,-334.6278 645.0559,-324.6279 641.556,-334.6279 648.556,-334.6278"/>
</g>
<!-- BB_002EC7F3 -->
<g id="node29" class="node">
<title>BB_002EC7F3</title>
<ellipse fill="none" stroke="#000000" cx="638.0559" cy="-162.2146" rx="70.6916" ry="18"/>
<text text-anchor="middle" x="638.0559" y="-158.0146" font-family="Times,serif" font-size="14.00" fill="#000000">BB_002EC7F3</text>
</g>
<!-- BB_002EC7D3&#45;&gt;BB_002EC7F3 -->
<g id="edge40" class="edge">
<title>BB_002EC7D3-&gt;BB_002EC7F3</title>
<path fill="none" stroke="#00ff00" d="M683.3582,-362.7109C699.6077,-353.9885 716.8848,-341.351 726.0559,-324.2146 733.6056,-310.1078 730.858,-303.477 726.0559,-288.2146 713.6809,-248.8835 684.1806,-211.1242 662.7392,-187.3705"/>
<polygon fill="#00ff00" stroke="#00ff00" points="665.1686,-184.8422 655.8131,-179.8698 660.0257,-189.5911 665.1686,-184.8422"/>
</g>
<!-- BB_002EC80B -->
<g id="node32" class="node">
<title>BB_002EC80B</title>
<ellipse fill="none" stroke="#000000" cx="483.0559" cy="-306.2146" rx="71.8357" ry="18"/>
<text text-anchor="middle" x="483.0559" y="-302.0146" font-family="Times,serif" font-size="14.00" fill="#000000">BB_002EC80B</text>
</g>
<!-- BB_002EC804&#45;&gt;BB_002EC80B -->
<g id="edge47" class="edge">
<title>BB_002EC804-&gt;BB_002EC80B</title>
<path fill="none" stroke="#ff0000" d="M470.3457,-360.046C472.1639,-352.3456 474.3258,-343.1889 476.3464,-334.6312"/>
<polygon fill="#ff0000" stroke="#ff0000" points="479.8167,-335.1646 478.7083,-324.6279 473.004,-333.556 479.8167,-335.1646"/>
</g>
<!-- BB_002EC818 -->
<g id="node33" class="node">
<title>BB_002EC818</title>
<ellipse fill="none" stroke="#000000" cx="383.0559" cy="-234.2146" rx="70.1118" ry="18"/>
<text text-anchor="middle" x="383.0559" y="-230.0146" font-family="Times,serif" font-size="14.00" fill="#000000">BB_002EC818</text>
</g>
<!-- BB_002EC804&#45;&gt;BB_002EC818 -->
<g id="edge48" class="edge">
<title>BB_002EC804-&gt;BB_002EC818</title>
<path fill="none" stroke="#00ff00" d="M438.9661,-361.5968C425.8764,-352.2008 411.0848,-339.3114 402.0559,-324.2146 390.835,-305.4528 386.1817,-281.0209 384.2806,-262.348"/>
<polygon fill="#00ff00" stroke="#00ff00" points="387.7684,-262.0551 383.4668,-252.3729 380.7916,-262.6244 387.7684,-262.0551"/>
</g>
<!-- BB_002EC7D8&#45;&gt;BB_002EC7F3 -->
<g id="edge42" class="edge">
<title>BB_002EC7D8-&gt;BB_002EC7F3</title>
<path fill="none" stroke="#00ff00" d="M644.1693,-287.9769C642.9754,-263.4156 640.8388,-219.462 639.4342,-190.5687"/>
<polygon fill="#00ff00" stroke="#00ff00" points="642.9167,-190.1225 638.9352,-180.3042 635.925,-190.4624 642.9167,-190.1225"/>
</g>
<!-- BB_002EC7DD -->
<g id="node30" class="node">
<title>BB_002EC7DD</title>
<ellipse fill="none" stroke="#000000" cx="545.0559" cy="-234.2146" rx="74.1836" ry="18"/>
<text text-anchor="middle" x="545.0559" y="-230.0146" font-family="Times,serif" font-size="14.00" fill="#000000">BB_002EC7DD</text>
</g>
<!-- BB_002EC7D8&#45;&gt;BB_002EC7DD -->
<g id="edge41" class="edge">
<title>BB_002EC7D8-&gt;BB_002EC7DD</title>
<path fill="none" stroke="#ff0000" d="M621.3573,-289.1516C608.1283,-279.6268 591.4654,-267.6295 577.0885,-257.2781"/>
<polygon fill="#ff0000" stroke="#ff0000" points="579.0914,-254.4073 568.9309,-251.4046 575.0012,-260.0881 579.0914,-254.4073"/>
</g>
<!-- BB_002EC7F3&#45;&gt;BB_002EC82D -->
<g id="edge46" class="edge">
<title>BB_002EC7F3-&gt;BB_002EC82D</title>
<path fill="none" stroke="#0000ff" d="M585.0214,-150.2444C529.419,-137.6947 442.0487,-117.9747 382.7484,-104.5903"/>
<polygon fill="#0000ff" stroke="#0000ff" points="383.2753,-101.1213 372.7501,-102.3337 381.7341,-107.9495 383.2753,-101.1213"/>
</g>
<!-- BB_002EC7DD&#45;&gt;BB_002EC7F3 -->
<g id="edge44" class="edge">
<title>BB_002EC7DD-&gt;BB_002EC7F3</title>
<path fill="none" stroke="#00ff00" d="M567.5686,-216.7854C579.5631,-207.4993 594.49,-195.9431 607.5154,-185.8588"/>
<polygon fill="#00ff00" stroke="#00ff00" points="609.9859,-188.3726 615.7505,-179.4833 605.7006,-182.8375 609.9859,-188.3726"/>
</g>
<!-- BB_002EC7E2 -->
<g id="node31" class="node">
<title>BB_002EC7E2</title>
<ellipse fill="none" stroke="#000000" cx="469.0559" cy="-162.2146" rx="71.2539" ry="18"/>
<text text-anchor="middle" x="469.0559" y="-158.0146" font-family="Times,serif" font-size="14.00" fill="#000000">BB_002EC7E2</text>
</g>
<!-- BB_002EC7DD&#45;&gt;BB_002EC7E2 -->
<g id="edge43" class="edge">
<title>BB_002EC7DD-&gt;BB_002EC7E2</title>
<path fill="none" stroke="#ff0000" d="M526.2694,-216.4168C516.8819,-207.5234 505.3715,-196.6188 495.1424,-186.9281"/>
<polygon fill="#ff0000" stroke="#ff0000" points="497.293,-184.1443 487.6263,-179.8076 492.4787,-189.2259 497.293,-184.1443"/>
</g>
<!-- BB_002EC7E2&#45;&gt;BB_002EC82D -->
<g id="edge45" class="edge">
<title>BB_002EC7E2-&gt;BB_002EC82D</title>
<path fill="none" stroke="#0000ff" d="M435.766,-146.2355C413.8977,-135.7386 385.0923,-121.9121 361.5708,-110.6217"/>
<polygon fill="#0000ff" stroke="#0000ff" points="363.0415,-107.4454 352.5117,-106.2734 360.0124,-113.7561 363.0415,-107.4454"/>
</g>
<!-- BB_002EC80B&#45;&gt;BB_002EC818 -->
<g id="edge49" class="edge">
<title>BB_002EC80B-&gt;BB_002EC818</title>
<path fill="none" stroke="#0000ff" d="M459.3573,-289.1516C446.1283,-279.6268 429.4654,-267.6295 415.0885,-257.2781"/>
<polygon fill="#0000ff" stroke="#0000ff" points="417.0914,-254.4073 406.9309,-251.4046 413.0012,-260.0881 417.0914,-254.4073"/>
</g>
<!-- BB_002EC818&#45;&gt;BB_002EC82D -->
<g id="edge50" class="edge">
<title>BB_002EC818-&gt;BB_002EC82D</title>
<path fill="none" stroke="#0000ff" d="M375.0796,-216.2681C364.0611,-191.4764 344.0873,-146.5353 331.206,-117.5524"/>
<polygon fill="#0000ff" stroke="#0000ff" points="334.3924,-116.1039 327.1327,-108.3873 327.9958,-118.9469 334.3924,-116.1039"/>
</g>
</g>
</svg>