<?xml version="1.0" encoding="UTF-8" standalone="no"?><!DOCTYPE svg PUBLIC "-//W3C//DTD SVG 1.1//EN" "http://www.w3.org/Graphics/SVG/1.1/DTD/svg11.dtd"><!-- Generated by graphviz version 2.40.1 (20161225.0304)
 --><!-- Title: G Pages: 1 --><svg xmlns="http://www.w3.org/2000/svg" xmlns:xlink="http://www.w3.org/1999/xlink" width="308pt" height="294pt" viewBox="0.00 0.00 307.64 293.64">
<g id="graph0" class="graph" transform="scale(1 1) rotate(0) translate(4 289.6438)">
<title>G</title>
<polygon fill="#ffffff" stroke="transparent" points="-4,4 -4,-289.6438 303.6439,-289.6438 303.6439,4 -4,4"/>
<!-- start -->
<g id="node1" class="node">
<title>start</title>
<polygon fill="none" stroke="#000000" points="150.1278,-285.6438 110.8905,-267.6438 150.1278,-249.6438 189.3651,-267.6438 150.1278,-285.6438"/>
<polyline fill="none" stroke="#000000" points="121.7976,-272.6474 121.7976,-262.6402 "/>
<polyline fill="none" stroke="#000000" points="139.2207,-254.6474 161.0349,-254.6474 "/>
<polyline fill="none" stroke="#000000" points="178.4581,-262.6402 178.4581,-272.6474 "/>
<polyline fill="none" stroke="#000000" points="161.0349,-280.6402 139.2207,-280.6402 "/>
<text text-anchor="middle" x="150.1278" y="-263.4438" font-family="Times,serif" font-size="14.00" fill="#000000">start</text>
</g>
<!-- BB_002D75D0 -->
<g id="node2" class="node">
<title>BB_002D75D0</title>
<ellipse fill="none" stroke="#000000" cx="150.1278" cy="-195.6438" rx="71.8182" ry="18"/>
<text text-anchor="middle" x="150.1278" y="-191.4438" font-family="Times,serif" font-size="14.00" fill="#000000">BB_002D75D0</text>
</g>
<!-- start&#45;&gt;BB_002D75D0 -->
<g id="edge1" class="edge">
<title>start-&gt;BB_002D75D0</title>
<path fill="none" stroke="#000000" d="M150.1278,-249.4752C150.1278,-241.7748 150.1278,-232.6181 150.1278,-224.0604"/>
<polygon fill="#000000" stroke="#000000" points="153.6279,-224.057 150.1278,-214.0571 146.6279,-224.0571 153.6279,-224.057"/>
</g>
<!-- BB_002D765C -->
<g id="node3" class="node">
<title>BB_002D765C</title>
<ellipse fill="none" stroke="#000000" cx="71.1278" cy="-123.6438" rx="71.2559" ry="18"/>
<text text-anchor="middle" x="71.1278" y="-119.4438" font-family="Times,serif" font-size="14.00" fill="#000000">BB_002D765C</text>
</g>
<!-- BB_002D75D0&#45;&gt;BB_002D765C -->
<g id="edge2" class="edge">
<title>BB_002D75D0-&gt;BB_002D765C</title>
<path fill="none" stroke="#ff0000" d="M131.0041,-178.2146C121.0828,-169.1724 108.7997,-157.9776 97.9457,-148.0855"/>
<polygon fill="#ff0000" stroke="#ff0000" points="100.0978,-145.3113 90.3492,-141.162 95.3825,-150.4849 100.0978,-145.3113"/>
</g>
<!-- BB_002D7681 -->
<g id="node4" class="node">
<title>BB_002D7681</title>
<ellipse fill="none" stroke="#000000" cx="230.1278" cy="-123.6438" rx="69.5321" ry="18"/>
<text text-anchor="middle" x="230.1278" y="-119.4438" font-family="Times,serif" font-size="14.00" fill="#000000">BB_002D7681</text>
</g>
<!-- BB_002D75D0&#45;&gt;BB_002D7681 -->
<g id="edge3" class="edge">
<title>BB_002D75D0-&gt;BB_002D7681</title>
<path fill="none" stroke="#00ff00" d="M169.4936,-178.2146C179.5405,-169.1724 191.9791,-157.9776 202.9704,-148.0855"/>
<polygon fill="#00ff00" stroke="#00ff00" points="205.5715,-150.4533 210.6631,-141.162 200.8887,-145.2502 205.5715,-150.4533"/>
</g>
<!-- end -->
<g id="node5" class="node">
<title>end</title>
<polygon fill="none" stroke="#000000" points="89.3431,-53.0371 52.9126,-53.0371 52.9126,-16.6067 89.3431,-16.6067 89.3431,-53.0371"/>
<polyline fill="none" stroke="#000000" points="64.9126,-53.0371 52.9126,-41.0371 "/>
<polyline fill="none" stroke="#000000" points="52.9126,-28.6067 64.9126,-16.6067 "/>
<polyline fill="none" stroke="#000000" points="77.3431,-16.6067 89.3431,-28.6067 "/>
<polyline fill="none" stroke="#000000" points="89.3431,-41.0371 77.3431,-53.0371 "/>
<text text-anchor="middle" x="71.1278" y="-30.6219" font-family="Times,serif" font-size="14.00" fill="#000000">end</text>
</g>
<!-- BB_002D765C&#45;&gt;end -->
<g id="edge4" class="edge">
<title>BB_002D765C-&gt;end</title>
<path fill="none" stroke="#000000" d="M71.1278,-105.2398C71.1278,-93.2114 71.1278,-77.2529 71.1278,-63.5696"/>
<polygon fill="#000000" stroke="#000000" points="74.6279,-63.2022 71.1278,-53.2023 67.6279,-63.2023 74.6279,-63.2022"/>
</g>
<!-- dead_end -->
<g id="node6" class="node">
<title>dead_end</title>
<polygon fill="none" stroke="#000000" points="264.7725,-69.4666 195.4831,-69.4666 195.4831,-.1772 264.7725,-.1772 264.7725,-69.4666"/>
<polyline fill="none" stroke="#000000" points="207.4831,-69.4666 195.4831,-57.4666 "/>
<polyline fill="none" stroke="#000000" points="195.4831,-12.1772 207.4831,-.1772 "/>
<polyline fill="none" stroke="#000000" points="252.7725,-.1772 264.7725,-12.1772 "/>
<polyline fill="none" stroke="#000000" points="264.7725,-57.4666 252.7725,-69.4666 "/>
<text text-anchor="middle" x="230.1278" y="-30.6219" font-family="Times,serif" font-size="14.00" fill="#000000">dead_end</text>
</g>
<!-- BB_002D7681&#45;&gt;dead_end -->
<g id="edge5" class="edge">
<title>BB_002D7681-&gt;dead_end</title>
<path fill="none" stroke="#000000" d="M230.1278,-105.2398C230.1278,-97.7822 230.1278,-88.8138 230.1278,-79.8137"/>
<polygon fill="#000000" stroke="#000000" points="233.6279,-79.7175 230.1278,-69.7175 226.6279,-79.7176 233.6279,-79.7175"/>
</g>
</g>
</svg>