<?xml version="1.0" encoding="UTF-8" standalone="no"?><!DOCTYPE svg PUBLIC "-//W3C//DTD SVG 1.1//EN" "http://www.w3.org/Graphics/SVG/1.1/DTD/svg11.dtd"><!-- Generated by graphviz version 2.40.1 (20161225.0304)
 --><!-- Title: G Pages: 1 --><svg xmlns="http://www.w3.org/2000/svg" xmlns:xlink="http://www.w3.org/1999/xlink" width="361pt" height="582pt" viewBox="0.00 0.00 360.79 581.86">
<g id="graph0" class="graph" transform="scale(1 1) rotate(0) translate(4 577.8584)">
<title>G</title>
<polygon fill="#ffffff" stroke="transparent" points="-4,4 -4,-577.8584 356.7906,-577.8584 356.7906,4 -4,4"/>
<!-- start -->
<g id="node1" class="node">
<title>start</title>
<polygon fill="none" stroke="#000000" points="282.7347,-573.8584 243.4974,-555.8584 282.7347,-537.8584 321.972,-555.8584 282.7347,-573.8584"/>
<polyline fill="none" stroke="#000000" points="254.4045,-560.862 254.4045,-550.8548 "/>
<polyline fill="none" stroke="#000000" points="271.8277,-542.862 293.6418,-542.862 "/>
<polyline fill="none" stroke="#000000" points="311.065,-550.8548 311.065,-560.862 "/>
<polyline fill="none" stroke="#000000" points="293.6418,-568.8548 271.8277,-568.8548 "/>
<text text-anchor="middle" x="282.7347" y="-551.6584" font-family="Times,serif" font-size="14.00" fill="#000000">start</text>
</g>
<!-- BB_002E2C40 -->
<g id="node2" class="node">
<title>BB_002E2C40</title>
<ellipse fill="none" stroke="#000000" cx="282.7347" cy="-483.8584" rx="70.1118" ry="18"/>
<text text-anchor="middle" x="282.7347" y="-479.6584" font-family="Times,serif" font-size="14.00" fill="#000000">BB_002E2C40</text>
</g>
<!-- start&#45;&gt;BB_002E2C40 -->
<g id="edge1" class="edge">
<title>start-&gt;BB_002E2C40</title>
<path fill="none" stroke="#000000" d="M282.7347,-537.6898C282.7347,-529.9894 282.7347,-520.8327 282.7347,-512.275"/>
<polygon fill="#000000" stroke="#000000" points="286.2348,-512.2716 282.7347,-502.2717 279.2348,-512.2717 286.2348,-512.2716"/>
</g>
<!-- BB_002E2C6D -->
<g id="node3" class="node">
<title>BB_002E2C6D</title>
<ellipse fill="none" stroke="#000000" cx="150.7347" cy="-411.8584" rx="72.3981" ry="18"/>
<text text-anchor="middle" x="150.7347" y="-407.6584" font-family="Times,serif" font-size="14.00" fill="#000000">BB_002E2C6D</text>
</g>
<!-- BB_002E2C40&#45;&gt;BB_002E2C6D -->
<g id="edge2" class="edge">
<title>BB_002E2C40-&gt;BB_002E2C6D</title>
<path fill="none" stroke="#ff0000" d="M252.7819,-467.5205C234.1803,-457.3742 210.068,-444.222 189.9527,-433.25"/>
<polygon fill="#ff0000" stroke="#ff0000" points="191.4809,-430.0968 181.026,-428.3809 188.1289,-436.2421 191.4809,-430.0968"/>
</g>
<!-- BB_002E2C9A -->
<g id="node4" class="node">
<title>BB_002E2C9A</title>
<ellipse fill="none" stroke="#000000" cx="216.7347" cy="-90.2146" rx="72.3981" ry="18"/>
<text text-anchor="middle" x="216.7347" y="-86.0146" font-family="Times,serif" font-size="14.00" fill="#000000">BB_002E2C9A</text>
</g>
<!-- BB_002E2C40&#45;&gt;BB_002E2C9A -->
<g id="edge3" class="edge">
<title>BB_002E2C40-&gt;BB_002E2C9A</title>
<path fill="none" stroke="#00ff00" d="M297.2727,-466.0084C316.978,-439.9521 349.7347,-389.2151 349.7347,-339.8584 349.7347,-339.8584 349.7347,-339.8584 349.7347,-267.8584 349.7347,-207.1599 330.4975,-190.9238 291.7347,-144.2146 281.578,-131.9758 268.0421,-121.1187 255.2667,-112.4083"/>
<polygon fill="#00ff00" stroke="#00ff00" points="256.8781,-109.2798 246.5945,-106.7303 253.0437,-115.1363 256.8781,-109.2798"/>
</g>
<!-- BB_002E2C7E -->
<g id="node5" class="node">
<title>BB_002E2C7E</title>
<ellipse fill="none" stroke="#000000" cx="150.7347" cy="-339.8584" rx="71.2539" ry="18"/>
<text text-anchor="middle" x="150.7347" y="-335.6584" font-family="Times,serif" font-size="14.00" fill="#000000">BB_002E2C7E</text>
</g>
<!-- BB_002E2C6D&#45;&gt;BB_002E2C7E -->
<g id="edge4" class="edge">
<title>BB_002E2C6D-&gt;BB_002E2C7E</title>
<path fill="none" stroke="#ff0000" d="M150.7347,-393.6898C150.7347,-385.9894 150.7347,-376.8327 150.7347,-368.275"/>
<polygon fill="#ff0000" stroke="#ff0000" points="154.2348,-368.2716 150.7347,-358.2717 147.2348,-368.2717 154.2348,-368.2716"/>
</g>
<!-- BB_002E2C90 -->
<g id="node6" class="node">
<title>BB_002E2C90</title>
<ellipse fill="none" stroke="#000000" cx="84.7347" cy="-179.0365" rx="70.1118" ry="18"/>
<text text-anchor="middle" x="84.7347" y="-174.8365" font-family="Times,serif" font-size="14.00" fill="#000000">BB_002E2C90</text>
</g>
<!-- BB_002E2C6D&#45;&gt;BB_002E2C90 -->
<g id="edge5" class="edge">
<title>BB_002E2C6D-&gt;BB_002E2C90</title>
<path fill="none" stroke="#00ff00" d="M117.7423,-395.8339C81.2947,-375.9368 25.0654,-338.1246 4.7347,-285.8584 -1.0656,-270.9468 -1.8345,-264.4476 4.7347,-249.8584 13.6198,-230.1261 31.0211,-213.6703 47.3313,-201.6026"/>
<polygon fill="#00ff00" stroke="#00ff00" points="49.5522,-204.3194 55.7102,-195.6979 45.5198,-198.5975 49.5522,-204.3194"/>
</g>
<!-- end -->
<g id="node9" class="node">
<title>end</title>
<polygon fill="none" stroke="#000000" points="234.95,-36.3225 198.5195,-36.3225 198.5195,.1079 234.95,.1079 234.95,-36.3225"/>
<polyline fill="none" stroke="#000000" points="210.5195,-36.3225 198.5195,-24.3225 "/>
<polyline fill="none" stroke="#000000" points="198.5195,-11.8921 210.5195,.1079 "/>
<polyline fill="none" stroke="#000000" points="222.95,.1079 234.95,-11.8921 "/>
<polyline fill="none" stroke="#000000" points="234.95,-24.3225 222.95,-36.3225 "/>
<text text-anchor="middle" x="216.7347" y="-13.9073" font-family="Times,serif" font-size="14.00" fill="#000000">end</text>
</g>
<!-- BB_002E2C9A&#45;&gt;end -->
<g id="edge10" class="edge">
<title>BB_002E2C9A-&gt;end</title>
<path fill="none" stroke="#000000" d="M216.7347,-72.0189C216.7347,-64.2477 216.7347,-54.9956 216.7347,-46.3686"/>
<polygon fill="#000000" stroke="#000000" points="220.2348,-46.2972 216.7347,-36.2972 213.2348,-46.2972 220.2348,-46.2972"/>
</g>
<!-- BB_002E2C8E -->
<g id="node7" class="node">
<title>BB_002E2C8E</title>
<ellipse fill="none" stroke="#000000" cx="84.7347" cy="-267.8584" rx="71.2539" ry="18"/>
<text text-anchor="middle" x="84.7347" y="-263.6584" font-family="Times,serif" font-size="14.00" fill="#000000">BB_002E2C8E</text>
</g>
<!-- BB_002E2C7E&#45;&gt;BB_002E2C8E -->
<g id="edge6" class="edge">
<title>BB_002E2C7E-&gt;BB_002E2C8E</title>
<path fill="none" stroke="#ff0000" d="M134.4201,-322.0606C126.3477,-313.2544 116.4678,-302.4763 107.6504,-292.8573"/>
<polygon fill="#ff0000" stroke="#ff0000" points="110.199,-290.4579 100.8617,-285.4514 105.0389,-295.188 110.199,-290.4579"/>
</g>
<!-- BB_002E2CBD -->
<g id="node8" class="node">
<title>BB_002E2CBD</title>
<ellipse fill="none" stroke="#000000" cx="247.7347" cy="-267.8584" rx="73.6215" ry="18"/>
<text text-anchor="middle" x="247.7347" y="-263.6584" font-family="Times,serif" font-size="14.00" fill="#000000">BB_002E2CBD</text>
</g>
<!-- BB_002E2C7E&#45;&gt;BB_002E2CBD -->
<g id="edge7" class="edge">
<title>BB_002E2C7E-&gt;BB_002E2CBD</title>
<path fill="none" stroke="#00ff00" d="M173.7224,-322.7954C186.4345,-313.3596 202.4156,-301.4973 216.2715,-291.2125"/>
<polygon fill="#00ff00" stroke="#00ff00" points="218.6323,-293.8191 224.5759,-285.0484 214.4601,-288.1983 218.6323,-293.8191"/>
</g>
<!-- BB_002E2C90&#45;&gt;BB_002E2C9A -->
<g id="edge9" class="edge">
<title>BB_002E2C90-&gt;BB_002E2C9A</title>
<path fill="none" stroke="#0000ff" d="M109.8736,-162.1207C130.568,-148.1956 160.0987,-128.3246 182.8741,-112.9992"/>
<polygon fill="#0000ff" stroke="#0000ff" points="184.8972,-115.8565 191.2398,-107.37 180.9892,-110.0489 184.8972,-115.8565"/>
</g>
<!-- BB_002E2C8E&#45;&gt;BB_002E2C90 -->
<g id="edge8" class="edge">
<title>BB_002E2C8E-&gt;BB_002E2C90</title>
<path fill="none" stroke="#0000ff" d="M84.7347,-249.4544C84.7347,-237.3458 84.7347,-221.2545 84.7347,-207.5109"/>
<polygon fill="#0000ff" stroke="#0000ff" points="88.2348,-207.1129 84.7347,-197.113 81.2348,-207.113 88.2348,-207.1129"/>
</g>
<!-- dead_end -->
<g id="node10" class="node">
<title>dead_end</title>
<polygon fill="none" stroke="#000000" points="282.3794,-213.6812 213.09,-213.6812 213.09,-144.3918 282.3794,-144.3918 282.3794,-213.6812"/>
<polyline fill="none" stroke="#000000" points="225.09,-213.6812 213.09,-201.6812 "/>
<polyline fill="none" stroke="#000000" points="213.09,-156.3918 225.09,-144.3918 "/>
<polyline fill="none" stroke="#000000" points="270.3794,-144.3918 282.3794,-156.3918 "/>
<polyline fill="none" stroke="#000000" points="282.3794,-201.6812 270.3794,-213.6812 "/>
<text text-anchor="middle" x="247.7347" y="-174.8365" font-family="Times,serif" font-size="14.00" fill="#000000">dead_end</text>
</g>
<!-- BB_002E2CBD&#45;&gt;dead_end -->
<g id="edge11" class="edge">
<title>BB_002E2CBD-&gt;dead_end</title>
<path fill="none" stroke="#000000" d="M247.7347,-249.4544C247.7347,-241.9968 247.7347,-233.0284 247.7347,-224.0283"/>
<polygon fill="#000000" stroke="#000000" points="251.2348,-223.9321 247.7347,-213.9321 244.2348,-223.9322 251.2348,-223.9321"/>
</g>
</g>
</svg>