<?xml version="1.0" encoding="UTF-8" standalone="no"?><!DOCTYPE svg PUBLIC "-//W3C//DTD SVG 1.1//EN" "http://www.w3.org/Graphics/SVG/1.1/DTD/svg11.dtd"><!-- Generated by graphviz version 2.40.1 (20161225.0304)
 --><!-- Title: G Pages: 1 --><svg xmlns="http://www.w3.org/2000/svg" xmlns:xlink="http://www.w3.org/1999/xlink" width="450pt" height="798pt" viewBox="0.00 0.00 450.00 797.86">
<g id="graph0" class="graph" transform="scale(1 1) rotate(0) translate(4 793.8584)">
<title>G</title>
<polygon fill="#ffffff" stroke="transparent" points="-4,4 -4,-793.8584 446.0006,-793.8584 446.0006,4 -4,4"/>
<!-- start -->
<g id="node1" class="node">
<title>start</title>
<polygon fill="none" stroke="#000000" points="124.8018,-789.8584 85.5645,-771.8584 124.8018,-753.8584 164.0391,-771.8584 124.8018,-789.8584"/>
<polyline fill="none" stroke="#000000" points="96.4716,-776.862 96.4716,-766.8548 "/>
<polyline fill="none" stroke="#000000" points="113.8948,-758.862 135.7089,-758.862 "/>
<polyline fill="none" stroke="#000000" points="153.1321,-766.8548 153.1321,-776.862 "/>
<polyline fill="none" stroke="#000000" points="135.7089,-784.8548 113.8948,-784.8548 "/>
<text text-anchor="middle" x="124.8018" y="-767.6584" font-family="Times,serif" font-size="14.00" fill="#000000">start</text>
</g>
<!-- BB_002D67A0 -->
<g id="node2" class="node">
<title>BB_002D67A0</title>
<ellipse fill="none" stroke="#000000" cx="124.8018" cy="-699.8584" rx="71.8182" ry="18"/>
<text text-anchor="middle" x="124.8018" y="-695.6584" font-family="Times,serif" font-size="14.00" fill="#000000">BB_002D67A0</text>
</g>
<!-- start&#45;&gt;BB_002D67A0 -->
<g id="edge1" class="edge">
<title>start-&gt;BB_002D67A0</title>
<path fill="none" stroke="#000000" d="M124.8018,-753.6898C124.8018,-745.9894 124.8018,-736.8327 124.8018,-728.275"/>
<polygon fill="#000000" stroke="#000000" points="128.3019,-728.2716 124.8018,-718.2717 121.3019,-728.2717 128.3019,-728.2716"/>
</g>
<!-- BB_002D67DD -->
<g id="node3" class="node">
<title>BB_002D67DD</title>
<ellipse fill="none" stroke="#000000" cx="73.8018" cy="-627.8584" rx="73.6042" ry="18"/>
<text text-anchor="middle" x="73.8018" y="-623.6584" font-family="Times,serif" font-size="14.00" fill="#000000">BB_002D67DD</text>
</g>
<!-- BB_002D67A0&#45;&gt;BB_002D67DD -->
<g id="edge2" class="edge">
<title>BB_002D67A0-&gt;BB_002D67DD</title>
<path fill="none" stroke="#ff0000" d="M112.1951,-682.0606C106.1878,-673.5798 98.885,-663.2699 92.2678,-653.928"/>
<polygon fill="#ff0000" stroke="#ff0000" points="95.0766,-651.8381 86.4403,-645.7009 89.3644,-655.8843 95.0766,-651.8381"/>
</g>
<!-- BB_002D67DF -->
<g id="node4" class="node">
<title>BB_002D67DF</title>
<ellipse fill="none" stroke="#000000" cx="124.8018" cy="-555.8584" rx="72.3981" ry="18"/>
<text text-anchor="middle" x="124.8018" y="-551.6584" font-family="Times,serif" font-size="14.00" fill="#000000">BB_002D67DF</text>
</g>
<!-- BB_002D67A0&#45;&gt;BB_002D67DF -->
<g id="edge3" class="edge">
<title>BB_002D67A0-&gt;BB_002D67DF</title>
<path fill="none" stroke="#00ff00" d="M138.703,-681.9879C145.611,-671.9674 153.2304,-658.8908 156.8018,-645.8584 161.0306,-630.4273 161.0306,-625.2895 156.8018,-609.8584 154.179,-600.2878 149.3732,-590.6932 144.2692,-582.3028"/>
<polygon fill="#00ff00" stroke="#00ff00" points="147.0838,-580.2106 138.703,-573.7289 141.2126,-584.0222 147.0838,-580.2106"/>
</g>
<!-- BB_002D67DD&#45;&gt;BB_002D67DF -->
<g id="edge4" class="edge">
<title>BB_002D67DD-&gt;BB_002D67DF</title>
<path fill="none" stroke="#0000ff" d="M86.4086,-610.0606C92.4159,-601.5798 99.7186,-591.2699 106.3359,-581.928"/>
<polygon fill="#0000ff" stroke="#0000ff" points="109.2392,-583.8843 112.1633,-573.7009 103.527,-579.8381 109.2392,-583.8843"/>
</g>
<!-- BB_002D67E5 -->
<g id="node5" class="node">
<title>BB_002D67E5</title>
<ellipse fill="none" stroke="#000000" cx="75.8018" cy="-483.8584" rx="70.6742" ry="18"/>
<text text-anchor="middle" x="75.8018" y="-479.6584" font-family="Times,serif" font-size="14.00" fill="#000000">BB_002D67E5</text>
</g>
<!-- BB_002D67DF&#45;&gt;BB_002D67E5 -->
<g id="edge5" class="edge">
<title>BB_002D67DF-&gt;BB_002D67E5</title>
<path fill="none" stroke="#ff0000" d="M112.6895,-538.0606C106.9766,-529.6663 100.0444,-519.4802 93.7384,-510.2142"/>
<polygon fill="#ff0000" stroke="#ff0000" points="96.4644,-507.9989 87.9447,-501.7009 90.6774,-511.9373 96.4644,-507.9989"/>
</g>
<!-- BB_002D6835 -->
<g id="node6" class="node">
<title>BB_002D6835</title>
<ellipse fill="none" stroke="#000000" cx="124.8018" cy="-411.8584" rx="69.5321" ry="18"/>
<text text-anchor="middle" x="124.8018" y="-407.6584" font-family="Times,serif" font-size="14.00" fill="#000000">BB_002D6835</text>
</g>
<!-- BB_002D67DF&#45;&gt;BB_002D6835 -->
<g id="edge6" class="edge">
<title>BB_002D67DF-&gt;BB_002D6835</title>
<path fill="none" stroke="#00ff00" d="M138.2737,-537.9237C144.9673,-527.8845 152.3484,-514.8103 155.8018,-501.8584 159.9239,-486.3985 159.9239,-481.3183 155.8018,-465.8584 153.2657,-456.3468 148.6114,-446.7693 143.6667,-438.3763"/>
<polygon fill="#00ff00" stroke="#00ff00" points="146.5575,-436.3983 138.2737,-429.7931 140.6304,-440.1225 146.5575,-436.3983"/>
</g>
<!-- BB_002D67E5&#45;&gt;BB_002D6835 -->
<g id="edge7" class="edge">
<title>BB_002D67E5-&gt;BB_002D6835</title>
<path fill="none" stroke="#0000ff" d="M87.9142,-466.0606C93.627,-457.6663 100.5592,-447.4802 106.8652,-438.2142"/>
<polygon fill="#0000ff" stroke="#0000ff" points="109.9262,-439.9373 112.659,-429.7009 104.1392,-435.9989 109.9262,-439.9373"/>
</g>
<!-- BB_002D687E -->
<g id="node7" class="node">
<title>BB_002D687E</title>
<ellipse fill="none" stroke="#000000" cx="174.8018" cy="-339.8584" rx="70.6742" ry="18"/>
<text text-anchor="middle" x="174.8018" y="-335.6584" font-family="Times,serif" font-size="14.00" fill="#000000">BB_002D687E</text>
</g>
<!-- BB_002D6835&#45;&gt;BB_002D687E -->
<g id="edge8" class="edge">
<title>BB_002D6835-&gt;BB_002D687E</title>
<path fill="none" stroke="#ff0000" d="M137.1614,-394.0606C143.0509,-385.5798 150.2105,-375.2699 156.698,-365.928"/>
<polygon fill="#ff0000" stroke="#ff0000" points="159.582,-367.9111 162.4112,-357.7009 153.8324,-363.9183 159.582,-367.9111"/>
</g>
<!-- BB_002D68A4 -->
<g id="node8" class="node">
<title>BB_002D68A4</title>
<ellipse fill="none" stroke="#000000" cx="75.8018" cy="-267.8584" rx="71.8182" ry="18"/>
<text text-anchor="middle" x="75.8018" y="-263.6584" font-family="Times,serif" font-size="14.00" fill="#000000">BB_002D68A4</text>
</g>
<!-- BB_002D6835&#45;&gt;BB_002D68A4 -->
<g id="edge9" class="edge">
<title>BB_002D6835-&gt;BB_002D68A4</title>
<path fill="none" stroke="#00ff00" d="M113.1092,-394.0183C106.8728,-383.7959 99.5315,-370.5167 94.8018,-357.8584 87.2793,-337.7253 82.415,-313.8863 79.493,-295.8025"/>
<polygon fill="#00ff00" stroke="#00ff00" points="82.95,-295.2545 77.9917,-285.8916 76.029,-296.303 82.95,-295.2545"/>
</g>
<!-- BB_002D687E&#45;&gt;BB_002D68A4 -->
<g id="edge10" class="edge">
<title>BB_002D687E-&gt;BB_002D68A4</title>
<path fill="none" stroke="#ff0000" d="M151.3402,-322.7954C138.3659,-313.3596 122.0553,-301.4973 107.9137,-291.2125"/>
<polygon fill="#ff0000" stroke="#ff0000" points="109.5841,-288.0996 99.4381,-285.0484 105.4669,-293.7608 109.5841,-288.0996"/>
</g>
<!-- BB_002D68E0 -->
<g id="node9" class="node">
<title>BB_002D68E0</title>
<ellipse fill="none" stroke="#000000" cx="235.8018" cy="-267.8584" rx="70.6742" ry="18"/>
<text text-anchor="middle" x="235.8018" y="-263.6584" font-family="Times,serif" font-size="14.00" fill="#000000">BB_002D68E0</text>
</g>
<!-- BB_002D687E&#45;&gt;BB_002D68E0 -->
<g id="edge11" class="edge">
<title>BB_002D687E-&gt;BB_002D68E0</title>
<path fill="none" stroke="#00ff00" d="M189.8805,-322.0606C197.2123,-313.4067 206.1575,-302.8484 214.1986,-293.3572"/>
<polygon fill="#00ff00" stroke="#00ff00" points="216.8915,-295.5933 220.6852,-285.7009 211.5506,-291.0683 216.8915,-295.5933"/>
</g>
<!-- end -->
<g id="node10" class="node">
<title>end</title>
<polygon fill="none" stroke="#000000" points="94.0171,-213.9663 57.5866,-213.9663 57.5866,-177.5359 94.0171,-177.5359 94.0171,-213.9663"/>
<polyline fill="none" stroke="#000000" points="69.5866,-213.9663 57.5866,-201.9663 "/>
<polyline fill="none" stroke="#000000" points="57.5866,-189.5359 69.5866,-177.5359 "/>
<polyline fill="none" stroke="#000000" points="82.0171,-177.5359 94.0171,-189.5359 "/>
<polyline fill="none" stroke="#000000" points="94.0171,-201.9663 82.0171,-213.9663 "/>
<text text-anchor="middle" x="75.8018" y="-191.5511" font-family="Times,serif" font-size="14.00" fill="#000000">end</text>
</g>
<!-- BB_002D68A4&#45;&gt;end -->
<g id="edge12" class="edge">
<title>BB_002D68A4-&gt;end</title>
<path fill="none" stroke="#000000" d="M75.8018,-249.6627C75.8018,-241.8915 75.8018,-232.6394 75.8018,-224.0124"/>
<polygon fill="#000000" stroke="#000000" points="79.3019,-223.941 75.8018,-213.941 72.3019,-223.941 79.3019,-223.941"/>
</g>
<!-- BB_002D68E5 -->
<g id="node11" class="node">
<title>BB_002D68E5</title>
<ellipse fill="none" stroke="#000000" cx="208.8018" cy="-195.7511" rx="70.6742" ry="18"/>
<text text-anchor="middle" x="208.8018" y="-191.5511" font-family="Times,serif" font-size="14.00" fill="#000000">BB_002D68E5</text>
</g>
<!-- BB_002D68E0&#45;&gt;BB_002D68E5 -->
<g id="edge13" class="edge">
<title>BB_002D68E0-&gt;BB_002D68E5</title>
<path fill="none" stroke="#ff0000" d="M228.9886,-249.6627C225.9921,-241.6601 222.4075,-232.087 219.0961,-223.2434"/>
<polygon fill="#ff0000" stroke="#ff0000" points="222.3038,-221.8289 215.5193,-213.6912 215.7483,-224.2836 222.3038,-221.8289"/>
</g>
<!-- BB_002D68EC -->
<g id="node12" class="node">
<title>BB_002D68EC</title>
<ellipse fill="none" stroke="#000000" cx="369.8018" cy="-195.7511" rx="72.3981" ry="18"/>
<text text-anchor="middle" x="369.8018" y="-191.5511" font-family="Times,serif" font-size="14.00" fill="#000000">BB_002D68EC</text>
</g>
<!-- BB_002D68E0&#45;&gt;BB_002D68EC -->
<g id="edge14" class="edge">
<title>BB_002D68E0-&gt;BB_002D68EC</title>
<path fill="none" stroke="#00ff00" d="M266.2085,-251.4961C285.0919,-241.3347 309.5696,-228.1629 329.9896,-217.1746"/>
<polygon fill="#00ff00" stroke="#00ff00" points="331.9042,-220.119 339.0516,-212.2982 328.5871,-213.9548 331.9042,-220.119"/>
</g>
<!-- BB_002D68FC -->
<g id="node13" class="node">
<title>BB_002D68FC</title>
<ellipse fill="none" stroke="#000000" cx="288.8018" cy="-123.6438" rx="71.8357" ry="18"/>
<text text-anchor="middle" x="288.8018" y="-119.4438" font-family="Times,serif" font-size="14.00" fill="#000000">BB_002D68FC</text>
</g>
<!-- BB_002D68E5&#45;&gt;BB_002D68FC -->
<g id="edge15" class="edge">
<title>BB_002D68E5-&gt;BB_002D68FC</title>
<path fill="none" stroke="#0000ff" d="M228.1676,-178.2959C238.2145,-169.2402 250.6531,-158.0288 261.6444,-148.1219"/>
<polygon fill="#0000ff" stroke="#0000ff" points="264.2524,-150.4831 269.3371,-141.1881 259.5658,-145.2835 264.2524,-150.4831"/>
</g>
<!-- BB_002D68EC&#45;&gt;BB_002D68FC -->
<g id="edge16" class="edge">
<title>BB_002D68EC-&gt;BB_002D68FC</title>
<path fill="none" stroke="#0000ff" d="M350.194,-178.2959C340.0215,-169.2402 327.4274,-158.0288 316.2987,-148.1219"/>
<polygon fill="#0000ff" stroke="#0000ff" points="318.3063,-145.2231 308.5098,-141.1881 313.6518,-150.4516 318.3063,-145.2231"/>
</g>
<!-- dead_end -->
<g id="node14" class="node">
<title>dead_end</title>
<polygon fill="none" stroke="#000000" points="323.4465,-69.4666 254.1571,-69.4666 254.1571,-.1772 323.4465,-.1772 323.4465,-69.4666"/>
<polyline fill="none" stroke="#000000" points="266.1571,-69.4666 254.1571,-57.4666 "/>
<polyline fill="none" stroke="#000000" points="254.1571,-12.1772 266.1571,-.1772 "/>
<polyline fill="none" stroke="#000000" points="311.4465,-.1772 323.4465,-12.1772 "/>
<polyline fill="none" stroke="#000000" points="323.4465,-57.4666 311.4465,-69.4666 "/>
<text text-anchor="middle" x="288.8018" y="-30.6219" font-family="Times,serif" font-size="14.00" fill="#000000">dead_end</text>
</g>
<!-- BB_002D68FC&#45;&gt;dead_end -->
<g id="edge17" class="edge">
<title>BB_002D68FC-&gt;dead_end</title>
<path fill="none" stroke="#000000" d="M288.8018,-105.2398C288.8018,-97.7822 288.8018,-88.8138 288.8018,-79.8137"/>
<polygon fill="#000000" stroke="#000000" points="292.3019,-79.7175 288.8018,-69.7175 285.3019,-79.7176 292.3019,-79.7175"/>
</g>
</g>
</svg>