<?xml version="1.0" encoding="UTF-8" standalone="no"?><!DOCTYPE svg PUBLIC "-//W3C//DTD SVG 1.1//EN" "http://www.w3.org/Graphics/SVG/1.1/DTD/svg11.dtd"><!-- Generated by graphviz version 2.40.1 (20161225.0304)
 --><!-- Title: G Pages: 1 --><svg xmlns="http://www.w3.org/2000/svg" xmlns:xlink="http://www.w3.org/1999/xlink" width="355pt" height="582pt" viewBox="0.00 0.00 355.35 581.86">
<g id="graph0" class="graph" transform="scale(1 1) rotate(0) translate(4 577.8584)">
<title>G</title>
<polygon fill="#ffffff" stroke="transparent" points="-4,4 -4,-577.8584 351.351,-577.8584 351.351,4 -4,4"/>
<!-- start -->
<g id="node1" class="node">
<title>start</title>
<polygon fill="none" stroke="#000000" points="275.6833,-573.8584 236.446,-555.8584 275.6833,-537.8584 314.9207,-555.8584 275.6833,-573.8584"/>
<polyline fill="none" stroke="#000000" points="247.3531,-560.862 247.3531,-550.8548 "/>
<polyline fill="none" stroke="#000000" points="264.7763,-542.862 286.5904,-542.862 "/>
<polyline fill="none" stroke="#000000" points="304.0136,-550.8548 304.0136,-560.862 "/>
<polyline fill="none" stroke="#000000" points="286.5904,-568.8548 264.7763,-568.8548 "/>
<text text-anchor="middle" x="275.6833" y="-551.6584" font-family="Times,serif" font-size="14.00" fill="#000000">start</text>
</g>
<!-- BB_002E2BC0 -->
<g id="node2" class="node">
<title>BB_002E2BC0</title>
<ellipse fill="none" stroke="#000000" cx="275.6833" cy="-483.8584" rx="71.8357" ry="18"/>
<text text-anchor="middle" x="275.6833" y="-479.6584" font-family="Times,serif" font-size="14.00" fill="#000000">BB_002E2BC0</text>
</g>
<!-- start&#45;&gt;BB_002E2BC0 -->
<g id="edge1" class="edge">
<title>start-&gt;BB_002E2BC0</title>
<path fill="none" stroke="#000000" d="M275.6833,-537.6898C275.6833,-529.9894 275.6833,-520.8327 275.6833,-512.275"/>
<polygon fill="#000000" stroke="#000000" points="279.1834,-512.2716 275.6833,-502.2717 272.1834,-512.2717 279.1834,-512.2716"/>
</g>
<!-- BB_002E2BED -->
<g id="node3" class="node">
<title>BB_002E2BED</title>
<ellipse fill="none" stroke="#000000" cx="148.6833" cy="-411.8584" rx="73.0402" ry="18"/>
<text text-anchor="middle" x="148.6833" y="-407.6584" font-family="Times,serif" font-size="14.00" fill="#000000">BB_002E2BED</text>
</g>
<!-- BB_002E2BC0&#45;&gt;BB_002E2BED -->
<g id="edge2" class="edge">
<title>BB_002E2BC0-&gt;BB_002E2BED</title>
<path fill="none" stroke="#ff0000" d="M246.547,-467.3401C228.8455,-457.3046 206.0456,-444.3787 186.9068,-433.5284"/>
<polygon fill="#ff0000" stroke="#ff0000" points="188.5493,-430.4363 178.1239,-428.5491 185.097,-436.5258 188.5493,-430.4363"/>
</g>
<!-- BB_002E2C14 -->
<g id="node4" class="node">
<title>BB_002E2C14</title>
<ellipse fill="none" stroke="#000000" cx="211.6833" cy="-90.2146" rx="70.1118" ry="18"/>
<text text-anchor="middle" x="211.6833" y="-86.0146" font-family="Times,serif" font-size="14.00" fill="#000000">BB_002E2C14</text>
</g>
<!-- BB_002E2BC0&#45;&gt;BB_002E2C14 -->
<g id="edge3" class="edge">
<title>BB_002E2BC0-&gt;BB_002E2C14</title>
<path fill="none" stroke="#00ff00" d="M289.5704,-465.9036C308.3933,-439.7199 339.6833,-388.8291 339.6833,-339.8584 339.6833,-339.8584 339.6833,-339.8584 339.6833,-267.8584 339.6833,-207.8933 323.206,-190.9891 285.6833,-144.2146 275.8185,-131.9174 262.4984,-121.0472 249.8778,-112.3425"/>
<polygon fill="#00ff00" stroke="#00ff00" points="251.5749,-109.2687 241.3033,-106.6713 247.7132,-115.1072 251.5749,-109.2687"/>
</g>
<!-- BB_002E2BF8 -->
<g id="node5" class="node">
<title>BB_002E2BF8</title>
<ellipse fill="none" stroke="#000000" cx="148.6833" cy="-339.8584" rx="70.6916" ry="18"/>
<text text-anchor="middle" x="148.6833" y="-335.6584" font-family="Times,serif" font-size="14.00" fill="#000000">BB_002E2BF8</text>
</g>
<!-- BB_002E2BED&#45;&gt;BB_002E2BF8 -->
<g id="edge4" class="edge">
<title>BB_002E2BED-&gt;BB_002E2BF8</title>
<path fill="none" stroke="#ff0000" d="M148.6833,-393.6898C148.6833,-385.9894 148.6833,-376.8327 148.6833,-368.275"/>
<polygon fill="#ff0000" stroke="#ff0000" points="152.1834,-368.2716 148.6833,-358.2717 145.1834,-368.2717 152.1834,-368.2716"/>
</g>
<!-- BB_002E2C0A -->
<g id="node6" class="node">
<title>BB_002E2C0A</title>
<ellipse fill="none" stroke="#000000" cx="83.6833" cy="-179.0365" rx="72.3981" ry="18"/>
<text text-anchor="middle" x="83.6833" y="-174.8365" font-family="Times,serif" font-size="14.00" fill="#000000">BB_002E2C0A</text>
</g>
<!-- BB_002E2BED&#45;&gt;BB_002E2C0A -->
<g id="edge5" class="edge">
<title>BB_002E2BED-&gt;BB_002E2C0A</title>
<path fill="none" stroke="#00ff00" d="M116.0432,-395.742C80.0023,-375.7596 24.4575,-337.8683 4.6833,-285.8584 -1.0027,-270.9029 -1.8403,-264.4681 4.6833,-249.8584 13.4451,-230.2365 30.6278,-213.7905 46.7366,-201.7008"/>
<polygon fill="#00ff00" stroke="#00ff00" points="48.9145,-204.4462 55.0123,-195.782 44.8424,-198.7525 48.9145,-204.4462"/>
</g>
<!-- end -->
<g id="node9" class="node">
<title>end</title>
<polygon fill="none" stroke="#000000" points="229.8986,-36.3225 193.4681,-36.3225 193.4681,.1079 229.8986,.1079 229.8986,-36.3225"/>
<polyline fill="none" stroke="#000000" points="205.4681,-36.3225 193.4681,-24.3225 "/>
<polyline fill="none" stroke="#000000" points="193.4681,-11.8921 205.4681,.1079 "/>
<polyline fill="none" stroke="#000000" points="217.8986,.1079 229.8986,-11.8921 "/>
<polyline fill="none" stroke="#000000" points="229.8986,-24.3225 217.8986,-36.3225 "/>
<text text-anchor="middle" x="211.6833" y="-13.9073" font-family="Times,serif" font-size="14.00" fill="#000000">end</text>
</g>
<!-- BB_002E2C14&#45;&gt;end -->
<g id="edge10" class="edge">
<title>BB_002E2C14-&gt;end</title>
<path fill="none" stroke="#000000" d="M211.6833,-72.0189C211.6833,-64.2477 211.6833,-54.9956 211.6833,-46.3686"/>
<polygon fill="#000000" stroke="#000000" points="215.1834,-46.2972 211.6833,-36.2972 208.1834,-46.2972 215.1834,-46.2972"/>
</g>
<!-- BB_002E2C08 -->
<g id="node7" class="node">
<title>BB_002E2C08</title>
<ellipse fill="none" stroke="#000000" cx="83.6833" cy="-267.8584" rx="70.1118" ry="18"/>
<text text-anchor="middle" x="83.6833" y="-263.6584" font-family="Times,serif" font-size="14.00" fill="#000000">BB_002E2C08</text>
</g>
<!-- BB_002E2BF8&#45;&gt;BB_002E2C08 -->
<g id="edge6" class="edge">
<title>BB_002E2BF8-&gt;BB_002E2C08</title>
<path fill="none" stroke="#ff0000" d="M132.6159,-322.0606C124.7446,-313.3416 115.1281,-302.6895 106.51,-293.1433"/>
<polygon fill="#ff0000" stroke="#ff0000" points="108.865,-290.5288 99.5659,-285.4514 103.6691,-295.2195 108.865,-290.5288"/>
</g>
<!-- BB_002E2C35 -->
<g id="node8" class="node">
<title>BB_002E2C35</title>
<ellipse fill="none" stroke="#000000" cx="241.6833" cy="-267.8584" rx="70.1118" ry="18"/>
<text text-anchor="middle" x="241.6833" y="-263.6584" font-family="Times,serif" font-size="14.00" fill="#000000">BB_002E2C35</text>
</g>
<!-- BB_002E2BF8&#45;&gt;BB_002E2C35 -->
<g id="edge7" class="edge">
<title>BB_002E2BF8-&gt;BB_002E2C35</title>
<path fill="none" stroke="#00ff00" d="M171.1961,-322.4292C183.1906,-313.1431 198.1174,-301.5869 211.1429,-291.5026"/>
<polygon fill="#00ff00" stroke="#00ff00" points="213.6133,-294.0164 219.378,-285.1271 209.3281,-288.4813 213.6133,-294.0164"/>
</g>
<!-- BB_002E2C0A&#45;&gt;BB_002E2C14 -->
<g id="edge9" class="edge">
<title>BB_002E2C0A-&gt;BB_002E2C14</title>
<path fill="none" stroke="#0000ff" d="M108.363,-161.9107C128.3728,-148.0256 156.7549,-128.3306 178.7104,-113.0952"/>
<polygon fill="#0000ff" stroke="#0000ff" points="180.8591,-115.8644 187.0794,-107.2878 176.8683,-110.1134 180.8591,-115.8644"/>
</g>
<!-- BB_002E2C08&#45;&gt;BB_002E2C0A -->
<g id="edge8" class="edge">
<title>BB_002E2C08-&gt;BB_002E2C0A</title>
<path fill="none" stroke="#0000ff" d="M83.6833,-249.4544C83.6833,-237.3458 83.6833,-221.2545 83.6833,-207.5109"/>
<polygon fill="#0000ff" stroke="#0000ff" points="87.1834,-207.1129 83.6833,-197.113 80.1834,-207.113 87.1834,-207.1129"/>
</g>
<!-- dead_end -->
<g id="node10" class="node">
<title>dead_end</title>
<polygon fill="none" stroke="#000000" points="276.3281,-213.6812 207.0386,-213.6812 207.0386,-144.3918 276.3281,-144.3918 276.3281,-213.6812"/>
<polyline fill="none" stroke="#000000" points="219.0386,-213.6812 207.0386,-201.6812 "/>
<polyline fill="none" stroke="#000000" points="207.0386,-156.3918 219.0386,-144.3918 "/>
<polyline fill="none" stroke="#000000" points="264.3281,-144.3918 276.3281,-156.3918 "/>
<polyline fill="none" stroke="#000000" points="276.3281,-201.6812 264.3281,-213.6812 "/>
<text text-anchor="middle" x="241.6833" y="-174.8365" font-family="Times,serif" font-size="14.00" fill="#000000">dead_end</text>
</g>
<!-- BB_002E2C35&#45;&gt;dead_end -->
<g id="edge11" class="edge">
<title>BB_002E2C35-&gt;dead_end</title>
<path fill="none" stroke="#000000" d="M241.6833,-249.4544C241.6833,-241.9968 241.6833,-233.0284 241.6833,-224.0283"/>
<polygon fill="#000000" stroke="#000000" points="245.1834,-223.9321 241.6833,-213.9321 238.1834,-223.9322 245.1834,-223.9321"/>
</g>
</g>
</svg>