<?xml version="1.0" encoding="UTF-8" standalone="no"?><!DOCTYPE svg PUBLIC "-//W3C//DTD SVG 1.1//EN" "http://www.w3.org/Graphics/SVG/1.1/DTD/svg11.dtd"><!-- Generated by graphviz version 2.40.1 (20161225.0304)
 --><!-- Title: G Pages: 1 --><svg xmlns="http://www.w3.org/2000/svg" xmlns:xlink="http://www.w3.org/1999/xlink" width="532pt" height="1230pt" viewBox="0.00 0.00 531.55 1229.86">
<g id="graph0" class="graph" transform="scale(1 1) rotate(0) translate(4 1225.8584)">
<title>G</title>
<polygon fill="#ffffff" stroke="transparent" points="-4,4 -4,-1225.8584 527.5478,-1225.8584 527.5478,4 -4,4"/>
<!-- start -->
<g id="node1" class="node">
<title>start</title>
<polygon fill="none" stroke="#000000" points="449.747,-1221.8584 410.5097,-1203.8584 449.747,-1185.8584 488.9843,-1203.8584 449.747,-1221.8584"/>
<polyline fill="none" stroke="#000000" points="421.4167,-1208.862 421.4167,-1198.8548 "/>
<polyline fill="none" stroke="#000000" points="438.8399,-1190.862 460.654,-1190.862 "/>
<polyline fill="none" stroke="#000000" points="478.0772,-1198.8548 478.0772,-1208.862 "/>
<polyline fill="none" stroke="#000000" points="460.654,-1216.8548 438.8399,-1216.8548 "/>
<text text-anchor="middle" x="449.747" y="-1199.6584" font-family="Times,serif" font-size="14.00" fill="#000000">start</text>
</g>
<!-- BB_002DEE40 -->
<g id="node2" class="node">
<title>BB_002DEE40</title>
<ellipse fill="none" stroke="#000000" cx="449.747" cy="-1131.8584" rx="71.8163" ry="18"/>
<text text-anchor="middle" x="449.747" y="-1127.6584" font-family="Times,serif" font-size="14.00" fill="#000000">BB_002DEE40</text>
</g>
<!-- start&#45;&gt;BB_002DEE40 -->
<g id="edge1" class="edge">
<title>start-&gt;BB_002DEE40</title>
<path fill="none" stroke="#000000" d="M449.747,-1185.6898C449.747,-1177.9894 449.747,-1168.8327 449.747,-1160.275"/>
<polygon fill="#000000" stroke="#000000" points="453.2471,-1160.2716 449.747,-1150.2717 446.2471,-1160.2717 453.2471,-1160.2716"/>
</g>
<!-- BB_002DEED0 -->
<g id="node3" class="node">
<title>BB_002DEED0</title>
<ellipse fill="none" stroke="#000000" cx="449.747" cy="-1059.8584" rx="73.6022" ry="18"/>
<text text-anchor="middle" x="449.747" y="-1055.6584" font-family="Times,serif" font-size="14.00" fill="#000000">BB_002DEED0</text>
</g>
<!-- BB_002DEE40&#45;&gt;BB_002DEED0 -->
<g id="edge2" class="edge">
<title>BB_002DEE40-&gt;BB_002DEED0</title>
<path fill="none" stroke="#0000ff" d="M449.747,-1113.6898C449.747,-1105.9894 449.747,-1096.8327 449.747,-1088.275"/>
<polygon fill="#0000ff" stroke="#0000ff" points="453.2471,-1088.2716 449.747,-1078.2717 446.2471,-1088.2717 453.2471,-1088.2716"/>
</g>
<!-- BB_002DEEF8 -->
<g id="node4" class="node">
<title>BB_002DEEF8</title>
<ellipse fill="none" stroke="#000000" cx="340.747" cy="-987.8584" rx="72.3961" ry="18"/>
<text text-anchor="middle" x="340.747" y="-983.6584" font-family="Times,serif" font-size="14.00" fill="#000000">BB_002DEEF8</text>
</g>
<!-- BB_002DEED0&#45;&gt;BB_002DEEF8 -->
<g id="edge3" class="edge">
<title>BB_002DEED0-&gt;BB_002DEEF8</title>
<path fill="none" stroke="#ff0000" d="M423.9155,-1042.7954C409.2549,-1033.1114 390.7252,-1020.8715 374.8789,-1010.4042"/>
<polygon fill="#ff0000" stroke="#ff0000" points="376.6661,-1007.3902 366.393,-1004.7989 372.8079,-1013.231 376.6661,-1007.3902"/>
</g>
<!-- BB_002DF084 -->
<g id="node5" class="node">
<title>BB_002DF084</title>
<ellipse fill="none" stroke="#000000" cx="402.747" cy="-162.2146" rx="70.1118" ry="18"/>
<text text-anchor="middle" x="402.747" y="-158.0146" font-family="Times,serif" font-size="14.00" fill="#000000">BB_002DF084</text>
</g>
<!-- BB_002DEED0&#45;&gt;BB_002DF084 -->
<g id="edge4" class="edge">
<title>BB_002DEED0-&gt;BB_002DF084</title>
<path fill="none" stroke="#00ff00" d="M443.9279,-1041.673C440.747,-1014.3567 440.747,-961.1084 440.747,-915.8584 440.747,-915.8584 440.747,-915.8584 440.747,-339.8584 440.747,-285.5052 419.9294,-224.8159 408.6566,-190.2987"/>
<polygon fill="#00ff00" stroke="#00ff00" points="411.888,-188.9138 405.4982,-180.4627 405.2232,-191.0539 411.888,-188.9138"/>
</g>
<!-- BB_002DEEF8&#45;&gt;BB_002DF084 -->
<g id="edge6" class="edge">
<title>BB_002DEEF8-&gt;BB_002DF084</title>
<path fill="none" stroke="#00ff00" d="M358.203,-970.3156C367.1272,-960.3912 377.4137,-947.3017 383.747,-933.8584 401.17,-896.8753 402.747,-884.74 402.747,-843.8584 402.747,-843.8584 402.747,-843.8584 402.747,-339.8584 402.747,-287.2613 402.747,-225.9045 402.747,-190.8017"/>
<polygon fill="#00ff00" stroke="#00ff00" points="406.2471,-190.3715 402.747,-180.3716 399.2471,-190.3716 406.2471,-190.3715"/>
</g>
<!-- BB_002DEF20 -->
<g id="node6" class="node">
<title>BB_002DEF20</title>
<ellipse fill="none" stroke="#000000" cx="303.747" cy="-915.8584" rx="71.2539" ry="18"/>
<text text-anchor="middle" x="303.747" y="-911.6584" font-family="Times,serif" font-size="14.00" fill="#000000">BB_002DEF20</text>
</g>
<!-- BB_002DEEF8&#45;&gt;BB_002DEF20 -->
<g id="edge5" class="edge">
<title>BB_002DEEF8-&gt;BB_002DEF20</title>
<path fill="none" stroke="#ff0000" d="M331.4103,-969.6898C327.2157,-961.5272 322.1802,-951.7284 317.5617,-942.7411"/>
<polygon fill="#ff0000" stroke="#ff0000" points="320.6362,-941.0664 312.9525,-933.7718 314.4102,-944.2659 320.6362,-941.0664"/>
</g>
<!-- BB_002DF084&#45;&gt;BB_002DEED0 -->
<g id="edge25" class="edge">
<title>BB_002DF084-&gt;BB_002DEED0</title>
<path fill="none" stroke="#00ff00" d="M416.0982,-179.9594C433.1292,-211.4714 458.747,-279.5634 458.747,-339.8584 458.747,-915.8584 458.747,-915.8584 458.747,-915.8584 458.747,-955.9824 458.747,-1002.3953 456.5292,-1031.4407"/>
<polygon fill="#00ff00" stroke="#00ff00" points="453.0187,-1031.389 455.566,-1041.673 459.9879,-1032.0451 453.0187,-1031.389"/>
</g>
<!-- BB_002DF09F -->
<g id="node18" class="node">
<title>BB_002DF09F</title>
<ellipse fill="none" stroke="#000000" cx="402.747" cy="-90.2146" rx="70.6916" ry="18"/>
<text text-anchor="middle" x="402.747" y="-86.0146" font-family="Times,serif" font-size="14.00" fill="#000000">BB_002DF09F</text>
</g>
<!-- BB_002DF084&#45;&gt;BB_002DF09F -->
<g id="edge24" class="edge">
<title>BB_002DF084-&gt;BB_002DF09F</title>
<path fill="none" stroke="#ff0000" d="M402.747,-144.046C402.747,-136.3456 402.747,-127.1889 402.747,-118.6312"/>
<polygon fill="#ff0000" stroke="#ff0000" points="406.2471,-118.6278 402.747,-108.6279 399.2471,-118.6279 406.2471,-118.6278"/>
</g>
<!-- BB_002DEF20&#45;&gt;BB_002DF084 -->
<g id="edge8" class="edge">
<title>BB_002DEF20-&gt;BB_002DF084</title>
<path fill="none" stroke="#00ff00" d="M316.9831,-897.8029C334.9237,-871.4966 364.747,-820.4579 364.747,-771.8584 364.747,-771.8584 364.747,-771.8584 364.747,-339.8584 364.747,-285.9815 381.6678,-224.9062 392.9271,-190.23"/>
<polygon fill="#00ff00" stroke="#00ff00" points="396.3772,-190.9468 396.2145,-180.3532 389.7355,-188.736 396.3772,-190.9468"/>
</g>
<!-- BB_002DEF30 -->
<g id="node7" class="node">
<title>BB_002DEF30</title>
<ellipse fill="none" stroke="#000000" cx="256.747" cy="-843.8584" rx="71.2539" ry="18"/>
<text text-anchor="middle" x="256.747" y="-839.6584" font-family="Times,serif" font-size="14.00" fill="#000000">BB_002DEF30</text>
</g>
<!-- BB_002DEF20&#45;&gt;BB_002DEF30 -->
<g id="edge7" class="edge">
<title>BB_002DEF20-&gt;BB_002DEF30</title>
<path fill="none" stroke="#ff0000" d="M292.129,-898.0606C286.6494,-889.6663 280.0001,-879.4802 273.9515,-870.2142"/>
<polygon fill="#ff0000" stroke="#ff0000" points="276.7913,-868.1616 268.3942,-861.7009 270.9296,-871.9879 276.7913,-868.1616"/>
</g>
<!-- BB_002DEF40 -->
<g id="node8" class="node">
<title>BB_002DEF40</title>
<ellipse fill="none" stroke="#000000" cx="247.747" cy="-771.8584" rx="71.2539" ry="18"/>
<text text-anchor="middle" x="247.747" y="-767.6584" font-family="Times,serif" font-size="14.00" fill="#000000">BB_002DEF40</text>
</g>
<!-- BB_002DEF30&#45;&gt;BB_002DEF40 -->
<g id="edge9" class="edge">
<title>BB_002DEF30-&gt;BB_002DEF40</title>
<path fill="none" stroke="#0000ff" d="M254.4759,-825.6898C253.5133,-817.9894 252.3688,-808.8327 251.299,-800.275"/>
<polygon fill="#0000ff" stroke="#0000ff" points="254.762,-799.7603 250.0486,-790.2717 247.8161,-800.6286 254.762,-799.7603"/>
</g>
<!-- BB_002DEF40&#45;&gt;BB_002DEF40 -->
<g id="edge11" class="edge">
<title>BB_002DEF40-&gt;BB_002DEF40</title>
<path fill="none" stroke="#00ff00" d="M295.8826,-785.1203C317.8116,-786.4743 336.8738,-782.0537 336.8738,-771.8584 336.8738,-763.2561 323.3032,-758.7649 305.8901,-758.3848"/>
<polygon fill="#00ff00" stroke="#00ff00" points="305.8063,-754.8857 295.8826,-758.5965 305.9545,-761.8841 305.8063,-754.8857"/>
</g>
<!-- BB_002DEF4B -->
<g id="node9" class="node">
<title>BB_002DEF4B</title>
<ellipse fill="none" stroke="#000000" cx="247.747" cy="-699.8584" rx="72.978" ry="18"/>
<text text-anchor="middle" x="247.747" y="-695.6584" font-family="Times,serif" font-size="14.00" fill="#000000">BB_002DEF4B</text>
</g>
<!-- BB_002DEF40&#45;&gt;BB_002DEF4B -->
<g id="edge10" class="edge">
<title>BB_002DEF40-&gt;BB_002DEF4B</title>
<path fill="none" stroke="#ff0000" d="M247.747,-753.6898C247.747,-745.9894 247.747,-736.8327 247.747,-728.275"/>
<polygon fill="#ff0000" stroke="#ff0000" points="251.2471,-728.2716 247.747,-718.2717 244.2471,-728.2717 251.2471,-728.2716"/>
</g>
<!-- BB_002DEFCE -->
<g id="node10" class="node">
<title>BB_002DEFCE</title>
<ellipse fill="none" stroke="#000000" cx="255.747" cy="-627.8584" rx="73.6196" ry="18"/>
<text text-anchor="middle" x="255.747" y="-623.6584" font-family="Times,serif" font-size="14.00" fill="#000000">BB_002DEFCE</text>
</g>
<!-- BB_002DEF4B&#45;&gt;BB_002DEFCE -->
<g id="edge12" class="edge">
<title>BB_002DEF4B-&gt;BB_002DEFCE</title>
<path fill="none" stroke="#ff0000" d="M249.7657,-681.6898C250.6213,-673.9894 251.6387,-664.8327 252.5896,-656.275"/>
<polygon fill="#ff0000" stroke="#ff0000" points="256.0752,-656.597 253.7011,-646.2717 249.1181,-655.824 256.0752,-656.597"/>
</g>
<!-- BB_002DF01A -->
<g id="node11" class="node">
<title>BB_002DF01A</title>
<ellipse fill="none" stroke="#000000" cx="91.747" cy="-627.8584" rx="72.3981" ry="18"/>
<text text-anchor="middle" x="91.747" y="-623.6584" font-family="Times,serif" font-size="14.00" fill="#000000">BB_002DF01A</text>
</g>
<!-- BB_002DEF4B&#45;&gt;BB_002DF01A -->
<g id="edge13" class="edge">
<title>BB_002DEF4B-&gt;BB_002DF01A</title>
<path fill="none" stroke="#00ff00" d="M213.1255,-683.8793C190.2022,-673.2993 159.9496,-659.3365 135.3819,-647.9976"/>
<polygon fill="#00ff00" stroke="#00ff00" points="136.818,-644.8056 126.2716,-643.7929 133.8845,-651.1614 136.818,-644.8056"/>
</g>
<!-- BB_002DF029 -->
<g id="node12" class="node">
<title>BB_002DF029</title>
<ellipse fill="none" stroke="#000000" cx="97.747" cy="-555.8584" rx="70.1118" ry="18"/>
<text text-anchor="middle" x="97.747" y="-551.6584" font-family="Times,serif" font-size="14.00" fill="#000000">BB_002DF029</text>
</g>
<!-- BB_002DEFCE&#45;&gt;BB_002DF029 -->
<g id="edge14" class="edge">
<title>BB_002DEFCE-&gt;BB_002DF029</title>
<path fill="none" stroke="#0000ff" d="M220.6816,-611.8793C197.3032,-601.2258 166.398,-587.1424 141.4238,-575.7618"/>
<polygon fill="#0000ff" stroke="#0000ff" points="142.7217,-572.507 132.1707,-571.5451 139.819,-578.8768 142.7217,-572.507"/>
</g>
<!-- BB_002DF01A&#45;&gt;BB_002DF029 -->
<g id="edge15" class="edge">
<title>BB_002DF01A-&gt;BB_002DF029</title>
<path fill="none" stroke="#0000ff" d="M93.261,-609.6898C93.9027,-601.9894 94.6658,-592.8327 95.3789,-584.275"/>
<polygon fill="#0000ff" stroke="#0000ff" points="98.8699,-584.5278 96.2125,-574.2717 91.8941,-583.9464 98.8699,-584.5278"/>
</g>
<!-- BB_002DF038 -->
<g id="node13" class="node">
<title>BB_002DF038</title>
<ellipse fill="none" stroke="#000000" cx="104.747" cy="-483.8584" rx="70.1118" ry="18"/>
<text text-anchor="middle" x="104.747" y="-479.6584" font-family="Times,serif" font-size="14.00" fill="#000000">BB_002DF038</text>
</g>
<!-- BB_002DF029&#45;&gt;BB_002DF038 -->
<g id="edge16" class="edge">
<title>BB_002DF029-&gt;BB_002DF038</title>
<path fill="none" stroke="#ff0000" d="M99.5134,-537.6898C100.262,-529.9894 101.1522,-520.8327 101.9842,-512.275"/>
<polygon fill="#ff0000" stroke="#ff0000" points="105.4726,-512.5635 102.9568,-502.2717 98.5055,-511.886 105.4726,-512.5635"/>
</g>
<!-- BB_002DF063 -->
<g id="node14" class="node">
<title>BB_002DF063</title>
<ellipse fill="none" stroke="#000000" cx="104.747" cy="-251.0365" rx="70.1118" ry="18"/>
<text text-anchor="middle" x="104.747" y="-246.8365" font-family="Times,serif" font-size="14.00" fill="#000000">BB_002DF063</text>
</g>
<!-- BB_002DF029&#45;&gt;BB_002DF063 -->
<g id="edge17" class="edge">
<title>BB_002DF029-&gt;BB_002DF063</title>
<path fill="none" stroke="#00ff00" d="M64.3487,-539.8483C49.6644,-530.8942 33.9226,-518.2096 25.747,-501.8584 -10.0301,-430.3042 -6.8713,-394.9067 25.747,-321.8584 34.5727,-302.0933 51.9427,-285.5506 68.1528,-273.4367"/>
<polygon fill="#00ff00" stroke="#00ff00" points="70.3571,-276.1638 76.4725,-267.5121 66.2965,-270.4618 70.3571,-276.1638"/>
</g>
<!-- BB_002DF049 -->
<g id="node15" class="node">
<title>BB_002DF049</title>
<ellipse fill="none" stroke="#000000" cx="202.747" cy="-411.8584" rx="70.1118" ry="18"/>
<text text-anchor="middle" x="202.747" y="-407.6584" font-family="Times,serif" font-size="14.00" fill="#000000">BB_002DF049</text>
</g>
<!-- BB_002DF038&#45;&gt;BB_002DF049 -->
<g id="edge18" class="edge">
<title>BB_002DF038-&gt;BB_002DF049</title>
<path fill="none" stroke="#ff0000" d="M127.9716,-466.7954C140.8148,-457.3596 156.9607,-445.4973 170.9594,-435.2125"/>
<polygon fill="#ff0000" stroke="#ff0000" points="173.3629,-437.7898 179.3494,-429.0484 169.2183,-432.1486 173.3629,-437.7898"/>
</g>
<!-- BB_002DF059 -->
<g id="node16" class="node">
<title>BB_002DF059</title>
<ellipse fill="none" stroke="#000000" cx="104.747" cy="-339.8584" rx="70.1118" ry="18"/>
<text text-anchor="middle" x="104.747" y="-335.6584" font-family="Times,serif" font-size="14.00" fill="#000000">BB_002DF059</text>
</g>
<!-- BB_002DF038&#45;&gt;BB_002DF059 -->
<g id="edge19" class="edge">
<title>BB_002DF038-&gt;BB_002DF059</title>
<path fill="none" stroke="#00ff00" d="M104.747,-465.6207C104.747,-441.0594 104.747,-397.1058 104.747,-368.2125"/>
<polygon fill="#00ff00" stroke="#00ff00" points="108.2471,-367.948 104.747,-357.948 101.2471,-367.9481 108.2471,-367.948"/>
</g>
<!-- BB_002DF063&#45;&gt;BB_002DF084 -->
<g id="edge23" class="edge">
<title>BB_002DF063-&gt;BB_002DF084</title>
<path fill="none" stroke="#0000ff" d="M150.4652,-237.2756C171.8144,-230.8591 197.5762,-223.1298 220.747,-216.2146 263.0387,-203.5928 310.8847,-189.4002 346.9024,-178.7336"/>
<polygon fill="#0000ff" stroke="#0000ff" points="348.1383,-182.0179 356.7332,-175.8228 346.151,-175.306 348.1383,-182.0179"/>
</g>
<!-- BB_002DF049&#45;&gt;BB_002DF059 -->
<g id="edge20" class="edge">
<title>BB_002DF049-&gt;BB_002DF059</title>
<path fill="none" stroke="#ff0000" d="M179.5223,-394.7954C166.6791,-385.3596 150.5333,-373.4973 136.5345,-363.2125"/>
<polygon fill="#ff0000" stroke="#ff0000" points="138.2756,-360.1486 128.1445,-357.0484 134.1311,-365.7898 138.2756,-360.1486"/>
</g>
<!-- BB_002DF0C3 -->
<g id="node17" class="node">
<title>BB_002DF0C3</title>
<ellipse fill="none" stroke="#000000" cx="264.747" cy="-339.8584" rx="71.8357" ry="18"/>
<text text-anchor="middle" x="264.747" y="-335.6584" font-family="Times,serif" font-size="14.00" fill="#000000">BB_002DF0C3</text>
</g>
<!-- BB_002DF049&#45;&gt;BB_002DF0C3 -->
<g id="edge21" class="edge">
<title>BB_002DF049-&gt;BB_002DF0C3</title>
<path fill="none" stroke="#00ff00" d="M218.0728,-394.0606C225.5248,-385.4067 234.6167,-374.8484 242.7896,-365.3572"/>
<polygon fill="#00ff00" stroke="#00ff00" points="245.5095,-367.5625 249.3826,-357.7009 240.2051,-362.9948 245.5095,-367.5625"/>
</g>
<!-- BB_002DF059&#45;&gt;BB_002DF063 -->
<g id="edge22" class="edge">
<title>BB_002DF059-&gt;BB_002DF063</title>
<path fill="none" stroke="#0000ff" d="M104.747,-321.4544C104.747,-309.3458 104.747,-293.2545 104.747,-279.5109"/>
<polygon fill="#0000ff" stroke="#0000ff" points="108.2471,-279.1129 104.747,-269.113 101.2471,-279.113 108.2471,-279.1129"/>
</g>
<!-- dead_end -->
<g id="node20" class="node">
<title>dead_end</title>
<polygon fill="none" stroke="#000000" points="299.3917,-285.6812 230.1023,-285.6812 230.1023,-216.3918 299.3917,-216.3918 299.3917,-285.6812"/>
<polyline fill="none" stroke="#000000" points="242.1023,-285.6812 230.1023,-273.6812 "/>
<polyline fill="none" stroke="#000000" points="230.1023,-228.3918 242.1023,-216.3918 "/>
<polyline fill="none" stroke="#000000" points="287.3917,-216.3918 299.3917,-228.3918 "/>
<polyline fill="none" stroke="#000000" points="299.3917,-273.6812 287.3917,-285.6812 "/>
<text text-anchor="middle" x="264.747" y="-246.8365" font-family="Times,serif" font-size="14.00" fill="#000000">dead_end</text>
</g>
<!-- BB_002DF0C3&#45;&gt;dead_end -->
<g id="edge27" class="edge">
<title>BB_002DF0C3-&gt;dead_end</title>
<path fill="none" stroke="#000000" d="M264.747,-321.4544C264.747,-313.9968 264.747,-305.0284 264.747,-296.0283"/>
<polygon fill="#000000" stroke="#000000" points="268.2471,-295.9321 264.747,-285.9321 261.2471,-295.9322 268.2471,-295.9321"/>
</g>
<!-- end -->
<g id="node19" class="node">
<title>end</title>
<polygon fill="none" stroke="#000000" points="420.9622,-36.3225 384.5317,-36.3225 384.5317,.1079 420.9622,.1079 420.9622,-36.3225"/>
<polyline fill="none" stroke="#000000" points="396.5317,-36.3225 384.5317,-24.3225 "/>
<polyline fill="none" stroke="#000000" points="384.5317,-11.8921 396.5317,.1079 "/>
<polyline fill="none" stroke="#000000" points="408.9622,.1079 420.9622,-11.8921 "/>
<polyline fill="none" stroke="#000000" points="420.9622,-24.3225 408.9622,-36.3225 "/>
<text text-anchor="middle" x="402.747" y="-13.9073" font-family="Times,serif" font-size="14.00" fill="#000000">end</text>
</g>
<!-- BB_002DF09F&#45;&gt;end -->
<g id="edge26" class="edge">
<title>BB_002DF09F-&gt;end</title>
<path fill="none" stroke="#000000" d="M402.747,-72.0189C402.747,-64.2477 402.747,-54.9956 402.747,-46.3686"/>
<polygon fill="#000000" stroke="#000000" points="406.2471,-46.2972 402.747,-36.2972 399.2471,-46.2972 406.2471,-46.2972"/>
</g>
</g>
</svg>