<?xml version="1.0" encoding="UTF-8" standalone="no"?><!DOCTYPE svg PUBLIC "-//W3C//DTD SVG 1.1//EN" "http://www.w3.org/Graphics/SVG/1.1/DTD/svg11.dtd"><!-- Generated by graphviz version 2.40.1 (20161225.0304)
 --><!-- Title: G Pages: 1 --><svg xmlns="http://www.w3.org/2000/svg" xmlns:xlink="http://www.w3.org/1999/xlink" width="456pt" height="1662pt" viewBox="0.00 0.00 455.90 1661.86">
<g id="graph0" class="graph" transform="scale(1 1) rotate(0) translate(4 1657.8584)">
<title>G</title>
<polygon fill="#ffffff" stroke="transparent" points="-4,4 -4,-1657.8584 451.897,-1657.8584 451.897,4 -4,4"/>
<!-- start -->
<g id="node1" class="node">
<title>start</title>
<polygon fill="none" stroke="#000000" points="263.984,-1653.8584 224.7467,-1635.8584 263.984,-1617.8584 303.2213,-1635.8584 263.984,-1653.8584"/>
<polyline fill="none" stroke="#000000" points="235.6537,-1640.862 235.6537,-1630.8548 "/>
<polyline fill="none" stroke="#000000" points="253.0769,-1622.862 274.891,-1622.862 "/>
<polyline fill="none" stroke="#000000" points="292.3142,-1630.8548 292.3142,-1640.862 "/>
<polyline fill="none" stroke="#000000" points="274.891,-1648.8548 253.0769,-1648.8548 "/>
<text text-anchor="middle" x="263.984" y="-1631.6584" font-family="Times,serif" font-size="14.00" fill="#000000">start</text>
</g>
<!-- BB_002F00A0 -->
<g id="node2" class="node">
<title>BB_002F00A0</title>
<ellipse fill="none" stroke="#000000" cx="263.984" cy="-1563.8584" rx="70.1118" ry="18"/>
<text text-anchor="middle" x="263.984" y="-1559.6584" font-family="Times,serif" font-size="14.00" fill="#000000">BB_002F00A0</text>
</g>
<!-- start&#45;&gt;BB_002F00A0 -->
<g id="edge1" class="edge">
<title>start-&gt;BB_002F00A0</title>
<path fill="none" stroke="#000000" d="M263.984,-1617.6898C263.984,-1609.9894 263.984,-1600.8327 263.984,-1592.275"/>
<polygon fill="#000000" stroke="#000000" points="267.4841,-1592.2716 263.984,-1582.2717 260.4841,-1592.2717 267.4841,-1592.2716"/>
</g>
<!-- BB_002F00B3 -->
<g id="node3" class="node">
<title>BB_002F00B3</title>
<ellipse fill="none" stroke="#000000" cx="183.984" cy="-1491.8584" rx="69.5495" ry="18"/>
<text text-anchor="middle" x="183.984" y="-1487.6584" font-family="Times,serif" font-size="14.00" fill="#000000">BB_002F00B3</text>
</g>
<!-- BB_002F00A0&#45;&gt;BB_002F00B3 -->
<g id="edge2" class="edge">
<title>BB_002F00A0-&gt;BB_002F00B3</title>
<path fill="none" stroke="#ff0000" d="M244.6182,-1546.4292C234.5713,-1537.387 222.1327,-1526.1922 211.1414,-1516.3001"/>
<polygon fill="#ff0000" stroke="#ff0000" points="213.223,-1513.4648 203.4487,-1509.3766 208.5403,-1518.6679 213.223,-1513.4648"/>
</g>
<!-- BB_002F01AA -->
<g id="node4" class="node">
<title>BB_002F01AA</title>
<ellipse fill="none" stroke="#000000" cx="343.984" cy="-1491.8584" rx="72.3981" ry="18"/>
<text text-anchor="middle" x="343.984" y="-1487.6584" font-family="Times,serif" font-size="14.00" fill="#000000">BB_002F01AA</text>
</g>
<!-- BB_002F00A0&#45;&gt;BB_002F01AA -->
<g id="edge3" class="edge">
<title>BB_002F00A0-&gt;BB_002F01AA</title>
<path fill="none" stroke="#00ff00" d="M283.3497,-1546.4292C293.3967,-1537.387 305.8353,-1526.1922 316.8266,-1516.3001"/>
<polygon fill="#00ff00" stroke="#00ff00" points="319.4277,-1518.6679 324.5193,-1509.3766 314.7449,-1513.4648 319.4277,-1518.6679"/>
</g>
<!-- BB_002F00DE -->
<g id="node5" class="node">
<title>BB_002F00DE</title>
<ellipse fill="none" stroke="#000000" cx="201.984" cy="-1403.0365" rx="71.2539" ry="18"/>
<text text-anchor="middle" x="201.984" y="-1398.8365" font-family="Times,serif" font-size="14.00" fill="#000000">BB_002F00DE</text>
</g>
<!-- BB_002F00B3&#45;&gt;BB_002F00DE -->
<g id="edge4" class="edge">
<title>BB_002F00B3-&gt;BB_002F00DE</title>
<path fill="none" stroke="#ff0000" d="M187.7136,-1473.4544C190.1917,-1461.2259 193.493,-1444.9355 196.2961,-1431.1034"/>
<polygon fill="#ff0000" stroke="#ff0000" points="199.7648,-1431.6089 198.3207,-1421.113 192.9042,-1430.2186 199.7648,-1431.6089"/>
</g>
<!-- BB_002F00EB -->
<g id="node6" class="node">
<title>BB_002F00EB</title>
<ellipse fill="none" stroke="#000000" cx="151.984" cy="-1314.2146" rx="70.6916" ry="18"/>
<text text-anchor="middle" x="151.984" y="-1310.0146" font-family="Times,serif" font-size="14.00" fill="#000000">BB_002F00EB</text>
</g>
<!-- BB_002F00B3&#45;&gt;BB_002F00EB -->
<g id="edge5" class="edge">
<title>BB_002F00B3-&gt;BB_002F00EB</title>
<path fill="none" stroke="#00ff00" d="M155.7656,-1475.2985C142.9124,-1466.074 129.0207,-1453.3186 121.984,-1437.8584 109.1615,-1409.6864 114.2197,-1398.1778 121.984,-1368.2146 124.4337,-1358.7607 128.9366,-1349.1999 133.722,-1340.8044"/>
<polygon fill="#00ff00" stroke="#00ff00" points="136.7411,-1342.5757 138.9417,-1332.2119 130.7585,-1338.9414 136.7411,-1342.5757"/>
</g>
<!-- dead_end -->
<g id="node27" class="node">
<title>dead_end</title>
<polygon fill="none" stroke="#000000" points="378.6287,-1437.6812 309.3393,-1437.6812 309.3393,-1368.3918 378.6287,-1368.3918 378.6287,-1437.6812"/>
<polyline fill="none" stroke="#000000" points="321.3393,-1437.6812 309.3393,-1425.6812 "/>
<polyline fill="none" stroke="#000000" points="309.3393,-1380.3918 321.3393,-1368.3918 "/>
<polyline fill="none" stroke="#000000" points="366.6287,-1368.3918 378.6287,-1380.3918 "/>
<polyline fill="none" stroke="#000000" points="378.6287,-1425.6812 366.6287,-1437.6812 "/>
<text text-anchor="middle" x="343.984" y="-1398.8365" font-family="Times,serif" font-size="14.00" fill="#000000">dead_end</text>
</g>
<!-- BB_002F01AA&#45;&gt;dead_end -->
<g id="edge38" class="edge">
<title>BB_002F01AA-&gt;dead_end</title>
<path fill="none" stroke="#000000" d="M343.984,-1473.4544C343.984,-1465.9968 343.984,-1457.0284 343.984,-1448.0283"/>
<polygon fill="#000000" stroke="#000000" points="347.4841,-1447.9321 343.984,-1437.9321 340.4841,-1447.9322 347.4841,-1447.9321"/>
</g>
<!-- BB_002F00DE&#45;&gt;BB_002F00EB -->
<g id="edge6" class="edge">
<title>BB_002F00DE-&gt;BB_002F00EB</title>
<path fill="none" stroke="#0000ff" d="M191.8657,-1385.0621C184.7497,-1372.4209 175.1045,-1355.2867 167.0819,-1341.0352"/>
<polygon fill="#0000ff" stroke="#0000ff" points="170.0426,-1339.1596 162.0872,-1332.1623 163.9427,-1342.5934 170.0426,-1339.1596"/>
</g>
<!-- BB_002F00F2 -->
<g id="node7" class="node">
<title>BB_002F00F2</title>
<ellipse fill="none" stroke="#000000" cx="103.984" cy="-1242.2146" rx="68.4057" ry="18"/>
<text text-anchor="middle" x="103.984" y="-1238.0146" font-family="Times,serif" font-size="14.00" fill="#000000">BB_002F00F2</text>
</g>
<!-- BB_002F00EB&#45;&gt;BB_002F00F2 -->
<g id="edge7" class="edge">
<title>BB_002F00EB-&gt;BB_002F00F2</title>
<path fill="none" stroke="#ff0000" d="M140.1188,-1296.4168C134.5226,-1288.0225 127.7318,-1277.8364 121.5545,-1268.5704"/>
<polygon fill="#ff0000" stroke="#ff0000" points="124.3382,-1266.4362 115.879,-1260.0571 118.5139,-1270.3191 124.3382,-1266.4362"/>
</g>
<!-- BB_002F00F5 -->
<g id="node8" class="node">
<title>BB_002F00F5</title>
<ellipse fill="none" stroke="#000000" cx="151.984" cy="-1170.2146" rx="68.4057" ry="18"/>
<text text-anchor="middle" x="151.984" y="-1166.0146" font-family="Times,serif" font-size="14.00" fill="#000000">BB_002F00F5</text>
</g>
<!-- BB_002F00EB&#45;&gt;BB_002F00F5 -->
<g id="edge8" class="edge">
<title>BB_002F00EB-&gt;BB_002F00F5</title>
<path fill="none" stroke="#00ff00" d="M164.5961,-1296.1561C170.8607,-1286.0806 177.7652,-1273.0113 180.984,-1260.2146 184.8869,-1244.6979 184.8869,-1239.7313 180.984,-1224.2146 178.6453,-1214.917 174.361,-1205.4755 169.7901,-1197.1429"/>
<polygon fill="#00ff00" stroke="#00ff00" points="172.6696,-1195.1338 164.5961,-1188.2731 166.6291,-1198.671 172.6696,-1195.1338"/>
</g>
<!-- BB_002F00F2&#45;&gt;BB_002F00F5 -->
<g id="edge9" class="edge">
<title>BB_002F00F2-&gt;BB_002F00F5</title>
<path fill="none" stroke="#0000ff" d="M115.8491,-1224.4168C121.4454,-1216.0225 128.2361,-1205.8364 134.4134,-1196.5704"/>
<polygon fill="#0000ff" stroke="#0000ff" points="137.4541,-1198.3191 140.0889,-1188.0571 131.6297,-1194.4362 137.4541,-1198.3191"/>
</g>
<!-- BB_002F0107 -->
<g id="node9" class="node">
<title>BB_002F0107</title>
<ellipse fill="none" stroke="#000000" cx="74.984" cy="-1098.2146" rx="67.8261" ry="18"/>
<text text-anchor="middle" x="74.984" y="-1094.0146" font-family="Times,serif" font-size="14.00" fill="#000000">BB_002F0107</text>
</g>
<!-- BB_002F00F5&#45;&gt;BB_002F0107 -->
<g id="edge10" class="edge">
<title>BB_002F00F5-&gt;BB_002F0107</title>
<path fill="none" stroke="#ff0000" d="M133.3444,-1152.7854C123.6742,-1143.7432 111.7021,-1132.5484 101.123,-1122.6563"/>
<polygon fill="#ff0000" stroke="#ff0000" points="103.4135,-1120.0063 93.7188,-1115.7328 98.6325,-1125.1193 103.4135,-1120.0063"/>
</g>
<!-- BB_002F0118 -->
<g id="node10" class="node">
<title>BB_002F0118</title>
<ellipse fill="none" stroke="#000000" cx="228.984" cy="-1098.2146" rx="67.8261" ry="18"/>
<text text-anchor="middle" x="228.984" y="-1094.0146" font-family="Times,serif" font-size="14.00" fill="#000000">BB_002F0118</text>
</g>
<!-- BB_002F00F5&#45;&gt;BB_002F0118 -->
<g id="edge11" class="edge">
<title>BB_002F00F5-&gt;BB_002F0118</title>
<path fill="none" stroke="#00ff00" d="M170.6235,-1152.7854C180.2937,-1143.7432 192.2658,-1132.5484 202.845,-1122.6563"/>
<polygon fill="#00ff00" stroke="#00ff00" points="205.3354,-1125.1193 210.2492,-1115.7328 200.5544,-1120.0063 205.3354,-1125.1193"/>
</g>
<!-- BB_002F011B -->
<g id="node11" class="node">
<title>BB_002F011B</title>
<ellipse fill="none" stroke="#000000" cx="151.984" cy="-1026.2146" rx="69.5495" ry="18"/>
<text text-anchor="middle" x="151.984" y="-1022.0146" font-family="Times,serif" font-size="14.00" fill="#000000">BB_002F011B</text>
</g>
<!-- BB_002F0107&#45;&gt;BB_002F011B -->
<g id="edge12" class="edge">
<title>BB_002F0107-&gt;BB_002F011B</title>
<path fill="none" stroke="#0000ff" d="M93.6235,-1080.7854C103.2937,-1071.7432 115.2658,-1060.5484 125.845,-1050.6563"/>
<polygon fill="#0000ff" stroke="#0000ff" points="128.3354,-1053.1193 133.2492,-1043.7328 123.5544,-1048.0063 128.3354,-1053.1193"/>
</g>
<!-- BB_002F0118&#45;&gt;BB_002F011B -->
<g id="edge13" class="edge">
<title>BB_002F0118-&gt;BB_002F011B</title>
<path fill="none" stroke="#0000ff" d="M210.3444,-1080.7854C200.6742,-1071.7432 188.7021,-1060.5484 178.123,-1050.6563"/>
<polygon fill="#0000ff" stroke="#0000ff" points="180.4135,-1048.0063 170.7188,-1043.7328 175.6325,-1053.1193 180.4135,-1048.0063"/>
</g>
<!-- BB_002F0128 -->
<g id="node12" class="node">
<title>BB_002F0128</title>
<ellipse fill="none" stroke="#000000" cx="102.984" cy="-954.2146" rx="67.8261" ry="18"/>
<text text-anchor="middle" x="102.984" y="-950.0146" font-family="Times,serif" font-size="14.00" fill="#000000">BB_002F0128</text>
</g>
<!-- BB_002F011B&#45;&gt;BB_002F0128 -->
<g id="edge14" class="edge">
<title>BB_002F011B-&gt;BB_002F0128</title>
<path fill="none" stroke="#ff0000" d="M139.8716,-1008.4168C134.1588,-1000.0225 127.2266,-989.8364 120.9206,-980.5704"/>
<polygon fill="#ff0000" stroke="#ff0000" points="123.6466,-978.3551 115.1268,-972.0571 117.8596,-982.2935 123.6466,-978.3551"/>
</g>
<!-- BB_002F0181 -->
<g id="node13" class="node">
<title>BB_002F0181</title>
<ellipse fill="none" stroke="#000000" cx="285.984" cy="-378.2146" rx="67.8261" ry="18"/>
<text text-anchor="middle" x="285.984" y="-374.0146" font-family="Times,serif" font-size="14.00" fill="#000000">BB_002F0181</text>
</g>
<!-- BB_002F011B&#45;&gt;BB_002F0181 -->
<g id="edge15" class="edge">
<title>BB_002F011B-&gt;BB_002F0181</title>
<path fill="none" stroke="#00ff00" d="M189.2631,-1010.9601C234.8398,-989.5405 305.984,-945.9048 305.984,-882.2146 305.984,-882.2146 305.984,-882.2146 305.984,-522.2146 305.984,-481.527 298.0535,-434.9822 292.1803,-406.0903"/>
<polygon fill="#00ff00" stroke="#00ff00" points="295.603,-405.3586 290.128,-396.2881 288.7516,-406.7932 295.603,-405.3586"/>
</g>
<!-- BB_002F012C -->
<g id="node14" class="node">
<title>BB_002F012C</title>
<ellipse fill="none" stroke="#000000" cx="181.984" cy="-882.2146" rx="69.5495" ry="18"/>
<text text-anchor="middle" x="181.984" y="-878.0146" font-family="Times,serif" font-size="14.00" fill="#000000">BB_002F012C</text>
</g>
<!-- BB_002F0128&#45;&gt;BB_002F012C -->
<g id="edge16" class="edge">
<title>BB_002F0128-&gt;BB_002F012C</title>
<path fill="none" stroke="#ff0000" d="M122.1077,-936.7854C132.029,-927.7432 144.3121,-916.5484 155.166,-906.6563"/>
<polygon fill="#ff0000" stroke="#ff0000" points="157.7292,-909.0557 162.7626,-899.7328 153.014,-903.8821 157.7292,-909.0557"/>
</g>
<!-- BB_002F015E -->
<g id="node15" class="node">
<title>BB_002F015E</title>
<ellipse fill="none" stroke="#000000" cx="68.984" cy="-522.2146" rx="68.9679" ry="18"/>
<text text-anchor="middle" x="68.984" y="-518.0146" font-family="Times,serif" font-size="14.00" fill="#000000">BB_002F015E</text>
</g>
<!-- BB_002F0128&#45;&gt;BB_002F015E -->
<g id="edge17" class="edge">
<title>BB_002F0128-&gt;BB_002F015E</title>
<path fill="none" stroke="#00ff00" d="M85.6605,-936.3832C66.6807,-909.9416 39.984,-858.2746 39.984,-810.2146 39.984,-810.2146 39.984,-810.2146 39.984,-666.2146 39.984,-625.527 47.9144,-578.9822 56.0349,-550.0903"/>
<polygon fill="#00ff00" stroke="#00ff00" points="59.4549,-550.8741 59.0209,-540.2881 52.7587,-548.8342 59.4549,-550.8741"/>
</g>
<!-- BB_002F0185 -->
<g id="node23" class="node">
<title>BB_002F0185</title>
<ellipse fill="none" stroke="#000000" cx="351.984" cy="-306.2146" rx="67.8261" ry="18"/>
<text text-anchor="middle" x="351.984" y="-302.0146" font-family="Times,serif" font-size="14.00" fill="#000000">BB_002F0185</text>
</g>
<!-- BB_002F0181&#45;&gt;BB_002F0185 -->
<g id="edge30" class="edge">
<title>BB_002F0181-&gt;BB_002F0185</title>
<path fill="none" stroke="#ff0000" d="M302.2986,-360.4168C310.3709,-351.6106 320.2509,-340.8325 329.0683,-331.2135"/>
<polygon fill="#ff0000" stroke="#ff0000" points="331.6798,-333.5442 335.857,-323.8076 326.5197,-328.8141 331.6798,-333.5442"/>
</g>
<!-- BB_002F019D -->
<g id="node24" class="node">
<title>BB_002F019D</title>
<ellipse fill="none" stroke="#000000" cx="274.984" cy="-90.2146" rx="70.1118" ry="18"/>
<text text-anchor="middle" x="274.984" y="-86.0146" font-family="Times,serif" font-size="14.00" fill="#000000">BB_002F019D</text>
</g>
<!-- BB_002F0181&#45;&gt;BB_002F019D -->
<g id="edge31" class="edge">
<title>BB_002F0181-&gt;BB_002F019D</title>
<path fill="none" stroke="#00ff00" d="M281.2906,-359.8609C278.8768,-349.4777 276.1932,-336.2089 274.984,-324.2146 267.5458,-250.4353 270.7146,-162.9046 273.1461,-118.7407"/>
<polygon fill="#00ff00" stroke="#00ff00" points="276.6561,-118.6678 273.7415,-108.4818 269.6679,-118.2622 276.6561,-118.6678"/>
</g>
<!-- BB_002F0130 -->
<g id="node16" class="node">
<title>BB_002F0130</title>
<ellipse fill="none" stroke="#000000" cx="195.984" cy="-810.2146" rx="67.8261" ry="18"/>
<text text-anchor="middle" x="195.984" y="-806.0146" font-family="Times,serif" font-size="14.00" fill="#000000">BB_002F0130</text>
</g>
<!-- BB_002F012C&#45;&gt;BB_002F0130 -->
<g id="edge18" class="edge">
<title>BB_002F012C-&gt;BB_002F0130</title>
<path fill="none" stroke="#0000ff" d="M185.5168,-864.046C187.0141,-856.3456 188.7945,-847.1889 190.4585,-838.6312"/>
<polygon fill="#0000ff" stroke="#0000ff" points="193.9305,-839.1121 192.4036,-828.6279 187.0592,-837.776 193.9305,-839.1121"/>
</g>
<!-- BB_002F015E&#45;&gt;BB_002F0128 -->
<g id="edge26" class="edge">
<title>BB_002F015E-&gt;BB_002F0128</title>
<path fill="none" stroke="#00ff00" d="M70.659,-540.2881C67.9818,-567.4618 57.984,-620.5302 57.984,-666.2146 57.984,-810.2146 57.984,-810.2146 57.984,-810.2146 57.984,-852.967 79.1097,-898.5736 92.7317,-926.7385"/>
<polygon fill="#00ff00" stroke="#00ff00" points="89.6799,-928.467 97.1901,-935.9402 95.9794,-925.4147 89.6799,-928.467"/>
</g>
<!-- BB_002F0169 -->
<g id="node20" class="node">
<title>BB_002F0169</title>
<ellipse fill="none" stroke="#000000" cx="147.984" cy="-450.2146" rx="67.8261" ry="18"/>
<text text-anchor="middle" x="147.984" y="-446.0146" font-family="Times,serif" font-size="14.00" fill="#000000">BB_002F0169</text>
</g>
<!-- BB_002F015E&#45;&gt;BB_002F0169 -->
<g id="edge25" class="edge">
<title>BB_002F015E-&gt;BB_002F0169</title>
<path fill="none" stroke="#ff0000" d="M88.1077,-504.7854C98.029,-495.7432 110.3121,-484.5484 121.166,-474.6563"/>
<polygon fill="#ff0000" stroke="#ff0000" points="123.7292,-477.0557 128.7626,-467.7328 119.014,-471.8821 123.7292,-477.0557"/>
</g>
<!-- BB_002F0144 -->
<g id="node17" class="node">
<title>BB_002F0144</title>
<ellipse fill="none" stroke="#000000" cx="153.984" cy="-738.2146" rx="67.8261" ry="18"/>
<text text-anchor="middle" x="153.984" y="-734.0146" font-family="Times,serif" font-size="14.00" fill="#000000">BB_002F0144</text>
</g>
<!-- BB_002F0130&#45;&gt;BB_002F0144 -->
<g id="edge19" class="edge">
<title>BB_002F0130-&gt;BB_002F0144</title>
<path fill="none" stroke="#ff0000" d="M185.6019,-792.4168C180.7557,-784.109 174.8857,-774.0462 169.5256,-764.8573"/>
<polygon fill="#ff0000" stroke="#ff0000" points="172.4541,-762.9314 164.3921,-756.0571 166.4077,-766.4585 172.4541,-762.9314"/>
</g>
<!-- BB_002F014F -->
<g id="node18" class="node">
<title>BB_002F014F</title>
<ellipse fill="none" stroke="#000000" cx="181.984" cy="-666.2146" rx="68.4057" ry="18"/>
<text text-anchor="middle" x="181.984" y="-662.0146" font-family="Times,serif" font-size="14.00" fill="#000000">BB_002F014F</text>
</g>
<!-- BB_002F0130&#45;&gt;BB_002F014F -->
<g id="edge20" class="edge">
<title>BB_002F0130-&gt;BB_002F014F</title>
<path fill="none" stroke="#00ff00" d="M203.5105,-792.0608C209.9886,-782.1616 218.1187,-769.2848 221.984,-756.2146 226.5214,-740.8715 227.7466,-735.1408 221.984,-720.2146 217.9068,-709.6541 210.6993,-699.8825 203.4294,-691.6373"/>
<polygon fill="#00ff00" stroke="#00ff00" points="205.9115,-689.1667 196.5404,-684.2237 200.7837,-693.9317 205.9115,-689.1667"/>
</g>
<!-- BB_002F0144&#45;&gt;BB_002F014F -->
<g id="edge21" class="edge">
<title>BB_002F0144-&gt;BB_002F014F</title>
<path fill="none" stroke="#0000ff" d="M161.0496,-720.046C164.1571,-712.0552 167.8744,-702.4965 171.3084,-693.666"/>
<polygon fill="#0000ff" stroke="#0000ff" points="174.6551,-694.7166 175.0176,-684.128 168.1311,-692.1795 174.6551,-694.7166"/>
</g>
<!-- BB_002F014F&#45;&gt;BB_002F0130 -->
<g id="edge23" class="edge">
<title>BB_002F014F-&gt;BB_002F0130</title>
<path fill="none" stroke="#00ff00" d="M210.8202,-682.5669C222.4685,-692.2318 234.2846,-705.4524 239.984,-720.2146 245.7466,-735.1408 244.5214,-740.8715 239.984,-756.2146 236.99,-766.3387 231.4371,-776.3466 225.1698,-784.9447"/>
<polygon fill="#00ff00" stroke="#00ff00" points="222.2263,-783.0225 218.7327,-793.0248 227.7013,-787.3842 222.2263,-783.0225"/>
</g>
<!-- BB_002F0158 -->
<g id="node19" class="node">
<title>BB_002F0158</title>
<ellipse fill="none" stroke="#000000" cx="167.984" cy="-594.2146" rx="67.8261" ry="18"/>
<text text-anchor="middle" x="167.984" y="-590.0146" font-family="Times,serif" font-size="14.00" fill="#000000">BB_002F0158</text>
</g>
<!-- BB_002F014F&#45;&gt;BB_002F0158 -->
<g id="edge22" class="edge">
<title>BB_002F014F-&gt;BB_002F0158</title>
<path fill="none" stroke="#ff0000" d="M178.4512,-648.046C176.9539,-640.3456 175.1734,-631.1889 173.5094,-622.6312"/>
<polygon fill="#ff0000" stroke="#ff0000" points="176.9088,-621.776 171.5643,-612.6279 170.0374,-623.1121 176.9088,-621.776"/>
</g>
<!-- BB_002F0158&#45;&gt;BB_002F015E -->
<g id="edge24" class="edge">
<title>BB_002F0158-&gt;BB_002F015E</title>
<path fill="none" stroke="#0000ff" d="M144.5224,-577.1516C131.5481,-567.7158 115.2375,-555.8535 101.0959,-545.5687"/>
<polygon fill="#0000ff" stroke="#0000ff" points="102.7663,-542.4558 92.6203,-539.4046 98.649,-548.117 102.7663,-542.4558"/>
</g>
<!-- BB_002F0169&#45;&gt;BB_002F0181 -->
<g id="edge28" class="edge">
<title>BB_002F0169-&gt;BB_002F0181</title>
<path fill="none" stroke="#00ff00" d="M178.9539,-434.0564C198.7516,-423.7271 224.624,-410.2285 245.9718,-399.0905"/>
<polygon fill="#00ff00" stroke="#00ff00" points="247.8706,-402.0476 255.1174,-394.3189 244.6326,-395.8415 247.8706,-402.0476"/>
</g>
<!-- BB_002F016D -->
<g id="node21" class="node">
<title>BB_002F016D</title>
<ellipse fill="none" stroke="#000000" cx="147.984" cy="-306.2146" rx="70.1118" ry="18"/>
<text text-anchor="middle" x="147.984" y="-302.0146" font-family="Times,serif" font-size="14.00" fill="#000000">BB_002F016D</text>
</g>
<!-- BB_002F0169&#45;&gt;BB_002F016D -->
<g id="edge27" class="edge">
<title>BB_002F0169-&gt;BB_002F016D</title>
<path fill="none" stroke="#ff0000" d="M147.984,-431.9769C147.984,-407.4156 147.984,-363.462 147.984,-334.5687"/>
<polygon fill="#ff0000" stroke="#ff0000" points="151.4841,-334.3042 147.984,-324.3042 144.4841,-334.3043 151.4841,-334.3042"/>
</g>
<!-- end -->
<g id="node22" class="node">
<title>end</title>
<polygon fill="none" stroke="#000000" points="225.1992,-36.3225 188.7687,-36.3225 188.7687,.1079 225.1992,.1079 225.1992,-36.3225"/>
<polyline fill="none" stroke="#000000" points="200.7687,-36.3225 188.7687,-24.3225 "/>
<polyline fill="none" stroke="#000000" points="188.7687,-11.8921 200.7687,.1079 "/>
<polyline fill="none" stroke="#000000" points="213.1992,.1079 225.1992,-11.8921 "/>
<polyline fill="none" stroke="#000000" points="225.1992,-24.3225 213.1992,-36.3225 "/>
<text text-anchor="middle" x="206.984" y="-13.9073" font-family="Times,serif" font-size="14.00" fill="#000000">end</text>
</g>
<!-- BB_002F016D&#45;&gt;end -->
<g id="edge29" class="edge">
<title>BB_002F016D-&gt;end</title>
<path fill="none" stroke="#000000" d="M151.6747,-288.1922C161.6257,-239.5997 189.0717,-105.576 201.1499,-46.5961"/>
<polygon fill="#000000" stroke="#000000" points="204.6412,-46.9929 203.2186,-36.494 197.7835,-45.5885 204.6412,-46.9929"/>
</g>
<!-- BB_002F0190 -->
<g id="node25" class="node">
<title>BB_002F0190</title>
<ellipse fill="none" stroke="#000000" cx="360.984" cy="-234.2146" rx="67.8261" ry="18"/>
<text text-anchor="middle" x="360.984" y="-230.0146" font-family="Times,serif" font-size="14.00" fill="#000000">BB_002F0190</text>
</g>
<!-- BB_002F0185&#45;&gt;BB_002F0190 -->
<g id="edge32" class="edge">
<title>BB_002F0185-&gt;BB_002F0190</title>
<path fill="none" stroke="#0000ff" d="M354.255,-288.046C355.2176,-280.3456 356.3622,-271.1889 357.4319,-262.6312"/>
<polygon fill="#0000ff" stroke="#0000ff" points="360.9149,-262.9848 358.6823,-252.6279 353.9689,-262.1165 360.9149,-262.9848"/>
</g>
<!-- BB_002F019D&#45;&gt;end -->
<g id="edge37" class="edge">
<title>BB_002F019D-&gt;end</title>
<path fill="none" stroke="#000000" d="M258.175,-72.3903C249.9821,-63.7026 239.9821,-53.0985 231.0015,-43.5756"/>
<polygon fill="#000000" stroke="#000000" points="233.4791,-41.1013 224.0719,-36.2274 228.3864,-45.9039 233.4791,-41.1013"/>
</g>
<!-- BB_002F0190&#45;&gt;BB_002F019D -->
<g id="edge34" class="edge">
<title>BB_002F0190-&gt;BB_002F019D</title>
<path fill="none" stroke="#00ff00" d="M337.5801,-217.2332C325.7336,-207.5655 311.9924,-194.54 302.984,-180.2146 291.0591,-161.2514 283.8811,-136.8335 279.7832,-118.2172"/>
<polygon fill="#00ff00" stroke="#00ff00" points="283.1848,-117.3805 277.7633,-108.2779 276.325,-118.7747 283.1848,-117.3805"/>
</g>
<!-- BB_002F0195 -->
<g id="node26" class="node">
<title>BB_002F0195</title>
<ellipse fill="none" stroke="#000000" cx="379.984" cy="-162.2146" rx="67.8261" ry="18"/>
<text text-anchor="middle" x="379.984" y="-158.0146" font-family="Times,serif" font-size="14.00" fill="#000000">BB_002F0195</text>
</g>
<!-- BB_002F0190&#45;&gt;BB_002F0195 -->
<g id="edge33" class="edge">
<title>BB_002F0190-&gt;BB_002F0195</title>
<path fill="none" stroke="#ff0000" d="M359.8261,-216.046C361.156,-208.0552 363.47,-198.4965 366.1619,-189.666"/>
<polygon fill="#ff0000" stroke="#ff0000" points="369.4993,-190.7215 369.3295,-180.128 362.8561,-188.5152 369.4993,-190.7215"/>
</g>
<!-- BB_002F0195&#45;&gt;BB_002F019D -->
<g id="edge35" class="edge">
<title>BB_002F0195-&gt;BB_002F019D</title>
<path fill="none" stroke="#ff0000" d="M355.3661,-145.3338C341.3811,-135.7441 323.6776,-123.6045 308.4466,-113.1604"/>
<polygon fill="#ff0000" stroke="#ff0000" points="310.0381,-110.0079 299.8114,-107.2391 306.0793,-115.781 310.0381,-110.0079"/>
</g>
<!-- BB_002F0195&#45;&gt;BB_002F0190 -->
<g id="edge36" class="edge">
<title>BB_002F0195-&gt;BB_002F0190</title>
<path fill="none" stroke="#00ff00" d="M381.1544,-180.3077C379.823,-188.3349 377.4941,-197.9558 374.7845,-206.8337"/>
<polygon fill="#00ff00" stroke="#00ff00" points="371.4321,-205.8233 371.5963,-216.4168 378.0742,-208.0331 371.4321,-205.8233"/>
</g>
</g>
</svg>