<?xml version="1.0" encoding="UTF-8" standalone="no"?><!DOCTYPE svg PUBLIC "-//W3C//DTD SVG 1.1//EN" "http://www.w3.org/Graphics/SVG/1.1/DTD/svg11.dtd"><!-- Generated by graphviz version 2.40.1 (20161225.0304)
 --><!-- Title: G Pages: 1 --><svg xmlns="http://www.w3.org/2000/svg" xmlns:xlink="http://www.w3.org/1999/xlink" width="147pt" height="188pt" viewBox="0.00 0.00 147.03 188.21">
<g id="graph0" class="graph" transform="scale(1 1) rotate(0) translate(4 184.2146)">
<title>G</title>
<polygon fill="#ffffff" stroke="transparent" points="-4,4 -4,-184.2146 143.0302,-184.2146 143.0302,4 -4,4"/>
<!-- start -->
<g id="node1" class="node">
<title>start</title>
<polygon fill="none" stroke="#000000" points="69.5151,-180.2146 30.2778,-162.2146 69.5151,-144.2146 108.7524,-162.2146 69.5151,-180.2146"/>
<polyline fill="none" stroke="#000000" points="41.1849,-167.2182 41.1849,-157.211 "/>
<polyline fill="none" stroke="#000000" points="58.608,-149.2182 80.4222,-149.2182 "/>
<polyline fill="none" stroke="#000000" points="97.8453,-157.211 97.8453,-167.2182 "/>
<polyline fill="none" stroke="#000000" points="80.4222,-175.211 58.608,-175.211 "/>
<text text-anchor="middle" x="69.5151" y="-158.0146" font-family="Times,serif" font-size="14.00" fill="#000000">start</text>
</g>
<!-- BB_002E92E0 -->
<g id="node2" class="node">
<title>BB_002E92E0</title>
<ellipse fill="none" stroke="#000000" cx="69.5151" cy="-90.2146" rx="69.5302" ry="18"/>
<text text-anchor="middle" x="69.5151" y="-86.0146" font-family="Times,serif" font-size="14.00" fill="#000000">BB_002E92E0</text>
</g>
<!-- start&#45;&gt;BB_002E92E0 -->
<g id="edge1" class="edge">
<title>start-&gt;BB_002E92E0</title>
<path fill="none" stroke="#000000" d="M69.5151,-144.046C69.5151,-136.3456 69.5151,-127.1889 69.5151,-118.6312"/>
<polygon fill="#000000" stroke="#000000" points="73.0152,-118.6278 69.5151,-108.6279 66.0152,-118.6279 73.0152,-118.6278"/>
</g>
<!-- end -->
<g id="node3" class="node">
<title>end</title>
<polygon fill="none" stroke="#000000" points="87.7303,-36.3225 51.2999,-36.3225 51.2999,.1079 87.7303,.1079 87.7303,-36.3225"/>
<polyline fill="none" stroke="#000000" points="63.2999,-36.3225 51.2999,-24.3225 "/>
<polyline fill="none" stroke="#000000" points="51.2999,-11.8921 63.2999,.1079 "/>
<polyline fill="none" stroke="#000000" points="75.7303,.1079 87.7303,-11.8921 "/>
<polyline fill="none" stroke="#000000" points="87.7303,-24.3225 75.7303,-36.3225 "/>
<text text-anchor="middle" x="69.5151" y="-13.9073" font-family="Times,serif" font-size="14.00" fill="#000000">end</text>
</g>
<!-- BB_002E92E0&#45;&gt;end -->
<g id="edge2" class="edge">
<title>BB_002E92E0-&gt;end</title>
<path fill="none" stroke="#000000" d="M69.5151,-72.0189C69.5151,-64.2477 69.5151,-54.9956 69.5151,-46.3686"/>
<polygon fill="#000000" stroke="#000000" points="73.0152,-46.2972 69.5151,-36.2972 66.0152,-46.2972 73.0152,-46.2972"/>
</g>
</g>
</svg>