<?xml version="1.0" encoding="UTF-8" standalone="no"?><!DOCTYPE svg PUBLIC "-//W3C//DTD SVG 1.1//EN" "http://www.w3.org/Graphics/SVG/1.1/DTD/svg11.dtd"><!-- Generated by graphviz version 2.40.1 (20161225.0304)
 --><!-- Title: G Pages: 1 --><svg xmlns="http://www.w3.org/2000/svg" xmlns:xlink="http://www.w3.org/1999/xlink" width="198pt" height="332pt" viewBox="0.00 0.00 197.64 332.21">
<g id="graph0" class="graph" transform="scale(1 1) rotate(0) translate(4 328.2146)">
<title>G</title>
<polygon fill="#ffffff" stroke="transparent" points="-4,4 -4,-328.2146 193.6439,-328.2146 193.6439,4 -4,4"/>
<!-- start -->
<g id="node1" class="node">
<title>start</title>
<polygon fill="none" stroke="#000000" points="118.5161,-324.2146 79.2788,-306.2146 118.5161,-288.2146 157.7534,-306.2146 118.5161,-324.2146"/>
<polyline fill="none" stroke="#000000" points="90.1858,-311.2182 90.1858,-301.211 "/>
<polyline fill="none" stroke="#000000" points="107.609,-293.2182 129.4231,-293.2182 "/>
<polyline fill="none" stroke="#000000" points="146.8463,-301.211 146.8463,-311.2182 "/>
<polyline fill="none" stroke="#000000" points="129.4231,-319.211 107.609,-319.211 "/>
<text text-anchor="middle" x="118.5161" y="-302.0146" font-family="Times,serif" font-size="14.00" fill="#000000">start</text>
</g>
<!-- BB_002D6930 -->
<g id="node2" class="node">
<title>BB_002D6930</title>
<ellipse fill="none" stroke="#000000" cx="118.5161" cy="-234.2146" rx="69.5321" ry="18"/>
<text text-anchor="middle" x="118.5161" y="-230.0146" font-family="Times,serif" font-size="14.00" fill="#000000">BB_002D6930</text>
</g>
<!-- start&#45;&gt;BB_002D6930 -->
<g id="edge1" class="edge">
<title>start-&gt;BB_002D6930</title>
<path fill="none" stroke="#000000" d="M118.5161,-288.046C118.5161,-280.3456 118.5161,-271.1889 118.5161,-262.6312"/>
<polygon fill="#000000" stroke="#000000" points="122.0162,-262.6278 118.5161,-252.6279 115.0162,-262.6279 122.0162,-262.6278"/>
</g>
<!-- BB_002D6968 -->
<g id="node3" class="node">
<title>BB_002D6968</title>
<ellipse fill="none" stroke="#000000" cx="69.5161" cy="-162.2146" rx="69.5321" ry="18"/>
<text text-anchor="middle" x="69.5161" y="-158.0146" font-family="Times,serif" font-size="14.00" fill="#000000">BB_002D6968</text>
</g>
<!-- BB_002D6930&#45;&gt;BB_002D6968 -->
<g id="edge2" class="edge">
<title>BB_002D6930-&gt;BB_002D6968</title>
<path fill="none" stroke="#ff0000" d="M106.4037,-216.4168C100.6909,-208.0225 93.7586,-197.8364 87.4527,-188.5704"/>
<polygon fill="#ff0000" stroke="#ff0000" points="90.1787,-186.3551 81.6589,-180.0571 84.3917,-190.2935 90.1787,-186.3551"/>
</g>
<!-- BB_002D69B8 -->
<g id="node4" class="node">
<title>BB_002D69B8</title>
<ellipse fill="none" stroke="#000000" cx="118.5161" cy="-90.2146" rx="71.2559" ry="18"/>
<text text-anchor="middle" x="118.5161" y="-86.0146" font-family="Times,serif" font-size="14.00" fill="#000000">BB_002D69B8</text>
</g>
<!-- BB_002D6930&#45;&gt;BB_002D69B8 -->
<g id="edge3" class="edge">
<title>BB_002D6930-&gt;BB_002D69B8</title>
<path fill="none" stroke="#00ff00" d="M131.5583,-216.2173C138.0374,-206.1597 145.1802,-193.0879 148.5161,-180.2146 152.5295,-164.7261 152.5295,-159.7031 148.5161,-144.2146 146.0663,-134.7607 141.5634,-125.1999 136.778,-116.8044"/>
<polygon fill="#00ff00" stroke="#00ff00" points="139.7416,-114.9414 131.5583,-108.2119 133.7589,-118.5757 139.7416,-114.9414"/>
</g>
<!-- BB_002D6968&#45;&gt;BB_002D69B8 -->
<g id="edge4" class="edge">
<title>BB_002D6968-&gt;BB_002D69B8</title>
<path fill="none" stroke="#0000ff" d="M81.6284,-144.4168C87.3412,-136.0225 94.2735,-125.8364 100.5794,-116.5704"/>
<polygon fill="#0000ff" stroke="#0000ff" points="103.6404,-118.2935 106.3732,-108.0571 97.8534,-114.3551 103.6404,-118.2935"/>
</g>
<!-- end -->
<g id="node5" class="node">
<title>end</title>
<polygon fill="none" stroke="#000000" points="136.7313,-36.3225 100.3008,-36.3225 100.3008,.1079 136.7313,.1079 136.7313,-36.3225"/>
<polyline fill="none" stroke="#000000" points="112.3008,-36.3225 100.3008,-24.3225 "/>
<polyline fill="none" stroke="#000000" points="100.3008,-11.8921 112.3008,.1079 "/>
<polyline fill="none" stroke="#000000" points="124.7313,.1079 136.7313,-11.8921 "/>
<polyline fill="none" stroke="#000000" points="136.7313,-24.3225 124.7313,-36.3225 "/>
<text text-anchor="middle" x="118.5161" y="-13.9073" font-family="Times,serif" font-size="14.00" fill="#000000">end</text>
</g>
<!-- BB_002D69B8&#45;&gt;end -->
<g id="edge5" class="edge">
<title>BB_002D69B8-&gt;end</title>
<path fill="none" stroke="#000000" d="M118.5161,-72.0189C118.5161,-64.2477 118.5161,-54.9956 118.5161,-46.3686"/>
<polygon fill="#000000" stroke="#000000" points="122.0162,-46.2972 118.5161,-36.2972 115.0162,-46.2972 122.0162,-46.2972"/>
</g>
</g>
</svg>