<?xml version="1.0" encoding="UTF-8" standalone="no"?><!DOCTYPE svg PUBLIC "-//W3C//DTD SVG 1.1//EN" "http://www.w3.org/Graphics/SVG/1.1/DTD/svg11.dtd"><!-- Generated by graphviz version 2.40.1 (20161225.0304)
 --><!-- Title: G Pages: 1 --><svg xmlns="http://www.w3.org/2000/svg" xmlns:xlink="http://www.w3.org/1999/xlink" width="300pt" height="476pt" viewBox="0.00 0.00 300.44 476.21">
<g id="graph0" class="graph" transform="scale(1 1) rotate(0) translate(4 472.2146)">
<title>G</title>
<polygon fill="#ffffff" stroke="transparent" points="-4,4 -4,-472.2146 296.4368,-472.2146 296.4368,4 -4,4"/>
<!-- start -->
<g id="node1" class="node">
<title>start</title>
<polygon fill="none" stroke="#000000" points="145.984,-468.2146 106.7467,-450.2146 145.984,-432.2146 185.2213,-450.2146 145.984,-468.2146"/>
<polyline fill="none" stroke="#000000" points="117.6537,-455.2182 117.6537,-445.211 "/>
<polyline fill="none" stroke="#000000" points="135.0769,-437.2182 156.891,-437.2182 "/>
<polyline fill="none" stroke="#000000" points="174.3142,-445.211 174.3142,-455.2182 "/>
<polyline fill="none" stroke="#000000" points="156.891,-463.211 135.0769,-463.211 "/>
<text text-anchor="middle" x="145.984" y="-446.0146" font-family="Times,serif" font-size="14.00" fill="#000000">start</text>
</g>
<!-- BB_002F08C0 -->
<g id="node2" class="node">
<title>BB_002F08C0</title>
<ellipse fill="none" stroke="#000000" cx="145.984" cy="-378.2146" rx="69.5495" ry="18"/>
<text text-anchor="middle" x="145.984" y="-374.0146" font-family="Times,serif" font-size="14.00" fill="#000000">BB_002F08C0</text>
</g>
<!-- start&#45;&gt;BB_002F08C0 -->
<g id="edge1" class="edge">
<title>start-&gt;BB_002F08C0</title>
<path fill="none" stroke="#000000" d="M145.984,-432.046C145.984,-424.3456 145.984,-415.1889 145.984,-406.6312"/>
<polygon fill="#000000" stroke="#000000" points="149.4841,-406.6278 145.984,-396.6279 142.4841,-406.6279 149.4841,-406.6278"/>
</g>
<!-- BB_002F08E1 -->
<g id="node3" class="node">
<title>BB_002F08E1</title>
<ellipse fill="none" stroke="#000000" cx="68.984" cy="-306.2146" rx="68.9679" ry="18"/>
<text text-anchor="middle" x="68.984" y="-302.0146" font-family="Times,serif" font-size="14.00" fill="#000000">BB_002F08E1</text>
</g>
<!-- BB_002F08C0&#45;&gt;BB_002F08E1 -->
<g id="edge2" class="edge">
<title>BB_002F08C0-&gt;BB_002F08E1</title>
<path fill="none" stroke="#ff0000" d="M127.3444,-360.7854C117.6742,-351.7432 105.7021,-340.5484 95.123,-330.6563"/>
<polygon fill="#ff0000" stroke="#ff0000" points="97.4135,-328.0063 87.7188,-323.7328 92.6325,-333.1193 97.4135,-328.0063"/>
</g>
<!-- BB_002F08F1 -->
<g id="node4" class="node">
<title>BB_002F08F1</title>
<ellipse fill="none" stroke="#000000" cx="223.984" cy="-306.2146" rx="68.4057" ry="18"/>
<text text-anchor="middle" x="223.984" y="-302.0146" font-family="Times,serif" font-size="14.00" fill="#000000">BB_002F08F1</text>
</g>
<!-- BB_002F08C0&#45;&gt;BB_002F08F1 -->
<g id="edge3" class="edge">
<title>BB_002F08C0-&gt;BB_002F08F1</title>
<path fill="none" stroke="#00ff00" d="M164.8656,-360.7854C174.6614,-351.7432 186.789,-340.5484 197.5055,-330.6563"/>
<polygon fill="#00ff00" stroke="#00ff00" points="200.0318,-333.0875 205.0059,-323.7328 195.2838,-327.9438 200.0318,-333.0875"/>
</g>
<!-- BB_002F08FA -->
<g id="node5" class="node">
<title>BB_002F08FA</title>
<ellipse fill="none" stroke="#000000" cx="145.984" cy="-234.2146" rx="70.6916" ry="18"/>
<text text-anchor="middle" x="145.984" y="-230.0146" font-family="Times,serif" font-size="14.00" fill="#000000">BB_002F08FA</text>
</g>
<!-- BB_002F08E1&#45;&gt;BB_002F08FA -->
<g id="edge4" class="edge">
<title>BB_002F08E1-&gt;BB_002F08FA</title>
<path fill="none" stroke="#0000ff" d="M87.6235,-288.7854C97.2937,-279.7432 109.2658,-268.5484 119.845,-258.6563"/>
<polygon fill="#0000ff" stroke="#0000ff" points="122.3354,-261.1193 127.2492,-251.7328 117.5544,-256.0063 122.3354,-261.1193"/>
</g>
<!-- BB_002F08F1&#45;&gt;BB_002F08FA -->
<g id="edge5" class="edge">
<title>BB_002F08F1-&gt;BB_002F08FA</title>
<path fill="none" stroke="#0000ff" d="M205.1023,-288.7854C195.3066,-279.7432 183.179,-268.5484 172.4624,-258.6563"/>
<polygon fill="#0000ff" stroke="#0000ff" points="174.6841,-255.9438 164.9621,-251.7328 169.9361,-261.0875 174.6841,-255.9438"/>
</g>
<!-- BB_002F090F -->
<g id="node6" class="node">
<title>BB_002F090F</title>
<ellipse fill="none" stroke="#000000" cx="97.984" cy="-162.2146" rx="68.4057" ry="18"/>
<text text-anchor="middle" x="97.984" y="-158.0146" font-family="Times,serif" font-size="14.00" fill="#000000">BB_002F090F</text>
</g>
<!-- BB_002F08FA&#45;&gt;BB_002F090F -->
<g id="edge6" class="edge">
<title>BB_002F08FA-&gt;BB_002F090F</title>
<path fill="none" stroke="#ff0000" d="M134.1188,-216.4168C128.5226,-208.0225 121.7318,-197.8364 115.5545,-188.5704"/>
<polygon fill="#ff0000" stroke="#ff0000" points="118.3382,-186.4362 109.879,-180.0571 112.5139,-190.3191 118.3382,-186.4362"/>
</g>
<!-- BB_002F0916 -->
<g id="node7" class="node">
<title>BB_002F0916</title>
<ellipse fill="none" stroke="#000000" cx="145.984" cy="-90.2146" rx="67.8261" ry="18"/>
<text text-anchor="middle" x="145.984" y="-86.0146" font-family="Times,serif" font-size="14.00" fill="#000000">BB_002F0916</text>
</g>
<!-- BB_002F08FA&#45;&gt;BB_002F0916 -->
<g id="edge7" class="edge">
<title>BB_002F08FA-&gt;BB_002F0916</title>
<path fill="none" stroke="#00ff00" d="M158.5961,-216.1561C164.8607,-206.0806 171.7652,-193.0113 174.984,-180.2146 178.8869,-164.6979 178.8869,-159.7313 174.984,-144.2146 172.6453,-134.917 168.361,-125.4755 163.7901,-117.1429"/>
<polygon fill="#00ff00" stroke="#00ff00" points="166.6696,-115.1338 158.5961,-108.2731 160.6291,-118.671 166.6696,-115.1338"/>
</g>
<!-- BB_002F090F&#45;&gt;BB_002F0916 -->
<g id="edge8" class="edge">
<title>BB_002F090F-&gt;BB_002F0916</title>
<path fill="none" stroke="#0000ff" d="M109.8491,-144.4168C115.4454,-136.0225 122.2361,-125.8364 128.4134,-116.5704"/>
<polygon fill="#0000ff" stroke="#0000ff" points="131.4541,-118.3191 134.0889,-108.0571 125.6297,-114.4362 131.4541,-118.3191"/>
</g>
<!-- end -->
<g id="node8" class="node">
<title>end</title>
<polygon fill="none" stroke="#000000" points="164.1992,-36.3225 127.7687,-36.3225 127.7687,.1079 164.1992,.1079 164.1992,-36.3225"/>
<polyline fill="none" stroke="#000000" points="139.7687,-36.3225 127.7687,-24.3225 "/>
<polyline fill="none" stroke="#000000" points="127.7687,-11.8921 139.7687,.1079 "/>
<polyline fill="none" stroke="#000000" points="152.1992,.1079 164.1992,-11.8921 "/>
<polyline fill="none" stroke="#000000" points="164.1992,-24.3225 152.1992,-36.3225 "/>
<text text-anchor="middle" x="145.984" y="-13.9073" font-family="Times,serif" font-size="14.00" fill="#000000">end</text>
</g>
<!-- BB_002F0916&#45;&gt;end -->
<g id="edge9" class="edge">
<title>BB_002F0916-&gt;end</title>
<path fill="none" stroke="#000000" d="M145.984,-72.0189C145.984,-64.2477 145.984,-54.9956 145.984,-46.3686"/>
<polygon fill="#000000" stroke="#000000" points="149.4841,-46.2972 145.984,-36.2972 142.4841,-46.2972 149.4841,-46.2972"/>
</g>
</g>
</svg>