<?xml version="1.0" encoding="UTF-8" standalone="no"?><!DOCTYPE svg PUBLIC "-//W3C//DTD SVG 1.1//EN" "http://www.w3.org/Graphics/SVG/1.1/DTD/svg11.dtd"><!-- Generated by graphviz version 2.40.1 (20161225.0304)
 --><!-- Title: G Pages: 1 --><svg xmlns="http://www.w3.org/2000/svg" xmlns:xlink="http://www.w3.org/1999/xlink" width="610pt" height="1628pt" viewBox="0.00 0.00 610.09 1628.21">
<g id="graph0" class="graph" transform="scale(1 1) rotate(0) translate(4 1624.2146)">
<title>G</title>
<polygon fill="#ffffff" stroke="transparent" points="-4,4 -4,-1624.2146 606.0857,-1624.2146 606.0857,4 -4,4"/>
<!-- start -->
<g id="node1" class="node">
<title>start</title>
<polygon fill="none" stroke="#000000" points="146.9579,-1620.2146 107.7206,-1602.2146 146.9579,-1584.2146 186.1952,-1602.2146 146.9579,-1620.2146"/>
<polyline fill="none" stroke="#000000" points="118.6276,-1607.2182 118.6276,-1597.211 "/>
<polyline fill="none" stroke="#000000" points="136.0508,-1589.2182 157.865,-1589.2182 "/>
<polyline fill="none" stroke="#000000" points="175.2881,-1597.211 175.2881,-1607.2182 "/>
<polyline fill="none" stroke="#000000" points="157.865,-1615.211 136.0508,-1615.211 "/>
<text text-anchor="middle" x="146.9579" y="-1598.0146" font-family="Times,serif" font-size="14.00" fill="#000000">start</text>
</g>
<!-- BB_002D5A90 -->
<g id="node2" class="node">
<title>BB_002D5A90</title>
<ellipse fill="none" stroke="#000000" cx="146.9579" cy="-1530.2146" rx="71.8182" ry="18"/>
<text text-anchor="middle" x="146.9579" y="-1526.0146" font-family="Times,serif" font-size="14.00" fill="#000000">BB_002D5A90</text>
</g>
<!-- start&#45;&gt;BB_002D5A90 -->
<g id="edge1" class="edge">
<title>start-&gt;BB_002D5A90</title>
<path fill="none" stroke="#000000" d="M146.9579,-1584.046C146.9579,-1576.3456 146.9579,-1567.1889 146.9579,-1558.6312"/>
<polygon fill="#000000" stroke="#000000" points="150.458,-1558.6278 146.9579,-1548.6279 143.458,-1558.6279 150.458,-1558.6278"/>
</g>
<!-- BB_002D5ADB -->
<g id="node3" class="node">
<title>BB_002D5ADB</title>
<ellipse fill="none" stroke="#000000" cx="95.9579" cy="-1458.2146" rx="75.3272" ry="18"/>
<text text-anchor="middle" x="95.9579" y="-1454.0146" font-family="Times,serif" font-size="14.00" fill="#000000">BB_002D5ADB</text>
</g>
<!-- BB_002D5A90&#45;&gt;BB_002D5ADB -->
<g id="edge2" class="edge">
<title>BB_002D5A90-&gt;BB_002D5ADB</title>
<path fill="none" stroke="#ff0000" d="M134.3511,-1512.4168C128.3439,-1503.936 121.0411,-1493.6261 114.4238,-1484.2842"/>
<polygon fill="#ff0000" stroke="#ff0000" points="117.2327,-1482.1943 108.5964,-1476.0571 111.5205,-1486.2405 117.2327,-1482.1943"/>
</g>
<!-- BB_002D5B12 -->
<g id="node4" class="node">
<title>BB_002D5B12</title>
<ellipse fill="none" stroke="#000000" cx="148.9579" cy="-1242.2146" rx="71.2559" ry="18"/>
<text text-anchor="middle" x="148.9579" y="-1238.0146" font-family="Times,serif" font-size="14.00" fill="#000000">BB_002D5B12</text>
</g>
<!-- BB_002D5A90&#45;&gt;BB_002D5B12 -->
<g id="edge3" class="edge">
<title>BB_002D5A90-&gt;BB_002D5B12</title>
<path fill="none" stroke="#00ff00" d="M161.2879,-1512.4097C168.4101,-1502.4085 176.2679,-1489.3292 179.9579,-1476.2146 201.6261,-1399.2037 199.5628,-1373.5168 178.9579,-1296.2146 176.4426,-1286.778 171.9207,-1277.2221 167.1382,-1268.8258"/>
<polygon fill="#00ff00" stroke="#00ff00" points="170.1052,-1266.9685 161.9289,-1260.2307 164.1188,-1270.5967 170.1052,-1266.9685"/>
</g>
<!-- BB_002D5AF0 -->
<g id="node5" class="node">
<title>BB_002D5AF0</title>
<ellipse fill="none" stroke="#000000" cx="98.9579" cy="-1386.2146" rx="72.3981" ry="18"/>
<text text-anchor="middle" x="98.9579" y="-1382.0146" font-family="Times,serif" font-size="14.00" fill="#000000">BB_002D5AF0</text>
</g>
<!-- BB_002D5ADB&#45;&gt;BB_002D5AF0 -->
<g id="edge4" class="edge">
<title>BB_002D5ADB-&gt;BB_002D5AF0</title>
<path fill="none" stroke="#ff0000" d="M96.7149,-1440.046C97.0358,-1432.3456 97.4173,-1423.1889 97.7739,-1414.6312"/>
<polygon fill="#ff0000" stroke="#ff0000" points="101.2712,-1414.7649 98.1907,-1404.6279 94.2773,-1414.4735 101.2712,-1414.7649"/>
</g>
<!-- BB_002D5B00 -->
<g id="node6" class="node">
<title>BB_002D5B00</title>
<ellipse fill="none" stroke="#000000" cx="98.9579" cy="-1314.2146" rx="71.2559" ry="18"/>
<text text-anchor="middle" x="98.9579" y="-1310.0146" font-family="Times,serif" font-size="14.00" fill="#000000">BB_002D5B00</text>
</g>
<!-- BB_002D5ADB&#45;&gt;BB_002D5B00 -->
<g id="edge5" class="edge">
<title>BB_002D5ADB-&gt;BB_002D5B00</title>
<path fill="none" stroke="#00ff00" d="M59.037,-1442.3841C43.3814,-1433.5929 26.7484,-1420.9919 17.9579,-1404.2146 10.5322,-1390.0421 10.4082,-1382.3214 17.9579,-1368.2146 25.5465,-1354.0352 38.6849,-1342.936 52.199,-1334.5863"/>
<polygon fill="#00ff00" stroke="#00ff00" points="54.1471,-1337.5038 61.0793,-1329.4916 50.6636,-1331.432 54.1471,-1337.5038"/>
</g>
<!-- BB_002D5B27 -->
<g id="node7" class="node">
<title>BB_002D5B27</title>
<ellipse fill="none" stroke="#000000" cx="99.9579" cy="-1170.2146" rx="71.2559" ry="18"/>
<text text-anchor="middle" x="99.9579" y="-1166.0146" font-family="Times,serif" font-size="14.00" fill="#000000">BB_002D5B27</text>
</g>
<!-- BB_002D5B12&#45;&gt;BB_002D5B27 -->
<g id="edge8" class="edge">
<title>BB_002D5B12-&gt;BB_002D5B27</title>
<path fill="none" stroke="#ff0000" d="M136.8455,-1224.4168C131.1327,-1216.0225 124.2005,-1205.8364 117.8945,-1196.5704"/>
<polygon fill="#ff0000" stroke="#ff0000" points="120.6205,-1194.3551 112.1007,-1188.0571 114.8335,-1198.2935 120.6205,-1194.3551"/>
</g>
<!-- BB_002D5B37 -->
<g id="node8" class="node">
<title>BB_002D5B37</title>
<ellipse fill="none" stroke="#000000" cx="259.9579" cy="-1098.2146" rx="71.2559" ry="18"/>
<text text-anchor="middle" x="259.9579" y="-1094.0146" font-family="Times,serif" font-size="14.00" fill="#000000">BB_002D5B37</text>
</g>
<!-- BB_002D5B12&#45;&gt;BB_002D5B37 -->
<g id="edge9" class="edge">
<title>BB_002D5B12-&gt;BB_002D5B37</title>
<path fill="none" stroke="#00ff00" d="M162.7917,-1224.2681C182.257,-1199.0158 217.8366,-1152.8584 240.1173,-1123.9537"/>
<polygon fill="#00ff00" stroke="#00ff00" points="242.9654,-1125.9919 246.2984,-1115.935 237.4213,-1121.7183 242.9654,-1125.9919"/>
</g>
<!-- BB_002D5AF0&#45;&gt;BB_002D5B00 -->
<g id="edge6" class="edge">
<title>BB_002D5AF0-&gt;BB_002D5B00</title>
<path fill="none" stroke="#0000ff" d="M98.9579,-1368.046C98.9579,-1360.3456 98.9579,-1351.1889 98.9579,-1342.6312"/>
<polygon fill="#0000ff" stroke="#0000ff" points="102.458,-1342.6278 98.9579,-1332.6279 95.458,-1342.6279 102.458,-1342.6278"/>
</g>
<!-- BB_002D5B00&#45;&gt;BB_002D5B12 -->
<g id="edge7" class="edge">
<title>BB_002D5B00-&gt;BB_002D5B12</title>
<path fill="none" stroke="#0000ff" d="M111.3174,-1296.4168C117.2069,-1287.936 124.3665,-1277.6261 130.854,-1268.2842"/>
<polygon fill="#0000ff" stroke="#0000ff" points="133.738,-1270.2673 136.5672,-1260.0571 127.9884,-1266.2745 133.738,-1270.2673"/>
</g>
<!-- BB_002D5B35 -->
<g id="node9" class="node">
<title>BB_002D5B35</title>
<ellipse fill="none" stroke="#000000" cx="99.9579" cy="-1098.2146" rx="71.2559" ry="18"/>
<text text-anchor="middle" x="99.9579" y="-1094.0146" font-family="Times,serif" font-size="14.00" fill="#000000">BB_002D5B35</text>
</g>
<!-- BB_002D5B27&#45;&gt;BB_002D5B35 -->
<g id="edge10" class="edge">
<title>BB_002D5B27-&gt;BB_002D5B35</title>
<path fill="none" stroke="#ff0000" d="M99.9579,-1152.046C99.9579,-1144.3456 99.9579,-1135.1889 99.9579,-1126.6312"/>
<polygon fill="#ff0000" stroke="#ff0000" points="103.458,-1126.6278 99.9579,-1116.6279 96.458,-1126.6279 103.458,-1126.6278"/>
</g>
<!-- BB_002D5C30 -->
<g id="node10" class="node">
<title>BB_002D5C30</title>
<ellipse fill="none" stroke="#000000" cx="87.9579" cy="-90.2146" rx="71.2559" ry="18"/>
<text text-anchor="middle" x="87.9579" y="-86.0146" font-family="Times,serif" font-size="14.00" fill="#000000">BB_002D5C30</text>
</g>
<!-- BB_002D5B27&#45;&gt;BB_002D5C30 -->
<g id="edge11" class="edge">
<title>BB_002D5B27-&gt;BB_002D5C30</title>
<path fill="none" stroke="#00ff00" d="M64.9067,-1154.3558C48.8605,-1145.3712 31.0007,-1132.6167 19.9579,-1116.2146 -2.8737,-1082.3025 .9579,-1067.0962 .9579,-1026.2146 .9579,-1026.2146 .9579,-1026.2146 .9579,-234.2146 .9579,-186.8946 35.8005,-141.7962 61.386,-115.0588"/>
<polygon fill="#00ff00" stroke="#00ff00" points="64.1202,-117.2709 68.6498,-107.6932 59.136,-112.3558 64.1202,-117.2709"/>
</g>
<!-- BB_002D5B3C -->
<g id="node11" class="node">
<title>BB_002D5B3C</title>
<ellipse fill="none" stroke="#000000" cx="120.9579" cy="-1026.2146" rx="72.9799" ry="18"/>
<text text-anchor="middle" x="120.9579" y="-1022.0146" font-family="Times,serif" font-size="14.00" fill="#000000">BB_002D5B3C</text>
</g>
<!-- BB_002D5B37&#45;&gt;BB_002D5B3C -->
<g id="edge13" class="edge">
<title>BB_002D5B37-&gt;BB_002D5B3C</title>
<path fill="none" stroke="#0000ff" d="M228.4166,-1081.8767C208.6008,-1071.6124 182.8463,-1058.2719 161.5184,-1047.2243"/>
<polygon fill="#0000ff" stroke="#0000ff" points="162.8636,-1043.9795 152.3743,-1042.4879 159.644,-1050.1952 162.8636,-1043.9795"/>
</g>
<!-- BB_002D5B35&#45;&gt;BB_002D5B3C -->
<g id="edge12" class="edge">
<title>BB_002D5B35-&gt;BB_002D5B3C</title>
<path fill="none" stroke="#0000ff" d="M105.2571,-1080.046C107.5277,-1072.2609 110.2325,-1062.9875 112.7519,-1054.3493"/>
<polygon fill="#0000ff" stroke="#0000ff" points="116.1473,-1055.2079 115.5874,-1044.6279 109.4273,-1053.2478 116.1473,-1055.2079"/>
</g>
<!-- end -->
<g id="node27" class="node">
<title>end</title>
<polygon fill="none" stroke="#000000" points="106.1731,-36.3225 69.7426,-36.3225 69.7426,.1079 106.1731,.1079 106.1731,-36.3225"/>
<polyline fill="none" stroke="#000000" points="81.7426,-36.3225 69.7426,-24.3225 "/>
<polyline fill="none" stroke="#000000" points="69.7426,-11.8921 81.7426,.1079 "/>
<polyline fill="none" stroke="#000000" points="94.1731,.1079 106.1731,-11.8921 "/>
<polyline fill="none" stroke="#000000" points="106.1731,-24.3225 94.1731,-36.3225 "/>
<text text-anchor="middle" x="87.9579" y="-13.9073" font-family="Times,serif" font-size="14.00" fill="#000000">end</text>
</g>
<!-- BB_002D5C30&#45;&gt;end -->
<g id="edge38" class="edge">
<title>BB_002D5C30-&gt;end</title>
<path fill="none" stroke="#000000" d="M87.9579,-72.0189C87.9579,-64.2477 87.9579,-54.9956 87.9579,-46.3686"/>
<polygon fill="#000000" stroke="#000000" points="91.458,-46.2972 87.9579,-36.2972 84.458,-46.2972 91.458,-46.2972"/>
</g>
<!-- BB_002D5B42 -->
<g id="node12" class="node">
<title>BB_002D5B42</title>
<ellipse fill="none" stroke="#000000" cx="139.9579" cy="-954.2146" rx="71.2559" ry="18"/>
<text text-anchor="middle" x="139.9579" y="-950.0146" font-family="Times,serif" font-size="14.00" fill="#000000">BB_002D5B42</text>
</g>
<!-- BB_002D5B3C&#45;&gt;BB_002D5B42 -->
<g id="edge14" class="edge">
<title>BB_002D5B3C-&gt;BB_002D5B42</title>
<path fill="none" stroke="#ff0000" d="M125.7524,-1008.046C127.8068,-1000.2609 130.2539,-990.9875 132.5334,-982.3493"/>
<polygon fill="#ff0000" stroke="#ff0000" points="135.9314,-983.1899 135.0988,-972.6279 129.1631,-981.4038 135.9314,-983.1899"/>
</g>
<!-- BB_002D5B55 -->
<g id="node13" class="node">
<title>BB_002D5B55</title>
<ellipse fill="none" stroke="#000000" cx="119.9579" cy="-810.2146" rx="71.2559" ry="18"/>
<text text-anchor="middle" x="119.9579" y="-806.0146" font-family="Times,serif" font-size="14.00" fill="#000000">BB_002D5B55</text>
</g>
<!-- BB_002D5B3C&#45;&gt;BB_002D5B55 -->
<g id="edge15" class="edge">
<title>BB_002D5B3C-&gt;BB_002D5B55</title>
<path fill="none" stroke="#00ff00" d="M93.3663,-1009.4736C80.7626,-1000.2046 67.0809,-987.4641 59.9579,-972.2146 39.6405,-928.7176 38.0701,-907.9097 57.9579,-864.2146 63.5103,-852.0155 73.3307,-841.5006 83.5413,-833.0755"/>
<polygon fill="#00ff00" stroke="#00ff00" points="85.9436,-835.6435 91.7395,-826.7745 81.6779,-830.0933 85.9436,-835.6435"/>
</g>
<!-- BB_002D5B4C -->
<g id="node14" class="node">
<title>BB_002D5B4C</title>
<ellipse fill="none" stroke="#000000" cx="139.9579" cy="-882.2146" rx="72.9799" ry="18"/>
<text text-anchor="middle" x="139.9579" y="-878.0146" font-family="Times,serif" font-size="14.00" fill="#000000">BB_002D5B4C</text>
</g>
<!-- BB_002D5B42&#45;&gt;BB_002D5B4C -->
<g id="edge16" class="edge">
<title>BB_002D5B42-&gt;BB_002D5B4C</title>
<path fill="none" stroke="#ff0000" d="M139.9579,-936.046C139.9579,-928.3456 139.9579,-919.1889 139.9579,-910.6312"/>
<polygon fill="#ff0000" stroke="#ff0000" points="143.458,-910.6278 139.9579,-900.6279 136.458,-910.6279 143.458,-910.6278"/>
</g>
<!-- BB_002D5B5D -->
<g id="node15" class="node">
<title>BB_002D5B5D</title>
<ellipse fill="none" stroke="#000000" cx="204.9579" cy="-738.2146" rx="73.0421" ry="18"/>
<text text-anchor="middle" x="204.9579" y="-734.0146" font-family="Times,serif" font-size="14.00" fill="#000000">BB_002D5B5D</text>
</g>
<!-- BB_002D5B42&#45;&gt;BB_002D5B5D -->
<g id="edge17" class="edge">
<title>BB_002D5B42-&gt;BB_002D5B5D</title>
<path fill="none" stroke="#00ff00" d="M178.2914,-939.0467C194.8629,-930.3409 212.5786,-917.6216 221.9579,-900.2146 244.8124,-857.799 229.7166,-800.0867 217.0615,-766.2255"/>
<polygon fill="#00ff00" stroke="#00ff00" points="220.1669,-764.5575 213.2571,-756.526 213.6502,-767.1135 220.1669,-764.5575"/>
</g>
<!-- BB_002D5B55&#45;&gt;BB_002D5C30 -->
<g id="edge20" class="edge">
<title>BB_002D5B55-&gt;BB_002D5C30</title>
<path fill="none" stroke="#00ff00" d="M109.1421,-792.2983C94.1715,-765.751 68.9579,-713.9535 68.9579,-666.2146 68.9579,-666.2146 68.9579,-666.2146 68.9579,-234.2146 68.9579,-193.7428 76.4259,-147.4183 81.9979,-118.4871"/>
<polygon fill="#00ff00" stroke="#00ff00" points="85.5062,-118.7892 84.0211,-108.299 78.6402,-117.4257 85.5062,-118.7892"/>
</g>
<!-- BB_002D5B55&#45;&gt;BB_002D5B5D -->
<g id="edge19" class="edge">
<title>BB_002D5B55-&gt;BB_002D5B5D</title>
<path fill="none" stroke="#ff0000" d="M140.534,-792.7854C151.3125,-783.6554 164.6817,-772.3309 176.4428,-762.3685"/>
<polygon fill="#ff0000" stroke="#ff0000" points="178.9084,-764.867 184.2766,-755.7328 174.3839,-759.5257 178.9084,-764.867"/>
</g>
<!-- BB_002D5B4C&#45;&gt;BB_002D5B55 -->
<g id="edge18" class="edge">
<title>BB_002D5B4C-&gt;BB_002D5B55</title>
<path fill="none" stroke="#0000ff" d="M134.911,-864.046C132.7485,-856.2609 130.1726,-846.9875 127.7731,-838.3493"/>
<polygon fill="#0000ff" stroke="#0000ff" points="131.1215,-837.3263 125.0727,-828.6279 124.3769,-839.1998 131.1215,-837.3263"/>
</g>
<!-- BB_002D5B64 -->
<g id="node16" class="node">
<title>BB_002D5B64</title>
<ellipse fill="none" stroke="#000000" cx="167.9579" cy="-450.2146" rx="71.2559" ry="18"/>
<text text-anchor="middle" x="167.9579" y="-446.0146" font-family="Times,serif" font-size="14.00" fill="#000000">BB_002D5B64</text>
</g>
<!-- BB_002D5B5D&#45;&gt;BB_002D5B64 -->
<g id="edge21" class="edge">
<title>BB_002D5B5D-&gt;BB_002D5B64</title>
<path fill="none" stroke="#ff0000" d="M197.6738,-720.0199C193.8479,-709.6865 189.4485,-696.4144 186.9579,-684.2146 172.0073,-610.9819 168.7264,-522.5951 168.068,-478.3423"/>
<polygon fill="#ff0000" stroke="#ff0000" points="171.5677,-478.2888 167.9536,-468.3295 164.5682,-478.3688 171.5677,-478.2888"/>
</g>
<!-- BB_002D5B6B -->
<g id="node17" class="node">
<title>BB_002D5B6B</title>
<ellipse fill="none" stroke="#000000" cx="268.9579" cy="-666.2146" rx="72.9799" ry="18"/>
<text text-anchor="middle" x="268.9579" y="-662.0146" font-family="Times,serif" font-size="14.00" fill="#000000">BB_002D5B6B</text>
</g>
<!-- BB_002D5B5D&#45;&gt;BB_002D5B6B -->
<g id="edge22" class="edge">
<title>BB_002D5B5D-&gt;BB_002D5B6B</title>
<path fill="none" stroke="#00ff00" d="M220.7781,-720.4168C228.5284,-711.6978 237.9969,-701.0457 246.4824,-691.4995"/>
<polygon fill="#00ff00" stroke="#00ff00" points="249.2919,-693.607 253.3196,-683.8076 244.06,-688.9565 249.2919,-693.607"/>
</g>
<!-- BB_002D5B64&#45;&gt;BB_002D5C30 -->
<g id="edge23" class="edge">
<title>BB_002D5B64-&gt;BB_002D5C30</title>
<path fill="none" stroke="#0000ff" d="M154.7218,-432.1591C136.7812,-405.8528 106.9579,-354.8141 106.9579,-306.2146 106.9579,-306.2146 106.9579,-306.2146 106.9579,-234.2146 106.9579,-193.7428 99.4899,-147.4183 93.9179,-118.4871"/>
<polygon fill="#0000ff" stroke="#0000ff" points="97.2755,-117.4257 91.8947,-108.299 90.4096,-118.7892 97.2755,-117.4257"/>
</g>
<!-- BB_002D5B82 -->
<g id="node18" class="node">
<title>BB_002D5B82</title>
<ellipse fill="none" stroke="#000000" cx="368.9579" cy="-594.2146" rx="71.2559" ry="18"/>
<text text-anchor="middle" x="368.9579" y="-590.0146" font-family="Times,serif" font-size="14.00" fill="#000000">BB_002D5B82</text>
</g>
<!-- BB_002D5B6B&#45;&gt;BB_002D5B82 -->
<g id="edge24" class="edge">
<title>BB_002D5B6B-&gt;BB_002D5B82</title>
<path fill="none" stroke="#ff0000" d="M292.6565,-649.1516C305.8854,-639.6268 322.5483,-627.6295 336.9253,-617.2781"/>
<polygon fill="#ff0000" stroke="#ff0000" points="339.0126,-620.0881 345.0828,-611.4046 334.9224,-614.4073 339.0126,-620.0881"/>
</g>
<!-- BB_002D5BEC -->
<g id="node19" class="node">
<title>BB_002D5BEC</title>
<ellipse fill="none" stroke="#000000" cx="266.9579" cy="-378.2146" rx="73.6215" ry="18"/>
<text text-anchor="middle" x="266.9579" y="-374.0146" font-family="Times,serif" font-size="14.00" fill="#000000">BB_002D5BEC</text>
</g>
<!-- BB_002D5B6B&#45;&gt;BB_002D5BEC -->
<g id="edge25" class="edge">
<title>BB_002D5B6B-&gt;BB_002D5BEC</title>
<path fill="none" stroke="#00ff00" d="M268.8328,-648.1989C268.4947,-599.5085 267.5606,-465.0107 267.1527,-406.2719"/>
<polygon fill="#00ff00" stroke="#00ff00" points="270.6524,-406.1989 267.0829,-396.2235 263.6526,-406.2476 270.6524,-406.1989"/>
</g>
<!-- BB_002D5B8C -->
<g id="node20" class="node">
<title>BB_002D5B8C</title>
<ellipse fill="none" stroke="#000000" cx="368.9579" cy="-522.2146" rx="72.9799" ry="18"/>
<text text-anchor="middle" x="368.9579" y="-518.0146" font-family="Times,serif" font-size="14.00" fill="#000000">BB_002D5B8C</text>
</g>
<!-- BB_002D5B82&#45;&gt;BB_002D5B8C -->
<g id="edge26" class="edge">
<title>BB_002D5B82-&gt;BB_002D5B8C</title>
<path fill="none" stroke="#ff0000" d="M368.9579,-576.046C368.9579,-568.3456 368.9579,-559.1889 368.9579,-550.6312"/>
<polygon fill="#ff0000" stroke="#ff0000" points="372.458,-550.6278 368.9579,-540.6279 365.458,-550.6279 372.458,-550.6278"/>
</g>
<!-- BB_002D5B98 -->
<g id="node21" class="node">
<title>BB_002D5B98</title>
<ellipse fill="none" stroke="#000000" cx="530.9579" cy="-522.2146" rx="71.2559" ry="18"/>
<text text-anchor="middle" x="530.9579" y="-518.0146" font-family="Times,serif" font-size="14.00" fill="#000000">BB_002D5B98</text>
</g>
<!-- BB_002D5B82&#45;&gt;BB_002D5B98 -->
<g id="edge27" class="edge">
<title>BB_002D5B82-&gt;BB_002D5B98</title>
<path fill="none" stroke="#00ff00" d="M404.5095,-578.4139C428.5656,-567.7223 460.5293,-553.5162 486.3008,-542.0622"/>
<polygon fill="#00ff00" stroke="#00ff00" points="487.7726,-545.2382 495.4892,-537.9784 484.9296,-538.8415 487.7726,-545.2382"/>
</g>
<!-- BB_002D5BEE -->
<g id="node24" class="node">
<title>BB_002D5BEE</title>
<ellipse fill="none" stroke="#000000" cx="276.9579" cy="-306.2146" rx="73.0402" ry="18"/>
<text text-anchor="middle" x="276.9579" y="-302.0146" font-family="Times,serif" font-size="14.00" fill="#000000">BB_002D5BEE</text>
</g>
<!-- BB_002D5BEC&#45;&gt;BB_002D5BEE -->
<g id="edge33" class="edge">
<title>BB_002D5BEC-&gt;BB_002D5BEE</title>
<path fill="none" stroke="#0000ff" d="M269.4813,-360.046C270.5508,-352.3456 271.8226,-343.1889 273.0111,-334.6312"/>
<polygon fill="#0000ff" stroke="#0000ff" points="276.4914,-335.0143 274.4005,-324.6279 269.558,-334.0513 276.4914,-335.0143"/>
</g>
<!-- BB_002D5B93 -->
<g id="node22" class="node">
<title>BB_002D5B93</title>
<ellipse fill="none" stroke="#000000" cx="431.9579" cy="-450.2146" rx="71.2559" ry="18"/>
<text text-anchor="middle" x="431.9579" y="-446.0146" font-family="Times,serif" font-size="14.00" fill="#000000">BB_002D5B93</text>
</g>
<!-- BB_002D5B8C&#45;&gt;BB_002D5B93 -->
<g id="edge28" class="edge">
<title>BB_002D5B8C-&gt;BB_002D5B93</title>
<path fill="none" stroke="#ff0000" d="M384.5309,-504.4168C392.1601,-495.6978 401.4807,-485.0457 409.8336,-475.4995"/>
<polygon fill="#ff0000" stroke="#ff0000" points="412.6129,-477.6382 416.564,-467.8076 407.3449,-473.0286 412.6129,-477.6382"/>
</g>
<!-- BB_002D5B9D -->
<g id="node23" class="node">
<title>BB_002D5B9D</title>
<ellipse fill="none" stroke="#000000" cx="431.9579" cy="-378.2146" rx="73.0421" ry="18"/>
<text text-anchor="middle" x="431.9579" y="-374.0146" font-family="Times,serif" font-size="14.00" fill="#000000">BB_002D5B9D</text>
</g>
<!-- BB_002D5B8C&#45;&gt;BB_002D5B9D -->
<g id="edge29" class="edge">
<title>BB_002D5B8C-&gt;BB_002D5B9D</title>
<path fill="none" stroke="#00ff00" d="M359.0412,-504.2732C350.0117,-485.3306 339.7935,-455.1019 351.9579,-432.2146 359.3768,-418.256 372.1914,-407.252 385.4175,-398.9207"/>
<polygon fill="#00ff00" stroke="#00ff00" points="387.2548,-401.9008 394.1159,-393.8276 383.7178,-395.8601 387.2548,-401.9008"/>
</g>
<!-- BB_002D5B98&#45;&gt;BB_002D5B9D -->
<g id="edge31" class="edge">
<title>BB_002D5B98-&gt;BB_002D5B9D</title>
<path fill="none" stroke="#0000ff" d="M531.0271,-504.1158C530.2683,-484.7654 526.5843,-453.9395 511.9579,-432.2146 502.8993,-418.7597 489.2535,-407.7594 475.7846,-399.2811"/>
<polygon fill="#0000ff" stroke="#0000ff" points="477.395,-396.167 467.0091,-394.0734 473.8226,-402.1868 477.395,-396.167"/>
</g>
<!-- BB_002D5B93&#45;&gt;BB_002D5B9D -->
<g id="edge30" class="edge">
<title>BB_002D5B93-&gt;BB_002D5B9D</title>
<path fill="none" stroke="#0000ff" d="M431.9579,-432.046C431.9579,-424.3456 431.9579,-415.1889 431.9579,-406.6312"/>
<polygon fill="#0000ff" stroke="#0000ff" points="435.458,-406.6278 431.9579,-396.6279 428.458,-406.6279 435.458,-406.6278"/>
</g>
<!-- BB_002D5B9D&#45;&gt;BB_002D5BEE -->
<g id="edge32" class="edge">
<title>BB_002D5B9D-&gt;BB_002D5BEE</title>
<path fill="none" stroke="#0000ff" d="M397.5584,-362.2355C374.8823,-351.7021 344.988,-337.8157 320.6361,-326.5038"/>
<polygon fill="#0000ff" stroke="#0000ff" points="321.8051,-323.1877 311.2613,-322.1491 318.856,-329.5362 321.8051,-323.1877"/>
</g>
<!-- BB_002D5BFA -->
<g id="node25" class="node">
<title>BB_002D5BFA</title>
<ellipse fill="none" stroke="#000000" cx="296.9579" cy="-234.2146" rx="73.6215" ry="18"/>
<text text-anchor="middle" x="296.9579" y="-230.0146" font-family="Times,serif" font-size="14.00" fill="#000000">BB_002D5BFA</text>
</g>
<!-- BB_002D5BEE&#45;&gt;BB_002D5BFA -->
<g id="edge34" class="edge">
<title>BB_002D5BEE-&gt;BB_002D5BFA</title>
<path fill="none" stroke="#ff0000" d="M282.0047,-288.046C284.1672,-280.2609 286.7432,-270.9875 289.1427,-262.3493"/>
<polygon fill="#ff0000" stroke="#ff0000" points="292.5389,-263.1998 291.8431,-252.6279 285.7943,-261.3263 292.5389,-263.1998"/>
</g>
<!-- BB_002D5C08 -->
<g id="node26" class="node">
<title>BB_002D5C08</title>
<ellipse fill="none" stroke="#000000" cx="205.9579" cy="-162.2146" rx="71.2559" ry="18"/>
<text text-anchor="middle" x="205.9579" y="-158.0146" font-family="Times,serif" font-size="14.00" fill="#000000">BB_002D5C08</text>
</g>
<!-- BB_002D5BEE&#45;&gt;BB_002D5C08 -->
<g id="edge35" class="edge">
<title>BB_002D5BEE-&gt;BB_002D5C08</title>
<path fill="none" stroke="#00ff00" d="M248.8824,-289.4668C235.9689,-280.1961 221.8041,-267.4561 213.9579,-252.2146 204.1748,-233.2107 202.5396,-208.9399 203.1502,-190.3927"/>
<polygon fill="#00ff00" stroke="#00ff00" points="206.6554,-190.3983 203.7246,-180.2169 199.6665,-190.0037 206.6554,-190.3983"/>
</g>
<!-- BB_002D5BFA&#45;&gt;BB_002D5C08 -->
<g id="edge36" class="edge">
<title>BB_002D5BFA-&gt;BB_002D5C08</title>
<path fill="none" stroke="#0000ff" d="M274.9293,-216.7854C263.1927,-207.4993 248.5869,-195.9431 235.8416,-185.8588"/>
<polygon fill="#0000ff" stroke="#0000ff" points="237.7975,-182.9434 227.7836,-179.4833 233.4541,-188.4329 237.7975,-182.9434"/>
</g>
<!-- BB_002D5C08&#45;&gt;BB_002D5C30 -->
<g id="edge37" class="edge">
<title>BB_002D5C08-&gt;BB_002D5C30</title>
<path fill="none" stroke="#0000ff" d="M178.5897,-145.5154C162.4722,-135.6809 141.8833,-123.1182 124.4036,-112.4526"/>
<polygon fill="#0000ff" stroke="#0000ff" points="125.9458,-109.2936 115.5864,-107.0727 122.2998,-115.2691 125.9458,-109.2936"/>
</g>
</g>
</svg>