<?xml version="1.0" encoding="UTF-8" standalone="no"?><!DOCTYPE svg PUBLIC "-//W3C//DTD SVG 1.1//EN" "http://www.w3.org/Graphics/SVG/1.1/DTD/svg11.dtd"><!-- Generated by graphviz version 2.40.1 (20161225.0304)
 --><!-- Title: G Pages: 1 --><svg xmlns="http://www.w3.org/2000/svg" xmlns:xlink="http://www.w3.org/1999/xlink" width="864pt" height="2238pt" viewBox="0.00 0.00 863.79 2237.86">
<g id="graph0" class="graph" transform="scale(1 1) rotate(0) translate(4 2233.8584)">
<title>G</title>
<polygon fill="#ffffff" stroke="transparent" points="-4,4 -4,-2233.8584 859.7868,-2233.8584 859.7868,4 -4,4"/>
<!-- start -->
<g id="node1" class="node">
<title>start</title>
<polygon fill="none" stroke="#000000" points="435.1278,-2229.8584 395.8905,-2211.8584 435.1278,-2193.8584 474.3651,-2211.8584 435.1278,-2229.8584"/>
<polyline fill="none" stroke="#000000" points="406.7976,-2216.862 406.7976,-2206.8548 "/>
<polyline fill="none" stroke="#000000" points="424.2207,-2198.862 446.0349,-2198.862 "/>
<polyline fill="none" stroke="#000000" points="463.4581,-2206.8548 463.4581,-2216.862 "/>
<polyline fill="none" stroke="#000000" points="446.0349,-2224.8548 424.2207,-2224.8548 "/>
<text text-anchor="middle" x="435.1278" y="-2207.6584" font-family="Times,serif" font-size="14.00" fill="#000000">start</text>
</g>
<!-- BB_002D26D0 -->
<g id="node2" class="node">
<title>BB_002D26D0</title>
<ellipse fill="none" stroke="#000000" cx="435.1278" cy="-2139.8584" rx="71.8182" ry="18"/>
<text text-anchor="middle" x="435.1278" y="-2135.6584" font-family="Times,serif" font-size="14.00" fill="#000000">BB_002D26D0</text>
</g>
<!-- start&#45;&gt;BB_002D26D0 -->
<g id="edge1" class="edge">
<title>start-&gt;BB_002D26D0</title>
<path fill="none" stroke="#000000" d="M435.1278,-2193.6898C435.1278,-2185.9894 435.1278,-2176.8327 435.1278,-2168.275"/>
<polygon fill="#000000" stroke="#000000" points="438.6279,-2168.2716 435.1278,-2158.2717 431.6279,-2168.2717 438.6279,-2168.2716"/>
</g>
<!-- BB_002D2706 -->
<g id="node3" class="node">
<title>BB_002D2706</title>
<ellipse fill="none" stroke="#000000" cx="435.1278" cy="-2067.8584" rx="69.5321" ry="18"/>
<text text-anchor="middle" x="435.1278" y="-2063.6584" font-family="Times,serif" font-size="14.00" fill="#000000">BB_002D2706</text>
</g>
<!-- BB_002D26D0&#45;&gt;BB_002D2706 -->
<g id="edge2" class="edge">
<title>BB_002D26D0-&gt;BB_002D2706</title>
<path fill="none" stroke="#0000ff" d="M435.1278,-2121.6898C435.1278,-2113.9894 435.1278,-2104.8327 435.1278,-2096.275"/>
<polygon fill="#0000ff" stroke="#0000ff" points="438.6279,-2096.2716 435.1278,-2086.2717 431.6279,-2096.2717 438.6279,-2096.2716"/>
</g>
<!-- BB_002D2706&#45;&gt;BB_002D2706 -->
<g id="edge4" class="edge">
<title>BB_002D2706-&gt;BB_002D2706</title>
<path fill="none" stroke="#00ff00" d="M482.3935,-2081.1203C503.9262,-2082.4743 522.6439,-2078.0537 522.6439,-2067.8584 522.6439,-2059.3358 509.5641,-2054.8484 492.6941,-2054.3964"/>
<polygon fill="#00ff00" stroke="#00ff00" points="492.3236,-2050.9028 482.3935,-2054.5965 492.4596,-2057.9015 492.3236,-2050.9028"/>
</g>
<!-- BB_002D270D -->
<g id="node4" class="node">
<title>BB_002D270D</title>
<ellipse fill="none" stroke="#000000" cx="435.1278" cy="-1995.8584" rx="71.8182" ry="18"/>
<text text-anchor="middle" x="435.1278" y="-1991.6584" font-family="Times,serif" font-size="14.00" fill="#000000">BB_002D270D</text>
</g>
<!-- BB_002D2706&#45;&gt;BB_002D270D -->
<g id="edge3" class="edge">
<title>BB_002D2706-&gt;BB_002D270D</title>
<path fill="none" stroke="#ff0000" d="M435.1278,-2049.6898C435.1278,-2041.9894 435.1278,-2032.8327 435.1278,-2024.275"/>
<polygon fill="#ff0000" stroke="#ff0000" points="438.6279,-2024.2716 435.1278,-2014.2717 431.6279,-2024.2717 438.6279,-2024.2716"/>
</g>
<!-- BB_002D2726 -->
<g id="node5" class="node">
<title>BB_002D2726</title>
<ellipse fill="none" stroke="#000000" cx="367.1278" cy="-1923.8584" rx="69.5321" ry="18"/>
<text text-anchor="middle" x="367.1278" y="-1919.6584" font-family="Times,serif" font-size="14.00" fill="#000000">BB_002D2726</text>
</g>
<!-- BB_002D270D&#45;&gt;BB_002D2726 -->
<g id="edge5" class="edge">
<title>BB_002D270D-&gt;BB_002D2726</title>
<path fill="none" stroke="#ff0000" d="M418.3188,-1978.0606C410.0018,-1969.2544 399.8224,-1958.4763 390.7379,-1948.8573"/>
<polygon fill="#ff0000" stroke="#ff0000" points="393.1543,-1946.3184 383.7434,-1941.4514 388.0652,-1951.1248 393.1543,-1946.3184"/>
</g>
<!-- BB_002D273C -->
<g id="node6" class="node">
<title>BB_002D273C</title>
<ellipse fill="none" stroke="#000000" cx="409.1278" cy="-1563.8584" rx="71.2559" ry="18"/>
<text text-anchor="middle" x="409.1278" y="-1559.6584" font-family="Times,serif" font-size="14.00" fill="#000000">BB_002D273C</text>
</g>
<!-- BB_002D270D&#45;&gt;BB_002D273C -->
<g id="edge6" class="edge">
<title>BB_002D270D-&gt;BB_002D273C</title>
<path fill="none" stroke="#00ff00" d="M445.7315,-1977.9147C460.4086,-1951.3334 485.1278,-1899.4939 485.1278,-1851.8584 485.1278,-1851.8584 485.1278,-1851.8584 485.1278,-1707.8584 485.1278,-1662.002 454.6112,-1616.4401 432.2528,-1589.2124"/>
<polygon fill="#00ff00" stroke="#00ff00" points="434.7496,-1586.7447 425.6187,-1581.371 429.4056,-1591.2659 434.7496,-1586.7447"/>
</g>
<!-- BB_002D2728 -->
<g id="node7" class="node">
<title>BB_002D2728</title>
<ellipse fill="none" stroke="#000000" cx="367.1278" cy="-1851.8584" rx="69.5321" ry="18"/>
<text text-anchor="middle" x="367.1278" y="-1847.6584" font-family="Times,serif" font-size="14.00" fill="#000000">BB_002D2728</text>
</g>
<!-- BB_002D2726&#45;&gt;BB_002D2728 -->
<g id="edge7" class="edge">
<title>BB_002D2726-&gt;BB_002D2728</title>
<path fill="none" stroke="#ff0000" d="M367.1278,-1905.6898C367.1278,-1897.9894 367.1278,-1888.8327 367.1278,-1880.275"/>
<polygon fill="#ff0000" stroke="#ff0000" points="370.6279,-1880.2716 367.1278,-1870.2717 363.6279,-1880.2717 370.6279,-1880.2716"/>
</g>
<!-- BB_002D2736 -->
<g id="node8" class="node">
<title>BB_002D2736</title>
<ellipse fill="none" stroke="#000000" cx="232.1278" cy="-1563.8584" rx="69.5321" ry="18"/>
<text text-anchor="middle" x="232.1278" y="-1559.6584" font-family="Times,serif" font-size="14.00" fill="#000000">BB_002D2736</text>
</g>
<!-- BB_002D2726&#45;&gt;BB_002D2736 -->
<g id="edge8" class="edge">
<title>BB_002D2726-&gt;BB_002D2736</title>
<path fill="none" stroke="#00ff00" d="M318.6781,-1910.6693C261.7997,-1891.8936 175.1278,-1851.5251 175.1278,-1779.8584 175.1278,-1779.8584 175.1278,-1779.8584 175.1278,-1707.8584 175.1278,-1664.3766 197.8744,-1618.3659 214.6289,-1590.3734"/>
<polygon fill="#00ff00" stroke="#00ff00" points="217.769,-1591.9494 220.0396,-1581.6007 211.811,-1588.2747 217.769,-1591.9494"/>
</g>
<!-- BB_002D274A -->
<g id="node12" class="node">
<title>BB_002D274A</title>
<ellipse fill="none" stroke="#000000" cx="311.1278" cy="-1491.8584" rx="71.8182" ry="18"/>
<text text-anchor="middle" x="311.1278" y="-1487.6584" font-family="Times,serif" font-size="14.00" fill="#000000">BB_002D274A</text>
</g>
<!-- BB_002D273C&#45;&gt;BB_002D274A -->
<g id="edge18" class="edge">
<title>BB_002D273C-&gt;BB_002D274A</title>
<path fill="none" stroke="#0000ff" d="M385.9032,-1546.7954C373.06,-1537.3596 356.9141,-1525.4973 342.9154,-1515.2125"/>
<polygon fill="#0000ff" stroke="#0000ff" points="344.6565,-1512.1486 334.5254,-1509.0484 340.5119,-1517.7898 344.6565,-1512.1486"/>
</g>
<!-- BB_002D2728&#45;&gt;BB_002D273C -->
<g id="edge10" class="edge">
<title>BB_002D2728-&gt;BB_002D273C</title>
<path fill="none" stroke="#00ff00" d="M394.9019,-1835.2011C407.5505,-1825.9527 421.2172,-1813.2053 428.1278,-1797.8584 459.2443,-1728.7553 435.1366,-1636.5899 419.6103,-1591.3179"/>
<polygon fill="#00ff00" stroke="#00ff00" points="422.9045,-1590.1353 416.2623,-1581.8811 416.3074,-1592.4758 422.9045,-1590.1353"/>
</g>
<!-- BB_002D272C -->
<g id="node9" class="node">
<title>BB_002D272C</title>
<ellipse fill="none" stroke="#000000" cx="348.1278" cy="-1779.8584" rx="71.2559" ry="18"/>
<text text-anchor="middle" x="348.1278" y="-1775.6584" font-family="Times,serif" font-size="14.00" fill="#000000">BB_002D272C</text>
</g>
<!-- BB_002D2728&#45;&gt;BB_002D272C -->
<g id="edge9" class="edge">
<title>BB_002D2728-&gt;BB_002D272C</title>
<path fill="none" stroke="#ff0000" d="M362.3333,-1833.6898C360.2789,-1825.9047 357.8318,-1816.6313 355.5523,-1807.9931"/>
<polygon fill="#ff0000" stroke="#ff0000" points="358.9226,-1807.0476 352.9869,-1798.2717 352.1543,-1808.8337 358.9226,-1807.0476"/>
</g>
<!-- BB_002D2736&#45;&gt;BB_002D274A -->
<g id="edge17" class="edge">
<title>BB_002D2736-&gt;BB_002D274A</title>
<path fill="none" stroke="#0000ff" d="M251.2515,-1546.4292C261.1729,-1537.387 273.456,-1526.1922 284.3099,-1516.3001"/>
<polygon fill="#0000ff" stroke="#0000ff" points="286.8731,-1518.6995 291.9064,-1509.3766 282.1578,-1513.5259 286.8731,-1518.6995"/>
</g>
<!-- BB_002D272C&#45;&gt;BB_002D273C -->
<g id="edge12" class="edge">
<title>BB_002D272C-&gt;BB_002D273C</title>
<path fill="none" stroke="#00ff00" d="M366.0874,-1761.982C374.8375,-1752.1587 384.6338,-1739.2662 390.1278,-1725.8584 408.1671,-1681.8349 410.7121,-1625.8209 410.3304,-1592.5157"/>
<polygon fill="#00ff00" stroke="#00ff00" points="413.8216,-1592.0639 410.1069,-1582.1416 406.8232,-1592.2147 413.8216,-1592.0639"/>
</g>
<!-- BB_002D2730 -->
<g id="node10" class="node">
<title>BB_002D2730</title>
<ellipse fill="none" stroke="#000000" cx="311.1278" cy="-1707.8584" rx="69.5321" ry="18"/>
<text text-anchor="middle" x="311.1278" y="-1703.6584" font-family="Times,serif" font-size="14.00" fill="#000000">BB_002D2730</text>
</g>
<!-- BB_002D272C&#45;&gt;BB_002D2730 -->
<g id="edge11" class="edge">
<title>BB_002D272C-&gt;BB_002D2730</title>
<path fill="none" stroke="#ff0000" d="M338.7911,-1761.6898C334.5965,-1753.5272 329.561,-1743.7284 324.9425,-1734.7411"/>
<polygon fill="#ff0000" stroke="#ff0000" points="328.0171,-1733.0664 320.3333,-1725.7718 321.791,-1736.2659 328.0171,-1733.0664"/>
</g>
<!-- BB_002D2730&#45;&gt;BB_002D2736 -->
<g id="edge14" class="edge">
<title>BB_002D2730-&gt;BB_002D2736</title>
<path fill="none" stroke="#00ff00" d="M274.1596,-1692.3644C258.1862,-1683.5871 241.1225,-1670.9019 232.1278,-1653.8584 222.1444,-1634.9414 222.8381,-1610.5203 225.6447,-1591.891"/>
<polygon fill="#00ff00" stroke="#00ff00" points="229.1085,-1592.4031 227.4214,-1581.9435 222.2176,-1591.1723 229.1085,-1592.4031"/>
</g>
<!-- BB_002D2732 -->
<g id="node11" class="node">
<title>BB_002D2732</title>
<ellipse fill="none" stroke="#000000" cx="311.1278" cy="-1635.8584" rx="69.5321" ry="18"/>
<text text-anchor="middle" x="311.1278" y="-1631.6584" font-family="Times,serif" font-size="14.00" fill="#000000">BB_002D2732</text>
</g>
<!-- BB_002D2730&#45;&gt;BB_002D2732 -->
<g id="edge13" class="edge">
<title>BB_002D2730-&gt;BB_002D2732</title>
<path fill="none" stroke="#ff0000" d="M311.1278,-1689.6898C311.1278,-1681.9894 311.1278,-1672.8327 311.1278,-1664.275"/>
<polygon fill="#ff0000" stroke="#ff0000" points="314.6279,-1664.2716 311.1278,-1654.2717 307.6279,-1664.2717 314.6279,-1664.2716"/>
</g>
<!-- BB_002D2732&#45;&gt;BB_002D273C -->
<g id="edge16" class="edge">
<title>BB_002D2732-&gt;BB_002D273C</title>
<path fill="none" stroke="#00ff00" d="M334.3524,-1618.7954C347.1957,-1609.3596 363.3415,-1597.4973 377.3403,-1587.2125"/>
<polygon fill="#00ff00" stroke="#00ff00" points="379.7437,-1589.7898 385.7303,-1581.0484 375.5991,-1584.1486 379.7437,-1589.7898"/>
</g>
<!-- BB_002D2732&#45;&gt;BB_002D2736 -->
<g id="edge15" class="edge">
<title>BB_002D2732-&gt;BB_002D2736</title>
<path fill="none" stroke="#ff0000" d="M292.0041,-1618.4292C282.0828,-1609.387 269.7997,-1598.1922 258.9457,-1588.3001"/>
<polygon fill="#ff0000" stroke="#ff0000" points="261.0978,-1585.5259 251.3492,-1581.3766 256.3825,-1590.6995 261.0978,-1585.5259"/>
</g>
<!-- BB_002D2760 -->
<g id="node13" class="node">
<title>BB_002D2760</title>
<ellipse fill="none" stroke="#000000" cx="419.1278" cy="-1419.8584" rx="69.5321" ry="18"/>
<text text-anchor="middle" x="419.1278" y="-1415.6584" font-family="Times,serif" font-size="14.00" fill="#000000">BB_002D2760</text>
</g>
<!-- BB_002D274A&#45;&gt;BB_002D2760 -->
<g id="edge19" class="edge">
<title>BB_002D274A-&gt;BB_002D2760</title>
<path fill="none" stroke="#ff0000" d="M336.449,-1474.9776C350.968,-1465.2983 369.3836,-1453.0212 385.1476,-1442.5118"/>
<polygon fill="#ff0000" stroke="#ff0000" points="387.212,-1445.3421 393.591,-1436.8829 383.3291,-1439.5178 387.212,-1445.3421"/>
</g>
<!-- BB_002D276A -->
<g id="node14" class="node">
<title>BB_002D276A</title>
<ellipse fill="none" stroke="#000000" cx="232.1278" cy="-1419.8584" rx="71.8182" ry="18"/>
<text text-anchor="middle" x="232.1278" y="-1415.6584" font-family="Times,serif" font-size="14.00" fill="#000000">BB_002D276A</text>
</g>
<!-- BB_002D274A&#45;&gt;BB_002D276A -->
<g id="edge20" class="edge">
<title>BB_002D274A-&gt;BB_002D276A</title>
<path fill="none" stroke="#00ff00" d="M292.0041,-1474.4292C282.0828,-1465.387 269.7997,-1454.1922 258.9457,-1444.3001"/>
<polygon fill="#00ff00" stroke="#00ff00" points="261.0978,-1441.5259 251.3492,-1437.3766 256.3825,-1446.6995 261.0978,-1441.5259"/>
</g>
<!-- BB_002D2855 -->
<g id="node15" class="node">
<title>BB_002D2855</title>
<ellipse fill="none" stroke="#000000" cx="592.1278" cy="-1347.8584" rx="69.5321" ry="18"/>
<text text-anchor="middle" x="592.1278" y="-1343.6584" font-family="Times,serif" font-size="14.00" fill="#000000">BB_002D2855</text>
</g>
<!-- BB_002D2760&#45;&gt;BB_002D2855 -->
<g id="edge21" class="edge">
<title>BB_002D2760-&gt;BB_002D2855</title>
<path fill="none" stroke="#0000ff" d="M456.2407,-1404.4126C482.4402,-1393.5087 517.7303,-1378.8215 545.7806,-1367.1474"/>
<polygon fill="#0000ff" stroke="#0000ff" points="547.4861,-1370.2287 555.3736,-1363.1549 544.7964,-1363.766 547.4861,-1370.2287"/>
</g>
<!-- BB_002D2784 -->
<g id="node16" class="node">
<title>BB_002D2784</title>
<ellipse fill="none" stroke="#000000" cx="232.1278" cy="-1347.8584" rx="69.5321" ry="18"/>
<text text-anchor="middle" x="232.1278" y="-1343.6584" font-family="Times,serif" font-size="14.00" fill="#000000">BB_002D2784</text>
</g>
<!-- BB_002D276A&#45;&gt;BB_002D2784 -->
<g id="edge22" class="edge">
<title>BB_002D276A-&gt;BB_002D2784</title>
<path fill="none" stroke="#ff0000" d="M232.1278,-1401.6898C232.1278,-1393.9894 232.1278,-1384.8327 232.1278,-1376.275"/>
<polygon fill="#ff0000" stroke="#ff0000" points="235.6279,-1376.2716 232.1278,-1366.2717 228.6279,-1376.2717 235.6279,-1376.2716"/>
</g>
<!-- BB_002D27B8 -->
<g id="node17" class="node">
<title>BB_002D27B8</title>
<ellipse fill="none" stroke="#000000" cx="71.1278" cy="-1059.8584" rx="71.2559" ry="18"/>
<text text-anchor="middle" x="71.1278" y="-1055.6584" font-family="Times,serif" font-size="14.00" fill="#000000">BB_002D27B8</text>
</g>
<!-- BB_002D276A&#45;&gt;BB_002D27B8 -->
<g id="edge23" class="edge">
<title>BB_002D276A-&gt;BB_002D27B8</title>
<path fill="none" stroke="#00ff00" d="M181.6517,-1406.9747C122.9893,-1388.6073 34.1278,-1348.7538 34.1278,-1275.8584 34.1278,-1275.8584 34.1278,-1275.8584 34.1278,-1203.8584 34.1278,-1162.2969 48.765,-1116.0507 59.6268,-1087.4545"/>
<polygon fill="#00ff00" stroke="#00ff00" points="62.8976,-1088.7003 63.2811,-1078.1124 56.3786,-1086.1503 62.8976,-1088.7003"/>
</g>
<!-- BB_002D2858 -->
<g id="node31" class="node">
<title>BB_002D2858</title>
<ellipse fill="none" stroke="#000000" cx="556.1278" cy="-483.8584" rx="69.5321" ry="18"/>
<text text-anchor="middle" x="556.1278" y="-479.6584" font-family="Times,serif" font-size="14.00" fill="#000000">BB_002D2858</text>
</g>
<!-- BB_002D2855&#45;&gt;BB_002D2858 -->
<g id="edge51" class="edge">
<title>BB_002D2855-&gt;BB_002D2858</title>
<path fill="none" stroke="#0000ff" d="M596.479,-1329.7963C602.6301,-1302.6371 613.1278,-1249.587 613.1278,-1203.8584 613.1278,-1203.8584 613.1278,-1203.8584 613.1278,-627.8584 613.1278,-584.3766 590.3813,-538.3659 573.6268,-510.3734"/>
<polygon fill="#0000ff" stroke="#0000ff" points="576.4446,-508.2747 568.216,-501.6007 570.4866,-511.9494 576.4446,-508.2747"/>
</g>
<!-- BB_002D2788 -->
<g id="node18" class="node">
<title>BB_002D2788</title>
<ellipse fill="none" stroke="#000000" cx="332.1278" cy="-1275.8584" rx="69.5321" ry="18"/>
<text text-anchor="middle" x="332.1278" y="-1271.6584" font-family="Times,serif" font-size="14.00" fill="#000000">BB_002D2788</text>
</g>
<!-- BB_002D2784&#45;&gt;BB_002D2788 -->
<g id="edge24" class="edge">
<title>BB_002D2784-&gt;BB_002D2788</title>
<path fill="none" stroke="#ff0000" d="M255.8264,-1330.7954C269.1519,-1321.201 285.9617,-1309.098 300.4097,-1298.6955"/>
<polygon fill="#ff0000" stroke="#ff0000" points="302.529,-1301.4824 308.5993,-1292.7989 298.4389,-1295.8016 302.529,-1301.4824"/>
</g>
<!-- BB_002D27B6 -->
<g id="node19" class="node">
<title>BB_002D27B6</title>
<ellipse fill="none" stroke="#000000" cx="133.1278" cy="-1131.8584" rx="71.2559" ry="18"/>
<text text-anchor="middle" x="133.1278" y="-1127.6584" font-family="Times,serif" font-size="14.00" fill="#000000">BB_002D27B6</text>
</g>
<!-- BB_002D2784&#45;&gt;BB_002D27B6 -->
<g id="edge25" class="edge">
<title>BB_002D2784-&gt;BB_002D27B6</title>
<path fill="none" stroke="#00ff00" d="M223.8574,-1329.8139C206.496,-1291.9346 166.1653,-1203.9402 145.6284,-1159.1324"/>
<polygon fill="#00ff00" stroke="#00ff00" points="148.7926,-1157.6358 141.4443,-1150.0035 142.4292,-1160.5524 148.7926,-1157.6358"/>
</g>
<!-- BB_002D2809 -->
<g id="node23" class="node">
<title>BB_002D2809</title>
<ellipse fill="none" stroke="#000000" cx="240.1278" cy="-627.8584" rx="69.5321" ry="18"/>
<text text-anchor="middle" x="240.1278" y="-623.6584" font-family="Times,serif" font-size="14.00" fill="#000000">BB_002D2809</text>
</g>
<!-- BB_002D27B8&#45;&gt;BB_002D2809 -->
<g id="edge35" class="edge">
<title>BB_002D27B8-&gt;BB_002D2809</title>
<path fill="none" stroke="#00ff00" d="M77.3438,-1041.9232C86.131,-1014.926 101.1278,-962.08 101.1278,-915.8584 101.1278,-915.8584 101.1278,-915.8584 101.1278,-771.8584 101.1278,-715.208 157.5056,-672.309 198.4512,-648.6231"/>
<polygon fill="#00ff00" stroke="#00ff00" points="200.1784,-651.6673 207.1868,-643.7216 196.7531,-645.5626 200.1784,-651.6673"/>
</g>
<!-- BB_002D27D3 -->
<g id="node24" class="node">
<title>BB_002D27D3</title>
<ellipse fill="none" stroke="#000000" cx="232.1278" cy="-987.8584" rx="71.8182" ry="18"/>
<text text-anchor="middle" x="232.1278" y="-983.6584" font-family="Times,serif" font-size="14.00" fill="#000000">BB_002D27D3</text>
</g>
<!-- BB_002D27B8&#45;&gt;BB_002D27D3 -->
<g id="edge34" class="edge">
<title>BB_002D27B8-&gt;BB_002D27D3</title>
<path fill="none" stroke="#ff0000" d="M106.4599,-1044.0577C130.3676,-1033.3661 162.1339,-1019.16 187.7463,-1007.706"/>
<polygon fill="#ff0000" stroke="#ff0000" points="189.1782,-1010.8998 196.8781,-1003.6222 186.3205,-1004.5097 189.1782,-1010.8998"/>
</g>
<!-- BB_002D278A -->
<g id="node20" class="node">
<title>BB_002D278A</title>
<ellipse fill="none" stroke="#000000" cx="332.1278" cy="-1203.8584" rx="71.8182" ry="18"/>
<text text-anchor="middle" x="332.1278" y="-1199.6584" font-family="Times,serif" font-size="14.00" fill="#000000">BB_002D278A</text>
</g>
<!-- BB_002D2788&#45;&gt;BB_002D278A -->
<g id="edge26" class="edge">
<title>BB_002D2788-&gt;BB_002D278A</title>
<path fill="none" stroke="#ff0000" d="M332.1278,-1257.6898C332.1278,-1249.9894 332.1278,-1240.8327 332.1278,-1232.275"/>
<polygon fill="#ff0000" stroke="#ff0000" points="335.6279,-1232.2716 332.1278,-1222.2717 328.6279,-1232.2717 335.6279,-1232.2716"/>
</g>
<!-- BB_002D278E -->
<g id="node21" class="node">
<title>BB_002D278E</title>
<ellipse fill="none" stroke="#000000" cx="332.1278" cy="-1131.8584" rx="70.6742" ry="18"/>
<text text-anchor="middle" x="332.1278" y="-1127.6584" font-family="Times,serif" font-size="14.00" fill="#000000">BB_002D278E</text>
</g>
<!-- BB_002D2788&#45;&gt;BB_002D278E -->
<g id="edge27" class="edge">
<title>BB_002D2788-&gt;BB_002D278E</title>
<path fill="none" stroke="#00ff00" d="M370.0064,-1260.5814C386.3786,-1251.8517 403.8769,-1239.1438 413.1278,-1221.8584 420.6775,-1207.7516 420.6775,-1199.9652 413.1278,-1185.8584 405.5392,-1171.679 392.4008,-1160.5798 378.8867,-1152.2301"/>
<polygon fill="#00ff00" stroke="#00ff00" points="380.422,-1149.0758 370.0064,-1147.1354 376.9386,-1155.1476 380.422,-1149.0758"/>
</g>
<!-- BB_002D27B6&#45;&gt;BB_002D27B8 -->
<g id="edge33" class="edge">
<title>BB_002D27B6-&gt;BB_002D27B8</title>
<path fill="none" stroke="#0000ff" d="M117.802,-1114.0606C110.2939,-1105.3416 101.1212,-1094.6895 92.901,-1085.1433"/>
<polygon fill="#0000ff" stroke="#0000ff" points="95.4548,-1082.7453 86.2774,-1077.4514 90.1504,-1087.313 95.4548,-1082.7453"/>
</g>
<!-- BB_002D278A&#45;&gt;BB_002D27B6 -->
<g id="edge29" class="edge">
<title>BB_002D278A-&gt;BB_002D27B6</title>
<path fill="none" stroke="#00ff00" d="M290.8949,-1188.94C259.7064,-1177.6557 216.725,-1162.1046 183.5002,-1150.0836"/>
<polygon fill="#00ff00" stroke="#00ff00" points="184.5613,-1146.7455 173.967,-1146.6344 182.1796,-1153.3279 184.5613,-1146.7455"/>
</g>
<!-- BB_002D278A&#45;&gt;BB_002D278E -->
<g id="edge28" class="edge">
<title>BB_002D278A-&gt;BB_002D278E</title>
<path fill="none" stroke="#ff0000" d="M332.1278,-1185.6898C332.1278,-1177.9894 332.1278,-1168.8327 332.1278,-1160.275"/>
<polygon fill="#ff0000" stroke="#ff0000" points="335.6279,-1160.2716 332.1278,-1150.2717 328.6279,-1160.2717 335.6279,-1160.2716"/>
</g>
<!-- BB_002D27A5 -->
<g id="node22" class="node">
<title>BB_002D27A5</title>
<ellipse fill="none" stroke="#000000" cx="232.1278" cy="-1059.8584" rx="71.8182" ry="18"/>
<text text-anchor="middle" x="232.1278" y="-1055.6584" font-family="Times,serif" font-size="14.00" fill="#000000">BB_002D27A5</text>
</g>
<!-- BB_002D278E&#45;&gt;BB_002D27A5 -->
<g id="edge30" class="edge">
<title>BB_002D278E-&gt;BB_002D27A5</title>
<path fill="none" stroke="#ff0000" d="M308.4292,-1114.7954C295.2002,-1105.2706 278.5374,-1093.2733 264.1604,-1082.9219"/>
<polygon fill="#ff0000" stroke="#ff0000" points="266.1633,-1080.0511 256.0029,-1077.0484 262.0731,-1085.7319 266.1633,-1080.0511"/>
</g>
<!-- BB_002D278E&#45;&gt;BB_002D2809 -->
<g id="edge31" class="edge">
<title>BB_002D278E-&gt;BB_002D2809</title>
<path fill="none" stroke="#00ff00" d="M330.5377,-1113.8065C327.7774,-1083.8087 321.5751,-1021.8477 313.1278,-969.8584 294.0159,-852.2325 261.2964,-713.9276 247.0715,-655.8038"/>
<polygon fill="#00ff00" stroke="#00ff00" points="250.4245,-654.782 244.638,-645.9069 243.627,-656.4534 250.4245,-654.782"/>
</g>
<!-- BB_002D27A5&#45;&gt;BB_002D2784 -->
<g id="edge32" class="edge">
<title>BB_002D27A5-&gt;BB_002D2784</title>
<path fill="none" stroke="#0000ff" d="M232.1278,-1077.8673C232.1278,-1126.5496 232.1278,-1261.047 232.1278,-1319.7929"/>
<polygon fill="#0000ff" stroke="#0000ff" points="228.6279,-1319.8427 232.1278,-1329.8427 235.6279,-1319.8427 228.6279,-1319.8427"/>
</g>
<!-- BB_002D2811 -->
<g id="node27" class="node">
<title>BB_002D2811</title>
<ellipse fill="none" stroke="#000000" cx="507.1278" cy="-555.8584" rx="69.5321" ry="18"/>
<text text-anchor="middle" x="507.1278" y="-551.6584" font-family="Times,serif" font-size="14.00" fill="#000000">BB_002D2811</text>
</g>
<!-- BB_002D2809&#45;&gt;BB_002D2811 -->
<g id="edge47" class="edge">
<title>BB_002D2809-&gt;BB_002D2811</title>
<path fill="none" stroke="#0000ff" d="M288.4795,-614.8197C333.5152,-602.6753 400.739,-584.5475 448.7475,-571.6014"/>
<polygon fill="#0000ff" stroke="#0000ff" points="449.9416,-574.9045 458.6854,-568.9215 448.119,-568.1459 449.9416,-574.9045"/>
</g>
<!-- BB_002D27D3&#45;&gt;BB_002D2809 -->
<g id="edge37" class="edge">
<title>BB_002D27D3-&gt;BB_002D2809</title>
<path fill="none" stroke="#00ff00" d="M233.371,-969.6831C235.1285,-942.3797 238.1278,-889.1477 238.1278,-843.8584 238.1278,-843.8584 238.1278,-843.8584 238.1278,-771.8584 238.1278,-731.7305 238.9139,-685.3186 239.5004,-656.2744"/>
<polygon fill="#00ff00" stroke="#00ff00" points="243.0045,-656.1134 239.7134,-646.0427 236.006,-655.9676 243.0045,-656.1134"/>
</g>
<!-- BB_002D27D7 -->
<g id="node25" class="node">
<title>BB_002D27D7</title>
<ellipse fill="none" stroke="#000000" cx="438.1278" cy="-915.8584" rx="71.8182" ry="18"/>
<text text-anchor="middle" x="438.1278" y="-911.6584" font-family="Times,serif" font-size="14.00" fill="#000000">BB_002D27D7</text>
</g>
<!-- BB_002D27D3&#45;&gt;BB_002D27D7 -->
<g id="edge36" class="edge">
<title>BB_002D27D3-&gt;BB_002D27D7</title>
<path fill="none" stroke="#ff0000" d="M274.3121,-973.1144C306.8058,-961.7573 351.8804,-946.0031 386.5243,-933.8946"/>
<polygon fill="#ff0000" stroke="#ff0000" points="387.7148,-937.1862 396,-930.5827 385.4051,-930.5782 387.7148,-937.1862"/>
</g>
<!-- BB_002D27DB -->
<g id="node26" class="node">
<title>BB_002D27DB</title>
<ellipse fill="none" stroke="#000000" cx="435.1278" cy="-843.8584" rx="73.0421" ry="18"/>
<text text-anchor="middle" x="435.1278" y="-839.6584" font-family="Times,serif" font-size="14.00" fill="#000000">BB_002D27DB</text>
</g>
<!-- BB_002D27D7&#45;&gt;BB_002D27DB -->
<g id="edge38" class="edge">
<title>BB_002D27D7-&gt;BB_002D27DB</title>
<path fill="none" stroke="#ff0000" d="M437.3708,-897.6898C437.0499,-889.9894 436.6684,-880.8327 436.3118,-872.275"/>
<polygon fill="#ff0000" stroke="#ff0000" points="439.8084,-872.1173 435.895,-862.2717 432.8145,-872.4087 439.8084,-872.1173"/>
</g>
<!-- BB_002D27D7&#45;&gt;BB_002D2811 -->
<g id="edge39" class="edge">
<title>BB_002D27D7-&gt;BB_002D2811</title>
<path fill="none" stroke="#00ff00" d="M479.6473,-901.1201C499.5168,-892.3136 522.3542,-879.3833 538.1278,-861.8584 567.0607,-829.7133 575.1278,-815.1067 575.1278,-771.8584 575.1278,-771.8584 575.1278,-771.8584 575.1278,-699.8584 575.1278,-655.2027 548.0584,-609.5732 528.0777,-581.9753"/>
<polygon fill="#00ff00" stroke="#00ff00" points="530.6682,-579.5945 521.8828,-573.6726 525.0578,-583.7806 530.6682,-579.5945"/>
</g>
<!-- BB_002D27DD -->
<g id="node28" class="node">
<title>BB_002D27DD</title>
<ellipse fill="none" stroke="#000000" cx="435.1278" cy="-771.8584" rx="73.6042" ry="18"/>
<text text-anchor="middle" x="435.1278" y="-767.6584" font-family="Times,serif" font-size="14.00" fill="#000000">BB_002D27DD</text>
</g>
<!-- BB_002D27DB&#45;&gt;BB_002D27DD -->
<g id="edge40" class="edge">
<title>BB_002D27DB-&gt;BB_002D27DD</title>
<path fill="none" stroke="#ff0000" d="M435.1278,-825.6898C435.1278,-817.9894 435.1278,-808.8327 435.1278,-800.275"/>
<polygon fill="#ff0000" stroke="#ff0000" points="438.6279,-800.2716 435.1278,-790.2717 431.6279,-800.2717 438.6279,-800.2716"/>
</g>
<!-- BB_002D27E1 -->
<g id="node29" class="node">
<title>BB_002D27E1</title>
<ellipse fill="none" stroke="#000000" cx="396.1278" cy="-699.8584" rx="70.6742" ry="18"/>
<text text-anchor="middle" x="396.1278" y="-695.6584" font-family="Times,serif" font-size="14.00" fill="#000000">BB_002D27E1</text>
</g>
<!-- BB_002D27DB&#45;&gt;BB_002D27E1 -->
<g id="edge41" class="edge">
<title>BB_002D27DB-&gt;BB_002D27E1</title>
<path fill="none" stroke="#00ff00" d="M395.9057,-828.5745C379.2603,-819.8983 361.5538,-807.2363 352.1278,-789.8584 340.4782,-768.3809 354.8648,-743.3726 370.2202,-725.1766"/>
<polygon fill="#00ff00" stroke="#00ff00" points="373.1835,-727.1146 377.2536,-717.3327 367.9718,-722.4414 373.1835,-727.1146"/>
</g>
<!-- BB_002D2811&#45;&gt;BB_002D2858 -->
<g id="edge48" class="edge">
<title>BB_002D2811-&gt;BB_002D2858</title>
<path fill="none" stroke="#0000ff" d="M519.2402,-538.0606C524.953,-529.6663 531.8852,-519.4802 538.1912,-510.2142"/>
<polygon fill="#0000ff" stroke="#0000ff" points="541.2522,-511.9373 543.985,-501.7009 535.4652,-507.9989 541.2522,-511.9373"/>
</g>
<!-- BB_002D27DD&#45;&gt;BB_002D2811 -->
<g id="edge43" class="edge">
<title>BB_002D27DD-&gt;BB_002D2811</title>
<path fill="none" stroke="#00ff00" d="M451.8494,-754.2269C460.3812,-744.2765 470.1863,-731.1905 476.1278,-717.8584 495.7114,-673.9151 502.9422,-617.876 505.5992,-584.5441"/>
<polygon fill="#00ff00" stroke="#00ff00" points="509.1193,-584.3838 506.3362,-574.1611 502.1369,-583.8881 509.1193,-584.3838"/>
</g>
<!-- BB_002D27DD&#45;&gt;BB_002D27E1 -->
<g id="edge42" class="edge">
<title>BB_002D27DD-&gt;BB_002D27E1</title>
<path fill="none" stroke="#ff0000" d="M425.2865,-753.6898C420.8651,-745.5272 415.5574,-735.7284 410.6893,-726.7411"/>
<polygon fill="#ff0000" stroke="#ff0000" points="413.6713,-724.8977 405.8309,-717.7718 407.5163,-728.2318 413.6713,-724.8977"/>
</g>
<!-- BB_002D27E1&#45;&gt;BB_002D2809 -->
<g id="edge45" class="edge">
<title>BB_002D27E1-&gt;BB_002D2809</title>
<path fill="none" stroke="#00ff00" d="M361.8929,-684.0577C338.8294,-673.413 308.2178,-659.2846 283.4579,-647.8569"/>
<polygon fill="#00ff00" stroke="#00ff00" points="284.8291,-644.635 274.2828,-643.6222 281.8957,-650.9907 284.8291,-644.635"/>
</g>
<!-- BB_002D27FB -->
<g id="node30" class="node">
<title>BB_002D27FB</title>
<ellipse fill="none" stroke="#000000" cx="399.1278" cy="-627.8584" rx="71.8357" ry="18"/>
<text text-anchor="middle" x="399.1278" y="-623.6584" font-family="Times,serif" font-size="14.00" fill="#000000">BB_002D27FB</text>
</g>
<!-- BB_002D27E1&#45;&gt;BB_002D27FB -->
<g id="edge44" class="edge">
<title>BB_002D27E1-&gt;BB_002D27FB</title>
<path fill="none" stroke="#ff0000" d="M396.8848,-681.6898C397.2057,-673.9894 397.5872,-664.8327 397.9438,-656.275"/>
<polygon fill="#ff0000" stroke="#ff0000" points="401.4412,-656.4087 398.3606,-646.2717 394.4472,-656.1173 401.4412,-656.4087"/>
</g>
<!-- BB_002D27FB&#45;&gt;BB_002D27D7 -->
<g id="edge46" class="edge">
<title>BB_002D27FB-&gt;BB_002D27D7</title>
<path fill="none" stroke="#0000ff" d="M428.8736,-644.4705C444.2256,-654.0337 462.5321,-667.077 476.1278,-681.8584 501.2072,-709.1251 508.4594,-718.0958 518.1278,-753.8584 530.6554,-800.1969 539.8265,-819.5622 517.1278,-861.8584 509.6524,-875.7878 496.8194,-886.8228 483.6444,-895.1906"/>
<polygon fill="#0000ff" stroke="#0000ff" points="481.8164,-892.2054 474.99,-900.3079 485.3793,-898.2309 481.8164,-892.2054"/>
</g>
<!-- BB_002D2880 -->
<g id="node35" class="node">
<title>BB_002D2880</title>
<ellipse fill="none" stroke="#000000" cx="477.1278" cy="-411.8584" rx="69.5321" ry="18"/>
<text text-anchor="middle" x="477.1278" y="-407.6584" font-family="Times,serif" font-size="14.00" fill="#000000">BB_002D2880</text>
</g>
<!-- BB_002D2858&#45;&gt;BB_002D2880 -->
<g id="edge52" class="edge">
<title>BB_002D2858-&gt;BB_002D2880</title>
<path fill="none" stroke="#ff0000" d="M537.0041,-466.4292C527.0828,-457.387 514.7997,-446.1922 503.9457,-436.3001"/>
<polygon fill="#ff0000" stroke="#ff0000" points="506.0978,-433.5259 496.3492,-429.3766 501.3825,-438.6995 506.0978,-433.5259"/>
</g>
<!-- BB_002D28C8 -->
<g id="node36" class="node">
<title>BB_002D28C8</title>
<ellipse fill="none" stroke="#000000" cx="636.1278" cy="-411.8584" rx="71.2559" ry="18"/>
<text text-anchor="middle" x="636.1278" y="-407.6584" font-family="Times,serif" font-size="14.00" fill="#000000">BB_002D28C8</text>
</g>
<!-- BB_002D2858&#45;&gt;BB_002D28C8 -->
<g id="edge53" class="edge">
<title>BB_002D2858-&gt;BB_002D28C8</title>
<path fill="none" stroke="#00ff00" d="M575.4936,-466.4292C585.5405,-457.387 597.9791,-446.1922 608.9704,-436.3001"/>
<polygon fill="#00ff00" stroke="#00ff00" points="611.5715,-438.6679 616.6631,-429.3766 606.8887,-433.4648 611.5715,-438.6679"/>
</g>
<!-- BB_002D2832 -->
<g id="node32" class="node">
<title>BB_002D2832</title>
<ellipse fill="none" stroke="#000000" cx="674.1278" cy="-90.2146" rx="69.5321" ry="18"/>
<text text-anchor="middle" x="674.1278" y="-86.0146" font-family="Times,serif" font-size="14.00" fill="#000000">BB_002D2832</text>
</g>
<!-- end -->
<g id="node33" class="node">
<title>end</title>
<polygon fill="none" stroke="#000000" points="612.3431,-36.3225 575.9126,-36.3225 575.9126,.1079 612.3431,.1079 612.3431,-36.3225"/>
<polyline fill="none" stroke="#000000" points="587.9126,-36.3225 575.9126,-24.3225 "/>
<polyline fill="none" stroke="#000000" points="575.9126,-11.8921 587.9126,.1079 "/>
<polyline fill="none" stroke="#000000" points="600.3431,.1079 612.3431,-11.8921 "/>
<polyline fill="none" stroke="#000000" points="612.3431,-24.3225 600.3431,-36.3225 "/>
<text text-anchor="middle" x="594.1278" y="-13.9073" font-family="Times,serif" font-size="14.00" fill="#000000">end</text>
</g>
<!-- BB_002D2832&#45;&gt;end -->
<g id="edge49" class="edge">
<title>BB_002D2832-&gt;end</title>
<path fill="none" stroke="#000000" d="M654.762,-72.7594C644.317,-63.3449 631.287,-51.6004 619.9856,-41.414"/>
<polygon fill="#000000" stroke="#000000" points="622.2622,-38.754 612.4908,-34.6587 617.5755,-43.9536 622.2622,-38.754"/>
</g>
<!-- BB_002D284B -->
<g id="node34" class="node">
<title>BB_002D284B</title>
<ellipse fill="none" stroke="#000000" cx="592.1278" cy="-1419.8584" rx="71.2559" ry="18"/>
<text text-anchor="middle" x="592.1278" y="-1415.6584" font-family="Times,serif" font-size="14.00" fill="#000000">BB_002D284B</text>
</g>
<!-- BB_002D284B&#45;&gt;BB_002D2855 -->
<g id="edge50" class="edge">
<title>BB_002D284B-&gt;BB_002D2855</title>
<path fill="none" stroke="#0000ff" d="M592.1278,-1401.6898C592.1278,-1393.9894 592.1278,-1384.8327 592.1278,-1376.275"/>
<polygon fill="#0000ff" stroke="#0000ff" points="595.6279,-1376.2716 592.1278,-1366.2717 588.6279,-1376.2717 595.6279,-1376.2716"/>
</g>
<!-- BB_002D2890 -->
<g id="node37" class="node">
<title>BB_002D2890</title>
<ellipse fill="none" stroke="#000000" cx="394.1278" cy="-339.8584" rx="69.5321" ry="18"/>
<text text-anchor="middle" x="394.1278" y="-335.6584" font-family="Times,serif" font-size="14.00" fill="#000000">BB_002D2890</text>
</g>
<!-- BB_002D2880&#45;&gt;BB_002D2890 -->
<g id="edge54" class="edge">
<title>BB_002D2880-&gt;BB_002D2890</title>
<path fill="none" stroke="#ff0000" d="M457.0358,-394.4292C446.433,-385.2316 433.2627,-373.8068 421.717,-363.7912"/>
<polygon fill="#ff0000" stroke="#ff0000" points="423.8822,-361.036 414.0348,-357.1271 419.2952,-366.3238 423.8822,-361.036"/>
</g>
<!-- BB_002D2898 -->
<g id="node38" class="node">
<title>BB_002D2898</title>
<ellipse fill="none" stroke="#000000" cx="467.1278" cy="-267.8584" rx="69.5321" ry="18"/>
<text text-anchor="middle" x="467.1278" y="-263.6584" font-family="Times,serif" font-size="14.00" fill="#000000">BB_002D2898</text>
</g>
<!-- BB_002D2880&#45;&gt;BB_002D2898 -->
<g id="edge55" class="edge">
<title>BB_002D2880-&gt;BB_002D2898</title>
<path fill="none" stroke="#00ff00" d="M476.6698,-393.5653C476.1306,-375.3654 475.0541,-346.652 473.1278,-321.8584 472.4877,-313.6193 471.583,-304.6951 470.6698,-296.5197"/>
<polygon fill="#00ff00" stroke="#00ff00" points="474.1161,-295.8537 469.4859,-286.3242 467.1628,-296.6611 474.1161,-295.8537"/>
</g>
<!-- BB_002D28CC -->
<g id="node41" class="node">
<title>BB_002D28CC</title>
<ellipse fill="none" stroke="#000000" cx="622.1278" cy="-339.8584" rx="72.9799" ry="18"/>
<text text-anchor="middle" x="622.1278" y="-335.6584" font-family="Times,serif" font-size="14.00" fill="#000000">BB_002D28CC</text>
</g>
<!-- BB_002D28C8&#45;&gt;BB_002D28CC -->
<g id="edge61" class="edge">
<title>BB_002D28C8-&gt;BB_002D28CC</title>
<path fill="none" stroke="#ff0000" d="M632.595,-393.6898C631.0977,-385.9894 629.3173,-376.8327 627.6533,-368.275"/>
<polygon fill="#ff0000" stroke="#ff0000" points="631.0526,-367.4198 625.7082,-358.2717 624.1813,-368.7559 631.0526,-367.4198"/>
</g>
<!-- BB_002D28D3 -->
<g id="node42" class="node">
<title>BB_002D28D3</title>
<ellipse fill="none" stroke="#000000" cx="784.1278" cy="-339.8584" rx="71.8182" ry="18"/>
<text text-anchor="middle" x="784.1278" y="-335.6584" font-family="Times,serif" font-size="14.00" fill="#000000">BB_002D28D3</text>
</g>
<!-- BB_002D28C8&#45;&gt;BB_002D28D3 -->
<g id="edge62" class="edge">
<title>BB_002D28C8-&gt;BB_002D28D3</title>
<path fill="none" stroke="#00ff00" d="M668.9738,-395.8793C690.4551,-385.4289 718.7205,-371.6782 741.8714,-360.4156"/>
<polygon fill="#00ff00" stroke="#00ff00" points="743.6568,-363.4392 751.1181,-355.9172 740.5946,-357.1446 743.6568,-363.4392"/>
</g>
<!-- BB_002D2890&#45;&gt;BB_002D2898 -->
<g id="edge56" class="edge">
<title>BB_002D2890-&gt;BB_002D2898</title>
<path fill="none" stroke="#0000ff" d="M411.7991,-322.4292C420.8779,-313.4748 432.0969,-302.4094 442.0542,-292.5886"/>
<polygon fill="#0000ff" stroke="#0000ff" points="444.7043,-294.8907 449.3663,-285.3766 439.7888,-289.9069 444.7043,-294.8907"/>
</g>
<!-- BB_002D28AF -->
<g id="node39" class="node">
<title>BB_002D28AF</title>
<ellipse fill="none" stroke="#000000" cx="465.1278" cy="-179.0365" rx="72.3981" ry="18"/>
<text text-anchor="middle" x="465.1278" y="-174.8365" font-family="Times,serif" font-size="14.00" fill="#000000">BB_002D28AF</text>
</g>
<!-- BB_002D2898&#45;&gt;BB_002D28AF -->
<g id="edge57" class="edge">
<title>BB_002D2898-&gt;BB_002D28AF</title>
<path fill="none" stroke="#ff0000" d="M466.7134,-249.4544C466.4408,-237.3458 466.0784,-221.2545 465.769,-207.5109"/>
<polygon fill="#ff0000" stroke="#ff0000" points="469.2592,-207.0316 465.5348,-197.113 462.2609,-207.1893 469.2592,-207.0316"/>
</g>
<!-- BB_002D28B4 -->
<g id="node40" class="node">
<title>BB_002D28B4</title>
<ellipse fill="none" stroke="#000000" cx="515.1278" cy="-90.2146" rx="71.2559" ry="18"/>
<text text-anchor="middle" x="515.1278" y="-86.0146" font-family="Times,serif" font-size="14.00" fill="#000000">BB_002D28B4</text>
</g>
<!-- BB_002D2898&#45;&gt;BB_002D28B4 -->
<g id="edge58" class="edge">
<title>BB_002D2898-&gt;BB_002D28B4</title>
<path fill="none" stroke="#00ff00" d="M504.096,-252.3644C520.0694,-243.5871 537.1331,-230.9019 546.1278,-213.8584 560.5747,-186.4839 554.1022,-174.1225 546.1278,-144.2146 543.5917,-134.703 538.9374,-125.1255 533.9927,-116.7325"/>
<polygon fill="#00ff00" stroke="#00ff00" points="536.8835,-114.7545 528.5997,-108.1493 530.9563,-118.4787 536.8835,-114.7545"/>
</g>
<!-- BB_002D28AF&#45;&gt;BB_002D28B4 -->
<g id="edge59" class="edge">
<title>BB_002D28AF-&gt;BB_002D28B4</title>
<path fill="none" stroke="#0000ff" d="M475.2461,-161.0621C482.3621,-148.4209 492.0073,-131.2867 500.0299,-117.0352"/>
<polygon fill="#0000ff" stroke="#0000ff" points="503.1691,-118.5934 505.0246,-108.1623 497.0692,-115.1596 503.1691,-118.5934"/>
</g>
<!-- BB_002D28B4&#45;&gt;end -->
<g id="edge60" class="edge">
<title>BB_002D28B4-&gt;end</title>
<path fill="none" stroke="#000000" d="M534.2515,-72.7594C544.566,-63.3449 557.4331,-51.6004 568.5932,-41.414"/>
<polygon fill="#000000" stroke="#000000" points="570.9679,-43.9853 575.9943,-34.6587 566.2488,-38.8151 570.9679,-43.9853"/>
</g>
<!-- BB_002D28E2 -->
<g id="node43" class="node">
<title>BB_002D28E2</title>
<ellipse fill="none" stroke="#000000" cx="647.1278" cy="-267.8584" rx="70.6742" ry="18"/>
<text text-anchor="middle" x="647.1278" y="-263.6584" font-family="Times,serif" font-size="14.00" fill="#000000">BB_002D28E2</text>
</g>
<!-- BB_002D28CC&#45;&gt;BB_002D28E2 -->
<g id="edge63" class="edge">
<title>BB_002D28CC-&gt;BB_002D28E2</title>
<path fill="none" stroke="#0000ff" d="M628.4364,-321.6898C631.1395,-313.9047 634.3594,-304.6313 637.3588,-295.9931"/>
<polygon fill="#0000ff" stroke="#0000ff" points="640.7605,-296.8665 640.7343,-286.2717 634.1478,-294.5703 640.7605,-296.8665"/>
</g>
<!-- BB_002D28D3&#45;&gt;BB_002D28E2 -->
<g id="edge64" class="edge">
<title>BB_002D28D3-&gt;BB_002D28E2</title>
<path fill="none" stroke="#0000ff" d="M753.0404,-323.5205C733.5097,-313.2562 708.1257,-299.9157 687.1047,-288.8681"/>
<polygon fill="#0000ff" stroke="#0000ff" points="688.5725,-285.6857 678.0922,-284.1317 685.3159,-291.882 688.5725,-285.6857"/>
</g>
<!-- dead_end -->
<g id="node44" class="node">
<title>dead_end</title>
<polygon fill="none" stroke="#000000" points="681.7725,-213.6812 612.4831,-213.6812 612.4831,-144.3918 681.7725,-144.3918 681.7725,-213.6812"/>
<polyline fill="none" stroke="#000000" points="624.4831,-213.6812 612.4831,-201.6812 "/>
<polyline fill="none" stroke="#000000" points="612.4831,-156.3918 624.4831,-144.3918 "/>
<polyline fill="none" stroke="#000000" points="669.7725,-144.3918 681.7725,-156.3918 "/>
<polyline fill="none" stroke="#000000" points="681.7725,-201.6812 669.7725,-213.6812 "/>
<text text-anchor="middle" x="647.1278" y="-174.8365" font-family="Times,serif" font-size="14.00" fill="#000000">dead_end</text>
</g>
<!-- BB_002D28E2&#45;&gt;dead_end -->
<g id="edge65" class="edge">
<title>BB_002D28E2-&gt;dead_end</title>
<path fill="none" stroke="#000000" d="M647.1278,-249.4544C647.1278,-241.9968 647.1278,-233.0284 647.1278,-224.0283"/>
<polygon fill="#000000" stroke="#000000" points="650.6279,-223.9321 647.1278,-213.9321 643.6279,-223.9322 650.6279,-223.9321"/>
</g>
</g>
</svg>