<?xml version="1.0" encoding="UTF-8" standalone="no"?><!DOCTYPE svg PUBLIC "-//W3C//DTD SVG 1.1//EN" "http://www.w3.org/Graphics/SVG/1.1/DTD/svg11.dtd"><!-- Generated by graphviz version 2.40.1 (20161225.0304)
 --><!-- Title: G Pages: 1 --><svg xmlns="http://www.w3.org/2000/svg" xmlns:xlink="http://www.w3.org/1999/xlink" width="150pt" height="188pt" viewBox="0.00 0.00 150.25 188.21">
<g id="graph0" class="graph" transform="scale(1 1) rotate(0) translate(4 184.2146)">
<title>G</title>
<polygon fill="#ffffff" stroke="transparent" points="-4,4 -4,-184.2146 146.2537,-184.2146 146.2537,4 -4,4"/>
<!-- start -->
<g id="node1" class="node">
<title>start</title>
<polygon fill="none" stroke="#000000" points="71.1268,-180.2146 31.8895,-162.2146 71.1268,-144.2146 110.3642,-162.2146 71.1268,-180.2146"/>
<polyline fill="none" stroke="#000000" points="42.7966,-167.2182 42.7966,-157.211 "/>
<polyline fill="none" stroke="#000000" points="60.2198,-149.2182 82.0339,-149.2182 "/>
<polyline fill="none" stroke="#000000" points="99.4571,-157.211 99.4571,-167.2182 "/>
<polyline fill="none" stroke="#000000" points="82.0339,-175.211 60.2198,-175.211 "/>
<text text-anchor="middle" x="71.1268" y="-158.0146" font-family="Times,serif" font-size="14.00" fill="#000000">start</text>
</g>
<!-- BB_002ECE10 -->
<g id="node2" class="node">
<title>BB_002ECE10</title>
<ellipse fill="none" stroke="#000000" cx="71.1268" cy="-90.2146" rx="71.2539" ry="18"/>
<text text-anchor="middle" x="71.1268" y="-86.0146" font-family="Times,serif" font-size="14.00" fill="#000000">BB_002ECE10</text>
</g>
<!-- start&#45;&gt;BB_002ECE10 -->
<g id="edge1" class="edge">
<title>start-&gt;BB_002ECE10</title>
<path fill="none" stroke="#000000" d="M71.1268,-144.046C71.1268,-136.3456 71.1268,-127.1889 71.1268,-118.6312"/>
<polygon fill="#000000" stroke="#000000" points="74.6269,-118.6278 71.1268,-108.6279 67.6269,-118.6279 74.6269,-118.6278"/>
</g>
<!-- end -->
<g id="node3" class="node">
<title>end</title>
<polygon fill="none" stroke="#000000" points="89.3421,-36.3225 52.9116,-36.3225 52.9116,.1079 89.3421,.1079 89.3421,-36.3225"/>
<polyline fill="none" stroke="#000000" points="64.9116,-36.3225 52.9116,-24.3225 "/>
<polyline fill="none" stroke="#000000" points="52.9116,-11.8921 64.9116,.1079 "/>
<polyline fill="none" stroke="#000000" points="77.3421,.1079 89.3421,-11.8921 "/>
<polyline fill="none" stroke="#000000" points="89.3421,-24.3225 77.3421,-36.3225 "/>
<text text-anchor="middle" x="71.1268" y="-13.9073" font-family="Times,serif" font-size="14.00" fill="#000000">end</text>
</g>
<!-- BB_002ECE10&#45;&gt;end -->
<g id="edge2" class="edge">
<title>BB_002ECE10-&gt;end</title>
<path fill="none" stroke="#000000" d="M71.1268,-72.0189C71.1268,-64.2477 71.1268,-54.9956 71.1268,-46.3686"/>
<polygon fill="#000000" stroke="#000000" points="74.6269,-46.2972 71.1268,-36.2972 67.6269,-46.2972 74.6269,-46.2972"/>
</g>
</g>
</svg>