<?xml version="1.0" encoding="UTF-8" standalone="no"?><!DOCTYPE svg PUBLIC "-//W3C//DTD SVG 1.1//EN" "http://www.w3.org/Graphics/SVG/1.1/DTD/svg11.dtd"><!-- Generated by graphviz version 2.40.1 (20161225.0304)
 --><!-- Title: G Pages: 1 --><svg xmlns="http://www.w3.org/2000/svg" xmlns:xlink="http://www.w3.org/1999/xlink" width="153pt" height="294pt" viewBox="0.00 0.00 153.46 293.64">
<g id="graph0" class="graph" transform="scale(1 1) rotate(0) translate(4 289.6438)">
<title>G</title>
<polygon fill="#ffffff" stroke="transparent" points="-4,4 -4,-289.6438 149.4598,-289.6438 149.4598,4 -4,4"/>
<!-- start -->
<g id="node1" class="node">
<title>start</title>
<polygon fill="none" stroke="#000000" points="72.7299,-285.6438 33.4926,-267.6438 72.7299,-249.6438 111.9672,-267.6438 72.7299,-285.6438"/>
<polyline fill="none" stroke="#000000" points="44.3997,-272.6474 44.3997,-262.6402 "/>
<polyline fill="none" stroke="#000000" points="61.8228,-254.6474 83.637,-254.6474 "/>
<polyline fill="none" stroke="#000000" points="101.0601,-262.6402 101.0601,-272.6474 "/>
<polyline fill="none" stroke="#000000" points="83.637,-280.6402 61.8228,-280.6402 "/>
<text text-anchor="middle" x="72.7299" y="-263.4438" font-family="Times,serif" font-size="14.00" fill="#000000">start</text>
</g>
<!-- BB_0030DC04 -->
<g id="node2" class="node">
<title>BB_0030DC04</title>
<ellipse fill="none" stroke="#000000" cx="72.7299" cy="-195.6438" rx="71.2559" ry="18"/>
<text text-anchor="middle" x="72.7299" y="-191.4438" font-family="Times,serif" font-size="14.00" fill="#000000">BB_0030DC04</text>
</g>
<!-- start&#45;&gt;BB_0030DC04 -->
<g id="edge1" class="edge">
<title>start-&gt;BB_0030DC04</title>
<path fill="none" stroke="#000000" d="M72.7299,-249.4752C72.7299,-241.7748 72.7299,-232.6181 72.7299,-224.0604"/>
<polygon fill="#000000" stroke="#000000" points="76.23,-224.057 72.7299,-214.0571 69.23,-224.0571 76.23,-224.057"/>
</g>
<!-- BB_0030DAE9 -->
<g id="node3" class="node">
<title>BB_0030DAE9</title>
<ellipse fill="none" stroke="#000000" cx="72.7299" cy="-123.6438" rx="72.9605" ry="18"/>
<text text-anchor="middle" x="72.7299" y="-119.4438" font-family="Times,serif" font-size="14.00" fill="#000000">BB_0030DAE9</text>
</g>
<!-- BB_0030DC04&#45;&gt;BB_0030DAE9 -->
<g id="edge2" class="edge">
<title>BB_0030DC04-&gt;BB_0030DAE9</title>
<path fill="none" stroke="#0000ff" d="M72.7299,-177.4752C72.7299,-169.7748 72.7299,-160.6181 72.7299,-152.0604"/>
<polygon fill="#0000ff" stroke="#0000ff" points="76.23,-152.057 72.7299,-142.0571 69.23,-152.0571 76.23,-152.057"/>
</g>
<!-- dead_end -->
<g id="node4" class="node">
<title>dead_end</title>
<polygon fill="none" stroke="#000000" points="107.3746,-69.4666 38.0852,-69.4666 38.0852,-.1772 107.3746,-.1772 107.3746,-69.4666"/>
<polyline fill="none" stroke="#000000" points="50.0852,-69.4666 38.0852,-57.4666 "/>
<polyline fill="none" stroke="#000000" points="38.0852,-12.1772 50.0852,-.1772 "/>
<polyline fill="none" stroke="#000000" points="95.3746,-.1772 107.3746,-12.1772 "/>
<polyline fill="none" stroke="#000000" points="107.3746,-57.4666 95.3746,-69.4666 "/>
<text text-anchor="middle" x="72.7299" y="-30.6219" font-family="Times,serif" font-size="14.00" fill="#000000">dead_end</text>
</g>
<!-- BB_0030DAE9&#45;&gt;dead_end -->
<g id="edge3" class="edge">
<title>BB_0030DAE9-&gt;dead_end</title>
<path fill="none" stroke="#000000" d="M72.7299,-105.2398C72.7299,-97.7822 72.7299,-88.8138 72.7299,-79.8137"/>
<polygon fill="#000000" stroke="#000000" points="76.23,-79.7175 72.7299,-69.7175 69.23,-79.7176 76.23,-79.7175"/>
</g>
</g>
</svg>