<?xml version="1.0" encoding="UTF-8" standalone="no"?><!DOCTYPE svg PUBLIC "-//W3C//DTD SVG 1.1//EN" "http://www.w3.org/Graphics/SVG/1.1/DTD/svg11.dtd"><!-- Generated by graphviz version 2.40.1 (20161225.0304)
 --><!-- Title: G Pages: 1 --><svg xmlns="http://www.w3.org/2000/svg" xmlns:xlink="http://www.w3.org/1999/xlink" width="491pt" height="1230pt" viewBox="0.00 0.00 490.83 1229.86">
<g id="graph0" class="graph" transform="scale(1 1) rotate(0) translate(4 1225.8584)">
<title>G</title>
<polygon fill="#ffffff" stroke="transparent" points="-4,4 -4,-1225.8584 486.8262,-1225.8584 486.8262,4 -4,4"/>
<!-- start -->
<g id="node1" class="node">
<title>start</title>
<polygon fill="none" stroke="#000000" points="153.3416,-1221.8584 114.1043,-1203.8584 153.3416,-1185.8584 192.579,-1203.8584 153.3416,-1221.8584"/>
<polyline fill="none" stroke="#000000" points="125.0114,-1208.862 125.0114,-1198.8548 "/>
<polyline fill="none" stroke="#000000" points="142.4346,-1190.862 164.2487,-1190.862 "/>
<polyline fill="none" stroke="#000000" points="181.6719,-1198.8548 181.6719,-1208.862 "/>
<polyline fill="none" stroke="#000000" points="164.2487,-1216.8548 142.4346,-1216.8548 "/>
<text text-anchor="middle" x="153.3416" y="-1199.6584" font-family="Times,serif" font-size="14.00" fill="#000000">start</text>
</g>
<!-- BB_002DF650 -->
<g id="node2" class="node">
<title>BB_002DF650</title>
<ellipse fill="none" stroke="#000000" cx="153.3416" cy="-1131.8584" rx="70.1118" ry="18"/>
<text text-anchor="middle" x="153.3416" y="-1127.6584" font-family="Times,serif" font-size="14.00" fill="#000000">BB_002DF650</text>
</g>
<!-- start&#45;&gt;BB_002DF650 -->
<g id="edge1" class="edge">
<title>start-&gt;BB_002DF650</title>
<path fill="none" stroke="#000000" d="M153.3416,-1185.6898C153.3416,-1177.9894 153.3416,-1168.8327 153.3416,-1160.275"/>
<polygon fill="#000000" stroke="#000000" points="156.8417,-1160.2716 153.3416,-1150.2717 149.8417,-1160.2717 156.8417,-1160.2716"/>
</g>
<!-- BB_002DF734 -->
<g id="node3" class="node">
<title>BB_002DF734</title>
<ellipse fill="none" stroke="#000000" cx="202.3416" cy="-1059.8584" rx="70.1118" ry="18"/>
<text text-anchor="middle" x="202.3416" y="-1055.6584" font-family="Times,serif" font-size="14.00" fill="#000000">BB_002DF734</text>
</g>
<!-- BB_002DF650&#45;&gt;BB_002DF734 -->
<g id="edge2" class="edge">
<title>BB_002DF650-&gt;BB_002DF734</title>
<path fill="none" stroke="#ff0000" d="M165.454,-1114.0606C171.1668,-1105.6663 178.0991,-1095.4802 184.405,-1086.2142"/>
<polygon fill="#ff0000" stroke="#ff0000" points="187.466,-1087.9373 190.1988,-1077.7009 181.679,-1083.9989 187.466,-1087.9373"/>
</g>
<!-- BB_002DF766 -->
<g id="node4" class="node">
<title>BB_002DF766</title>
<ellipse fill="none" stroke="#000000" cx="153.3416" cy="-987.8584" rx="70.1118" ry="18"/>
<text text-anchor="middle" x="153.3416" y="-983.6584" font-family="Times,serif" font-size="14.00" fill="#000000">BB_002DF766</text>
</g>
<!-- BB_002DF650&#45;&gt;BB_002DF766 -->
<g id="edge3" class="edge">
<title>BB_002DF650-&gt;BB_002DF766</title>
<path fill="none" stroke="#00ff00" d="M140.2994,-1113.8611C133.8203,-1103.8035 126.6775,-1090.7317 123.3416,-1077.8584 119.3282,-1062.3699 119.3282,-1057.3469 123.3416,-1041.8584 125.7914,-1032.4045 130.2943,-1022.8437 135.0797,-1014.4482"/>
<polygon fill="#00ff00" stroke="#00ff00" points="138.0988,-1016.2195 140.2994,-1005.8557 132.1162,-1012.5852 138.0988,-1016.2195"/>
</g>
<!-- BB_002DF734&#45;&gt;BB_002DF766 -->
<g id="edge4" class="edge">
<title>BB_002DF734-&gt;BB_002DF766</title>
<path fill="none" stroke="#0000ff" d="M190.2293,-1042.0606C184.5165,-1033.6663 177.5842,-1023.4802 171.2783,-1014.2142"/>
<polygon fill="#0000ff" stroke="#0000ff" points="174.0043,-1011.9989 165.4845,-1005.7009 168.2173,-1015.9373 174.0043,-1011.9989"/>
</g>
<!-- BB_002DF781 -->
<g id="node5" class="node">
<title>BB_002DF781</title>
<ellipse fill="none" stroke="#000000" cx="203.3416" cy="-915.8584" rx="70.1118" ry="18"/>
<text text-anchor="middle" x="203.3416" y="-911.6584" font-family="Times,serif" font-size="14.00" fill="#000000">BB_002DF781</text>
</g>
<!-- BB_002DF766&#45;&gt;BB_002DF781 -->
<g id="edge5" class="edge">
<title>BB_002DF766-&gt;BB_002DF781</title>
<path fill="none" stroke="#ff0000" d="M165.7012,-970.0606C171.5907,-961.5798 178.7503,-951.2699 185.2378,-941.928"/>
<polygon fill="#ff0000" stroke="#ff0000" points="188.1218,-943.9111 190.951,-933.7009 182.3722,-939.9183 188.1218,-943.9111"/>
</g>
<!-- BB_002DF7AD -->
<g id="node6" class="node">
<title>BB_002DF7AD</title>
<ellipse fill="none" stroke="#000000" cx="113.3416" cy="-699.8584" rx="74.1836" ry="18"/>
<text text-anchor="middle" x="113.3416" y="-695.6584" font-family="Times,serif" font-size="14.00" fill="#000000">BB_002DF7AD</text>
</g>
<!-- BB_002DF766&#45;&gt;BB_002DF7AD -->
<g id="edge6" class="edge">
<title>BB_002DF766-&gt;BB_002DF7AD</title>
<path fill="none" stroke="#00ff00" d="M140.9685,-969.7368C134.7739,-959.6429 127.86,-946.576 124.3416,-933.8584 104.4054,-861.7971 107.43,-772.5579 110.719,-727.9757"/>
<polygon fill="#00ff00" stroke="#00ff00" points="114.2169,-728.1407 111.5253,-717.8935 107.2392,-727.5826 114.2169,-728.1407"/>
</g>
<!-- BB_002DF78F -->
<g id="node7" class="node">
<title>BB_002DF78F</title>
<ellipse fill="none" stroke="#000000" cx="302.3416" cy="-843.8584" rx="70.6916" ry="18"/>
<text text-anchor="middle" x="302.3416" y="-839.6584" font-family="Times,serif" font-size="14.00" fill="#000000">BB_002DF78F</text>
</g>
<!-- BB_002DF781&#45;&gt;BB_002DF78F -->
<g id="edge7" class="edge">
<title>BB_002DF781-&gt;BB_002DF78F</title>
<path fill="none" stroke="#ff0000" d="M226.8033,-898.7954C239.7775,-889.3596 256.0882,-877.4973 270.2297,-867.2125"/>
<polygon fill="#ff0000" stroke="#ff0000" points="272.6766,-869.7608 278.7053,-861.0484 268.5594,-864.0996 272.6766,-869.7608"/>
</g>
<!-- BB_002DF7A3 -->
<g id="node8" class="node">
<title>BB_002DF7A3</title>
<ellipse fill="none" stroke="#000000" cx="204.3416" cy="-771.8584" rx="72.3981" ry="18"/>
<text text-anchor="middle" x="204.3416" y="-767.6584" font-family="Times,serif" font-size="14.00" fill="#000000">BB_002DF7A3</text>
</g>
<!-- BB_002DF781&#45;&gt;BB_002DF7A3 -->
<g id="edge8" class="edge">
<title>BB_002DF781-&gt;BB_002DF7A3</title>
<path fill="none" stroke="#00ff00" d="M203.4683,-897.6207C203.6389,-873.0594 203.9441,-829.1058 204.1447,-800.2125"/>
<polygon fill="#00ff00" stroke="#00ff00" points="207.6464,-799.9721 204.216,-789.948 200.6466,-799.9234 207.6464,-799.9721"/>
</g>
<!-- BB_002DF840 -->
<g id="node10" class="node">
<title>BB_002DF840</title>
<ellipse fill="none" stroke="#000000" cx="197.3416" cy="-627.8584" rx="70.1118" ry="18"/>
<text text-anchor="middle" x="197.3416" y="-623.6584" font-family="Times,serif" font-size="14.00" fill="#000000">BB_002DF840</text>
</g>
<!-- BB_002DF7AD&#45;&gt;BB_002DF840 -->
<g id="edge12" class="edge">
<title>BB_002DF7AD-&gt;BB_002DF840</title>
<path fill="none" stroke="#ff0000" d="M133.6757,-682.4292C144.4063,-673.2316 157.7352,-661.8068 169.4201,-651.7912"/>
<polygon fill="#ff0000" stroke="#ff0000" points="171.88,-654.2924 177.1948,-645.1271 167.3245,-648.9776 171.88,-654.2924"/>
</g>
<!-- BB_002DF872 -->
<g id="node11" class="node">
<title>BB_002DF872</title>
<ellipse fill="none" stroke="#000000" cx="114.3416" cy="-555.8584" rx="70.1118" ry="18"/>
<text text-anchor="middle" x="114.3416" y="-551.6584" font-family="Times,serif" font-size="14.00" fill="#000000">BB_002DF872</text>
</g>
<!-- BB_002DF7AD&#45;&gt;BB_002DF872 -->
<g id="edge13" class="edge">
<title>BB_002DF7AD-&gt;BB_002DF872</title>
<path fill="none" stroke="#00ff00" d="M113.4683,-681.6207C113.6389,-657.0594 113.9441,-613.1058 114.1447,-584.2125"/>
<polygon fill="#00ff00" stroke="#00ff00" points="117.6464,-583.9721 114.216,-573.948 110.6466,-583.9234 117.6464,-583.9721"/>
</g>
<!-- BB_002DF78F&#45;&gt;BB_002DF7A3 -->
<g id="edge9" class="edge">
<title>BB_002DF78F-&gt;BB_002DF7A3</title>
<path fill="none" stroke="#ff0000" d="M279.117,-826.7954C266.2738,-817.3596 250.1279,-805.4973 236.1292,-795.2125"/>
<polygon fill="#ff0000" stroke="#ff0000" points="237.8703,-792.1486 227.7392,-789.0484 233.7257,-797.7898 237.8703,-792.1486"/>
</g>
<!-- BB_002DFADF -->
<g id="node9" class="node">
<title>BB_002DFADF</title>
<ellipse fill="none" stroke="#000000" cx="304.3416" cy="-699.8584" rx="74.7631" ry="18"/>
<text text-anchor="middle" x="304.3416" y="-695.6584" font-family="Times,serif" font-size="14.00" fill="#000000">BB_002DFADF</text>
</g>
<!-- BB_002DF78F&#45;&gt;BB_002DFADF -->
<g id="edge10" class="edge">
<title>BB_002DF78F-&gt;BB_002DFADF</title>
<path fill="none" stroke="#00ff00" d="M302.5949,-825.6207C302.9361,-801.0594 303.5465,-757.1058 303.9478,-728.2125"/>
<polygon fill="#00ff00" stroke="#00ff00" points="307.4511,-727.9957 304.0904,-717.948 300.4518,-727.8984 307.4511,-727.9957"/>
</g>
<!-- BB_002DF7A3&#45;&gt;BB_002DF7AD -->
<g id="edge11" class="edge">
<title>BB_002DF7A3-&gt;BB_002DF7AD</title>
<path fill="none" stroke="#0000ff" d="M182.3131,-754.4292C170.5765,-745.1431 155.9707,-733.5869 143.2253,-723.5026"/>
<polygon fill="#0000ff" stroke="#0000ff" points="145.1813,-720.5872 135.1673,-717.1271 140.8379,-726.0767 145.1813,-720.5872"/>
</g>
<!-- BB_002DFAE4 -->
<g id="node16" class="node">
<title>BB_002DFAE4</title>
<ellipse fill="none" stroke="#000000" cx="296.3416" cy="-339.8584" rx="73.0402" ry="18"/>
<text text-anchor="middle" x="296.3416" y="-335.6584" font-family="Times,serif" font-size="14.00" fill="#000000">BB_002DFAE4</text>
</g>
<!-- BB_002DFADF&#45;&gt;BB_002DFAE4 -->
<g id="edge27" class="edge">
<title>BB_002DFADF-&gt;BB_002DFAE4</title>
<path fill="none" stroke="#0000ff" d="M304.3416,-681.673C304.3416,-654.3567 304.3416,-601.1084 304.3416,-555.8584 304.3416,-555.8584 304.3416,-555.8584 304.3416,-483.8584 304.3416,-443.6725 301.1972,-397.2754 298.8511,-368.2502"/>
<polygon fill="#0000ff" stroke="#0000ff" points="302.3175,-367.7006 297.9992,-358.0258 295.3417,-368.2819 302.3175,-367.7006"/>
</g>
<!-- BB_002DF840&#45;&gt;BB_002DF872 -->
<g id="edge14" class="edge">
<title>BB_002DF840-&gt;BB_002DF872</title>
<path fill="none" stroke="#0000ff" d="M177.2497,-610.4292C166.6468,-601.2316 153.4766,-589.8068 141.9308,-579.7912"/>
<polygon fill="#0000ff" stroke="#0000ff" points="144.096,-577.036 134.2486,-573.1271 139.509,-582.3238 144.096,-577.036"/>
</g>
<!-- BB_002DF88D -->
<g id="node12" class="node">
<title>BB_002DF88D</title>
<ellipse fill="none" stroke="#000000" cx="123.3416" cy="-483.8584" rx="72.3981" ry="18"/>
<text text-anchor="middle" x="123.3416" y="-479.6584" font-family="Times,serif" font-size="14.00" fill="#000000">BB_002DF88D</text>
</g>
<!-- BB_002DF872&#45;&gt;BB_002DF88D -->
<g id="edge15" class="edge">
<title>BB_002DF872-&gt;BB_002DF88D</title>
<path fill="none" stroke="#ff0000" d="M116.6127,-537.6898C117.5753,-529.9894 118.7198,-520.8327 119.7896,-512.275"/>
<polygon fill="#ff0000" stroke="#ff0000" points="123.2725,-512.6286 121.04,-502.2717 116.3266,-511.7603 123.2725,-512.6286"/>
</g>
<!-- BB_002DF8B9 -->
<g id="node13" class="node">
<title>BB_002DF8B9</title>
<ellipse fill="none" stroke="#000000" cx="74.3416" cy="-251.0365" rx="71.8357" ry="18"/>
<text text-anchor="middle" x="74.3416" y="-246.8365" font-family="Times,serif" font-size="14.00" fill="#000000">BB_002DF8B9</text>
</g>
<!-- BB_002DF872&#45;&gt;BB_002DF8B9 -->
<g id="edge16" class="edge">
<title>BB_002DF872-&gt;BB_002DF8B9</title>
<path fill="none" stroke="#00ff00" d="M80.9433,-539.8483C66.259,-530.8942 50.5173,-518.2096 42.3416,-501.8584 6.5646,-430.3042 25.4935,-400.0642 42.3416,-321.8584 45.6023,-306.7232 52.3693,-290.9269 58.8441,-278.1031"/>
<polygon fill="#00ff00" stroke="#00ff00" points="62.1092,-279.4146 63.6756,-268.9362 55.9166,-276.1508 62.1092,-279.4146"/>
</g>
<!-- BB_002DF89B -->
<g id="node14" class="node">
<title>BB_002DF89B</title>
<ellipse fill="none" stroke="#000000" cx="204.3416" cy="-411.8584" rx="71.8357" ry="18"/>
<text text-anchor="middle" x="204.3416" y="-407.6584" font-family="Times,serif" font-size="14.00" fill="#000000">BB_002DF89B</text>
</g>
<!-- BB_002DF88D&#45;&gt;BB_002DF89B -->
<g id="edge17" class="edge">
<title>BB_002DF88D-&gt;BB_002DF89B</title>
<path fill="none" stroke="#ff0000" d="M142.9495,-466.4292C153.122,-457.387 165.7161,-446.1922 176.8448,-436.3001"/>
<polygon fill="#ff0000" stroke="#ff0000" points="179.4848,-438.6362 184.6336,-429.3766 174.8342,-433.4044 179.4848,-438.6362"/>
</g>
<!-- BB_002DF8AF -->
<g id="node15" class="node">
<title>BB_002DF8AF</title>
<ellipse fill="none" stroke="#000000" cx="124.3416" cy="-339.8584" rx="72.978" ry="18"/>
<text text-anchor="middle" x="124.3416" y="-335.6584" font-family="Times,serif" font-size="14.00" fill="#000000">BB_002DF8AF</text>
</g>
<!-- BB_002DF88D&#45;&gt;BB_002DF8AF -->
<g id="edge18" class="edge">
<title>BB_002DF88D-&gt;BB_002DF8AF</title>
<path fill="none" stroke="#00ff00" d="M123.2426,-465.5864C123.1673,-447.4027 123.1116,-418.7011 123.3416,-393.8584 123.4177,-385.644 123.5588,-376.7275 123.7116,-368.5517"/>
<polygon fill="#00ff00" stroke="#00ff00" points="127.2148,-368.4193 123.9145,-358.3516 120.2162,-368.2799 127.2148,-368.4193"/>
</g>
<!-- BB_002DFA4A -->
<g id="node17" class="node">
<title>BB_002DFA4A</title>
<ellipse fill="none" stroke="#000000" cx="74.3416" cy="-162.2146" rx="74.1836" ry="18"/>
<text text-anchor="middle" x="74.3416" y="-158.0146" font-family="Times,serif" font-size="14.00" fill="#000000">BB_002DFA4A</text>
</g>
<!-- BB_002DF8B9&#45;&gt;BB_002DFA4A -->
<g id="edge22" class="edge">
<title>BB_002DF8B9-&gt;BB_002DFA4A</title>
<path fill="none" stroke="#0000ff" d="M74.3416,-232.6325C74.3416,-220.5239 74.3416,-204.4326 74.3416,-190.689"/>
<polygon fill="#0000ff" stroke="#0000ff" points="77.8417,-190.291 74.3416,-180.2911 70.8417,-190.2911 77.8417,-190.291"/>
</g>
<!-- BB_002DF89B&#45;&gt;BB_002DF8AF -->
<g id="edge19" class="edge">
<title>BB_002DF89B-&gt;BB_002DF8AF</title>
<path fill="none" stroke="#ff0000" d="M184.9759,-394.4292C174.9289,-385.387 162.4904,-374.1922 151.499,-364.3001"/>
<polygon fill="#ff0000" stroke="#ff0000" points="153.5807,-361.4648 143.8064,-357.3766 148.8979,-366.6679 153.5807,-361.4648"/>
</g>
<!-- BB_002DF89B&#45;&gt;BB_002DFAE4 -->
<g id="edge20" class="edge">
<title>BB_002DF89B-&gt;BB_002DFAE4</title>
<path fill="none" stroke="#00ff00" d="M226.6123,-394.4292C238.4778,-385.1431 253.2442,-373.5869 266.1296,-363.5026"/>
<polygon fill="#00ff00" stroke="#00ff00" points="268.5581,-366.0465 274.2761,-357.1271 264.2439,-360.5339 268.5581,-366.0465"/>
</g>
<!-- BB_002DF8AF&#45;&gt;BB_002DF8B9 -->
<g id="edge21" class="edge">
<title>BB_002DF8AF-&gt;BB_002DF8B9</title>
<path fill="none" stroke="#0000ff" d="M114.2234,-321.884C107.1074,-309.2428 97.4621,-292.1086 89.4396,-277.8571"/>
<polygon fill="#0000ff" stroke="#0000ff" points="92.4003,-275.9815 84.4448,-268.9842 86.3003,-279.4153 92.4003,-275.9815"/>
</g>
<!-- dead_end -->
<g id="node22" class="node">
<title>dead_end</title>
<polygon fill="none" stroke="#000000" points="330.9863,-285.6812 261.6969,-285.6812 261.6969,-216.3918 330.9863,-216.3918 330.9863,-285.6812"/>
<polyline fill="none" stroke="#000000" points="273.6969,-285.6812 261.6969,-273.6812 "/>
<polyline fill="none" stroke="#000000" points="261.6969,-228.3918 273.6969,-216.3918 "/>
<polyline fill="none" stroke="#000000" points="318.9863,-216.3918 330.9863,-228.3918 "/>
<polyline fill="none" stroke="#000000" points="330.9863,-273.6812 318.9863,-285.6812 "/>
<text text-anchor="middle" x="296.3416" y="-246.8365" font-family="Times,serif" font-size="14.00" fill="#000000">dead_end</text>
</g>
<!-- BB_002DFAE4&#45;&gt;dead_end -->
<g id="edge28" class="edge">
<title>BB_002DFAE4-&gt;dead_end</title>
<path fill="none" stroke="#000000" d="M296.3416,-321.4544C296.3416,-313.9968 296.3416,-305.0284 296.3416,-296.0283"/>
<polygon fill="#000000" stroke="#000000" points="299.8417,-295.9321 296.3416,-285.9321 292.8417,-295.9322 299.8417,-295.9321"/>
</g>
<!-- BB_002DFA58 -->
<g id="node18" class="node">
<title>BB_002DFA58</title>
<ellipse fill="none" stroke="#000000" cx="74.3416" cy="-90.2146" rx="72.3981" ry="18"/>
<text text-anchor="middle" x="74.3416" y="-86.0146" font-family="Times,serif" font-size="14.00" fill="#000000">BB_002DFA58</text>
</g>
<!-- BB_002DFA4A&#45;&gt;BB_002DFA58 -->
<g id="edge23" class="edge">
<title>BB_002DFA4A-&gt;BB_002DFA58</title>
<path fill="none" stroke="#0000ff" d="M74.3416,-144.046C74.3416,-136.3456 74.3416,-127.1889 74.3416,-118.6312"/>
<polygon fill="#0000ff" stroke="#0000ff" points="77.8417,-118.6278 74.3416,-108.6279 70.8417,-118.6279 77.8417,-118.6278"/>
</g>
<!-- end -->
<g id="node19" class="node">
<title>end</title>
<polygon fill="none" stroke="#000000" points="256.5569,-36.3225 220.1264,-36.3225 220.1264,.1079 256.5569,.1079 256.5569,-36.3225"/>
<polyline fill="none" stroke="#000000" points="232.1264,-36.3225 220.1264,-24.3225 "/>
<polyline fill="none" stroke="#000000" points="220.1264,-11.8921 232.1264,.1079 "/>
<polyline fill="none" stroke="#000000" points="244.5569,.1079 256.5569,-11.8921 "/>
<polyline fill="none" stroke="#000000" points="256.5569,-24.3225 244.5569,-36.3225 "/>
<text text-anchor="middle" x="238.3416" y="-13.9073" font-family="Times,serif" font-size="14.00" fill="#000000">end</text>
</g>
<!-- BB_002DFA58&#45;&gt;end -->
<g id="edge24" class="edge">
<title>BB_002DFA58-&gt;end</title>
<path fill="none" stroke="#000000" d="M110.3321,-74.3903C140.5636,-61.0982 183.1312,-42.3822 210.7292,-30.2479"/>
<polygon fill="#000000" stroke="#000000" points="212.4236,-33.3263 220.1691,-26.0974 209.6061,-26.9184 212.4236,-33.3263"/>
</g>
<!-- BB_002DFA7B -->
<g id="node20" class="node">
<title>BB_002DFA7B</title>
<ellipse fill="none" stroke="#000000" cx="238.3416" cy="-90.2146" rx="73.6215" ry="18"/>
<text text-anchor="middle" x="238.3416" y="-86.0146" font-family="Times,serif" font-size="14.00" fill="#000000">BB_002DFA7B</text>
</g>
<!-- BB_002DFA7B&#45;&gt;end -->
<g id="edge25" class="edge">
<title>BB_002DFA7B-&gt;end</title>
<path fill="none" stroke="#000000" d="M238.3416,-72.0189C238.3416,-64.2477 238.3416,-54.9956 238.3416,-46.3686"/>
<polygon fill="#000000" stroke="#000000" points="241.8417,-46.2972 238.3416,-36.2972 234.8417,-46.2972 241.8417,-46.2972"/>
</g>
<!-- BB_002DFAAD -->
<g id="node21" class="node">
<title>BB_002DFAAD</title>
<ellipse fill="none" stroke="#000000" cx="406.3416" cy="-90.2146" rx="76.469" ry="18"/>
<text text-anchor="middle" x="406.3416" y="-86.0146" font-family="Times,serif" font-size="14.00" fill="#000000">BB_002DFAAD</text>
</g>
<!-- BB_002DFAAD&#45;&gt;end -->
<g id="edge26" class="edge">
<title>BB_002DFAAD-&gt;end</title>
<path fill="none" stroke="#000000" d="M369.4733,-74.3903C338.1959,-60.9657 294.0283,-42.0086 265.7869,-29.8871"/>
<polygon fill="#000000" stroke="#000000" points="267.0788,-26.6328 256.5089,-25.9049 264.3178,-33.0654 267.0788,-26.6328"/>
</g>
</g>
</svg>