<?xml version="1.0" encoding="UTF-8" standalone="no"?><!DOCTYPE svg PUBLIC "-//W3C//DTD SVG 1.1//EN" "http://www.w3.org/Graphics/SVG/1.1/DTD/svg11.dtd"><!-- Generated by graphviz version 2.40.1 (20161225.0304)
 --><!-- Title: G Pages: 1 --><svg xmlns="http://www.w3.org/2000/svg" xmlns:xlink="http://www.w3.org/1999/xlink" width="151pt" height="188pt" viewBox="0.00 0.00 151.34 188.21">
<g id="graph0" class="graph" transform="scale(1 1) rotate(0) translate(4 184.2146)">
<title>G</title>
<polygon fill="#ffffff" stroke="transparent" points="-4,4 -4,-184.2146 147.3353,-184.2146 147.3353,4 -4,4"/>
<!-- start -->
<g id="node1" class="node">
<title>start</title>
<polygon fill="none" stroke="#000000" points="71.6676,-180.2146 32.4303,-162.2146 71.6676,-144.2146 110.9049,-162.2146 71.6676,-180.2146"/>
<polyline fill="none" stroke="#000000" points="43.3374,-167.2182 43.3374,-157.211 "/>
<polyline fill="none" stroke="#000000" points="60.7606,-149.2182 82.5747,-149.2182 "/>
<polyline fill="none" stroke="#000000" points="99.9979,-157.211 99.9979,-167.2182 "/>
<polyline fill="none" stroke="#000000" points="82.5747,-175.211 60.7606,-175.211 "/>
<text text-anchor="middle" x="71.6676" y="-158.0146" font-family="Times,serif" font-size="14.00" fill="#000000">start</text>
</g>
<!-- BB_002DFB20 -->
<g id="node2" class="node">
<title>BB_002DFB20</title>
<ellipse fill="none" stroke="#000000" cx="71.6676" cy="-90.2146" rx="71.8357" ry="18"/>
<text text-anchor="middle" x="71.6676" y="-86.0146" font-family="Times,serif" font-size="14.00" fill="#000000">BB_002DFB20</text>
</g>
<!-- start&#45;&gt;BB_002DFB20 -->
<g id="edge1" class="edge">
<title>start-&gt;BB_002DFB20</title>
<path fill="none" stroke="#000000" d="M71.6676,-144.046C71.6676,-136.3456 71.6676,-127.1889 71.6676,-118.6312"/>
<polygon fill="#000000" stroke="#000000" points="75.1677,-118.6278 71.6676,-108.6279 68.1677,-118.6279 75.1677,-118.6278"/>
</g>
<!-- end -->
<g id="node3" class="node">
<title>end</title>
<polygon fill="none" stroke="#000000" points="89.8829,-36.3225 53.4524,-36.3225 53.4524,.1079 89.8829,.1079 89.8829,-36.3225"/>
<polyline fill="none" stroke="#000000" points="65.4524,-36.3225 53.4524,-24.3225 "/>
<polyline fill="none" stroke="#000000" points="53.4524,-11.8921 65.4524,.1079 "/>
<polyline fill="none" stroke="#000000" points="77.8829,.1079 89.8829,-11.8921 "/>
<polyline fill="none" stroke="#000000" points="89.8829,-24.3225 77.8829,-36.3225 "/>
<text text-anchor="middle" x="71.6676" y="-13.9073" font-family="Times,serif" font-size="14.00" fill="#000000">end</text>
</g>
<!-- BB_002DFB20&#45;&gt;end -->
<g id="edge2" class="edge">
<title>BB_002DFB20-&gt;end</title>
<path fill="none" stroke="#000000" d="M71.6676,-72.0189C71.6676,-64.2477 71.6676,-54.9956 71.6676,-46.3686"/>
<polygon fill="#000000" stroke="#000000" points="75.1677,-46.2972 71.6676,-36.2972 68.1677,-46.2972 75.1677,-46.2972"/>
</g>
</g>
</svg>