<?xml version="1.0" encoding="UTF-8" standalone="no"?><!DOCTYPE svg PUBLIC "-//W3C//DTD SVG 1.1//EN" "http://www.w3.org/Graphics/SVG/1.1/DTD/svg11.dtd"><!-- Generated by graphviz version 2.40.1 (20161225.0304)
 --><!-- Title: G Pages: 1 --><svg xmlns="http://www.w3.org/2000/svg" xmlns:xlink="http://www.w3.org/1999/xlink" width="784pt" height="1014pt" viewBox="0.00 0.00 784.11 1013.64">
<g id="graph0" class="graph" transform="scale(1 1) rotate(0) translate(4 1009.6438)">
<title>G</title>
<polygon fill="#ffffff" stroke="transparent" points="-4,4 -4,-1009.6438 780.1118,-1009.6438 780.1118,4 -4,4"/>
<!-- start -->
<g id="node1" class="node">
<title>start</title>
<polygon fill="none" stroke="#000000" points="706.0559,-1005.6438 666.8186,-987.6438 706.0559,-969.6438 745.2932,-987.6438 706.0559,-1005.6438"/>
<polyline fill="none" stroke="#000000" points="677.7257,-992.6474 677.7257,-982.6402 "/>
<polyline fill="none" stroke="#000000" points="695.1488,-974.6474 716.963,-974.6474 "/>
<polyline fill="none" stroke="#000000" points="734.3861,-982.6402 734.3861,-992.6474 "/>
<polyline fill="none" stroke="#000000" points="716.963,-1000.6402 695.1488,-1000.6402 "/>
<text text-anchor="middle" x="706.0559" y="-983.4438" font-family="Times,serif" font-size="14.00" fill="#000000">start</text>
</g>
<!-- BB_002EB200 -->
<g id="node2" class="node">
<title>BB_002EB200</title>
<ellipse fill="none" stroke="#000000" cx="706.0559" cy="-915.6438" rx="70.1118" ry="18"/>
<text text-anchor="middle" x="706.0559" y="-911.4438" font-family="Times,serif" font-size="14.00" fill="#000000">BB_002EB200</text>
</g>
<!-- start&#45;&gt;BB_002EB200 -->
<g id="edge1" class="edge">
<title>start-&gt;BB_002EB200</title>
<path fill="none" stroke="#000000" d="M706.0559,-969.4752C706.0559,-961.7748 706.0559,-952.6181 706.0559,-944.0604"/>
<polygon fill="#000000" stroke="#000000" points="709.556,-944.057 706.0559,-934.0571 702.556,-944.0571 709.556,-944.057"/>
</g>
<!-- BB_002EB21B -->
<g id="node3" class="node">
<title>BB_002EB21B</title>
<ellipse fill="none" stroke="#000000" cx="656.0559" cy="-843.6438" rx="71.8357" ry="18"/>
<text text-anchor="middle" x="656.0559" y="-839.4438" font-family="Times,serif" font-size="14.00" fill="#000000">BB_002EB21B</text>
</g>
<!-- BB_002EB200&#45;&gt;BB_002EB21B -->
<g id="edge2" class="edge">
<title>BB_002EB200-&gt;BB_002EB21B</title>
<path fill="none" stroke="#ff0000" d="M693.6963,-897.846C687.8068,-889.3652 680.6472,-879.0553 674.1598,-869.7134"/>
<polygon fill="#ff0000" stroke="#ff0000" points="677.0254,-867.7037 668.4465,-861.4863 671.2757,-871.6965 677.0254,-867.7037"/>
</g>
<!-- BB_002EB347 -->
<g id="node4" class="node">
<title>BB_002EB347</title>
<ellipse fill="none" stroke="#000000" cx="658.0559" cy="-195.6438" rx="70.1118" ry="18"/>
<text text-anchor="middle" x="658.0559" y="-191.4438" font-family="Times,serif" font-size="14.00" fill="#000000">BB_002EB347</text>
</g>
<!-- BB_002EB200&#45;&gt;BB_002EB347 -->
<g id="edge3" class="edge">
<title>BB_002EB200-&gt;BB_002EB347</title>
<path fill="none" stroke="#00ff00" d="M718.1619,-897.8556C724.6136,-887.6493 732.1992,-874.3691 737.0559,-861.6438 751.6332,-823.4494 756.0559,-812.5254 756.0559,-771.6438 756.0559,-771.6438 756.0559,-771.6438 756.0559,-339.6438 756.0559,-298.7622 759.7882,-283.6225 737.0559,-249.6438 728.0382,-236.1648 714.4109,-225.1136 701.0006,-216.5985"/>
<polygon fill="#00ff00" stroke="#00ff00" points="702.6474,-213.5051 692.2701,-211.3691 699.0504,-219.5103 702.6474,-213.5051"/>
</g>
<!-- BB_002EB227 -->
<g id="node5" class="node">
<title>BB_002EB227</title>
<ellipse fill="none" stroke="#000000" cx="578.0559" cy="-771.6438" rx="70.1118" ry="18"/>
<text text-anchor="middle" x="578.0559" y="-767.4438" font-family="Times,serif" font-size="14.00" fill="#000000">BB_002EB227</text>
</g>
<!-- BB_002EB21B&#45;&gt;BB_002EB227 -->
<g id="edge4" class="edge">
<title>BB_002EB21B-&gt;BB_002EB227</title>
<path fill="none" stroke="#ff0000" d="M637.1743,-826.2146C627.3785,-817.1724 615.2509,-805.9776 604.5344,-796.0855"/>
<polygon fill="#ff0000" stroke="#ff0000" points="606.756,-793.373 597.034,-789.162 602.0081,-798.5167 606.756,-793.373"/>
</g>
<!-- BB_002EB346 -->
<g id="node6" class="node">
<title>BB_002EB346</title>
<ellipse fill="none" stroke="#000000" cx="658.0559" cy="-267.6438" rx="70.1118" ry="18"/>
<text text-anchor="middle" x="658.0559" y="-263.4438" font-family="Times,serif" font-size="14.00" fill="#000000">BB_002EB346</text>
</g>
<!-- BB_002EB21B&#45;&gt;BB_002EB346 -->
<g id="edge5" class="edge">
<title>BB_002EB21B-&gt;BB_002EB346</title>
<path fill="none" stroke="#00ff00" d="M664.5389,-825.4538C676.2805,-798.5656 696.0559,-746.3477 696.0559,-699.6438 696.0559,-699.6438 696.0559,-699.6438 696.0559,-411.6438 696.0559,-370.0119 681.0231,-323.7838 669.8678,-295.2108"/>
<polygon fill="#00ff00" stroke="#00ff00" points="673.0927,-293.8493 666.1147,-285.877 666.5981,-296.4608 673.0927,-293.8493"/>
</g>
<!-- end -->
<g id="node22" class="node">
<title>end</title>
<polygon fill="none" stroke="#000000" points="515.2711,-53.0371 478.8407,-53.0371 478.8407,-16.6067 515.2711,-16.6067 515.2711,-53.0371"/>
<polyline fill="none" stroke="#000000" points="490.8407,-53.0371 478.8407,-41.0371 "/>
<polyline fill="none" stroke="#000000" points="478.8407,-28.6067 490.8407,-16.6067 "/>
<polyline fill="none" stroke="#000000" points="503.2711,-16.6067 515.2711,-28.6067 "/>
<polyline fill="none" stroke="#000000" points="515.2711,-41.0371 503.2711,-53.0371 "/>
<text text-anchor="middle" x="497.0559" y="-30.6219" font-family="Times,serif" font-size="14.00" fill="#000000">end</text>
</g>
<!-- BB_002EB347&#45;&gt;end -->
<g id="edge37" class="edge">
<title>BB_002EB347-&gt;end</title>
<path fill="none" stroke="#000000" d="M640.5196,-178.1269C612.1502,-149.7889 556.0434,-93.7442 523.028,-60.7653"/>
<polygon fill="#000000" stroke="#000000" points="525.1075,-57.8955 515.559,-53.3045 520.1605,-62.848 525.1075,-57.8955"/>
</g>
<!-- BB_002EB22D -->
<g id="node7" class="node">
<title>BB_002EB22D</title>
<ellipse fill="none" stroke="#000000" cx="278.0559" cy="-699.6438" rx="72.3981" ry="18"/>
<text text-anchor="middle" x="278.0559" y="-695.4438" font-family="Times,serif" font-size="14.00" fill="#000000">BB_002EB22D</text>
</g>
<!-- BB_002EB227&#45;&gt;BB_002EB22D -->
<g id="edge6" class="edge">
<title>BB_002EB227-&gt;BB_002EB22D</title>
<path fill="none" stroke="#ff0000" d="M526.8249,-759.3484C475.1502,-746.9464 395.3231,-727.7879 340.0953,-714.5333"/>
<polygon fill="#ff0000" stroke="#ff0000" points="340.6224,-711.0604 330.0817,-712.13 338.9887,-717.8672 340.6224,-711.0604"/>
</g>
<!-- BB_002EB2FD -->
<g id="node8" class="node">
<title>BB_002EB2FD</title>
<ellipse fill="none" stroke="#000000" cx="578.0559" cy="-699.6438" rx="72.978" ry="18"/>
<text text-anchor="middle" x="578.0559" y="-695.4438" font-family="Times,serif" font-size="14.00" fill="#000000">BB_002EB2FD</text>
</g>
<!-- BB_002EB227&#45;&gt;BB_002EB2FD -->
<g id="edge7" class="edge">
<title>BB_002EB227-&gt;BB_002EB2FD</title>
<path fill="none" stroke="#00ff00" d="M578.0559,-753.4752C578.0559,-745.7748 578.0559,-736.6181 578.0559,-728.0604"/>
<polygon fill="#00ff00" stroke="#00ff00" points="581.556,-728.057 578.0559,-718.0571 574.556,-728.0571 581.556,-728.057"/>
</g>
<!-- BB_002EB346&#45;&gt;BB_002EB347 -->
<g id="edge36" class="edge">
<title>BB_002EB346-&gt;BB_002EB347</title>
<path fill="none" stroke="#0000ff" d="M658.0559,-249.4752C658.0559,-241.7748 658.0559,-232.6181 658.0559,-224.0604"/>
<polygon fill="#0000ff" stroke="#0000ff" points="661.556,-224.057 658.0559,-214.0571 654.556,-224.0571 661.556,-224.057"/>
</g>
<!-- BB_002EB240 -->
<g id="node9" class="node">
<title>BB_002EB240</title>
<ellipse fill="none" stroke="#000000" cx="278.0559" cy="-627.6438" rx="70.1118" ry="18"/>
<text text-anchor="middle" x="278.0559" y="-623.4438" font-family="Times,serif" font-size="14.00" fill="#000000">BB_002EB240</text>
</g>
<!-- BB_002EB22D&#45;&gt;BB_002EB240 -->
<g id="edge8" class="edge">
<title>BB_002EB22D-&gt;BB_002EB240</title>
<path fill="none" stroke="#ff0000" d="M278.0559,-681.4752C278.0559,-673.7748 278.0559,-664.6181 278.0559,-656.0604"/>
<polygon fill="#ff0000" stroke="#ff0000" points="281.556,-656.057 278.0559,-646.0571 274.556,-656.0571 281.556,-656.057"/>
</g>
<!-- BB_002EB354 -->
<g id="node10" class="node">
<title>BB_002EB354</title>
<ellipse fill="none" stroke="#000000" cx="70.0559" cy="-123.6438" rx="70.1118" ry="18"/>
<text text-anchor="middle" x="70.0559" y="-119.4438" font-family="Times,serif" font-size="14.00" fill="#000000">BB_002EB354</text>
</g>
<!-- BB_002EB22D&#45;&gt;BB_002EB354 -->
<g id="edge9" class="edge">
<title>BB_002EB22D-&gt;BB_002EB354</title>
<path fill="none" stroke="#00ff00" d="M209.6934,-693.7509C127.3802,-682.4748 .0559,-649.8128 .0559,-555.6438 .0559,-555.6438 .0559,-555.6438 .0559,-267.6438 .0559,-222.5514 28.1633,-176.7852 48.7566,-149.3053"/>
<polygon fill="#00ff00" stroke="#00ff00" points="51.5297,-151.4407 54.8669,-141.3852 45.9874,-147.1648 51.5297,-151.4407"/>
</g>
<!-- BB_002EB2FD&#45;&gt;BB_002EB346 -->
<g id="edge27" class="edge">
<title>BB_002EB2FD-&gt;BB_002EB346</title>
<path fill="none" stroke="#00ff00" d="M603.873,-682.7708C616.3483,-673.3073 630.4467,-660.4346 639.0559,-645.6438 659.6214,-610.3115 658.0559,-596.5254 658.0559,-555.6438 658.0559,-555.6438 658.0559,-555.6438 658.0559,-411.6438 658.0559,-371.5198 658.0559,-325.1069 658.0559,-296.0615"/>
<polygon fill="#00ff00" stroke="#00ff00" points="661.556,-295.8291 658.0559,-285.8292 654.556,-295.8292 661.556,-295.8291"/>
</g>
<!-- BB_002EB302 -->
<g id="node23" class="node">
<title>BB_002EB302</title>
<ellipse fill="none" stroke="#000000" cx="560.0559" cy="-627.6438" rx="70.1118" ry="18"/>
<text text-anchor="middle" x="560.0559" y="-623.4438" font-family="Times,serif" font-size="14.00" fill="#000000">BB_002EB302</text>
</g>
<!-- BB_002EB2FD&#45;&gt;BB_002EB302 -->
<g id="edge26" class="edge">
<title>BB_002EB2FD-&gt;BB_002EB302</title>
<path fill="none" stroke="#ff0000" d="M573.5137,-681.4752C571.5675,-673.6901 569.2491,-664.4167 567.0896,-655.7785"/>
<polygon fill="#ff0000" stroke="#ff0000" points="570.4801,-654.9096 564.6592,-646.0571 563.6891,-656.6074 570.4801,-654.9096"/>
</g>
<!-- BB_002EB24D -->
<g id="node11" class="node">
<title>BB_002EB24D</title>
<ellipse fill="none" stroke="#000000" cx="358.0559" cy="-555.6438" rx="72.3981" ry="18"/>
<text text-anchor="middle" x="358.0559" y="-551.4438" font-family="Times,serif" font-size="14.00" fill="#000000">BB_002EB24D</text>
</g>
<!-- BB_002EB240&#45;&gt;BB_002EB24D -->
<g id="edge10" class="edge">
<title>BB_002EB240-&gt;BB_002EB24D</title>
<path fill="none" stroke="#ff0000" d="M297.4217,-610.2146C307.4686,-601.1724 319.9072,-589.9776 330.8985,-580.0855"/>
<polygon fill="#ff0000" stroke="#ff0000" points="333.4996,-582.4533 338.5912,-573.162 328.8168,-577.2502 333.4996,-582.4533"/>
</g>
<!-- BB_002EB254 -->
<g id="node12" class="node">
<title>BB_002EB254</title>
<ellipse fill="none" stroke="#000000" cx="198.0559" cy="-555.6438" rx="70.1118" ry="18"/>
<text text-anchor="middle" x="198.0559" y="-551.4438" font-family="Times,serif" font-size="14.00" fill="#000000">BB_002EB254</text>
</g>
<!-- BB_002EB240&#45;&gt;BB_002EB254 -->
<g id="edge11" class="edge">
<title>BB_002EB240-&gt;BB_002EB254</title>
<path fill="none" stroke="#00ff00" d="M258.6901,-610.2146C248.6432,-601.1724 236.2046,-589.9776 225.2133,-580.0855"/>
<polygon fill="#00ff00" stroke="#00ff00" points="227.295,-577.2502 217.5206,-573.162 222.6122,-582.4533 227.295,-577.2502"/>
</g>
<!-- dead_end -->
<g id="node28" class="node">
<title>dead_end</title>
<polygon fill="none" stroke="#000000" points="104.7006,-69.4666 35.4112,-69.4666 35.4112,-.1772 104.7006,-.1772 104.7006,-69.4666"/>
<polyline fill="none" stroke="#000000" points="47.4112,-69.4666 35.4112,-57.4666 "/>
<polyline fill="none" stroke="#000000" points="35.4112,-12.1772 47.4112,-.1772 "/>
<polyline fill="none" stroke="#000000" points="92.7006,-.1772 104.7006,-12.1772 "/>
<polyline fill="none" stroke="#000000" points="104.7006,-57.4666 92.7006,-69.4666 "/>
<text text-anchor="middle" x="70.0559" y="-30.6219" font-family="Times,serif" font-size="14.00" fill="#000000">dead_end</text>
</g>
<!-- BB_002EB354&#45;&gt;dead_end -->
<g id="edge39" class="edge">
<title>BB_002EB354-&gt;dead_end</title>
<path fill="none" stroke="#000000" d="M70.0559,-105.2398C70.0559,-97.7822 70.0559,-88.8138 70.0559,-79.8137"/>
<polygon fill="#000000" stroke="#000000" points="73.556,-79.7175 70.0559,-69.7175 66.556,-79.7176 73.556,-79.7175"/>
</g>
<!-- BB_002EB272 -->
<g id="node13" class="node">
<title>BB_002EB272</title>
<ellipse fill="none" stroke="#000000" cx="178.0559" cy="-411.6438" rx="70.1118" ry="18"/>
<text text-anchor="middle" x="178.0559" y="-407.4438" font-family="Times,serif" font-size="14.00" fill="#000000">BB_002EB272</text>
</g>
<!-- BB_002EB24D&#45;&gt;BB_002EB272 -->
<g id="edge12" class="edge">
<title>BB_002EB24D-&gt;BB_002EB272</title>
<path fill="none" stroke="#0000ff" d="M359.1995,-537.4343C359.4417,-517.4053 356.687,-485.4398 339.0559,-465.6438 325.5891,-450.5235 280.2224,-436.0826 241.0653,-425.9452"/>
<polygon fill="#0000ff" stroke="#0000ff" points="241.8204,-422.526 231.2671,-423.4628 240.1012,-429.3116 241.8204,-422.526"/>
</g>
<!-- BB_002EB263 -->
<g id="node14" class="node">
<title>BB_002EB263</title>
<ellipse fill="none" stroke="#000000" cx="98.0559" cy="-483.6438" rx="70.1118" ry="18"/>
<text text-anchor="middle" x="98.0559" y="-479.4438" font-family="Times,serif" font-size="14.00" fill="#000000">BB_002EB263</text>
</g>
<!-- BB_002EB254&#45;&gt;BB_002EB263 -->
<g id="edge13" class="edge">
<title>BB_002EB254-&gt;BB_002EB263</title>
<path fill="none" stroke="#ff0000" d="M174.3573,-538.5808C161.1283,-529.056 144.4654,-517.0587 130.0885,-506.7073"/>
<polygon fill="#ff0000" stroke="#ff0000" points="132.0914,-503.8365 121.9309,-500.8338 128.0012,-509.5173 132.0914,-503.8365"/>
</g>
<!-- BB_002EB26A -->
<g id="node15" class="node">
<title>BB_002EB26A</title>
<ellipse fill="none" stroke="#000000" cx="258.0559" cy="-483.6438" rx="72.3981" ry="18"/>
<text text-anchor="middle" x="258.0559" y="-479.4438" font-family="Times,serif" font-size="14.00" fill="#000000">BB_002EB26A</text>
</g>
<!-- BB_002EB254&#45;&gt;BB_002EB26A -->
<g id="edge14" class="edge">
<title>BB_002EB254-&gt;BB_002EB26A</title>
<path fill="none" stroke="#00ff00" d="M212.8874,-537.846C220.0269,-529.2786 228.7218,-518.8447 236.5693,-509.4277"/>
<polygon fill="#00ff00" stroke="#00ff00" points="239.474,-511.4092 243.1871,-501.4863 234.0964,-506.9279 239.474,-511.4092"/>
</g>
<!-- BB_002EB296 -->
<g id="node16" class="node">
<title>BB_002EB296</title>
<ellipse fill="none" stroke="#000000" cx="294.0559" cy="-339.6438" rx="70.1118" ry="18"/>
<text text-anchor="middle" x="294.0559" y="-335.4438" font-family="Times,serif" font-size="14.00" fill="#000000">BB_002EB296</text>
</g>
<!-- BB_002EB272&#45;&gt;BB_002EB296 -->
<g id="edge17" class="edge">
<title>BB_002EB272-&gt;BB_002EB296</title>
<path fill="none" stroke="#ff0000" d="M204.9602,-394.9446C220.8046,-385.1101 241.0445,-372.5474 258.2279,-361.8818"/>
<polygon fill="#ff0000" stroke="#ff0000" points="260.245,-364.7493 266.8957,-356.5019 256.5535,-358.8018 260.245,-364.7493"/>
</g>
<!-- BB_002EB2DF -->
<g id="node17" class="node">
<title>BB_002EB2DF</title>
<ellipse fill="none" stroke="#000000" cx="497.0559" cy="-267.6438" rx="72.978" ry="18"/>
<text text-anchor="middle" x="497.0559" y="-263.4438" font-family="Times,serif" font-size="14.00" fill="#000000">BB_002EB2DF</text>
</g>
<!-- BB_002EB272&#45;&gt;BB_002EB2DF -->
<g id="edge18" class="edge">
<title>BB_002EB272-&gt;BB_002EB2DF</title>
<path fill="none" stroke="#00ff00" d="M235.8849,-401.3053C275.7449,-392.8353 329.2255,-378.762 373.0559,-357.6438 409.2265,-340.2162 445.8506,-312.0527 469.8195,-291.8714"/>
<polygon fill="#00ff00" stroke="#00ff00" points="472.1124,-294.516 477.444,-285.3604 467.5666,-289.1928 472.1124,-294.516"/>
</g>
<!-- BB_002EB263&#45;&gt;BB_002EB272 -->
<g id="edge15" class="edge">
<title>BB_002EB263-&gt;BB_002EB272</title>
<path fill="none" stroke="#0000ff" d="M117.4217,-466.2146C127.4686,-457.1724 139.9072,-445.9776 150.8985,-436.0855"/>
<polygon fill="#0000ff" stroke="#0000ff" points="153.4996,-438.4533 158.5912,-429.162 148.8168,-433.2502 153.4996,-438.4533"/>
</g>
<!-- BB_002EB26A&#45;&gt;BB_002EB272 -->
<g id="edge16" class="edge">
<title>BB_002EB26A-&gt;BB_002EB272</title>
<path fill="none" stroke="#0000ff" d="M238.6901,-466.2146C228.6432,-457.1724 216.2046,-445.9776 205.2133,-436.0855"/>
<polygon fill="#0000ff" stroke="#0000ff" points="207.295,-433.2502 197.5206,-429.162 202.6122,-438.4533 207.295,-433.2502"/>
</g>
<!-- BB_002EB2AB -->
<g id="node18" class="node">
<title>BB_002EB2AB</title>
<ellipse fill="none" stroke="#000000" cx="294.0559" cy="-267.6438" rx="73.6215" ry="18"/>
<text text-anchor="middle" x="294.0559" y="-263.4438" font-family="Times,serif" font-size="14.00" fill="#000000">BB_002EB2AB</text>
</g>
<!-- BB_002EB296&#45;&gt;BB_002EB2AB -->
<g id="edge19" class="edge">
<title>BB_002EB296-&gt;BB_002EB2AB</title>
<path fill="none" stroke="#ff0000" d="M294.0559,-321.4752C294.0559,-313.7748 294.0559,-304.6181 294.0559,-296.0604"/>
<polygon fill="#ff0000" stroke="#ff0000" points="297.556,-296.057 294.0559,-286.0571 290.556,-296.0571 297.556,-296.057"/>
</g>
<!-- BB_002EB2C1 -->
<g id="node19" class="node">
<title>BB_002EB2C1</title>
<ellipse fill="none" stroke="#000000" cx="396.0559" cy="-123.6438" rx="71.8357" ry="18"/>
<text text-anchor="middle" x="396.0559" y="-119.4438" font-family="Times,serif" font-size="14.00" fill="#000000">BB_002EB2C1</text>
</g>
<!-- BB_002EB296&#45;&gt;BB_002EB2C1 -->
<g id="edge20" class="edge">
<title>BB_002EB296-&gt;BB_002EB2C1</title>
<path fill="none" stroke="#00ff00" d="M331.5127,-324.2875C348.2026,-315.4824 366.4508,-302.7343 377.0559,-285.6438 402.5194,-244.6083 402.4884,-186.3514 399.6302,-152.03"/>
<polygon fill="#00ff00" stroke="#00ff00" points="403.0848,-151.3934 398.6316,-141.7799 396.1178,-152.0722 403.0848,-151.3934"/>
</g>
<!-- BB_002EB2DF&#45;&gt;end -->
<g id="edge25" class="edge">
<title>BB_002EB2DF-&gt;end</title>
<path fill="none" stroke="#000000" d="M497.0559,-249.3747C497.0559,-208.9123 497.0559,-111.5029 497.0559,-63.1013"/>
<polygon fill="#000000" stroke="#000000" points="500.556,-63.0061 497.0559,-53.0062 493.556,-63.0062 500.556,-63.0061"/>
</g>
<!-- BB_002EB2BF -->
<g id="node20" class="node">
<title>BB_002EB2BF</title>
<ellipse fill="none" stroke="#000000" cx="296.0559" cy="-195.6438" rx="72.4155" ry="18"/>
<text text-anchor="middle" x="296.0559" y="-191.4438" font-family="Times,serif" font-size="14.00" fill="#000000">BB_002EB2BF</text>
</g>
<!-- BB_002EB2AB&#45;&gt;BB_002EB2BF -->
<g id="edge21" class="edge">
<title>BB_002EB2AB-&gt;BB_002EB2BF</title>
<path fill="none" stroke="#ff0000" d="M294.5606,-249.4752C294.7745,-241.7748 295.0288,-232.6181 295.2665,-224.0604"/>
<polygon fill="#ff0000" stroke="#ff0000" points="298.7653,-224.1504 295.5444,-214.0571 291.768,-223.956 298.7653,-224.1504"/>
</g>
<!-- BB_002EB34F -->
<g id="node21" class="node">
<title>BB_002EB34F</title>
<ellipse fill="none" stroke="#000000" cx="135.0559" cy="-195.6438" rx="70.6916" ry="18"/>
<text text-anchor="middle" x="135.0559" y="-191.4438" font-family="Times,serif" font-size="14.00" fill="#000000">BB_002EB34F</text>
</g>
<!-- BB_002EB2AB&#45;&gt;BB_002EB34F -->
<g id="edge22" class="edge">
<title>BB_002EB2AB-&gt;BB_002EB34F</title>
<path fill="none" stroke="#00ff00" d="M258.7686,-251.6647C235.2422,-241.0112 204.1415,-226.9278 179.0092,-215.5472"/>
<polygon fill="#00ff00" stroke="#00ff00" points="180.2508,-212.2673 169.6974,-211.3305 177.3632,-218.644 180.2508,-212.2673"/>
</g>
<!-- BB_002EB2C1&#45;&gt;end -->
<g id="edge24" class="edge">
<title>BB_002EB2C1-&gt;end</title>
<path fill="none" stroke="#000000" d="M416.0102,-106.0955C431.721,-92.279 453.7497,-72.9065 470.876,-57.8452"/>
<polygon fill="#000000" stroke="#000000" points="473.6425,-60.0731 478.8405,-50.841 469.0198,-54.8166 473.6425,-60.0731"/>
</g>
<!-- BB_002EB2BF&#45;&gt;BB_002EB2C1 -->
<g id="edge23" class="edge">
<title>BB_002EB2BF-&gt;BB_002EB2C1</title>
<path fill="none" stroke="#0000ff" d="M319.7545,-178.5808C332.9835,-169.056 349.6464,-157.0587 364.0233,-146.7073"/>
<polygon fill="#0000ff" stroke="#0000ff" points="366.1106,-149.5173 372.1808,-140.8338 362.0204,-143.8365 366.1106,-149.5173"/>
</g>
<!-- BB_002EB34F&#45;&gt;BB_002EB354 -->
<g id="edge38" class="edge">
<title>BB_002EB34F-&gt;BB_002EB354</title>
<path fill="none" stroke="#0000ff" d="M118.9885,-177.846C111.1171,-169.127 101.5006,-158.4749 92.8826,-148.9287"/>
<polygon fill="#0000ff" stroke="#0000ff" points="95.2375,-146.3142 85.9385,-141.2368 90.0416,-151.0049 95.2375,-146.3142"/>
</g>
<!-- BB_002EB302&#45;&gt;BB_002EB346 -->
<g id="edge29" class="edge">
<title>BB_002EB302-&gt;BB_002EB346</title>
<path fill="none" stroke="#00ff00" d="M576.6768,-609.9669C585.1791,-600.0031 594.9881,-586.9189 601.0559,-573.6438 618.051,-536.4621 620.0559,-524.5254 620.0559,-483.6438 620.0559,-483.6438 620.0559,-483.6438 620.0559,-411.6438 620.0559,-370.0119 635.0887,-323.7838 646.244,-295.2108"/>
<polygon fill="#00ff00" stroke="#00ff00" points="649.5137,-296.4608 649.9971,-285.877 643.019,-293.8493 649.5137,-296.4608"/>
</g>
<!-- BB_002EB307 -->
<g id="node24" class="node">
<title>BB_002EB307</title>
<ellipse fill="none" stroke="#000000" cx="522.0559" cy="-555.6438" rx="70.1118" ry="18"/>
<text text-anchor="middle" x="522.0559" y="-551.4438" font-family="Times,serif" font-size="14.00" fill="#000000">BB_002EB307</text>
</g>
<!-- BB_002EB302&#45;&gt;BB_002EB307 -->
<g id="edge28" class="edge">
<title>BB_002EB302-&gt;BB_002EB307</title>
<path fill="none" stroke="#ff0000" d="M550.4669,-609.4752C546.1589,-601.3126 540.9873,-591.5138 536.244,-582.5265"/>
<polygon fill="#ff0000" stroke="#ff0000" points="539.2732,-580.7674 531.5102,-573.5572 533.0825,-584.0347 539.2732,-580.7674"/>
</g>
<!-- BB_002EB323 -->
<g id="node25" class="node">
<title>BB_002EB323</title>
<ellipse fill="none" stroke="#000000" cx="456.0559" cy="-483.6438" rx="70.1118" ry="18"/>
<text text-anchor="middle" x="456.0559" y="-479.4438" font-family="Times,serif" font-size="14.00" fill="#000000">BB_002EB323</text>
</g>
<!-- BB_002EB307&#45;&gt;BB_002EB323 -->
<g id="edge30" class="edge">
<title>BB_002EB307-&gt;BB_002EB323</title>
<path fill="none" stroke="#ff0000" d="M505.7413,-537.846C497.6689,-529.0398 487.7889,-518.2617 478.9715,-508.6427"/>
<polygon fill="#ff0000" stroke="#ff0000" points="481.5202,-506.2433 472.1828,-501.2368 476.3601,-510.9734 481.5202,-506.2433"/>
</g>
<!-- BB_002EB335 -->
<g id="node26" class="node">
<title>BB_002EB335</title>
<ellipse fill="none" stroke="#000000" cx="522.0559" cy="-339.6438" rx="70.1118" ry="18"/>
<text text-anchor="middle" x="522.0559" y="-335.4438" font-family="Times,serif" font-size="14.00" fill="#000000">BB_002EB335</text>
</g>
<!-- BB_002EB307&#45;&gt;BB_002EB335 -->
<g id="edge31" class="edge">
<title>BB_002EB307-&gt;BB_002EB335</title>
<path fill="none" stroke="#00ff00" d="M527.6005,-537.345C530.4524,-526.9791 533.624,-513.7091 535.0559,-501.6438 540.7126,-453.9783 540.7126,-441.3093 535.0559,-393.6438 534.0491,-385.1604 532.1822,-376.0814 530.1711,-367.8351"/>
<polygon fill="#00ff00" stroke="#00ff00" points="533.5031,-366.7409 527.6005,-357.9426 526.7281,-368.5014 533.5031,-366.7409"/>
</g>
<!-- BB_002EB323&#45;&gt;BB_002EB34F -->
<g id="edge33" class="edge">
<title>BB_002EB323-&gt;BB_002EB34F</title>
<path fill="none" stroke="#00ff00" d="M410.7946,-469.6508C357.9894,-451.3431 270.8229,-414.7108 215.0559,-357.6438 177.0445,-318.7463 153.825,-258.2265 142.7972,-223.2161"/>
<polygon fill="#00ff00" stroke="#00ff00" points="146.143,-222.1886 139.8853,-213.6392 139.4458,-224.2249 146.143,-222.1886"/>
</g>
<!-- BB_002EB333 -->
<g id="node27" class="node">
<title>BB_002EB333</title>
<ellipse fill="none" stroke="#000000" cx="456.0559" cy="-411.6438" rx="70.1118" ry="18"/>
<text text-anchor="middle" x="456.0559" y="-407.4438" font-family="Times,serif" font-size="14.00" fill="#000000">BB_002EB333</text>
</g>
<!-- BB_002EB323&#45;&gt;BB_002EB333 -->
<g id="edge32" class="edge">
<title>BB_002EB323-&gt;BB_002EB333</title>
<path fill="none" stroke="#ff0000" d="M456.0559,-465.4752C456.0559,-457.7748 456.0559,-448.6181 456.0559,-440.0604"/>
<polygon fill="#ff0000" stroke="#ff0000" points="459.556,-440.057 456.0559,-430.0571 452.556,-440.0571 459.556,-440.057"/>
</g>
<!-- BB_002EB335&#45;&gt;BB_002EB346 -->
<g id="edge35" class="edge">
<title>BB_002EB335-&gt;BB_002EB346</title>
<path fill="none" stroke="#0000ff" d="M552.9164,-323.3059C572.3045,-313.0416 597.5032,-299.7011 618.3708,-288.6535"/>
<polygon fill="#0000ff" stroke="#0000ff" points="620.1172,-291.6893 627.3175,-283.9171 616.842,-285.5027 620.1172,-291.6893"/>
</g>
<!-- BB_002EB333&#45;&gt;BB_002EB335 -->
<g id="edge34" class="edge">
<title>BB_002EB333-&gt;BB_002EB335</title>
<path fill="none" stroke="#0000ff" d="M472.3705,-393.846C480.4429,-385.0398 490.3229,-374.2617 499.1402,-364.6427"/>
<polygon fill="#0000ff" stroke="#0000ff" points="501.7517,-366.9734 505.9289,-357.2368 496.5916,-362.2433 501.7517,-366.9734"/>
</g>
</g>
</svg>