<?xml version="1.0" encoding="UTF-8" standalone="no"?><!DOCTYPE svg PUBLIC "-//W3C//DTD SVG 1.1//EN" "http://www.w3.org/Graphics/SVG/1.1/DTD/svg11.dtd"><!-- Generated by graphviz version 2.40.1 (20161225.0304)
 --><!-- Title: G Pages: 1 --><svg xmlns="http://www.w3.org/2000/svg" xmlns:xlink="http://www.w3.org/1999/xlink" width="322pt" height="294pt" viewBox="0.00 0.00 322.15 293.64">
<g id="graph0" class="graph" transform="scale(1 1) rotate(0) translate(4 289.6438)">
<title>G</title>
<polygon fill="#ffffff" stroke="transparent" points="-4,4 -4,-289.6438 318.1522,-289.6438 318.1522,4 -4,4"/>
<!-- start -->
<g id="node1" class="node">
<title>start</title>
<polygon fill="none" stroke="#000000" points="157.3416,-285.6438 118.1043,-267.6438 157.3416,-249.6438 196.579,-267.6438 157.3416,-285.6438"/>
<polyline fill="none" stroke="#000000" points="129.0114,-272.6474 129.0114,-262.6402 "/>
<polyline fill="none" stroke="#000000" points="146.4346,-254.6474 168.2487,-254.6474 "/>
<polyline fill="none" stroke="#000000" points="185.6719,-262.6402 185.6719,-272.6474 "/>
<polyline fill="none" stroke="#000000" points="168.2487,-280.6402 146.4346,-280.6402 "/>
<text text-anchor="middle" x="157.3416" y="-263.4438" font-family="Times,serif" font-size="14.00" fill="#000000">start</text>
</g>
<!-- BB_002ECD20 -->
<g id="node2" class="node">
<title>BB_002ECD20</title>
<ellipse fill="none" stroke="#000000" cx="157.3416" cy="-195.6438" rx="72.3981" ry="18"/>
<text text-anchor="middle" x="157.3416" y="-191.4438" font-family="Times,serif" font-size="14.00" fill="#000000">BB_002ECD20</text>
</g>
<!-- start&#45;&gt;BB_002ECD20 -->
<g id="edge1" class="edge">
<title>start-&gt;BB_002ECD20</title>
<path fill="none" stroke="#000000" d="M157.3416,-249.4752C157.3416,-241.7748 157.3416,-232.6181 157.3416,-224.0604"/>
<polygon fill="#000000" stroke="#000000" points="160.8417,-224.057 157.3416,-214.0571 153.8417,-224.0571 160.8417,-224.057"/>
</g>
<!-- BB_002ECDA4 -->
<g id="node3" class="node">
<title>BB_002ECDA4</title>
<ellipse fill="none" stroke="#000000" cx="74.3416" cy="-123.6438" rx="74.1836" ry="18"/>
<text text-anchor="middle" x="74.3416" y="-119.4438" font-family="Times,serif" font-size="14.00" fill="#000000">BB_002ECDA4</text>
</g>
<!-- BB_002ECD20&#45;&gt;BB_002ECDA4 -->
<g id="edge2" class="edge">
<title>BB_002ECD20-&gt;BB_002ECDA4</title>
<path fill="none" stroke="#ff0000" d="M137.2497,-178.2146C126.7248,-169.0846 113.6701,-157.7601 102.1857,-147.7977"/>
<polygon fill="#ff0000" stroke="#ff0000" points="104.3837,-145.071 94.5363,-141.162 99.7967,-150.3587 104.3837,-145.071"/>
</g>
<!-- BB_002ECDC0 -->
<g id="node4" class="node">
<title>BB_002ECDC0</title>
<ellipse fill="none" stroke="#000000" cx="240.3416" cy="-123.6438" rx="73.6215" ry="18"/>
<text text-anchor="middle" x="240.3416" y="-119.4438" font-family="Times,serif" font-size="14.00" fill="#000000">BB_002ECDC0</text>
</g>
<!-- BB_002ECD20&#45;&gt;BB_002ECDC0 -->
<g id="edge3" class="edge">
<title>BB_002ECD20-&gt;BB_002ECDC0</title>
<path fill="none" stroke="#00ff00" d="M177.4336,-178.2146C187.9585,-169.0846 201.0132,-157.7601 212.4975,-147.7977"/>
<polygon fill="#00ff00" stroke="#00ff00" points="214.8866,-150.3587 220.147,-141.162 210.2996,-145.071 214.8866,-150.3587"/>
</g>
<!-- end -->
<g id="node5" class="node">
<title>end</title>
<polygon fill="none" stroke="#000000" points="92.5569,-53.0371 56.1264,-53.0371 56.1264,-16.6067 92.5569,-16.6067 92.5569,-53.0371"/>
<polyline fill="none" stroke="#000000" points="68.1264,-53.0371 56.1264,-41.0371 "/>
<polyline fill="none" stroke="#000000" points="56.1264,-28.6067 68.1264,-16.6067 "/>
<polyline fill="none" stroke="#000000" points="80.5569,-16.6067 92.5569,-28.6067 "/>
<polyline fill="none" stroke="#000000" points="92.5569,-41.0371 80.5569,-53.0371 "/>
<text text-anchor="middle" x="74.3416" y="-30.6219" font-family="Times,serif" font-size="14.00" fill="#000000">end</text>
</g>
<!-- BB_002ECDA4&#45;&gt;end -->
<g id="edge4" class="edge">
<title>BB_002ECDA4-&gt;end</title>
<path fill="none" stroke="#000000" d="M74.3416,-105.2398C74.3416,-93.2114 74.3416,-77.2529 74.3416,-63.5696"/>
<polygon fill="#000000" stroke="#000000" points="77.8417,-63.2022 74.3416,-53.2023 70.8417,-63.2023 77.8417,-63.2022"/>
</g>
<!-- dead_end -->
<g id="node6" class="node">
<title>dead_end</title>
<polygon fill="none" stroke="#000000" points="274.9863,-69.4666 205.6969,-69.4666 205.6969,-.1772 274.9863,-.1772 274.9863,-69.4666"/>
<polyline fill="none" stroke="#000000" points="217.6969,-69.4666 205.6969,-57.4666 "/>
<polyline fill="none" stroke="#000000" points="205.6969,-12.1772 217.6969,-.1772 "/>
<polyline fill="none" stroke="#000000" points="262.9863,-.1772 274.9863,-12.1772 "/>
<polyline fill="none" stroke="#000000" points="274.9863,-57.4666 262.9863,-69.4666 "/>
<text text-anchor="middle" x="240.3416" y="-30.6219" font-family="Times,serif" font-size="14.00" fill="#000000">dead_end</text>
</g>
<!-- BB_002ECDC0&#45;&gt;dead_end -->
<g id="edge5" class="edge">
<title>BB_002ECDC0-&gt;dead_end</title>
<path fill="none" stroke="#000000" d="M240.3416,-105.2398C240.3416,-97.7822 240.3416,-88.8138 240.3416,-79.8137"/>
<polygon fill="#000000" stroke="#000000" points="243.8417,-79.7175 240.3416,-69.7175 236.8417,-79.7176 243.8417,-79.7175"/>
</g>
</g>
</svg>