<?xml version="1.0" encoding="UTF-8" standalone="no"?><!DOCTYPE svg PUBLIC "-//W3C//DTD SVG 1.1//EN" "http://www.w3.org/Graphics/SVG/1.1/DTD/svg11.dtd"><!-- Generated by graphviz version 2.40.1 (20161225.0304)
 --><!-- Title: G Pages: 1 --><svg xmlns="http://www.w3.org/2000/svg" xmlns:xlink="http://www.w3.org/1999/xlink" width="645pt" height="1230pt" viewBox="0.00 0.00 644.64 1229.86">
<g id="graph0" class="graph" transform="scale(1 1) rotate(0) translate(4 1225.8584)">
<title>G</title>
<polygon fill="#ffffff" stroke="transparent" points="-4,4 -4,-1225.8584 640.6429,-1225.8584 640.6429,4 -4,4"/>
<!-- start -->
<g id="node1" class="node">
<title>start</title>
<polygon fill="none" stroke="#000000" points="297.587,-1221.8584 258.3497,-1203.8584 297.587,-1185.8584 336.8243,-1203.8584 297.587,-1221.8584"/>
<polyline fill="none" stroke="#000000" points="269.2568,-1208.862 269.2568,-1198.8548 "/>
<polyline fill="none" stroke="#000000" points="286.68,-1190.862 308.4941,-1190.862 "/>
<polyline fill="none" stroke="#000000" points="325.9173,-1198.8548 325.9173,-1208.862 "/>
<polyline fill="none" stroke="#000000" points="308.4941,-1216.8548 286.68,-1216.8548 "/>
<text text-anchor="middle" x="297.587" y="-1199.6584" font-family="Times,serif" font-size="14.00" fill="#000000">start</text>
</g>
<!-- BB_002E02E0 -->
<g id="node2" class="node">
<title>BB_002E02E0</title>
<ellipse fill="none" stroke="#000000" cx="297.587" cy="-1131.8584" rx="69.5302" ry="18"/>
<text text-anchor="middle" x="297.587" y="-1127.6584" font-family="Times,serif" font-size="14.00" fill="#000000">BB_002E02E0</text>
</g>
<!-- start&#45;&gt;BB_002E02E0 -->
<g id="edge1" class="edge">
<title>start-&gt;BB_002E02E0</title>
<path fill="none" stroke="#000000" d="M297.587,-1185.6898C297.587,-1177.9894 297.587,-1168.8327 297.587,-1160.275"/>
<polygon fill="#000000" stroke="#000000" points="301.0871,-1160.2716 297.587,-1150.2717 294.0871,-1160.2717 301.0871,-1160.2716"/>
</g>
<!-- BB_002E0302 -->
<g id="node3" class="node">
<title>BB_002E0302</title>
<ellipse fill="none" stroke="#000000" cx="249.587" cy="-1059.8584" rx="68.3883" ry="18"/>
<text text-anchor="middle" x="249.587" y="-1055.6584" font-family="Times,serif" font-size="14.00" fill="#000000">BB_002E0302</text>
</g>
<!-- BB_002E02E0&#45;&gt;BB_002E0302 -->
<g id="edge2" class="edge">
<title>BB_002E02E0-&gt;BB_002E0302</title>
<path fill="none" stroke="#ff0000" d="M285.7219,-1114.0606C280.1256,-1105.6663 273.3349,-1095.4802 267.1576,-1086.2142"/>
<polygon fill="#ff0000" stroke="#ff0000" points="269.9413,-1084.08 261.4821,-1077.7009 264.1169,-1087.9629 269.9413,-1084.08"/>
</g>
<!-- BB_002E03B5 -->
<g id="node4" class="node">
<title>BB_002E03B5</title>
<ellipse fill="none" stroke="#000000" cx="566.587" cy="-987.8584" rx="70.1118" ry="18"/>
<text text-anchor="middle" x="566.587" y="-983.6584" font-family="Times,serif" font-size="14.00" fill="#000000">BB_002E03B5</text>
</g>
<!-- BB_002E02E0&#45;&gt;BB_002E03B5 -->
<g id="edge3" class="edge">
<title>BB_002E02E0-&gt;BB_002E03B5</title>
<path fill="none" stroke="#00ff00" d="M327.9218,-1115.6197C376.76,-1089.4758 472.8105,-1038.0585 526.9857,-1009.0576"/>
<polygon fill="#00ff00" stroke="#00ff00" points="528.7859,-1012.0639 535.9503,-1004.2587 525.4822,-1005.8925 528.7859,-1012.0639"/>
</g>
<!-- BB_002E030E -->
<g id="node5" class="node">
<title>BB_002E030E</title>
<ellipse fill="none" stroke="#000000" cx="249.587" cy="-987.8584" rx="69.5302" ry="18"/>
<text text-anchor="middle" x="249.587" y="-983.6584" font-family="Times,serif" font-size="14.00" fill="#000000">BB_002E030E</text>
</g>
<!-- BB_002E0302&#45;&gt;BB_002E030E -->
<g id="edge4" class="edge">
<title>BB_002E0302-&gt;BB_002E030E</title>
<path fill="none" stroke="#ff0000" d="M249.587,-1041.6898C249.587,-1033.9894 249.587,-1024.8327 249.587,-1016.275"/>
<polygon fill="#ff0000" stroke="#ff0000" points="253.0871,-1016.2716 249.587,-1006.2717 246.0871,-1016.2717 253.0871,-1016.2716"/>
</g>
<!-- BB_002E03D0 -->
<g id="node6" class="node">
<title>BB_002E03D0</title>
<ellipse fill="none" stroke="#000000" cx="70.587" cy="-411.8584" rx="70.6742" ry="18"/>
<text text-anchor="middle" x="70.587" y="-407.6584" font-family="Times,serif" font-size="14.00" fill="#000000">BB_002E03D0</text>
</g>
<!-- BB_002E0302&#45;&gt;BB_002E03D0 -->
<g id="edge5" class="edge">
<title>BB_002E0302-&gt;BB_002E03D0</title>
<path fill="none" stroke="#00ff00" d="M195.3885,-1048.7855C131.1146,-1032.1197 32.587,-993.8525 32.587,-915.8584 32.587,-915.8584 32.587,-915.8584 32.587,-555.8584 32.587,-514.2265 47.6198,-467.9984 58.7751,-439.4254"/>
<polygon fill="#00ff00" stroke="#00ff00" points="62.0448,-440.6754 62.5282,-430.0916 55.5502,-438.0639 62.0448,-440.6754"/>
</g>
<!-- end -->
<g id="node23" class="node">
<title>end</title>
<polygon fill="none" stroke="#000000" points="580.8023,-36.3225 544.3718,-36.3225 544.3718,.1079 580.8023,.1079 580.8023,-36.3225"/>
<polyline fill="none" stroke="#000000" points="556.3718,-36.3225 544.3718,-24.3225 "/>
<polyline fill="none" stroke="#000000" points="544.3718,-11.8921 556.3718,.1079 "/>
<polyline fill="none" stroke="#000000" points="568.8023,.1079 580.8023,-11.8921 "/>
<polyline fill="none" stroke="#000000" points="580.8023,-24.3225 568.8023,-36.3225 "/>
<text text-anchor="middle" x="562.587" y="-13.9073" font-family="Times,serif" font-size="14.00" fill="#000000">end</text>
</g>
<!-- BB_002E03B5&#45;&gt;end -->
<g id="edge31" class="edge">
<title>BB_002E03B5-&gt;end</title>
<path fill="none" stroke="#000000" d="M576.3424,-969.8102C589.8453,-943.0987 612.587,-891.0986 612.587,-843.8584 612.587,-843.8584 612.587,-843.8584 612.587,-162.2146 612.587,-121.333 608.1479,-110.4152 593.587,-72.2146 590.0757,-63.0026 585.1399,-53.4979 580.2374,-45.0744"/>
<polygon fill="#000000" stroke="#000000" points="583.1729,-43.165 574.9997,-36.4234 577.1849,-46.7905 583.1729,-43.165"/>
</g>
<!-- BB_002E031A -->
<g id="node7" class="node">
<title>BB_002E031A</title>
<ellipse fill="none" stroke="#000000" cx="185.587" cy="-915.8584" rx="70.6742" ry="18"/>
<text text-anchor="middle" x="185.587" y="-911.6584" font-family="Times,serif" font-size="14.00" fill="#000000">BB_002E031A</text>
</g>
<!-- BB_002E030E&#45;&gt;BB_002E031A -->
<g id="edge6" class="edge">
<title>BB_002E030E-&gt;BB_002E031A</title>
<path fill="none" stroke="#ff0000" d="M233.7668,-970.0606C226.0166,-961.3416 216.548,-950.6895 208.0625,-941.1433"/>
<polygon fill="#ff0000" stroke="#ff0000" points="210.4849,-938.6003 201.2253,-933.4514 205.253,-943.2508 210.4849,-938.6003"/>
</g>
<!-- BB_002E0344 -->
<g id="node8" class="node">
<title>BB_002E0344</title>
<ellipse fill="none" stroke="#000000" cx="361.587" cy="-843.8584" rx="68.3883" ry="18"/>
<text text-anchor="middle" x="361.587" y="-839.6584" font-family="Times,serif" font-size="14.00" fill="#000000">BB_002E0344</text>
</g>
<!-- BB_002E030E&#45;&gt;BB_002E0344 -->
<g id="edge7" class="edge">
<title>BB_002E030E-&gt;BB_002E0344</title>
<path fill="none" stroke="#00ff00" d="M263.3204,-970.2012C282.885,-945.0467 318.9049,-898.7354 341.4783,-869.7125"/>
<polygon fill="#00ff00" stroke="#00ff00" points="344.3646,-871.7024 347.7413,-861.6601 338.8391,-867.4048 344.3646,-871.7024"/>
</g>
<!-- dead_end -->
<g id="node24" class="node">
<title>dead_end</title>
<polygon fill="none" stroke="#000000" points="105.2317,-357.6812 35.9423,-357.6812 35.9423,-288.3918 105.2317,-288.3918 105.2317,-357.6812"/>
<polyline fill="none" stroke="#000000" points="47.9423,-357.6812 35.9423,-345.6812 "/>
<polyline fill="none" stroke="#000000" points="35.9423,-300.3918 47.9423,-288.3918 "/>
<polyline fill="none" stroke="#000000" points="93.2317,-288.3918 105.2317,-300.3918 "/>
<polyline fill="none" stroke="#000000" points="105.2317,-345.6812 93.2317,-357.6812 "/>
<text text-anchor="middle" x="70.587" y="-318.8365" font-family="Times,serif" font-size="14.00" fill="#000000">dead_end</text>
</g>
<!-- BB_002E03D0&#45;&gt;dead_end -->
<g id="edge33" class="edge">
<title>BB_002E03D0-&gt;dead_end</title>
<path fill="none" stroke="#000000" d="M70.587,-393.4544C70.587,-385.9968 70.587,-377.0284 70.587,-368.0283"/>
<polygon fill="#000000" stroke="#000000" points="74.0871,-367.9321 70.587,-357.9321 67.0871,-367.9322 74.0871,-367.9321"/>
</g>
<!-- BB_002E031A&#45;&gt;BB_002E03D0 -->
<g id="edge9" class="edge">
<title>BB_002E031A-&gt;BB_002E03D0</title>
<path fill="none" stroke="#00ff00" d="M154.2878,-899.4687C138.8809,-890.1329 120.9999,-877.2286 108.587,-861.8584 81.307,-828.0792 70.587,-815.2777 70.587,-771.8584 70.587,-771.8584 70.587,-771.8584 70.587,-555.8584 70.587,-515.7344 70.587,-469.3215 70.587,-440.2761"/>
<polygon fill="#00ff00" stroke="#00ff00" points="74.0871,-440.0437 70.587,-430.0438 67.0871,-440.0438 74.0871,-440.0437"/>
</g>
<!-- BB_002E0325 -->
<g id="node9" class="node">
<title>BB_002E0325</title>
<ellipse fill="none" stroke="#000000" cx="185.587" cy="-843.8584" rx="68.3883" ry="18"/>
<text text-anchor="middle" x="185.587" y="-839.6584" font-family="Times,serif" font-size="14.00" fill="#000000">BB_002E0325</text>
</g>
<!-- BB_002E031A&#45;&gt;BB_002E0325 -->
<g id="edge8" class="edge">
<title>BB_002E031A-&gt;BB_002E0325</title>
<path fill="none" stroke="#ff0000" d="M185.587,-897.6898C185.587,-889.9894 185.587,-880.8327 185.587,-872.275"/>
<polygon fill="#ff0000" stroke="#ff0000" points="189.0871,-872.2716 185.587,-862.2717 182.0871,-872.2717 189.0871,-872.2716"/>
</g>
<!-- BB_002E0348 -->
<g id="node13" class="node">
<title>BB_002E0348</title>
<ellipse fill="none" stroke="#000000" cx="516.587" cy="-771.8584" rx="68.3883" ry="18"/>
<text text-anchor="middle" x="516.587" y="-767.6584" font-family="Times,serif" font-size="14.00" fill="#000000">BB_002E0348</text>
</g>
<!-- BB_002E0344&#45;&gt;BB_002E0348 -->
<g id="edge13" class="edge">
<title>BB_002E0344-&gt;BB_002E0348</title>
<path fill="none" stroke="#ff0000" d="M395.6024,-828.0577C418.5182,-817.413 448.9335,-803.2846 473.5347,-791.8569"/>
<polygon fill="#ff0000" stroke="#ff0000" points="475.0562,-795.0094 482.651,-787.6222 472.1072,-788.6609 475.0562,-795.0094"/>
</g>
<!-- BB_002E0358 -->
<g id="node14" class="node">
<title>BB_002E0358</title>
<ellipse fill="none" stroke="#000000" cx="361.587" cy="-771.8584" rx="68.3883" ry="18"/>
<text text-anchor="middle" x="361.587" y="-767.6584" font-family="Times,serif" font-size="14.00" fill="#000000">BB_002E0358</text>
</g>
<!-- BB_002E0344&#45;&gt;BB_002E0358 -->
<g id="edge14" class="edge">
<title>BB_002E0344-&gt;BB_002E0358</title>
<path fill="none" stroke="#00ff00" d="M361.587,-825.6898C361.587,-817.9894 361.587,-808.8327 361.587,-800.275"/>
<polygon fill="#00ff00" stroke="#00ff00" points="365.0871,-800.2716 361.587,-790.2717 358.0871,-800.2717 365.0871,-800.2716"/>
</g>
<!-- BB_002E0336 -->
<g id="node10" class="node">
<title>BB_002E0336</title>
<ellipse fill="none" stroke="#000000" cx="206.587" cy="-771.8584" rx="68.3883" ry="18"/>
<text text-anchor="middle" x="206.587" y="-767.6584" font-family="Times,serif" font-size="14.00" fill="#000000">BB_002E0336</text>
</g>
<!-- BB_002E0325&#45;&gt;BB_002E0336 -->
<g id="edge10" class="edge">
<title>BB_002E0325-&gt;BB_002E0336</title>
<path fill="none" stroke="#ff0000" d="M190.8862,-825.6898C193.1568,-817.9047 195.8616,-808.6313 198.3811,-799.9931"/>
<polygon fill="#ff0000" stroke="#ff0000" points="201.7764,-800.8517 201.2165,-790.2717 195.0564,-798.8916 201.7764,-800.8517"/>
</g>
<!-- BB_002E03CB -->
<g id="node11" class="node">
<title>BB_002E03CB</title>
<ellipse fill="none" stroke="#000000" cx="170.587" cy="-483.8584" rx="71.8357" ry="18"/>
<text text-anchor="middle" x="170.587" y="-479.6584" font-family="Times,serif" font-size="14.00" fill="#000000">BB_002E03CB</text>
</g>
<!-- BB_002E0325&#45;&gt;BB_002E03CB -->
<g id="edge11" class="edge">
<title>BB_002E0325-&gt;BB_002E03CB</title>
<path fill="none" stroke="#00ff00" d="M162.1819,-826.8091C150.6632,-817.2121 137.5707,-804.2724 129.587,-789.8584 109.779,-754.096 110.587,-740.74 110.587,-699.8584 110.587,-699.8584 110.587,-699.8584 110.587,-627.8584 110.587,-584.1135 134.4718,-538.2456 152.1019,-510.3475"/>
<polygon fill="#00ff00" stroke="#00ff00" points="155.0478,-512.2374 157.5679,-501.9466 149.1805,-508.4198 155.0478,-512.2374"/>
</g>
<!-- BB_002E035A -->
<g id="node12" class="node">
<title>BB_002E035A</title>
<ellipse fill="none" stroke="#000000" cx="364.587" cy="-699.8584" rx="70.6742" ry="18"/>
<text text-anchor="middle" x="364.587" y="-695.6584" font-family="Times,serif" font-size="14.00" fill="#000000">BB_002E035A</text>
</g>
<!-- BB_002E0336&#45;&gt;BB_002E035A -->
<g id="edge12" class="edge">
<title>BB_002E0336-&gt;BB_002E035A</title>
<path fill="none" stroke="#0000ff" d="M240.8707,-756.2355C264.2899,-745.5634 295.5265,-731.329 320.7527,-719.8335"/>
<polygon fill="#0000ff" stroke="#0000ff" points="322.4495,-722.9067 330.0978,-715.575 319.5467,-716.5369 322.4495,-722.9067"/>
</g>
<!-- BB_002E03CB&#45;&gt;BB_002E03D0 -->
<g id="edge32" class="edge">
<title>BB_002E03CB-&gt;BB_002E03D0</title>
<path fill="none" stroke="#0000ff" d="M146.8884,-466.7954C133.6595,-457.2706 116.9966,-445.2733 102.6196,-434.9219"/>
<polygon fill="#0000ff" stroke="#0000ff" points="104.6225,-432.0511 94.4621,-429.0484 100.5324,-437.7319 104.6225,-432.0511"/>
</g>
<!-- BB_002E035E -->
<g id="node15" class="node">
<title>BB_002E035E</title>
<ellipse fill="none" stroke="#000000" cx="364.587" cy="-627.8584" rx="69.5302" ry="18"/>
<text text-anchor="middle" x="364.587" y="-623.6584" font-family="Times,serif" font-size="14.00" fill="#000000">BB_002E035E</text>
</g>
<!-- BB_002E035A&#45;&gt;BB_002E035E -->
<g id="edge17" class="edge">
<title>BB_002E035A-&gt;BB_002E035E</title>
<path fill="none" stroke="#ff0000" d="M364.587,-681.6898C364.587,-673.9894 364.587,-664.8327 364.587,-656.275"/>
<polygon fill="#ff0000" stroke="#ff0000" points="368.0871,-656.2716 364.587,-646.2717 361.0871,-656.2717 368.0871,-656.2716"/>
</g>
<!-- BB_002E0387 -->
<g id="node16" class="node">
<title>BB_002E0387</title>
<ellipse fill="none" stroke="#000000" cx="462.587" cy="-323.0365" rx="68.3883" ry="18"/>
<text text-anchor="middle" x="462.587" y="-318.8365" font-family="Times,serif" font-size="14.00" fill="#000000">BB_002E0387</text>
</g>
<!-- BB_002E035A&#45;&gt;BB_002E0387 -->
<g id="edge18" class="edge">
<title>BB_002E035A-&gt;BB_002E0387</title>
<path fill="none" stroke="#00ff00" d="M398.5059,-683.9309C414.3828,-674.8618 432.2502,-662.0547 443.587,-645.8584 467.2618,-612.0354 466.587,-597.1439 466.587,-555.8584 466.587,-555.8584 466.587,-555.8584 466.587,-483.8584 466.587,-437.4372 464.9009,-383.502 463.7181,-351.3784"/>
<polygon fill="#00ff00" stroke="#00ff00" points="467.2148,-351.2234 463.3394,-341.3628 460.2198,-351.488 467.2148,-351.2234"/>
</g>
<!-- BB_002E0348&#45;&gt;BB_002E035A -->
<g id="edge15" class="edge">
<title>BB_002E0348-&gt;BB_002E035A</title>
<path fill="none" stroke="#0000ff" d="M483.23,-756.0577C460.9339,-745.4964 431.3983,-731.5058 407.3744,-720.1261"/>
<polygon fill="#0000ff" stroke="#0000ff" points="408.6643,-716.8643 398.1286,-715.7465 405.6676,-723.1905 408.6643,-716.8643"/>
</g>
<!-- BB_002E0358&#45;&gt;BB_002E035A -->
<g id="edge16" class="edge">
<title>BB_002E0358-&gt;BB_002E035A</title>
<path fill="none" stroke="#0000ff" d="M362.344,-753.6898C362.6649,-745.9894 363.0464,-736.8327 363.403,-728.275"/>
<polygon fill="#0000ff" stroke="#0000ff" points="366.9004,-728.4087 363.8198,-718.2717 359.9064,-728.1173 366.9004,-728.4087"/>
</g>
<!-- BB_002E036B -->
<g id="node17" class="node">
<title>BB_002E036B</title>
<ellipse fill="none" stroke="#000000" cx="330.587" cy="-555.8584" rx="70.1118" ry="18"/>
<text text-anchor="middle" x="330.587" y="-551.6584" font-family="Times,serif" font-size="14.00" fill="#000000">BB_002E036B</text>
</g>
<!-- BB_002E035E&#45;&gt;BB_002E036B -->
<g id="edge19" class="edge">
<title>BB_002E035E-&gt;BB_002E036B</title>
<path fill="none" stroke="#ff0000" d="M356.0074,-609.6898C352.1934,-601.6131 347.623,-591.9345 343.4158,-583.0252"/>
<polygon fill="#ff0000" stroke="#ff0000" points="346.4811,-581.3198 339.0461,-573.7718 340.1514,-584.3088 346.4811,-581.3198"/>
</g>
<!-- BB_002E037D -->
<g id="node18" class="node">
<title>BB_002E037D</title>
<ellipse fill="none" stroke="#000000" cx="367.587" cy="-411.8584" rx="70.6742" ry="18"/>
<text text-anchor="middle" x="367.587" y="-407.6584" font-family="Times,serif" font-size="14.00" fill="#000000">BB_002E037D</text>
</g>
<!-- BB_002E035E&#45;&gt;BB_002E037D -->
<g id="edge20" class="edge">
<title>BB_002E035E-&gt;BB_002E037D</title>
<path fill="none" stroke="#00ff00" d="M384.5019,-610.468C394.0611,-600.7777 404.5187,-587.8574 409.587,-573.8584 425.9274,-528.7254 425.1648,-511.2603 409.587,-465.8584 406.0235,-455.4722 399.5559,-445.5449 392.7467,-437.0996"/>
<polygon fill="#00ff00" stroke="#00ff00" points="395.3735,-434.7862 386.1973,-429.4901 390.068,-439.3526 395.3735,-434.7862"/>
</g>
<!-- BB_002E0399 -->
<g id="node20" class="node">
<title>BB_002E0399</title>
<ellipse fill="none" stroke="#000000" cx="454.587" cy="-234.2146" rx="68.3883" ry="18"/>
<text text-anchor="middle" x="454.587" y="-230.0146" font-family="Times,serif" font-size="14.00" fill="#000000">BB_002E0399</text>
</g>
<!-- BB_002E0387&#45;&gt;BB_002E0399 -->
<g id="edge25" class="edge">
<title>BB_002E0387-&gt;BB_002E0399</title>
<path fill="none" stroke="#ff0000" d="M460.9294,-304.6325C459.828,-292.404 458.3608,-276.1136 457.1149,-262.2815"/>
<polygon fill="#ff0000" stroke="#ff0000" points="460.5982,-261.9368 456.2151,-252.2911 453.6264,-262.5648 460.5982,-261.9368"/>
</g>
<!-- BB_002E03AC -->
<g id="node21" class="node">
<title>BB_002E03AC</title>
<ellipse fill="none" stroke="#000000" cx="512.587" cy="-90.2146" rx="72.3981" ry="18"/>
<text text-anchor="middle" x="512.587" y="-86.0146" font-family="Times,serif" font-size="14.00" fill="#000000">BB_002E03AC</text>
</g>
<!-- BB_002E0387&#45;&gt;BB_002E03AC -->
<g id="edge26" class="edge">
<title>BB_002E0387-&gt;BB_002E03AC</title>
<path fill="none" stroke="#00ff00" d="M484.6297,-305.7528C499.9409,-292.6226 519.6616,-273.2772 531.587,-252.2146 547.8931,-223.4149 546.3294,-213.035 550.587,-180.2146 552.6454,-164.3476 555.4162,-159.4684 550.587,-144.2146 547.4212,-134.2146 541.6639,-124.4645 535.5721,-116.0632"/>
<polygon fill="#00ff00" stroke="#00ff00" points="538.3394,-113.9203 529.4524,-108.1522 532.8027,-118.2033 538.3394,-113.9203"/>
</g>
<!-- BB_002E036B&#45;&gt;BB_002E03CB -->
<g id="edge22" class="edge">
<title>BB_002E036B-&gt;BB_002E03CB</title>
<path fill="none" stroke="#00ff00" d="M295.4743,-540.0577C271.8194,-529.413 240.4229,-515.2846 215.0281,-503.8569"/>
<polygon fill="#00ff00" stroke="#00ff00" points="216.1733,-500.5342 205.6178,-499.6222 213.3007,-506.9177 216.1733,-500.5342"/>
</g>
<!-- BB_002E037B -->
<g id="node19" class="node">
<title>BB_002E037B</title>
<ellipse fill="none" stroke="#000000" cx="330.587" cy="-483.8584" rx="70.1118" ry="18"/>
<text text-anchor="middle" x="330.587" y="-479.6584" font-family="Times,serif" font-size="14.00" fill="#000000">BB_002E037B</text>
</g>
<!-- BB_002E036B&#45;&gt;BB_002E037B -->
<g id="edge21" class="edge">
<title>BB_002E036B-&gt;BB_002E037B</title>
<path fill="none" stroke="#ff0000" d="M330.587,-537.6898C330.587,-529.9894 330.587,-520.8327 330.587,-512.275"/>
<polygon fill="#ff0000" stroke="#ff0000" points="334.0871,-512.2716 330.587,-502.2717 327.0871,-512.2717 334.0871,-512.2716"/>
</g>
<!-- BB_002E037D&#45;&gt;BB_002E0387 -->
<g id="edge24" class="edge">
<title>BB_002E037D-&gt;BB_002E0387</title>
<path fill="none" stroke="#0000ff" d="M386.356,-394.3101C400.6687,-380.9281 420.5562,-362.334 436.4293,-347.4931"/>
<polygon fill="#0000ff" stroke="#0000ff" points="438.9428,-349.9346 443.8571,-340.5484 434.1621,-344.8214 438.9428,-349.9346"/>
</g>
<!-- BB_002E037B&#45;&gt;BB_002E037D -->
<g id="edge23" class="edge">
<title>BB_002E037B-&gt;BB_002E037D</title>
<path fill="none" stroke="#0000ff" d="M339.9237,-465.6898C344.1183,-457.5272 349.1538,-447.7284 353.7723,-438.7411"/>
<polygon fill="#0000ff" stroke="#0000ff" points="356.9238,-440.2659 358.3815,-429.7718 350.6978,-437.0664 356.9238,-440.2659"/>
</g>
<!-- BB_002E03A0 -->
<g id="node22" class="node">
<title>BB_002E03A0</title>
<ellipse fill="none" stroke="#000000" cx="452.587" cy="-162.2146" rx="70.6742" ry="18"/>
<text text-anchor="middle" x="452.587" y="-158.0146" font-family="Times,serif" font-size="14.00" fill="#000000">BB_002E03A0</text>
</g>
<!-- BB_002E0399&#45;&gt;BB_002E03A0 -->
<g id="edge27" class="edge">
<title>BB_002E0399-&gt;BB_002E03A0</title>
<path fill="none" stroke="#0000ff" d="M454.0823,-216.046C453.8684,-208.3456 453.6141,-199.1889 453.3764,-190.6312"/>
<polygon fill="#0000ff" stroke="#0000ff" points="456.8749,-190.5268 453.0985,-180.6279 449.8776,-190.7212 456.8749,-190.5268"/>
</g>
<!-- BB_002E03AC&#45;&gt;end -->
<g id="edge30" class="edge">
<title>BB_002E03AC-&gt;end</title>
<path fill="none" stroke="#000000" d="M524.9466,-72.3903C530.7321,-64.0467 537.7434,-53.9354 544.1391,-44.7119"/>
<polygon fill="#000000" stroke="#000000" points="547.2003,-46.4395 550.0224,-36.2274 541.4479,-42.4507 547.2003,-46.4395"/>
</g>
<!-- BB_002E03A0&#45;&gt;BB_002E03AC -->
<g id="edge28" class="edge">
<title>BB_002E03A0-&gt;BB_002E03AC</title>
<path fill="none" stroke="#ff0000" d="M467.4185,-144.4168C474.558,-135.8494 483.2529,-125.4155 491.1004,-115.9985"/>
<polygon fill="#ff0000" stroke="#ff0000" points="494.0051,-117.98 497.7182,-108.0571 488.6276,-113.4987 494.0051,-117.98"/>
</g>
<!-- BB_002E03A0&#45;&gt;BB_002E03A0 -->
<g id="edge29" class="edge">
<title>BB_002E03A0-&gt;BB_002E03A0</title>
<path fill="none" stroke="#00ff00" d="M500.4311,-175.4765C522.2273,-176.8305 541.174,-172.4099 541.174,-162.2146 541.174,-153.692 527.9342,-149.2046 510.8577,-148.7526"/>
<polygon fill="#00ff00" stroke="#00ff00" points="510.3621,-145.2614 500.4311,-148.9527 510.4965,-152.2601 510.3621,-145.2614"/>
</g>
</g>
</svg>