<?xml version="1.0" encoding="UTF-8" standalone="no"?><!DOCTYPE svg PUBLIC "-//W3C//DTD SVG 1.1//EN" "http://www.w3.org/Graphics/SVG/1.1/DTD/svg11.dtd"><!-- Generated by graphviz version 2.40.1 (20161225.0304)
 --><!-- Title: G Pages: 1 --><svg xmlns="http://www.w3.org/2000/svg" xmlns:xlink="http://www.w3.org/1999/xlink" width="314pt" height="548pt" viewBox="0.00 0.00 313.78 548.21">
<g id="graph0" class="graph" transform="scale(1 1) rotate(0) translate(4 544.2146)">
<title>G</title>
<polygon fill="#ffffff" stroke="transparent" points="-4,4 -4,-544.2146 309.7845,-544.2146 309.7845,4 -4,4"/>
<!-- start -->
<g id="node1" class="node">
<title>start</title>
<polygon fill="none" stroke="#000000" points="122.1988,-540.2146 82.9615,-522.2146 122.1988,-504.2146 161.4361,-522.2146 122.1988,-540.2146"/>
<polyline fill="none" stroke="#000000" points="93.8685,-527.2182 93.8685,-517.211 "/>
<polyline fill="none" stroke="#000000" points="111.2917,-509.2182 133.1058,-509.2182 "/>
<polyline fill="none" stroke="#000000" points="150.529,-517.211 150.529,-527.2182 "/>
<polyline fill="none" stroke="#000000" points="133.1058,-535.211 111.2917,-535.211 "/>
<text text-anchor="middle" x="122.1988" y="-518.0146" font-family="Times,serif" font-size="14.00" fill="#000000">start</text>
</g>
<!-- BB_002E9970 -->
<g id="node2" class="node">
<title>BB_002E9970</title>
<ellipse fill="none" stroke="#000000" cx="122.1988" cy="-450.2146" rx="68.3883" ry="18"/>
<text text-anchor="middle" x="122.1988" y="-446.0146" font-family="Times,serif" font-size="14.00" fill="#000000">BB_002E9970</text>
</g>
<!-- start&#45;&gt;BB_002E9970 -->
<g id="edge1" class="edge">
<title>start-&gt;BB_002E9970</title>
<path fill="none" stroke="#000000" d="M122.1988,-504.046C122.1988,-496.3456 122.1988,-487.1889 122.1988,-478.6312"/>
<polygon fill="#000000" stroke="#000000" points="125.6989,-478.6278 122.1988,-468.6279 118.6989,-478.6279 125.6989,-478.6278"/>
</g>
<!-- BB_002E99AA -->
<g id="node3" class="node">
<title>BB_002E99AA</title>
<ellipse fill="none" stroke="#000000" cx="173.1988" cy="-378.2146" rx="72.9605" ry="18"/>
<text text-anchor="middle" x="173.1988" y="-374.0146" font-family="Times,serif" font-size="14.00" fill="#000000">BB_002E99AA</text>
</g>
<!-- BB_002E9970&#45;&gt;BB_002E99AA -->
<g id="edge2" class="edge">
<title>BB_002E9970-&gt;BB_002E99AA</title>
<path fill="none" stroke="#ff0000" d="M134.8055,-432.4168C140.8128,-423.936 148.1156,-413.6261 154.7328,-404.2842"/>
<polygon fill="#ff0000" stroke="#ff0000" points="157.6362,-406.2405 160.5603,-396.0571 151.924,-402.1943 157.6362,-406.2405"/>
</g>
<!-- BB_002E9A3C -->
<g id="node4" class="node">
<title>BB_002E9A3C</title>
<ellipse fill="none" stroke="#000000" cx="72.1988" cy="-306.2146" rx="72.3981" ry="18"/>
<text text-anchor="middle" x="72.1988" y="-302.0146" font-family="Times,serif" font-size="14.00" fill="#000000">BB_002E9A3C</text>
</g>
<!-- BB_002E9970&#45;&gt;BB_002E9A3C -->
<g id="edge3" class="edge">
<title>BB_002E9970-&gt;BB_002E9A3C</title>
<path fill="none" stroke="#00ff00" d="M110.0928,-432.4264C103.6411,-422.2201 96.0555,-408.9399 91.1988,-396.2146 83.5351,-376.1348 78.678,-352.293 75.7947,-334.1946"/>
<polygon fill="#00ff00" stroke="#00ff00" points="79.2523,-333.6502 74.3188,-324.2741 72.3285,-334.6803 79.2523,-333.6502"/>
</g>
<!-- BB_002E99AA&#45;&gt;BB_002E9A3C -->
<g id="edge5" class="edge">
<title>BB_002E99AA-&gt;BB_002E9A3C</title>
<path fill="none" stroke="#00ff00" d="M149.2632,-361.1516C135.9019,-351.6268 119.0724,-339.6295 104.5517,-329.2781"/>
<polygon fill="#00ff00" stroke="#00ff00" points="106.487,-326.3594 96.3126,-323.4046 102.4237,-332.0594 106.487,-326.3594"/>
</g>
<!-- BB_002E99BF -->
<g id="node5" class="node">
<title>BB_002E99BF</title>
<ellipse fill="none" stroke="#000000" cx="233.1988" cy="-306.2146" rx="70.6916" ry="18"/>
<text text-anchor="middle" x="233.1988" y="-302.0146" font-family="Times,serif" font-size="14.00" fill="#000000">BB_002E99BF</text>
</g>
<!-- BB_002E99AA&#45;&gt;BB_002E99BF -->
<g id="edge4" class="edge">
<title>BB_002E99AA-&gt;BB_002E99BF</title>
<path fill="none" stroke="#ff0000" d="M188.0302,-360.4168C195.1697,-351.8494 203.8646,-341.4155 211.7122,-331.9985"/>
<polygon fill="#ff0000" stroke="#ff0000" points="214.6169,-333.98 218.33,-324.0571 209.2393,-329.4987 214.6169,-333.98"/>
</g>
<!-- end -->
<g id="node9" class="node">
<title>end</title>
<polygon fill="none" stroke="#000000" points="139.414,-36.3225 102.9835,-36.3225 102.9835,.1079 139.414,.1079 139.414,-36.3225"/>
<polyline fill="none" stroke="#000000" points="114.9835,-36.3225 102.9835,-24.3225 "/>
<polyline fill="none" stroke="#000000" points="102.9835,-11.8921 114.9835,.1079 "/>
<polyline fill="none" stroke="#000000" points="127.414,.1079 139.414,-11.8921 "/>
<polyline fill="none" stroke="#000000" points="139.414,-24.3225 127.414,-36.3225 "/>
<text text-anchor="middle" x="121.1988" y="-13.9073" font-family="Times,serif" font-size="14.00" fill="#000000">end</text>
</g>
<!-- BB_002E9A3C&#45;&gt;end -->
<g id="edge12" class="edge">
<title>BB_002E9A3C-&gt;end</title>
<path fill="none" stroke="#000000" d="M74.9104,-287.9677C80.8279,-248.5187 95.5471,-152.3779 110.1988,-72.2146 111.7257,-63.8606 113.5131,-54.8086 115.198,-46.5422"/>
<polygon fill="#000000" stroke="#000000" points="118.6556,-47.1045 117.2498,-36.6034 111.8002,-45.6892 118.6556,-47.1045"/>
</g>
<!-- BB_002E9A14 -->
<g id="node6" class="node">
<title>BB_002E9A14</title>
<ellipse fill="none" stroke="#000000" cx="209.1988" cy="-234.2146" rx="70.6742" ry="18"/>
<text text-anchor="middle" x="209.1988" y="-230.0146" font-family="Times,serif" font-size="14.00" fill="#000000">BB_002E9A14</text>
</g>
<!-- BB_002E99BF&#45;&gt;BB_002E9A14 -->
<g id="edge6" class="edge">
<title>BB_002E99BF-&gt;BB_002E9A14</title>
<path fill="none" stroke="#ff0000" d="M227.1426,-288.046C224.5475,-280.2609 221.4564,-270.9875 218.577,-262.3493"/>
<polygon fill="#ff0000" stroke="#ff0000" points="221.8193,-261.0079 215.3365,-252.6279 215.1785,-263.2215 221.8193,-261.0079"/>
</g>
<!-- BB_002E9A27 -->
<g id="node7" class="node">
<title>BB_002E9A27</title>
<ellipse fill="none" stroke="#000000" cx="190.1988" cy="-90.2146" rx="70.6742" ry="18"/>
<text text-anchor="middle" x="190.1988" y="-86.0146" font-family="Times,serif" font-size="14.00" fill="#000000">BB_002E9A27</text>
</g>
<!-- BB_002E99BF&#45;&gt;BB_002E9A27 -->
<g id="edge7" class="edge">
<title>BB_002E99BF-&gt;BB_002E9A27</title>
<path fill="none" stroke="#00ff00" d="M258.454,-289.3162C270.1599,-279.9286 282.8607,-267.1311 289.1988,-252.2146 307.9699,-208.0372 313.7011,-185.4897 289.1988,-144.2146 279.5437,-127.9503 263.0767,-116.2711 246.3142,-108.0328"/>
<polygon fill="#00ff00" stroke="#00ff00" points="247.5645,-104.7565 237.0127,-103.8027 244.6667,-111.1285 247.5645,-104.7565"/>
</g>
<!-- BB_002E9A14&#45;&gt;BB_002E9A27 -->
<g id="edge9" class="edge">
<title>BB_002E9A14-&gt;BB_002E9A27</title>
<path fill="none" stroke="#00ff00" d="M171.7753,-218.8289C155.6025,-210.0754 138.3214,-197.3788 129.1988,-180.2146 121.6896,-166.0862 122.6294,-158.8038 129.1988,-144.2146 134.6516,-132.1049 144.3111,-121.6138 154.3576,-113.183"/>
<polygon fill="#00ff00" stroke="#00ff00" points="156.7052,-115.7903 162.4247,-106.8719 152.3919,-110.277 156.7052,-115.7903"/>
</g>
<!-- BB_002E9A1F -->
<g id="node8" class="node">
<title>BB_002E9A1F</title>
<ellipse fill="none" stroke="#000000" cx="209.1988" cy="-162.2146" rx="71.2539" ry="18"/>
<text text-anchor="middle" x="209.1988" y="-158.0146" font-family="Times,serif" font-size="14.00" fill="#000000">BB_002E9A1F</text>
</g>
<!-- BB_002E9A14&#45;&gt;BB_002E9A1F -->
<g id="edge8" class="edge">
<title>BB_002E9A14-&gt;BB_002E9A1F</title>
<path fill="none" stroke="#ff0000" d="M209.1988,-216.046C209.1988,-208.3456 209.1988,-199.1889 209.1988,-190.6312"/>
<polygon fill="#ff0000" stroke="#ff0000" points="212.6989,-190.6278 209.1988,-180.6279 205.6989,-190.6279 212.6989,-190.6278"/>
</g>
<!-- BB_002E9A27&#45;&gt;end -->
<g id="edge11" class="edge">
<title>BB_002E9A27-&gt;end</title>
<path fill="none" stroke="#000000" d="M173.1426,-72.3903C164.8293,-63.7026 154.6821,-53.0985 145.5695,-43.5756"/>
<polygon fill="#000000" stroke="#000000" points="147.9805,-41.0326 138.538,-36.2274 142.9229,-45.8722 147.9805,-41.0326"/>
</g>
<!-- BB_002E9A1F&#45;&gt;BB_002E9A27 -->
<g id="edge10" class="edge">
<title>BB_002E9A1F-&gt;BB_002E9A27</title>
<path fill="none" stroke="#0000ff" d="M204.4043,-144.046C202.3499,-136.2609 199.9027,-126.9875 197.6232,-118.3493"/>
<polygon fill="#0000ff" stroke="#0000ff" points="200.9936,-117.4038 195.0578,-108.6279 194.2253,-119.1899 200.9936,-117.4038"/>
</g>
</g>
</svg>