<?xml version="1.0" encoding="UTF-8" standalone="no"?><!DOCTYPE svg PUBLIC "-//W3C//DTD SVG 1.1//EN" "http://www.w3.org/Graphics/SVG/1.1/DTD/svg11.dtd"><!-- Generated by graphviz version 2.40.1 (20161225.0304)
 --><!-- Title: G Pages: 1 --><svg xmlns="http://www.w3.org/2000/svg" xmlns:xlink="http://www.w3.org/1999/xlink" width="586pt" height="942pt" viewBox="0.00 0.00 586.01 941.86">
<g id="graph0" class="graph" transform="scale(1 1) rotate(0) translate(4 937.8584)">
<title>G</title>
<polygon fill="#ffffff" stroke="transparent" points="-4,4 -4,-937.8584 582.0093,-937.8584 582.0093,4 -4,4"/>
<!-- start -->
<g id="node1" class="node">
<title>start</title>
<polygon fill="none" stroke="#000000" points="256.8105,-933.8584 217.5732,-915.8584 256.8105,-897.8584 296.0478,-915.8584 256.8105,-933.8584"/>
<polyline fill="none" stroke="#000000" points="228.4803,-920.862 228.4803,-910.8548 "/>
<polyline fill="none" stroke="#000000" points="245.9034,-902.862 267.7176,-902.862 "/>
<polyline fill="none" stroke="#000000" points="285.1408,-910.8548 285.1408,-920.862 "/>
<polyline fill="none" stroke="#000000" points="267.7176,-928.8548 245.9034,-928.8548 "/>
<text text-anchor="middle" x="256.8105" y="-911.6584" font-family="Times,serif" font-size="14.00" fill="#000000">start</text>
</g>
<!-- BB_002E3C90 -->
<g id="node2" class="node">
<title>BB_002E3C90</title>
<ellipse fill="none" stroke="#000000" cx="256.8105" cy="-843.8584" rx="70.1118" ry="18"/>
<text text-anchor="middle" x="256.8105" y="-839.6584" font-family="Times,serif" font-size="14.00" fill="#000000">BB_002E3C90</text>
</g>
<!-- start&#45;&gt;BB_002E3C90 -->
<g id="edge1" class="edge">
<title>start-&gt;BB_002E3C90</title>
<path fill="none" stroke="#000000" d="M256.8105,-897.6898C256.8105,-889.9894 256.8105,-880.8327 256.8105,-872.275"/>
<polygon fill="#000000" stroke="#000000" points="260.3106,-872.2716 256.8105,-862.2717 253.3106,-872.2717 260.3106,-872.2716"/>
</g>
<!-- BB_002E3CA3 -->
<g id="node3" class="node">
<title>BB_002E3CA3</title>
<ellipse fill="none" stroke="#000000" cx="175.8105" cy="-771.8584" rx="72.3981" ry="18"/>
<text text-anchor="middle" x="175.8105" y="-767.6584" font-family="Times,serif" font-size="14.00" fill="#000000">BB_002E3CA3</text>
</g>
<!-- BB_002E3C90&#45;&gt;BB_002E3CA3 -->
<g id="edge2" class="edge">
<title>BB_002E3C90-&gt;BB_002E3CA3</title>
<path fill="none" stroke="#ff0000" d="M237.2027,-826.4292C227.0302,-817.387 214.4361,-806.1922 203.3074,-796.3001"/>
<polygon fill="#ff0000" stroke="#ff0000" points="205.3179,-793.4044 195.5185,-789.3766 200.6674,-798.6362 205.3179,-793.4044"/>
</g>
<!-- BB_002E3CD7 -->
<g id="node4" class="node">
<title>BB_002E3CD7</title>
<ellipse fill="none" stroke="#000000" cx="415.8105" cy="-771.8584" rx="72.3981" ry="18"/>
<text text-anchor="middle" x="415.8105" y="-767.6584" font-family="Times,serif" font-size="14.00" fill="#000000">BB_002E3CD7</text>
</g>
<!-- BB_002E3C90&#45;&gt;BB_002E3CD7 -->
<g id="edge3" class="edge">
<title>BB_002E3C90-&gt;BB_002E3CD7</title>
<path fill="none" stroke="#00ff00" d="M291.7037,-828.0577C315.1298,-817.4497 346.196,-803.3819 371.3859,-791.9752"/>
<polygon fill="#00ff00" stroke="#00ff00" points="373.0585,-795.06 380.7243,-787.7465 370.171,-788.6833 373.0585,-795.06"/>
</g>
<!-- BB_002E3CAB -->
<g id="node5" class="node">
<title>BB_002E3CAB</title>
<ellipse fill="none" stroke="#000000" cx="73.8105" cy="-699.8584" rx="73.6215" ry="18"/>
<text text-anchor="middle" x="73.8105" y="-695.6584" font-family="Times,serif" font-size="14.00" fill="#000000">BB_002E3CAB</text>
</g>
<!-- BB_002E3CA3&#45;&gt;BB_002E3CAB -->
<g id="edge4" class="edge">
<title>BB_002E3CA3-&gt;BB_002E3CAB</title>
<path fill="none" stroke="#ff0000" d="M151.6379,-754.7954C138.1444,-745.2706 121.1482,-733.2733 106.4837,-722.9219"/>
<polygon fill="#ff0000" stroke="#ff0000" points="108.3512,-719.9559 98.1631,-717.0484 104.3143,-725.6747 108.3512,-719.9559"/>
</g>
<!-- BB_002E3CB0 -->
<g id="node6" class="node">
<title>BB_002E3CB0</title>
<ellipse fill="none" stroke="#000000" cx="73.8105" cy="-627.8584" rx="71.8357" ry="18"/>
<text text-anchor="middle" x="73.8105" y="-623.6584" font-family="Times,serif" font-size="14.00" fill="#000000">BB_002E3CB0</text>
</g>
<!-- BB_002E3CA3&#45;&gt;BB_002E3CB0 -->
<g id="edge5" class="edge">
<title>BB_002E3CA3-&gt;BB_002E3CB0</title>
<path fill="none" stroke="#00ff00" d="M175.9508,-753.7112C175.2529,-734.3196 171.6206,-703.4586 156.8105,-681.8584 147.3109,-668.0035 132.9701,-656.8577 118.868,-648.3715"/>
<polygon fill="#00ff00" stroke="#00ff00" points="120.5882,-645.3235 110.1637,-643.431 117.1327,-651.4112 120.5882,-645.3235"/>
</g>
<!-- BB_002E3CE2 -->
<g id="node8" class="node">
<title>BB_002E3CE2</title>
<ellipse fill="none" stroke="#000000" cx="415.8105" cy="-699.8584" rx="71.2539" ry="18"/>
<text text-anchor="middle" x="415.8105" y="-695.6584" font-family="Times,serif" font-size="14.00" fill="#000000">BB_002E3CE2</text>
</g>
<!-- BB_002E3CD7&#45;&gt;BB_002E3CE2 -->
<g id="edge8" class="edge">
<title>BB_002E3CD7-&gt;BB_002E3CE2</title>
<path fill="none" stroke="#ff0000" d="M415.8105,-753.6898C415.8105,-745.9894 415.8105,-736.8327 415.8105,-728.275"/>
<polygon fill="#ff0000" stroke="#ff0000" points="419.3106,-728.2716 415.8105,-718.2717 412.3106,-728.2717 419.3106,-728.2716"/>
</g>
<!-- BB_002E3D8B -->
<g id="node9" class="node">
<title>BB_002E3D8B</title>
<ellipse fill="none" stroke="#000000" cx="505.8105" cy="-195.8584" rx="72.3981" ry="18"/>
<text text-anchor="middle" x="505.8105" y="-191.6584" font-family="Times,serif" font-size="14.00" fill="#000000">BB_002E3D8B</text>
</g>
<!-- BB_002E3CD7&#45;&gt;BB_002E3D8B -->
<g id="edge9" class="edge">
<title>BB_002E3CD7-&gt;BB_002E3D8B</title>
<path fill="none" stroke="#00ff00" d="M449.344,-755.867C490.7618,-733.5063 555.8105,-688.7026 555.8105,-627.8584 555.8105,-627.8584 555.8105,-627.8584 555.8105,-339.8584 555.8105,-298.9768 551.3878,-288.0528 536.8105,-249.8584 533.2438,-240.5133 528.2055,-230.8688 523.2253,-222.3624"/>
<polygon fill="#00ff00" stroke="#00ff00" points="526.1077,-220.3664 517.9165,-213.6466 520.1294,-224.0078 526.1077,-220.3664"/>
</g>
<!-- BB_002E3CAB&#45;&gt;BB_002E3CB0 -->
<g id="edge6" class="edge">
<title>BB_002E3CAB-&gt;BB_002E3CB0</title>
<path fill="none" stroke="#0000ff" d="M73.8105,-681.6898C73.8105,-673.9894 73.8105,-664.8327 73.8105,-656.275"/>
<polygon fill="#0000ff" stroke="#0000ff" points="77.3106,-656.2716 73.8105,-646.2717 70.3106,-656.2717 77.3106,-656.2716"/>
</g>
<!-- end -->
<g id="node7" class="node">
<title>end</title>
<polygon fill="none" stroke="#000000" points="114.0258,-36.3225 77.5953,-36.3225 77.5953,.1079 114.0258,.1079 114.0258,-36.3225"/>
<polyline fill="none" stroke="#000000" points="89.5953,-36.3225 77.5953,-24.3225 "/>
<polyline fill="none" stroke="#000000" points="77.5953,-11.8921 89.5953,.1079 "/>
<polyline fill="none" stroke="#000000" points="102.0258,.1079 114.0258,-11.8921 "/>
<polyline fill="none" stroke="#000000" points="114.0258,-24.3225 102.0258,-36.3225 "/>
<text text-anchor="middle" x="95.8105" y="-13.9073" font-family="Times,serif" font-size="14.00" fill="#000000">end</text>
</g>
<!-- BB_002E3CB0&#45;&gt;end -->
<g id="edge7" class="edge">
<title>BB_002E3CB0-&gt;end</title>
<path fill="none" stroke="#000000" d="M65.5396,-609.6465C54.0915,-582.7311 34.8105,-530.4796 34.8105,-483.8584 34.8105,-483.8584 34.8105,-483.8584 34.8105,-195.8584 34.8105,-139.2047 45.0094,-124.9114 65.8105,-72.2146 69.4017,-63.1168 74.234,-53.6451 78.97,-45.2167"/>
<polygon fill="#000000" stroke="#000000" points="82.0095,-46.9522 84.008,-36.5475 75.9573,-43.4349 82.0095,-46.9522"/>
</g>
<!-- BB_002E3CEF -->
<g id="node10" class="node">
<title>BB_002E3CEF</title>
<ellipse fill="none" stroke="#000000" cx="455.8105" cy="-555.8584" rx="71.8337" ry="18"/>
<text text-anchor="middle" x="455.8105" y="-551.6584" font-family="Times,serif" font-size="14.00" fill="#000000">BB_002E3CEF</text>
</g>
<!-- BB_002E3CE2&#45;&gt;BB_002E3CEF -->
<g id="edge10" class="edge">
<title>BB_002E3CE2-&gt;BB_002E3CEF</title>
<path fill="none" stroke="#ff0000" d="M420.8765,-681.6207C427.7292,-656.9512 440.0161,-612.7182 448.0402,-583.8315"/>
<polygon fill="#ff0000" stroke="#ff0000" points="451.4814,-584.52 450.7856,-573.948 444.7368,-582.6464 451.4814,-584.52"/>
</g>
<!-- BB_002E3CF6 -->
<g id="node11" class="node">
<title>BB_002E3CF6</title>
<ellipse fill="none" stroke="#000000" cx="295.8105" cy="-627.8584" rx="70.6916" ry="18"/>
<text text-anchor="middle" x="295.8105" y="-623.6584" font-family="Times,serif" font-size="14.00" fill="#000000">BB_002E3CF6</text>
</g>
<!-- BB_002E3CE2&#45;&gt;BB_002E3CF6 -->
<g id="edge11" class="edge">
<title>BB_002E3CE2-&gt;BB_002E3CF6</title>
<path fill="none" stroke="#00ff00" d="M387.9785,-683.1592C371.4698,-673.254 350.3484,-660.5811 332.4908,-649.8666"/>
<polygon fill="#00ff00" stroke="#00ff00" points="333.8673,-646.6108 323.4916,-644.4671 330.2658,-652.6133 333.8673,-646.6108"/>
</g>
<!-- dead_end -->
<g id="node21" class="node">
<title>dead_end</title>
<polygon fill="none" stroke="#000000" points="540.4552,-141.6812 471.1658,-141.6812 471.1658,-72.3918 540.4552,-72.3918 540.4552,-141.6812"/>
<polyline fill="none" stroke="#000000" points="483.1658,-141.6812 471.1658,-129.6812 "/>
<polyline fill="none" stroke="#000000" points="471.1658,-84.3918 483.1658,-72.3918 "/>
<polyline fill="none" stroke="#000000" points="528.4552,-72.3918 540.4552,-84.3918 "/>
<polyline fill="none" stroke="#000000" points="540.4552,-129.6812 528.4552,-141.6812 "/>
<text text-anchor="middle" x="505.8105" y="-102.8365" font-family="Times,serif" font-size="14.00" fill="#000000">dead_end</text>
</g>
<!-- BB_002E3D8B&#45;&gt;dead_end -->
<g id="edge27" class="edge">
<title>BB_002E3D8B-&gt;dead_end</title>
<path fill="none" stroke="#000000" d="M505.8105,-177.4544C505.8105,-169.9968 505.8105,-161.0284 505.8105,-152.0283"/>
<polygon fill="#000000" stroke="#000000" points="509.3106,-151.9321 505.8105,-141.9321 502.3106,-151.9322 509.3106,-151.9321"/>
</g>
<!-- BB_002E3D14 -->
<g id="node12" class="node">
<title>BB_002E3D14</title>
<ellipse fill="none" stroke="#000000" cx="270.8105" cy="-483.8584" rx="70.6742" ry="18"/>
<text text-anchor="middle" x="270.8105" y="-479.6584" font-family="Times,serif" font-size="14.00" fill="#000000">BB_002E3D14</text>
</g>
<!-- BB_002E3CEF&#45;&gt;BB_002E3D14 -->
<g id="edge12" class="edge">
<title>BB_002E3CEF-&gt;BB_002E3D14</title>
<path fill="none" stroke="#0000ff" d="M416.5768,-540.5891C388.1519,-529.5264 349.547,-514.5018 319.207,-502.6938"/>
<polygon fill="#0000ff" stroke="#0000ff" points="320.2586,-499.3474 309.6701,-498.9821 317.7198,-505.8708 320.2586,-499.3474"/>
</g>
<!-- BB_002E3D05 -->
<g id="node13" class="node">
<title>BB_002E3D05</title>
<ellipse fill="none" stroke="#000000" cx="295.8105" cy="-555.8584" rx="70.6742" ry="18"/>
<text text-anchor="middle" x="295.8105" y="-551.6584" font-family="Times,serif" font-size="14.00" fill="#000000">BB_002E3D05</text>
</g>
<!-- BB_002E3CF6&#45;&gt;BB_002E3D05 -->
<g id="edge13" class="edge">
<title>BB_002E3CF6-&gt;BB_002E3D05</title>
<path fill="none" stroke="#ff0000" d="M295.8105,-609.6898C295.8105,-601.9894 295.8105,-592.8327 295.8105,-584.275"/>
<polygon fill="#ff0000" stroke="#ff0000" points="299.3106,-584.2716 295.8105,-574.2717 292.3106,-584.2717 299.3106,-584.2716"/>
</g>
<!-- BB_002E3D0C -->
<g id="node14" class="node">
<title>BB_002E3D0C</title>
<ellipse fill="none" stroke="#000000" cx="134.8105" cy="-555.8584" rx="72.3981" ry="18"/>
<text text-anchor="middle" x="134.8105" y="-551.6584" font-family="Times,serif" font-size="14.00" fill="#000000">BB_002E3D0C</text>
</g>
<!-- BB_002E3CF6&#45;&gt;BB_002E3D0C -->
<g id="edge14" class="edge">
<title>BB_002E3CF6-&gt;BB_002E3D0C</title>
<path fill="none" stroke="#00ff00" d="M260.4784,-612.0577C236.5707,-601.3661 204.8044,-587.16 179.192,-575.706"/>
<polygon fill="#00ff00" stroke="#00ff00" points="180.6178,-572.5097 170.0602,-571.6222 177.7601,-578.8998 180.6178,-572.5097"/>
</g>
<!-- BB_002E3D49 -->
<g id="node15" class="node">
<title>BB_002E3D49</title>
<ellipse fill="none" stroke="#000000" cx="270.8105" cy="-411.8584" rx="70.6742" ry="18"/>
<text text-anchor="middle" x="270.8105" y="-407.6584" font-family="Times,serif" font-size="14.00" fill="#000000">BB_002E3D49</text>
</g>
<!-- BB_002E3D14&#45;&gt;BB_002E3D49 -->
<g id="edge17" class="edge">
<title>BB_002E3D14-&gt;BB_002E3D49</title>
<path fill="none" stroke="#ff0000" d="M270.8105,-465.6898C270.8105,-457.9894 270.8105,-448.8327 270.8105,-440.275"/>
<polygon fill="#ff0000" stroke="#ff0000" points="274.3106,-440.2716 270.8105,-430.2717 267.3106,-440.2717 274.3106,-440.2716"/>
</g>
<!-- BB_002E3D79 -->
<g id="node16" class="node">
<title>BB_002E3D79</title>
<ellipse fill="none" stroke="#000000" cx="145.8105" cy="-107.0365" rx="70.6742" ry="18"/>
<text text-anchor="middle" x="145.8105" y="-102.8365" font-family="Times,serif" font-size="14.00" fill="#000000">BB_002E3D79</text>
</g>
<!-- BB_002E3D14&#45;&gt;BB_002E3D79 -->
<g id="edge18" class="edge">
<title>BB_002E3D14-&gt;BB_002E3D79</title>
<path fill="none" stroke="#00ff00" d="M239.0845,-467.5906C223.0969,-458.2074 204.2959,-445.2231 190.8105,-429.8584 161.3103,-396.2469 145.8105,-384.5798 145.8105,-339.8584 145.8105,-339.8584 145.8105,-339.8584 145.8105,-267.8584 145.8105,-221.4515 145.8105,-167.5121 145.8105,-135.3837"/>
<polygon fill="#00ff00" stroke="#00ff00" points="149.3106,-135.3665 145.8105,-125.3665 142.3106,-135.3666 149.3106,-135.3665"/>
</g>
<!-- BB_002E3D05&#45;&gt;BB_002E3D14 -->
<g id="edge15" class="edge">
<title>BB_002E3D05-&gt;BB_002E3D14</title>
<path fill="none" stroke="#0000ff" d="M289.502,-537.6898C286.7988,-529.9047 283.5789,-520.6313 280.5795,-511.9931"/>
<polygon fill="#0000ff" stroke="#0000ff" points="283.7905,-510.5703 277.204,-502.2717 277.1778,-512.8665 283.7905,-510.5703"/>
</g>
<!-- BB_002E3D0C&#45;&gt;BB_002E3D14 -->
<g id="edge16" class="edge">
<title>BB_002E3D0C-&gt;BB_002E3D14</title>
<path fill="none" stroke="#0000ff" d="M165.671,-539.5205C185.0591,-529.2562 210.2578,-515.9157 231.1254,-504.8681"/>
<polygon fill="#0000ff" stroke="#0000ff" points="232.8719,-507.9039 240.0721,-500.1317 229.5966,-501.7173 232.8719,-507.9039"/>
</g>
<!-- BB_002E3D5A -->
<g id="node17" class="node">
<title>BB_002E3D5A</title>
<ellipse fill="none" stroke="#000000" cx="295.8105" cy="-339.8584" rx="72.9605" ry="18"/>
<text text-anchor="middle" x="295.8105" y="-335.6584" font-family="Times,serif" font-size="14.00" fill="#000000">BB_002E3D5A</text>
</g>
<!-- BB_002E3D49&#45;&gt;BB_002E3D5A -->
<g id="edge19" class="edge">
<title>BB_002E3D49-&gt;BB_002E3D5A</title>
<path fill="none" stroke="#ff0000" d="M277.1191,-393.6898C279.8222,-385.9047 283.0421,-376.6313 286.0415,-367.9931"/>
<polygon fill="#ff0000" stroke="#ff0000" points="289.4432,-368.8665 289.417,-358.2717 282.8305,-366.5703 289.4432,-368.8665"/>
</g>
<!-- BB_002E3D6C -->
<g id="node18" class="node">
<title>BB_002E3D6C</title>
<ellipse fill="none" stroke="#000000" cx="245.8105" cy="-195.8584" rx="72.3981" ry="18"/>
<text text-anchor="middle" x="245.8105" y="-191.6584" font-family="Times,serif" font-size="14.00" fill="#000000">BB_002E3D6C</text>
</g>
<!-- BB_002E3D49&#45;&gt;BB_002E3D6C -->
<g id="edge20" class="edge">
<title>BB_002E3D49-&gt;BB_002E3D6C</title>
<path fill="none" stroke="#00ff00" d="M245.1146,-395.0532C233.2024,-385.6895 220.274,-372.8851 213.8105,-357.8584 194.8443,-313.7644 201.1241,-296.1516 213.8105,-249.8584 216.4333,-240.2878 221.2392,-230.6932 226.3432,-222.3028"/>
<polygon fill="#00ff00" stroke="#00ff00" points="229.3997,-224.0222 231.9094,-213.7289 223.5285,-220.2106 229.3997,-224.0222"/>
</g>
<!-- BB_002E3D79&#45;&gt;end -->
<g id="edge25" class="edge">
<title>BB_002E3D79-&gt;end</title>
<path fill="none" stroke="#000000" d="M135.6923,-89.0403C128.6231,-76.4672 119.0578,-59.4546 111.067,-45.2423"/>
<polygon fill="#000000" stroke="#000000" points="114.0371,-43.3833 106.0853,-36.3819 107.9354,-46.814 114.0371,-43.3833"/>
</g>
<!-- BB_002E3D6A -->
<g id="node19" class="node">
<title>BB_002E3D6A</title>
<ellipse fill="none" stroke="#000000" cx="295.8105" cy="-267.8584" rx="72.9605" ry="18"/>
<text text-anchor="middle" x="295.8105" y="-263.6584" font-family="Times,serif" font-size="14.00" fill="#000000">BB_002E3D6A</text>
</g>
<!-- BB_002E3D5A&#45;&gt;BB_002E3D6A -->
<g id="edge21" class="edge">
<title>BB_002E3D5A-&gt;BB_002E3D6A</title>
<path fill="none" stroke="#ff0000" d="M295.8105,-321.6898C295.8105,-313.9894 295.8105,-304.8327 295.8105,-296.275"/>
<polygon fill="#ff0000" stroke="#ff0000" points="299.3106,-296.2716 295.8105,-286.2717 292.3106,-296.2717 299.3106,-296.2716"/>
</g>
<!-- BB_002E3D86 -->
<g id="node20" class="node">
<title>BB_002E3D86</title>
<ellipse fill="none" stroke="#000000" cx="456.8105" cy="-267.8584" rx="70.6742" ry="18"/>
<text text-anchor="middle" x="456.8105" y="-263.6584" font-family="Times,serif" font-size="14.00" fill="#000000">BB_002E3D86</text>
</g>
<!-- BB_002E3D5A&#45;&gt;BB_002E3D86 -->
<g id="edge22" class="edge">
<title>BB_002E3D5A-&gt;BB_002E3D86</title>
<path fill="none" stroke="#00ff00" d="M331.1426,-324.0577C355.1327,-313.3292 387.0358,-299.062 412.6938,-287.5876"/>
<polygon fill="#00ff00" stroke="#00ff00" points="414.138,-290.7759 421.8379,-283.4983 411.2803,-284.3857 414.138,-290.7759"/>
</g>
<!-- BB_002E3D6C&#45;&gt;BB_002E3D79 -->
<g id="edge24" class="edge">
<title>BB_002E3D6C-&gt;BB_002E3D79</title>
<path fill="none" stroke="#0000ff" d="M226.0537,-178.3101C210.9877,-164.9281 190.0535,-146.334 173.345,-131.4931"/>
<polygon fill="#0000ff" stroke="#0000ff" points="175.3272,-128.5725 165.5263,-124.5484 170.6785,-133.8061 175.3272,-128.5725"/>
</g>
<!-- BB_002E3D6A&#45;&gt;BB_002E3D6C -->
<g id="edge23" class="edge">
<title>BB_002E3D6A-&gt;BB_002E3D6C</title>
<path fill="none" stroke="#0000ff" d="M283.451,-250.0606C277.5615,-241.5798 270.4019,-231.2699 263.9144,-221.928"/>
<polygon fill="#0000ff" stroke="#0000ff" points="266.78,-219.9183 258.2012,-213.7009 261.0304,-223.9111 266.78,-219.9183"/>
</g>
<!-- BB_002E3D86&#45;&gt;BB_002E3D8B -->
<g id="edge26" class="edge">
<title>BB_002E3D86-&gt;BB_002E3D8B</title>
<path fill="none" stroke="#0000ff" d="M468.9229,-250.0606C474.6357,-241.6663 481.5679,-231.4802 487.8739,-222.2142"/>
<polygon fill="#0000ff" stroke="#0000ff" points="490.9349,-223.9373 493.6677,-213.7009 485.1479,-219.9989 490.9349,-223.9373"/>
</g>
</g>
</svg>