<?xml version="1.0" encoding="UTF-8" standalone="no"?><!DOCTYPE svg PUBLIC "-//W3C//DTD SVG 1.1//EN" "http://www.w3.org/Graphics/SVG/1.1/DTD/svg11.dtd"><!-- Generated by graphviz version 2.40.1 (20161225.0304)
 --><!-- Title: G Pages: 1 --><svg xmlns="http://www.w3.org/2000/svg" xmlns:xlink="http://www.w3.org/1999/xlink" width="316pt" height="404pt" viewBox="0.00 0.00 315.93 404.21">
<g id="graph0" class="graph" transform="scale(1 1) rotate(0) translate(4 400.2146)">
<title>G</title>
<polygon fill="#ffffff" stroke="transparent" points="-4,4 -4,-400.2146 311.9296,-400.2146 311.9296,4 -4,4"/>
<!-- start -->
<g id="node1" class="node">
<title>start</title>
<polygon fill="none" stroke="#000000" points="152.6589,-396.2146 113.4216,-378.2146 152.6589,-360.2146 191.8963,-378.2146 152.6589,-396.2146"/>
<polyline fill="none" stroke="#000000" points="124.3287,-383.2182 124.3287,-373.211 "/>
<polyline fill="none" stroke="#000000" points="141.7519,-365.2182 163.566,-365.2182 "/>
<polyline fill="none" stroke="#000000" points="180.9892,-373.211 180.9892,-383.2182 "/>
<polyline fill="none" stroke="#000000" points="163.566,-391.211 141.7519,-391.211 "/>
<text text-anchor="middle" x="152.6589" y="-374.0146" font-family="Times,serif" font-size="14.00" fill="#000000">start</text>
</g>
<!-- BB_002D6A50 -->
<g id="node2" class="node">
<title>BB_002D6A50</title>
<ellipse fill="none" stroke="#000000" cx="152.6589" cy="-306.2146" rx="71.8182" ry="18"/>
<text text-anchor="middle" x="152.6589" y="-302.0146" font-family="Times,serif" font-size="14.00" fill="#000000">BB_002D6A50</text>
</g>
<!-- start&#45;&gt;BB_002D6A50 -->
<g id="edge1" class="edge">
<title>start-&gt;BB_002D6A50</title>
<path fill="none" stroke="#000000" d="M152.6589,-360.046C152.6589,-352.3456 152.6589,-343.1889 152.6589,-334.6312"/>
<polygon fill="#000000" stroke="#000000" points="156.159,-334.6278 152.6589,-324.6279 149.159,-334.6279 156.159,-334.6278"/>
</g>
<!-- BB_002D6A7B -->
<g id="node3" class="node">
<title>BB_002D6A7B</title>
<ellipse fill="none" stroke="#000000" cx="102.6589" cy="-234.2146" rx="73.0421" ry="18"/>
<text text-anchor="middle" x="102.6589" y="-230.0146" font-family="Times,serif" font-size="14.00" fill="#000000">BB_002D6A7B</text>
</g>
<!-- BB_002D6A50&#45;&gt;BB_002D6A7B -->
<g id="edge2" class="edge">
<title>BB_002D6A50-&gt;BB_002D6A7B</title>
<path fill="none" stroke="#ff0000" d="M140.2994,-288.4168C134.4099,-279.936 127.2503,-269.6261 120.7628,-260.2842"/>
<polygon fill="#ff0000" stroke="#ff0000" points="123.6284,-258.2745 115.0496,-252.0571 117.8788,-262.2673 123.6284,-258.2745"/>
</g>
<!-- BB_002D6A7D -->
<g id="node4" class="node">
<title>BB_002D6A7D</title>
<ellipse fill="none" stroke="#000000" cx="152.6589" cy="-162.2146" rx="73.6042" ry="18"/>
<text text-anchor="middle" x="152.6589" y="-158.0146" font-family="Times,serif" font-size="14.00" fill="#000000">BB_002D6A7D</text>
</g>
<!-- BB_002D6A50&#45;&gt;BB_002D6A7D -->
<g id="edge3" class="edge">
<title>BB_002D6A50-&gt;BB_002D6A7D</title>
<path fill="none" stroke="#00ff00" d="M166.5601,-288.3441C173.4681,-278.3236 181.0875,-265.247 184.6589,-252.2146 188.8877,-236.7835 188.8877,-231.6457 184.6589,-216.2146 182.0362,-206.644 177.2303,-197.0494 172.1263,-188.659"/>
<polygon fill="#00ff00" stroke="#00ff00" points="174.941,-186.5668 166.5601,-180.0851 169.0697,-190.3784 174.941,-186.5668"/>
</g>
<!-- BB_002D6A7B&#45;&gt;BB_002D6A7D -->
<g id="edge4" class="edge">
<title>BB_002D6A7B-&gt;BB_002D6A7D</title>
<path fill="none" stroke="#0000ff" d="M115.0185,-216.4168C120.908,-207.936 128.0676,-197.6261 134.5551,-188.2842"/>
<polygon fill="#0000ff" stroke="#0000ff" points="137.4391,-190.2673 140.2683,-180.0571 131.6895,-186.2745 137.4391,-190.2673"/>
</g>
<!-- BB_002D6A82 -->
<g id="node5" class="node">
<title>BB_002D6A82</title>
<ellipse fill="none" stroke="#000000" cx="71.6589" cy="-90.2146" rx="71.8182" ry="18"/>
<text text-anchor="middle" x="71.6589" y="-86.0146" font-family="Times,serif" font-size="14.00" fill="#000000">BB_002D6A82</text>
</g>
<!-- BB_002D6A7D&#45;&gt;BB_002D6A82 -->
<g id="edge5" class="edge">
<title>BB_002D6A7D-&gt;BB_002D6A82</title>
<path fill="none" stroke="#ff0000" d="M133.0511,-144.7854C122.8786,-135.7432 110.2845,-124.5484 99.1558,-114.6563"/>
<polygon fill="#ff0000" stroke="#ff0000" points="101.1664,-111.7606 91.367,-107.7328 96.5158,-116.9924 101.1664,-111.7606"/>
</g>
<!-- BB_002D6A9C -->
<g id="node6" class="node">
<title>BB_002D6A9C</title>
<ellipse fill="none" stroke="#000000" cx="234.6589" cy="-90.2146" rx="73.0421" ry="18"/>
<text text-anchor="middle" x="234.6589" y="-86.0146" font-family="Times,serif" font-size="14.00" fill="#000000">BB_002D6A9C</text>
</g>
<!-- BB_002D6A7D&#45;&gt;BB_002D6A9C -->
<g id="edge6" class="edge">
<title>BB_002D6A7D-&gt;BB_002D6A9C</title>
<path fill="none" stroke="#00ff00" d="M172.5089,-144.7854C182.9069,-135.6554 195.8043,-124.3309 207.1503,-114.3685"/>
<polygon fill="#00ff00" stroke="#00ff00" points="209.5025,-116.9609 214.7076,-107.7328 204.8839,-111.7008 209.5025,-116.9609"/>
</g>
<!-- end -->
<g id="node7" class="node">
<title>end</title>
<polygon fill="none" stroke="#000000" points="170.8742,-36.3225 134.4437,-36.3225 134.4437,.1079 170.8742,.1079 170.8742,-36.3225"/>
<polyline fill="none" stroke="#000000" points="146.4437,-36.3225 134.4437,-24.3225 "/>
<polyline fill="none" stroke="#000000" points="134.4437,-11.8921 146.4437,.1079 "/>
<polyline fill="none" stroke="#000000" points="158.8742,.1079 170.8742,-11.8921 "/>
<polyline fill="none" stroke="#000000" points="170.8742,-24.3225 158.8742,-36.3225 "/>
<text text-anchor="middle" x="152.6589" y="-13.9073" font-family="Times,serif" font-size="14.00" fill="#000000">end</text>
</g>
<!-- BB_002D6A82&#45;&gt;end -->
<g id="edge7" class="edge">
<title>BB_002D6A82-&gt;end</title>
<path fill="none" stroke="#000000" d="M91.2668,-72.7594C101.9185,-63.2771 115.2252,-51.4313 126.7246,-41.1944"/>
<polygon fill="#000000" stroke="#000000" points="129.2001,-43.6767 134.342,-34.4133 124.5456,-38.4482 129.2001,-43.6767"/>
</g>
<!-- BB_002D6A9C&#45;&gt;end -->
<g id="edge8" class="edge">
<title>BB_002D6A9C-&gt;end</title>
<path fill="none" stroke="#000000" d="M214.809,-72.7594C203.9488,-63.2094 190.3622,-51.2619 178.6643,-40.9753"/>
<polygon fill="#000000" stroke="#000000" points="180.745,-38.1443 170.9242,-34.169 176.1225,-43.401 180.745,-38.1443"/>
</g>
</g>
</svg>