<?xml version="1.0" encoding="UTF-8" standalone="no"?><!DOCTYPE svg PUBLIC "-//W3C//DTD SVG 1.1//EN" "http://www.w3.org/Graphics/SVG/1.1/DTD/svg11.dtd"><!-- Generated by graphviz version 2.40.1 (20161225.0304)
 --><!-- Title: G Pages: 1 --><svg xmlns="http://www.w3.org/2000/svg" xmlns:xlink="http://www.w3.org/1999/xlink" width="174pt" height="332pt" viewBox="0.00 0.00 173.62 332.21">
<g id="graph0" class="graph" transform="scale(1 1) rotate(0) translate(4 328.2146)">
<title>G</title>
<polygon fill="#ffffff" stroke="transparent" points="-4,4 -4,-328.2146 169.622,-328.2146 169.622,4 -4,4"/>
<!-- start -->
<g id="node1" class="node">
<title>start</title>
<polygon fill="none" stroke="#000000" points="74.8824,-324.2146 35.6451,-306.2146 74.8824,-288.2146 114.1197,-306.2146 74.8824,-324.2146"/>
<polyline fill="none" stroke="#000000" points="46.5522,-311.2182 46.5522,-301.211 "/>
<polyline fill="none" stroke="#000000" points="63.9754,-293.2182 85.7895,-293.2182 "/>
<polyline fill="none" stroke="#000000" points="103.2127,-301.211 103.2127,-311.2182 "/>
<polyline fill="none" stroke="#000000" points="85.7895,-319.211 63.9754,-319.211 "/>
<text text-anchor="middle" x="74.8824" y="-302.0146" font-family="Times,serif" font-size="14.00" fill="#000000">start</text>
</g>
<!-- BB_002D6B90 -->
<g id="node2" class="node">
<title>BB_002D6B90</title>
<ellipse fill="none" stroke="#000000" cx="74.8824" cy="-234.2146" rx="71.2559" ry="18"/>
<text text-anchor="middle" x="74.8824" y="-230.0146" font-family="Times,serif" font-size="14.00" fill="#000000">BB_002D6B90</text>
</g>
<!-- start&#45;&gt;BB_002D6B90 -->
<g id="edge1" class="edge">
<title>start-&gt;BB_002D6B90</title>
<path fill="none" stroke="#000000" d="M74.8824,-288.046C74.8824,-280.3456 74.8824,-271.1889 74.8824,-262.6312"/>
<polygon fill="#000000" stroke="#000000" points="78.3825,-262.6278 74.8824,-252.6279 71.3825,-262.6279 78.3825,-262.6278"/>
</g>
<!-- BB_002D6BB3 -->
<g id="node3" class="node">
<title>BB_002D6BB3</title>
<ellipse fill="none" stroke="#000000" cx="74.8824" cy="-162.2146" rx="72.9799" ry="18"/>
<text text-anchor="middle" x="74.8824" y="-158.0146" font-family="Times,serif" font-size="14.00" fill="#000000">BB_002D6BB3</text>
</g>
<!-- BB_002D6B90&#45;&gt;BB_002D6BB3 -->
<g id="edge2" class="edge">
<title>BB_002D6B90-&gt;BB_002D6BB3</title>
<path fill="none" stroke="#0000ff" d="M74.8824,-216.046C74.8824,-208.3456 74.8824,-199.1889 74.8824,-190.6312"/>
<polygon fill="#0000ff" stroke="#0000ff" points="78.3825,-190.6278 74.8824,-180.6279 71.3825,-190.6279 78.3825,-190.6278"/>
</g>
<!-- BB_002D6BB3&#45;&gt;BB_002D6BB3 -->
<g id="edge4" class="edge">
<title>BB_002D6BB3-&gt;BB_002D6BB3</title>
<path fill="none" stroke="#00ff00" d="M124.3506,-175.5037C146.4816,-176.7693 165.622,-172.3396 165.622,-162.2146 165.622,-153.6716 151.9957,-149.1832 134.4438,-148.7494"/>
<polygon fill="#00ff00" stroke="#00ff00" points="134.2879,-145.2515 124.3506,-148.9255 134.4101,-152.2504 134.2879,-145.2515"/>
</g>
<!-- BB_002D6BBA -->
<g id="node4" class="node">
<title>BB_002D6BBA</title>
<ellipse fill="none" stroke="#000000" cx="74.8824" cy="-90.2146" rx="74.765" ry="18"/>
<text text-anchor="middle" x="74.8824" y="-86.0146" font-family="Times,serif" font-size="14.00" fill="#000000">BB_002D6BBA</text>
</g>
<!-- BB_002D6BB3&#45;&gt;BB_002D6BBA -->
<g id="edge3" class="edge">
<title>BB_002D6BB3-&gt;BB_002D6BBA</title>
<path fill="none" stroke="#ff0000" d="M74.8824,-144.046C74.8824,-136.3456 74.8824,-127.1889 74.8824,-118.6312"/>
<polygon fill="#ff0000" stroke="#ff0000" points="78.3825,-118.6278 74.8824,-108.6279 71.3825,-118.6279 78.3825,-118.6278"/>
</g>
<!-- end -->
<g id="node5" class="node">
<title>end</title>
<polygon fill="none" stroke="#000000" points="93.0977,-36.3225 56.6672,-36.3225 56.6672,.1079 93.0977,.1079 93.0977,-36.3225"/>
<polyline fill="none" stroke="#000000" points="68.6672,-36.3225 56.6672,-24.3225 "/>
<polyline fill="none" stroke="#000000" points="56.6672,-11.8921 68.6672,.1079 "/>
<polyline fill="none" stroke="#000000" points="81.0977,.1079 93.0977,-11.8921 "/>
<polyline fill="none" stroke="#000000" points="93.0977,-24.3225 81.0977,-36.3225 "/>
<text text-anchor="middle" x="74.8824" y="-13.9073" font-family="Times,serif" font-size="14.00" fill="#000000">end</text>
</g>
<!-- BB_002D6BBA&#45;&gt;end -->
<g id="edge5" class="edge">
<title>BB_002D6BBA-&gt;end</title>
<path fill="none" stroke="#000000" d="M74.8824,-72.0189C74.8824,-64.2477 74.8824,-54.9956 74.8824,-46.3686"/>
<polygon fill="#000000" stroke="#000000" points="78.3825,-46.2972 74.8824,-36.2972 71.3825,-46.2972 78.3825,-46.2972"/>
</g>
</g>
</svg>