<?xml version="1.0" encoding="UTF-8" standalone="no"?><!DOCTYPE svg PUBLIC "-//W3C//DTD SVG 1.1//EN" "http://www.w3.org/Graphics/SVG/1.1/DTD/svg11.dtd"><!-- Generated by graphviz version 2.40.1 (20161225.0304)
 --><!-- Title: G Pages: 1 --><svg xmlns="http://www.w3.org/2000/svg" xmlns:xlink="http://www.w3.org/1999/xlink" width="413pt" height="1772pt" viewBox="0.00 0.00 413.18 1772.21">
<g id="graph0" class="graph" transform="scale(1 1) rotate(0) translate(4 1768.2146)">
<title>G</title>
<polygon fill="#ffffff" stroke="transparent" points="-4,4 -4,-1768.2146 409.1837,-1768.2146 409.1837,4 -4,4"/>
<!-- start -->
<g id="node1" class="node">
<title>start</title>
<polygon fill="none" stroke="#000000" points="256.1278,-1764.2146 216.8905,-1746.2146 256.1278,-1728.2146 295.3651,-1746.2146 256.1278,-1764.2146"/>
<polyline fill="none" stroke="#000000" points="227.7976,-1751.2182 227.7976,-1741.211 "/>
<polyline fill="none" stroke="#000000" points="245.2207,-1733.2182 267.0349,-1733.2182 "/>
<polyline fill="none" stroke="#000000" points="284.4581,-1741.211 284.4581,-1751.2182 "/>
<polyline fill="none" stroke="#000000" points="267.0349,-1759.211 245.2207,-1759.211 "/>
<text text-anchor="middle" x="256.1278" y="-1742.0146" font-family="Times,serif" font-size="14.00" fill="#000000">start</text>
</g>
<!-- BB_002D71D0 -->
<g id="node2" class="node">
<title>BB_002D71D0</title>
<ellipse fill="none" stroke="#000000" cx="256.1278" cy="-1674.2146" rx="71.8182" ry="18"/>
<text text-anchor="middle" x="256.1278" y="-1670.0146" font-family="Times,serif" font-size="14.00" fill="#000000">BB_002D71D0</text>
</g>
<!-- start&#45;&gt;BB_002D71D0 -->
<g id="edge1" class="edge">
<title>start-&gt;BB_002D71D0</title>
<path fill="none" stroke="#000000" d="M256.1278,-1728.046C256.1278,-1720.3456 256.1278,-1711.1889 256.1278,-1702.6312"/>
<polygon fill="#000000" stroke="#000000" points="259.6279,-1702.6278 256.1278,-1692.6279 252.6279,-1702.6279 259.6279,-1702.6278"/>
</g>
<!-- BB_002D7274 -->
<g id="node3" class="node">
<title>BB_002D7274</title>
<ellipse fill="none" stroke="#000000" cx="177.1278" cy="-1602.2146" rx="69.5321" ry="18"/>
<text text-anchor="middle" x="177.1278" y="-1598.0146" font-family="Times,serif" font-size="14.00" fill="#000000">BB_002D7274</text>
</g>
<!-- BB_002D71D0&#45;&gt;BB_002D7274 -->
<g id="edge2" class="edge">
<title>BB_002D71D0-&gt;BB_002D7274</title>
<path fill="none" stroke="#ff0000" d="M237.0041,-1656.7854C227.0828,-1647.7432 214.7997,-1636.5484 203.9457,-1626.6563"/>
<polygon fill="#ff0000" stroke="#ff0000" points="206.0978,-1623.8821 196.3492,-1619.7328 201.3825,-1629.0557 206.0978,-1623.8821"/>
</g>
<!-- BB_002D72F7 -->
<g id="node4" class="node">
<title>BB_002D72F7</title>
<ellipse fill="none" stroke="#000000" cx="335.1278" cy="-1602.2146" rx="70.1118" ry="18"/>
<text text-anchor="middle" x="335.1278" y="-1598.0146" font-family="Times,serif" font-size="14.00" fill="#000000">BB_002D72F7</text>
</g>
<!-- BB_002D71D0&#45;&gt;BB_002D72F7 -->
<g id="edge3" class="edge">
<title>BB_002D71D0-&gt;BB_002D72F7</title>
<path fill="none" stroke="#00ff00" d="M275.2515,-1656.7854C285.1729,-1647.7432 297.456,-1636.5484 308.3099,-1626.6563"/>
<polygon fill="#00ff00" stroke="#00ff00" points="310.8731,-1629.0557 315.9064,-1619.7328 306.1578,-1623.8821 310.8731,-1629.0557"/>
</g>
<!-- BB_002D72FC -->
<g id="node5" class="node">
<title>BB_002D72FC</title>
<ellipse fill="none" stroke="#000000" cx="256.1278" cy="-1530.2146" rx="71.8357" ry="18"/>
<text text-anchor="middle" x="256.1278" y="-1526.0146" font-family="Times,serif" font-size="14.00" fill="#000000">BB_002D72FC</text>
</g>
<!-- BB_002D7274&#45;&gt;BB_002D72FC -->
<g id="edge4" class="edge">
<title>BB_002D7274-&gt;BB_002D72FC</title>
<path fill="none" stroke="#0000ff" d="M196.2515,-1584.7854C206.1729,-1575.7432 218.456,-1564.5484 229.3099,-1554.6563"/>
<polygon fill="#0000ff" stroke="#0000ff" points="231.8731,-1557.0557 236.9064,-1547.7328 227.1578,-1551.8821 231.8731,-1557.0557"/>
</g>
<!-- BB_002D72F7&#45;&gt;BB_002D72FC -->
<g id="edge5" class="edge">
<title>BB_002D72F7-&gt;BB_002D72FC</title>
<path fill="none" stroke="#0000ff" d="M316.0041,-1584.7854C306.0828,-1575.7432 293.7997,-1564.5484 282.9457,-1554.6563"/>
<polygon fill="#0000ff" stroke="#0000ff" points="285.0978,-1551.8821 275.3492,-1547.7328 280.3825,-1557.0557 285.0978,-1551.8821"/>
</g>
<!-- BB_002D732C -->
<g id="node6" class="node">
<title>BB_002D732C</title>
<ellipse fill="none" stroke="#000000" cx="207.1278" cy="-1458.2146" rx="71.2559" ry="18"/>
<text text-anchor="middle" x="207.1278" y="-1454.0146" font-family="Times,serif" font-size="14.00" fill="#000000">BB_002D732C</text>
</g>
<!-- BB_002D72FC&#45;&gt;BB_002D732C -->
<g id="edge6" class="edge">
<title>BB_002D72FC-&gt;BB_002D732C</title>
<path fill="none" stroke="#ff0000" d="M244.0154,-1512.4168C238.3026,-1504.0225 231.3704,-1493.8364 225.0644,-1484.5704"/>
<polygon fill="#ff0000" stroke="#ff0000" points="227.7904,-1482.3551 219.2707,-1476.0571 222.0034,-1486.2935 227.7904,-1482.3551"/>
</g>
<!-- BB_002D73DA -->
<g id="node7" class="node">
<title>BB_002D73DA</title>
<ellipse fill="none" stroke="#000000" cx="188.1278" cy="-594.2146" rx="73.6042" ry="18"/>
<text text-anchor="middle" x="188.1278" y="-590.0146" font-family="Times,serif" font-size="14.00" fill="#000000">BB_002D73DA</text>
</g>
<!-- BB_002D72FC&#45;&gt;BB_002D73DA -->
<g id="edge7" class="edge">
<title>BB_002D72FC-&gt;BB_002D73DA</title>
<path fill="none" stroke="#00ff00" d="M268.2338,-1512.4264C274.6855,-1502.2201 282.2711,-1488.9399 287.1278,-1476.2146 301.7051,-1438.0202 306.1278,-1427.0962 306.1278,-1386.2146 306.1278,-1386.2146 306.1278,-1386.2146 306.1278,-738.2146 306.1278,-694.9663 296.5374,-681.668 269.1278,-648.2146 258.5838,-635.3456 244.1722,-624.3892 230.4263,-615.7772"/>
<polygon fill="#00ff00" stroke="#00ff00" points="231.9154,-612.5896 221.5368,-610.4599 228.3221,-618.5969 231.9154,-612.5896"/>
</g>
<!-- BB_002D7336 -->
<g id="node8" class="node">
<title>BB_002D7336</title>
<ellipse fill="none" stroke="#000000" cx="140.1278" cy="-1386.2146" rx="69.5321" ry="18"/>
<text text-anchor="middle" x="140.1278" y="-1382.0146" font-family="Times,serif" font-size="14.00" fill="#000000">BB_002D7336</text>
</g>
<!-- BB_002D732C&#45;&gt;BB_002D7336 -->
<g id="edge8" class="edge">
<title>BB_002D732C-&gt;BB_002D7336</title>
<path fill="none" stroke="#ff0000" d="M190.566,-1440.4168C182.3713,-1431.6106 172.3416,-1420.8325 163.3907,-1411.2135"/>
<polygon fill="#ff0000" stroke="#ff0000" points="165.8737,-1408.744 156.4991,-1403.8076 160.7492,-1413.5127 165.8737,-1408.744"/>
</g>
<!-- BB_002D7371 -->
<g id="node9" class="node">
<title>BB_002D7371</title>
<ellipse fill="none" stroke="#000000" cx="139.1278" cy="-1170.2146" rx="69.5321" ry="18"/>
<text text-anchor="middle" x="139.1278" y="-1166.0146" font-family="Times,serif" font-size="14.00" fill="#000000">BB_002D7371</text>
</g>
<!-- BB_002D732C&#45;&gt;BB_002D7371 -->
<g id="edge9" class="edge">
<title>BB_002D732C-&gt;BB_002D7371</title>
<path fill="none" stroke="#00ff00" d="M213.9726,-1440.1437C228.364,-1398.9792 257.4058,-1296.2344 219.1278,-1224.2146 211.6444,-1210.1346 198.6711,-1199.0609 185.3231,-1190.704"/>
<polygon fill="#00ff00" stroke="#00ff00" points="186.9549,-1187.6042 176.5513,-1185.6003 183.4346,-1193.6546 186.9549,-1187.6042"/>
</g>
<!-- BB_002D73E5 -->
<g id="node19" class="node">
<title>BB_002D73E5</title>
<ellipse fill="none" stroke="#000000" cx="139.1278" cy="-522.2146" rx="70.6742" ry="18"/>
<text text-anchor="middle" x="139.1278" y="-518.0146" font-family="Times,serif" font-size="14.00" fill="#000000">BB_002D73E5</text>
</g>
<!-- BB_002D73DA&#45;&gt;BB_002D73E5 -->
<g id="edge26" class="edge">
<title>BB_002D73DA-&gt;BB_002D73E5</title>
<path fill="none" stroke="#ff0000" d="M176.0154,-576.4168C170.3026,-568.0225 163.3704,-557.8364 157.0644,-548.5704"/>
<polygon fill="#ff0000" stroke="#ff0000" points="159.7904,-546.3551 151.2707,-540.0571 154.0034,-550.2935 159.7904,-546.3551"/>
</g>
<!-- BB_002D7402 -->
<g id="node20" class="node">
<title>BB_002D7402</title>
<ellipse fill="none" stroke="#000000" cx="189.1278" cy="-306.2146" rx="69.5321" ry="18"/>
<text text-anchor="middle" x="189.1278" y="-302.0146" font-family="Times,serif" font-size="14.00" fill="#000000">BB_002D7402</text>
</g>
<!-- BB_002D73DA&#45;&gt;BB_002D7402 -->
<g id="edge27" class="edge">
<title>BB_002D73DA-&gt;BB_002D7402</title>
<path fill="none" stroke="#00ff00" d="M201.5997,-576.2799C208.2933,-566.2407 215.6744,-553.1665 219.1278,-540.2146 239.7382,-462.9151 239.1951,-437.6569 219.1278,-360.2146 216.6781,-350.7607 212.1752,-341.1999 207.3898,-332.8044"/>
<polygon fill="#00ff00" stroke="#00ff00" points="210.3533,-330.9414 202.17,-324.2119 204.3707,-334.5757 210.3533,-330.9414"/>
</g>
<!-- BB_002D734C -->
<g id="node10" class="node">
<title>BB_002D734C</title>
<ellipse fill="none" stroke="#000000" cx="71.1278" cy="-1314.2146" rx="71.2559" ry="18"/>
<text text-anchor="middle" x="71.1278" y="-1310.0146" font-family="Times,serif" font-size="14.00" fill="#000000">BB_002D734C</text>
</g>
<!-- BB_002D7336&#45;&gt;BB_002D734C -->
<g id="edge10" class="edge">
<title>BB_002D7336-&gt;BB_002D734C</title>
<path fill="none" stroke="#ff0000" d="M123.0716,-1368.4168C114.6323,-1359.6106 104.3033,-1348.8325 95.0851,-1339.2135"/>
<polygon fill="#ff0000" stroke="#ff0000" points="97.4338,-1336.6059 87.9878,-1331.8076 92.3799,-1341.4492 97.4338,-1336.6059"/>
</g>
<!-- BB_002D735C -->
<g id="node11" class="node">
<title>BB_002D735C</title>
<ellipse fill="none" stroke="#000000" cx="139.1278" cy="-1242.2146" rx="71.2559" ry="18"/>
<text text-anchor="middle" x="139.1278" y="-1238.0146" font-family="Times,serif" font-size="14.00" fill="#000000">BB_002D735C</text>
</g>
<!-- BB_002D7336&#45;&gt;BB_002D735C -->
<g id="edge11" class="edge">
<title>BB_002D7336-&gt;BB_002D735C</title>
<path fill="none" stroke="#00ff00" d="M144.8212,-1367.8609C147.235,-1357.4777 149.9186,-1344.2089 151.1278,-1332.2146 152.7327,-1316.2953 152.8737,-1312.1191 151.1278,-1296.2146 150.1994,-1287.7571 148.4764,-1278.6861 146.62,-1270.4392"/>
<polygon fill="#00ff00" stroke="#00ff00" points="149.9822,-1269.4502 144.2469,-1260.5419 143.1751,-1271.0824 149.9822,-1269.4502"/>
</g>
<!-- BB_002D7371&#45;&gt;BB_002D73DA -->
<g id="edge15" class="edge">
<title>BB_002D7371-&gt;BB_002D73DA</title>
<path fill="none" stroke="#00ff00" d="M118.5118,-1152.9352C108.1746,-1143.1831 96.35,-1130.172 89.1278,-1116.2146 70.34,-1079.9058 70.1278,-1067.0962 70.1278,-1026.2146 70.1278,-1026.2146 70.1278,-1026.2146 70.1278,-738.2146 70.1278,-694.9663 79.7182,-681.668 107.1278,-648.2146 117.6719,-635.3456 132.0835,-624.3892 145.8293,-615.7772"/>
<polygon fill="#00ff00" stroke="#00ff00" points="147.9336,-618.5969 154.7188,-610.4599 144.3402,-612.5896 147.9336,-618.5969"/>
</g>
<!-- BB_002D738D -->
<g id="node12" class="node">
<title>BB_002D738D</title>
<ellipse fill="none" stroke="#000000" cx="170.1278" cy="-1098.2146" rx="71.8182" ry="18"/>
<text text-anchor="middle" x="170.1278" y="-1094.0146" font-family="Times,serif" font-size="14.00" fill="#000000">BB_002D738D</text>
</g>
<!-- BB_002D7371&#45;&gt;BB_002D738D -->
<g id="edge14" class="edge">
<title>BB_002D7371-&gt;BB_002D738D</title>
<path fill="none" stroke="#ff0000" d="M146.9504,-1152.046C150.4279,-1143.9693 154.595,-1134.2907 158.431,-1125.3814"/>
<polygon fill="#ff0000" stroke="#ff0000" points="161.6751,-1126.697 162.4151,-1116.128 155.2458,-1123.9287 161.6751,-1126.697"/>
</g>
<!-- BB_002D734C&#45;&gt;BB_002D735C -->
<g id="edge12" class="edge">
<title>BB_002D734C-&gt;BB_002D735C</title>
<path fill="none" stroke="#0000ff" d="M87.9368,-1296.4168C96.2538,-1287.6106 106.4332,-1276.8325 115.5177,-1267.2135"/>
<polygon fill="#0000ff" stroke="#0000ff" points="118.1905,-1269.481 122.5122,-1259.8076 113.1014,-1264.6746 118.1905,-1269.481"/>
</g>
<!-- BB_002D735C&#45;&gt;BB_002D7371 -->
<g id="edge13" class="edge">
<title>BB_002D735C-&gt;BB_002D7371</title>
<path fill="none" stroke="#0000ff" d="M139.1278,-1224.046C139.1278,-1216.3456 139.1278,-1207.1889 139.1278,-1198.6312"/>
<polygon fill="#0000ff" stroke="#0000ff" points="142.6279,-1198.6278 139.1278,-1188.6279 135.6279,-1198.6279 142.6279,-1198.6278"/>
</g>
<!-- BB_002D7391 -->
<g id="node13" class="node">
<title>BB_002D7391</title>
<ellipse fill="none" stroke="#000000" cx="169.1278" cy="-1026.2146" rx="69.5321" ry="18"/>
<text text-anchor="middle" x="169.1278" y="-1022.0146" font-family="Times,serif" font-size="14.00" fill="#000000">BB_002D7391</text>
</g>
<!-- BB_002D738D&#45;&gt;BB_002D7391 -->
<g id="edge16" class="edge">
<title>BB_002D738D-&gt;BB_002D7391</title>
<path fill="none" stroke="#ff0000" d="M169.8755,-1080.046C169.7685,-1072.3456 169.6413,-1063.1889 169.5225,-1054.6312"/>
<polygon fill="#ff0000" stroke="#ff0000" points="173.0222,-1054.5783 169.3836,-1044.6279 166.0229,-1054.6755 173.0222,-1054.5783"/>
</g>
<!-- BB_002D739A -->
<g id="node14" class="node">
<title>BB_002D739A</title>
<ellipse fill="none" stroke="#000000" cx="180.1278" cy="-954.2146" rx="71.8182" ry="18"/>
<text text-anchor="middle" x="180.1278" y="-950.0146" font-family="Times,serif" font-size="14.00" fill="#000000">BB_002D739A</text>
</g>
<!-- BB_002D738D&#45;&gt;BB_002D739A -->
<g id="edge17" class="edge">
<title>BB_002D738D-&gt;BB_002D739A</title>
<path fill="none" stroke="#00ff00" d="M206.6405,-1082.6126C222.4144,-1073.8117 239.2609,-1061.1378 248.1278,-1044.2146 255.5535,-1030.0421 255.0848,-1022.623 248.1278,-1008.2146 242.0165,-995.5575 231.3371,-984.9572 220.2276,-976.5944"/>
<polygon fill="#00ff00" stroke="#00ff00" points="221.9167,-973.5046 211.7169,-970.6385 217.9032,-979.2397 221.9167,-973.5046"/>
</g>
<!-- BB_002D7391&#45;&gt;BB_002D739A -->
<g id="edge18" class="edge">
<title>BB_002D7391-&gt;BB_002D739A</title>
<path fill="none" stroke="#0000ff" d="M171.9036,-1008.046C173.08,-1000.3456 174.479,-991.1889 175.7864,-982.6312"/>
<polygon fill="#0000ff" stroke="#0000ff" points="179.2642,-983.0418 177.3147,-972.6279 172.3445,-981.9845 179.2642,-983.0418"/>
</g>
<!-- BB_002D73A6 -->
<g id="node15" class="node">
<title>BB_002D73A6</title>
<ellipse fill="none" stroke="#000000" cx="180.1278" cy="-882.2146" rx="71.8182" ry="18"/>
<text text-anchor="middle" x="180.1278" y="-878.0146" font-family="Times,serif" font-size="14.00" fill="#000000">BB_002D73A6</text>
</g>
<!-- BB_002D739A&#45;&gt;BB_002D73A6 -->
<g id="edge19" class="edge">
<title>BB_002D739A-&gt;BB_002D73A6</title>
<path fill="none" stroke="#0000ff" d="M180.1278,-936.046C180.1278,-928.3456 180.1278,-919.1889 180.1278,-910.6312"/>
<polygon fill="#0000ff" stroke="#0000ff" points="183.6279,-910.6278 180.1278,-900.6279 176.6279,-910.6279 183.6279,-910.6278"/>
</g>
<!-- BB_002D73A6&#45;&gt;BB_002D73A6 -->
<g id="edge21" class="edge">
<title>BB_002D73A6-&gt;BB_002D73A6</title>
<path fill="none" stroke="#00ff00" d="M229.0068,-895.5037C250.8743,-896.7693 269.7868,-892.3396 269.7868,-882.2146 269.7868,-873.7507 256.5709,-869.2667 239.4606,-868.7625"/>
<polygon fill="#00ff00" stroke="#00ff00" points="238.951,-865.2699 229.0068,-868.9255 239.0602,-872.2691 238.951,-865.2699"/>
</g>
<!-- BB_002D73AC -->
<g id="node16" class="node">
<title>BB_002D73AC</title>
<ellipse fill="none" stroke="#000000" cx="180.1278" cy="-810.2146" rx="73.0421" ry="18"/>
<text text-anchor="middle" x="180.1278" y="-806.0146" font-family="Times,serif" font-size="14.00" fill="#000000">BB_002D73AC</text>
</g>
<!-- BB_002D73A6&#45;&gt;BB_002D73AC -->
<g id="edge20" class="edge">
<title>BB_002D73A6-&gt;BB_002D73AC</title>
<path fill="none" stroke="#ff0000" d="M180.1278,-864.046C180.1278,-856.3456 180.1278,-847.1889 180.1278,-838.6312"/>
<polygon fill="#ff0000" stroke="#ff0000" points="183.6279,-838.6278 180.1278,-828.6279 176.6279,-838.6279 183.6279,-838.6278"/>
</g>
<!-- BB_002D73C8 -->
<g id="node17" class="node">
<title>BB_002D73C8</title>
<ellipse fill="none" stroke="#000000" cx="169.1278" cy="-738.2146" rx="71.2559" ry="18"/>
<text text-anchor="middle" x="169.1278" y="-734.0146" font-family="Times,serif" font-size="14.00" fill="#000000">BB_002D73C8</text>
</g>
<!-- BB_002D73AC&#45;&gt;BB_002D73C8 -->
<g id="edge22" class="edge">
<title>BB_002D73AC-&gt;BB_002D73C8</title>
<path fill="none" stroke="#ff0000" d="M177.352,-792.046C176.1756,-784.3456 174.7767,-775.1889 173.4692,-766.6312"/>
<polygon fill="#ff0000" stroke="#ff0000" points="176.9111,-765.9845 171.9409,-756.6279 169.9914,-767.0418 176.9111,-765.9845"/>
</g>
<!-- BB_002D73D7 -->
<g id="node18" class="node">
<title>BB_002D73D7</title>
<ellipse fill="none" stroke="#000000" cx="188.1278" cy="-666.2146" rx="71.8182" ry="18"/>
<text text-anchor="middle" x="188.1278" y="-662.0146" font-family="Times,serif" font-size="14.00" fill="#000000">BB_002D73D7</text>
</g>
<!-- BB_002D73AC&#45;&gt;BB_002D73D7 -->
<g id="edge23" class="edge">
<title>BB_002D73AC-&gt;BB_002D73D7</title>
<path fill="none" stroke="#00ff00" d="M212.1696,-793.8934C226.25,-784.8684 241.3325,-772.2141 249.1278,-756.2146 256.1358,-741.831 255.6972,-734.8038 249.1278,-720.2146 243.6749,-708.1049 234.0155,-697.6138 223.969,-689.183"/>
<polygon fill="#00ff00" stroke="#00ff00" points="225.9347,-686.277 215.9019,-682.8719 221.6214,-691.7903 225.9347,-686.277"/>
</g>
<!-- BB_002D73C8&#45;&gt;BB_002D73D7 -->
<g id="edge24" class="edge">
<title>BB_002D73C8-&gt;BB_002D73D7</title>
<path fill="none" stroke="#0000ff" d="M173.9223,-720.046C175.9767,-712.2609 178.4238,-702.9875 180.7034,-694.3493"/>
<polygon fill="#0000ff" stroke="#0000ff" points="184.1013,-695.1899 183.2688,-684.6279 177.333,-693.4038 184.1013,-695.1899"/>
</g>
<!-- BB_002D73D7&#45;&gt;BB_002D73DA -->
<g id="edge25" class="edge">
<title>BB_002D73D7-&gt;BB_002D73DA</title>
<path fill="none" stroke="#0000ff" d="M188.1278,-648.046C188.1278,-640.3456 188.1278,-631.1889 188.1278,-622.6312"/>
<polygon fill="#0000ff" stroke="#0000ff" points="191.6279,-622.6278 188.1278,-612.6279 184.6279,-622.6279 191.6279,-622.6278"/>
</g>
<!-- BB_002D73F0 -->
<g id="node21" class="node">
<title>BB_002D73F0</title>
<ellipse fill="none" stroke="#000000" cx="72.1278" cy="-450.2146" rx="70.1118" ry="18"/>
<text text-anchor="middle" x="72.1278" y="-446.0146" font-family="Times,serif" font-size="14.00" fill="#000000">BB_002D73F0</text>
</g>
<!-- BB_002D73E5&#45;&gt;BB_002D73F0 -->
<g id="edge28" class="edge">
<title>BB_002D73E5-&gt;BB_002D73F0</title>
<path fill="none" stroke="#ff0000" d="M122.566,-504.4168C114.3713,-495.6106 104.3416,-484.8325 95.3907,-475.2135"/>
<polygon fill="#ff0000" stroke="#ff0000" points="97.8737,-472.744 88.4991,-467.8076 92.7492,-477.5127 97.8737,-472.744"/>
</g>
<!-- BB_002D73F8 -->
<g id="node22" class="node">
<title>BB_002D73F8</title>
<ellipse fill="none" stroke="#000000" cx="140.1278" cy="-378.2146" rx="70.1118" ry="18"/>
<text text-anchor="middle" x="140.1278" y="-374.0146" font-family="Times,serif" font-size="14.00" fill="#000000">BB_002D73F8</text>
</g>
<!-- BB_002D73E5&#45;&gt;BB_002D73F8 -->
<g id="edge29" class="edge">
<title>BB_002D73E5-&gt;BB_002D73F8</title>
<path fill="none" stroke="#00ff00" d="M144.2469,-503.8873C146.8798,-493.5124 149.8074,-480.243 151.1278,-468.2146 152.8737,-452.3101 152.7327,-448.1339 151.1278,-432.2146 150.2776,-423.7811 148.6984,-414.7175 146.9967,-406.47"/>
<polygon fill="#00ff00" stroke="#00ff00" points="150.3857,-405.5843 144.8212,-396.5683 143.5487,-407.0865 150.3857,-405.5843"/>
</g>
<!-- BB_002D740A -->
<g id="node23" class="node">
<title>BB_002D740A</title>
<ellipse fill="none" stroke="#000000" cx="139.1278" cy="-234.2146" rx="71.8182" ry="18"/>
<text text-anchor="middle" x="139.1278" y="-230.0146" font-family="Times,serif" font-size="14.00" fill="#000000">BB_002D740A</text>
</g>
<!-- BB_002D7402&#45;&gt;BB_002D740A -->
<g id="edge32" class="edge">
<title>BB_002D7402-&gt;BB_002D740A</title>
<path fill="none" stroke="#ff0000" d="M176.7683,-288.4168C170.8788,-279.936 163.7192,-269.6261 157.2317,-260.2842"/>
<polygon fill="#ff0000" stroke="#ff0000" points="160.0973,-258.2745 151.5185,-252.0571 154.3477,-262.2673 160.0973,-258.2745"/>
</g>
<!-- BB_002D741F -->
<g id="node24" class="node">
<title>BB_002D741F</title>
<ellipse fill="none" stroke="#000000" cx="141.1278" cy="-90.2146" rx="70.1118" ry="18"/>
<text text-anchor="middle" x="141.1278" y="-86.0146" font-family="Times,serif" font-size="14.00" fill="#000000">BB_002D741F</text>
</g>
<!-- BB_002D7402&#45;&gt;BB_002D741F -->
<g id="edge33" class="edge">
<title>BB_002D7402-&gt;BB_002D741F</title>
<path fill="none" stroke="#00ff00" d="M202.5997,-288.2799C209.2933,-278.2407 216.6744,-265.1665 220.1278,-252.2146 232.4941,-205.8349 242.5313,-186.6656 220.1278,-144.2146 212.7494,-130.2336 199.9412,-119.1854 186.7592,-110.8213"/>
<polygon fill="#00ff00" stroke="#00ff00" points="188.487,-107.777 178.096,-105.7086 184.9292,-113.8054 188.487,-107.777"/>
</g>
<!-- BB_002D73F0&#45;&gt;BB_002D73F8 -->
<g id="edge30" class="edge">
<title>BB_002D73F0-&gt;BB_002D73F8</title>
<path fill="none" stroke="#0000ff" d="M88.9368,-432.4168C97.2538,-423.6106 107.4332,-412.8325 116.5177,-403.2135"/>
<polygon fill="#0000ff" stroke="#0000ff" points="119.1905,-405.481 123.5122,-395.8076 114.1014,-400.6746 119.1905,-405.481"/>
</g>
<!-- BB_002D73F8&#45;&gt;BB_002D7402 -->
<g id="edge31" class="edge">
<title>BB_002D73F8-&gt;BB_002D7402</title>
<path fill="none" stroke="#0000ff" d="M152.2402,-360.4168C157.953,-352.0225 164.8852,-341.8364 171.1912,-332.5704"/>
<polygon fill="#0000ff" stroke="#0000ff" points="174.2522,-334.2935 176.985,-324.0571 168.4652,-330.3551 174.2522,-334.2935"/>
</g>
<!-- BB_002D740A&#45;&gt;BB_002D741F -->
<g id="edge35" class="edge">
<title>BB_002D740A-&gt;BB_002D741F</title>
<path fill="none" stroke="#00ff00" d="M103.0708,-218.5051C87.4964,-209.6807 70.8673,-197.018 62.1278,-180.2146 54.745,-166.0197 54.66,-158.3649 62.1278,-144.2146 69.5063,-130.2336 82.3145,-119.1854 95.4965,-110.8213"/>
<polygon fill="#00ff00" stroke="#00ff00" points="97.3264,-113.8054 104.1596,-105.7086 93.7686,-107.777 97.3264,-113.8054"/>
</g>
<!-- BB_002D7417 -->
<g id="node25" class="node">
<title>BB_002D7417</title>
<ellipse fill="none" stroke="#000000" cx="141.1278" cy="-162.2146" rx="69.5321" ry="18"/>
<text text-anchor="middle" x="141.1278" y="-158.0146" font-family="Times,serif" font-size="14.00" fill="#000000">BB_002D7417</text>
</g>
<!-- BB_002D740A&#45;&gt;BB_002D7417 -->
<g id="edge34" class="edge">
<title>BB_002D740A-&gt;BB_002D7417</title>
<path fill="none" stroke="#ff0000" d="M139.6325,-216.046C139.8464,-208.3456 140.1007,-199.1889 140.3385,-190.6312"/>
<polygon fill="#ff0000" stroke="#ff0000" points="143.8372,-190.7212 140.6163,-180.6279 136.8399,-190.5268 143.8372,-190.7212"/>
</g>
<!-- end -->
<g id="node26" class="node">
<title>end</title>
<polygon fill="none" stroke="#000000" points="159.3431,-36.3225 122.9126,-36.3225 122.9126,.1079 159.3431,.1079 159.3431,-36.3225"/>
<polyline fill="none" stroke="#000000" points="134.9126,-36.3225 122.9126,-24.3225 "/>
<polyline fill="none" stroke="#000000" points="122.9126,-11.8921 134.9126,.1079 "/>
<polyline fill="none" stroke="#000000" points="147.3431,.1079 159.3431,-11.8921 "/>
<polyline fill="none" stroke="#000000" points="159.3431,-24.3225 147.3431,-36.3225 "/>
<text text-anchor="middle" x="141.1278" y="-13.9073" font-family="Times,serif" font-size="14.00" fill="#000000">end</text>
</g>
<!-- BB_002D741F&#45;&gt;end -->
<g id="edge37" class="edge">
<title>BB_002D741F-&gt;end</title>
<path fill="none" stroke="#000000" d="M141.1278,-72.0189C141.1278,-64.2477 141.1278,-54.9956 141.1278,-46.3686"/>
<polygon fill="#000000" stroke="#000000" points="144.6279,-46.2972 141.1278,-36.2972 137.6279,-46.2972 144.6279,-46.2972"/>
</g>
<!-- BB_002D7417&#45;&gt;BB_002D741F -->
<g id="edge36" class="edge">
<title>BB_002D7417-&gt;BB_002D741F</title>
<path fill="none" stroke="#0000ff" d="M141.1278,-144.046C141.1278,-136.3456 141.1278,-127.1889 141.1278,-118.6312"/>
<polygon fill="#0000ff" stroke="#0000ff" points="144.6279,-118.6278 141.1278,-108.6279 137.6279,-118.6279 144.6279,-118.6278"/>
</g>
</g>
</svg>