<?xml version="1.0" encoding="UTF-8" standalone="no"?><!DOCTYPE svg PUBLIC "-//W3C//DTD SVG 1.1//EN" "http://www.w3.org/Graphics/SVG/1.1/DTD/svg11.dtd"><!-- Generated by graphviz version 2.40.1 (20161225.0304)
 --><!-- Title: G Pages: 1 --><svg xmlns="http://www.w3.org/2000/svg" xmlns:xlink="http://www.w3.org/1999/xlink" width="494pt" height="1196pt" viewBox="0.00 0.00 493.57 1196.21">
<g id="graph0" class="graph" transform="scale(1 1) rotate(0) translate(4 1192.2146)">
<title>G</title>
<polygon fill="#ffffff" stroke="transparent" points="-4,4 -4,-1192.2146 489.571,-1192.2146 489.571,4 -4,4"/>
<!-- start -->
<g id="node1" class="node">
<title>start</title>
<polygon fill="none" stroke="#000000" points="209.984,-1188.2146 170.7467,-1170.2146 209.984,-1152.2146 249.2213,-1170.2146 209.984,-1188.2146"/>
<polyline fill="none" stroke="#000000" points="181.6537,-1175.2182 181.6537,-1165.211 "/>
<polyline fill="none" stroke="#000000" points="199.0769,-1157.2182 220.891,-1157.2182 "/>
<polyline fill="none" stroke="#000000" points="238.3142,-1165.211 238.3142,-1175.2182 "/>
<polyline fill="none" stroke="#000000" points="220.891,-1183.211 199.0769,-1183.211 "/>
<text text-anchor="middle" x="209.984" y="-1166.0146" font-family="Times,serif" font-size="14.00" fill="#000000">start</text>
</g>
<!-- BB_002E44B0 -->
<g id="node2" class="node">
<title>BB_002E44B0</title>
<ellipse fill="none" stroke="#000000" cx="209.984" cy="-1098.2146" rx="70.1118" ry="18"/>
<text text-anchor="middle" x="209.984" y="-1094.0146" font-family="Times,serif" font-size="14.00" fill="#000000">BB_002E44B0</text>
</g>
<!-- start&#45;&gt;BB_002E44B0 -->
<g id="edge1" class="edge">
<title>start-&gt;BB_002E44B0</title>
<path fill="none" stroke="#000000" d="M209.984,-1152.046C209.984,-1144.3456 209.984,-1135.1889 209.984,-1126.6312"/>
<polygon fill="#000000" stroke="#000000" points="213.4841,-1126.6278 209.984,-1116.6279 206.4841,-1126.6279 213.4841,-1126.6278"/>
</g>
<!-- BB_002E44FD -->
<g id="node3" class="node">
<title>BB_002E44FD</title>
<ellipse fill="none" stroke="#000000" cx="161.984" cy="-882.2146" rx="71.2539" ry="18"/>
<text text-anchor="middle" x="161.984" y="-878.0146" font-family="Times,serif" font-size="14.00" fill="#000000">BB_002E44FD</text>
</g>
<!-- BB_002E44B0&#45;&gt;BB_002E44FD -->
<g id="edge2" class="edge">
<title>BB_002E44B0-&gt;BB_002E44FD</title>
<path fill="none" stroke="#ff0000" d="M197.9629,-1079.989C191.8715,-1069.8645 184.9438,-1056.8017 180.984,-1044.2146 166.7829,-999.074 163.0258,-943.8366 162.1289,-910.919"/>
<polygon fill="#ff0000" stroke="#ff0000" points="165.623,-910.586 161.9234,-900.6581 158.6244,-910.7262 165.623,-910.586"/>
</g>
<!-- BB_002E4531 -->
<g id="node4" class="node">
<title>BB_002E4531</title>
<ellipse fill="none" stroke="#000000" cx="257.984" cy="-1026.2146" rx="68.3883" ry="18"/>
<text text-anchor="middle" x="257.984" y="-1022.0146" font-family="Times,serif" font-size="14.00" fill="#000000">BB_002E4531</text>
</g>
<!-- BB_002E44B0&#45;&gt;BB_002E4531 -->
<g id="edge3" class="edge">
<title>BB_002E44B0-&gt;BB_002E4531</title>
<path fill="none" stroke="#00ff00" d="M221.8491,-1080.4168C227.4454,-1072.0225 234.2361,-1061.8364 240.4134,-1052.5704"/>
<polygon fill="#00ff00" stroke="#00ff00" points="243.4541,-1054.3191 246.0889,-1044.0571 237.6297,-1050.4362 243.4541,-1054.3191"/>
</g>
<!-- BB_002E45D6 -->
<g id="node5" class="node">
<title>BB_002E45D6</title>
<ellipse fill="none" stroke="#000000" cx="210.984" cy="-378.2146" rx="70.6742" ry="18"/>
<text text-anchor="middle" x="210.984" y="-374.0146" font-family="Times,serif" font-size="14.00" fill="#000000">BB_002E45D6</text>
</g>
<!-- BB_002E44FD&#45;&gt;BB_002E45D6 -->
<g id="edge4" class="edge">
<title>BB_002E44FD-&gt;BB_002E45D6</title>
<path fill="none" stroke="#0000ff" d="M161.984,-864.0292C161.984,-836.7129 161.984,-783.4646 161.984,-738.2146 161.984,-738.2146 161.984,-738.2146 161.984,-522.2146 161.984,-481.333 166.6752,-470.5104 180.984,-432.2146 184.4573,-422.9187 189.3391,-413.2879 194.1575,-404.7788"/>
<polygon fill="#0000ff" stroke="#0000ff" points="197.2361,-406.4482 199.2914,-396.0547 191.2032,-402.898 197.2361,-406.4482"/>
</g>
<!-- BB_002E453A -->
<g id="node6" class="node">
<title>BB_002E453A</title>
<ellipse fill="none" stroke="#000000" cx="414.984" cy="-954.2146" rx="70.6742" ry="18"/>
<text text-anchor="middle" x="414.984" y="-950.0146" font-family="Times,serif" font-size="14.00" fill="#000000">BB_002E453A</text>
</g>
<!-- BB_002E4531&#45;&gt;BB_002E453A -->
<g id="edge5" class="edge">
<title>BB_002E4531-&gt;BB_002E453A</title>
<path fill="none" stroke="#ff0000" d="M292.0506,-1010.5917C315.2417,-999.9563 346.1473,-985.783 371.1685,-974.3083"/>
<polygon fill="#ff0000" stroke="#ff0000" points="372.8109,-977.4057 380.4416,-970.0557 369.8929,-971.0429 372.8109,-977.4057"/>
</g>
<!-- BB_002E4541 -->
<g id="node7" class="node">
<title>BB_002E4541</title>
<ellipse fill="none" stroke="#000000" cx="257.984" cy="-954.2146" rx="68.3883" ry="18"/>
<text text-anchor="middle" x="257.984" y="-950.0146" font-family="Times,serif" font-size="14.00" fill="#000000">BB_002E4541</text>
</g>
<!-- BB_002E4531&#45;&gt;BB_002E4541 -->
<g id="edge6" class="edge">
<title>BB_002E4531-&gt;BB_002E4541</title>
<path fill="none" stroke="#00ff00" d="M257.984,-1008.046C257.984,-1000.3456 257.984,-991.1889 257.984,-982.6312"/>
<polygon fill="#00ff00" stroke="#00ff00" points="261.4841,-982.6278 257.984,-972.6279 254.4841,-982.6279 261.4841,-982.6278"/>
</g>
<!-- BB_002E45EC -->
<g id="node16" class="node">
<title>BB_002E45EC</title>
<ellipse fill="none" stroke="#000000" cx="161.984" cy="-306.2146" rx="71.2539" ry="18"/>
<text text-anchor="middle" x="161.984" y="-302.0146" font-family="Times,serif" font-size="14.00" fill="#000000">BB_002E45EC</text>
</g>
<!-- BB_002E45D6&#45;&gt;BB_002E45EC -->
<g id="edge20" class="edge">
<title>BB_002E45D6-&gt;BB_002E45EC</title>
<path fill="none" stroke="#ff0000" d="M198.8716,-360.4168C193.1588,-352.0225 186.2266,-341.8364 179.9206,-332.5704"/>
<polygon fill="#ff0000" stroke="#ff0000" points="182.6466,-330.3551 174.1268,-324.0571 176.8596,-334.2935 182.6466,-330.3551"/>
</g>
<!-- BB_002E4631 -->
<g id="node17" class="node">
<title>BB_002E4631</title>
<ellipse fill="none" stroke="#000000" cx="223.984" cy="-90.2146" rx="68.3883" ry="18"/>
<text text-anchor="middle" x="223.984" y="-86.0146" font-family="Times,serif" font-size="14.00" fill="#000000">BB_002E4631</text>
</g>
<!-- BB_002E45D6&#45;&gt;BB_002E4631 -->
<g id="edge21" class="edge">
<title>BB_002E45D6-&gt;BB_002E4631</title>
<path fill="none" stroke="#00ff00" d="M224.4559,-360.2799C231.1495,-350.2407 238.5306,-337.1665 241.984,-324.2146 262.5944,-246.9151 254.7985,-223.1816 241.984,-144.2146 240.566,-135.4767 237.9364,-126.2421 235.1168,-117.9282"/>
<polygon fill="#00ff00" stroke="#00ff00" points="238.342,-116.5545 231.6519,-108.339 231.7586,-118.9333 238.342,-116.5545"/>
</g>
<!-- BB_002E454D -->
<g id="node8" class="node">
<title>BB_002E454D</title>
<ellipse fill="none" stroke="#000000" cx="366.984" cy="-882.2146" rx="70.6742" ry="18"/>
<text text-anchor="middle" x="366.984" y="-878.0146" font-family="Times,serif" font-size="14.00" fill="#000000">BB_002E454D</text>
</g>
<!-- BB_002E453A&#45;&gt;BB_002E454D -->
<g id="edge7" class="edge">
<title>BB_002E453A-&gt;BB_002E454D</title>
<path fill="none" stroke="#0000ff" d="M403.1188,-936.4168C397.5226,-928.0225 390.7318,-917.8364 384.5545,-908.5704"/>
<polygon fill="#0000ff" stroke="#0000ff" points="387.3382,-906.4362 378.879,-900.0571 381.5139,-910.3191 387.3382,-906.4362"/>
</g>
<!-- BB_002E4541&#45;&gt;BB_002E454D -->
<g id="edge8" class="edge">
<title>BB_002E4541-&gt;BB_002E454D</title>
<path fill="none" stroke="#0000ff" d="M283.5396,-937.3338C298.1931,-927.6545 316.7792,-915.3774 332.6892,-904.868"/>
<polygon fill="#0000ff" stroke="#0000ff" points="334.7958,-907.6712 341.2107,-899.2391 330.9377,-901.8304 334.7958,-907.6712"/>
</g>
<!-- BB_002E4576 -->
<g id="node9" class="node">
<title>BB_002E4576</title>
<ellipse fill="none" stroke="#000000" cx="412.984" cy="-810.2146" rx="68.3883" ry="18"/>
<text text-anchor="middle" x="412.984" y="-806.0146" font-family="Times,serif" font-size="14.00" fill="#000000">BB_002E4576</text>
</g>
<!-- BB_002E454D&#45;&gt;BB_002E4576 -->
<g id="edge9" class="edge">
<title>BB_002E454D-&gt;BB_002E4576</title>
<path fill="none" stroke="#ff0000" d="M378.3548,-864.4168C383.7178,-856.0225 390.2256,-845.8364 396.1455,-836.5704"/>
<polygon fill="#ff0000" stroke="#ff0000" points="399.1501,-838.3685 401.5846,-828.0571 393.2512,-834.5997 399.1501,-838.3685"/>
</g>
<!-- BB_002E4584 -->
<g id="node10" class="node">
<title>BB_002E4584</title>
<ellipse fill="none" stroke="#000000" cx="257.984" cy="-810.2146" rx="68.3883" ry="18"/>
<text text-anchor="middle" x="257.984" y="-806.0146" font-family="Times,serif" font-size="14.00" fill="#000000">BB_002E4584</text>
</g>
<!-- BB_002E454D&#45;&gt;BB_002E4584 -->
<g id="edge10" class="edge">
<title>BB_002E454D-&gt;BB_002E4584</title>
<path fill="none" stroke="#00ff00" d="M341.4283,-865.3338C326.6687,-855.5843 307.9192,-843.1993 291.9333,-832.6399"/>
<polygon fill="#00ff00" stroke="#00ff00" points="293.6526,-829.5809 283.3795,-826.9896 289.7944,-835.4217 293.6526,-829.5809"/>
</g>
<!-- BB_002E4587 -->
<g id="node11" class="node">
<title>BB_002E4587</title>
<ellipse fill="none" stroke="#000000" cx="276.984" cy="-738.2146" rx="68.3883" ry="18"/>
<text text-anchor="middle" x="276.984" y="-734.0146" font-family="Times,serif" font-size="14.00" fill="#000000">BB_002E4587</text>
</g>
<!-- BB_002E4576&#45;&gt;BB_002E4587 -->
<g id="edge11" class="edge">
<title>BB_002E4576-&gt;BB_002E4587</title>
<path fill="none" stroke="#0000ff" d="M382.4629,-794.0564C363.0885,-783.7993 337.811,-770.4172 316.8583,-759.3245"/>
<polygon fill="#0000ff" stroke="#0000ff" points="318.3492,-756.1537 307.8737,-754.568 315.074,-762.3402 318.3492,-756.1537"/>
</g>
<!-- BB_002E4584&#45;&gt;BB_002E4587 -->
<g id="edge12" class="edge">
<title>BB_002E4584-&gt;BB_002E4587</title>
<path fill="none" stroke="#0000ff" d="M262.7785,-792.046C264.8329,-784.2609 267.28,-774.9875 269.5595,-766.3493"/>
<polygon fill="#0000ff" stroke="#0000ff" points="272.9574,-767.1899 272.1249,-756.6279 266.1891,-765.4038 272.9574,-767.1899"/>
</g>
<!-- BB_002E4597 -->
<g id="node12" class="node">
<title>BB_002E4597</title>
<ellipse fill="none" stroke="#000000" cx="325.984" cy="-666.2146" rx="68.3883" ry="18"/>
<text text-anchor="middle" x="325.984" y="-662.0146" font-family="Times,serif" font-size="14.00" fill="#000000">BB_002E4597</text>
</g>
<!-- BB_002E4587&#45;&gt;BB_002E4597 -->
<g id="edge13" class="edge">
<title>BB_002E4587-&gt;BB_002E4597</title>
<path fill="none" stroke="#ff0000" d="M289.0963,-720.4168C294.8091,-712.0225 301.7414,-701.8364 308.0473,-692.5704"/>
<polygon fill="#ff0000" stroke="#ff0000" points="311.1083,-694.2935 313.8411,-684.0571 305.3213,-690.3551 311.1083,-694.2935"/>
</g>
<!-- BB_002E45A4 -->
<g id="node13" class="node">
<title>BB_002E45A4</title>
<ellipse fill="none" stroke="#000000" cx="279.984" cy="-594.2146" rx="70.6742" ry="18"/>
<text text-anchor="middle" x="279.984" y="-590.0146" font-family="Times,serif" font-size="14.00" fill="#000000">BB_002E45A4</text>
</g>
<!-- BB_002E4587&#45;&gt;BB_002E45A4 -->
<g id="edge14" class="edge">
<title>BB_002E4587-&gt;BB_002E45A4</title>
<path fill="none" stroke="#00ff00" d="M264.8023,-720.0966C258.7524,-710.0037 252.0862,-696.9367 248.984,-684.2146 245.1935,-668.6701 244.8619,-663.6745 248.984,-648.2146 251.52,-638.703 256.1744,-629.1255 261.1191,-620.7325"/>
<polygon fill="#00ff00" stroke="#00ff00" points="264.1554,-622.4787 266.5121,-612.1493 258.2283,-618.7545 264.1554,-622.4787"/>
</g>
<!-- BB_002E4597&#45;&gt;BB_002E45A4 -->
<g id="edge15" class="edge">
<title>BB_002E4597-&gt;BB_002E45A4</title>
<path fill="none" stroke="#0000ff" d="M314.6132,-648.4168C309.2501,-640.0225 302.7423,-629.8364 296.8224,-620.5704"/>
<polygon fill="#0000ff" stroke="#0000ff" points="299.7168,-618.5997 291.3834,-612.0571 293.8179,-622.3685 299.7168,-618.5997"/>
</g>
<!-- BB_002E45A8 -->
<g id="node14" class="node">
<title>BB_002E45A8</title>
<ellipse fill="none" stroke="#000000" cx="328.984" cy="-522.2146" rx="70.6742" ry="18"/>
<text text-anchor="middle" x="328.984" y="-518.0146" font-family="Times,serif" font-size="14.00" fill="#000000">BB_002E45A8</text>
</g>
<!-- BB_002E45A4&#45;&gt;BB_002E45A8 -->
<g id="edge16" class="edge">
<title>BB_002E45A4-&gt;BB_002E45A8</title>
<path fill="none" stroke="#ff0000" d="M292.0963,-576.4168C297.8091,-568.0225 304.7414,-557.8364 311.0473,-548.5704"/>
<polygon fill="#ff0000" stroke="#ff0000" points="314.1083,-550.2935 316.8411,-540.0571 308.3213,-546.3551 314.1083,-550.2935"/>
</g>
<!-- BB_002E45B9 -->
<g id="node15" class="node">
<title>BB_002E45B9</title>
<ellipse fill="none" stroke="#000000" cx="259.984" cy="-450.2146" rx="70.1118" ry="18"/>
<text text-anchor="middle" x="259.984" y="-446.0146" font-family="Times,serif" font-size="14.00" fill="#000000">BB_002E45B9</text>
</g>
<!-- BB_002E45A4&#45;&gt;BB_002E45B9 -->
<g id="edge17" class="edge">
<title>BB_002E45A4-&gt;BB_002E45B9</title>
<path fill="none" stroke="#00ff00" d="M266.5121,-576.2799C259.8185,-566.2407 252.4373,-553.1665 248.984,-540.2146 243.5598,-519.8714 246.8061,-496.2183 251.1435,-478.267"/>
<polygon fill="#00ff00" stroke="#00ff00" points="254.5733,-478.9885 253.7661,-468.4245 247.8093,-477.1862 254.5733,-478.9885"/>
</g>
<!-- BB_002E45A8&#45;&gt;BB_002E45B9 -->
<g id="edge18" class="edge">
<title>BB_002E45A8-&gt;BB_002E45B9</title>
<path fill="none" stroke="#0000ff" d="M311.9278,-504.4168C303.4885,-495.6106 293.1594,-484.8325 283.9412,-475.2135"/>
<polygon fill="#0000ff" stroke="#0000ff" points="286.29,-472.6059 276.844,-467.8076 281.2361,-477.4492 286.29,-472.6059"/>
</g>
<!-- BB_002E45B9&#45;&gt;BB_002E45D6 -->
<g id="edge19" class="edge">
<title>BB_002E45B9-&gt;BB_002E45D6</title>
<path fill="none" stroke="#0000ff" d="M247.8716,-432.4168C242.1588,-424.0225 235.2266,-413.8364 228.9206,-404.5704"/>
<polygon fill="#0000ff" stroke="#0000ff" points="231.6466,-402.3551 223.1268,-396.0571 225.8596,-406.2935 231.6466,-402.3551"/>
</g>
<!-- BB_002E45F1 -->
<g id="node18" class="node">
<title>BB_002E45F1</title>
<ellipse fill="none" stroke="#000000" cx="68.984" cy="-234.2146" rx="68.9679" ry="18"/>
<text text-anchor="middle" x="68.984" y="-230.0146" font-family="Times,serif" font-size="14.00" fill="#000000">BB_002E45F1</text>
</g>
<!-- BB_002E45EC&#45;&gt;BB_002E45F1 -->
<g id="edge22" class="edge">
<title>BB_002E45EC-&gt;BB_002E45F1</title>
<path fill="none" stroke="#ff0000" d="M139.4713,-288.7854C127.4767,-279.4993 112.5499,-267.9431 99.5244,-257.8588"/>
<polygon fill="#ff0000" stroke="#ff0000" points="101.3392,-254.8375 91.2894,-251.4833 97.054,-260.3726 101.3392,-254.8375"/>
</g>
<!-- BB_002E4617 -->
<g id="node19" class="node">
<title>BB_002E4617</title>
<ellipse fill="none" stroke="#000000" cx="164.984" cy="-162.2146" rx="68.3883" ry="18"/>
<text text-anchor="middle" x="164.984" y="-158.0146" font-family="Times,serif" font-size="14.00" fill="#000000">BB_002E4617</text>
</g>
<!-- BB_002E45EC&#45;&gt;BB_002E4617 -->
<g id="edge23" class="edge">
<title>BB_002E45EC-&gt;BB_002E4617</title>
<path fill="none" stroke="#00ff00" d="M162.3639,-287.9769C162.8756,-263.4156 163.7913,-219.462 164.3933,-190.5687"/>
<polygon fill="#00ff00" stroke="#00ff00" points="167.898,-190.375 164.6071,-180.3042 160.8995,-190.2291 167.898,-190.375"/>
</g>
<!-- end -->
<g id="node21" class="node">
<title>end</title>
<polygon fill="none" stroke="#000000" points="164.1992,-36.3225 127.7687,-36.3225 127.7687,.1079 164.1992,.1079 164.1992,-36.3225"/>
<polyline fill="none" stroke="#000000" points="139.7687,-36.3225 127.7687,-24.3225 "/>
<polyline fill="none" stroke="#000000" points="127.7687,-11.8921 139.7687,.1079 "/>
<polyline fill="none" stroke="#000000" points="152.1992,.1079 164.1992,-11.8921 "/>
<polyline fill="none" stroke="#000000" points="164.1992,-24.3225 152.1992,-36.3225 "/>
<text text-anchor="middle" x="145.984" y="-13.9073" font-family="Times,serif" font-size="14.00" fill="#000000">end</text>
</g>
<!-- BB_002E4631&#45;&gt;end -->
<g id="edge28" class="edge">
<title>BB_002E4631-&gt;end</title>
<path fill="none" stroke="#000000" d="M205.1023,-72.7594C195.0889,-63.5025 182.6388,-51.993 171.7501,-41.9269"/>
<polygon fill="#000000" stroke="#000000" points="173.8735,-39.1234 164.1546,-34.9052 169.1217,-44.2636 173.8735,-39.1234"/>
</g>
<!-- BB_002E45F1&#45;&gt;BB_002E4617 -->
<g id="edge25" class="edge">
<title>BB_002E45F1-&gt;BB_002E4617</title>
<path fill="none" stroke="#00ff00" d="M91.7346,-217.1516C104.3157,-207.7158 120.1321,-195.8535 133.8451,-185.5687"/>
<polygon fill="#00ff00" stroke="#00ff00" points="136.1639,-188.2047 142.0639,-179.4046 131.9639,-182.6047 136.1639,-188.2047"/>
</g>
<!-- BB_002E45F6 -->
<g id="node20" class="node">
<title>BB_002E45F6</title>
<ellipse fill="none" stroke="#000000" cx="68.984" cy="-90.2146" rx="68.9679" ry="18"/>
<text text-anchor="middle" x="68.984" y="-86.0146" font-family="Times,serif" font-size="14.00" fill="#000000">BB_002E45F6</text>
</g>
<!-- BB_002E45F1&#45;&gt;BB_002E45F6 -->
<g id="edge24" class="edge">
<title>BB_002E45F1-&gt;BB_002E45F6</title>
<path fill="none" stroke="#ff0000" d="M68.984,-215.9769C68.984,-191.4156 68.984,-147.462 68.984,-118.5687"/>
<polygon fill="#ff0000" stroke="#ff0000" points="72.4841,-118.3042 68.984,-108.3042 65.4841,-118.3043 72.4841,-118.3042"/>
</g>
<!-- BB_002E4617&#45;&gt;BB_002E4631 -->
<g id="edge27" class="edge">
<title>BB_002E4617-&gt;BB_002E4631</title>
<path fill="none" stroke="#0000ff" d="M179.5682,-144.4168C186.5888,-135.8494 195.1388,-125.4155 202.8555,-115.9985"/>
<polygon fill="#0000ff" stroke="#0000ff" points="205.7319,-118.0103 209.363,-108.0571 200.3176,-113.5736 205.7319,-118.0103"/>
</g>
<!-- BB_002E45F6&#45;&gt;end -->
<g id="edge26" class="edge">
<title>BB_002E45F6-&gt;end</title>
<path fill="none" stroke="#000000" d="M87.6235,-72.7594C97.437,-63.5696 109.6211,-52.1596 120.3142,-42.146"/>
<polygon fill="#000000" stroke="#000000" points="122.875,-44.543 127.7818,-35.1529 118.0902,-39.4336 122.875,-44.543"/>
</g>
</g>
</svg>