<?xml version="1.0" encoding="UTF-8" standalone="no"?><!DOCTYPE svg PUBLIC "-//W3C//DTD SVG 1.1//EN" "http://www.w3.org/Graphics/SVG/1.1/DTD/svg11.dtd"><!-- Generated by graphviz version 2.40.1 (20161225.0304)
 --><!-- Title: G Pages: 1 --><svg xmlns="http://www.w3.org/2000/svg" xmlns:xlink="http://www.w3.org/1999/xlink" width="663pt" height="1662pt" viewBox="0.00 0.00 662.95 1661.86">
<g id="graph0" class="graph" transform="scale(1 1) rotate(0) translate(4 1657.8584)">
<title>G</title>
<polygon fill="#ffffff" stroke="transparent" points="-4,4 -4,-1657.8584 658.9534,-1657.8584 658.9534,4 -4,4"/>
<!-- start -->
<g id="node1" class="node">
<title>start</title>
<polygon fill="none" stroke="#000000" points="538.9534,-1653.8584 499.7161,-1635.8584 538.9534,-1617.8584 578.1907,-1635.8584 538.9534,-1653.8584"/>
<polyline fill="none" stroke="#000000" points="510.6231,-1640.862 510.6231,-1630.8548 "/>
<polyline fill="none" stroke="#000000" points="528.0463,-1622.862 549.8605,-1622.862 "/>
<polyline fill="none" stroke="#000000" points="567.2836,-1630.8548 567.2836,-1640.862 "/>
<polyline fill="none" stroke="#000000" points="549.8605,-1648.8548 528.0463,-1648.8548 "/>
<text text-anchor="middle" x="538.9534" y="-1631.6584" font-family="Times,serif" font-size="14.00" fill="#000000">start</text>
</g>
<!-- BB_002DEAA0 -->
<g id="node2" class="node">
<title>BB_002DEAA0</title>
<ellipse fill="none" stroke="#000000" cx="538.9534" cy="-1563.8584" rx="74.7458" ry="18"/>
<text text-anchor="middle" x="538.9534" y="-1559.6584" font-family="Times,serif" font-size="14.00" fill="#000000">BB_002DEAA0</text>
</g>
<!-- start&#45;&gt;BB_002DEAA0 -->
<g id="edge1" class="edge">
<title>start-&gt;BB_002DEAA0</title>
<path fill="none" stroke="#000000" d="M538.9534,-1617.6898C538.9534,-1609.9894 538.9534,-1600.8327 538.9534,-1592.275"/>
<polygon fill="#000000" stroke="#000000" points="542.4535,-1592.2716 538.9534,-1582.2717 535.4535,-1592.2717 542.4535,-1592.2716"/>
</g>
<!-- BB_002DEB28 -->
<g id="node3" class="node">
<title>BB_002DEB28</title>
<ellipse fill="none" stroke="#000000" cx="488.9534" cy="-1491.8584" rx="72.3981" ry="18"/>
<text text-anchor="middle" x="488.9534" y="-1487.6584" font-family="Times,serif" font-size="14.00" fill="#000000">BB_002DEB28</text>
</g>
<!-- BB_002DEAA0&#45;&gt;BB_002DEB28 -->
<g id="edge2" class="edge">
<title>BB_002DEAA0-&gt;BB_002DEB28</title>
<path fill="none" stroke="#ff0000" d="M526.5938,-1546.0606C520.7043,-1537.5798 513.5447,-1527.2699 507.0573,-1517.928"/>
<polygon fill="#ff0000" stroke="#ff0000" points="509.9228,-1515.9183 501.344,-1509.7009 504.1732,-1519.9111 509.9228,-1515.9183"/>
</g>
<!-- BB_002DEB5A -->
<g id="node4" class="node">
<title>BB_002DEB5A</title>
<ellipse fill="none" stroke="#000000" cx="538.9534" cy="-1275.8584" rx="74.1836" ry="18"/>
<text text-anchor="middle" x="538.9534" y="-1271.6584" font-family="Times,serif" font-size="14.00" fill="#000000">BB_002DEB5A</text>
</g>
<!-- BB_002DEAA0&#45;&gt;BB_002DEB5A -->
<g id="edge3" class="edge">
<title>BB_002DEAA0-&gt;BB_002DEB5A</title>
<path fill="none" stroke="#00ff00" d="M552.4253,-1545.9237C559.1189,-1535.8845 566.5,-1522.8103 569.9534,-1509.8584 590.5638,-1432.5589 590.5638,-1407.1579 569.9534,-1329.8584 567.4173,-1320.3468 562.763,-1310.7693 557.8183,-1302.3763"/>
<polygon fill="#00ff00" stroke="#00ff00" points="560.7091,-1300.3983 552.4253,-1293.7931 554.7819,-1304.1225 560.7091,-1300.3983"/>
</g>
<!-- BB_002DEB3C -->
<g id="node5" class="node">
<title>BB_002DEB3C</title>
<ellipse fill="none" stroke="#000000" cx="387.9534" cy="-1419.8584" rx="73.6215" ry="18"/>
<text text-anchor="middle" x="387.9534" y="-1415.6584" font-family="Times,serif" font-size="14.00" fill="#000000">BB_002DEB3C</text>
</g>
<!-- BB_002DEB28&#45;&gt;BB_002DEB3C -->
<g id="edge4" class="edge">
<title>BB_002DEB28-&gt;BB_002DEB3C</title>
<path fill="none" stroke="#ff0000" d="M465.0178,-1474.7954C451.6565,-1465.2706 434.827,-1453.2733 420.3063,-1442.9219"/>
<polygon fill="#ff0000" stroke="#ff0000" points="422.2417,-1440.0032 412.0672,-1437.0484 418.1783,-1445.7032 422.2417,-1440.0032"/>
</g>
<!-- BB_002DEB50 -->
<g id="node6" class="node">
<title>BB_002DEB50</title>
<ellipse fill="none" stroke="#000000" cx="488.9534" cy="-1347.8584" rx="72.3981" ry="18"/>
<text text-anchor="middle" x="488.9534" y="-1343.6584" font-family="Times,serif" font-size="14.00" fill="#000000">BB_002DEB50</text>
</g>
<!-- BB_002DEB28&#45;&gt;BB_002DEB50 -->
<g id="edge5" class="edge">
<title>BB_002DEB28-&gt;BB_002DEB50</title>
<path fill="none" stroke="#00ff00" d="M488.9534,-1473.6207C488.9534,-1449.0594 488.9534,-1405.1058 488.9534,-1376.2125"/>
<polygon fill="#00ff00" stroke="#00ff00" points="492.4535,-1375.948 488.9534,-1365.948 485.4535,-1375.9481 492.4535,-1375.948"/>
</g>
<!-- BB_002DEB77 -->
<g id="node8" class="node">
<title>BB_002DEB77</title>
<ellipse fill="none" stroke="#000000" cx="255.9534" cy="-1203.8584" rx="72.3981" ry="18"/>
<text text-anchor="middle" x="255.9534" y="-1199.6584" font-family="Times,serif" font-size="14.00" fill="#000000">BB_002DEB77</text>
</g>
<!-- BB_002DEB5A&#45;&gt;BB_002DEB77 -->
<g id="edge9" class="edge">
<title>BB_002DEB5A-&gt;BB_002DEB77</title>
<path fill="none" stroke="#ff0000" d="M487.3759,-1262.7362C439.2487,-1250.4918 367.4242,-1232.2185 316.5766,-1219.282"/>
<polygon fill="#ff0000" stroke="#ff0000" points="317.2542,-1215.8429 306.7,-1216.7692 315.5282,-1222.6268 317.2542,-1215.8429"/>
</g>
<!-- BB_002DEDFE -->
<g id="node9" class="node">
<title>BB_002DEDFE</title>
<ellipse fill="none" stroke="#000000" cx="293.9534" cy="-162.2146" rx="74.1817" ry="18"/>
<text text-anchor="middle" x="293.9534" y="-158.0146" font-family="Times,serif" font-size="14.00" fill="#000000">BB_002DEDFE</text>
</g>
<!-- BB_002DEB5A&#45;&gt;BB_002DEDFE -->
<g id="edge10" class="edge">
<title>BB_002DEB5A-&gt;BB_002DEDFE</title>
<path fill="none" stroke="#00ff00" d="M565.8577,-1259.0128C600.1253,-1235.2337 654.9534,-1188.3589 654.9534,-1131.8584 654.9534,-1131.8584 654.9534,-1131.8584 654.9534,-306.2146 654.9534,-244.0341 467.8421,-196.7489 363.0374,-175.1405"/>
<polygon fill="#00ff00" stroke="#00ff00" points="363.6582,-171.6952 353.161,-173.1299 362.2617,-178.5545 363.6582,-171.6952"/>
</g>
<!-- BB_002DEB3C&#45;&gt;BB_002DEB50 -->
<g id="edge6" class="edge">
<title>BB_002DEB3C-&gt;BB_002DEB50</title>
<path fill="none" stroke="#ff0000" d="M411.889,-1402.7954C425.2502,-1393.2706 442.0798,-1381.2733 456.6005,-1370.9219"/>
<polygon fill="#ff0000" stroke="#ff0000" points="458.7285,-1373.7032 464.8396,-1365.0484 454.6651,-1368.0032 458.7285,-1373.7032"/>
</g>
<!-- BB_002DEE2E -->
<g id="node7" class="node">
<title>BB_002DEE2E</title>
<ellipse fill="none" stroke="#000000" cx="387.9534" cy="-987.8584" rx="72.9586" ry="18"/>
<text text-anchor="middle" x="387.9534" y="-983.6584" font-family="Times,serif" font-size="14.00" fill="#000000">BB_002DEE2E</text>
</g>
<!-- BB_002DEB3C&#45;&gt;BB_002DEE2E -->
<g id="edge7" class="edge">
<title>BB_002DEB3C-&gt;BB_002DEE2E</title>
<path fill="none" stroke="#00ff00" d="M387.9534,-1401.673C387.9534,-1374.3567 387.9534,-1321.1084 387.9534,-1275.8584 387.9534,-1275.8584 387.9534,-1275.8584 387.9534,-1131.8584 387.9534,-1091.7344 387.9534,-1045.3215 387.9534,-1016.2761"/>
<polygon fill="#00ff00" stroke="#00ff00" points="391.4535,-1016.0437 387.9534,-1006.0438 384.4535,-1016.0438 391.4535,-1016.0437"/>
</g>
<!-- BB_002DEB50&#45;&gt;BB_002DEB5A -->
<g id="edge8" class="edge">
<title>BB_002DEB50-&gt;BB_002DEB5A</title>
<path fill="none" stroke="#0000ff" d="M501.3129,-1330.0606C507.2024,-1321.5798 514.362,-1311.2699 520.8495,-1301.928"/>
<polygon fill="#0000ff" stroke="#0000ff" points="523.7335,-1303.9111 526.5627,-1293.7009 517.9839,-1299.9183 523.7335,-1303.9111"/>
</g>
<!-- dead_end -->
<g id="node29" class="node">
<title>dead_end</title>
<polygon fill="none" stroke="#000000" points="422.5981,-933.6812 353.3087,-933.6812 353.3087,-864.3918 422.5981,-864.3918 422.5981,-933.6812"/>
<polyline fill="none" stroke="#000000" points="365.3087,-933.6812 353.3087,-921.6812 "/>
<polyline fill="none" stroke="#000000" points="353.3087,-876.3918 365.3087,-864.3918 "/>
<polyline fill="none" stroke="#000000" points="410.5981,-864.3918 422.5981,-876.3918 "/>
<polyline fill="none" stroke="#000000" points="422.5981,-921.6812 410.5981,-933.6812 "/>
<text text-anchor="middle" x="387.9534" y="-894.8365" font-family="Times,serif" font-size="14.00" fill="#000000">dead_end</text>
</g>
<!-- BB_002DEE2E&#45;&gt;dead_end -->
<g id="edge46" class="edge">
<title>BB_002DEE2E-&gt;dead_end</title>
<path fill="none" stroke="#000000" d="M387.9534,-969.4544C387.9534,-961.9968 387.9534,-953.0284 387.9534,-944.0283"/>
<polygon fill="#000000" stroke="#000000" points="391.4535,-943.9321 387.9534,-933.9321 384.4535,-943.9322 391.4535,-943.9321"/>
</g>
<!-- BB_002DEBBD -->
<g id="node10" class="node">
<title>BB_002DEBBD</title>
<ellipse fill="none" stroke="#000000" cx="255.9534" cy="-1131.8584" rx="75.9068" ry="18"/>
<text text-anchor="middle" x="255.9534" y="-1127.6584" font-family="Times,serif" font-size="14.00" fill="#000000">BB_002DEBBD</text>
</g>
<!-- BB_002DEB77&#45;&gt;BB_002DEBBD -->
<g id="edge11" class="edge">
<title>BB_002DEB77-&gt;BB_002DEBBD</title>
<path fill="none" stroke="#ff0000" d="M255.9534,-1185.6898C255.9534,-1177.9894 255.9534,-1168.8327 255.9534,-1160.275"/>
<polygon fill="#ff0000" stroke="#ff0000" points="259.4535,-1160.2716 255.9534,-1150.2717 252.4535,-1160.2717 259.4535,-1160.2716"/>
</g>
<!-- BB_002DEBEF -->
<g id="node11" class="node">
<title>BB_002DEBEF</title>
<ellipse fill="none" stroke="#000000" cx="242.9534" cy="-899.0365" rx="73.6196" ry="18"/>
<text text-anchor="middle" x="242.9534" y="-894.8365" font-family="Times,serif" font-size="14.00" fill="#000000">BB_002DEBEF</text>
</g>
<!-- BB_002DEB77&#45;&gt;BB_002DEBEF -->
<g id="edge12" class="edge">
<title>BB_002DEB77-&gt;BB_002DEBEF</title>
<path fill="none" stroke="#00ff00" d="M218.2301,-1188.2999C201.283,-1179.4487 182.5333,-1166.7202 170.9534,-1149.8584 133.9949,-1096.0421 148.4298,-1070.8213 141.9534,-1005.8584 140.3662,-989.9373 134.5702,-984.053 141.9534,-969.8584 153.4888,-947.6809 175.5029,-931.0036 196.0417,-919.4215"/>
<polygon fill="#00ff00" stroke="#00ff00" points="197.8597,-922.4183 205.0241,-914.6131 194.556,-916.2469 197.8597,-922.4183"/>
</g>
<!-- BB_002DEE03 -->
<g id="node27" class="node">
<title>BB_002DEE03</title>
<ellipse fill="none" stroke="#000000" cx="184.9534" cy="-90.2146" rx="71.8163" ry="18"/>
<text text-anchor="middle" x="184.9534" y="-86.0146" font-family="Times,serif" font-size="14.00" fill="#000000">BB_002DEE03</text>
</g>
<!-- BB_002DEDFE&#45;&gt;BB_002DEE03 -->
<g id="edge44" class="edge">
<title>BB_002DEDFE-&gt;BB_002DEE03</title>
<path fill="none" stroke="#0000ff" d="M268.1219,-145.1516C253.4613,-135.4676 234.9316,-123.2277 219.0853,-112.7604"/>
<polygon fill="#0000ff" stroke="#0000ff" points="220.8725,-109.7464 210.5994,-107.1551 217.0144,-115.5872 220.8725,-109.7464"/>
</g>
<!-- BB_002DEBD1 -->
<g id="node12" class="node">
<title>BB_002DEBD1</title>
<ellipse fill="none" stroke="#000000" cx="285.9534" cy="-1059.8584" rx="74.1836" ry="18"/>
<text text-anchor="middle" x="285.9534" y="-1055.6584" font-family="Times,serif" font-size="14.00" fill="#000000">BB_002DEBD1</text>
</g>
<!-- BB_002DEBBD&#45;&gt;BB_002DEBD1 -->
<g id="edge13" class="edge">
<title>BB_002DEBBD-&gt;BB_002DEBD1</title>
<path fill="none" stroke="#ff0000" d="M263.5237,-1113.6898C266.8889,-1105.6131 270.9217,-1095.9345 274.6339,-1087.0252"/>
<polygon fill="#ff0000" stroke="#ff0000" points="277.874,-1088.3488 278.4895,-1077.7718 271.4125,-1085.6564 277.874,-1088.3488"/>
</g>
<!-- BB_002DEBE5 -->
<g id="node13" class="node">
<title>BB_002DEBE5</title>
<ellipse fill="none" stroke="#000000" cx="223.9534" cy="-987.8584" rx="73.0402" ry="18"/>
<text text-anchor="middle" x="223.9534" y="-983.6584" font-family="Times,serif" font-size="14.00" fill="#000000">BB_002DEBE5</text>
</g>
<!-- BB_002DEBBD&#45;&gt;BB_002DEBE5 -->
<g id="edge14" class="edge">
<title>BB_002DEBBD-&gt;BB_002DEBE5</title>
<path fill="none" stroke="#00ff00" d="M232.022,-1114.6847C220.9359,-1105.227 208.9176,-1092.4498 202.9534,-1077.8584 194.6685,-1057.5896 201.1849,-1033.354 209.0761,-1015.1412"/>
<polygon fill="#00ff00" stroke="#00ff00" points="212.3036,-1016.5024 213.3861,-1005.963 205.9674,-1013.527 212.3036,-1016.5024"/>
</g>
<!-- BB_002DEBEF&#45;&gt;BB_002DEDFE -->
<g id="edge19" class="edge">
<title>BB_002DEBEF-&gt;BB_002DEDFE</title>
<path fill="none" stroke="#00ff00" d="M284.278,-883.9364C331.7997,-866.2618 404.5187,-838.1436 413.9534,-828.2146 443.1965,-797.4394 445.9534,-780.6678 445.9534,-738.2146 445.9534,-738.2146 445.9534,-738.2146 445.9534,-306.2146 445.9534,-247.3811 385.1977,-205.3816 340.5089,-182.4466"/>
<polygon fill="#00ff00" stroke="#00ff00" points="342.0387,-179.2985 331.5264,-177.9786 338.9211,-185.566 342.0387,-179.2985"/>
</g>
<!-- BB_002DEC0C -->
<g id="node14" class="node">
<title>BB_002DEC0C</title>
<ellipse fill="none" stroke="#000000" cx="312.9534" cy="-810.2146" rx="73.6215" ry="18"/>
<text text-anchor="middle" x="312.9534" y="-806.0146" font-family="Times,serif" font-size="14.00" fill="#000000">BB_002DEC0C</text>
</g>
<!-- BB_002DEBEF&#45;&gt;BB_002DEC0C -->
<g id="edge18" class="edge">
<title>BB_002DEBEF-&gt;BB_002DEC0C</title>
<path fill="none" stroke="#ff0000" d="M257.1189,-881.0621C267.2711,-868.1801 281.1004,-850.6324 292.4555,-836.224"/>
<polygon fill="#ff0000" stroke="#ff0000" points="295.368,-838.1829 298.8089,-828.1623 289.8702,-833.85 295.368,-838.1829"/>
</g>
<!-- BB_002DEBD1&#45;&gt;BB_002DEE2E -->
<g id="edge16" class="edge">
<title>BB_002DEBD1-&gt;BB_002DEE2E</title>
<path fill="none" stroke="#00ff00" d="M310.126,-1042.7954C323.6195,-1033.2706 340.6157,-1021.2733 355.2801,-1010.9219"/>
<polygon fill="#00ff00" stroke="#00ff00" points="357.4495,-1013.6747 363.6008,-1005.0484 353.4127,-1007.9559 357.4495,-1013.6747"/>
</g>
<!-- BB_002DEBD1&#45;&gt;BB_002DEBE5 -->
<g id="edge15" class="edge">
<title>BB_002DEBD1-&gt;BB_002DEBE5</title>
<path fill="none" stroke="#ff0000" d="M270.6275,-1042.0606C263.1755,-1033.4067 254.0836,-1022.8484 245.9107,-1013.3572"/>
<polygon fill="#ff0000" stroke="#ff0000" points="248.4953,-1010.9948 239.3178,-1005.7009 243.1909,-1015.5625 248.4953,-1010.9948"/>
</g>
<!-- BB_002DEBE5&#45;&gt;BB_002DEBEF -->
<g id="edge17" class="edge">
<title>BB_002DEBE5-&gt;BB_002DEBEF</title>
<path fill="none" stroke="#0000ff" d="M227.8902,-969.4544C230.506,-957.2259 233.9907,-940.9355 236.9496,-927.1034"/>
<polygon fill="#0000ff" stroke="#0000ff" points="240.4173,-927.6239 239.0866,-917.113 233.5722,-926.1596 240.4173,-927.6239"/>
</g>
<!-- BB_002DEC0C&#45;&gt;BB_002DEC0C -->
<g id="edge20" class="edge">
<title>BB_002DEC0C-&gt;BB_002DEC0C</title>
<path fill="none" stroke="#ff0000" d="M363.0054,-823.5037C385.3976,-824.7693 404.7639,-820.3396 404.7639,-810.2146 404.7639,-801.6716 390.9768,-797.1832 373.2178,-796.7494"/>
<polygon fill="#ff0000" stroke="#ff0000" points="372.9435,-793.2535 363.0054,-796.9255 373.0643,-800.2525 372.9435,-793.2535"/>
</g>
<!-- BB_002DEC84 -->
<g id="node15" class="node">
<title>BB_002DEC84</title>
<ellipse fill="none" stroke="#000000" cx="318.9534" cy="-738.2146" rx="72.3981" ry="18"/>
<text text-anchor="middle" x="318.9534" y="-734.0146" font-family="Times,serif" font-size="14.00" fill="#000000">BB_002DEC84</text>
</g>
<!-- BB_002DEC0C&#45;&gt;BB_002DEC84 -->
<g id="edge21" class="edge">
<title>BB_002DEC0C-&gt;BB_002DEC84</title>
<path fill="none" stroke="#00ff00" d="M314.4674,-792.046C315.1091,-784.3456 315.8722,-775.1889 316.5853,-766.6312"/>
<polygon fill="#00ff00" stroke="#00ff00" points="320.0763,-766.884 317.4189,-756.6279 313.1005,-766.3026 320.0763,-766.884"/>
</g>
<!-- BB_002DEC84&#45;&gt;BB_002DEDFE -->
<g id="edge28" class="edge">
<title>BB_002DEC84-&gt;BB_002DEDFE</title>
<path fill="none" stroke="#00ff00" d="M349.2911,-721.66C363.4289,-712.4368 379.2376,-699.681 388.9534,-684.2146 410.6999,-649.5967 407.9534,-635.0962 407.9534,-594.2146 407.9534,-594.2146 407.9534,-594.2146 407.9534,-306.2146 407.9534,-254.4797 362.1609,-210.4797 328.6215,-185.1913"/>
<polygon fill="#00ff00" stroke="#00ff00" points="330.5311,-182.2518 320.3938,-179.1719 326.3979,-187.9012 330.5311,-182.2518"/>
</g>
<!-- BB_002DECA1 -->
<g id="node19" class="node">
<title>BB_002DECA1</title>
<ellipse fill="none" stroke="#000000" cx="305.9534" cy="-666.2146" rx="74.1836" ry="18"/>
<text text-anchor="middle" x="305.9534" y="-662.0146" font-family="Times,serif" font-size="14.00" fill="#000000">BB_002DECA1</text>
</g>
<!-- BB_002DEC84&#45;&gt;BB_002DECA1 -->
<g id="edge27" class="edge">
<title>BB_002DEC84-&gt;BB_002DECA1</title>
<path fill="none" stroke="#ff0000" d="M315.6729,-720.046C314.2826,-712.3456 312.6293,-703.1889 311.0842,-694.6312"/>
<polygon fill="#ff0000" stroke="#ff0000" points="314.4992,-693.8468 309.278,-684.6279 307.6106,-695.0907 314.4992,-693.8468"/>
</g>
<!-- BB_002DEC52 -->
<g id="node16" class="node">
<title>BB_002DEC52</title>
<ellipse fill="none" stroke="#000000" cx="521.9534" cy="-1131.8584" rx="72.3981" ry="18"/>
<text text-anchor="middle" x="521.9534" y="-1127.6584" font-family="Times,serif" font-size="14.00" fill="#000000">BB_002DEC52</text>
</g>
<!-- BB_002DEC66 -->
<g id="node17" class="node">
<title>BB_002DEC66</title>
<ellipse fill="none" stroke="#000000" cx="487.9534" cy="-1059.8584" rx="72.3981" ry="18"/>
<text text-anchor="middle" x="487.9534" y="-1055.6584" font-family="Times,serif" font-size="14.00" fill="#000000">BB_002DEC66</text>
</g>
<!-- BB_002DEC52&#45;&gt;BB_002DEC66 -->
<g id="edge22" class="edge">
<title>BB_002DEC52-&gt;BB_002DEC66</title>
<path fill="none" stroke="#ff0000" d="M513.3738,-1113.6898C509.5598,-1105.6131 504.9893,-1095.9345 500.7822,-1087.0252"/>
<polygon fill="#ff0000" stroke="#ff0000" points="503.8475,-1085.3198 496.4125,-1077.7718 497.5177,-1088.3088 503.8475,-1085.3198"/>
</g>
<!-- BB_002DEC7A -->
<g id="node18" class="node">
<title>BB_002DEC7A</title>
<ellipse fill="none" stroke="#000000" cx="552.9534" cy="-987.8584" rx="74.1836" ry="18"/>
<text text-anchor="middle" x="552.9534" y="-983.6584" font-family="Times,serif" font-size="14.00" fill="#000000">BB_002DEC7A</text>
</g>
<!-- BB_002DEC52&#45;&gt;BB_002DEC7A -->
<g id="edge23" class="edge">
<title>BB_002DEC52-&gt;BB_002DEC7A</title>
<path fill="none" stroke="#00ff00" d="M543.2277,-1114.1571C553.0721,-1104.5649 563.7259,-1091.8267 568.9534,-1077.8584 576.5095,-1057.6676 571.5412,-1033.5628 565.2128,-1015.3832"/>
<polygon fill="#00ff00" stroke="#00ff00" points="568.4537,-1014.0585 561.6279,-1005.9554 561.9107,-1016.5465 568.4537,-1014.0585"/>
</g>
<!-- BB_002DEC66&#45;&gt;BB_002DEE2E -->
<g id="edge25" class="edge">
<title>BB_002DEC66-&gt;BB_002DEE2E</title>
<path fill="none" stroke="#00ff00" d="M464.2548,-1042.7954C451.0258,-1033.2706 434.3629,-1021.2733 419.986,-1010.9219"/>
<polygon fill="#00ff00" stroke="#00ff00" points="421.9889,-1008.0511 411.8284,-1005.0484 417.8987,-1013.7319 421.9889,-1008.0511"/>
</g>
<!-- BB_002DEC66&#45;&gt;BB_002DEC7A -->
<g id="edge24" class="edge">
<title>BB_002DEC66-&gt;BB_002DEC7A</title>
<path fill="none" stroke="#ff0000" d="M504.0208,-1042.0606C511.8921,-1033.3416 521.5087,-1022.6895 530.1267,-1013.1433"/>
<polygon fill="#ff0000" stroke="#ff0000" points="532.9677,-1015.2195 537.0708,-1005.4514 527.7718,-1010.5288 532.9677,-1015.2195"/>
</g>
<!-- BB_002DEC7A&#45;&gt;BB_002DEC84 -->
<g id="edge26" class="edge">
<title>BB_002DEC7A-&gt;BB_002DEC84</title>
<path fill="none" stroke="#0000ff" d="M543.7606,-969.9625C524.0823,-933.0039 474.6908,-847.1162 413.9534,-792.2146 399.2286,-778.9046 380.6719,-767.4545 363.8749,-758.5671"/>
<polygon fill="#0000ff" stroke="#0000ff" points="365.2557,-755.3419 354.7597,-753.8977 362.0642,-761.5721 365.2557,-755.3419"/>
</g>
<!-- BB_002DECA1&#45;&gt;BB_002DEDFE -->
<g id="edge30" class="edge">
<title>BB_002DECA1-&gt;BB_002DEDFE</title>
<path fill="none" stroke="#00ff00" d="M324.6959,-648.3294C333.9343,-638.5037 344.4588,-625.6117 350.9534,-612.2146 368.7869,-575.4277 369.9534,-563.0962 369.9534,-522.2146 369.9534,-522.2146 369.9534,-522.2146 369.9534,-306.2146 369.9534,-260.6144 339.7768,-215.3054 317.4538,-188.0266"/>
<polygon fill="#00ff00" stroke="#00ff00" points="319.9422,-185.5482 310.8203,-180.1593 314.5907,-190.0605 319.9422,-185.5482"/>
</g>
<!-- BB_002DECD4 -->
<g id="node20" class="node">
<title>BB_002DECD4</title>
<ellipse fill="none" stroke="#000000" cx="267.9534" cy="-594.2146" rx="74.1836" ry="18"/>
<text text-anchor="middle" x="267.9534" y="-590.0146" font-family="Times,serif" font-size="14.00" fill="#000000">BB_002DECD4</text>
</g>
<!-- BB_002DECA1&#45;&gt;BB_002DECD4 -->
<g id="edge29" class="edge">
<title>BB_002DECA1-&gt;BB_002DECD4</title>
<path fill="none" stroke="#ff0000" d="M296.3644,-648.046C292.0564,-639.8834 286.8848,-630.0846 282.1415,-621.0973"/>
<polygon fill="#ff0000" stroke="#ff0000" points="285.1707,-619.3382 277.4077,-612.128 278.98,-622.6055 285.1707,-619.3382"/>
</g>
<!-- BB_002DECD4&#45;&gt;BB_002DEDFE -->
<g id="edge32" class="edge">
<title>BB_002DECD4-&gt;BB_002DEDFE</title>
<path fill="none" stroke="#00ff00" d="M286.6959,-576.3294C295.9343,-566.5037 306.4588,-553.6117 312.9534,-540.2146 330.7869,-503.4277 331.9534,-491.0962 331.9534,-450.2146 331.9534,-450.2146 331.9534,-450.2146 331.9534,-306.2146 331.9534,-264.5827 316.9206,-218.3546 305.7653,-189.7816"/>
<polygon fill="#00ff00" stroke="#00ff00" points="308.9902,-188.4201 302.0122,-180.4478 302.4956,-191.0316 308.9902,-188.4201"/>
</g>
<!-- BB_002DED07 -->
<g id="node21" class="node">
<title>BB_002DED07</title>
<ellipse fill="none" stroke="#000000" cx="230.9534" cy="-522.2146" rx="72.9605" ry="18"/>
<text text-anchor="middle" x="230.9534" y="-518.0146" font-family="Times,serif" font-size="14.00" fill="#000000">BB_002DED07</text>
</g>
<!-- BB_002DECD4&#45;&gt;BB_002DED07 -->
<g id="edge31" class="edge">
<title>BB_002DECD4-&gt;BB_002DED07</title>
<path fill="none" stroke="#ff0000" d="M258.6167,-576.046C254.4221,-567.8834 249.3866,-558.0846 244.7681,-549.0973"/>
<polygon fill="#ff0000" stroke="#ff0000" points="247.8426,-547.4226 240.1589,-540.128 241.6166,-550.6221 247.8426,-547.4226"/>
</g>
<!-- BB_002DED07&#45;&gt;BB_002DEDFE -->
<g id="edge34" class="edge">
<title>BB_002DED07-&gt;BB_002DEDFE</title>
<path fill="none" stroke="#00ff00" d="M248.8263,-504.7405C257.9612,-494.8362 268.4865,-481.744 274.9534,-468.2146 292.5838,-431.3299 293.9534,-419.0962 293.9534,-378.2146 293.9534,-378.2146 293.9534,-378.2146 293.9534,-306.2146 293.9534,-266.0906 293.9534,-219.6777 293.9534,-190.6323"/>
<polygon fill="#00ff00" stroke="#00ff00" points="297.4535,-190.3999 293.9534,-180.4 290.4535,-190.4 297.4535,-190.3999"/>
</g>
<!-- BB_002DED3A -->
<g id="node22" class="node">
<title>BB_002DED3A</title>
<ellipse fill="none" stroke="#000000" cx="190.9534" cy="-450.2146" rx="74.7458" ry="18"/>
<text text-anchor="middle" x="190.9534" y="-446.0146" font-family="Times,serif" font-size="14.00" fill="#000000">BB_002DED3A</text>
</g>
<!-- BB_002DED07&#45;&gt;BB_002DED3A -->
<g id="edge33" class="edge">
<title>BB_002DED07-&gt;BB_002DED3A</title>
<path fill="none" stroke="#ff0000" d="M220.8597,-504.046C216.3249,-495.8834 210.8812,-486.0846 205.8882,-477.0973"/>
<polygon fill="#ff0000" stroke="#ff0000" points="208.8213,-475.1698 200.9053,-468.128 202.7022,-478.5694 208.8213,-475.1698"/>
</g>
<!-- BB_002DED3A&#45;&gt;BB_002DEDFE -->
<g id="edge36" class="edge">
<title>BB_002DED3A-&gt;BB_002DEDFE</title>
<path fill="none" stroke="#00ff00" d="M209.976,-432.328C219.3823,-422.5019 230.1485,-409.61 236.9534,-396.2146 274.206,-322.8833 260.076,-296.0276 279.9534,-216.2146 282.0833,-207.6625 284.468,-198.3671 286.6572,-189.9374"/>
<polygon fill="#00ff00" stroke="#00ff00" points="290.0616,-190.7524 289.2003,-180.1926 283.2885,-188.9847 290.0616,-190.7524"/>
</g>
<!-- BB_002DED6D -->
<g id="node23" class="node">
<title>BB_002DED6D</title>
<ellipse fill="none" stroke="#000000" cx="152.9534" cy="-378.2146" rx="74.7458" ry="18"/>
<text text-anchor="middle" x="152.9534" y="-374.0146" font-family="Times,serif" font-size="14.00" fill="#000000">BB_002DED6D</text>
</g>
<!-- BB_002DED3A&#45;&gt;BB_002DED6D -->
<g id="edge35" class="edge">
<title>BB_002DED3A-&gt;BB_002DED6D</title>
<path fill="none" stroke="#ff0000" d="M181.3644,-432.046C177.0564,-423.8834 171.8848,-414.0846 167.1415,-405.0973"/>
<polygon fill="#ff0000" stroke="#ff0000" points="170.1707,-403.3382 162.4077,-396.128 163.98,-406.6055 170.1707,-403.3382"/>
</g>
<!-- BB_002DED6D&#45;&gt;BB_002DEDFE -->
<g id="edge38" class="edge">
<title>BB_002DED6D-&gt;BB_002DEDFE</title>
<path fill="none" stroke="#00ff00" d="M170.7454,-360.3825C180.0339,-350.3733 191.0727,-337.2951 198.9534,-324.2146 225.6152,-279.961 213.9553,-259.6351 241.9534,-216.2146 248.7178,-205.7242 257.712,-195.5149 266.316,-186.8486"/>
<polygon fill="#00ff00" stroke="#00ff00" points="268.9791,-189.1411 273.7108,-179.6615 264.1003,-184.1213 268.9791,-189.1411"/>
</g>
<!-- BB_002DED9C -->
<g id="node24" class="node">
<title>BB_002DED9C</title>
<ellipse fill="none" stroke="#000000" cx="115.9534" cy="-306.2146" rx="74.1836" ry="18"/>
<text text-anchor="middle" x="115.9534" y="-302.0146" font-family="Times,serif" font-size="14.00" fill="#000000">BB_002DED9C</text>
</g>
<!-- BB_002DED6D&#45;&gt;BB_002DED9C -->
<g id="edge37" class="edge">
<title>BB_002DED6D-&gt;BB_002DED9C</title>
<path fill="none" stroke="#ff0000" d="M143.6167,-360.046C139.4221,-351.8834 134.3866,-342.0846 129.7681,-333.0973"/>
<polygon fill="#ff0000" stroke="#ff0000" points="132.8426,-331.4226 125.1589,-324.128 126.6166,-334.6221 132.8426,-331.4226"/>
</g>
<!-- BB_002DED9C&#45;&gt;BB_002DEDFE -->
<g id="edge40" class="edge">
<title>BB_002DED9C-&gt;BB_002DEDFE</title>
<path fill="none" stroke="#00ff00" d="M130.9836,-288.3052C147.624,-269.1169 175.8294,-238.4286 203.9534,-216.2146 219.134,-204.224 237.2019,-192.8917 253.1515,-183.7337"/>
<polygon fill="#00ff00" stroke="#00ff00" points="255.2638,-186.561 262.2597,-178.6044 251.8289,-180.4617 255.2638,-186.561"/>
</g>
<!-- BB_002DEDCB -->
<g id="node25" class="node">
<title>BB_002DEDCB</title>
<ellipse fill="none" stroke="#000000" cx="75.9534" cy="-234.2146" rx="75.9068" ry="18"/>
<text text-anchor="middle" x="75.9534" y="-230.0146" font-family="Times,serif" font-size="14.00" fill="#000000">BB_002DEDCB</text>
</g>
<!-- BB_002DED9C&#45;&gt;BB_002DEDCB -->
<g id="edge39" class="edge">
<title>BB_002DED9C-&gt;BB_002DEDCB</title>
<path fill="none" stroke="#ff0000" d="M105.8597,-288.046C101.3249,-279.8834 95.8812,-270.0846 90.8882,-261.0973"/>
<polygon fill="#ff0000" stroke="#ff0000" points="93.8213,-259.1698 85.9053,-252.128 87.7022,-262.5694 93.8213,-259.1698"/>
</g>
<!-- BB_002DEDCB&#45;&gt;BB_002DEDFE -->
<g id="edge42" class="edge">
<title>BB_002DEDCB-&gt;BB_002DEDFE</title>
<path fill="none" stroke="#00ff00" d="M120.3317,-219.5575C154.9585,-208.1212 203.2027,-192.1873 240.0499,-180.0176"/>
<polygon fill="#00ff00" stroke="#00ff00" points="241.2394,-183.3108 249.6372,-176.8511 239.044,-176.6639 241.2394,-183.3108"/>
</g>
<!-- BB_002DEDFA -->
<g id="node26" class="node">
<title>BB_002DEDFA</title>
<ellipse fill="none" stroke="#000000" cx="100.9534" cy="-162.2146" rx="75.3253" ry="18"/>
<text text-anchor="middle" x="100.9534" y="-158.0146" font-family="Times,serif" font-size="14.00" fill="#000000">BB_002DEDFA</text>
</g>
<!-- BB_002DEDCB&#45;&gt;BB_002DEDFA -->
<g id="edge41" class="edge">
<title>BB_002DEDCB-&gt;BB_002DEDFA</title>
<path fill="none" stroke="#ff0000" d="M82.2619,-216.046C84.9651,-208.2609 88.185,-198.9875 91.1844,-190.3493"/>
<polygon fill="#ff0000" stroke="#ff0000" points="94.5861,-191.2227 94.5599,-180.6279 87.9733,-188.9265 94.5861,-191.2227"/>
</g>
<!-- BB_002DEDFA&#45;&gt;BB_002DEE03 -->
<g id="edge43" class="edge">
<title>BB_002DEDFA-&gt;BB_002DEE03</title>
<path fill="none" stroke="#0000ff" d="M121.2874,-144.7854C131.9391,-135.6554 145.1511,-124.3309 156.7738,-114.3685"/>
<polygon fill="#0000ff" stroke="#0000ff" points="159.2006,-116.8982 164.5154,-107.7328 154.6451,-111.5834 159.2006,-116.8982"/>
</g>
<!-- end -->
<g id="node28" class="node">
<title>end</title>
<polygon fill="none" stroke="#000000" points="203.1686,-36.3225 166.7381,-36.3225 166.7381,.1079 203.1686,.1079 203.1686,-36.3225"/>
<polyline fill="none" stroke="#000000" points="178.7381,-36.3225 166.7381,-24.3225 "/>
<polyline fill="none" stroke="#000000" points="166.7381,-11.8921 178.7381,.1079 "/>
<polyline fill="none" stroke="#000000" points="191.1686,.1079 203.1686,-11.8921 "/>
<polyline fill="none" stroke="#000000" points="203.1686,-24.3225 191.1686,-36.3225 "/>
<text text-anchor="middle" x="184.9534" y="-13.9073" font-family="Times,serif" font-size="14.00" fill="#000000">end</text>
</g>
<!-- BB_002DEE03&#45;&gt;end -->
<g id="edge45" class="edge">
<title>BB_002DEE03-&gt;end</title>
<path fill="none" stroke="#000000" d="M184.9534,-72.0189C184.9534,-64.2477 184.9534,-54.9956 184.9534,-46.3686"/>
<polygon fill="#000000" stroke="#000000" points="188.4535,-46.2972 184.9534,-36.2972 181.4535,-46.2972 188.4535,-46.2972"/>
</g>
</g>
</svg>