<?xml version="1.0" encoding="UTF-8" standalone="no"?><!DOCTYPE svg PUBLIC "-//W3C//DTD SVG 1.1//EN" "http://www.w3.org/Graphics/SVG/1.1/DTD/svg11.dtd"><!-- Generated by graphviz version 2.40.1 (20161225.0304)
 --><!-- Title: G Pages: 1 --><svg xmlns="http://www.w3.org/2000/svg" xmlns:xlink="http://www.w3.org/1999/xlink" width="503pt" height="2348pt" viewBox="0.00 0.00 503.25 2348.21">
<g id="graph0" class="graph" transform="scale(1 1) rotate(0) translate(4 2344.2146)">
<title>G</title>
<polygon fill="#ffffff" stroke="transparent" points="-4,4 -4,-2344.2146 499.2511,-2344.2146 499.2511,4 -4,4"/>
<!-- start -->
<g id="node1" class="node">
<title>start</title>
<polygon fill="none" stroke="#000000" points="322.0524,-2340.2146 282.8151,-2322.2146 322.0524,-2304.2146 361.2897,-2322.2146 322.0524,-2340.2146"/>
<polyline fill="none" stroke="#000000" points="293.7221,-2327.2182 293.7221,-2317.211 "/>
<polyline fill="none" stroke="#000000" points="311.1453,-2309.2182 332.9594,-2309.2182 "/>
<polyline fill="none" stroke="#000000" points="350.3826,-2317.211 350.3826,-2327.2182 "/>
<polyline fill="none" stroke="#000000" points="332.9594,-2335.211 311.1453,-2335.211 "/>
<text text-anchor="middle" x="322.0524" y="-2318.0146" font-family="Times,serif" font-size="14.00" fill="#000000">start</text>
</g>
<!-- BB_002EB8D0 -->
<g id="node2" class="node">
<title>BB_002EB8D0</title>
<ellipse fill="none" stroke="#000000" cx="322.0524" cy="-2250.2146" rx="72.3981" ry="18"/>
<text text-anchor="middle" x="322.0524" y="-2246.0146" font-family="Times,serif" font-size="14.00" fill="#000000">BB_002EB8D0</text>
</g>
<!-- start&#45;&gt;BB_002EB8D0 -->
<g id="edge1" class="edge">
<title>start-&gt;BB_002EB8D0</title>
<path fill="none" stroke="#000000" d="M322.0524,-2304.046C322.0524,-2296.3456 322.0524,-2287.1889 322.0524,-2278.6312"/>
<polygon fill="#000000" stroke="#000000" points="325.5525,-2278.6278 322.0524,-2268.6279 318.5525,-2278.6279 325.5525,-2278.6278"/>
</g>
<!-- BB_002EB908 -->
<g id="node3" class="node">
<title>BB_002EB908</title>
<ellipse fill="none" stroke="#000000" cx="273.0524" cy="-2178.2146" rx="70.1118" ry="18"/>
<text text-anchor="middle" x="273.0524" y="-2174.0146" font-family="Times,serif" font-size="14.00" fill="#000000">BB_002EB908</text>
</g>
<!-- BB_002EB8D0&#45;&gt;BB_002EB908 -->
<g id="edge2" class="edge">
<title>BB_002EB8D0-&gt;BB_002EB908</title>
<path fill="none" stroke="#ff0000" d="M309.94,-2232.4168C304.2272,-2224.0225 297.2949,-2213.8364 290.989,-2204.5704"/>
<polygon fill="#ff0000" stroke="#ff0000" points="293.715,-2202.3551 285.1952,-2196.0571 287.928,-2206.2935 293.715,-2202.3551"/>
</g>
<!-- BB_002EB96F -->
<g id="node4" class="node">
<title>BB_002EB96F</title>
<ellipse fill="none" stroke="#000000" cx="333.0524" cy="-1530.2146" rx="70.6916" ry="18"/>
<text text-anchor="middle" x="333.0524" y="-1526.0146" font-family="Times,serif" font-size="14.00" fill="#000000">BB_002EB96F</text>
</g>
<!-- BB_002EB8D0&#45;&gt;BB_002EB96F -->
<g id="edge3" class="edge">
<title>BB_002EB8D0-&gt;BB_002EB96F</title>
<path fill="none" stroke="#00ff00" d="M333.745,-2232.3745C339.9814,-2222.1521 347.3227,-2208.8729 352.0524,-2196.2146 366.3612,-2157.9188 371.0524,-2147.0962 371.0524,-2106.2146 371.0524,-2106.2146 371.0524,-2106.2146 371.0524,-1674.2146 371.0524,-1632.5827 356.0196,-1586.3546 344.8643,-1557.7816"/>
<polygon fill="#00ff00" stroke="#00ff00" points="348.0892,-1556.4201 341.1112,-1548.4478 341.5946,-1559.0316 348.0892,-1556.4201"/>
</g>
<!-- BB_002EB910 -->
<g id="node5" class="node">
<title>BB_002EB910</title>
<ellipse fill="none" stroke="#000000" cx="225.0524" cy="-2106.2146" rx="70.1118" ry="18"/>
<text text-anchor="middle" x="225.0524" y="-2102.0146" font-family="Times,serif" font-size="14.00" fill="#000000">BB_002EB910</text>
</g>
<!-- BB_002EB908&#45;&gt;BB_002EB910 -->
<g id="edge4" class="edge">
<title>BB_002EB908-&gt;BB_002EB910</title>
<path fill="none" stroke="#ff0000" d="M261.1872,-2160.4168C255.591,-2152.0225 248.8002,-2141.8364 242.6229,-2132.5704"/>
<polygon fill="#ff0000" stroke="#ff0000" points="245.4066,-2130.4362 236.9474,-2124.0571 239.5823,-2134.3191 245.4066,-2130.4362"/>
</g>
<!-- BB_002EB912 -->
<g id="node6" class="node">
<title>BB_002EB912</title>
<ellipse fill="none" stroke="#000000" cx="244.0524" cy="-2034.2146" rx="70.1118" ry="18"/>
<text text-anchor="middle" x="244.0524" y="-2030.0146" font-family="Times,serif" font-size="14.00" fill="#000000">BB_002EB912</text>
</g>
<!-- BB_002EB908&#45;&gt;BB_002EB912 -->
<g id="edge5" class="edge">
<title>BB_002EB908-&gt;BB_002EB912</title>
<path fill="none" stroke="#00ff00" d="M287.163,-2160.2726C299.8251,-2141.8507 314.877,-2112.5198 304.0524,-2088.2146 298.6987,-2076.1938 289.2003,-2065.7263 279.3179,-2057.2898"/>
<polygon fill="#00ff00" stroke="#00ff00" points="281.3844,-2054.4613 271.3819,-2050.9686 277.0231,-2059.9367 281.3844,-2054.4613"/>
</g>
<!-- BB_002EB97D -->
<g id="node15" class="node">
<title>BB_002EB97D</title>
<ellipse fill="none" stroke="#000000" cx="333.0524" cy="-1458.2146" rx="72.3981" ry="18"/>
<text text-anchor="middle" x="333.0524" y="-1454.0146" font-family="Times,serif" font-size="14.00" fill="#000000">BB_002EB97D</text>
</g>
<!-- BB_002EB96F&#45;&gt;BB_002EB97D -->
<g id="edge20" class="edge">
<title>BB_002EB96F-&gt;BB_002EB97D</title>
<path fill="none" stroke="#ff0000" d="M333.0524,-1512.046C333.0524,-1504.3456 333.0524,-1495.1889 333.0524,-1486.6312"/>
<polygon fill="#ff0000" stroke="#ff0000" points="336.5525,-1486.6278 333.0524,-1476.6279 329.5525,-1486.6279 336.5525,-1486.6278"/>
</g>
<!-- BB_002EBA42 -->
<g id="node16" class="node">
<title>BB_002EBA42</title>
<ellipse fill="none" stroke="#000000" cx="423.0524" cy="-594.2146" rx="72.3981" ry="18"/>
<text text-anchor="middle" x="423.0524" y="-590.0146" font-family="Times,serif" font-size="14.00" fill="#000000">BB_002EBA42</text>
</g>
<!-- BB_002EB96F&#45;&gt;BB_002EBA42 -->
<g id="edge21" class="edge">
<title>BB_002EB96F-&gt;BB_002EBA42</title>
<path fill="none" stroke="#00ff00" d="M364.5715,-1513.9755C403.9014,-1491.1934 466.0524,-1445.7702 466.0524,-1386.2146 466.0524,-1386.2146 466.0524,-1386.2146 466.0524,-738.2146 466.0524,-696.2043 449.0416,-650.0738 436.4185,-621.6254"/>
<polygon fill="#00ff00" stroke="#00ff00" points="439.5126,-619.9753 432.1716,-612.336 433.1463,-622.8859 439.5126,-619.9753"/>
</g>
<!-- BB_002EB910&#45;&gt;BB_002EB912 -->
<g id="edge6" class="edge">
<title>BB_002EB910-&gt;BB_002EB912</title>
<path fill="none" stroke="#0000ff" d="M229.8469,-2088.046C231.9012,-2080.2609 234.3484,-2070.9875 236.6279,-2062.3493"/>
<polygon fill="#0000ff" stroke="#0000ff" points="240.0258,-2063.1899 239.1933,-2052.6279 233.2575,-2061.4038 240.0258,-2063.1899"/>
</g>
<!-- BB_002EB912&#45;&gt;BB_002EB96F -->
<g id="edge8" class="edge">
<title>BB_002EB912-&gt;BB_002EB96F</title>
<path fill="none" stroke="#00ff00" d="M273.0422,-2017.6275C286.8289,-2008.3193 302.3751,-1995.4988 312.0524,-1980.2146 334.0249,-1945.5113 333.0524,-1931.2891 333.0524,-1890.2146 333.0524,-1890.2146 333.0524,-1890.2146 333.0524,-1674.2146 333.0524,-1634.0906 333.0524,-1587.6777 333.0524,-1558.6323"/>
<polygon fill="#00ff00" stroke="#00ff00" points="336.5525,-1558.3999 333.0524,-1548.4 329.5525,-1558.4 336.5525,-1558.3999"/>
</g>
<!-- BB_002EB924 -->
<g id="node7" class="node">
<title>BB_002EB924</title>
<ellipse fill="none" stroke="#000000" cx="233.0524" cy="-1962.2146" rx="70.1118" ry="18"/>
<text text-anchor="middle" x="233.0524" y="-1958.0146" font-family="Times,serif" font-size="14.00" fill="#000000">BB_002EB924</text>
</g>
<!-- BB_002EB912&#45;&gt;BB_002EB924 -->
<g id="edge7" class="edge">
<title>BB_002EB912-&gt;BB_002EB924</title>
<path fill="none" stroke="#ff0000" d="M241.2766,-2016.046C240.1002,-2008.3456 238.7012,-1999.1889 237.3938,-1990.6312"/>
<polygon fill="#ff0000" stroke="#ff0000" points="240.8357,-1989.9845 235.8655,-1980.6279 233.916,-1991.0418 240.8357,-1989.9845"/>
</g>
<!-- BB_002EB92C -->
<g id="node8" class="node">
<title>BB_002EB92C</title>
<ellipse fill="none" stroke="#000000" cx="233.0524" cy="-1890.2146" rx="71.8357" ry="18"/>
<text text-anchor="middle" x="233.0524" y="-1886.0146" font-family="Times,serif" font-size="14.00" fill="#000000">BB_002EB92C</text>
</g>
<!-- BB_002EB924&#45;&gt;BB_002EB92C -->
<g id="edge9" class="edge">
<title>BB_002EB924-&gt;BB_002EB92C</title>
<path fill="none" stroke="#ff0000" d="M233.0524,-1944.046C233.0524,-1936.3456 233.0524,-1927.1889 233.0524,-1918.6312"/>
<polygon fill="#ff0000" stroke="#ff0000" points="236.5525,-1918.6278 233.0524,-1908.6279 229.5525,-1918.6279 236.5525,-1918.6278"/>
</g>
<!-- BB_002EB92E -->
<g id="node9" class="node">
<title>BB_002EB92E</title>
<ellipse fill="none" stroke="#000000" cx="215.0524" cy="-1818.2146" rx="71.2539" ry="18"/>
<text text-anchor="middle" x="215.0524" y="-1814.0146" font-family="Times,serif" font-size="14.00" fill="#000000">BB_002EB92E</text>
</g>
<!-- BB_002EB924&#45;&gt;BB_002EB92E -->
<g id="edge10" class="edge">
<title>BB_002EB924-&gt;BB_002EB92E</title>
<path fill="none" stroke="#00ff00" d="M195.1738,-1946.9376C178.8016,-1938.2079 161.3032,-1925.5 152.0524,-1908.2146 144.5026,-1894.1078 145.3667,-1886.7508 152.0524,-1872.2146 157.657,-1860.0288 167.5187,-1849.5638 177.7992,-1841.1799"/>
<polygon fill="#00ff00" stroke="#00ff00" points="180.2114,-1843.7431 186.0606,-1834.9092 175.9791,-1838.1674 180.2114,-1843.7431"/>
</g>
<!-- BB_002EB92C&#45;&gt;BB_002EB92E -->
<g id="edge11" class="edge">
<title>BB_002EB92C-&gt;BB_002EB92E</title>
<path fill="none" stroke="#0000ff" d="M228.5102,-1872.046C226.5639,-1864.2609 224.2456,-1854.9875 222.086,-1846.3493"/>
<polygon fill="#0000ff" stroke="#0000ff" points="225.4766,-1845.4804 219.6557,-1836.6279 218.6856,-1847.1782 225.4766,-1845.4804"/>
</g>
<!-- BB_002EB92E&#45;&gt;BB_002EB96F -->
<g id="edge13" class="edge">
<title>BB_002EB92E-&gt;BB_002EB96F</title>
<path fill="none" stroke="#00ff00" d="M240.7069,-1801.2455C253.1394,-1791.7567 267.2485,-1778.8903 276.0524,-1764.2146 318.3648,-1693.6817 299.1749,-1664.0276 319.0524,-1584.2146 321.1823,-1575.6625 323.5669,-1566.3671 325.7561,-1557.9374"/>
<polygon fill="#00ff00" stroke="#00ff00" points="329.1606,-1558.7524 328.2993,-1548.1926 322.3875,-1556.9847 329.1606,-1558.7524"/>
</g>
<!-- BB_002EB943 -->
<g id="node10" class="node">
<title>BB_002EB943</title>
<ellipse fill="none" stroke="#000000" cx="197.0524" cy="-1746.2146" rx="70.1118" ry="18"/>
<text text-anchor="middle" x="197.0524" y="-1742.0146" font-family="Times,serif" font-size="14.00" fill="#000000">BB_002EB943</text>
</g>
<!-- BB_002EB92E&#45;&gt;BB_002EB943 -->
<g id="edge12" class="edge">
<title>BB_002EB92E-&gt;BB_002EB943</title>
<path fill="none" stroke="#ff0000" d="M210.5102,-1800.046C208.5639,-1792.2609 206.2456,-1782.9875 204.086,-1774.3493"/>
<polygon fill="#ff0000" stroke="#ff0000" points="207.4766,-1773.4804 201.6557,-1764.6279 200.6856,-1775.1782 207.4766,-1773.4804"/>
</g>
<!-- BB_002EB94B -->
<g id="node11" class="node">
<title>BB_002EB94B</title>
<ellipse fill="none" stroke="#000000" cx="127.0524" cy="-1674.2146" rx="71.8357" ry="18"/>
<text text-anchor="middle" x="127.0524" y="-1670.0146" font-family="Times,serif" font-size="14.00" fill="#000000">BB_002EB94B</text>
</g>
<!-- BB_002EB943&#45;&gt;BB_002EB94B -->
<g id="edge14" class="edge">
<title>BB_002EB943-&gt;BB_002EB94B</title>
<path fill="none" stroke="#ff0000" d="M179.749,-1728.4168C171.1874,-1719.6106 160.7086,-1708.8325 151.3568,-1699.2135"/>
<polygon fill="#ff0000" stroke="#ff0000" points="153.637,-1696.5378 144.1567,-1691.8076 148.618,-1701.4174 153.637,-1696.5378"/>
</g>
<!-- BB_002EB94D -->
<g id="node12" class="node">
<title>BB_002EB94D</title>
<ellipse fill="none" stroke="#000000" cx="176.0524" cy="-1602.2146" rx="72.3981" ry="18"/>
<text text-anchor="middle" x="176.0524" y="-1598.0146" font-family="Times,serif" font-size="14.00" fill="#000000">BB_002EB94D</text>
</g>
<!-- BB_002EB943&#45;&gt;BB_002EB94D -->
<g id="edge15" class="edge">
<title>BB_002EB943-&gt;BB_002EB94D</title>
<path fill="none" stroke="#00ff00" d="M203.3411,-1727.9856C208.748,-1709.5887 214.709,-1680.505 208.0524,-1656.2146 205.4296,-1646.644 200.6237,-1637.0494 195.5197,-1628.659"/>
<polygon fill="#00ff00" stroke="#00ff00" points="198.3344,-1626.5668 189.9535,-1620.0851 192.4631,-1630.3784 198.3344,-1626.5668"/>
</g>
<!-- BB_002EB94B&#45;&gt;BB_002EB94D -->
<g id="edge16" class="edge">
<title>BB_002EB94B-&gt;BB_002EB94D</title>
<path fill="none" stroke="#0000ff" d="M139.1647,-1656.4168C144.8775,-1648.0225 151.8098,-1637.8364 158.1157,-1628.5704"/>
<polygon fill="#0000ff" stroke="#0000ff" points="161.1767,-1630.2935 163.9095,-1620.0571 155.3897,-1626.3551 161.1767,-1630.2935"/>
</g>
<!-- BB_002EB94D&#45;&gt;BB_002EB96F -->
<g id="edge18" class="edge">
<title>BB_002EB94D-&gt;BB_002EB96F</title>
<path fill="none" stroke="#00ff00" d="M210.8958,-1586.2355C234.0461,-1575.6187 264.6241,-1561.5957 289.395,-1550.2358"/>
<polygon fill="#00ff00" stroke="#00ff00" points="290.9461,-1553.3751 298.5768,-1546.025 288.0281,-1547.0122 290.9461,-1553.3751"/>
</g>
<!-- BB_002EB958 -->
<g id="node13" class="node">
<title>BB_002EB958</title>
<ellipse fill="none" stroke="#000000" cx="105.0524" cy="-1458.2146" rx="70.1118" ry="18"/>
<text text-anchor="middle" x="105.0524" y="-1454.0146" font-family="Times,serif" font-size="14.00" fill="#000000">BB_002EB958</text>
</g>
<!-- BB_002EB94D&#45;&gt;BB_002EB958 -->
<g id="edge17" class="edge">
<title>BB_002EB94D-&gt;BB_002EB958</title>
<path fill="none" stroke="#ff0000" d="M167.2037,-1584.2681C154.9801,-1559.4764 132.8216,-1514.5353 118.5314,-1485.5524"/>
<polygon fill="#ff0000" stroke="#ff0000" points="121.574,-1483.8086 114.0125,-1476.3873 115.2956,-1486.9042 121.574,-1483.8086"/>
</g>
<!-- end -->
<g id="node14" class="node">
<title>end</title>
<polygon fill="none" stroke="#000000" points="201.2676,-36.3225 164.8371,-36.3225 164.8371,.1079 201.2676,.1079 201.2676,-36.3225"/>
<polyline fill="none" stroke="#000000" points="176.8371,-36.3225 164.8371,-24.3225 "/>
<polyline fill="none" stroke="#000000" points="164.8371,-11.8921 176.8371,.1079 "/>
<polyline fill="none" stroke="#000000" points="189.2676,.1079 201.2676,-11.8921 "/>
<polyline fill="none" stroke="#000000" points="201.2676,-24.3225 189.2676,-36.3225 "/>
<text text-anchor="middle" x="183.0524" y="-13.9073" font-family="Times,serif" font-size="14.00" fill="#000000">end</text>
</g>
<!-- BB_002EB958&#45;&gt;end -->
<g id="edge19" class="edge">
<title>BB_002EB958-&gt;end</title>
<path fill="none" stroke="#000000" d="M81.6801,-1441.0816C51.2908,-1416.6305 2.0524,-1368.6191 2.0524,-1314.2146 2.0524,-1314.2146 2.0524,-1314.2146 2.0524,-162.2146 2.0524,-121.333 -6.1571,-102.7261 21.0524,-72.2146 39.026,-52.0598 113.4332,-33.1943 154.8698,-23.9865"/>
<polygon fill="#000000" stroke="#000000" points="155.8557,-27.354 164.8824,-21.807 154.3668,-20.5142 155.8557,-27.354"/>
</g>
<!-- BB_002EB987 -->
<g id="node17" class="node">
<title>BB_002EB987</title>
<ellipse fill="none" stroke="#000000" cx="300.0524" cy="-1386.2146" rx="70.1118" ry="18"/>
<text text-anchor="middle" x="300.0524" y="-1382.0146" font-family="Times,serif" font-size="14.00" fill="#000000">BB_002EB987</text>
</g>
<!-- BB_002EB97D&#45;&gt;BB_002EB987 -->
<g id="edge22" class="edge">
<title>BB_002EB97D-&gt;BB_002EB987</title>
<path fill="none" stroke="#ff0000" d="M324.7251,-1440.046C321.0233,-1431.9693 316.5872,-1422.2907 312.5038,-1413.3814"/>
<polygon fill="#ff0000" stroke="#ff0000" points="315.611,-1411.7604 308.2627,-1404.128 309.2476,-1414.677 315.611,-1411.7604"/>
</g>
<!-- BB_002EB989 -->
<g id="node18" class="node">
<title>BB_002EB989</title>
<ellipse fill="none" stroke="#000000" cx="349.0524" cy="-1314.2146" rx="70.1118" ry="18"/>
<text text-anchor="middle" x="349.0524" y="-1310.0146" font-family="Times,serif" font-size="14.00" fill="#000000">BB_002EB989</text>
</g>
<!-- BB_002EB97D&#45;&gt;BB_002EB989 -->
<g id="edge23" class="edge">
<title>BB_002EB97D-&gt;BB_002EB989</title>
<path fill="none" stroke="#00ff00" d="M353.4014,-1440.9067C363.1707,-1431.239 373.8611,-1418.3141 379.0524,-1404.2146 386.8543,-1383.0244 377.6951,-1358.7176 367.5041,-1340.7101"/>
<polygon fill="#00ff00" stroke="#00ff00" points="370.3471,-1338.6486 362.1652,-1331.9175 364.3637,-1342.2817 370.3471,-1338.6486"/>
</g>
<!-- BB_002EBA42&#45;&gt;end -->
<g id="edge58" class="edge">
<title>BB_002EBA42-&gt;end</title>
<path fill="none" stroke="#000000" d="M426.5748,-576.1101C431.5542,-548.897 440.0524,-495.7788 440.0524,-450.2146 440.0524,-450.2146 440.0524,-450.2146 440.0524,-162.2146 440.0524,-58.5184 278.9046,-28.6867 211.8203,-20.7606"/>
<polygon fill="#000000" stroke="#000000" points="211.8574,-17.2437 201.5352,-19.6316 211.0935,-24.2019 211.8574,-17.2437"/>
</g>
<!-- BB_002EB987&#45;&gt;BB_002EB989 -->
<g id="edge24" class="edge">
<title>BB_002EB987-&gt;BB_002EB989</title>
<path fill="none" stroke="#0000ff" d="M312.1647,-1368.4168C317.8775,-1360.0225 324.8098,-1349.8364 331.1157,-1340.5704"/>
<polygon fill="#0000ff" stroke="#0000ff" points="334.1767,-1342.2935 336.9095,-1332.0571 328.3897,-1338.3551 334.1767,-1342.2935"/>
</g>
<!-- BB_002EB989&#45;&gt;BB_002EBA42 -->
<g id="edge26" class="edge">
<title>BB_002EB989-&gt;BB_002EBA42</title>
<path fill="none" stroke="#00ff00" d="M374.4445,-1297.2577C386.7149,-1287.772 400.5823,-1274.9049 409.0524,-1260.2146 429.4726,-1224.7982 428.0524,-1211.0962 428.0524,-1170.2146 428.0524,-1170.2146 428.0524,-1170.2146 428.0524,-738.2146 428.0524,-698.0664 426.0871,-651.6597 424.6208,-622.6222"/>
<polygon fill="#00ff00" stroke="#00ff00" points="428.1035,-622.1975 424.0884,-612.393 421.113,-622.5614 428.1035,-622.1975"/>
</g>
<!-- BB_002EB997 -->
<g id="node19" class="node">
<title>BB_002EB997</title>
<ellipse fill="none" stroke="#000000" cx="330.0524" cy="-1242.2146" rx="70.1118" ry="18"/>
<text text-anchor="middle" x="330.0524" y="-1238.0146" font-family="Times,serif" font-size="14.00" fill="#000000">BB_002EB997</text>
</g>
<!-- BB_002EB989&#45;&gt;BB_002EB997 -->
<g id="edge25" class="edge">
<title>BB_002EB989-&gt;BB_002EB997</title>
<path fill="none" stroke="#ff0000" d="M344.2579,-1296.046C342.2035,-1288.2609 339.7563,-1278.9875 337.4768,-1270.3493"/>
<polygon fill="#ff0000" stroke="#ff0000" points="340.8472,-1269.4038 334.9114,-1260.6279 334.0789,-1271.1899 340.8472,-1269.4038"/>
</g>
<!-- BB_002EB99E -->
<g id="node20" class="node">
<title>BB_002EB99E</title>
<ellipse fill="none" stroke="#000000" cx="261.0524" cy="-1170.2146" rx="71.2539" ry="18"/>
<text text-anchor="middle" x="261.0524" y="-1166.0146" font-family="Times,serif" font-size="14.00" fill="#000000">BB_002EB99E</text>
</g>
<!-- BB_002EB997&#45;&gt;BB_002EB99E -->
<g id="edge27" class="edge">
<title>BB_002EB997-&gt;BB_002EB99E</title>
<path fill="none" stroke="#ff0000" d="M312.9962,-1224.4168C304.5569,-1215.6106 294.2278,-1204.8325 285.0096,-1195.2135"/>
<polygon fill="#ff0000" stroke="#ff0000" points="287.3584,-1192.6059 277.9124,-1187.8076 282.3045,-1197.4492 287.3584,-1192.6059"/>
</g>
<!-- BB_002EB9A0 -->
<g id="node21" class="node">
<title>BB_002EB9A0</title>
<ellipse fill="none" stroke="#000000" cx="310.0524" cy="-1098.2146" rx="72.3981" ry="18"/>
<text text-anchor="middle" x="310.0524" y="-1094.0146" font-family="Times,serif" font-size="14.00" fill="#000000">BB_002EB9A0</text>
</g>
<!-- BB_002EB997&#45;&gt;BB_002EB9A0 -->
<g id="edge28" class="edge">
<title>BB_002EB997-&gt;BB_002EB9A0</title>
<path fill="none" stroke="#00ff00" d="M336.2703,-1224.0047C341.622,-1205.6227 347.5411,-1176.5504 341.0524,-1152.2146 338.5163,-1142.703 333.862,-1133.1255 328.9173,-1124.7325"/>
<polygon fill="#00ff00" stroke="#00ff00" points="331.808,-1122.7545 323.5243,-1116.1493 325.8809,-1126.4787 331.808,-1122.7545"/>
</g>
<!-- BB_002EB99E&#45;&gt;BB_002EB9A0 -->
<g id="edge29" class="edge">
<title>BB_002EB99E-&gt;BB_002EB9A0</title>
<path fill="none" stroke="#0000ff" d="M273.1647,-1152.4168C278.8775,-1144.0225 285.8098,-1133.8364 292.1157,-1124.5704"/>
<polygon fill="#0000ff" stroke="#0000ff" points="295.1767,-1126.2935 297.9095,-1116.0571 289.3897,-1122.3551 295.1767,-1126.2935"/>
</g>
<!-- BB_002EB9A0&#45;&gt;BB_002EBA42 -->
<g id="edge31" class="edge">
<title>BB_002EB9A0-&gt;BB_002EBA42</title>
<path fill="none" stroke="#00ff00" d="M335.8694,-1081.3416C348.3448,-1071.8781 362.4432,-1059.0054 371.0524,-1044.2146 391.6179,-1008.8823 390.0524,-995.0962 390.0524,-954.2146 390.0524,-954.2146 390.0524,-954.2146 390.0524,-738.2146 390.0524,-697.0975 402.9934,-651.0072 412.6676,-622.2966"/>
<polygon fill="#00ff00" stroke="#00ff00" points="416.0792,-623.1415 416.0539,-612.5467 409.4666,-620.8448 416.0792,-623.1415"/>
</g>
<!-- BB_002EB9AC -->
<g id="node22" class="node">
<title>BB_002EB9AC</title>
<ellipse fill="none" stroke="#000000" cx="288.0524" cy="-1026.2146" rx="73.6215" ry="18"/>
<text text-anchor="middle" x="288.0524" y="-1022.0146" font-family="Times,serif" font-size="14.00" fill="#000000">BB_002EB9AC</text>
</g>
<!-- BB_002EB9A0&#45;&gt;BB_002EB9AC -->
<g id="edge30" class="edge">
<title>BB_002EB9A0-&gt;BB_002EB9AC</title>
<path fill="none" stroke="#ff0000" d="M304.5008,-1080.046C302.1221,-1072.2609 299.2885,-1062.9875 296.6491,-1054.3493"/>
<polygon fill="#ff0000" stroke="#ff0000" points="299.9481,-1053.1686 293.6786,-1044.6279 293.2537,-1055.2142 299.9481,-1053.1686"/>
</g>
<!-- BB_002EB9B3 -->
<g id="node23" class="node">
<title>BB_002EB9B3</title>
<ellipse fill="none" stroke="#000000" cx="236.0524" cy="-954.2146" rx="71.8357" ry="18"/>
<text text-anchor="middle" x="236.0524" y="-950.0146" font-family="Times,serif" font-size="14.00" fill="#000000">BB_002EB9B3</text>
</g>
<!-- BB_002EB9AC&#45;&gt;BB_002EB9B3 -->
<g id="edge32" class="edge">
<title>BB_002EB9AC-&gt;BB_002EB9B3</title>
<path fill="none" stroke="#ff0000" d="M275.1984,-1008.4168C269.0734,-999.936 261.6274,-989.6261 254.8804,-980.2842"/>
<polygon fill="#ff0000" stroke="#ff0000" points="257.631,-978.1147 248.9386,-972.0571 251.9562,-982.2132 257.631,-978.1147"/>
</g>
<!-- BB_002EB9B5 -->
<g id="node24" class="node">
<title>BB_002EB9B5</title>
<ellipse fill="none" stroke="#000000" cx="268.0524" cy="-882.2146" rx="71.8357" ry="18"/>
<text text-anchor="middle" x="268.0524" y="-878.0146" font-family="Times,serif" font-size="14.00" fill="#000000">BB_002EB9B5</text>
</g>
<!-- BB_002EB9AC&#45;&gt;BB_002EB9B5 -->
<g id="edge33" class="edge">
<title>BB_002EB9AC-&gt;BB_002EB9B5</title>
<path fill="none" stroke="#00ff00" d="M301.0019,-1008.4176C312.6472,-990.1112 326.5715,-960.8708 317.0524,-936.2146 312.8284,-925.274 305.2448,-915.1801 297.2862,-906.7529"/>
<polygon fill="#00ff00" stroke="#00ff00" points="299.529,-904.0484 289.9575,-899.5056 294.607,-909.0258 299.529,-904.0484"/>
</g>
<!-- BB_002EB9B3&#45;&gt;BB_002EB9B5 -->
<g id="edge34" class="edge">
<title>BB_002EB9B3-&gt;BB_002EB9B5</title>
<path fill="none" stroke="#0000ff" d="M244.1273,-936.046C247.7169,-927.9693 252.0185,-918.2907 255.9782,-909.3814"/>
<polygon fill="#0000ff" stroke="#0000ff" points="259.2277,-910.6876 260.0908,-900.128 252.8311,-907.8446 259.2277,-910.6876"/>
</g>
<!-- BB_002EB9B5&#45;&gt;BB_002EBA42 -->
<g id="edge36" class="edge">
<title>BB_002EB9B5-&gt;BB_002EBA42</title>
<path fill="none" stroke="#00ff00" d="M295.7276,-865.347C308.897,-855.9674 323.76,-843.1676 333.0524,-828.2146 376.4662,-758.3542 338.4103,-721.3468 376.0524,-648.2146 381.3653,-637.8925 389.0582,-627.9139 396.6871,-619.4022"/>
<polygon fill="#00ff00" stroke="#00ff00" points="399.3144,-621.7172 403.6051,-612.0301 394.2099,-616.9272 399.3144,-621.7172"/>
</g>
<!-- BB_002EB9C0 -->
<g id="node25" class="node">
<title>BB_002EB9C0</title>
<ellipse fill="none" stroke="#000000" cx="252.0524" cy="-810.2146" rx="71.8357" ry="18"/>
<text text-anchor="middle" x="252.0524" y="-806.0146" font-family="Times,serif" font-size="14.00" fill="#000000">BB_002EB9C0</text>
</g>
<!-- BB_002EB9B5&#45;&gt;BB_002EB9C0 -->
<g id="edge35" class="edge">
<title>BB_002EB9B5-&gt;BB_002EB9C0</title>
<path fill="none" stroke="#ff0000" d="M264.0149,-864.046C262.3037,-856.3456 260.2689,-847.1889 258.3672,-838.6312"/>
<polygon fill="#ff0000" stroke="#ff0000" points="261.7302,-837.6305 256.1442,-828.6279 254.8969,-839.149 261.7302,-837.6305"/>
</g>
<!-- BB_002EB9C7 -->
<g id="node26" class="node">
<title>BB_002EB9C7</title>
<ellipse fill="none" stroke="#000000" cx="183.0524" cy="-738.2146" rx="71.8357" ry="18"/>
<text text-anchor="middle" x="183.0524" y="-734.0146" font-family="Times,serif" font-size="14.00" fill="#000000">BB_002EB9C7</text>
</g>
<!-- BB_002EB9C0&#45;&gt;BB_002EB9C7 -->
<g id="edge37" class="edge">
<title>BB_002EB9C0-&gt;BB_002EB9C7</title>
<path fill="none" stroke="#ff0000" d="M234.9962,-792.4168C226.5569,-783.6106 216.2278,-772.8325 207.0096,-763.2135"/>
<polygon fill="#ff0000" stroke="#ff0000" points="209.3584,-760.6059 199.9124,-755.8076 204.3045,-765.4492 209.3584,-760.6059"/>
</g>
<!-- BB_002EB9C9 -->
<g id="node27" class="node">
<title>BB_002EB9C9</title>
<ellipse fill="none" stroke="#000000" cx="252.0524" cy="-666.2146" rx="71.8357" ry="18"/>
<text text-anchor="middle" x="252.0524" y="-662.0146" font-family="Times,serif" font-size="14.00" fill="#000000">BB_002EB9C9</text>
</g>
<!-- BB_002EB9C0&#45;&gt;BB_002EB9C9 -->
<g id="edge38" class="edge">
<title>BB_002EB9C0-&gt;BB_002EB9C9</title>
<path fill="none" stroke="#00ff00" d="M257.1715,-791.8873C259.8044,-781.5124 262.732,-768.243 264.0524,-756.2146 265.7982,-740.3101 265.7982,-736.1191 264.0524,-720.2146 263.124,-711.7571 261.401,-702.6861 259.5446,-694.4392"/>
<polygon fill="#00ff00" stroke="#00ff00" points="262.9067,-693.4502 257.1715,-684.5419 256.0997,-695.0824 262.9067,-693.4502"/>
</g>
<!-- BB_002EB9C7&#45;&gt;BB_002EB9C9 -->
<g id="edge39" class="edge">
<title>BB_002EB9C7-&gt;BB_002EB9C9</title>
<path fill="none" stroke="#0000ff" d="M200.1085,-720.4168C208.5478,-711.6106 218.8769,-700.8325 228.0951,-691.2135"/>
<polygon fill="#0000ff" stroke="#0000ff" points="230.8003,-693.4492 235.1924,-683.8076 225.7463,-688.6059 230.8003,-693.4492"/>
</g>
<!-- BB_002EB9C9&#45;&gt;BB_002EBA42 -->
<g id="edge41" class="edge">
<title>BB_002EB9C9-&gt;BB_002EBA42</title>
<path fill="none" stroke="#00ff00" d="M289.1568,-650.5917C314.8141,-639.7886 349.1411,-625.3351 376.6141,-613.7676"/>
<polygon fill="#00ff00" stroke="#00ff00" points="378.1622,-616.9134 386.0203,-609.807 375.4457,-610.4619 378.1622,-616.9134"/>
</g>
<!-- BB_002EB9DA -->
<g id="node28" class="node">
<title>BB_002EB9DA</title>
<ellipse fill="none" stroke="#000000" cx="252.0524" cy="-594.2146" rx="74.1836" ry="18"/>
<text text-anchor="middle" x="252.0524" y="-590.0146" font-family="Times,serif" font-size="14.00" fill="#000000">BB_002EB9DA</text>
</g>
<!-- BB_002EB9C9&#45;&gt;BB_002EB9DA -->
<g id="edge40" class="edge">
<title>BB_002EB9C9-&gt;BB_002EB9DA</title>
<path fill="none" stroke="#ff0000" d="M252.0524,-648.046C252.0524,-640.3456 252.0524,-631.1889 252.0524,-622.6312"/>
<polygon fill="#ff0000" stroke="#ff0000" points="255.5525,-622.6278 252.0524,-612.6279 248.5525,-622.6279 255.5525,-622.6278"/>
</g>
<!-- BB_002EB9E6 -->
<g id="node29" class="node">
<title>BB_002EB9E6</title>
<ellipse fill="none" stroke="#000000" cx="222.0524" cy="-522.2146" rx="71.2539" ry="18"/>
<text text-anchor="middle" x="222.0524" y="-518.0146" font-family="Times,serif" font-size="14.00" fill="#000000">BB_002EB9E6</text>
</g>
<!-- BB_002EB9DA&#45;&gt;BB_002EB9E6 -->
<g id="edge42" class="edge">
<title>BB_002EB9DA-&gt;BB_002EB9E6</title>
<path fill="none" stroke="#ff0000" d="M244.4821,-576.046C241.1168,-567.9693 237.0841,-558.2907 233.3719,-549.3814"/>
<polygon fill="#ff0000" stroke="#ff0000" points="236.5933,-548.0126 229.5163,-540.128 230.1317,-550.705 236.5933,-548.0126"/>
</g>
<!-- BB_002EB9E8 -->
<g id="node30" class="node">
<title>BB_002EB9E8</title>
<ellipse fill="none" stroke="#000000" cx="312.0524" cy="-450.2146" rx="71.2539" ry="18"/>
<text text-anchor="middle" x="312.0524" y="-446.0146" font-family="Times,serif" font-size="14.00" fill="#000000">BB_002EB9E8</text>
</g>
<!-- BB_002EB9DA&#45;&gt;BB_002EB9E8 -->
<g id="edge43" class="edge">
<title>BB_002EB9DA-&gt;BB_002EB9E8</title>
<path fill="none" stroke="#00ff00" d="M273.4817,-576.9699C283.9119,-567.3194 295.5713,-554.3909 302.0524,-540.2146 310.9044,-520.8522 313.1894,-496.79 313.3782,-478.4186"/>
<polygon fill="#00ff00" stroke="#00ff00" points="316.8773,-478.3036 313.2809,-468.3379 309.8777,-478.3712 316.8773,-478.3036"/>
</g>
<!-- BB_002EB9E6&#45;&gt;BB_002EB9E8 -->
<g id="edge44" class="edge">
<title>BB_002EB9E6-&gt;BB_002EB9E8</title>
<path fill="none" stroke="#0000ff" d="M243.8389,-504.7854C255.4465,-495.4993 269.8918,-483.9431 282.4971,-473.8588"/>
<polygon fill="#0000ff" stroke="#0000ff" points="284.8442,-476.4633 290.4665,-467.4833 280.4714,-470.9972 284.8442,-476.4633"/>
</g>
<!-- BB_002EB9F1 -->
<g id="node31" class="node">
<title>BB_002EB9F1</title>
<ellipse fill="none" stroke="#000000" cx="303.0524" cy="-378.2146" rx="70.6916" ry="18"/>
<text text-anchor="middle" x="303.0524" y="-374.0146" font-family="Times,serif" font-size="14.00" fill="#000000">BB_002EB9F1</text>
</g>
<!-- BB_002EB9E8&#45;&gt;BB_002EB9F1 -->
<g id="edge45" class="edge">
<title>BB_002EB9E8-&gt;BB_002EB9F1</title>
<path fill="none" stroke="#ff0000" d="M309.7813,-432.046C308.8187,-424.3456 307.6742,-415.1889 306.6044,-406.6312"/>
<polygon fill="#ff0000" stroke="#ff0000" points="310.0674,-406.1165 305.354,-396.6279 303.1215,-406.9848 310.0674,-406.1165"/>
</g>
<!-- BB_002EBA0E -->
<g id="node32" class="node">
<title>BB_002EBA0E</title>
<ellipse fill="none" stroke="#000000" cx="265.0524" cy="-90.2146" rx="73.0402" ry="18"/>
<text text-anchor="middle" x="265.0524" y="-86.0146" font-family="Times,serif" font-size="14.00" fill="#000000">BB_002EBA0E</text>
</g>
<!-- BB_002EB9E8&#45;&gt;BB_002EBA0E -->
<g id="edge46" class="edge">
<title>BB_002EB9E8-&gt;BB_002EBA0E</title>
<path fill="none" stroke="#00ff00" d="M342.8219,-433.7504C357.1613,-424.5494 373.196,-411.7862 383.0524,-396.2146 404.9173,-361.6714 402.0524,-347.0962 402.0524,-306.2146 402.0524,-306.2146 402.0524,-306.2146 402.0524,-234.2146 402.0524,-191.1333 394.7871,-176.3131 366.0524,-144.2146 352.7923,-129.4023 334.4835,-117.9231 317.0923,-109.4329"/>
<polygon fill="#00ff00" stroke="#00ff00" points="318.1081,-106.0463 307.5629,-105.0215 315.1673,-112.3987 318.1081,-106.0463"/>
</g>
<!-- BB_002EB9F1&#45;&gt;BB_002EBA0E -->
<g id="edge48" class="edge">
<title>BB_002EB9F1-&gt;BB_002EBA0E</title>
<path fill="none" stroke="#00ff00" d="M321.6626,-360.5829C330.5908,-350.8265 340.3499,-337.92 345.0524,-324.2146 371.0153,-248.5447 382.5982,-214.8567 345.0524,-144.2146 337.6334,-130.256 324.8189,-119.252 311.5927,-110.9207"/>
<polygon fill="#00ff00" stroke="#00ff00" points="313.2924,-107.8601 302.8944,-105.8276 309.7554,-113.9008 313.2924,-107.8601"/>
</g>
<!-- BB_002EB9FA -->
<g id="node33" class="node">
<title>BB_002EB9FA</title>
<ellipse fill="none" stroke="#000000" cx="263.0524" cy="-306.2146" rx="72.978" ry="18"/>
<text text-anchor="middle" x="263.0524" y="-302.0146" font-family="Times,serif" font-size="14.00" fill="#000000">BB_002EB9FA</text>
</g>
<!-- BB_002EB9F1&#45;&gt;BB_002EB9FA -->
<g id="edge47" class="edge">
<title>BB_002EB9F1-&gt;BB_002EB9FA</title>
<path fill="none" stroke="#ff0000" d="M292.9587,-360.046C288.4239,-351.8834 282.9801,-342.0846 277.9872,-333.0973"/>
<polygon fill="#ff0000" stroke="#ff0000" points="280.9203,-331.1698 273.0043,-324.128 274.8012,-334.5694 280.9203,-331.1698"/>
</g>
<!-- BB_002EBA0E&#45;&gt;end -->
<g id="edge54" class="edge">
<title>BB_002EBA0E-&gt;end</title>
<path fill="none" stroke="#000000" d="M245.2025,-72.7594C234.3422,-63.2094 220.7556,-51.2619 209.0577,-40.9753"/>
<polygon fill="#000000" stroke="#000000" points="211.1385,-38.1443 201.3177,-34.169 206.516,-43.401 211.1385,-38.1443"/>
</g>
<!-- BB_002EBA00 -->
<g id="node34" class="node">
<title>BB_002EBA00</title>
<ellipse fill="none" stroke="#000000" cx="263.0524" cy="-234.2146" rx="72.3981" ry="18"/>
<text text-anchor="middle" x="263.0524" y="-230.0146" font-family="Times,serif" font-size="14.00" fill="#000000">BB_002EBA00</text>
</g>
<!-- BB_002EB9FA&#45;&gt;BB_002EBA00 -->
<g id="edge49" class="edge">
<title>BB_002EB9FA-&gt;BB_002EBA00</title>
<path fill="none" stroke="#0000ff" d="M263.0524,-288.046C263.0524,-280.3456 263.0524,-271.1889 263.0524,-262.6312"/>
<polygon fill="#0000ff" stroke="#0000ff" points="266.5525,-262.6278 263.0524,-252.6279 259.5525,-262.6279 266.5525,-262.6278"/>
</g>
<!-- BB_002EBA06 -->
<g id="node35" class="node">
<title>BB_002EBA06</title>
<ellipse fill="none" stroke="#000000" cx="264.0524" cy="-162.2146" rx="72.3981" ry="18"/>
<text text-anchor="middle" x="264.0524" y="-158.0146" font-family="Times,serif" font-size="14.00" fill="#000000">BB_002EBA06</text>
</g>
<!-- BB_002EBA00&#45;&gt;BB_002EBA06 -->
<g id="edge50" class="edge">
<title>BB_002EBA00-&gt;BB_002EBA06</title>
<path fill="none" stroke="#ff0000" d="M257.3523,-216.046C256.7088,-208.3456 256.6151,-199.1889 257.0426,-190.6312"/>
<polygon fill="#ff0000" stroke="#ff0000" points="260.5346,-190.8692 257.8206,-180.6279 253.5557,-190.3263 260.5346,-190.8692"/>
</g>
<!-- BB_002EBA22 -->
<g id="node36" class="node">
<title>BB_002EBA22</title>
<ellipse fill="none" stroke="#000000" cx="102.0524" cy="-162.2146" rx="72.3981" ry="18"/>
<text text-anchor="middle" x="102.0524" y="-158.0146" font-family="Times,serif" font-size="14.00" fill="#000000">BB_002EBA22</text>
</g>
<!-- BB_002EBA00&#45;&gt;BB_002EBA22 -->
<g id="edge51" class="edge">
<title>BB_002EBA00-&gt;BB_002EBA22</title>
<path fill="none" stroke="#00ff00" d="M227.7202,-218.4139C203.8126,-207.7223 172.0462,-193.5162 146.4338,-182.0622"/>
<polygon fill="#00ff00" stroke="#00ff00" points="147.8597,-178.8659 137.3021,-177.9784 145.002,-185.256 147.8597,-178.8659"/>
</g>
<!-- BB_002EBA06&#45;&gt;BB_002EBA0E -->
<g id="edge52" class="edge">
<title>BB_002EBA06-&gt;BB_002EBA0E</title>
<path fill="none" stroke="#ff0000" d="M264.3047,-144.046C264.4117,-136.3456 264.5388,-127.1889 264.6577,-118.6312"/>
<polygon fill="#ff0000" stroke="#ff0000" points="268.1573,-118.6755 264.7966,-108.6279 261.158,-118.5783 268.1573,-118.6755"/>
</g>
<!-- BB_002EBA06&#45;&gt;BB_002EBA00 -->
<g id="edge53" class="edge">
<title>BB_002EBA06-&gt;BB_002EBA00</title>
<path fill="none" stroke="#00ff00" d="M269.7726,-180.6279C270.4045,-188.3588 270.4869,-197.5243 270.0484,-206.0691"/>
<polygon fill="#00ff00" stroke="#00ff00" points="266.5588,-205.8005 269.2571,-216.046 273.5369,-206.354 266.5588,-205.8005"/>
</g>
<!-- BB_002EBA22&#45;&gt;BB_002EBA0E -->
<g id="edge56" class="edge">
<title>BB_002EBA22-&gt;BB_002EBA0E</title>
<path fill="none" stroke="#00ff00" d="M137.8234,-146.4139C162.0281,-135.7223 194.189,-121.5162 220.1196,-110.0622"/>
<polygon fill="#00ff00" stroke="#00ff00" points="221.6316,-113.2206 229.3648,-105.9784 218.8032,-106.8175 221.6316,-113.2206"/>
</g>
<!-- BB_002EBA26 -->
<g id="node37" class="node">
<title>BB_002EBA26</title>
<ellipse fill="none" stroke="#000000" cx="102.0524" cy="-90.2146" rx="72.3981" ry="18"/>
<text text-anchor="middle" x="102.0524" y="-86.0146" font-family="Times,serif" font-size="14.00" fill="#000000">BB_002EBA26</text>
</g>
<!-- BB_002EBA22&#45;&gt;BB_002EBA26 -->
<g id="edge55" class="edge">
<title>BB_002EBA22-&gt;BB_002EBA26</title>
<path fill="none" stroke="#ff0000" d="M102.0524,-144.046C102.0524,-136.3456 102.0524,-127.1889 102.0524,-118.6312"/>
<polygon fill="#ff0000" stroke="#ff0000" points="105.5525,-118.6278 102.0524,-108.6279 98.5525,-118.6279 105.5525,-118.6278"/>
</g>
<!-- BB_002EBA26&#45;&gt;end -->
<g id="edge57" class="edge">
<title>BB_002EBA26-&gt;end</title>
<path fill="none" stroke="#000000" d="M121.6602,-72.7594C132.3119,-63.2771 145.6187,-51.4313 157.118,-41.1944"/>
<polygon fill="#000000" stroke="#000000" points="159.5935,-43.6767 164.7355,-34.4133 154.939,-38.4482 159.5935,-43.6767"/>
</g>
</g>
</svg>