<?xml version="1.0" encoding="UTF-8" standalone="no"?><!DOCTYPE svg PUBLIC "-//W3C//DTD SVG 1.1//EN" "http://www.w3.org/Graphics/SVG/1.1/DTD/svg11.dtd"><!-- Generated by graphviz version 2.40.1 (20161225.0304)
 --><!-- Title: G Pages: 1 --><svg xmlns="http://www.w3.org/2000/svg" xmlns:xlink="http://www.w3.org/1999/xlink" width="155pt" height="188pt" viewBox="0.00 0.00 154.56 188.21">
<g id="graph0" class="graph" transform="scale(1 1) rotate(0) translate(4 184.2146)">
<title>G</title>
<polygon fill="#ffffff" stroke="transparent" points="-4,4 -4,-184.2146 150.5588,-184.2146 150.5588,4 -4,4"/>
<!-- start -->
<g id="node1" class="node">
<title>start</title>
<polygon fill="none" stroke="#000000" points="73.2794,-180.2146 34.0421,-162.2146 73.2794,-144.2146 112.5167,-162.2146 73.2794,-180.2146"/>
<polyline fill="none" stroke="#000000" points="44.9491,-167.2182 44.9491,-157.211 "/>
<polyline fill="none" stroke="#000000" points="62.3723,-149.2182 84.1864,-149.2182 "/>
<polyline fill="none" stroke="#000000" points="101.6096,-157.211 101.6096,-167.2182 "/>
<polyline fill="none" stroke="#000000" points="84.1864,-175.211 62.3723,-175.211 "/>
<text text-anchor="middle" x="73.2794" y="-158.0146" font-family="Times,serif" font-size="14.00" fill="#000000">start</text>
</g>
<!-- BB_002DFCB0 -->
<g id="node2" class="node">
<title>BB_002DFCB0</title>
<ellipse fill="none" stroke="#000000" cx="73.2794" cy="-90.2146" rx="73.0594" ry="18"/>
<text text-anchor="middle" x="73.2794" y="-86.0146" font-family="Times,serif" font-size="14.00" fill="#000000">BB_002DFCB0</text>
</g>
<!-- start&#45;&gt;BB_002DFCB0 -->
<g id="edge1" class="edge">
<title>start-&gt;BB_002DFCB0</title>
<path fill="none" stroke="#000000" d="M73.2794,-144.046C73.2794,-136.3456 73.2794,-127.1889 73.2794,-118.6312"/>
<polygon fill="#000000" stroke="#000000" points="76.7795,-118.6278 73.2794,-108.6279 69.7795,-118.6279 76.7795,-118.6278"/>
</g>
<!-- end -->
<g id="node3" class="node">
<title>end</title>
<polygon fill="none" stroke="#000000" points="91.4946,-36.3225 55.0641,-36.3225 55.0641,.1079 91.4946,.1079 91.4946,-36.3225"/>
<polyline fill="none" stroke="#000000" points="67.0641,-36.3225 55.0641,-24.3225 "/>
<polyline fill="none" stroke="#000000" points="55.0641,-11.8921 67.0641,.1079 "/>
<polyline fill="none" stroke="#000000" points="79.4946,.1079 91.4946,-11.8921 "/>
<polyline fill="none" stroke="#000000" points="91.4946,-24.3225 79.4946,-36.3225 "/>
<text text-anchor="middle" x="73.2794" y="-13.9073" font-family="Times,serif" font-size="14.00" fill="#000000">end</text>
</g>
<!-- BB_002DFCB0&#45;&gt;end -->
<g id="edge2" class="edge">
<title>BB_002DFCB0-&gt;end</title>
<path fill="none" stroke="#000000" d="M73.2794,-72.0189C73.2794,-64.2477 73.2794,-54.9956 73.2794,-46.3686"/>
<polygon fill="#000000" stroke="#000000" points="76.7795,-46.2972 73.2794,-36.2972 69.7795,-46.2972 76.7795,-46.2972"/>
</g>
</g>
</svg>