<?xml version="1.0" encoding="UTF-8" standalone="no"?><!DOCTYPE svg PUBLIC "-//W3C//DTD SVG 1.1//EN" "http://www.w3.org/Graphics/SVG/1.1/DTD/svg11.dtd"><!-- Generated by graphviz version 2.40.1 (20161225.0304)
 --><!-- Title: G Pages: 1 --><svg xmlns="http://www.w3.org/2000/svg" xmlns:xlink="http://www.w3.org/1999/xlink" width="147pt" height="188pt" viewBox="0.00 0.00 147.05 188.21">
<g id="graph0" class="graph" transform="scale(1 1) rotate(0) translate(4 184.2146)">
<title>G</title>
<polygon fill="#ffffff" stroke="transparent" points="-4,4 -4,-184.2146 143.0495,-184.2146 143.0495,4 -4,4"/>
<!-- start -->
<g id="node1" class="node">
<title>start</title>
<polygon fill="none" stroke="#000000" points="69.5248,-180.2146 30.2875,-162.2146 69.5248,-144.2146 108.7621,-162.2146 69.5248,-180.2146"/>
<polyline fill="none" stroke="#000000" points="41.1945,-167.2182 41.1945,-157.211 "/>
<polyline fill="none" stroke="#000000" points="58.6177,-149.2182 80.4318,-149.2182 "/>
<polyline fill="none" stroke="#000000" points="97.855,-157.211 97.855,-167.2182 "/>
<polyline fill="none" stroke="#000000" points="80.4318,-175.211 58.6177,-175.211 "/>
<text text-anchor="middle" x="69.5248" y="-158.0146" font-family="Times,serif" font-size="14.00" fill="#000000">start</text>
</g>
<!-- BB_002F16C9 -->
<g id="node2" class="node">
<title>BB_002F16C9</title>
<ellipse fill="none" stroke="#000000" cx="69.5248" cy="-90.2146" rx="69.5495" ry="18"/>
<text text-anchor="middle" x="69.5248" y="-86.0146" font-family="Times,serif" font-size="14.00" fill="#000000">BB_002F16C9</text>
</g>
<!-- start&#45;&gt;BB_002F16C9 -->
<g id="edge1" class="edge">
<title>start-&gt;BB_002F16C9</title>
<path fill="none" stroke="#000000" d="M69.5248,-144.046C69.5248,-136.3456 69.5248,-127.1889 69.5248,-118.6312"/>
<polygon fill="#000000" stroke="#000000" points="73.0249,-118.6278 69.5248,-108.6279 66.0249,-118.6279 73.0249,-118.6278"/>
</g>
<!-- end -->
<g id="node3" class="node">
<title>end</title>
<polygon fill="none" stroke="#000000" points="87.74,-36.3225 51.3095,-36.3225 51.3095,.1079 87.74,.1079 87.74,-36.3225"/>
<polyline fill="none" stroke="#000000" points="63.3095,-36.3225 51.3095,-24.3225 "/>
<polyline fill="none" stroke="#000000" points="51.3095,-11.8921 63.3095,.1079 "/>
<polyline fill="none" stroke="#000000" points="75.74,.1079 87.74,-11.8921 "/>
<polyline fill="none" stroke="#000000" points="87.74,-24.3225 75.74,-36.3225 "/>
<text text-anchor="middle" x="69.5248" y="-13.9073" font-family="Times,serif" font-size="14.00" fill="#000000">end</text>
</g>
<!-- BB_002F16C9&#45;&gt;end -->
<g id="edge2" class="edge">
<title>BB_002F16C9-&gt;end</title>
<path fill="none" stroke="#000000" d="M69.5248,-72.0189C69.5248,-64.2477 69.5248,-54.9956 69.5248,-46.3686"/>
<polygon fill="#000000" stroke="#000000" points="73.0249,-46.2972 69.5248,-36.2972 66.0249,-46.2972 73.0249,-46.2972"/>
</g>
</g>
</svg>