<?xml version="1.0" encoding="UTF-8" standalone="no"?><!DOCTYPE svg PUBLIC "-//W3C//DTD SVG 1.1//EN" "http://www.w3.org/Graphics/SVG/1.1/DTD/svg11.dtd"><!-- Generated by graphviz version 2.40.1 (20161225.0304)
 --><!-- Title: G Pages: 1 --><svg xmlns="http://www.w3.org/2000/svg" xmlns:xlink="http://www.w3.org/1999/xlink" width="147pt" height="222pt" viewBox="0.00 0.00 147.03 221.64">
<g id="graph0" class="graph" transform="scale(1 1) rotate(0) translate(4 217.6438)">
<title>G</title>
<polygon fill="#ffffff" stroke="transparent" points="-4,4 -4,-217.6438 143.0321,-217.6438 143.0321,4 -4,4"/>
<!-- start -->
<g id="node1" class="node">
<title>start</title>
<polygon fill="none" stroke="#000000" points="69.5161,-213.6438 30.2788,-195.6438 69.5161,-177.6438 108.7534,-195.6438 69.5161,-213.6438"/>
<polyline fill="none" stroke="#000000" points="41.1858,-200.6474 41.1858,-190.6402 "/>
<polyline fill="none" stroke="#000000" points="58.609,-182.6474 80.4231,-182.6474 "/>
<polyline fill="none" stroke="#000000" points="97.8463,-190.6402 97.8463,-200.6474 "/>
<polyline fill="none" stroke="#000000" points="80.4231,-208.6402 58.609,-208.6402 "/>
<text text-anchor="middle" x="69.5161" y="-191.4438" font-family="Times,serif" font-size="14.00" fill="#000000">start</text>
</g>
<!-- BB_0030852D -->
<g id="node2" class="node">
<title>BB_0030852D</title>
<ellipse fill="none" stroke="#000000" cx="69.5161" cy="-123.6438" rx="69.5321" ry="18"/>
<text text-anchor="middle" x="69.5161" y="-119.4438" font-family="Times,serif" font-size="14.00" fill="#000000">BB_0030852D</text>
</g>
<!-- start&#45;&gt;BB_0030852D -->
<g id="edge1" class="edge">
<title>start-&gt;BB_0030852D</title>
<path fill="none" stroke="#000000" d="M69.5161,-177.4752C69.5161,-169.7748 69.5161,-160.6181 69.5161,-152.0604"/>
<polygon fill="#000000" stroke="#000000" points="73.0162,-152.057 69.5161,-142.0571 66.0162,-152.0571 73.0162,-152.057"/>
</g>
<!-- dead_end -->
<g id="node3" class="node">
<title>dead_end</title>
<polygon fill="none" stroke="#000000" points="104.1608,-69.4666 34.8714,-69.4666 34.8714,-.1772 104.1608,-.1772 104.1608,-69.4666"/>
<polyline fill="none" stroke="#000000" points="46.8714,-69.4666 34.8714,-57.4666 "/>
<polyline fill="none" stroke="#000000" points="34.8714,-12.1772 46.8714,-.1772 "/>
<polyline fill="none" stroke="#000000" points="92.1608,-.1772 104.1608,-12.1772 "/>
<polyline fill="none" stroke="#000000" points="104.1608,-57.4666 92.1608,-69.4666 "/>
<text text-anchor="middle" x="69.5161" y="-30.6219" font-family="Times,serif" font-size="14.00" fill="#000000">dead_end</text>
</g>
<!-- BB_0030852D&#45;&gt;dead_end -->
<g id="edge2" class="edge">
<title>BB_0030852D-&gt;dead_end</title>
<path fill="none" stroke="#000000" d="M69.5161,-105.2398C69.5161,-97.7822 69.5161,-88.8138 69.5161,-79.8137"/>
<polygon fill="#000000" stroke="#000000" points="73.0162,-79.7175 69.5161,-69.7175 66.0162,-79.7176 73.0162,-79.7175"/>
</g>
</g>
</svg>