<?xml version="1.0" encoding="UTF-8" standalone="no"?><!DOCTYPE svg PUBLIC "-//W3C//DTD SVG 1.1//EN" "http://www.w3.org/Graphics/SVG/1.1/DTD/svg11.dtd"><!-- Generated by graphviz version 2.40.1 (20161225.0304)
 --><!-- Title: %0 Pages: 1 --><svg xmlns="http://www.w3.org/2000/svg" xmlns:xlink="http://www.w3.org/1999/xlink" width="571pt" height="692pt" viewBox="0.00 0.00 570.99 692.21">
<g id="graph0" class="graph" transform="scale(1 1) rotate(0) translate(4 688.2146)">
<title>%0</title>
<polygon fill="#ffffff" stroke="transparent" points="-4,4 -4,-688.2146 566.9852,-688.2146 566.9852,4 -4,4"/>
<!-- start -->
<g id="node1" class="node">
<title>start</title>
<polygon fill="none" stroke="#000000" points="155.9618,-684.2146 116.7245,-666.2146 155.9618,-648.2146 195.1991,-666.2146 155.9618,-684.2146"/>
<polyline fill="none" stroke="#000000" points="127.6316,-671.2182 127.6316,-661.211 "/>
<polyline fill="none" stroke="#000000" points="145.0547,-653.2182 166.8689,-653.2182 "/>
<polyline fill="none" stroke="#000000" points="184.292,-661.211 184.292,-671.2182 "/>
<polyline fill="none" stroke="#000000" points="166.8689,-679.211 145.0547,-679.211 "/>
<text text-anchor="middle" x="155.9618" y="-662.0146" font-family="Times,serif" font-size="14.00" fill="#000000">start</text>
</g>
<!-- n002 -->
<g id="node2" class="node">
<title>n002</title>
<polygon fill="none" stroke="#a020f0" points="224.9618,-612.2146 170.9618,-612.2146 170.9618,-576.2146 224.9618,-576.2146 224.9618,-612.2146"/>
<text text-anchor="middle" x="197.9618" y="-590.0146" font-family="Times,serif" font-size="14.00" fill="#000000">mov</text>
</g>
<!-- start&#45;&gt;n002 -->
<g id="edge1" class="edge">
<title>start-&gt;n002</title>
<path fill="none" stroke="#000000" d="M164.2596,-651.9897C169.3999,-643.1779 176.1665,-631.5779 182.287,-621.0856"/>
<polygon fill="#000000" stroke="#000000" points="185.4266,-622.6496 187.4422,-612.2482 179.3802,-619.1225 185.4266,-622.6496"/>
</g>
<!-- n000 -->
<g id="node3" class="node">
<title>n000</title>
<ellipse fill="none" stroke="#000000" cx="147.9618" cy="-522.2146" rx="27" ry="18"/>
<text text-anchor="middle" x="147.9618" y="-518.0146" font-family="Times,serif" font-size="14.00" fill="#000000">esi</text>
</g>
<!-- n002&#45;&gt;n000 -->
<g id="edge3" class="edge">
<title>n002-&gt;n000</title>
<path fill="none" stroke="#00ffff" d="M185.3447,-576.046C179.2314,-567.2429 171.7966,-556.5367 165.1724,-546.9978"/>
<polygon fill="#00ffff" stroke="#00ffff" points="167.9568,-544.8712 159.378,-538.6539 162.2072,-548.864 167.9568,-544.8712"/>
</g>
<!-- n006 -->
<g id="node5" class="node">
<title>n006</title>
<polygon fill="none" stroke="#a020f0" points="335.9618,-540.2146 281.9618,-540.2146 281.9618,-504.2146 335.9618,-504.2146 335.9618,-540.2146"/>
<text text-anchor="middle" x="308.9618" y="-518.0146" font-family="Times,serif" font-size="14.00" fill="#000000">mov</text>
</g>
<!-- n002&#45;&gt;n006 -->
<g id="edge4" class="edge">
<title>n002-&gt;n006</title>
<path fill="none" stroke="#000000" d="M225.1155,-576.6014C239.6287,-567.1874 257.677,-555.4804 273.307,-545.342"/>
<polygon fill="#000000" stroke="#000000" points="275.2188,-548.2738 281.7038,-539.8955 271.4095,-542.4011 275.2188,-548.2738"/>
</g>
<!-- n003 -->
<g id="node6" class="node">
<title>n003</title>
<polygon fill="none" stroke="#ffa500" points="359.8854,-468.2146 258.0382,-468.2146 258.0382,-432.2146 359.8854,-432.2146 359.8854,-468.2146"/>
<text text-anchor="middle" x="308.9618" y="-446.0146" font-family="Times,serif" font-size="14.00" fill="#000000">memory.dword</text>
</g>
<!-- n000&#45;&gt;n003 -->
<g id="edge7" class="edge">
<title>n000-&gt;n003</title>
<path fill="none" stroke="#00ffff" d="M169.5686,-511.1664C174.2883,-508.8218 179.274,-506.397 183.9618,-504.2146 207.4958,-493.2582 233.8401,-481.7652 256.2533,-472.2121"/>
<polygon fill="#00ffff" stroke="#00ffff" points="257.7621,-475.374 265.5987,-468.2438 255.0261,-468.9308 257.7621,-475.374"/>
</g>
<!-- n008 -->
<g id="node10" class="node">
<title>n008</title>
<polygon fill="none" stroke="#ffa500" points="239.656,-468.2146 158.2676,-468.2146 158.2676,-432.2146 239.656,-432.2146 239.656,-468.2146"/>
<text text-anchor="middle" x="198.9618" y="-446.0146" font-family="Times,serif" font-size="14.00" fill="#000000">address.add</text>
</g>
<!-- n000&#45;&gt;n008 -->
<g id="edge9" class="edge">
<title>n000-&gt;n008</title>
<path fill="none" stroke="#00ffff" d="M159.5345,-505.8767C165.6717,-497.2124 173.3616,-486.3561 180.3165,-476.5373"/>
<polygon fill="#00ffff" stroke="#00ffff" points="183.2577,-478.4403 186.1818,-468.2569 177.5455,-474.3941 183.2577,-478.4403"/>
</g>
<!-- n014 -->
<g id="node15" class="node">
<title>n014</title>
<polygon fill="none" stroke="#ffa500" points="99.656,-468.2146 18.2676,-468.2146 18.2676,-432.2146 99.656,-432.2146 99.656,-468.2146"/>
<text text-anchor="middle" x="58.9618" y="-446.0146" font-family="Times,serif" font-size="14.00" fill="#000000">address.add</text>
</g>
<!-- n000&#45;&gt;n014 -->
<g id="edge17" class="edge">
<title>n000-&gt;n014</title>
<path fill="none" stroke="#00ffff" d="M130.3783,-507.9897C118.6056,-498.4658 102.8071,-485.685 89.0626,-474.5658"/>
<polygon fill="#00ffff" stroke="#00ffff" points="91.2292,-471.8167 81.2534,-468.2482 86.8266,-477.2588 91.2292,-471.8167"/>
</g>
<!-- n024 -->
<g id="node22" class="node">
<title>n024</title>
<polygon fill="none" stroke="#a020f0" points="319.9618,-252.2146 265.9618,-252.2146 265.9618,-216.2146 319.9618,-216.2146 319.9618,-252.2146"/>
<text text-anchor="middle" x="292.9618" y="-230.0146" font-family="Times,serif" font-size="14.00" fill="#000000">mov</text>
</g>
<!-- n000&#45;&gt;n024 -->
<g id="edge25" class="edge">
<title>n000-&gt;n024</title>
<path fill="none" stroke="#00ffff" d="M145.1115,-504.1325C142.8872,-485.5989 141.31,-456.1805 148.9618,-432.2146 171.6174,-361.2559 230.7357,-294.6616 265.7784,-259.7087"/>
<polygon fill="#00ffff" stroke="#00ffff" points="268.6068,-261.8366 273.2899,-252.333 263.7024,-256.8419 268.6068,-261.8366"/>
</g>
<!-- n001 -->
<g id="node4" class="node">
<title>n001</title>
<ellipse fill="none" stroke="#000000" cx="239.9618" cy="-666.2146" rx="27" ry="18"/>
<text text-anchor="middle" x="239.9618" y="-662.0146" font-family="Times,serif" font-size="14.00" fill="#000000">ecx</text>
</g>
<!-- n001&#45;&gt;n002 -->
<g id="edge2" class="edge">
<title>n001-&gt;n002</title>
<path fill="none" stroke="#00ffff" d="M230.0084,-649.1516C225.1186,-640.769 219.1117,-630.4715 213.6252,-621.0662"/>
<polygon fill="#00ffff" stroke="#00ffff" points="216.64,-619.288 208.578,-612.4138 210.5935,-622.8151 216.64,-619.288"/>
</g>
<!-- n006&#45;&gt;n003 -->
<g id="edge6" class="edge">
<title>n006-&gt;n003</title>
<path fill="none" stroke="#00ffff" d="M308.9618,-504.046C308.9618,-496.3456 308.9618,-487.1889 308.9618,-478.6312"/>
<polygon fill="#00ffff" stroke="#00ffff" points="312.4619,-478.6278 308.9618,-468.6279 305.4619,-478.6279 312.4619,-478.6278"/>
</g>
<!-- n012 -->
<g id="node8" class="node">
<title>n012</title>
<polygon fill="none" stroke="#a020f0" points="431.9618,-468.2146 377.9618,-468.2146 377.9618,-432.2146 431.9618,-432.2146 431.9618,-468.2146"/>
<text text-anchor="middle" x="404.9618" y="-446.0146" font-family="Times,serif" font-size="14.00" fill="#000000">mov</text>
</g>
<!-- n006&#45;&gt;n012 -->
<g id="edge8" class="edge">
<title>n006-&gt;n012</title>
<path fill="none" stroke="#000000" d="M333.1867,-504.046C345.1246,-495.0925 359.6874,-484.1704 372.5678,-474.5101"/>
<polygon fill="#000000" stroke="#000000" points="374.8447,-477.1775 380.7447,-468.3774 370.6447,-471.5775 374.8447,-477.1775"/>
</g>
<!-- n005 -->
<g id="node7" class="node">
<title>n005</title>
<ellipse fill="none" stroke="#000000" cx="308.9618" cy="-594.2146" rx="27" ry="18"/>
<text text-anchor="middle" x="308.9618" y="-590.0146" font-family="Times,serif" font-size="14.00" fill="#000000">0</text>
</g>
<!-- n005&#45;&gt;n006 -->
<g id="edge5" class="edge">
<title>n005-&gt;n006</title>
<path fill="none" stroke="#00ffff" d="M308.9618,-576.046C308.9618,-568.3456 308.9618,-559.1889 308.9618,-550.6312"/>
<polygon fill="#00ffff" stroke="#00ffff" points="312.4619,-550.6278 308.9618,-540.6279 305.4619,-550.6279 312.4619,-550.6278"/>
</g>
<!-- n007 -->
<g id="node9" class="node">
<title>n007</title>
<polygon fill="none" stroke="#ffa500" points="309.8854,-396.2146 208.0382,-396.2146 208.0382,-360.2146 309.8854,-360.2146 309.8854,-396.2146"/>
<text text-anchor="middle" x="258.9618" y="-374.0146" font-family="Times,serif" font-size="14.00" fill="#000000">memory.dword</text>
</g>
<!-- n012&#45;&gt;n007 -->
<g id="edge12" class="edge">
<title>n012-&gt;n007</title>
<path fill="none" stroke="#00ffff" d="M377.8456,-436.63C374.8495,-435.1369 371.842,-433.6416 368.9618,-432.2146 347.9796,-421.819 324.7055,-410.3802 304.9891,-400.717"/>
<polygon fill="#00ffff" stroke="#00ffff" points="306.4326,-397.5268 295.9125,-396.2707 303.3531,-403.8131 306.4326,-397.5268"/>
</g>
<!-- n018 -->
<g id="node13" class="node">
<title>n018</title>
<polygon fill="none" stroke="#a020f0" points="406.9618,-396.2146 352.9618,-396.2146 352.9618,-360.2146 406.9618,-360.2146 406.9618,-396.2146"/>
<text text-anchor="middle" x="379.9618" y="-374.0146" font-family="Times,serif" font-size="14.00" fill="#000000">mov</text>
</g>
<!-- n012&#45;&gt;n018 -->
<g id="edge14" class="edge">
<title>n012-&gt;n018</title>
<path fill="none" stroke="#000000" d="M398.6532,-432.046C395.9501,-424.2609 392.7302,-414.9875 389.7308,-406.3493"/>
<polygon fill="#000000" stroke="#000000" points="392.9418,-404.9265 386.3553,-396.6279 386.3291,-407.2227 392.9418,-404.9265"/>
</g>
<!-- n008&#45;&gt;n007 -->
<g id="edge13" class="edge">
<title>n008-&gt;n007</title>
<path fill="none" stroke="#00ffff" d="M214.1023,-432.046C221.0835,-423.6686 229.5009,-413.5677 237.1494,-404.3895"/>
<polygon fill="#00ffff" stroke="#00ffff" points="239.9043,-406.5508 243.6174,-396.6279 234.5267,-402.0694 239.9043,-406.5508"/>
</g>
<!-- n010 -->
<g id="node11" class="node">
<title>n010</title>
<ellipse fill="none" stroke="#000000" cx="222.9618" cy="-522.2146" rx="30.2015" ry="18"/>
<text text-anchor="middle" x="222.9618" y="-518.0146" font-family="Times,serif" font-size="14.00" fill="#000000">0x10</text>
</g>
<!-- n010&#45;&gt;n008 -->
<g id="edge10" class="edge">
<title>n010-&gt;n008</title>
<path fill="none" stroke="#00ffff" d="M217.0292,-504.4168C214.3667,-496.4292 211.1633,-486.8191 208.198,-477.9233"/>
<polygon fill="#00ffff" stroke="#00ffff" points="211.4756,-476.6877 204.9928,-468.3077 204.8348,-478.9014 211.4756,-476.6877"/>
</g>
<!-- n011 -->
<g id="node12" class="node">
<title>n011</title>
<ellipse fill="none" stroke="#000000" cx="404.9618" cy="-522.2146" rx="27" ry="18"/>
<text text-anchor="middle" x="404.9618" y="-518.0146" font-family="Times,serif" font-size="14.00" fill="#000000">0</text>
</g>
<!-- n011&#45;&gt;n012 -->
<g id="edge11" class="edge">
<title>n011-&gt;n012</title>
<path fill="none" stroke="#00ffff" d="M404.9618,-504.046C404.9618,-496.3456 404.9618,-487.1889 404.9618,-478.6312"/>
<polygon fill="#00ffff" stroke="#00ffff" points="408.4619,-478.6278 404.9618,-468.6279 401.4619,-478.6279 408.4619,-478.6278"/>
</g>
<!-- n013 -->
<g id="node14" class="node">
<title>n013</title>
<polygon fill="none" stroke="#ffa500" points="101.8854,-324.2146 .0382,-324.2146 .0382,-288.2146 101.8854,-288.2146 101.8854,-324.2146"/>
<text text-anchor="middle" x="50.9618" y="-302.0146" font-family="Times,serif" font-size="14.00" fill="#000000">memory.dword</text>
</g>
<!-- n018&#45;&gt;n013 -->
<g id="edge16" class="edge">
<title>n018-&gt;n013</title>
<path fill="none" stroke="#00ffff" d="M352.7728,-369.6339C342.2655,-366.4649 330.1081,-362.9764 318.9618,-360.2146 248.485,-342.7521 166.5373,-326.8768 111.9949,-316.9275"/>
<polygon fill="#00ffff" stroke="#00ffff" points="112.6026,-313.4807 102.1385,-315.1397 111.3532,-320.3683 112.6026,-313.4807"/>
</g>
<!-- n021 -->
<g id="node18" class="node">
<title>n021</title>
<polygon fill="none" stroke="#a020f0" points="459.2433,-324.2146 372.6803,-324.2146 372.6803,-288.2146 459.2433,-288.2146 459.2433,-324.2146"/>
<text text-anchor="middle" x="415.9618" y="-302.0146" font-family="Times,serif" font-size="14.00" fill="#000000">sub_413C90</text>
</g>
<!-- n018&#45;&gt;n021 -->
<g id="edge20" class="edge">
<title>n018-&gt;n021</title>
<path fill="none" stroke="#000000" d="M389.0461,-360.046C393.0233,-352.0917 397.7773,-342.5836 402.1757,-333.7869"/>
<polygon fill="#000000" stroke="#000000" points="405.4135,-335.1374 406.7552,-324.6279 399.1525,-332.0069 405.4135,-335.1374"/>
</g>
<!-- n014&#45;&gt;n013 -->
<g id="edge19" class="edge">
<title>n014-&gt;n013</title>
<path fill="none" stroke="#00ffff" d="M57.9486,-431.9769C56.5841,-407.4156 54.1422,-363.462 52.537,-334.5687"/>
<polygon fill="#00ffff" stroke="#00ffff" points="56.0162,-334.0946 51.9668,-324.3042 49.027,-334.483 56.0162,-334.0946"/>
</g>
<!-- n016 -->
<g id="node16" class="node">
<title>n016</title>
<ellipse fill="none" stroke="#000000" cx="58.9618" cy="-522.2146" rx="30.2015" ry="18"/>
<text text-anchor="middle" x="58.9618" y="-518.0146" font-family="Times,serif" font-size="14.00" fill="#000000">0x14</text>
</g>
<!-- n016&#45;&gt;n014 -->
<g id="edge18" class="edge">
<title>n016-&gt;n014</title>
<path fill="none" stroke="#00ffff" d="M58.9618,-504.046C58.9618,-496.3456 58.9618,-487.1889 58.9618,-478.6312"/>
<polygon fill="#00ffff" stroke="#00ffff" points="62.4619,-478.6278 58.9618,-468.6279 55.4619,-478.6279 62.4619,-478.6278"/>
</g>
<!-- n017 -->
<g id="node17" class="node">
<title>n017</title>
<ellipse fill="none" stroke="#000000" cx="476.9618" cy="-450.2146" rx="27" ry="18"/>
<text text-anchor="middle" x="476.9618" y="-446.0146" font-family="Times,serif" font-size="14.00" fill="#000000">7</text>
</g>
<!-- n017&#45;&gt;n018 -->
<g id="edge15" class="edge">
<title>n017-&gt;n018</title>
<path fill="none" stroke="#00ffff" d="M458.7168,-436.672C445.7515,-427.0482 427.9832,-413.8593 412.6048,-402.4445"/>
<polygon fill="#00ffff" stroke="#00ffff" points="414.4687,-399.4692 404.3529,-396.3193 410.2965,-405.09 414.4687,-399.4692"/>
</g>
<!-- n020_2 -->
<g id="node21" class="node">
<title>n020_2</title>
<ellipse fill="none" stroke="#000000" cx="415.9618" cy="-234.2146" rx="27" ry="18"/>
<text text-anchor="middle" x="415.9618" y="-230.0146" font-family="Times,serif" font-size="14.00" fill="#000000">eax</text>
</g>
<!-- n021&#45;&gt;n020_2 -->
<g id="edge23" class="edge">
<title>n021-&gt;n020_2</title>
<path fill="none" stroke="#00ffff" d="M415.9618,-288.046C415.9618,-280.3456 415.9618,-271.1889 415.9618,-262.6312"/>
<polygon fill="#00ffff" stroke="#00ffff" points="419.4619,-262.6278 415.9618,-252.6279 412.4619,-262.6279 419.4619,-262.6278"/>
</g>
<!-- n021&#45;&gt;n024 -->
<g id="edge24" class="edge">
<title>n021-&gt;n024</title>
<path fill="none" stroke="#000000" d="M384.9237,-288.046C367.9547,-278.1129 346.8464,-265.7568 329.1342,-255.3887"/>
<polygon fill="#000000" stroke="#000000" points="330.6196,-252.2027 320.2213,-250.1714 327.0833,-258.2438 330.6196,-252.2027"/>
</g>
<!-- n019 -->
<g id="node19" class="node">
<title>n019</title>
<ellipse fill="none" stroke="#000000" cx="451.9618" cy="-378.2146" rx="27" ry="18"/>
<text text-anchor="middle" x="451.9618" y="-374.0146" font-family="Times,serif" font-size="14.00" fill="#000000">Src</text>
</g>
<!-- n019&#45;&gt;n021 -->
<g id="edge22" class="edge">
<title>n019-&gt;n021</title>
<path fill="none" stroke="#00ffff" d="M443.2472,-360.7854C439.139,-352.569 434.1422,-342.5754 429.5529,-333.3967"/>
<polygon fill="#00ffff" stroke="#00ffff" points="432.5748,-331.6142 424.9721,-324.2352 426.3138,-334.7447 432.5748,-331.6142"/>
</g>
<!-- n020 -->
<g id="node20" class="node">
<title>n020</title>
<ellipse fill="none" stroke="#000000" cx="529.9618" cy="-378.2146" rx="33.0469" ry="18"/>
<text text-anchor="middle" x="529.9618" y="-374.0146" font-family="Times,serif" font-size="14.00" fill="#000000">arg_4</text>
</g>
<!-- n020&#45;&gt;n021 -->
<g id="edge21" class="edge">
<title>n020-&gt;n021</title>
<path fill="none" stroke="#00ffff" d="M508.2509,-364.5025C492.7062,-354.6847 471.3884,-341.2209 453.1574,-329.7066"/>
<polygon fill="#00ffff" stroke="#00ffff" points="454.8183,-326.616 444.4944,-324.2352 451.0803,-332.5344 454.8183,-326.616"/>
</g>
<!-- n022 -->
<g id="node23" class="node">
<title>n022</title>
<ellipse fill="none" stroke="#000000" cx="265.9618" cy="-162.2146" rx="27" ry="18"/>
<text text-anchor="middle" x="265.9618" y="-158.0146" font-family="Times,serif" font-size="14.00" fill="#000000">eax</text>
</g>
<!-- n024&#45;&gt;n022 -->
<g id="edge26" class="edge">
<title>n024-&gt;n022</title>
<path fill="none" stroke="#00ffff" d="M286.1486,-216.046C283.152,-208.0552 279.5675,-198.4965 276.2561,-189.666"/>
<polygon fill="#00ffff" stroke="#00ffff" points="279.4678,-188.2624 272.6793,-180.128 272.9135,-190.7203 279.4678,-188.2624"/>
</g>
<!-- n026 -->
<g id="node24" class="node">
<title>n026</title>
<polygon fill="none" stroke="#a020f0" points="319.9618,-108.2146 265.9618,-108.2146 265.9618,-72.2146 319.9618,-72.2146 319.9618,-108.2146"/>
<text text-anchor="middle" x="292.9618" y="-86.0146" font-family="Times,serif" font-size="14.00" fill="#000000">retn</text>
</g>
<!-- n024&#45;&gt;n026 -->
<g id="edge27" class="edge">
<title>n024-&gt;n026</title>
<path fill="none" stroke="#000000" d="M296.8031,-215.8147C298.7784,-205.4171 300.9741,-192.1492 301.9618,-180.2146 303.2815,-164.2691 303.2815,-160.1601 301.9618,-144.2146 301.2673,-135.8231 299.9756,-126.7724 298.5832,-118.5238"/>
<polygon fill="#000000" stroke="#000000" points="302.0162,-117.8381 296.8031,-108.6145 295.1265,-119.0758 302.0162,-117.8381"/>
</g>
<!-- n022&#45;&gt;n026 -->
<g id="edge28" class="edge">
<title>n022-&gt;n026</title>
<path fill="none" stroke="#00ffff" d="M272.636,-144.4168C275.6313,-136.4292 279.2351,-126.8191 282.571,-117.9233"/>
<polygon fill="#00ffff" stroke="#00ffff" points="285.9427,-118.9 286.1769,-108.3077 279.3884,-116.4421 285.9427,-118.9"/>
</g>
<!-- end -->
<g id="node25" class="node">
<title>end</title>
<polygon fill="none" stroke="#000000" points="311.177,-36.3225 274.7466,-36.3225 274.7466,.1079 311.177,.1079 311.177,-36.3225"/>
<polyline fill="none" stroke="#000000" points="286.7466,-36.3225 274.7466,-24.3225 "/>
<polyline fill="none" stroke="#000000" points="274.7466,-11.8921 286.7466,.1079 "/>
<polyline fill="none" stroke="#000000" points="299.177,.1079 311.177,-11.8921 "/>
<polyline fill="none" stroke="#000000" points="311.177,-24.3225 299.177,-36.3225 "/>
<text text-anchor="middle" x="292.9618" y="-13.9073" font-family="Times,serif" font-size="14.00" fill="#000000">end</text>
</g>
<!-- n026&#45;&gt;end -->
<g id="edge29" class="edge">
<title>n026-&gt;end</title>
<path fill="none" stroke="#000000" d="M292.9618,-72.0189C292.9618,-64.2477 292.9618,-54.9956 292.9618,-46.3686"/>
<polygon fill="#000000" stroke="#000000" points="296.4619,-46.2972 292.9618,-36.2972 289.4619,-46.2972 296.4619,-46.2972"/>
</g>
</g>
</svg>